<?xml version="1.0" encoding="utf-8"?>
<!-- Generated by IcoMoon.io -->
<!DOCTYPE svg PUBLIC "-//W3C//DTD SVG 1.1//EN" "http://www.w3.org/Graphics/SVG/1.1/DTD/svg11.dtd">
<svg version="1.1" xmlns="http://www.w3.org/2000/svg" xmlns:xlink="http://www.w3.org/1999/xlink" width="32" height="32" viewBox="0 0 32 32">
<path d="M16 2.667c-7.367 0-13.334 5.966-13.334 13.334s5.966 13.334 13.334 13.334 13.334-5.966 13.334-13.334-5.966-13.334-13.334-13.334zM16 6.667c2.206 0 4 1.794 4 4 0 2.213-1.794 4-4 4s-4-1.787-4-4c0-2.207 1.793-4 4-4zM16 25.6c-3.34 0-6.274-1.706-8-4.294 0.034-2.646 5.34-4.107 8-4.107s7.96 1.46 8 4.107c-1.727 2.587-4.66 4.294-8 4.294z" fill="#444444"></path>
</svg>
