<?xml version="1.0" encoding="utf-8"?>
<!-- Generated by IcoMoon.io -->
<!DOCTYPE svg PUBLIC "-//W3C//DTD SVG 1.1//EN" "http://www.w3.org/Graphics/SVG/1.1/DTD/svg11.dtd">
<svg version="1.1" xmlns="http://www.w3.org/2000/svg" xmlns:xlink="http://www.w3.org/1999/xlink" width="32" height="32" viewBox="0 0 32 32">
<path d="M22 16c1.84 0 3.32-1.494 3.32-3.334s-1.48-3.334-3.32-3.334c-1.84 0-3.334 1.494-3.334 3.334s1.494 3.334 3.334 3.334zM12 14.666c2.207 0 3.986-1.793 3.986-4s-1.78-4-3.986-4c-2.207 0-4 1.793-4 4s1.793 4 4 4zM22 18.666c-2.447 0-7.334 1.227-7.334 3.666v3h14.666v-3c0-2.44-4.886-3.666-7.334-3.666zM12 17.334c-3.114 0-9.334 1.56-9.334 4.666v3.334h9.334v-3c0-1.134 0.447-3.114 3.16-4.627-1.16-0.247-2.287-0.373-3.16-0.373z" fill="#444444"></path>
</svg>
