<?xml version="1.0" encoding="utf-8"?>
<!-- Generated by IcoMoon.io -->
<!DOCTYPE svg PUBLIC "-//W3C//DTD SVG 1.1//EN" "http://www.w3.org/Graphics/SVG/1.1/DTD/svg11.dtd">
<svg version="1.1" xmlns="http://www.w3.org/2000/svg" xmlns:xlink="http://www.w3.org/1999/xlink" width="32" height="32" viewBox="0 0 32 32">
<path d="M4 6.667v18.666c0 1.474 1.194 2.666 2.667 2.666h18.666c1.474 0 2.666-1.194 2.666-2.666v-18.666c0-1.473-1.194-2.667-2.666-2.667h-18.666c-1.473 0-2.667 1.194-2.667 2.667zM20 12c0 2.213-1.794 4-4 4s-4-1.787-4-4c0-2.207 1.793-4 4-4s4 1.793 4 4zM8 22.666c0-2.666 5.334-4.133 8-4.133s8 1.466 8 4.133v1.334h-16v-1.334z" fill="#444444"></path>
</svg>
