<?xml version="1.0" encoding="utf-8"?>
<!-- Generated by IcoMoon.io -->
<!DOCTYPE svg PUBLIC "-//W3C//DTD SVG 1.1//EN" "http://www.w3.org/Graphics/SVG/1.1/DTD/svg11.dtd">
<svg version="1.1" xmlns="http://www.w3.org/2000/svg" xmlns:xlink="http://www.w3.org/1999/xlink" width="32" height="32" viewBox="0 0 32 32">
<path d="M6.667 21.334c0 5.154 4.18 9.334 9.334 9.334s9.334-4.18 9.334-9.334v-5.334h-18.666v5.334zM21.5 5.827l2.8-2.8-1.1-1.1-3.073 3.073c-1.253-0.62-2.64-1-4.127-1s-2.873 0.38-4.127 1l-3.073-3.074-1.1 1.1 2.8 2.8c-2.313 1.694-3.833 4.413-3.833 7.506v1.334h18.666v-1.334c0-3.094-1.52-5.814-3.834-7.506zM12 12c-0.74 0-1.334-0.6-1.334-1.334s0.594-1.334 1.334-1.334c0.74 0 1.334 0.6 1.334 1.334s-0.594 1.334-1.334 1.334zM20 12c-0.74 0-1.334-0.6-1.334-1.334s0.593-1.334 1.334-1.334c0.74 0 1.334 0.6 1.334 1.334s-0.593 1.334-1.334 1.334z" fill="#444444"></path>
</svg>
