<?xml version="1.0" encoding="utf-8"?>
<!-- Generated by IcoMoon.io -->
<!DOCTYPE svg PUBLIC "-//W3C//DTD SVG 1.1//EN" "http://www.w3.org/Graphics/SVG/1.1/DTD/svg11.dtd">
<svg version="1.1" xmlns="http://www.w3.org/2000/svg" xmlns:xlink="http://www.w3.org/1999/xlink" width="32" height="32" viewBox="0 0 32 32">
<path d="M14.666 12h2.666v-4h4v-2.667h-4v-4h-2.666v4h-4v2.667h4v4zM9.334 24c-1.473 0-2.654 1.194-2.654 2.666s1.18 2.666 2.654 2.666 2.666-1.194 2.666-2.666-1.194-2.666-2.666-2.666zM22.666 24c-1.474 0-2.654 1.194-2.654 2.666s1.18 2.666 2.654 2.666 2.666-1.194 2.666-2.666-1.194-2.666-2.666-2.666zM9.566 19.666c0-0.060 0.014-0.113 0.040-0.16l1.2-2.174h9.934c1 0 1.873-0.553 2.334-1.373l5.146-9.347-2.334-1.28h-0.006l-1.474 2.667-3.674 6.666h-9.354l-0.174-0.36-4.26-8.973-1.26-2.667h-4.354v2.667h2.667l4.8 10.114-1.806 3.267c-0.207 0.387-0.327 0.82-0.327 1.287 0 1.474 1.194 2.666 2.667 2.666h16v-2.666h-15.434c-0.187 0-0.334-0.146-0.334-0.334z" fill="#444444"></path>
</svg>
