<?xml version="1.0" encoding="utf-8"?>
<!-- Generated by IcoMoon.io -->
<!DOCTYPE svg PUBLIC "-//W3C//DTD SVG 1.1//EN" "http://www.w3.org/Graphics/SVG/1.1/DTD/svg11.dtd">
<svg version="1.1" xmlns="http://www.w3.org/2000/svg" xmlns:xlink="http://www.w3.org/1999/xlink" width="32" height="32" viewBox="0 0 32 32">
<path d="M16 2.667c-7.367 0-13.334 5.966-13.334 13.334s5.966 13.334 13.334 13.334 13.334-5.966 13.334-13.334-5.966-13.334-13.334-13.334zM16 22c-3.313 0-6-2.686-6-6s2.687-6 6-6 6 2.687 6 6-2.686 6-6 6zM16 14.666c-0.733 0-1.334 0.6-1.334 1.334s0.6 1.334 1.334 1.334 1.334-0.6 1.334-1.334-0.6-1.334-1.334-1.334z" fill="#444444"></path>
</svg>
