<?xml version="1.0" encoding="utf-8"?>
<!-- Generated by IcoMoon.io -->
<!DOCTYPE svg PUBLIC "-//W3C//DTD SVG 1.1//EN" "http://www.w3.org/Graphics/SVG/1.1/DTD/svg11.dtd">
<svg version="1.1" xmlns="http://www.w3.org/2000/svg" xmlns:xlink="http://www.w3.org/1999/xlink" width="32" height="32" viewBox="0 0 32 32">
<path d="M27.393 6.966l-1.846-2.24c-0.373-0.44-0.927-0.727-1.546-0.727h-16c-0.62 0-1.173 0.286-1.54 0.727l-1.846 2.24c-0.386 0.466-0.614 1.053-0.614 1.7v16.666c0 1.474 1.194 2.666 2.667 2.666h18.666c1.474 0 2.666-1.194 2.666-2.666v-16.666c0-0.646-0.227-1.234-0.607-1.7zM16 23.334l-7.334-7.334h4.666v-2.666h5.334v2.666h4.666l-7.334 7.334zM6.833 6.667l1.087-1.333h16l1.247 1.333h-18.334z" fill="#444444"></path>
</svg>
