<?xml version="1.0" encoding="utf-8"?>
<!-- Generated by IcoMoon.io -->
<!DOCTYPE svg PUBLIC "-//W3C//DTD SVG 1.1//EN" "http://www.w3.org/Graphics/SVG/1.1/DTD/svg11.dtd">
<svg version="1.1" xmlns="http://www.w3.org/2000/svg" xmlns:xlink="http://www.w3.org/1999/xlink" width="32" height="32" viewBox="0 0 32 32">
<path d="M24.586 4.585l-16.586 16.586v-7.171c0-1.104-0.896-2-2-2s-2 0.896-2 2v12c0 0.809 0.487 1.538 1.234 1.848 0.247 0.102 0.508 0.151 0.766 0.151v0.001h12c1.105 0 2-0.895 2-2s-0.895-2-2-2h-7.171l16.586-16.586c0.39-0.391 0.586-0.902 0.586-1.415s-0.195-1.024-0.586-1.414c-0.781-0.781-2.047-0.781-2.828 0v0z" fill="#444444"></path>
</svg>
