<?xml version="1.0" encoding="utf-8"?>
<!-- Generated by IcoMoon.io -->
<!DOCTYPE svg PUBLIC "-//W3C//DTD SVG 1.1//EN" "http://www.w3.org/Graphics/SVG/1.1/DTD/svg11.dtd">
<svg version="1.1" xmlns="http://www.w3.org/2000/svg" xmlns:xlink="http://www.w3.org/1999/xlink" width="32" height="32" viewBox="0 0 32 32">
<path d="M27.414 24.586l-16.586-16.586h7.172c1.105 0 2-0.896 2-2s-0.895-2-2-2h-12c-0.809 0-1.538 0.487-1.848 1.234-0.103 0.247-0.152 0.508-0.151 0.766h-0.001v12c0 1.105 0.896 2 2 2s2-0.895 2-2v-7.171l16.586 16.586c0.39 0.39 0.902 0.586 1.414 0.586s1.023-0.195 1.414-0.586c0.781-0.781 0.781-2.047 0-2.828z" fill="#444444"></path>
</svg>
