<?xml version="1.0" encoding="utf-8"?>
<!-- Generated by IcoMoon.io -->
<!DOCTYPE svg PUBLIC "-//W3C//DTD SVG 1.1//EN" "http://www.w3.org/Graphics/SVG/1.1/DTD/svg11.dtd">
<svg version="1.1" xmlns="http://www.w3.org/2000/svg" xmlns:xlink="http://www.w3.org/1999/xlink" width="32" height="32" viewBox="0 0 32 32">
<path d="M10 24c-4.053 0-7.333-3.287-7.333-7.334s3.28-7.334 7.333-7.334h14c2.947 0 5.334 2.386 5.334 5.334s-2.386 5.334-5.334 5.334h-11.334c-1.84 0-3.334-1.494-3.334-3.334s1.494-3.334 3.334-3.334h10v2h-10c-0.733 0-1.334 0.594-1.334 1.334s0.6 1.334 1.334 1.334h11.334c1.84 0 3.334-1.494 3.334-3.334s-1.494-3.334-3.334-3.334h-14c-2.947 0-5.333 2.386-5.333 5.334s2.386 5.334 5.333 5.334h12.666v2h-12.666z" fill="#444444"></path>
</svg>
