<?xml version="1.0" encoding="utf-8"?>
<!-- Generated by IcoMoon.io -->
<!DOCTYPE svg PUBLIC "-//W3C//DTD SVG 1.1//EN" "http://www.w3.org/Graphics/SVG/1.1/DTD/svg11.dtd">
<svg version="1.1" xmlns="http://www.w3.org/2000/svg" xmlns:xlink="http://www.w3.org/1999/xlink" width="32" height="32" viewBox="0 0 32 32">
<path d="M15.733 14.534c-3.027-0.787-4-1.594-4-2.86 0-1.454 1.34-2.473 3.6-2.473 2.374 0 3.254 1.133 3.333 2.8h2.947c-0.087-2.3-1.494-4.394-4.28-5.080v-2.92h-4v2.88c-2.587 0.567-4.666 2.234-4.666 4.814 0 3.080 2.553 4.614 6.267 5.506 3.34 0.8 4 1.966 4 3.22 0 0.913-0.646 2.38-3.6 2.38-2.746 0-3.833-1.233-3.973-2.8h-2.94c0.166 2.92 2.347 4.553 4.914 5.107v2.893h4v-2.866c2.593-0.5 4.666-2 4.666-4.74 0-3.773-3.24-5.066-6.267-5.86z" fill="#444444"></path>
</svg>
