<?xml version="1.0" encoding="utf-8"?>
<!-- Generated by IcoMoon.io -->
<!DOCTYPE svg PUBLIC "-//W3C//DTD SVG 1.1//EN" "http://www.w3.org/Graphics/SVG/1.1/DTD/svg11.dtd">
<svg version="1.1" xmlns="http://www.w3.org/2000/svg" xmlns:xlink="http://www.w3.org/1999/xlink" width="32" height="32" viewBox="0 0 32 32">
<path d="M16 8v4l5.334-5.333-5.334-5.333v4c-5.893 0-10.666 4.774-10.666 10.666 0 2.094 0.614 4.034 1.654 5.68l1.946-1.947c-0.594-1.113-0.934-2.38-0.934-3.733 0-4.42 3.58-8 8-8zM25.014 10.32l-1.947 1.947c0.593 1.114 0.933 2.38 0.933 3.733 0 4.42-3.58 8-8 8v-4l-5.334 5.334 5.334 5.334v-4c5.893 0 10.666-4.773 10.666-10.666 0-2.094-0.613-4.034-1.654-5.68z" fill="#444444"></path>
</svg>
