<?xml version="1.0" encoding="utf-8"?>
<!-- Generated by IcoMoon.io -->
<!DOCTYPE svg PUBLIC "-//W3C//DTD SVG 1.1//EN" "http://www.w3.org/Graphics/SVG/1.1/DTD/svg11.dtd">
<svg version="1.1" xmlns="http://www.w3.org/2000/svg" xmlns:xlink="http://www.w3.org/1999/xlink" width="32" height="32" viewBox="0 0 32 32">
<path d="M14.666 22.666c0 0.733 0.6 1.334 1.334 1.334s1.334-0.6 1.334-1.334-0.6-1.334-1.334-1.334-1.334 0.6-1.334 1.334zM14.666 4v5.334h2.666v-2.56c4.52 0.646 8 4.527 8 9.226 0 5.154-4.18 9.334-9.334 9.334s-9.334-4.18-9.334-9.334c0-2.24 0.787-4.287 2.1-5.9l7.234 7.234 1.887-1.886-9.066-9.066-0.014 0.027c-2.913 2.187-4.806 5.667-4.806 9.594 0 6.627 5.36 12 11.993 12s12.006-5.373 12.006-12-5.373-12-12.007-12h-1.326zM24 16c0-0.733-0.6-1.334-1.334-1.334s-1.334 0.6-1.334 1.334 0.6 1.334 1.334 1.334 1.334-0.6 1.334-1.334zM8 16c0 0.733 0.6 1.334 1.334 1.334s1.334-0.6 1.334-1.334-0.6-1.334-1.334-1.334-1.334 0.6-1.334 1.334z" fill="#444444"></path>
</svg>
