<?xml version="1.0" encoding="utf-8"?>
<!-- Generated by IcoMoon.io -->
<!DOCTYPE svg PUBLIC "-//W3C//DTD SVG 1.1//EN" "http://www.w3.org/Graphics/SVG/1.1/DTD/svg11.dtd">
<svg version="1.1" xmlns="http://www.w3.org/2000/svg" xmlns:xlink="http://www.w3.org/1999/xlink" width="32" height="32" viewBox="0 0 32 32">
<path d="M29.334 4h-20c-0.92 0-1.646 0.466-2.127 1.173l-7.207 10.82 7.207 10.82c0.48 0.706 1.207 1.186 2.127 1.186h20c1.474 0 2.666-1.194 2.666-2.666v-18.666c0-1.473-1.194-2.667-2.666-2.667zM25.334 20.78l-1.887 1.887-4.78-4.78-4.78 4.78-1.886-1.887 4.78-4.78-4.78-4.78 1.886-1.886 4.78 4.78 4.78-4.78 1.887 1.886-4.78 4.78 4.78 4.78z" fill="#444444"></path>
</svg>
