<?xml version="1.0" encoding="utf-8"?>
<!-- Generated by IcoMoon.io -->
<!DOCTYPE svg PUBLIC "-//W3C//DTD SVG 1.1//EN" "http://www.w3.org/Graphics/SVG/1.1/DTD/svg11.dtd">
<svg version="1.1" xmlns="http://www.w3.org/2000/svg" xmlns:xlink="http://www.w3.org/1999/xlink" width="32" height="32" viewBox="0 0 32 32">
<path d="M27.314 4.686c-3.022-3.022-7.040-4.686-11.314-4.686s-8.291 1.665-11.314 4.686c-3.022 3.022-4.686 7.040-4.686 11.314s1.665 8.291 4.686 11.313c3.022 3.022 7.040 4.686 11.314 4.686s8.291-1.665 11.314-4.686c3.022-3.022 4.686-7.040 4.686-11.314s-1.665-8.291-4.686-11.314zM28 16c0 2.588-0.823 4.987-2.222 6.95l-16.727-16.727c1.963-1.399 4.361-2.222 6.95-2.222 6.617 0 12 5.383 12 12zM4 16c0-2.588 0.824-4.987 2.222-6.95l16.727 16.727c-1.962 1.398-4.361 2.222-6.95 2.222-6.617 0-12-5.383-12-12z" fill="#444444"></path>
</svg>
