<?xml version="1.0" encoding="utf-8"?>
<!-- Generated by IcoMoon.io -->
<!DOCTYPE svg PUBLIC "-//W3C//DTD SVG 1.1//EN" "http://www.w3.org/Graphics/SVG/1.1/DTD/svg11.dtd">
<svg version="1.1" xmlns="http://www.w3.org/2000/svg" xmlns:xlink="http://www.w3.org/1999/xlink" width="32" height="32" viewBox="0 0 32 32">
<path d="M8 17.334c-0.734 0-1.333 0.6-1.333 1.334s0.6 1.334 1.333 1.334 1.334-0.6 1.334-1.334-0.6-1.334-1.334-1.334zM8 22.666c-0.734 0-1.333 0.6-1.333 1.334s0.6 1.334 1.333 1.334 1.334-0.6 1.334-1.334-0.6-1.334-1.334-1.334zM8 12c-0.734 0-1.333 0.6-1.333 1.334s0.6 1.334 1.333 1.334 1.334-0.6 1.334-1.334-0.6-1.334-1.334-1.334zM4 12.666c-0.366 0-0.667 0.3-0.667 0.666s0.3 0.666 0.667 0.666 0.667-0.3 0.667-0.666-0.3-0.666-0.667-0.666zM8 6.667c-0.734 0-1.333 0.6-1.333 1.333s0.6 1.334 1.333 1.334 1.334-0.6 1.334-1.334-0.6-1.333-1.334-1.333zM28 14c0.366 0 0.666-0.3 0.666-0.666s-0.3-0.666-0.666-0.666-0.666 0.3-0.666 0.666 0.3 0.666 0.666 0.666zM18.666 9.334c0.733 0 1.334-0.6 1.334-1.334s-0.6-1.333-1.334-1.333-1.334 0.6-1.334 1.333 0.6 1.334 1.334 1.334zM18.666 4.667c0.366 0 0.666-0.3 0.666-0.667s-0.3-0.667-0.666-0.667-0.666 0.3-0.666 0.667 0.3 0.667 0.666 0.667zM4 18c-0.366 0-0.667 0.3-0.667 0.666s0.3 0.666 0.667 0.666 0.667-0.3 0.667-0.666-0.3-0.666-0.667-0.666zM13.334 27.334c-0.367 0-0.666 0.3-0.666 0.666s0.3 0.666 0.666 0.666 0.666-0.3 0.666-0.666-0.3-0.666-0.666-0.666zM13.334 4.667c0.367 0 0.666-0.3 0.666-0.667s-0.3-0.667-0.666-0.667-0.666 0.3-0.666 0.667 0.3 0.667 0.666 0.667zM13.334 9.334c0.733 0 1.334-0.6 1.334-1.334s-0.6-1.333-1.334-1.333-1.334 0.6-1.334 1.333 0.6 1.334 1.334 1.334zM13.334 16.666c-1.107 0-2 0.893-2 2s0.893 2 2 2 2-0.893 2-2-0.893-2-2-2zM24 17.334c-0.733 0-1.334 0.6-1.334 1.334s0.6 1.334 1.334 1.334 1.334-0.6 1.334-1.334-0.6-1.334-1.334-1.334zM24 22.666c-0.733 0-1.334 0.6-1.334 1.334s0.6 1.334 1.334 1.334 1.334-0.6 1.334-1.334-0.6-1.334-1.334-1.334zM24 12c-0.733 0-1.334 0.6-1.334 1.334s0.6 1.334 1.334 1.334 1.334-0.6 1.334-1.334-0.6-1.334-1.334-1.334zM24 6.667c-0.733 0-1.334 0.6-1.334 1.333s0.6 1.334 1.334 1.334 1.334-0.6 1.334-1.334-0.6-1.333-1.334-1.333zM28 18c-0.366 0-0.666 0.3-0.666 0.666s0.3 0.666 0.666 0.666 0.666-0.3 0.666-0.666-0.3-0.666-0.666-0.666zM18.666 22.666c-0.733 0-1.334 0.6-1.334 1.334s0.6 1.334 1.334 1.334 1.334-0.6 1.334-1.334-0.6-1.334-1.334-1.334zM18.666 27.334c-0.366 0-0.666 0.3-0.666 0.666s0.3 0.666 0.666 0.666 0.666-0.3 0.666-0.666-0.3-0.666-0.666-0.666zM13.334 11.334c-1.107 0-2 0.893-2 2s0.893 2 2 2 2-0.893 2-2-0.893-2-2-2zM13.334 22.666c-0.733 0-1.334 0.6-1.334 1.334s0.6 1.334 1.334 1.334 1.334-0.6 1.334-1.334-0.6-1.334-1.334-1.334zM18.666 16.666c-1.107 0-2 0.893-2 2s0.893 2 2 2 2-0.893 2-2-0.893-2-2-2zM18.666 11.334c-1.107 0-2 0.893-2 2s0.893 2 2 2 2-0.893 2-2-0.893-2-2-2z" fill="#444444"></path>
</svg>
