<?xml version="1.0" encoding="utf-8"?>
<!-- Generated by IcoMoon.io -->
<!DOCTYPE svg PUBLIC "-//W3C//DTD SVG 1.1//EN" "http://www.w3.org/Graphics/SVG/1.1/DTD/svg11.dtd">
<svg version="1.1" xmlns="http://www.w3.org/2000/svg" xmlns:xlink="http://www.w3.org/1999/xlink" width="32" height="32" viewBox="0 0 32 32">
<path d="M13.334 12c-0.733 0-1.334 0.6-1.334 1.334s0.6 1.334 1.334 1.334 1.334-0.6 1.334-1.334-0.6-1.334-1.334-1.334zM13.334 17.334c-0.733 0-1.334 0.6-1.334 1.334s0.6 1.334 1.334 1.334 1.334-0.6 1.334-1.334-0.6-1.334-1.334-1.334zM9.334 12.666c-0.367 0-0.666 0.3-0.666 0.666s0.3 0.666 0.666 0.666 0.666-0.3 0.666-0.666-0.3-0.666-0.666-0.666zM13.334 22c-0.367 0-0.666 0.3-0.666 0.666s0.3 0.666 0.666 0.666 0.666-0.3 0.666-0.666-0.3-0.666-0.666-0.666zM9.334 18c-0.367 0-0.666 0.3-0.666 0.666s0.3 0.666 0.666 0.666 0.666-0.3 0.666-0.666-0.3-0.666-0.666-0.666zM13.334 10c0.367 0 0.666-0.3 0.666-0.666s-0.3-0.666-0.666-0.666-0.666 0.3-0.666 0.666 0.3 0.666 0.666 0.666zM18.666 12c-0.733 0-1.334 0.6-1.334 1.334s0.6 1.334 1.334 1.334 1.334-0.6 1.334-1.334-0.6-1.334-1.334-1.334zM18.666 10c0.366 0 0.666-0.3 0.666-0.666s-0.3-0.666-0.666-0.666-0.666 0.3-0.666 0.666 0.3 0.666 0.666 0.666zM22.666 18c-0.366 0-0.666 0.3-0.666 0.666s0.3 0.666 0.666 0.666 0.666-0.3 0.666-0.666-0.3-0.666-0.666-0.666zM22.666 12.666c-0.366 0-0.666 0.3-0.666 0.666s0.3 0.666 0.666 0.666 0.666-0.3 0.666-0.666-0.3-0.666-0.666-0.666zM16 2.667c-7.367 0-13.334 5.966-13.334 13.334s5.966 13.334 13.334 13.334 13.334-5.966 13.334-13.334-5.966-13.334-13.334-13.334zM16 26.666c-5.893 0-10.666-4.773-10.666-10.666s4.774-10.666 10.666-10.666 10.666 4.774 10.666 10.666-4.773 10.666-10.666 10.666zM18.666 22c-0.366 0-0.666 0.3-0.666 0.666s0.3 0.666 0.666 0.666 0.666-0.3 0.666-0.666-0.3-0.666-0.666-0.666zM18.666 17.334c-0.733 0-1.334 0.6-1.334 1.334s0.6 1.334 1.334 1.334 1.334-0.6 1.334-1.334-0.6-1.334-1.334-1.334z" fill="#444444"></path>
</svg>
