<?xml version="1.0" encoding="utf-8"?>
<!-- Generated by IcoMoon.io -->
<!DOCTYPE svg PUBLIC "-//W3C//DTD SVG 1.1//EN" "http://www.w3.org/Graphics/SVG/1.1/DTD/svg11.dtd">
<svg version="1.1" xmlns="http://www.w3.org/2000/svg" xmlns:xlink="http://www.w3.org/1999/xlink" width="32" height="32" viewBox="0 0 32 32">
<path d="M6.667 23.334c1.106 0 2-0.893 2-2s-0.893-2-2-2-2 0.893-2 2 0.893 2 2 2zM12 17.334c0.733 0 1.334-0.6 1.334-1.334s-0.6-1.334-1.334-1.334-1.334 0.6-1.334 1.334 0.6 1.334 1.334 1.334zM12 12c0.733 0 1.334-0.6 1.334-1.334s-0.6-1.334-1.334-1.334-1.334 0.6-1.334 1.334 0.6 1.334 1.334 1.334zM4 28h24v-2.666h-24v2.666zM6.667 12.666c1.106 0 2-0.893 2-2s-0.893-2-2-2-2 0.893-2 2 0.893 2 2 2zM6.667 18c1.106 0 2-0.893 2-2s-0.893-2-2-2-2 0.893-2 2 0.893 2 2 2zM12 22.666c0.733 0 1.334-0.6 1.334-1.334s-0.6-1.334-1.334-1.334-1.334 0.6-1.334 1.334 0.6 1.334 1.334 1.334zM22.666 22c0.366 0 0.666-0.3 0.666-0.666s-0.3-0.666-0.666-0.666-0.666 0.3-0.666 0.666 0.3 0.666 0.666 0.666zM4 4v2.667h24v-2.667h-24zM22.666 11.334c0.366 0 0.666-0.3 0.666-0.666s-0.3-0.666-0.666-0.666-0.666 0.3-0.666 0.666 0.3 0.666 0.666 0.666zM22.666 16.666c0.366 0 0.666-0.3 0.666-0.666s-0.3-0.666-0.666-0.666-0.666 0.3-0.666 0.666 0.3 0.666 0.666 0.666zM17.334 12c0.733 0 1.334-0.6 1.334-1.334s-0.6-1.334-1.334-1.334-1.334 0.6-1.334 1.334 0.6 1.334 1.334 1.334zM17.334 17.334c0.733 0 1.334-0.6 1.334-1.334s-0.6-1.334-1.334-1.334-1.334 0.6-1.334 1.334 0.6 1.334 1.334 1.334zM17.334 22.666c0.733 0 1.334-0.6 1.334-1.334s-0.6-1.334-1.334-1.334-1.334 0.6-1.334 1.334 0.6 1.334 1.334 1.334z" fill="#444444"></path>
</svg>
