<?xml version="1.0" encoding="utf-8"?>
<!-- Generated by IcoMoon.io -->
<!DOCTYPE svg PUBLIC "-//W3C//DTD SVG 1.1//EN" "http://www.w3.org/Graphics/SVG/1.1/DTD/svg11.dtd">
<svg version="1.1" xmlns="http://www.w3.org/2000/svg" xmlns:xlink="http://www.w3.org/1999/xlink" width="32" height="32" viewBox="0 0 32 32">
<path d="M18.666 9.334c0.733 0 1.334-0.6 1.334-1.334s-0.6-1.333-1.334-1.333-1.334 0.6-1.334 1.333 0.6 1.334 1.334 1.334zM18.4 15.306c0.087 0.014 0.174 0.027 0.267 0.027 1.107 0 2-0.893 2-2s-0.893-2-2-2-2 0.893-2 2c0 0.094 0.014 0.18 0.026 0.274 0.12 0.88 0.82 1.58 1.706 1.7zM18.666 4.667c0.366 0 0.666-0.3 0.666-0.667s-0.3-0.667-0.666-0.667-0.666 0.3-0.666 0.667 0.3 0.667 0.666 0.667zM13.334 4.667c0.367 0 0.666-0.3 0.666-0.667s-0.3-0.667-0.666-0.667-0.666 0.3-0.666 0.667 0.3 0.667 0.666 0.667zM28 14c0.366 0 0.666-0.3 0.666-0.666s-0.3-0.666-0.666-0.666-0.666 0.3-0.666 0.666 0.3 0.666 0.666 0.666zM13.334 9.334c0.733 0 1.334-0.6 1.334-1.334s-0.6-1.333-1.334-1.333-1.334 0.6-1.334 1.333 0.6 1.334 1.334 1.334zM24 20c0.733 0 1.334-0.6 1.334-1.334s-0.6-1.334-1.334-1.334-1.334 0.6-1.334 1.334 0.6 1.334 1.334 1.334zM24 14.666c0.733 0 1.334-0.6 1.334-1.334s-0.6-1.334-1.334-1.334-1.334 0.6-1.334 1.334 0.6 1.334 1.334 1.334zM24 9.334c0.733 0 1.334-0.6 1.334-1.334s-0.6-1.333-1.334-1.333-1.334 0.6-1.334 1.333 0.6 1.334 1.334 1.334zM18.666 27.334c-0.366 0-0.666 0.3-0.666 0.666s0.3 0.666 0.666 0.666 0.666-0.3 0.666-0.666-0.3-0.666-0.666-0.666zM3.333 7.034l5.046 5.046c-0.127-0.040-0.246-0.080-0.38-0.080-0.734 0-1.333 0.6-1.333 1.334s0.6 1.334 1.333 1.334 1.333-0.6 1.333-1.334c0-0.133-0.040-0.254-0.073-0.38l3.746 3.746c-0.954 0.16-1.674 0.974-1.674 1.966 0 1.107 0.893 2 2 2 0.994 0 1.806-0.72 1.966-1.666l3.747 3.747c-0.12-0.040-0.247-0.080-0.38-0.080-0.733 0-1.334 0.6-1.334 1.334s0.6 1.334 1.334 1.334 1.334-0.6 1.334-1.334c0-0.134-0.040-0.253-0.073-0.38l5.040 5.047 1.7-1.7-21.634-21.634-1.7 1.7zM13.334 22.666c-0.733 0-1.334 0.6-1.334 1.334s0.6 1.334 1.334 1.334 1.334-0.6 1.334-1.334-0.6-1.334-1.334-1.334zM28 18c-0.366 0-0.666 0.3-0.666 0.666s0.3 0.666 0.666 0.666 0.666-0.3 0.666-0.666-0.3-0.666-0.666-0.666zM8 17.334c-0.734 0-1.333 0.6-1.333 1.334s0.6 1.334 1.333 1.334 1.334-0.6 1.334-1.334-0.6-1.334-1.334-1.334zM4 12.666c-0.366 0-0.667 0.3-0.667 0.666s0.3 0.666 0.667 0.666 0.667-0.3 0.667-0.666-0.3-0.666-0.667-0.666zM13.334 27.334c-0.367 0-0.666 0.3-0.666 0.666s0.3 0.666 0.666 0.666 0.666-0.3 0.666-0.666-0.3-0.666-0.666-0.666zM8 22.666c-0.734 0-1.333 0.6-1.333 1.334s0.6 1.334 1.333 1.334 1.334-0.6 1.334-1.334-0.6-1.334-1.334-1.334zM4 18c-0.366 0-0.667 0.3-0.667 0.666s0.3 0.666 0.667 0.666 0.667-0.3 0.667-0.666-0.3-0.666-0.667-0.666z" fill="#444444"></path>
</svg>
