<?xml version="1.0" encoding="utf-8"?>
<!-- Generated by IcoMoon.io -->
<!DOCTYPE svg PUBLIC "-//W3C//DTD SVG 1.1//EN" "http://www.w3.org/Graphics/SVG/1.1/DTD/svg11.dtd">
<svg version="1.1" xmlns="http://www.w3.org/2000/svg" xmlns:xlink="http://www.w3.org/1999/xlink" width="36" height="32" viewBox="0 0 36 32">
<path d="M15 0v0c8.285 0 15 5.435 15 12.139s-6.715 12.139-15 12.139c-0.796 0-1.576-0.050-2.338-0.147-3.222 3.209-6.943 3.785-10.662 3.869v-0.785c2.008-0.98 3.625-2.764 3.625-4.804 0-0.285-0.022-0.564-0.064-0.837-3.393-2.226-5.561-5.625-5.561-9.434 0-6.704 6.715-12.139 15-12.139zM31.125 27.209c0 1.748 1.135 3.278 2.875 4.118v0.673c-3.223-0.073-6.181-0.566-8.973-3.317-0.66 0.083-1.337 0.126-2.027 0.126-2.983 0-5.732-0.805-7.925-2.157 4.521-0.016 8.79-1.464 12.026-4.084 1.631-1.32 2.918-2.869 3.826-4.605 0.962-1.84 1.449-3.8 1.449-5.825 0-0.326-0.014-0.651-0.039-0.974 2.268 1.873 3.664 4.425 3.664 7.24 0 3.265-1.88 6.179-4.82 8.087-0.035 0.234-0.055 0.474-0.055 0.718z" fill="#444444"></path>
</svg>
