<?xml version="1.0" encoding="utf-8"?>
<!-- Generated by IcoMoon.io -->
<!DOCTYPE svg PUBLIC "-//W3C//DTD SVG 1.1//EN" "http://www.w3.org/Graphics/SVG/1.1/DTD/svg11.dtd">
<svg version="1.1" xmlns="http://www.w3.org/2000/svg" xmlns:xlink="http://www.w3.org/1999/xlink" width="32" height="32" viewBox="0 0 32 32">
<path d="M16 6c-1.716 0-3.374 0.271-4.928 0.804-1.46 0.502-2.759 1.211-3.864 2.107-2.069 1.681-3.208 3.843-3.208 6.088 0 1.259 0.349 2.48 1.039 3.63 0.711 1.185 1.78 2.268 3.093 3.133 0.948 0.625 1.587 1.623 1.755 2.747 0.056 0.375 0.091 0.753 0.105 1.129 0.233-0.194 0.461-0.401 0.684-0.624 0.755-0.755 1.774-1.171 2.828-1.171 0.168 0 0.336 0.011 0.505 0.032 0.655 0.084 1.325 0.125 1.99 0.125 1.716 0 3.374-0.27 4.928-0.805 1.459-0.502 2.759-1.211 3.864-2.107 2.069-1.681 3.209-3.843 3.209-6.088s-1.139-4.407-3.209-6.088c-1.104-0.897-2.404-1.606-3.864-2.107-1.553-0.534-3.211-0.804-4.928-0.804zM16 2v0c8.837 0 16 5.821 16 13s-7.163 13-16 13c-0.848 0-1.681-0.054-2.495-0.157-3.437 3.437-7.539 4.053-11.505 4.143v-0.841c2.142-1.049 4-2.96 4-5.145 0-0.305-0.024-0.604-0.067-0.897-3.619-2.384-5.933-6.023-5.933-10.103 0-7.179 7.163-13 16-13z" fill="#444444"></path>
</svg>
