<?xml version="1.0" encoding="utf-8"?>
<!-- Generated by IcoMoon.io -->
<!DOCTYPE svg PUBLIC "-//W3C//DTD SVG 1.1//EN" "http://www.w3.org/Graphics/SVG/1.1/DTD/svg11.dtd">
<svg version="1.1" xmlns="http://www.w3.org/2000/svg" xmlns:xlink="http://www.w3.org/1999/xlink" width="32" height="32" viewBox="0 0 32 32">
<path d="M25.334 10.666l-5.334 5.334h4c0 4.42-3.58 8-8 8-1.354 0-2.62-0.34-3.74-0.927l-1.947 1.947c1.653 1.034 3.594 1.646 5.687 1.646 5.893 0 10.666-4.773 10.666-10.666h4l-5.334-5.334zM8 16c0-4.42 3.58-8 8-8 1.354 0 2.62 0.34 3.74 0.927l1.947-1.947c-1.654-1.034-3.593-1.646-5.686-1.646-5.893 0-10.666 4.774-10.666 10.666h-4l5.333 5.334 5.333-5.334h-4z" fill="#444444"></path>
</svg>
