<?xml version="1.0" encoding="utf-8"?>
<!-- Generated by IcoMoon.io -->
<!DOCTYPE svg PUBLIC "-//W3C//DTD SVG 1.1//EN" "http://www.w3.org/Graphics/SVG/1.1/DTD/svg11.dtd">
<svg version="1.1" xmlns="http://www.w3.org/2000/svg" xmlns:xlink="http://www.w3.org/1999/xlink" width="32" height="32" viewBox="0 0 32 32">
<path d="M16 9.334c1.474 0 2.666-1.194 2.666-2.667 0-0.5-0.14-0.974-0.38-1.373l-2.287-3.96-2.287 3.96c-0.24 0.4-0.38 0.873-0.38 1.373 0 1.474 1.194 2.667 2.667 2.667zM28 28v-5.334c0-1.474-1.194-2.666-2.666-2.666h-1.334v-4c0-1.473-1.194-2.666-2.666-2.666h-4v-2.666h-2.666v2.666h-4c-1.473 0-2.666 1.194-2.666 2.666v4h-1.333c-1.474 0-2.667 1.194-2.667 2.666v5.334h-2.667v2.666h29.334v-2.666h-2.666z" fill="#444444"></path>
</svg>
