<?xml version="1.0" encoding="utf-8"?>
<!-- Generated by IcoMoon.io -->
<!DOCTYPE svg PUBLIC "-//W3C//DTD SVG 1.1//EN" "http://www.w3.org/Graphics/SVG/1.1/DTD/svg11.dtd">
<svg version="1.1" xmlns="http://www.w3.org/2000/svg" xmlns:xlink="http://www.w3.org/1999/xlink" width="32" height="32" viewBox="0 0 32 32">
<path d="M12.534 14l6.354-11.007c-0.927-0.207-1.893-0.327-2.886-0.327-3.2 0-6.127 1.127-8.427 3.006l4.886 8.46 0.073-0.133zM28.72 12c-1.227-3.9-4.2-7.013-7.994-8.454l-4.88 8.454h12.873zM29.067 13.334h-9.986l0.387 0.666 6.354 11c2.174-2.373 3.514-5.526 3.514-9 0-0.913-0.093-1.806-0.267-2.666zM11.38 16l-5.2-9c-2.173 2.373-3.514 5.527-3.514 9 0 0.913 0.094 1.806 0.267 2.666h9.986l-1.54-2.666zM3.28 20c1.227 3.9 4.2 7.014 7.994 8.453l4.88-8.453h-12.873zM18.306 20l-5.2 9.007c0.934 0.206 1.9 0.326 2.893 0.326 3.2 0 6.127-1.127 8.427-3.006l-4.887-8.46-1.233 2.134z" fill="#444444"></path>
</svg>
