<?xml version="1.0" encoding="utf-8"?>
<!-- Generated by IcoMoon.io -->
<!DOCTYPE svg PUBLIC "-//W3C//DTD SVG 1.1//EN" "http://www.w3.org/Graphics/SVG/1.1/DTD/svg11.dtd">
<svg version="1.1" xmlns="http://www.w3.org/2000/svg" xmlns:xlink="http://www.w3.org/1999/xlink" width="32" height="32" viewBox="0 0 32 32">
<path d="M13.334 26.666h-6.667v2.666h6.667v2.666l4-4-4-4v2.666zM18.666 26.666v2.666h6.666v-2.666h-6.666zM16 10.666c1.474 0 2.666-1.194 2.666-2.667s-1.194-2.667-2.666-2.667-2.66 1.194-2.66 2.667c0.007 1.474 1.187 2.667 2.66 2.667zM22.666 0h-13.334c-1.473 0-2.667 1.194-2.667 2.667v18.666c0 1.474 1.194 2.666 2.667 2.666h13.334c1.474 0 2.666-1.194 2.666-2.666v-18.666c0-1.474-1.194-2.667-2.666-2.667zM9.334 2.667h13.334v14c0-2.22-4.447-3.334-6.666-3.334s-6.666 1.114-6.666 3.334v-14z" fill="#444444"></path>
</svg>
