<?xml version="1.0" encoding="utf-8"?>
<!-- Generated by IcoMoon.io -->
<!DOCTYPE svg PUBLIC "-//W3C//DTD SVG 1.1//EN" "http://www.w3.org/Graphics/SVG/1.1/DTD/svg11.dtd">
<svg version="1.1" xmlns="http://www.w3.org/2000/svg" xmlns:xlink="http://www.w3.org/1999/xlink" width="32" height="32" viewBox="0 0 32 32">
<path d="M18.666 6.667c0-1.474-1.194-2.667-2.666-2.667h-1.334v-1.333c0-0.734-0.6-1.333-1.334-1.333h-5.333c-0.734 0-1.333 0.6-1.333 1.333v1.333h-1.333c-1.474 0-2.667 1.194-2.667 2.667v20c0 1.474 1.194 2.666 2.667 2.666h10.666c1.474 0 2.666-1.194 2.666-2.666h10.666v-20h-10.666zM16 24h-2.666v-2.666h2.666v2.666zM16 12h-2.666v-2.666h2.666v2.666zM21.334 24h-2.666v-2.666h2.666v2.666zM21.334 12h-2.666v-2.666h2.666v2.666zM26.666 24h-2.666v-2.666h2.666v2.666zM26.666 12h-2.666v-2.666h2.666v2.666z" fill="#444444"></path>
</svg>
