<?xml version="1.0" encoding="utf-8"?>
<!-- Generated by IcoMoon.io -->
<!DOCTYPE svg PUBLIC "-//W3C//DTD SVG 1.1//EN" "http://www.w3.org/Graphics/SVG/1.1/DTD/svg11.dtd">
<svg version="1.1" xmlns="http://www.w3.org/2000/svg" xmlns:xlink="http://www.w3.org/1999/xlink" width="32" height="32" viewBox="0 0 32 32">
<path d="M16 10.666c-2.947 0-5.334 2.386-5.334 5.334s2.386 5.334 5.334 5.334 5.334-2.386 5.334-5.334-2.386-5.334-5.334-5.334zM6.667 20h-2.667v5.334c0 1.474 1.194 2.666 2.667 2.666h5.333v-2.666h-5.333v-5.334zM6.667 6.667h5.333v-2.667h-5.333c-1.474 0-2.667 1.194-2.667 2.667v5.333h2.667v-5.333zM25.334 4h-5.334v2.667h5.334v5.333h2.666v-5.333c0-1.474-1.194-2.667-2.666-2.667zM25.334 25.334h-5.334v2.666h5.334c1.474 0 2.666-1.194 2.666-2.666v-5.334h-2.666v5.334z" fill="#444444"></path>
</svg>
