<?xml version="1.0" encoding="utf-8"?>
<!-- Generated by IcoMoon.io -->
<!DOCTYPE svg PUBLIC "-//W3C//DTD SVG 1.1//EN" "http://www.w3.org/Graphics/SVG/1.1/DTD/svg11.dtd">
<svg version="1.1" xmlns="http://www.w3.org/2000/svg" xmlns:xlink="http://www.w3.org/1999/xlink" width="32" height="32" viewBox="0 0 32 32">
<path d="M8.071 13.954l-4.579-7.931c2.932-3.671 7.445-6.023 12.508-6.023 5.858 0 10.979 3.148 13.767 7.844h-13.056c-0.235-0.021-0.471-0.032-0.712-0.032-3.809 0-7.018 2.614-7.929 6.142zM21.729 10.156h9.171c0.71 1.81 1.101 3.781 1.101 5.844 0 8.776-7.066 15.9-15.819 15.997l6.544-11.334c0.922-1.325 1.462-2.932 1.462-4.664 0-2.287-0.942-4.357-2.459-5.844zM10.188 16c0-3.205 2.607-5.813 5.813-5.813s5.813 2.607 5.813 5.813c0 3.205-2.608 5.813-5.813 5.813s-5.813-2.608-5.813-5.813zM18.193 23.889l-4.581 7.933c-7.704-1.152-13.613-7.797-13.613-15.822 0-2.851 0.747-5.527 2.053-7.845l6.532 11.314c1.309 2.785 4.14 4.718 7.415 4.718 0.759 0 1.495-0.105 2.193-0.299z" fill="#444444"></path>
</svg>
