<?xml version="1.0" encoding="utf-8"?>
<!-- Generated by IcoMoon.io -->
<!DOCTYPE svg PUBLIC "-//W3C//DTD SVG 1.1//EN" "http://www.w3.org/Graphics/SVG/1.1/DTD/svg11.dtd">
<svg version="1.1" xmlns="http://www.w3.org/2000/svg" xmlns:xlink="http://www.w3.org/1999/xlink" width="32" height="32" viewBox="0 0 32 32">
<path d="M25.806 13.38c-0.907-4.586-4.953-8.046-9.806-8.046-1.966 0-3.8 0.58-5.346 1.56l1.947 1.947c1.020-0.527 2.174-0.84 3.4-0.84 4.053 0 7.334 3.28 7.334 7.333v0.666h2c2.206 0 4 1.794 4 4 0 1.514-0.846 2.814-2.087 3.494l1.933 1.933c1.7-1.206 2.82-3.18 2.82-5.427 0-3.52-2.74-6.373-6.194-6.62zM4 7.034l3.667 3.654c-4.253 0.18-7.667 3.68-7.667 7.98 0 4.42 3.58 8 8 8h15.633l2.666 2.666 1.7-1.694-22.3-22.306-1.7 1.7zM10.3 13.334l10.666 10.666h-12.966c-2.947 0-5.333-2.386-5.333-5.334s2.386-5.334 5.333-5.334h2.3z" fill="#444444"></path>
</svg>
