<?xml version="1.0" encoding="utf-8"?>
<!-- Generated by IcoMoon.io -->
<!DOCTYPE svg PUBLIC "-//W3C//DTD SVG 1.1//EN" "http://www.w3.org/Graphics/SVG/1.1/DTD/svg11.dtd">
<svg version="1.1" xmlns="http://www.w3.org/2000/svg" xmlns:xlink="http://www.w3.org/1999/xlink" width="32" height="32" viewBox="0 0 32 32">
<path d="M16 2.667c-7.367 0-13.334 5.966-13.334 13.334s5.966 13.334 13.334 13.334 13.334-5.966 13.334-13.334-5.966-13.334-13.334-13.334zM22 21.334h-11.334c-2.207 0-4-1.794-4-4s1.793-4 4-4l0.18 0.020c0.594-2.306 2.666-4.020 5.154-4.020 2.947 0 5.334 2.386 5.334 5.334h0.666c1.84 0 3.334 1.494 3.334 3.334s-1.494 3.334-3.334 3.334z" fill="#444444"></path>
</svg>
