<?xml version="1.0" encoding="utf-8"?>
<!-- Generated by IcoMoon.io -->
<!DOCTYPE svg PUBLIC "-//W3C//DTD SVG 1.1//EN" "http://www.w3.org/Graphics/SVG/1.1/DTD/svg11.dtd">
<svg version="1.1" xmlns="http://www.w3.org/2000/svg" xmlns:xlink="http://www.w3.org/1999/xlink" width="32" height="32" viewBox="0 0 32 32">
<path d="M29.555 11.502l-14-9.334c-0.336-0.224-0.774-0.224-1.11 0l-14 9.334c-0.278 0.185-0.446 0.498-0.446 0.832v9.334c0 0.334 0.167 0.646 0.446 0.832l14 9.334c0.168 0.112 0.361 0.168 0.555 0.168s0.386-0.056 0.555-0.168l14-9.334c0.278-0.186 0.445-0.497 0.445-0.832v-9.334c0-0.335-0.167-0.646-0.445-0.832zM15 20.465l-5.197-3.465 5.197-3.465 5.197 3.465-5.197 3.465zM16 11.798v-6.929l11.197 7.465-5.197 3.465-6-4zM14 11.798l-6 4-5.197-3.465 11.197-7.465v6.929zM6.197 17l-4.197 2.798v-5.596l4.197 2.798zM8 18.202l6 4v6.93l-11.197-7.465 5.197-3.465zM16 22.202l6-4 5.197 3.465-11.197 7.465v-6.93zM23.802 17l4.198-2.798v5.597l-4.197-2.798z" fill="#444444"></path>
</svg>
