<?xml version="1.0" encoding="utf-8"?>
<!-- Generated by IcoMoon.io -->
<!DOCTYPE svg PUBLIC "-//W3C//DTD SVG 1.1//EN" "http://www.w3.org/Graphics/SVG/1.1/DTD/svg11.dtd">
<svg version="1.1" xmlns="http://www.w3.org/2000/svg" xmlns:xlink="http://www.w3.org/1999/xlink" width="32" height="32" viewBox="0 0 32 32">
<path d="M15 2c-8.284 0-15 6.715-15 15s6.715 15 15 15c8.285 0 15-6.715 15-15s-6.715-15-15-15zM15 29c-6.628 0-12-5.372-12-12s5.372-12 12-12c6.628 0 12 5.372 12 12s-5.372 12-12 12z" fill="#444444"></path>
<path d="M19 22h-7v-4h3c0.553 0 1-0.448 1-1s-0.447-1-1-1h-3v-1c0-1.654 1.346-3 3-3 1.068 0 2.064 0.575 2.599 1.501 0.276 0.478 0.889 0.642 1.366 0.365s0.642-0.888 0.365-1.367c-0.892-1.542-2.551-2.499-4.331-2.499-2.757 0-5 2.243-5 5v1h-1c-0.553 0-1 0.448-1 1s0.447 1 1 1h1v6h9c0.552 0 1-0.448 1-1s-0.448-1-1-1z" fill="#444444"></path>
</svg>
