<?xml version="1.0" encoding="utf-8"?>
<!-- Generated by IcoMoon.io -->
<!DOCTYPE svg PUBLIC "-//W3C//DTD SVG 1.1//EN" "http://www.w3.org/Graphics/SVG/1.1/DTD/svg11.dtd">
<svg version="1.1" xmlns="http://www.w3.org/2000/svg" xmlns:xlink="http://www.w3.org/1999/xlink" width="32" height="32" viewBox="0 0 32 32">
<path d="M17 32c-0.072 0-0.145-0.008-0.217-0.024-0.458-0.102-0.784-0.508-0.784-0.977v-15h-15c-0.469 0-0.875-0.325-0.976-0.784s0.129-0.925 0.553-1.123l30-14c0.381-0.177 0.832-0.099 1.13 0.199s0.377 0.749 0.199 1.13l-14 30c-0.167 0.358-0.524 0.577-0.906 0.577zM5.508 14h11.492c0.552 0 1 0.447 1 1v11.492l10.931-23.424-23.424 10.931z" fill="#444444"></path>
</svg>
