<?xml version="1.0" encoding="utf-8"?>
<!-- Generated by IcoMoon.io -->
<!DOCTYPE svg PUBLIC "-//W3C//DTD SVG 1.1//EN" "http://www.w3.org/Graphics/SVG/1.1/DTD/svg11.dtd">
<svg version="1.1" xmlns="http://www.w3.org/2000/svg" xmlns:xlink="http://www.w3.org/1999/xlink" width="32" height="32" viewBox="0 0 32 32">
<path d="M12.854 10.187c0.3-0.666 0.48-1.406 0.48-2.187 0-2.947-2.386-5.333-5.334-5.333s-5.333 2.386-5.333 5.333 2.386 5.334 5.333 5.334c0.78 0 1.52-0.18 2.187-0.48l3.146 3.146-3.146 3.146c-0.666-0.3-1.406-0.48-2.187-0.48-2.947 0-5.333 2.386-5.333 5.334s2.386 5.334 5.333 5.334 5.334-2.386 5.334-5.334c0-0.78-0.18-1.52-0.48-2.186l3.146-3.146 9.334 9.334h4v-1.334l-16.48-16.48zM8 10.666c-1.473 0-2.667-1.194-2.667-2.667s1.194-2.667 2.667-2.667 2.666 1.194 2.666 2.667-1.194 2.667-2.667 2.667zM8 26.666c-1.473 0-2.667-1.194-2.667-2.666s1.194-2.666 2.667-2.666 2.666 1.194 2.666 2.666-1.194 2.666-2.667 2.666zM16 16.666c-0.367 0-0.666-0.3-0.666-0.666s0.3-0.666 0.666-0.666 0.666 0.3 0.666 0.666-0.3 0.666-0.666 0.666zM25.334 4l-8 8 2.666 2.666 9.334-9.334v-1.333z" fill="#444444"></path>
</svg>
