<?xml version="1.0" encoding="utf-8"?>
<!-- Generated by IcoMoon.io -->
<!DOCTYPE svg PUBLIC "-//W3C//DTD SVG 1.1//EN" "http://www.w3.org/Graphics/SVG/1.1/DTD/svg11.dtd">
<svg version="1.1" xmlns="http://www.w3.org/2000/svg" xmlns:xlink="http://www.w3.org/1999/xlink" width="32" height="32" viewBox="0 0 32 32">
<path d="M25.334 2.667h-5.58c-0.547-1.546-2.014-2.667-3.753-2.667s-3.207 1.12-3.753 2.667h-5.58c-1.473 0-2.667 1.194-2.667 2.667v21.334c0 1.474 1.194 2.666 2.667 2.666h18.666c1.474 0 2.666-1.194 2.666-2.666v-21.334c0-1.474-1.194-2.667-2.666-2.667zM16 2.667c0.733 0 1.334 0.594 1.334 1.333s-0.6 1.333-1.334 1.333-1.334-0.593-1.334-1.333 0.6-1.333 1.334-1.333zM25.334 26.666h-18.666v-21.334h2.666v4h13.334v-4h2.666v21.334z" fill="#444444"></path>
</svg>
