<?xml version="1.0" encoding="utf-8"?>
<!-- Generated by IcoMoon.io -->
<!DOCTYPE svg PUBLIC "-//W3C//DTD SVG 1.1//EN" "http://www.w3.org/Graphics/SVG/1.1/DTD/svg11.dtd">
<svg version="1.1" xmlns="http://www.w3.org/2000/svg" xmlns:xlink="http://www.w3.org/1999/xlink" width="32" height="32" viewBox="0 0 32 32">
<path d="M26.666 0h-21.334v2.667h21.334v-2.667zM5.333 32h21.334v-2.666h-21.334v2.666zM26.666 5.333h-21.334c-1.474 0-2.667 1.194-2.667 2.667v16c0 1.474 1.194 2.666 2.667 2.666h21.334c1.474 0 2.666-1.194 2.666-2.666v-16c0-1.473-1.194-2.667-2.666-2.667zM16 9c1.654 0 3 1.347 3 3 0 1.66-1.346 3-3 3s-3-1.34-3-3c0-1.653 1.347-3 3-3zM22.666 22.666h-13.334v-2c0-2.22 4.447-3.334 6.666-3.334s6.666 1.113 6.666 3.334v2z" fill="#444444"></path>
</svg>
