<?xml version="1.0" encoding="utf-8"?>
<!-- Generated by IcoMoon.io -->
<!DOCTYPE svg PUBLIC "-//W3C//DTD SVG 1.1//EN" "http://www.w3.org/Graphics/SVG/1.1/DTD/svg11.dtd">
<svg version="1.1" xmlns="http://www.w3.org/2000/svg" xmlns:xlink="http://www.w3.org/1999/xlink" width="32" height="32" viewBox="0 0 32 32">
<path d="M21.334 10.666h-2.666v4h-4v2.666h4v4h2.666v-4h4v-2.666h-4zM2.667 16c0-3.72 2.193-6.927 5.346-8.427v-2.873c-4.66 1.64-8.014 6.080-8.014 11.3s3.353 9.66 8.014 11.3v-2.873c-3.154-1.5-5.346-4.707-5.346-8.427zM20 4c-6.62 0-12 5.38-12 12s5.38 12 12 12 12-5.38 12-12-5.38-12-12-12zM20 25.334c-5.146 0-9.334-4.186-9.334-9.334s4.186-9.334 9.334-9.334 9.334 4.186 9.334 9.334-4.186 9.334-9.334 9.334z" fill="#444444"></path>
</svg>
