<?xml version="1.0" encoding="utf-8"?>
<!-- Generated by IcoMoon.io -->
<!DOCTYPE svg PUBLIC "-//W3C//DTD SVG 1.1//EN" "http://www.w3.org/Graphics/SVG/1.1/DTD/svg11.dtd">
<svg version="1.1" xmlns="http://www.w3.org/2000/svg" xmlns:xlink="http://www.w3.org/1999/xlink" width="32" height="32" viewBox="0 0 32 32">
<path d="M26.625 0h-21.25c-2.956 0-5.375 2.419-5.375 5.375v21.25c0 2.956 2.419 5.375 5.375 5.375h21.25c2.956 0 5.375-2.419 5.375-5.375v-21.25c0-2.956-2.419-5.375-5.375-5.375zM30 24h-12v-7.375c0 0 2.198 0.032 3.375 1.25v2.125h4.825c-0.369-1.184-1.159-2.347-2.285-3.333-1.937-1.694-5.1-2.542-7.915-2.542v9.875h-14v-3c0-1.356 0.458-2.704 1.324-3.898 0.768-1.060 1.84-1.995 3.183-2.779 1.576-0.919 3.455-1.585 5.493-1.962v-4.361h4v4c4.594 0 6.925 0.825 9.493 2.322 1.343 0.784 2.415 1.719 3.183 2.778 0.866 1.195 1.324 2.543 1.324 3.898v3zM6.237 20c0.37-1.184 1.159-2.347 2.286-3.333 0.986-0.863 2.175-1.537 3.477-1.992v5.325h-5.763z" fill="#444444"></path>
</svg>
