<?xml version="1.0" encoding="utf-8"?>
<!-- Generated by IcoMoon.io -->
<!DOCTYPE svg PUBLIC "-//W3C//DTD SVG 1.1//EN" "http://www.w3.org/Graphics/SVG/1.1/DTD/svg11.dtd">
<svg version="1.1" xmlns="http://www.w3.org/2000/svg" xmlns:xlink="http://www.w3.org/1999/xlink" width="32" height="32" viewBox="0 0 32 32">
<path d="M16 2.667c-7.334 0-13.334 6-13.334 13.334s6 13.334 13.334 13.334 13.334-6 13.334-13.334-6-13.334-13.334-13.334zM5.333 16c0-5.867 4.8-10.666 10.666-10.666 2.466 0 4.733 0.867 6.534 2.267l-14.934 14.934c-1.4-1.8-2.267-4.066-2.267-6.534zM16 26.666c-2.466 0-4.733-0.866-6.534-2.267l14.933-14.934c1.4 1.8 2.267 4.066 2.267 6.534 0 5.867-4.8 10.667-10.666 10.667z" fill="#444444"></path>
</svg>
