<?xml version="1.0" encoding="utf-8"?>
<!-- Generated by IcoMoon.io -->
<!DOCTYPE svg PUBLIC "-//W3C//DTD SVG 1.1//EN" "http://www.w3.org/Graphics/SVG/1.1/DTD/svg11.dtd">
<svg version="1.1" xmlns="http://www.w3.org/2000/svg" xmlns:xlink="http://www.w3.org/1999/xlink" width="32" height="32" viewBox="0 0 32 32">
<path d="M26.666 17.334h-21.334c-0.734 0-1.333 0.6-1.333 1.334v8c0 0.733 0.6 1.334 1.333 1.334h21.334c0.733 0 1.334-0.6 1.334-1.334v-8c0-0.733-0.6-1.334-1.334-1.334zM9.334 25.334c-1.473 0-2.667-1.194-2.667-2.666s1.194-2.666 2.667-2.666 2.666 1.194 2.666 2.666-1.194 2.666-2.666 2.666zM26.666 4h-21.334c-0.734 0-1.333 0.6-1.333 1.333v8c0 0.733 0.6 1.334 1.333 1.334h21.334c0.733 0 1.334-0.6 1.334-1.334v-8c0-0.734-0.6-1.333-1.334-1.333zM9.334 12c-1.473 0-2.667-1.194-2.667-2.666s1.194-2.667 2.667-2.667 2.666 1.194 2.666 2.667-1.194 2.666-2.666 2.666z" fill="#444444"></path>
</svg>
