<?xml version="1.0" encoding="utf-8"?>
<!-- Generated by IcoMoon.io -->
<!DOCTYPE svg PUBLIC "-//W3C//DTD SVG 1.1//EN" "http://www.w3.org/Graphics/SVG/1.1/DTD/svg11.dtd">
<svg version="1.1" xmlns="http://www.w3.org/2000/svg" xmlns:xlink="http://www.w3.org/1999/xlink" width="32" height="32" viewBox="0 0 32 32">
<path d="M16 9.334v-5.333h-13.334v24h26.666v-18.666h-13.334zM8 25.334h-2.667v-2.666h2.667v2.666zM8 20h-2.667v-2.666h2.667v2.666zM8 14.666h-2.667v-2.666h2.667v2.666zM8 9.334h-2.667v-2.667h2.667v2.667zM13.334 25.334h-2.666v-2.666h2.666v2.666zM13.334 20h-2.666v-2.666h2.666v2.666zM13.334 14.666h-2.666v-2.666h2.666v2.666zM13.334 9.334h-2.666v-2.667h2.666v2.667zM26.666 25.334h-10.666v-2.666h2.666v-2.666h-2.666v-2.666h2.666v-2.666h-2.666v-2.666h10.666v13.334zM24 14.666h-2.666v2.666h2.666v-2.666zM24 20h-2.666v2.666h2.666v-2.666z" fill="#444444"></path>
</svg>
