<?xml version="1.0" encoding="utf-8"?>
<!-- Generated by IcoMoon.io -->
<!DOCTYPE svg PUBLIC "-//W3C//DTD SVG 1.1//EN" "http://www.w3.org/Graphics/SVG/1.1/DTD/svg11.dtd">
<svg version="1.1" xmlns="http://www.w3.org/2000/svg" xmlns:xlink="http://www.w3.org/1999/xlink" width="32" height="32" viewBox="0 0 32 32">
<path d="M27.020 14.787c-2.055-5.732-6.41-10.88-11.020-14.787-4.61 3.906-8.964 9.054-11.020 14.787-1.271 3.545-1.397 7.393 0.394 10.793 2.058 3.91 6.207 6.42 10.627 6.42s8.569-2.509 10.626-6.42c1.79-3.401 1.664-7.249 0.393-10.793zM23.087 23.718c-1.369 2.602-4.151 4.282-7.087 4.282-1.723 0-3.392-0.579-4.753-1.583 0.414 0.054 0.832 0.083 1.254 0.083 3.67 0 7.146-2.101 8.857-5.352 1.402-2.666 1.28-5.433 0.747-7.636 0.455 0.88 0.841 1.756 1.151 2.623 0.706 1.971 1.251 4.886-0.168 7.582z" fill="#444444"></path>
</svg>
