<?xml version="1.0" encoding="utf-8"?>
<!-- Generated by IcoMoon.io -->
<!DOCTYPE svg PUBLIC "-//W3C//DTD SVG 1.1//EN" "http://www.w3.org/Graphics/SVG/1.1/DTD/svg11.dtd">
<svg version="1.1" xmlns="http://www.w3.org/2000/svg" xmlns:xlink="http://www.w3.org/1999/xlink" width="32" height="32" viewBox="0 0 32 32">
<path d="M29.561 0.44c-0.586-0.586-1.535-0.586-2.122 0l-6.317 6.317c-1.623-0.492-3.342-0.757-5.122-0.757-6.979 0-13.027 4.064-16 10 1.285 2.567 3.145 4.782 5.407 6.472l-4.968 4.968c-0.586 0.586-0.586 1.535 0 2.122 0.293 0.293 0.676 0.439 1.060 0.439s0.767-0.146 1.060-0.439l27-27c0.586-0.586 0.586-1.536 0-2.122zM13 10c1.32 0 2.44 0.853 2.841 2.037l-3.804 3.804c-1.184-0.401-2.037-1.521-2.037-2.841 0-1.657 1.343-3 3-3zM3.441 16c1.196-1.892 2.79-3.498 4.67-4.697 0.123-0.078 0.246-0.154 0.37-0.228-0.312 0.854-0.482 1.775-0.482 2.737 0 1.716 0.54 3.305 1.46 4.607l-1.904 1.904c-1.639-1.151-3.037-2.622-4.114-4.323z" fill="#444444"></path>
<path d="M24 13.813c0-0.849-0.133-1.666-0.378-2.434l-10.056 10.056c0.768 0.245 1.585 0.378 2.434 0.378 4.418 0 8-3.582 8-8z" fill="#444444"></path>
<path d="M25.939 9.062l-2.168 2.168c0.040 0.024 0.079 0.049 0.119 0.074 1.88 1.199 3.473 2.806 4.67 4.697-1.197 1.892-2.79 3.497-4.67 4.697-2.363 1.507-5.090 2.303-7.889 2.303-1.208 0-2.403-0.148-3.562-0.439l-2.403 2.403c1.866 0.671 3.873 1.036 5.964 1.036 6.978 0 13.027-4.064 16-10-1.407-2.81-3.503-5.2-6.061-6.939z" fill="#444444"></path>
</svg>
