<?xml version="1.0" encoding="utf-8"?>
<!-- Generated by IcoMoon.io -->
<!DOCTYPE svg PUBLIC "-//W3C//DTD SVG 1.1//EN" "http://www.w3.org/Graphics/SVG/1.1/DTD/svg11.dtd">
<svg version="1.1" xmlns="http://www.w3.org/2000/svg" xmlns:xlink="http://www.w3.org/1999/xlink" width="32" height="32" viewBox="0 0 32 32">
<path d="M32 4h-4v-4h-4v4h-4v4h4v4h4v-4h4z" fill="#444444"></path>
<path d="M26.995 13.938c0.576 0.64 1.1 1.329 1.563 2.062-1.197 1.892-2.79 3.497-4.67 4.697-2.363 1.507-5.090 2.303-7.889 2.303s-5.527-0.797-7.889-2.303c-1.88-1.199-3.473-2.805-4.67-4.697 1.196-1.892 2.79-3.498 4.67-4.697 0.123-0.078 0.246-0.154 0.37-0.228-0.312 0.854-0.482 1.775-0.482 2.737 0 4.418 3.582 8 8 8s8-3.582 8-8c0-0.021-0-0.043-0.001-0.065-3.415-0.88-5.947-3.957-5.998-7.635-0.657-0.074-1.325-0.113-2.002-0.113-6.979 0-13.027 4.064-16 10 2.973 5.936 9.021 10 16 10s13.027-4.064 16-10c-0.551-1.101-1.209-2.137-1.958-3.095-0.915 0.537-1.946 0.897-3.047 1.034zM13 10c1.657 0 3 1.343 3 3s-1.343 3-3 3-3-1.343-3-3 1.343-3 3-3z" fill="#444444"></path>
</svg>
