<?xml version="1.0" encoding="utf-8"?>
<!-- Generated by IcoMoon.io -->
<!DOCTYPE svg PUBLIC "-//W3C//DTD SVG 1.1//EN" "http://www.w3.org/Graphics/SVG/1.1/DTD/svg11.dtd">
<svg version="1.1" xmlns="http://www.w3.org/2000/svg" xmlns:xlink="http://www.w3.org/1999/xlink" width="32" height="32" viewBox="0 0 32 32">
<path d="M16 6c-6.979 0-13.027 4.064-16 10 2.973 5.936 9.021 10 16 10s13.027-4.064 16-10c-2.973-5.936-9.021-10-16-10zM23.889 11.303c1.88 1.199 3.473 2.806 4.67 4.697-1.197 1.892-2.79 3.497-4.67 4.697-2.363 1.507-5.090 2.303-7.889 2.303s-5.527-0.797-7.889-2.303c-1.88-1.199-3.473-2.805-4.67-4.697 1.196-1.892 2.79-3.498 4.67-4.697 0.123-0.078 0.246-0.154 0.37-0.228-0.311 0.854-0.482 1.775-0.482 2.737 0 4.418 3.582 8 8 8s8-3.582 8-8c0-0.962-0.171-1.883-0.482-2.738 0.125 0.075 0.248 0.15 0.37 0.228v0zM16 13c0 1.657-1.343 3-3 3s-3-1.343-3-3 1.343-3 3-3 3 1.343 3 3z" fill="#444444"></path>
</svg>
