<?xml version="1.0" encoding="utf-8"?>
<!-- Generated by IcoMoon.io -->
<!DOCTYPE svg PUBLIC "-//W3C//DTD SVG 1.1//EN" "http://www.w3.org/Graphics/SVG/1.1/DTD/svg11.dtd">
<svg version="1.1" xmlns="http://www.w3.org/2000/svg" xmlns:xlink="http://www.w3.org/1999/xlink" width="32" height="32" viewBox="0 0 32 32">
<path d="M22 4c-2.32 0-4.547 1.080-6 2.78-1.454-1.7-3.68-2.78-6-2.78-4.114 0-7.333 3.22-7.333 7.333 0 5.033 4.534 9.146 11.4 15.38l1.933 1.753 1.933-1.753c6.866-6.233 11.4-10.347 11.4-15.38 0-4.114-3.22-7.333-7.334-7.333zM16.14 24.74l-0.14 0.127-0.14-0.127c-6.34-5.753-10.527-9.553-10.527-13.406 0-2.66 2.006-4.667 4.667-4.667 2.053 0 4.053 1.327 4.753 3.147h2.486c0.706-1.82 2.707-3.146 4.76-3.146 2.66 0 4.666 2.007 4.666 4.667 0 3.854-4.186 7.654-10.526 13.407z" fill="#444444"></path>
</svg>
