<?xml version="1.0" encoding="utf-8"?>
<!-- Generated by IcoMoon.io -->
<!DOCTYPE svg PUBLIC "-//W3C//DTD SVG 1.1//EN" "http://www.w3.org/Graphics/SVG/1.1/DTD/svg11.dtd">
<svg version="1.1" xmlns="http://www.w3.org/2000/svg" xmlns:xlink="http://www.w3.org/1999/xlink" width="32" height="32" viewBox="0 0 32 32">
<path d="M26.667 0h-21.333c-2.933 0-5.334 2.401-5.334 5.334v21.332c0 2.936 2.401 5.334 5.334 5.334h21.333c2.933 0 5.333-2.398 5.333-5.334v-21.332c0-2.933-2.399-5.334-5.333-5.334zM8.717 25.977c-1.499 0-2.717-1.209-2.717-2.707 0-1.49 1.218-2.713 2.717-2.713 1.505 0 2.72 1.223 2.72 2.713 0 1.498-1.216 2.707-2.72 2.707zM15.546 26c0-2.556-0.994-4.963-2.796-6.764-1.803-1.805-4.199-2.801-6.747-2.801v-3.912c7.427 0 13.473 6.045 13.473 13.477h-3.93zM22.488 26c0-9.096-7.396-16.498-16.48-16.498v-3.914c11.25 0 20.404 9.16 20.404 20.413h-3.924z" fill="#444444"></path>
</svg>
