<?xml version="1.0" encoding="utf-8"?>
<!-- Generated by IcoMoon.io -->
<!DOCTYPE svg PUBLIC "-//W3C//DTD SVG 1.1//EN" "http://www.w3.org/Graphics/SVG/1.1/DTD/svg11.dtd">
<svg version="1.1" xmlns="http://www.w3.org/2000/svg" xmlns:xlink="http://www.w3.org/1999/xlink" width="32" height="32" viewBox="0 0 32 32">
<path d="M19.993 14.871h1.381l-1.594 7.068-2.072-9.938h-3.329l-2.41 9.938-1.807-9.938h-3.481l3.534 15.996h3.401l2.384-9.46 2.133 9.459h3.136l4.051-15.996h-5.326v2.87z" fill="#444444"></path>
<path d="M28.681 7.159c-0.694-0.947-1.662-2.053-2.724-3.115s-2.169-2.030-3.116-2.724c-1.611-1.182-2.393-1.319-2.841-1.319h-15.5c-1.378 0-2.5 1.121-2.5 2.5v27c0 1.378 1.122 2.5 2.5 2.5h23c1.378 0 2.5-1.122 2.5-2.5v-19.5c0-0.448-0.137-1.229-1.319-2.841v0zM24.543 5.457c0.959 0.96 1.712 1.825 2.268 2.543h-4.811v-4.811c0.718 0.555 1.584 1.309 2.543 2.268v0zM28 29.5c0 0.271-0.229 0.5-0.5 0.5h-23c-0.271 0-0.5-0.229-0.5-0.5v-27c0-0.271 0.229-0.5 0.5-0.5 0 0 15.498 0 15.5 0v7c0 0.553 0.448 1 1 1h7v19.5z" fill="#444444"></path>
</svg>
