<?xml version="1.0" encoding="utf-8"?>
<!-- Generated by IcoMoon.io -->
<!DOCTYPE svg PUBLIC "-//W3C//DTD SVG 1.1//EN" "http://www.w3.org/Graphics/SVG/1.1/DTD/svg11.dtd">
<svg version="1.1" xmlns="http://www.w3.org/2000/svg" xmlns:xlink="http://www.w3.org/1999/xlink" width="32" height="32" viewBox="0 0 32 32">
<path d="M24.927 16.534c-0.373-0.213-0.76-0.387-1.146-0.534 0.387-0.146 0.773-0.32 1.146-0.534 2.56-1.48 3.986-4.166 3.994-6.927-2.393-1.373-5.434-1.48-7.994 0-0.373 0.213-0.713 0.46-1.040 0.726 0.067-0.42 0.113-0.834 0.113-1.266 0-2.96-1.613-5.54-4-6.92-2.386 1.38-4 3.96-4 6.92 0 0.433 0.040 0.846 0.107 1.26-0.326-0.26-0.666-0.507-1.040-0.726-2.56-1.48-5.6-1.373-7.994 0 0.006 2.76 1.433 5.447 3.994 6.927 0.373 0.213 0.76 0.386 1.146 0.534-0.386 0.146-0.774 0.32-1.146 0.534-2.56 1.48-3.986 4.166-3.994 6.927 2.394 1.373 5.434 1.48 7.994 0 0.373-0.213 0.713-0.46 1.040-0.727-0.060 0.427-0.107 0.84-0.107 1.273 0 2.96 1.614 5.54 4 6.92 2.386-1.387 4-3.96 4-6.92 0-0.433-0.047-0.846-0.107-1.26 0.326 0.26 0.666 0.506 1.040 0.727 2.56 1.48 5.6 1.373 7.994 0-0.006-2.767-1.433-5.454-4-6.933zM16 21.334c-2.947 0-5.334-2.386-5.334-5.334s2.386-5.334 5.334-5.334 5.334 2.386 5.334 5.334-2.386 5.334-5.334 5.334z" fill="#444444"></path>
</svg>
