<?xml version="1.0" encoding="utf-8"?>
<!-- Generated by IcoMoon.io -->
<!DOCTYPE svg PUBLIC "-//W3C//DTD SVG 1.1//EN" "http://www.w3.org/Graphics/SVG/1.1/DTD/svg11.dtd">
<svg version="1.1" xmlns="http://www.w3.org/2000/svg" xmlns:xlink="http://www.w3.org/1999/xlink" width="32" height="32" viewBox="0 0 32 32">
<path d="M17.788 24.32c0-0.002 0-0.003 0-0.004 0 0.002 0 0.003 0 0.004z" fill="#444444"></path>
<path d="M17.831 25.454c-0-0.008-0-0.015-0.001-0.022 0 0.008 0 0.015 0.001 0.022z" fill="#444444"></path>
<path d="M17.806 24.885c0-0.006-0-0.011-0-0.017 0 0.006 0 0.011 0 0.017z" fill="#444444"></path>
<path d="M30 0h-28c-1.1 0-2 0.9-2 2v28c0 1.1 0.9 2 2 2h15.432c0.002 0 0.003 0 0.004 0s0.003 0 0.004 0h12.559c1.1 0 2-0.9 2-2v-28c0-1.1-0.9-2-2-2zM6 7c0-0.552 0.448-1 1-1s1 0.448 1 1v2c0 0.553-0.448 1-1 1s-1-0.447-1-1v-2zM30 30h-11.721c-0.209-1.315-0.341-2.671-0.419-3.988 0 0.003 0 0.007 0 0.011-0.616 0.067-1.237 0.102-1.861 0.102-4.177 0-8.2-1.52-11.328-4.282-0.466-0.411-0.51-1.122-0.099-1.588s1.122-0.51 1.588-0.099c2.717 2.398 6.211 3.718 9.838 3.718 0.596 0 1.189-0.037 1.776-0.107-0.069-3.694 0.215-6.622 0.22-6.669 0.028-0.281-0.064-0.561-0.253-0.77s-0.459-0.329-0.741-0.329h-2.974c0.043-1.082 0.159-2.931 0.467-5.006 0.589-3.961 1.625-7.056 3.004-8.994h12.502v28z" fill="#444444"></path>
<path d="M25 10c-0.552 0-1-0.447-1-1v-2c0-0.552 0.448-1 1-1s1 0.448 1 1v2c0 0.553-0.448 1-1 1z" fill="#444444"></path>
<path d="M16.89 26.101c-0.114 0.006-0.228 0.011-0.343 0.014 0.114-0.003 0.229-0.009 0.343-0.014z" fill="#444444"></path>
<path d="M16 26.125c0.146 0 0.293-0.003 0.439-0.006-0.146 0.004-0.293 0.006-0.439 0.006z" fill="#444444"></path>
<path d="M16.846 23.85c0.024-0.002 0.049-0.003 0.073-0.004-0.024 0.002-0.049 0.003-0.073 0.004z" fill="#444444"></path>
<path d="M16.409 23.869c0.034-0.001 0.067-0.003 0.101-0.003-0.034 0.001-0.067 0.003-0.101 0.003z" fill="#444444"></path>
<path d="M27.427 20.256c-0.411-0.466-1.122-0.51-1.588-0.099-2.27 2.003-5.083 3.254-8.063 3.611 0.014 0.727 0.041 1.484 0.086 2.255 3.498-0.381 6.806-1.831 9.466-4.18 0.466-0.411 0.51-1.122 0.099-1.588z" fill="#444444"></path>
<path d="M17.86 26.023c-0.144 0.015-0.288 0.029-0.433 0.041 0.145-0.012 0.289-0.026 0.433-0.041z" fill="#444444"></path>
<path d="M17.359 26.070c-0.122 0.010-0.244 0.018-0.367 0.025 0.122-0.007 0.245-0.015 0.367-0.025z" fill="#444444"></path>
</svg>
