<?xml version="1.0" encoding="utf-8"?>
<!-- Generated by IcoMoon.io -->
<!DOCTYPE svg PUBLIC "-//W3C//DTD SVG 1.1//EN" "http://www.w3.org/Graphics/SVG/1.1/DTD/svg11.dtd">
<svg version="1.1" xmlns="http://www.w3.org/2000/svg" xmlns:xlink="http://www.w3.org/1999/xlink" width="32" height="32" viewBox="0 0 32 32">
<path d="M26.666 26.113v-15.447l-8-8h-10.666c-1.473 0-2.654 1.194-2.654 2.667l-0.013 21.334c0 1.474 1.18 2.666 2.654 2.666h16.014c0.593 0 1.14-0.2 1.58-0.534l-5.913-5.913c-1.047 0.7-2.306 1.113-3.666 1.113-3.68 0-6.666-2.986-6.666-6.666s2.986-6.666 6.666-6.666 6.666 2.986 6.666 6.666c0 1.36-0.413 2.62-1.107 3.674l5.107 5.107zM12 17.334c0 2.206 1.793 4 4 4s4-1.794 4-4-1.794-4-4-4-4 1.793-4 4z" fill="#444444"></path>
</svg>
