<?xml version="1.0" encoding="utf-8"?>
<!-- Generated by IcoMoon.io -->
<!DOCTYPE svg PUBLIC "-//W3C//DTD SVG 1.1//EN" "http://www.w3.org/Graphics/SVG/1.1/DTD/svg11.dtd">
<svg version="1.1" xmlns="http://www.w3.org/2000/svg" xmlns:xlink="http://www.w3.org/1999/xlink" width="32" height="32" viewBox="0 0 32 32">
<path d="M14.666 8c1.84 0 3.506 0.746 4.713 1.954l-3.38 3.38h8v-8l-2.733 2.733c-1.686-1.687-4.020-2.733-6.6-2.733-4.7 0-8.58 3.48-9.226 8h2.694c0.62-3.040 3.306-5.334 6.534-5.334zM22.186 20.18c0.887-1.206 1.486-2.634 1.706-4.18h-2.694c-0.62 3.040-3.306 5.334-6.534 5.334-1.84 0-3.506-0.747-4.713-1.953l3.38-3.38h-8v8l2.733-2.733c1.687 1.686 4.020 2.733 6.6 2.733 2.066 0 3.973-0.68 5.52-1.82l6.48 6.473 1.986-1.986-6.466-6.486z" fill="#444444"></path>
</svg>
