<?xml version="1.0" encoding="utf-8"?>
<!-- Generated by IcoMoon.io -->
<!DOCTYPE svg PUBLIC "-//W3C//DTD SVG 1.1//EN" "http://www.w3.org/Graphics/SVG/1.1/DTD/svg11.dtd">
<svg version="1.1" xmlns="http://www.w3.org/2000/svg" xmlns:xlink="http://www.w3.org/1999/xlink" width="32" height="32" viewBox="0 0 32 32">
<path d="M9.334 14.666h-8v2.666h8v-2.666zM12.226 10.34l-2.826-2.826-1.886 1.886 2.826 2.826 1.886-1.886zM17.334 1.333h-2.666v8h2.666v-8zM24.486 9.4l-1.887-1.886-2.826 2.826 1.887 1.886 2.826-2.826zM22.666 14.666v2.666h8v-2.666h-8zM16 12c-2.207 0-4 1.793-4 4s1.793 4 4 4 4-1.794 4-4-1.794-4-4-4zM19.773 21.66l2.826 2.826 1.887-1.887-2.826-2.826-1.887 1.887zM7.513 22.6l1.887 1.887 2.826-2.826-1.886-1.887-2.826 2.826zM14.666 30.666h2.666v-8h-2.666v8z" fill="#444444"></path>
</svg>
