<?xml version="1.0" encoding="utf-8"?>
<!-- Generated by IcoMoon.io -->
<!DOCTYPE svg PUBLIC "-//W3C//DTD SVG 1.1//EN" "http://www.w3.org/Graphics/SVG/1.1/DTD/svg11.dtd">
<svg version="1.1" xmlns="http://www.w3.org/2000/svg" xmlns:xlink="http://www.w3.org/1999/xlink" width="32" height="32" viewBox="0 0 32 32">
<path d="M20.8 14.386c1.287-0.9 2.2-2.354 2.2-3.72 0-3.006-2.326-5.333-5.334-5.333h-8.334v18.666h9.386c2.794 0 4.947-2.267 4.947-5.053 0-2.026-1.154-3.753-2.866-4.56zM13.334 8.666h4c1.107 0 2 0.893 2 2s-0.893 2-2 2h-4v-4zM18 20.666h-4.666v-4h4.666c1.107 0 2 0.893 2 2s-0.893 2-2 2z" fill="#444444"></path>
</svg>
