<?xml version="1.0" encoding="utf-8"?>
<!-- Generated by IcoMoon.io -->
<!DOCTYPE svg PUBLIC "-//W3C//DTD SVG 1.1//EN" "http://www.w3.org/Graphics/SVG/1.1/DTD/svg11.dtd">
<svg version="1.1" xmlns="http://www.w3.org/2000/svg" xmlns:xlink="http://www.w3.org/1999/xlink" width="32" height="32" viewBox="0 0 32 32">
<path d="M5.333 14c-1.106 0-2 0.893-2 2s0.894 2 2 2 2-0.893 2-2-0.894-2-2-2zM5.333 6c-1.106 0-2 0.893-2 2s0.894 2 2 2 2-0.893 2-2-0.894-2-2-2zM5.333 22.22c-0.98 0-1.78 0.794-1.78 1.78s0.8 1.78 1.78 1.78 1.78-0.794 1.78-1.78-0.8-1.78-1.78-1.78zM9.334 25.334h18.666v-2.666h-18.666v2.666zM9.334 17.334h18.666v-2.666h-18.666v2.666zM9.334 6.667v2.667h18.666v-2.667h-18.666z" fill="#444444"></path>
</svg>
