<?xml version="1.0" encoding="utf-8"?>
<!-- Generated by IcoMoon.io -->
<!DOCTYPE svg PUBLIC "-//W3C//DTD SVG 1.1//EN" "http://www.w3.org/Graphics/SVG/1.1/DTD/svg11.dtd">
<svg version="1.1" xmlns="http://www.w3.org/2000/svg" xmlns:xlink="http://www.w3.org/1999/xlink" width="32" height="32" viewBox="0 0 32 32">
<path d="M26.611 2.816c-0.377-0.513-0.975-0.816-1.611-0.816h-19c-1.104 0-2 0.896-2 2v24c0 0.809 0.487 1.538 1.234 1.848 0.247 0.102 0.508 0.152 0.765 0.152 0.521 0 1.032-0.203 1.415-0.586l7.414-7.414h5.171c0.875 0 1.648-0.569 1.909-1.404l5-16c0.19-0.607 0.079-1.268-0.297-1.782zM21.029 10h-7.029c-1.104 0-2 0.896-2 2s0.896 2 2 2h5.779l-1.25 4h-4.529c-0.53 0-1.039 0.21-1.414 0.586l-4.586 4.586v-17.172h14.279l-1.25 4z" fill="#444444"></path>
</svg>
