<?xml version="1.0" encoding="utf-8"?>
<!-- Generated by IcoMoon.io -->
<!DOCTYPE svg PUBLIC "-//W3C//DTD SVG 1.1//EN" "http://www.w3.org/Graphics/SVG/1.1/DTD/svg11.dtd">
<svg version="1.1" xmlns="http://www.w3.org/2000/svg" xmlns:xlink="http://www.w3.org/1999/xlink" width="32" height="32" viewBox="0 0 32 32">
<path d="M6.127 9.18c0.934-0.954 1.867-1.806 2.287-1.633 0.66 0.274-0.014 1.386-0.4 2.034-0.333 0.56-3.813 5.18-3.813 8.414 0 1.706 0.633 3.12 1.793 3.974 1 0.74 2.313 0.966 3.52 0.613 1.427-0.42 2.6-1.86 4.080-3.686 1.614-1.986 3.773-4.587 5.44-4.587 2.174 0 2.2 1.347 2.346 2.393-5.053 0.866-7.18 4.9-7.18 7.174s1.92 4.127 4.273 4.127c2.166 0 5.727-1.773 6.253-8.134h3.273v-3.334h-3.293c-0.2-2.2-1.453-5.593-5.373-5.593-3 0-5.58 2.546-6.58 3.793-0.774 0.966-2.74 3.3-3.046 3.633-0.34 0.393-0.9 1.12-1.486 1.12-0.593 0-0.954-1.113-0.487-2.567 0.467-1.46 1.866-3.813 2.467-4.686 1.046-1.52 1.726-2.566 1.726-4.373 0-2.934-2.187-3.854-3.347-3.854-1.76 0-3.293 1.333-3.633 1.673-0.473 0.48-0.873 0.873-1.167 1.234l2.346 2.267zM18.514 24.74c-0.413 0-0.98-0.346-0.98-0.966 0-0.8 0.966-2.933 3.834-3.686-0.413 3.593-1.92 4.654-2.854 4.654z" fill="#444444"></path>
</svg>
