<?xml version="1.0" encoding="utf-8"?>
<!-- Generated by IcoMoon.io -->
<!DOCTYPE svg PUBLIC "-//W3C//DTD SVG 1.1//EN" "http://www.w3.org/Graphics/SVG/1.1/DTD/svg11.dtd">
<svg version="1.1" xmlns="http://www.w3.org/2000/svg" xmlns:xlink="http://www.w3.org/1999/xlink" width="32" height="32" viewBox="0 0 32 32">
<path d="M16 0c-8.836 0-16 7.163-16 16s7.163 16 16 16 16-7.163 16-16-7.163-16-16-16zM25.502 25.502c-1.235 1.235-2.672 2.204-4.272 2.881-0.407 0.172-0.819 0.323-1.238 0.453v-2.398c0-1.261-0.433-2.188-1.297-2.782 0.541-0.052 1.039-0.125 1.492-0.219s0.933-0.229 1.438-0.407 0.959-0.388 1.36-0.633 0.787-0.563 1.157-0.953 0.68-0.834 0.93-1.328 0.448-1.088 0.594-1.782 0.219-1.456 0.219-2.289c0-1.614-0.526-2.989-1.578-4.125 0.479-1.25 0.427-2.61-0.157-4.078l-0.39-0.047c-0.271-0.032-0.758 0.083-1.461 0.344s-1.492 0.688-2.367 1.281c-1.239-0.344-2.526-0.515-3.86-0.515-1.344 0-2.625 0.172-3.844 0.515-0.552-0.375-1.075-0.685-1.571-0.93s-0.89-0.412-1.188-0.5-0.573-0.144-0.828-0.164-0.419-0.026-0.492-0.016-0.125 0.021-0.157 0.032c-0.583 1.479-0.635 2.838-0.157 4.078-1.052 1.136-1.578 2.511-1.578 4.125 0 0.834 0.073 1.596 0.219 2.289s0.344 1.287 0.594 1.782 0.56 0.938 0.929 1.328 0.755 0.709 1.156 0.953 0.854 0.456 1.36 0.633 0.985 0.313 1.438 0.407 0.95 0.166 1.492 0.219c-0.854 0.584-1.281 1.511-1.281 2.782v2.445c-0.472-0.14-0.937-0.306-1.394-0.5-1.6-0.677-3.037-1.646-4.272-2.881s-2.204-2.672-2.881-4.272c-0.7-1.655-1.055-3.415-1.055-5.23s0.355-3.575 1.055-5.229c0.676-1.6 1.646-3.037 2.881-4.272s2.672-2.204 4.272-2.881c1.655-0.7 3.415-1.055 5.229-1.055s3.575 0.355 5.23 1.055c1.6 0.676 3.037 1.646 4.272 2.881s2.204 2.672 2.881 4.272c0.7 1.655 1.055 3.415 1.055 5.229s-0.355 3.575-1.055 5.23c-0.677 1.6-1.646 3.037-2.881 4.272z" fill="#444444"></path>
</svg>
