<?xml version="1.0" encoding="utf-8"?>
<!-- Generated by IcoMoon.io -->
<!DOCTYPE svg PUBLIC "-//W3C//DTD SVG 1.1//EN" "http://www.w3.org/Graphics/SVG/1.1/DTD/svg11.dtd">
<svg version="1.1" xmlns="http://www.w3.org/2000/svg" xmlns:xlink="http://www.w3.org/1999/xlink" width="32" height="32" viewBox="0 0 32 32">
<path d="M16 25.997c-0.598 0-1.197-0.31-1.817-0.93-0.244-0.244-0.244-0.64 0-0.884s0.64-0.244 0.884 0c0.382 0.381 0.687 0.567 0.933 0.567s0.552-0.186 0.933-0.567c0.244-0.244 0.639-0.244 0.884 0s0.244 0.64 0 0.884c-0.62 0.619-1.218 0.93-1.817 0.93zM0 16.422c0 1.559 0.134 2.973 0.4 4.24s0.642 2.367 1.125 3.298c0.483 0.931 1.095 1.747 1.833 2.448s1.542 1.279 2.408 1.733c0.867 0.454 1.859 0.822 2.975 1.102s2.252 0.477 3.409 0.589 2.428 0.169 3.816 0.169c1.389 0 2.664-0.056 3.825-0.168s2.3-0.308 3.416-0.589c1.116-0.28 2.111-0.648 2.983-1.102s1.68-1.032 2.425-1.733c0.744-0.701 1.358-1.517 1.841-2.448s0.861-2.030 1.134-3.298c0.272-1.267 0.408-2.681 0.408-4.24 0-2.793-0.866-5.199-2.6-7.218 0.1-0.269 0.186-0.578 0.259-0.925s0.142-0.838 0.208-1.472c0.067-0.634 0.042-1.366-0.075-2.196s-0.336-1.677-0.659-2.541l-0.25-0.050c-0.166-0.034-0.439-0.022-0.817 0.034s-0.82 0.157-1.325 0.303c-0.506 0.146-1.159 0.434-1.959 0.867s-1.645 0.979-2.534 1.641c-1.511-0.46-3.595-0.941-6.25-0.941s-4.745 0.481-6.267 0.941c-0.889-0.662-1.736-1.206-2.542-1.632s-1.45-0.718-1.933-0.875c-0.484-0.157-0.931-0.258-1.341-0.303s-0.675-0.059-0.792-0.042c-0.116 0.017-0.203 0.037-0.259 0.059-0.323 0.864-0.544 1.71-0.667 2.541s-0.15 1.559-0.083 2.188c0.067 0.628 0.139 1.122 0.216 1.48s0.167 0.668 0.267 0.925c-1.734 2.008-2.6 4.414-2.6 7.218zM4.267 19.982c0-1.813 0.667-3.457 2-4.933 0.4-0.45 0.864-0.791 1.391-1.022s1.128-0.363 1.8-0.394 1.314-0.025 1.925 0.019c0.611 0.044 1.367 0.103 2.267 0.178s1.678 0.113 2.334 0.113c0.655 0 1.433-0.037 2.333-0.113s1.655-0.134 2.267-0.178c0.611-0.043 1.253-0.050 1.925-0.019s1.275 0.162 1.808 0.394c0.534 0.231 1 0.572 1.4 1.022 1.333 1.476 2 3.12 2 4.933 0 1.063-0.111 2.010-0.334 2.841s-0.503 1.529-0.841 2.091c-0.339 0.563-0.814 1.038-1.425 1.425s-1.203 0.688-1.775 0.901c-0.573 0.212-1.311 0.378-2.216 0.497s-1.716 0.191-2.433 0.215c-0.716 0.025-1.619 0.038-2.708 0.038s-1.989-0.012-2.7-0.038c-0.711-0.025-1.52-0.097-2.425-0.215s-1.645-0.285-2.216-0.497c-0.572-0.212-1.164-0.512-1.775-0.901s-1.086-0.863-1.425-1.425c-0.339-0.563-0.62-1.259-0.841-2.091s-0.333-1.779-0.333-2.841zM8 19c0-1.657 0.896-3 2-3s2 1.343 2 3c0 1.657-0.896 3-2 3s-2-1.343-2-3zM20 19c0-1.657 0.895-3 2-3s2 1.343 2 3c0 1.657-0.895 3-2 3s-2-1.343-2-3z" fill="#444444"></path>
</svg>
