<?xml version="1.0" encoding="utf-8"?>
<!-- Generated by IcoMoon.io -->
<!DOCTYPE svg PUBLIC "-//W3C//DTD SVG 1.1//EN" "http://www.w3.org/Graphics/SVG/1.1/DTD/svg11.dtd">
<svg version="1.1" xmlns="http://www.w3.org/2000/svg" xmlns:xlink="http://www.w3.org/1999/xlink" width="32" height="32" viewBox="0 0 32 32">
<path d="M24.673 2c0 0-6.28 0-8.373 0-3.754 0-7.287 2.844-7.287 6.138 0 3.367 2.559 6.083 6.378 6.083 0.265 0 0.524-0.005 0.776-0.024-0.248 0.475-0.425 1.009-0.425 1.564 0 0.935 0.503 1.694 1.14 2.313-0.481 0-0.945 0.014-1.451 0.014-4.649 0-8.228 2.961-8.228 6.032 0 3.024 3.923 4.916 8.573 4.916 5.301 0 8.228-3.008 8.228-6.032 0-2.425-0.715-3.878-2.928-5.441-0.757-0.535-2.204-1.838-2.204-2.604 0-0.897 0.256-1.339 1.607-2.395 1.385-1.082 2.365-2.603 2.365-4.373 0-2.107-0.938-4.16-2.699-4.837h2.655l1.874-1.354zM21.748 22.483c0.067 0.28 0.102 0.569 0.102 0.863 0 2.444-1.575 4.354-6.093 4.354-3.214 0-5.535-2.035-5.535-4.478 0-2.395 2.879-4.389 6.093-4.354 0.75 0.008 1.449 0.128 2.084 0.334 1.744 1.213 2.996 1.898 3.349 3.282zM16.602 13.368c-2.158-0.065-4.207-2.414-4.58-5.245-0.373-2.833 1.074-5.002 3.231-4.937s4.207 2.338 4.58 5.17c0.372 2.833-1.075 5.077-3.231 5.012z" fill="#444444"></path>
</svg>
