<?xml version="1.0" encoding="utf-8"?>
<!-- Generated by IcoMoon.io -->
<!DOCTYPE svg PUBLIC "-//W3C//DTD SVG 1.1//EN" "http://www.w3.org/Graphics/SVG/1.1/DTD/svg11.dtd">
<svg version="1.1" xmlns="http://www.w3.org/2000/svg" xmlns:xlink="http://www.w3.org/1999/xlink" width="32" height="32" viewBox="0 0 32 32">
<path d="M0.025 27.177c-0.007-0.079-0.014-0.159-0.018-0.238 0.004 0.080 0.010 0.16 0.018 0.238zM7.372 17.661c2.876 0.085 4.804-2.897 4.308-6.662s-3.231-6.787-6.106-6.872c-2.876-0.085-4.804 2.796-4.308 6.562 0.496 3.764 3.23 6.887 6.106 6.973zM32 8v-2.666c0-2.933-2.399-5.334-5.333-5.334h-21.333c-2.884 0-5.25 2.32-5.33 5.185 1.824-1.606 4.354-2.947 6.965-2.947 2.791 0 11.164 0 11.164 0l-2.498 2.113h-3.54c2.348 0.9 3.598 3.629 3.598 6.429 0 2.351-1.306 4.373-3.152 5.812-1.802 1.403-2.143 1.991-2.143 3.183 0 1.018 1.93 2.75 2.938 3.462 2.949 2.079 3.903 4.010 3.903 7.233 0 0.514-0.064 1.026-0.189 1.53h9.617c2.933 0 5.333-2.398 5.333-5.334v-16.666h-6v6h-2v-6h-6v-2h6v-6h2v6h6zM5.809 23.936c0.676 0 1.295-0.018 1.936-0.018-0.848-0.823-1.519-1.831-1.519-3.075 0-0.738 0.237-1.448 0.567-2.078-0.337 0.024-0.681 0.031-1.035 0.031-2.324 0-4.297-0.753-5.756-1.995v8.405c1.67-0.793 3.653-1.27 5.809-1.27zM0.107 27.727c-0.035-0.171-0.061-0.344-0.080-0.52 0.018 0.176 0.044 0.349 0.080 0.52zM14.233 29.776c-0.47-1.837-2.139-2.749-4.465-4.361-0.846-0.273-1.778-0.433-2.778-0.444-2.8-0.030-5.41 1.092-6.882 2.762 0.498 2.428 2.658 4.267 5.226 4.267h8.951c0.056-0.348 0.085-0.707 0.085-1.076 0-0.392-0.048-0.775-0.136-1.148z" fill="#444444"></path>
</svg>
