<?xml version="1.0" encoding="utf-8"?>
<!-- Generated by IcoMoon.io -->
<!DOCTYPE svg PUBLIC "-//W3C//DTD SVG 1.1//EN" "http://www.w3.org/Graphics/SVG/1.1/DTD/svg11.dtd">
<svg version="1.1" xmlns="http://www.w3.org/2000/svg" xmlns:xlink="http://www.w3.org/1999/xlink" width="32" height="32" viewBox="0 0 32 32">
<path d="M16 10.666c-2.947 0-5.334 2.386-5.334 5.334s2.386 5.334 5.334 5.334 5.334-2.386 5.334-5.334-2.386-5.334-5.334-5.334zM27.92 14.666c-0.613-5.56-5.026-9.973-10.587-10.586v-2.747h-2.666v2.747c-5.56 0.614-9.973 5.027-10.586 10.586h-2.747v2.666h2.747c0.614 5.56 5.027 9.974 10.586 10.587v2.747h2.666v-2.747c5.56-0.613 9.974-5.026 10.587-10.587h2.747v-2.666h-2.747zM16 25.334c-5.154 0-9.334-4.18-9.334-9.334s4.18-9.334 9.334-9.334 9.334 4.18 9.334 9.334-4.18 9.334-9.334 9.334z" fill="#444444"></path>
</svg>
