<?xml version="1.0" encoding="utf-8"?>
<!-- Generated by IcoMoon.io -->
<!DOCTYPE svg PUBLIC "-//W3C//DTD SVG 1.1//EN" "http://www.w3.org/Graphics/SVG/1.1/DTD/svg11.dtd">
<svg version="1.1" xmlns="http://www.w3.org/2000/svg" xmlns:xlink="http://www.w3.org/1999/xlink" width="32" height="32" viewBox="0 0 32 32">
<path d="M10.666 13.334h-4v-4h-2.667v4h-4v2.666h4v4h2.667v-4h4v-2.666zM24 14.666c2.206 0 3.986-1.793 3.986-4s-1.78-4-3.986-4c-0.427 0-0.834 0.066-1.22 0.194 0.753 1.080 1.206 2.393 1.206 3.806s-0.453 2.726-1.206 3.806c0.387 0.127 0.794 0.194 1.22 0.194zM17.334 14.666c2.206 0 3.986-1.793 3.986-4s-1.78-4-3.986-4c-2.207 0-4 1.793-4 4s1.793 4 4 4zM26.16 17.547c1.107 0.966 1.84 2.213 1.84 3.787v2.666h4v-2.666c0-2.053-3.166-3.314-5.84-3.787zM17.334 17.334c-2.666 0-8 1.334-8 4v2.666h16v-2.666c0-2.666-5.334-4-8-4z" fill="#444444"></path>
</svg>
