<?xml version="1.0" encoding="utf-8"?>
<!-- Generated by IcoMoon.io -->
<!DOCTYPE svg PUBLIC "-//W3C//DTD SVG 1.1//EN" "http://www.w3.org/Graphics/SVG/1.1/DTD/svg11.dtd">
<svg version="1.1" xmlns="http://www.w3.org/2000/svg" xmlns:xlink="http://www.w3.org/1999/xlink" width="32" height="32" viewBox="0 0 32 32">
<path d="M21.334 14.666c2.206 0 3.986-1.793 3.986-4s-1.78-4-3.986-4c-2.206 0-4 1.793-4 4s1.794 4 4 4zM10.666 14.666c2.207 0 3.986-1.793 3.986-4s-1.78-4-3.986-4c-2.207 0-4 1.793-4 4s1.793 4 4 4zM10.666 17.334c-3.114 0-9.334 1.56-9.334 4.666v3.334h18.666v-3.334c0-3.107-6.22-4.666-9.334-4.666zM21.334 17.334c-0.387 0-0.82 0.026-1.287 0.073 1.546 1.113 2.62 2.613 2.62 4.593v3.334h8v-3.334c0-3.107-6.22-4.666-9.334-4.666z" fill="#444444"></path>
</svg>
