<?xml version="1.0" encoding="utf-8"?>
<!-- Generated by IcoMoon.io -->
<!DOCTYPE svg PUBLIC "-//W3C//DTD SVG 1.1//EN" "http://www.w3.org/Graphics/SVG/1.1/DTD/svg11.dtd">
<svg version="1.1" xmlns="http://www.w3.org/2000/svg" xmlns:xlink="http://www.w3.org/1999/xlink" width="32" height="32" viewBox="0 0 32 32">
<path d="M23.64 16.026l5.306-5.306c0.52-0.52 0.52-1.367 0-1.886l-5.78-5.78c-0.52-0.52-1.366-0.52-1.887 0l-5.306 5.307-5.306-5.3c-0.26-0.26-0.6-0.393-0.94-0.393s-0.68 0.134-0.94 0.393l-5.787 5.78c-0.52 0.52-0.52 1.367 0 1.886l5.306 5.307-5.306 5.3c-0.52 0.52-0.52 1.366 0 1.887l5.78 5.78c0.52 0.52 1.367 0.52 1.886 0l5.306-5.306 5.307 5.306c0.26 0.26 0.6 0.393 0.94 0.393s0.68-0.134 0.94-0.393l5.78-5.78c0.52-0.52 0.52-1.366 0-1.887l-5.3-5.306zM16 12c0.733 0 1.334 0.6 1.334 1.334s-0.6 1.334-1.334 1.334-1.334-0.6-1.334-1.334 0.6-1.334 1.334-1.334zM9.72 14.614l-4.833-4.833 4.84-4.84 4.834 4.834-4.84 4.84zM13.334 17.334c-0.733 0-1.334-0.6-1.334-1.334s0.6-1.334 1.334-1.334 1.334 0.6 1.334 1.334-0.6 1.334-1.334 1.334zM16 20c-0.733 0-1.334-0.6-1.334-1.334s0.6-1.334 1.334-1.334 1.334 0.6 1.334 1.334-0.6 1.334-1.334 1.334zM18.666 14.666c0.733 0 1.334 0.6 1.334 1.334s-0.6 1.334-1.334 1.334-1.334-0.6-1.334-1.334 0.6-1.334 1.334-1.334zM22.22 27.113l-4.834-4.834 4.84-4.84 4.834 4.834-4.84 4.84z" fill="#444444"></path>
</svg>
