<?xml version="1.0" encoding="utf-8"?>
<!-- Generated by IcoMoon.io -->
<!DOCTYPE svg PUBLIC "-//W3C//DTD SVG 1.1//EN" "http://www.w3.org/Graphics/SVG/1.1/DTD/svg11.dtd">
<svg version="1.1" xmlns="http://www.w3.org/2000/svg" xmlns:xlink="http://www.w3.org/1999/xlink" width="32" height="32" viewBox="0 0 32 32">
<path d="M22.666 26.666c-0.38 0-0.753-0.080-1.020-0.2-0.94-0.5-1.62-1.18-2.28-3.18-0.686-2.073-1.96-3.053-3.194-4.006-1.053-0.814-2.146-1.654-3.087-3.367-0.7-1.28-1.087-2.674-1.087-3.914 0-3.74 2.927-6.667 6.666-6.667s6.666 2.926 6.666 6.667h2.666c0-5.234-4.1-9.334-9.334-9.334s-9.334 4.1-9.334 9.334c0 1.687 0.506 3.534 1.42 5.2 1.213 2.207 2.646 3.306 3.8 4.2 1.080 0.834 1.86 1.433 2.287 2.727 0.8 2.42 1.834 3.787 3.634 4.733 0.694 0.314 1.427 0.474 2.194 0.474 2.94 0 5.334-2.393 5.334-5.334h-2.666c0 1.474-1.194 2.666-2.666 2.666zM10.18 3.514l-1.886-1.887c-2.654 2.654-4.293 6.32-4.293 10.373s1.64 7.72 4.293 10.374l1.886-1.887c-2.174-2.174-3.514-5.174-3.514-8.486s1.34-6.314 3.514-8.486zM15.334 12c0 1.84 1.494 3.334 3.334 3.334s3.334-1.494 3.334-3.334-1.494-3.334-3.334-3.334-3.334 1.494-3.334 3.334z" fill="#444444"></path>
</svg>
