<?xml version="1.0" encoding="utf-8"?>
<!-- Generated by IcoMoon.io -->
<!DOCTYPE svg PUBLIC "-//W3C//DTD SVG 1.1//EN" "http://www.w3.org/Graphics/SVG/1.1/DTD/svg11.dtd">
<svg version="1.1" xmlns="http://www.w3.org/2000/svg" xmlns:xlink="http://www.w3.org/1999/xlink" width="32" height="32" viewBox="0 0 32 32">
<path d="M16 2.667c-7.367 0-13.334 5.966-13.334 13.334s5.966 13.334 13.334 13.334 13.334-5.966 13.334-13.334-5.966-13.334-13.334-13.334zM17.334 25.334h-2.666v-2.666h2.666v2.666zM20.087 15.007l-1.194 1.226c-0.96 0.96-1.56 1.767-1.56 3.767h-2.666v-0.666c0-1.474 0.6-2.806 1.56-3.774l1.66-1.68c0.48-0.48 0.78-1.146 0.78-1.88 0-1.473-1.194-2.666-2.666-2.666s-2.666 1.194-2.666 2.666h-2.666c0-2.947 2.386-5.333 5.334-5.333s5.334 2.387 5.334 5.333c0 1.174-0.474 2.233-1.247 3.006z" fill="#444444"></path>
</svg>
