<?xml version="1.0" encoding="utf-8"?>
<!-- Generated by IcoMoon.io -->
<!DOCTYPE svg PUBLIC "-//W3C//DTD SVG 1.1//EN" "http://www.w3.org/Graphics/SVG/1.1/DTD/svg11.dtd">
<svg version="1.1" xmlns="http://www.w3.org/2000/svg" xmlns:xlink="http://www.w3.org/1999/xlink" width="32" height="32" viewBox="0 0 32 32">
<path d="M25.334 5.333h-18.666c-1.473 0-2.667 1.194-2.667 2.667v16c0 1.474 1.194 2.666 2.667 2.666h18.666c1.474 0 2.666-1.194 2.666-2.666v-16c0-1.473-1.194-2.667-2.666-2.667zM14.666 20h-2v-2.666h-2.666v2.666h-2v-8h2v3.334h2.666v-3.334h2v8zM24 18.666c0 0.733-0.593 1.334-1.334 1.334h-1v2h-2v-2h-1c-0.74 0-1.334-0.6-1.334-1.334v-5.334c0-0.733 0.593-1.334 1.334-1.334h4c0.74 0 1.334 0.6 1.334 1.334v5.334zM19.334 18h2.666v-4h-2.666v4z" fill="#444444"></path>
</svg>
