<?xml version="1.0" encoding="utf-8"?>
<!-- Generated by IcoMoon.io -->
<!DOCTYPE svg PUBLIC "-//W3C//DTD SVG 1.1//EN" "http://www.w3.org/Graphics/SVG/1.1/DTD/svg11.dtd">
<svg version="1.1" xmlns="http://www.w3.org/2000/svg" xmlns:xlink="http://www.w3.org/1999/xlink" width="32" height="32" viewBox="0 0 32 32">
<path d="M19.447 10.666l-3.447 3.447-3.447-3.447-1.886 1.886 3.447 3.447-3.447 3.446 1.886 1.887 3.447-3.447 3.447 3.447 1.887-1.887-3.447-3.447 3.447-3.447-1.887-1.886zM16 2.667c-7.367 0-13.334 5.966-13.334 13.334s5.966 13.334 13.334 13.334 13.334-5.966 13.334-13.334-5.966-13.334-13.334-13.334zM16 26.666c-5.88 0-10.666-4.787-10.666-10.666s4.787-10.666 10.666-10.666 10.666 4.787 10.666 10.666-4.787 10.666-10.666 10.666z" fill="#444444"></path>
</svg>
