<?xml version="1.0" encoding="utf-8"?>
<!-- Generated by IcoMoon.io -->
<!DOCTYPE svg PUBLIC "-//W3C//DTD SVG 1.1//EN" "http://www.w3.org/Graphics/SVG/1.1/DTD/svg11.dtd">
<svg version="1.1" xmlns="http://www.w3.org/2000/svg" xmlns:xlink="http://www.w3.org/1999/xlink" width="32" height="32" viewBox="0 0 32 32">
<path d="M22.944 19.651h7.377c0.057-0.512 0.079-1.035 0.079-1.569 0-2.507-0.673-4.858-1.848-6.883 1.215-3.229 1.171-5.968-0.455-7.606-1.546-1.54-5.697-1.29-10.388 0.787-0.347-0.027-0.698-0.040-1.051-0.040-6.439 0-11.841 4.431-13.335 10.402 2.020-2.586 4.145-4.461 6.984-5.826-0.258 0.242-1.764 1.739-2.018 1.992-7.486 7.483-9.847 17.259-7.306 19.8 1.931 1.931 5.43 1.605 9.449-0.364 1.869 0.952 3.985 1.488 6.226 1.488 6.035 0 11.15-3.885 13.003-9.295h-7.434c-1.023 1.887-3.023 3.172-5.319 3.172s-4.296-1.285-5.319-3.172c-0.454-0.852-0.716-1.83-0.716-2.864v-0.023h12.070zM10.884 16.025c0.171-3.034 2.694-5.456 5.774-5.456s5.604 2.421 5.774 5.456h-11.548zM28.030 5.119c1.047 1.059 1.021 3.006 0.125 5.438-1.535-2.341-3.766-4.186-6.4-5.239 2.816-1.207 5.107-1.367 6.274-0.2zM2.921 30.227c-1.337-1.337-0.934-4.145 0.788-7.526 1.072 3.009 3.161 5.534 5.854 7.161-2.982 1.354-5.423 1.584-6.643 0.365z" fill="#444444"></path>
</svg>
