<?xml version="1.0" encoding="utf-8"?>
<!-- Generated by IcoMoon.io -->
<!DOCTYPE svg PUBLIC "-//W3C//DTD SVG 1.1//EN" "http://www.w3.org/Graphics/SVG/1.1/DTD/svg11.dtd">
<svg version="1.1" xmlns="http://www.w3.org/2000/svg" xmlns:xlink="http://www.w3.org/1999/xlink" width="32" height="32" viewBox="0 0 32 32">
<path d="M25.334 4h-18.68c-1.473 0-2.64 1.194-2.64 2.667l-0.013 18.666c0 1.474 1.18 2.666 2.654 2.666h18.68c1.474 0 2.666-1.194 2.666-2.666v-18.666c0-1.473-1.194-2.667-2.666-2.667zM25.334 20h-5.334c0 2.206-1.794 4-4 4s-4-1.794-4-4h-5.346v-13.334h18.68v13.334zM21.334 13.334h-2.666v-4h-5.334v4h-2.666l5.334 5.334 5.334-5.334z" fill="#444444"></path>
</svg>
