<?xml version="1.0" encoding="utf-8"?>
<!-- Generated by IcoMoon.io -->
<!DOCTYPE svg PUBLIC "-//W3C//DTD SVG 1.1//EN" "http://www.w3.org/Graphics/SVG/1.1/DTD/svg11.dtd">
<svg version="1.1" xmlns="http://www.w3.org/2000/svg" xmlns:xlink="http://www.w3.org/1999/xlink" width="32" height="32" viewBox="0 0 32 32">
<path d="M16 20c2.206 0 3.986-1.794 3.986-4l0.014-8c0-2.213-1.787-4-4-4-2.207 0-4 1.787-4 4v8c0 2.206 1.793 4 4 4zM23.067 16c0 4-3.38 6.8-7.067 6.8-3.68 0-7.066-2.8-7.066-6.8h-2.267c0 4.553 3.627 8.313 8 8.96v4.373h2.667v-4.373c4.373-0.646 8-4.407 8-8.96h-2.267z" fill="#444444"></path>
</svg>
