<?xml version="1.0" encoding="utf-8"?>
<!-- Generated by IcoMoon.io -->
<!DOCTYPE svg PUBLIC "-//W3C//DTD SVG 1.1//EN" "http://www.w3.org/Graphics/SVG/1.1/DTD/svg11.dtd">
<svg version="1.1" xmlns="http://www.w3.org/2000/svg" xmlns:xlink="http://www.w3.org/1999/xlink" width="32" height="32" viewBox="0 0 32 32">
<path d="M26.666 6.667h-21.334c-1.474 0-2.654 1.194-2.654 2.667l-0.014 13.333c0 1.474 1.193 2.666 2.666 2.666h21.334c1.474 0 2.666-1.194 2.666-2.666v-13.334c0-1.473-1.194-2.667-2.666-2.667zM14.666 10.666h2.666v2.666h-2.666v-2.666zM14.666 14.666h2.666v2.666h-2.666v-2.666zM10.666 10.666h2.666v2.666h-2.666v-2.666zM10.666 14.666h2.666v2.666h-2.666v-2.666zM9.334 17.334h-2.667v-2.666h2.667v2.666zM9.334 13.334h-2.667v-2.666h2.667v2.666zM21.334 22.666h-10.666v-2.666h10.666v2.666zM21.334 17.334h-2.666v-2.666h2.666v2.666zM21.334 13.334h-2.666v-2.666h2.666v2.666zM25.334 17.334h-2.666v-2.666h2.666v2.666zM25.334 13.334h-2.666v-2.666h2.666v2.666z" fill="#444444"></path>
</svg>
