<?xml version="1.0" encoding="utf-8"?>
<!-- Generated by IcoMoon.io -->
<!DOCTYPE svg PUBLIC "-//W3C//DTD SVG 1.1//EN" "http://www.w3.org/Graphics/SVG/1.1/DTD/svg11.dtd">
<svg version="1.1" xmlns="http://www.w3.org/2000/svg" xmlns:xlink="http://www.w3.org/1999/xlink" width="32" height="32" viewBox="0 0 32 32">
<path d="M8 13.334c-1.473 0-2.667 1.194-2.667 2.666s1.194 2.666 2.667 2.666 2.666-1.194 2.666-2.666-1.194-2.666-2.667-2.666zM24 13.334c-1.474 0-2.666 1.194-2.666 2.666s1.194 2.666 2.666 2.666 2.666-1.194 2.666-2.666-1.194-2.666-2.666-2.666zM16 13.334c-1.473 0-2.666 1.194-2.666 2.666s1.194 2.666 2.666 2.666 2.666-1.194 2.666-2.666-1.194-2.666-2.666-2.666z" fill="#444444"></path>
</svg>
