<?xml version="1.0" encoding="utf-8"?>
<!-- Generated by IcoMoon.io -->
<!DOCTYPE svg PUBLIC "-//W3C//DTD SVG 1.1//EN" "http://www.w3.org/Graphics/SVG/1.1/DTD/svg11.dtd">
<svg version="1.1" xmlns="http://www.w3.org/2000/svg" xmlns:xlink="http://www.w3.org/1999/xlink" width="32" height="32" viewBox="0 0 32 32">
<path d="M13.758 19.867c-0.416 0-0.832-0.159-1.149-0.476-2.973-2.973-2.973-7.811 0-10.784l6-6c1.44-1.44 3.355-2.233 5.392-2.233s3.951 0.793 5.392 2.233c2.973 2.973 2.973 7.811 0 10.784l-2.742 2.742c-0.634 0.634-1.663 0.634-2.298 0s-0.634-1.663 0-2.298l2.742-2.742c1.706-1.706 1.706-4.481 0-6.187-0.826-0.827-1.925-1.282-3.093-1.282s-2.267 0.455-3.093 1.282l-6 6c-1.706 1.706-1.706 4.482 0 6.187 0.634 0.634 0.634 1.663 0 2.298-0.317 0.317-0.733 0.476-1.149 0.476z" fill="#444444"></path>
<path d="M8 31.625c-2.037 0-3.951-0.793-5.391-2.233-2.973-2.973-2.973-7.811 0-10.784l2.743-2.742c0.635-0.634 1.663-0.634 2.298 0s0.634 1.663 0 2.298l-2.742 2.742c-1.706 1.706-1.706 4.482 0 6.187 0.826 0.826 1.925 1.282 3.094 1.282s2.268-0.455 3.094-1.282l6-6c1.706-1.706 1.706-4.482 0-6.187-0.634-0.634-0.634-1.663 0-2.298s1.663-0.634 2.298 0c2.973 2.973 2.973 7.81 0 10.784l-6 6c-1.441 1.44-3.355 2.233-5.392 2.233z" fill="#444444"></path>
</svg>
