<?xml version="1.0" encoding="utf-8"?>
<!-- Generated by IcoMoon.io -->
<!DOCTYPE svg PUBLIC "-//W3C//DTD SVG 1.1//EN" "http://www.w3.org/Graphics/SVG/1.1/DTD/svg11.dtd">
<svg version="1.1" xmlns="http://www.w3.org/2000/svg" xmlns:xlink="http://www.w3.org/1999/xlink" width="32" height="32" viewBox="0 0 32 32">
<path d="M25.334 2.667h-18.666c-1.473 0-2.667 1.194-2.667 2.667v18.666c0 1.474 1.194 2.666 2.667 2.666h5.334l4 4 4-4h5.334c1.474 0 2.666-1.194 2.666-2.666v-18.666c0-1.474-1.194-2.667-2.666-2.667zM17.334 24h-2.666v-2.666h2.666v2.666zM20.087 13.674l-1.194 1.226c-0.96 0.96-1.56 1.766-1.56 3.766h-2.666v-0.666c0-1.474 0.6-2.806 1.56-3.774l1.66-1.68c0.48-0.48 0.78-1.146 0.78-1.88 0-1.473-1.194-2.667-2.666-2.667s-2.666 1.193-2.666 2.667h-2.666c0-2.947 2.386-5.333 5.334-5.333s5.334 2.386 5.334 5.333c0 1.174-0.474 2.233-1.247 3.006z" fill="#444444"></path>
</svg>
