<?xml version="1.0" encoding="utf-8"?>
<!-- Generated by IcoMoon.io -->
<!DOCTYPE svg PUBLIC "-//W3C//DTD SVG 1.1//EN" "http://www.w3.org/Graphics/SVG/1.1/DTD/svg11.dtd">
<svg version="1.1" xmlns="http://www.w3.org/2000/svg" xmlns:xlink="http://www.w3.org/1999/xlink" width="32" height="32" viewBox="0 0 32 32">
<path d="M20 14.666v-8l-4-4-4 4v2.666h-8v18.666h24v-13.334h-8zM9.334 25.334h-2.667v-2.666h2.667v2.666zM9.334 20h-2.667v-2.666h2.667v2.666zM9.334 14.666h-2.667v-2.666h2.667v2.666zM17.334 25.334h-2.666v-2.666h2.666v2.666zM17.334 20h-2.666v-2.666h2.666v2.666zM17.334 14.666h-2.666v-2.666h2.666v2.666zM17.334 9.334h-2.666v-2.667h2.666v2.667zM25.334 25.334h-2.666v-2.666h2.666v2.666zM25.334 20h-2.666v-2.666h2.666v2.666z" fill="#444444"></path>
</svg>
