<?xml version="1.0" encoding="utf-8"?>
<!-- Generated by IcoMoon.io -->
<!DOCTYPE svg PUBLIC "-//W3C//DTD SVG 1.1//EN" "http://www.w3.org/Graphics/SVG/1.1/DTD/svg11.dtd">
<svg version="1.1" xmlns="http://www.w3.org/2000/svg" xmlns:xlink="http://www.w3.org/1999/xlink" width="32" height="32" viewBox="0 0 32 32">
<path d="M16 8.666c1.84 0 3.334 1.494 3.334 3.334 0 0.98-0.433 1.854-1.107 2.466l4.84 4.84c1.3-2.48 2.267-5.060 2.267-7.306 0-5.154-4.18-9.334-9.334-9.334-2.64 0-5.020 1.1-6.713 2.86l4.247 4.247c0.607-0.674 1.486-1.107 2.466-1.107zM21.834 21.466l-17.474-17.466-1.694 1.7 4.24 4.24c-0.154 0.66-0.24 1.347-0.24 2.060 0 7 9.334 17.334 9.334 17.334s2.227-2.466 4.5-5.8l4.466 4.466 1.7-1.7-4.834-4.834z" fill="#444444"></path>
</svg>
