<?xml version="1.0" encoding="utf-8"?>
<!-- Generated by IcoMoon.io -->
<!DOCTYPE svg PUBLIC "-//W3C//DTD SVG 1.1//EN" "http://www.w3.org/Graphics/SVG/1.1/DTD/svg11.dtd">
<svg version="1.1" xmlns="http://www.w3.org/2000/svg" xmlns:xlink="http://www.w3.org/1999/xlink" width="32" height="32" viewBox="0 0 32 32">
<path d="M28.547 15.44l-11.993-11.993c-0.486-0.48-1.153-0.78-1.886-0.78h-9.334c-1.474 0-2.667 1.194-2.667 2.667v9.334c0 0.74 0.3 1.406 0.787 1.886l12 12c0.48 0.48 1.146 0.78 1.88 0.78s1.407-0.3 1.887-0.78l9.334-9.334c0.48-0.486 0.78-1.154 0.78-1.887 0-0.74-0.3-1.406-0.787-1.893zM7.333 9.334c-1.106 0-2-0.893-2-2s0.894-2 2-2 2 0.893 2 2-0.893 2-2 2z" fill="#444444"></path>
</svg>
