<?xml version="1.0" encoding="utf-8"?>
<!-- Generated by IcoMoon.io -->
<!DOCTYPE svg PUBLIC "-//W3C//DTD SVG 1.1//EN" "http://www.w3.org/Graphics/SVG/1.1/DTD/svg11.dtd">
<svg version="1.1" xmlns="http://www.w3.org/2000/svg" xmlns:xlink="http://www.w3.org/1999/xlink" width="32" height="32" viewBox="0 0 32 32">
<path d="M16 22.666c1.474 0 2.666-1.194 2.666-2.666s-1.194-2.666-2.666-2.666-2.666 1.194-2.666 2.666 1.194 2.666 2.666 2.666zM24 10.666h-1.334v-2.667c0-3.68-2.986-6.667-6.666-6.667s-6.666 2.986-6.666 6.667h2.534c0-2.28 1.854-4.133 4.134-4.133s4.133 1.853 4.133 4.133v2.667h-12.133c-1.473 0-2.667 1.194-2.667 2.666v13.334c0 1.474 1.194 2.666 2.667 2.666h16c1.474 0 2.666-1.194 2.666-2.666v-13.334c0-1.473-1.194-2.666-2.666-2.666zM24 26.666h-16v-13.334h16v13.334z" fill="#444444"></path>
</svg>
