<?xml version="1.0" encoding="utf-8"?>
<!-- Generated by IcoMoon.io -->
<!DOCTYPE svg PUBLIC "-//W3C//DTD SVG 1.1//EN" "http://www.w3.org/Graphics/SVG/1.1/DTD/svg11.dtd">
<svg version="1.1" xmlns="http://www.w3.org/2000/svg" xmlns:xlink="http://www.w3.org/1999/xlink" width="32" height="32" viewBox="0 0 32 32">
<path d="M17.334 9.334h-2.666v5.334h-5.334v2.666h5.334v5.334h2.666v-5.334h5.334v-2.666h-5.334v-5.334zM16 2.667c-7.354 0-13.334 5.98-13.334 13.334s5.98 13.334 13.334 13.334h10.666c1.474 0 2.666-1.194 2.666-2.666v-10.666c0-7.354-5.98-13.334-13.334-13.334zM16 26.666c-5.88 0-10.666-4.787-10.666-10.666s4.787-10.666 10.666-10.666 10.666 4.787 10.666 10.666-4.787 10.666-10.666 10.666z" fill="#444444"></path>
</svg>
