<?xml version="1.0" encoding="utf-8"?>
<!-- Generated by IcoMoon.io -->
<!DOCTYPE svg PUBLIC "-//W3C//DTD SVG 1.1//EN" "http://www.w3.org/Graphics/SVG/1.1/DTD/svg11.dtd">
<svg version="1.1" xmlns="http://www.w3.org/2000/svg" xmlns:xlink="http://www.w3.org/1999/xlink" width="32" height="32" viewBox="0 0 32 32">
<path d="M5.333 8h-2.667v18.666c0 1.474 1.194 2.666 2.667 2.666h18.666v-2.666h-18.666v-18.666zM26.666 2.667h-16c-1.473 0-2.667 1.194-2.667 2.667v16c0 1.474 1.193 2.666 2.667 2.666h16c1.474 0 2.666-1.194 2.666-2.666v-16c0-1.474-1.194-2.667-2.666-2.667zM25.334 14.666h-13.334v-2.666h13.334v2.666zM20 20h-8v-2.666h8v2.666zM25.334 9.334h-13.334v-2.667h13.334v2.667z" fill="#444444"></path>
</svg>
