<?xml version="1.0" encoding="utf-8"?>
<!-- Generated by IcoMoon.io -->
<!DOCTYPE svg PUBLIC "-//W3C//DTD SVG 1.1//EN" "http://www.w3.org/Graphics/SVG/1.1/DTD/svg11.dtd">
<svg version="1.1" xmlns="http://www.w3.org/2000/svg" xmlns:xlink="http://www.w3.org/1999/xlink" width="32" height="32" viewBox="0 0 32 32">
<path d="M26.666 2.667h-16c-1.473 0-2.667 1.194-2.667 2.667v16c0 1.474 1.193 2.666 2.667 2.666h16c1.474 0 2.666-1.194 2.666-2.666v-16c0-1.474-1.194-2.667-2.666-2.667zM24 9.334h-4v7.334c0 1.84-1.494 3.334-3.334 3.334s-3.334-1.494-3.334-3.334 1.494-3.334 3.334-3.334c0.753 0 1.44 0.26 2 0.68v-7.346h5.334v2.667zM5.333 8h-2.667v18.666c0 1.474 1.194 2.666 2.667 2.666h18.666v-2.666h-18.666v-18.666z" fill="#444444"></path>
</svg>
