<?xml version="1.0" encoding="utf-8"?>
<!-- Generated by IcoMoon.io -->
<!DOCTYPE svg PUBLIC "-//W3C//DTD SVG 1.1//EN" "http://www.w3.org/Graphics/SVG/1.1/DTD/svg11.dtd">
<svg version="1.1" xmlns="http://www.w3.org/2000/svg" xmlns:xlink="http://www.w3.org/1999/xlink" width="32" height="32" viewBox="0 0 32 32">
<path d="M16 2.667c-7.367 0-13.334 5.966-13.334 13.334s5.966 13.334 13.334 13.334 13.334-5.966 13.334-13.334-5.966-13.334-13.334-13.334zM16 26.666c-5.893 0-10.666-4.773-10.666-10.666 0-2.466 0.846-4.726 2.247-6.534l14.953 14.954c-1.806 1.4-4.067 2.247-6.534 2.247zM24.42 22.534l-14.954-14.954c1.806-1.4 4.066-2.247 6.533-2.247 5.893 0 10.666 4.773 10.666 10.666 0 2.466-0.846 4.727-2.247 6.534z" fill="#444444"></path>
</svg>
