<?xml version="1.0" encoding="utf-8"?>
<!-- Generated by IcoMoon.io -->
<!DOCTYPE svg PUBLIC "-//W3C//DTD SVG 1.1//EN" "http://www.w3.org/Graphics/SVG/1.1/DTD/svg11.dtd">
<svg version="1.1" xmlns="http://www.w3.org/2000/svg" xmlns:xlink="http://www.w3.org/1999/xlink" width="32" height="32" viewBox="0 0 32 32">
<path d="M15.334 29.334c1.474 0 2.666-1.194 2.666-2.666h-5.334c0 1.474 1.194 2.666 2.666 2.666zM24 14c0-4.1-2.846-7.52-6.666-8.427v-0.907c0-1.107-0.893-2-2-2s-2 0.893-2 2v0.907c-0.68 0.16-1.32 0.426-1.927 0.74l12.594 12.594v-4.907zM23.64 25.334l2.666 2.666 1.694-1.7-22.3-22.3-1.7 1.7 3.894 3.894c-0.774 1.287-1.226 2.793-1.226 4.406v7.334l-2.667 2.666v1.334h19.64z" fill="#444444"></path>
</svg>
