<?xml version="1.0" encoding="utf-8"?>
<!-- Generated by IcoMoon.io -->
<!DOCTYPE svg PUBLIC "-//W3C//DTD SVG 1.1//EN" "http://www.w3.org/Graphics/SVG/1.1/DTD/svg11.dtd">
<svg version="1.1" xmlns="http://www.w3.org/2000/svg" xmlns:xlink="http://www.w3.org/1999/xlink" width="32" height="32" viewBox="0 0 32 32">
<path d="M15.334 29.334c1.474 0 2.666-1.194 2.666-2.666h-5.334c0 1.474 1.194 2.666 2.666 2.666zM24 21.334v-7.334c0-4.1-2.846-7.52-6.666-8.427v-0.907c0-1.107-0.893-2-2-2s-2 0.893-2 2v0.907c-3.82 0.907-6.667 4.326-6.667 8.427v7.334l-2.667 2.666v1.334h22.666v-1.334l-2.666-2.666zM18.666 13.066l-3.733 4.534h3.733v2.4h-6.666v-2.4l3.733-4.534h-3.733v-2.4h6.666v2.4z" fill="#444444"></path>
</svg>
