<?xml version="1.0" encoding="utf-8"?>
<!-- Generated by IcoMoon.io -->
<!DOCTYPE svg PUBLIC "-//W3C//DTD SVG 1.1//EN" "http://www.w3.org/Graphics/SVG/1.1/DTD/svg11.dtd">
<svg version="1.1" xmlns="http://www.w3.org/2000/svg" xmlns:xlink="http://www.w3.org/1999/xlink" width="32" height="32" viewBox="0 0 32 32">
<path d="M8.774 4.774l-1.907-1.907c-3.193 2.433-5.3 6.194-5.5 10.466h2.667c0.207-3.534 2.027-6.627 4.74-8.56zM26.634 13.334h2.666c-0.2-4.274-2.306-8.034-5.5-10.466l-1.9 1.9c2.707 1.94 4.527 5.034 4.733 8.566zM24 14c0-4.1-2.846-7.52-6.666-8.427v-0.907c0-1.107-0.893-2-2-2s-2 0.893-2 2v0.907c-3.82 0.907-6.667 4.326-6.667 8.427v7.334l-2.667 2.666v1.334h22.666v-1.334l-2.666-2.666v-7.334zM15.334 29.334c0.187 0 0.367-0.020 0.54-0.053 0.866-0.18 1.58-0.78 1.92-1.573 0.134-0.32 0.206-0.666 0.206-1.040h-5.334c0 1.474 1.194 2.666 2.666 2.666z" fill="#444444"></path>
</svg>
