<?xml version="1.0" encoding="utf-8"?>
<!-- Generated by IcoMoon.io -->
<!DOCTYPE svg PUBLIC "-//W3C//DTD SVG 1.1//EN" "http://www.w3.org/Graphics/SVG/1.1/DTD/svg11.dtd">
<svg version="1.1" xmlns="http://www.w3.org/2000/svg" xmlns:xlink="http://www.w3.org/1999/xlink" width="32" height="32" viewBox="0 0 32 32">
<path d="M5.333 5.333h9.334v-2.667h-9.334c-1.474 0-2.667 1.194-2.667 2.667v9.334h2.667v-9.334zM13.334 17.334l-5.334 6.666h16l-4-5.334-2.706 3.614-3.96-4.947zM22.666 11.334c0-1.107-0.893-2-2-2s-2 0.893-2 2 0.893 2 2 2 2-0.893 2-2zM26.666 2.667h-9.334v2.667h9.334v9.334h2.666v-9.334c0-1.474-1.194-2.667-2.666-2.667zM26.666 26.666h-9.334v2.666h9.334c1.474 0 2.666-1.194 2.666-2.666v-9.334h-2.666v9.334zM5.333 17.334h-2.667v9.334c0 1.474 1.194 2.666 2.667 2.666h9.334v-2.666h-9.334v-9.334z" fill="#444444"></path>
</svg>
