<?xml version="1.0" encoding="utf-8"?>
<!-- Generated by IcoMoon.io -->
<!DOCTYPE svg PUBLIC "-//W3C//DTD SVG 1.1//EN" "http://www.w3.org/Graphics/SVG/1.1/DTD/svg11.dtd">
<svg version="1.1" xmlns="http://www.w3.org/2000/svg" xmlns:xlink="http://www.w3.org/1999/xlink" width="32" height="32" viewBox="0 0 32 32">
<path d="M10.964 25.887c-1.883-0.471-2.933-1.968-2.937-4.189-0.001-0.71 0.050-1.050 0.227-1.508 0.434-1.12 1.585-1.965 3.099-2.276 0.754-0.154 0.986-0.321 0.986-0.706 0-0.12 0.090-0.48 0.2-0.799 0.498-1.447 1.419-2.654 2.405-3.147 1.031-0.517 1.552-0.633 2.799-0.627 1.771 0.009 2.654 0.393 3.89 1.691l0.68 0.714 0.609-0.21c2.947-1.020 5.884 0.716 6.122 3.618l0.065 0.794 0.581 0.208c1.657 0.594 2.436 1.84 2.295 3.674-0.093 1.198-0.653 2.155-1.541 2.631l-0.418 0.224-9.275 0.018c-7.128 0.014-9.394-0.012-9.786-0.11v0zM3.225 24.561c-1.131-0.284-2.329-1.339-2.89-2.546-0.319-0.684-0.336-0.785-0.336-1.996 0-1.152 0.027-1.337 0.281-1.909 0.534-1.206 1.559-2.077 2.845-2.419 0.272-0.072 0.526-0.188 0.567-0.256s0.085-0.443 0.099-0.831c0.090-2.412 1.587-4.538 3.679-5.221 1.13-0.369 2.612-0.403 3.84 0.117 0.389 0.165 0.346 0.2 1.17-0.942 0.488-0.675 1.409-1.391 2.216-1.818 0.87-0.462 1.775-0.675 2.856-0.671 3.024 0.008 5.63 2.007 6.594 5.057 0.308 0.975 0.293 1.248-0.070 1.255-0.159 0.004-0.613 0.096-1.009 0.205l-0.721 0.198-0.658-0.695c-1.855-1.96-4.883-2.384-7.456-1.043-1.028 0.536-1.854 1.304-2.479 2.306-0.445 0.714-1.012 2.047-1.012 2.378 0 0.235-0.18 0.352-0.948 0.618-2.378 0.824-3.766 2.727-3.765 5.163 0 0.887 0.216 1.971 0.516 2.593 0.113 0.234 0.176 0.457 0.14 0.495-0.092 0.097-3.050 0.064-3.459-0.038v0z" fill="#444444"></path>
</svg>
