<?xml version="1.0" encoding="utf-8"?>
<!-- Generated by IcoMoon.io -->
<!DOCTYPE svg PUBLIC "-//W3C//DTD SVG 1.1//EN" "http://www.w3.org/Graphics/SVG/1.1/DTD/svg11.dtd">
<svg version="1.1" xmlns="http://www.w3.org/2000/svg" xmlns:xlink="http://www.w3.org/1999/xlink" width="32" height="32" viewBox="0 0 32 32">
<path d="M14.666 10.666c-2.207 0-4 1.793-4 4s1.793 4 4 4 4-1.794 4-4-1.794-4-4-4zM25.334 4h-18.666c-1.473 0-2.667 1.194-2.667 2.667v18.666c0 1.474 1.194 2.666 2.667 2.666h18.666c1.474 0 2.666-1.194 2.666-2.666v-18.666c0-1.473-1.194-2.667-2.666-2.667zM23.447 25.334l-5.107-5.107c-1.053 0.694-2.314 1.107-3.674 1.107-3.68 0-6.667-2.986-6.667-6.666s2.987-6.666 6.667-6.666 6.666 2.986 6.666 6.666c0 1.36-0.413 2.62-1.107 3.674l5.107 5.107-1.887 1.887z" fill="#444444"></path>
</svg>
