<?xml version="1.0" encoding="utf-8"?>
<!-- Generated by IcoMoon.io -->
<!DOCTYPE svg PUBLIC "-//W3C//DTD SVG 1.1//EN" "http://www.w3.org/Graphics/SVG/1.1/DTD/svg11.dtd">
<svg version="1.1" xmlns="http://www.w3.org/2000/svg" xmlns:xlink="http://www.w3.org/1999/xlink" width="32" height="32" viewBox="0 0 32 32">
<path d="M4 6.667v8h6.666l-1.334-5.334 5.334 1.334v-6.667h-8c-1.473 0-2.667 1.194-2.667 2.667zM10.666 17.334h-6.667v8c0 1.474 1.194 2.666 2.667 2.666h8v-6.666l-5.334 1.334 1.334-5.334zM22.666 22.666l-5.334-1.334v6.666h8c1.474 0 2.666-1.194 2.666-2.666v-8h-6.666l1.334 5.334zM25.334 4h-8v6.666l5.334-1.334-1.334 5.334h6.666v-8c0-1.473-1.194-2.667-2.666-2.667z" fill="#444444"></path>
</svg>
