<?xml version="1.0" encoding="utf-8"?>
<!-- Generated by IcoMoon.io -->
<!DOCTYPE svg PUBLIC "-//W3C//DTD SVG 1.1//EN" "http://www.w3.org/Graphics/SVG/1.1/DTD/svg11.dtd">
<svg version="1.1" xmlns="http://www.w3.org/2000/svg" xmlns:xlink="http://www.w3.org/1999/xlink" width="32" height="32" viewBox="0 0 32 32">
<path d="M26.666 5.333h-4.227l-2.44-2.667h-8l-2.44 2.667h-4.226c-1.474 0-2.667 1.194-2.667 2.667v16c0 1.474 1.194 2.666 2.667 2.666h21.334c1.474 0 2.666-1.194 2.666-2.666v-16c0-1.473-1.194-2.667-2.666-2.667zM16 9.334c2.174 0 4.087 1.060 5.306 2.666h-5.306c-2.207 0-4 1.793-4 4 0 0.474 0.094 0.913 0.246 1.334h-2.78c-0.086-0.433-0.133-0.873-0.133-1.334 0-3.68 2.986-6.666 6.667-6.666zM16 22.666c-2.174 0-4.087-1.053-5.3-2.666h5.3c2.206 0 4-1.794 4-4 0-0.466-0.093-0.913-0.247-1.334h2.78c0.087 0.434 0.134 0.873 0.134 1.334 0 3.68-2.986 6.666-6.666 6.666z" fill="#444444"></path>
</svg>
