<?xml version="1.0" encoding="utf-8"?>
<!-- Generated by IcoMoon.io -->
<!DOCTYPE svg PUBLIC "-//W3C//DTD SVG 1.1//EN" "http://www.w3.org/Graphics/SVG/1.1/DTD/svg11.dtd">
<svg version="1.1" xmlns="http://www.w3.org/2000/svg" xmlns:xlink="http://www.w3.org/1999/xlink" width="32" height="32" viewBox="0 0 32 32">
<path d="M31.818 9.121l-8.939-8.94c-0.291-0.291-0.677-0.226-0.855 0.146l-1.198 2.497 8.35 8.35 2.497-1.198c0.372-0.178 0.438-0.563 0.146-0.855z" fill="#444444"></path>
<path d="M19.231 4.231l-8.231 0.686c-0.547 0.067-1.002 0.184-1.159 0.899 0 0.001-0.001 0.002-0.001 0.002-2.232 10.721-9.841 21.183-9.841 21.183l1.793 1.793 8.499-8.5c-0.188-0.392-0.293-0.83-0.293-1.294 0-1.657 1.343-3 3-3s3 1.343 3 3-1.343 3-3 3c-0.463 0-0.902-0.105-1.293-0.293l-8.499 8.5 1.793 1.793c0 0 10.462-7.608 21.183-9.84 0.001 0 0.002-0 0.002-0 0.714-0.157 0.831-0.612 0.898-1.159l0.686-8.231-8.538-8.539z" fill="#444444"></path>
</svg>
