<?xml version="1.0" encoding="utf-8"?>
<!-- Generated by IcoMoon.io -->
<!DOCTYPE svg PUBLIC "-//W3C//DTD SVG 1.1//EN" "http://www.w3.org/Graphics/SVG/1.1/DTD/svg11.dtd">
<svg version="1.1" xmlns="http://www.w3.org/2000/svg" xmlns:xlink="http://www.w3.org/1999/xlink" width="32" height="32" viewBox="0 0 32 32">
<path d="M22 17.334c-1.607 0-4.1 0.447-6 1.34-1.9-0.893-4.393-1.34-6-1.34-2.886 0-8.666 1.447-8.666 4.334v3.666h29.334v-3.666c0-2.886-5.78-4.334-8.666-4.334zM16.666 23.334h-13.334v-1.666c0-0.713 3.413-2.334 6.666-2.334s6.666 1.62 6.666 2.334v1.666zM28.666 23.334h-10v-1.666c0-0.607-0.267-1.146-0.694-1.627 1.18-0.4 2.62-0.706 4.026-0.706 3.253 0 6.666 1.62 6.666 2.334v1.666zM10 16c2.58 0 4.666-2.094 4.666-4.666s-2.087-4.667-4.666-4.667c-2.574 0-4.667 2.093-4.667 4.667s2.093 4.666 4.667 4.666zM10 8.666c1.473 0 2.666 1.194 2.666 2.666s-1.194 2.666-2.666 2.666-2.667-1.194-2.667-2.666 1.193-2.666 2.667-2.666zM22 16c2.58 0 4.666-2.094 4.666-4.666s-2.087-4.667-4.666-4.667c-2.573 0-4.666 2.093-4.666 4.667s2.093 4.666 4.666 4.666zM22 8.666c1.474 0 2.666 1.194 2.666 2.666s-1.194 2.666-2.666 2.666-2.666-1.194-2.666-2.666 1.194-2.666 2.666-2.666z" fill="#444444"></path>
</svg>
