<?xml version="1.0" encoding="utf-8"?>
<!-- Generated by IcoMoon.io -->
<!DOCTYPE svg PUBLIC "-//W3C//DTD SVG 1.1//EN" "http://www.w3.org/Graphics/SVG/1.1/DTD/svg11.dtd">
<svg version="1.1" xmlns="http://www.w3.org/2000/svg" xmlns:xlink="http://www.w3.org/1999/xlink" width="32" height="32" viewBox="0 0 32 32">
<path d="M16 7.867c1.547 0 2.8 1.254 2.8 2.8s-1.253 2.8-2.8 2.8-2.8-1.254-2.8-2.8 1.254-2.8 2.8-2.8zM16 19.866c3.966 0 8.133 1.94 8.133 2.8v1.466h-16.267v-1.466c0-0.86 4.166-2.8 8.133-2.8zM16 5.333c-2.947 0-5.334 2.386-5.334 5.333 0 2.94 2.386 5.333 5.334 5.333s5.334-2.393 5.334-5.334c0-2.947-2.386-5.333-5.334-5.333zM16 17.334c-3.553 0-10.666 1.78-10.666 5.334v4h21.334v-4c0-3.553-7.114-5.334-10.666-5.334z" fill="#444444"></path>
</svg>
