<?xml version="1.0" encoding="utf-8"?>
<!-- Generated by IcoMoon.io -->
<!DOCTYPE svg PUBLIC "-//W3C//DTD SVG 1.1//EN" "http://www.w3.org/Graphics/SVG/1.1/DTD/svg11.dtd">
<svg version="1.1" xmlns="http://www.w3.org/2000/svg" xmlns:xlink="http://www.w3.org/1999/xlink" width="32" height="32" viewBox="0 0 32 32">
<path d="M8.834 14.393c1.92 3.773 5.006 6.86 8.787 8.78l2.933-2.94c0.366-0.366 0.893-0.474 1.354-0.326 1.494 0.494 3.1 0.76 4.76 0.76 0.74 0 1.334 0.593 1.334 1.334v4.666c0 0.74-0.593 1.334-1.334 1.334-12.52 0-22.666-10.146-22.666-22.666 0-0.74 0.6-1.333 1.333-1.333h4.667c0.74 0 1.334 0.593 1.334 1.333 0 1.66 0.267 3.267 0.76 4.76 0.146 0.46 0.040 0.986-0.326 1.354l-2.934 2.947z" fill="#444444"></path>
</svg>
