<?xml version="1.0" encoding="utf-8"?>
<!-- Generated by IcoMoon.io -->
<!DOCTYPE svg PUBLIC "-//W3C//DTD SVG 1.1//EN" "http://www.w3.org/Graphics/SVG/1.1/DTD/svg11.dtd">
<svg version="1.1" xmlns="http://www.w3.org/2000/svg" xmlns:xlink="http://www.w3.org/1999/xlink" width="43" height="32" viewBox="0 0 43 32">
<path d="M28.45 17.95c-0.7-0.8-1.95-1.6-3.75-2.45l-4.35-2c-0.050-0.050-0.15-0.050-0.2-0.1-0.9-0.4-1.6-0.8-2.050-1.15-0.5-0.4-0.75-0.85-0.75-1.35 0-0.85 0.35-1.4 1.1-1.65 0.45-0.15 1.050-0.25 1.7-0.3 0.4-0.050 0.65-0.050 1.1-0.050 0.5 0 0.75 0 1.25 0v-4.9h-2.5v2.4c-0.5 0.050-1.2 0.1-1.8 0.2-0.95 0.15-1.75 0.4-2.45 0.75s-1.25 0.8-1.65 1.4c-0.4 0.6-0.6 1.3-0.6 2.2 0 1.1 0.4 2 1.25 2.8 0.8 0.75 1.9 1.45 3.25 2.1l2.2 1 2.25 1.050c0.15 0.1 0.3 0.15 0.5 0.25 1 0.5 1.7 0.9 2.1 1.25 0.45 0.4 0.7 0.85 0.7 1.35 0 0.95-0.35 1.55-1.1 1.9-0.45 0.2-1 0.35-1.7 0.45-0.45 0.050-1.050 0.1-1.6 0.1-0.35 0-0.75 0-1.25 0v4.8h2.5v-2.45c1-0.050 1.45-0.15 2-0.25 1-0.2 1.95-0.5 2.7-0.9 0.7-0.4 1.3-0.9 1.7-1.55s0.6-1.35 0.6-2.25c-0.1-0.95-0.45-1.85-1.15-2.65z" fill="#444444"></path>
<path d="M22.85 30.65c0 0.745-0.605 1.35-1.35 1.35s-1.35-0.605-1.35-1.35c0-0.745 0.605-1.35 1.35-1.35s1.35 0.605 1.35 1.35z" fill="#444444"></path>
<path d="M22.85 1.35c0 0.746-0.605 1.35-1.35 1.35s-1.35-0.604-1.35-1.35c0-0.746 0.605-1.35 1.35-1.35s1.35 0.605 1.35 1.35z" fill="#444444"></path>
<path d="M0 16l14.65 14.85 1.9-1.9-12.75-12.95 12.75-12.95-1.9-1.9z" fill="#444444"></path>
<path d="M43 16l-14.65 14.85-1.9-1.9 12.75-12.95-12.75-12.95 1.9-1.9z" fill="#444444"></path>
</svg>
