<?xml version="1.0" encoding="utf-8"?>
<!-- Generated by IcoMoon.io -->
<!DOCTYPE svg PUBLIC "-//W3C//DTD SVG 1.1//EN" "http://www.w3.org/Graphics/SVG/1.1/DTD/svg11.dtd">
<svg version="1.1" xmlns="http://www.w3.org/2000/svg" xmlns:xlink="http://www.w3.org/1999/xlink" width="150" height="32" viewBox="0 0 150 32">
<path d="M15 17.3c0 2.65-0.65 4.7-1.9 6.1s-3.2 2.15-5.8 2.15c-0.55 0-1.2-0.050-1.95-0.1s-1.5-0.15-2.2-0.25v6.1c0 0.2-0.050 0.35-0.2 0.45s-0.3 0.2-0.5 0.2h-1.8c-0.2 0-0.35-0.050-0.45-0.2-0.15-0.15-0.2-0.3-0.2-0.45v-23.2c0-0.2 0.050-0.4 0.1-0.5 0.1-0.1 0.3-0.2 0.6-0.25 0.95-0.2 2-0.4 3.15-0.55s2.3-0.2 3.35-0.2c1.3 0 2.45 0.2 3.45 0.6s1.75 0.95 2.4 1.7c0.65 0.75 1.1 1.6 1.4 2.65 0.3 1 0.45 2.15 0.45 3.4v2.35zM11.9 14.9c0-0.9-0.1-1.65-0.25-2.4-0.15-0.7-0.4-1.35-0.75-1.85s-0.85-0.9-1.4-1.2c-0.6-0.3-1.35-0.4-2.2-0.4-0.75 0-1.5 0.050-2.25 0.1s-1.4 0.15-1.9 0.25v13.35c0.6 0.1 1.3 0.2 2.1 0.25s1.5 0.1 2.050 0.1c0.85 0 1.6-0.15 2.2-0.4s1.050-0.65 1.4-1.15c0.35-0.5 0.6-1.1 0.75-1.8s0.25-1.55 0.25-2.45v-2.4z" fill="#444444"></path>
<path d="M32.35 24.65c0 0.2-0.050 0.35-0.2 0.45-0.15 0.15-0.3 0.2-0.5 0.2h-1.7c-0.2 0-0.35-0.050-0.5-0.2s-0.2-0.3-0.2-0.45v-11.1c0-1.7-0.35-2.85-1.050-3.45-0.7-0.65-1.6-0.95-2.75-0.95-0.3 0-0.6 0-1 0.050s-0.8 0.1-1.25 0.15-0.9 0.2-1.35 0.3c-0.45 0.1-0.9 0.25-1.25 0.4v14.55c0 0.2-0.050 0.35-0.2 0.45-0.15 0.15-0.3 0.2-0.5 0.2h-1.75c-0.2 0-0.35-0.050-0.5-0.2s-0.2-0.3-0.2-0.45v-24c0-0.2 0.050-0.35 0.2-0.45 0.15-0.15 0.3-0.2 0.5-0.2h1.75c0.2 0 0.35 0.050 0.5 0.2 0.1 0.2 0.15 0.35 0.15 0.5v6.95c0.85-0.35 1.8-0.6 2.8-0.8 1-0.15 1.9-0.25 2.65-0.25 0.95 0 1.8 0.15 2.6 0.4s1.45 0.7 2 1.25c0.55 0.55 1 1.3 1.3 2.15 0.3 0.9 0.45 1.95 0.45 3.2v11.1z" fill="#444444"></path>
<path d="M50.4 17.3c0 2.65-0.65 4.7-1.9 6.1-1.3 1.45-3.2 2.15-5.8 2.15-0.55 0-1.2-0.050-1.95-0.1s-1.5-0.15-2.2-0.25v6.1c0 0.2-0.050 0.35-0.2 0.45s-0.3 0.2-0.5 0.2h-1.8c-0.2 0-0.35-0.050-0.45-0.2-0.1-0.1-0.2-0.25-0.2-0.45v-23.2c0-0.2 0.050-0.4 0.1-0.5 0.1-0.1 0.3-0.2 0.6-0.25 0.95-0.2 2-0.4 3.15-0.55s2.3-0.2 3.35-0.2c1.3 0 2.45 0.2 3.45 0.6 0.95 0.4 1.75 0.95 2.4 1.7s1.1 1.6 1.4 2.65c0.3 1 0.45 2.15 0.45 3.4v2.35zM47.3 14.9c0-0.9-0.1-1.65-0.25-2.4-0.15-0.7-0.4-1.35-0.75-1.85s-0.85-0.9-1.4-1.2c-0.6-0.3-1.35-0.4-2.2-0.4-0.75 0-1.5 0.050-2.25 0.1s-1.4 0.15-1.9 0.25v13.35c0.6 0.1 1.3 0.2 2.1 0.25s1.5 0.1 2.050 0.1c0.9 0 1.6-0.15 2.2-0.4s1.050-0.65 1.4-1.15c0.35-0.5 0.6-1.1 0.75-1.8s0.25-1.55 0.25-2.45v-2.4z" fill="#444444"></path>
<path d="M68.15 18.85c0 0.8-0.15 1.6-0.4 2.45s-0.7 1.55-1.35 2.15c-0.65 0.65-1.55 1.15-2.7 1.55s-2.6 0.6-4.35 0.6c-1.25 0-2.35-0.050-3.3-0.15s-1.8-0.2-2.6-0.3c-0.3-0.050-0.5-0.1-0.55-0.2s-0.1-0.2-0.1-0.4v-1.35c0-0.2 0.050-0.3 0.2-0.4 0.1-0.1 0.25-0.15 0.45-0.15h0.1c0.4 0.050 0.85 0.1 1.35 0.1s1.050 0.050 1.55 0.050c0.55 0 1.050 0 1.55 0.050 0.5 0 0.95 0 1.35 0 1.050 0 1.95-0.1 2.65-0.3s1.25-0.45 1.65-0.8c0.4-0.35 0.7-0.75 0.85-1.25s0.25-1.050 0.25-1.6c0-0.45-0.050-0.8-0.2-1.15s-0.4-0.7-0.7-1.050c-0.35-0.35-0.75-0.7-1.3-1.050s-1.2-0.8-2-1.25l-3.45-2c-1.65-0.95-2.85-1.9-3.65-2.85s-1.2-2.1-1.2-3.45c0-2.050 0.75-3.55 2.2-4.5s3.55-1.45 6.3-1.45c0.5 0 1.050 0 1.65 0.050 0.6 0 1.15 0.050 1.7 0.1s1.1 0.1 1.6 0.15c0.5 0.050 0.9 0.1 1.25 0.15 0.4 0.050 0.6 0.25 0.6 0.55v1.35c0 0.35-0.2 0.55-0.6 0.55h-0.050c-0.8-0.050-1.75-0.1-2.85-0.15s-2.2-0.050-3.25-0.050c-1.85 0-3.2 0.2-4 0.65s-1.2 1.3-1.2 2.55c0 0.8 0.3 1.45 0.9 2.050s1.6 1.25 2.95 2l3.25 1.85c1 0.6 1.9 1.15 2.6 1.7s1.3 1.1 1.75 1.6c0.45 0.55 0.75 1.1 0.95 1.7 0.050 0.6 0.15 1.2 0.15 1.9z" fill="#444444"></path>
<path d="M84.95 25.35c0 1.3-0.15 2.4-0.45 3.25s-0.75 1.55-1.35 2.050c-0.6 0.5-1.35 0.85-2.25 1.050s-1.95 0.3-3.15 0.3c-0.65 0-1.3 0-1.9-0.050s-1.2-0.1-1.7-0.15c-0.5-0.050-0.95-0.1-1.35-0.2-0.4-0.050-0.7-0.1-0.9-0.15-0.45-0.1-0.65-0.35-0.65-0.7v-0.95c0-0.2 0.050-0.3 0.2-0.4 0.1-0.1 0.25-0.15 0.45-0.15h0.1c0.25 0.050 0.6 0.1 1.050 0.15s0.95 0.1 1.45 0.1c0.5 0.050 1.050 0.050 1.65 0.1 0.55 0.050 1.1 0.050 1.65 0.050 0.8 0 1.45-0.050 2-0.15s0.95-0.35 1.3-0.65c0.3-0.3 0.55-0.75 0.7-1.3s0.2-1.3 0.2-2.15v-0.15c-0.2 0.050-0.5 0.1-0.8 0.15-0.35 0.050-0.7 0.1-1.050 0.1-0.35 0.050-0.75 0.050-1.1 0.1-0.35 0-0.7 0.050-1 0.050-1 0-2-0.1-2.95-0.3s-1.8-0.55-2.55-1.1c-0.75-0.5-1.35-1.2-1.75-2.1-0.45-0.9-0.65-2.050-0.65-3.45v-11.2c0-0.2 0.050-0.35 0.2-0.45s0.3-0.2 0.5-0.2h1.7c0.2 0 0.35 0.050 0.5 0.2s0.2 0.3 0.2 0.45v11.1c0 0.9 0.1 1.65 0.35 2.2 0.2 0.55 0.55 1.050 0.95 1.35 0.4 0.35 0.9 0.55 1.5 0.7 0.6 0.1 1.25 0.2 2 0.2 0.5 0 1.15-0.050 1.95-0.15 0.75-0.1 1.4-0.2 1.95-0.3v-15.1c0-0.2 0.050-0.35 0.2-0.45 0.15-0.15 0.3-0.2 0.5-0.2h1.7c0.2 0 0.35 0.050 0.5 0.2s0.2 0.3 0.2 0.45v17.85z" fill="#444444"></path>
<path d="M102.9 24.65c0 0.2-0.050 0.35-0.2 0.45-0.1 0.15-0.25 0.2-0.45 0.2h-1.85c-0.2 0-0.35-0.050-0.45-0.2s-0.2-0.3-0.2-0.45v-12c0-1.25-0.2-2.15-0.65-2.7s-1.25-0.8-2.45-0.8h-2.5c-1.2 0-2 0.25-2.45 0.8s-0.65 1.45-0.65 2.7v12.050c0 0.2-0.050 0.35-0.2 0.45s-0.25 0.2-0.45 0.2h-1.85c-0.2 0-0.35-0.050-0.45-0.2s-0.2-0.3-0.2-0.45v-12.050c0-1.3 0.2-2.35 0.65-3.15s0.95-1.4 1.55-1.85c0.6-0.45 1.3-0.75 2-0.9s1.4-0.2 2-0.2h2.5c0.6 0 1.25 0.050 2 0.2s1.4 0.45 2 0.9c0.6 0.45 1.15 1.050 1.55 1.85s0.65 1.85 0.65 3.15v12z" fill="#444444"></path>
<path d="M115.35 24.8c0 0.3-0.25 0.5-0.7 0.55-0.35 0.050-0.8 0.1-1.45 0.15s-1.3 0.050-1.95 0.050c-0.85 0-1.55-0.050-2.2-0.2s-1.2-0.4-1.65-0.75c-0.45-0.35-0.8-0.85-1.050-1.45s-0.35-1.35-0.35-2.25v-17.4c0-0.2 0.050-0.3 0.2-0.4s0.3-0.15 0.5-0.2l1.75-0.25h0.050c0.2 0 0.35 0.050 0.45 0.2 0.1 0.1 0.15 0.3 0.15 0.45v3.55h5.55c0.45 0 0.65 0.2 0.65 0.6v1.15c0 0.2-0.050 0.35-0.2 0.45s-0.3 0.15-0.5 0.15h-5.55v11.7c0 0.5 0.050 0.9 0.15 1.2s0.25 0.5 0.45 0.7c0.2 0.15 0.45 0.3 0.8 0.35s0.75 0.1 1.25 0.1h2.85c0.5 0 0.75 0.15 0.75 0.45v1.1z" fill="#444444"></path>
<path d="M131.25 24c0 0.25-0.050 0.4-0.1 0.5-0.1 0.1-0.3 0.2-0.6 0.25-0.95 0.2-2 0.4-3.15 0.55s-2.3 0.2-3.35 0.2c-1.35 0-2.45-0.2-3.45-0.6-0.95-0.4-1.75-0.95-2.4-1.65s-1.1-1.6-1.4-2.65c-0.3-1.050-0.45-2.2-0.45-3.45v-2.35c0-1.25 0.15-2.4 0.45-3.4s0.8-1.9 1.4-2.65c0.65-0.75 1.45-1.3 2.4-1.7s2.1-0.6 3.45-0.6c1.050 0 2.2 0.050 3.35 0.2s2.25 0.35 3.15 0.55c0.35 0.050 0.55 0.15 0.6 0.25 0.1 0.1 0.1 0.3 0.1 0.5v16.050zM128.1 9.4c-0.45-0.1-1.1-0.15-1.85-0.25-0.75-0.050-1.55-0.1-2.3-0.1-0.9 0-1.6 0.15-2.2 0.4s-1.050 0.65-1.4 1.15c-0.35 0.5-0.6 1.1-0.75 1.85s-0.25 1.55-0.25 2.45v2.35c0 0.9 0.1 1.65 0.25 2.4s0.4 1.35 0.75 1.85c0.35 0.5 0.85 0.9 1.4 1.2s1.3 0.4 2.2 0.4c0.75 0 1.5-0.050 2.25-0.1s1.4-0.15 1.9-0.25v-13.35z" fill="#444444"></path>
<path d="M150 24.95c0 0.25-0.15 0.35-0.45 0.35h-2.45c-0.2 0-0.4-0.1-0.5-0.25l-5.1-7.050-5.050 7c-0.1 0.15-0.2 0.25-0.25 0.3s-0.15 0.050-0.35 0.050h-2.15c-0.3 0-0.45-0.1-0.45-0.35 0-0.15 0.050-0.3 0.2-0.45l6.4-8.65-6.050-8.25c-0.1-0.2-0.2-0.35-0.2-0.45 0-0.25 0.2-0.4 0.55-0.4h2.3c0.15 0 0.25 0.050 0.35 0.1s0.2 0.2 0.35 0.35l4.5 6.35 4.55-6.35c0.15-0.2 0.3-0.35 0.35-0.4 0.1-0.050 0.2-0.050 0.35-0.050h2.050c0.3 0 0.45 0.15 0.45 0.4 0 0.1-0.050 0.25-0.2 0.45l-5.95 8.050 6.5 8.85c0.2 0.1 0.25 0.25 0.25 0.4z" fill="#444444"></path>
</svg>
