<?xml version="1.0" encoding="utf-8"?>
<!-- Generated by IcoMoon.io -->
<!DOCTYPE svg PUBLIC "-//W3C//DTD SVG 1.1//EN" "http://www.w3.org/Graphics/SVG/1.1/DTD/svg11.dtd">
<svg version="1.1" xmlns="http://www.w3.org/2000/svg" xmlns:xlink="http://www.w3.org/1999/xlink" width="32" height="32" viewBox="0 0 32 32">
<path d="M22 12.32l-11.389-11.389c1.684-0.603 3.498-0.931 5.389-0.931 2.122 0 4.147 0.414 6 1.165v11.156zM24 22v-19.859c4.782 2.767 8 7.937 8 13.859 0 2.122-0.414 4.147-1.164 6h-6.836zM10 24h19.859c-2.767 4.782-7.937 8-13.859 8-2.122 0-4.147-0.414-6-1.164v-6.836zM13.32 7l-12.852 12.852c-0.305-1.234-0.468-2.524-0.468-3.852 0-6.043 3.351-11.303 8.296-14.025l5.025 5.025zM8 15.68v14.18c-2.956-1.71-5.314-4.339-6.684-7.496l6.684-6.684z" fill="#444444"></path>
</svg>
