<?xml version="1.0" encoding="utf-8"?>
<!-- Generated by IcoMoon.io -->
<!DOCTYPE svg PUBLIC "-//W3C//DTD SVG 1.1//EN" "http://www.w3.org/Graphics/SVG/1.1/DTD/svg11.dtd">
<svg version="1.1" xmlns="http://www.w3.org/2000/svg" xmlns:xlink="http://www.w3.org/1999/xlink" width="32" height="32" viewBox="0 0 32 32">
<path d="M19 30h-5c-1.654 0-3-1.346-3-3 0-0.535 0.14-1.037 0.386-1.472-0.833-0.534-1.386-1.468-1.386-2.528 0-0.767 0.29-1.469 0.766-2-0.476-0.531-0.766-1.233-0.766-2 0-0.351 0.060-0.687 0.171-1h-7.171c-1.654 0-3-1.346-3-3s1.346-3 3-3h12.334l-2.933-5.5c-0.262-0.455-0.401-0.973-0.401-1.5 0-1.655 1.346-3 3-3 0.824 0 1.593 0.327 2.163 0.921 0.008 0.008 0.015 0.015 0.022 0.023l6.815 7.474v-1.419c0-0.553 0.448-1 1-1h6c0.552 0 1 0.447 1 1v20c0 0.552-0.448 1-1 1h-6c-0.552 0-1-0.448-1-1v-1.382l-4.553 2.276c-0.139 0.070-0.292 0.105-0.447 0.105zM27 28c0.552 0 1-0.448 1-1s-0.448-1-1-1-1 0.448-1 1 0.448 1 1 1zM18.764 28l5.236-2.618v-11.995l-8.287-9.088c-0.19-0.193-0.443-0.3-0.713-0.3-0.552 0-1 0.449-1 1 0 0.17 0.041 0.332 0.121 0.479 0.010 0.016 0.020 0.034 0.029 0.051l3.731 7c0.166 0.31 0.156 0.684-0.025 0.985s-0.506 0.486-0.858 0.486h-14c-0.551 0-1 0.448-1 1s0.449 1 1 1h10c0.553 0 1 0.448 1 1s-0.447 1-1 1c-0.552 0-1 0.448-1 1s0.448 1 1 1c0.553 0 1 0.448 1 1s-0.447 1-1 1c-0.552 0-1 0.448-1 1s0.448 1 1 1h1c0.553 0 1 0.448 1 1s-0.447 1-1 1c-0.552 0-1 0.448-1 1s0.448 1 1 1h4.764z" fill="#444444"></path>
</svg>
