<?xml version="1.0" encoding="utf-8"?>
<!-- Generated by IcoMoon.io -->
<!DOCTYPE svg PUBLIC "-//W3C//DTD SVG 1.1//EN" "http://www.w3.org/Graphics/SVG/1.1/DTD/svg11.dtd">
<svg version="1.1" xmlns="http://www.w3.org/2000/svg" xmlns:xlink="http://www.w3.org/1999/xlink" width="32" height="32" viewBox="0 0 32 32">
<path d="M13 30h5c1.654 0 3-1.346 3-3 0-0.535-0.14-1.037-0.387-1.472 0.833-0.534 1.387-1.468 1.387-2.528 0-0.767-0.29-1.469-0.766-2 0.476-0.531 0.766-1.233 0.766-2 0-0.351-0.061-0.687-0.172-1h7.172c1.654 0 3-1.346 3-3s-1.346-3-3-3h-12.334l2.933-5.5c0.262-0.455 0.401-0.973 0.401-1.5 0-1.654-1.346-3-3-3-0.824 0-1.592 0.327-2.163 0.921-0.008 0.008-0.014 0.015-0.022 0.023l-6.815 7.474v-1.419c0-0.553-0.447-1-1-1h-6c-0.552 0-1 0.447-1 1v20c0 0.552 0.448 1 1 1h6c0.553 0 1-0.448 1-1v-1.382l4.553 2.276c0.139 0.070 0.292 0.105 0.447 0.105zM5 28c-0.553 0-1-0.448-1-1s0.447-1 1-1 1 0.448 1 1-0.447 1-1 1zM13.236 28l-5.236-2.618v-11.995l8.287-9.088c0.189-0.193 0.442-0.3 0.713-0.3 0.552 0 1 0.449 1 1 0 0.17-0.041 0.332-0.122 0.479-0.010 0.016-0.020 0.034-0.029 0.051l-3.732 7c-0.165 0.31-0.156 0.684 0.025 0.985s0.506 0.486 0.857 0.486h14c0.552 0 1 0.448 1 1s-0.448 1-1 1h-10c-0.552 0-1 0.448-1 1s0.448 1 1 1c0.552 0 1 0.448 1 1s-0.448 1-1 1c-0.552 0-1 0.448-1 1s0.448 1 1 1c0.552 0 1 0.448 1 1s-0.448 1-1 1h-1c-0.552 0-1 0.448-1 1s0.448 1 1 1c0.552 0 1 0.448 1 1s-0.448 1-1 1h-4.764z" fill="#444444"></path>
</svg>
