<?xml version="1.0" encoding="utf-8"?>
<!-- Generated by IcoMoon.io -->
<!DOCTYPE svg PUBLIC "-//W3C//DTD SVG 1.1//EN" "http://www.w3.org/Graphics/SVG/1.1/DTD/svg11.dtd">
<svg version="1.1" xmlns="http://www.w3.org/2000/svg" xmlns:xlink="http://www.w3.org/1999/xlink" width="32" height="32" viewBox="0 0 32 32">
<path d="M16 16.334c1.654 0 3-1.34 3-3 0-1.653-1.346-3-3-3s-3 1.347-3 3c0 1.66 1.347 3 3 3zM22 21.666c0-2-4-3-6-3s-6 1-6 3v1h12v-1zM25.334 4h-18.666c-1.473 0-2.667 1.194-2.667 2.667v18.666c0 1.474 1.194 2.666 2.667 2.666h18.666c1.474 0 2.666-1.194 2.666-2.666v-18.666c0-1.473-1.194-2.667-2.666-2.667zM25.334 25.334h-18.666v-18.666h18.666v18.666z" fill="#444444"></path>
</svg>
