<?xml version="1.0" encoding="utf-8"?>
<!-- Generated by IcoMoon.io -->
<!DOCTYPE svg PUBLIC "-//W3C//DTD SVG 1.1//EN" "http://www.w3.org/Graphics/SVG/1.1/DTD/svg11.dtd">
<svg version="1.1" xmlns="http://www.w3.org/2000/svg" xmlns:xlink="http://www.w3.org/1999/xlink" width="32" height="32" viewBox="0 0 32 32">
<path d="M23.413 18.986c0.373-0.92 0.587-1.927 0.587-2.986 0-4.42-3.58-8-8-8-1.060 0-2.066 0.213-2.994 0.587l2.166 2.166c0.274-0.046 0.546-0.086 0.826-0.086 2.947 0 5.334 2.386 5.334 5.333 0 0.287-0.026 0.567-0.073 0.834l2.154 2.154zM16 5.333c5.893 0 10.666 4.773 10.666 10.666 0 1.806-0.466 3.494-1.26 4.98l1.96 1.96c1.24-2.020 1.966-4.393 1.966-6.94 0-7.367-5.974-13.334-13.334-13.334-2.546 0-4.92 0.727-6.94 1.966l1.947 1.947c1.486-0.793 3.187-1.247 4.994-1.247zM4.36 3.333l-1.694 1.7 2.807 2.806c-1.753 2.253-2.807 5.080-2.807 8.16 0 4.927 2.68 9.22 6.66 11.526l1.333-2.306c-3.18-1.84-5.327-5.28-5.327-9.22 0-2.34 0.76-4.5 2.040-6.26l1.913 1.913c-0.813 1.254-1.287 2.74-1.287 4.346 0 2.96 1.607 5.534 3.994 6.92l1.347-2.32c-1.594-0.927-2.674-2.627-2.674-4.6 0-0.86 0.226-1.66 0.586-2.38l2.107 2.107-0.027 0.274c0 1.473 1.194 2.667 2.667 2.667l0.273-0.026 10.026 10.027 1.7-1.7-23.64-23.634z" fill="#444444"></path>
</svg>
