<?xml version="1.0" encoding="utf-8"?>
<!-- Generated by IcoMoon.io -->
<!DOCTYPE svg PUBLIC "-//W3C//DTD SVG 1.1//EN" "http://www.w3.org/Graphics/SVG/1.1/DTD/svg11.dtd">
<svg version="1.1" xmlns="http://www.w3.org/2000/svg" xmlns:xlink="http://www.w3.org/1999/xlink" width="32" height="32" viewBox="0 0 32 32">
<path d="M28 10.666v-1.334l-4 2.666-4-2.666v1.334l4 2.666 4-2.666zM29.334 4h-26.666c-1.474 0-2.667 1.194-2.667 2.667v18.666c0 1.474 1.194 2.666 2.667 2.666h26.666c1.474 0 2.654-1.194 2.654-2.666l0.014-18.666c0-1.473-1.194-2.667-2.666-2.667zM10.666 8c2.207 0 4 1.793 4 4 0 2.213-1.793 4-4 4s-4-1.787-4-4c0-2.207 1.793-4 4-4zM18.666 24h-16v-1.334c0-2.666 5.333-4.133 8-4.133s8 1.466 8 4.133v1.334zM29.334 16h-10.666v-8h10.666v8z" fill="#444444"></path>
</svg>
