<?xml version="1.0" encoding="utf-8"?>
<!-- Generated by IcoMoon.io -->
<!DOCTYPE svg PUBLIC "-//W3C//DTD SVG 1.1//EN" "http://www.w3.org/Graphics/SVG/1.1/DTD/svg11.dtd">
<svg version="1.1" xmlns="http://www.w3.org/2000/svg" xmlns:xlink="http://www.w3.org/1999/xlink" width="32" height="32" viewBox="0 0 32 32">
<path d="M16 6c-6.666 0-12.36 4.146-14.666 10 2.307 5.854 8 10 14.666 10s12.36-4.146 14.666-10c-2.306-5.854-7.994-10-14.666-10zM16 22.666c-3.68 0-6.666-2.986-6.666-6.666s2.986-6.666 6.666-6.666 6.666 2.986 6.666 6.666-2.986 6.666-6.666 6.666zM16 12c-2.207 0-4 1.793-4 4s1.793 4 4 4 4-1.794 4-4-1.794-4-4-4z" fill="#444444"></path>
</svg>
