<?xml version="1.0" encoding="utf-8"?>
<!-- Generated by IcoMoon.io -->
<!DOCTYPE svg PUBLIC "-//W3C//DTD SVG 1.1//EN" "http://www.w3.org/Graphics/SVG/1.1/DTD/svg11.dtd">
<svg version="1.1" xmlns="http://www.w3.org/2000/svg" xmlns:xlink="http://www.w3.org/1999/xlink" width="32" height="32" viewBox="0 0 32 32">
<path d="M10.8 17.794l3.774-3.774-9.354-9.354c-2.080 2.080-2.080 5.46 0 7.54l5.58 5.587zM19.846 15.373c2.034 0.953 4.907 0.28 7.026-1.84 2.553-2.553 3.040-6.2 1.087-8.153-1.96-1.954-5.614-1.466-8.16 1.087-2.12 2.12-2.787 4.994-1.84 7.027-2.966 2.96-13.020 13.014-13.020 13.014l1.886 1.887 9.174-9.174 9.174 9.174 1.887-1.887-9.174-9.174 1.96-1.96z" fill="#444444"></path>
</svg>
