<?xml version="1.0" encoding="utf-8"?>
<!-- Generated by IcoMoon.io -->
<!DOCTYPE svg PUBLIC "-//W3C//DTD SVG 1.1//EN" "http://www.w3.org/Graphics/SVG/1.1/DTD/svg11.dtd">
<svg version="1.1" xmlns="http://www.w3.org/2000/svg" xmlns:xlink="http://www.w3.org/1999/xlink" width="32" height="32" viewBox="0 0 32 32">
<path d="M17.326 4c-6.633 0-11.993 5.373-11.993 12h-4l5.194 5.194 0.093 0.194 5.38-5.386h-4c0-5.154 4.18-9.334 9.334-9.334s9.334 4.18 9.334 9.334-4.18 9.334-9.334 9.334c-2.58 0-4.907-1.053-6.593-2.74l-1.886 1.887c2.167 2.174 5.16 3.52 8.473 3.52 6.634 0 12.006-5.373 12.006-12s-5.373-12-12.007-12zM16 10.666v6.666l5.706 3.386 0.96-1.62-4.666-2.767v-5.666h-2z" fill="#444444"></path>
</svg>
