<?xml version="1.0" encoding="utf-8"?>
<!-- Generated by IcoMoon.io -->
<!DOCTYPE svg PUBLIC "-//W3C//DTD SVG 1.1//EN" "http://www.w3.org/Graphics/SVG/1.1/DTD/svg11.dtd">
<svg version="1.1" xmlns="http://www.w3.org/2000/svg" xmlns:xlink="http://www.w3.org/1999/xlink" width="32" height="32" viewBox="0 0 32 32">
<path d="M20.733 7.4l-6.066-6.066v4.093c-5.26 0.654-9.334 5.134-9.334 10.573s4.074 9.92 9.334 10.573v-2.694c-3.78-0.634-6.667-3.92-6.667-7.88s2.886-7.247 6.666-7.88v5.213l6.067-5.934zM26.573 14.666c-0.227-1.854-0.966-3.64-2.166-5.186l-1.887 1.886c0.713 1.007 1.166 2.133 1.36 3.3h2.694zM17.334 23.873v2.7c1.854-0.227 3.654-0.947 5.2-2.146l-1.913-1.913c-1 0.706-2.12 1.16-3.287 1.36zM22.52 20.634l1.887 1.887c1.2-1.547 1.94-3.334 2.166-5.186h-2.694c-0.194 1.166-0.646 2.293-1.36 3.3z" fill="#444444"></path>
</svg>
