<?xml version="1.0" encoding="utf-8"?>
<!-- Generated by IcoMoon.io -->
<!DOCTYPE svg PUBLIC "-//W3C//DTD SVG 1.1//EN" "http://www.w3.org/Graphics/SVG/1.1/DTD/svg11.dtd">
<svg version="1.1" xmlns="http://www.w3.org/2000/svg" xmlns:xlink="http://www.w3.org/1999/xlink" width="32" height="32" viewBox="0 0 32 32">
<path d="M9.48 11.367l-1.886-1.886c-1.2 1.546-1.94 3.334-2.167 5.186h2.693c0.194-1.166 0.646-2.293 1.36-3.3zM8.12 17.334h-2.694c0.226 1.854 0.966 3.64 2.167 5.186l1.887-1.887c-0.713-1.006-1.167-2.134-1.36-3.3zM9.466 24.42c1.546 1.206 3.346 1.92 5.2 2.146v-2.694c-1.166-0.194-2.287-0.654-3.287-1.366l-1.913 1.913zM17.334 5.426v-4.093l-6.066 6.066 6.066 5.934v-5.213c3.78 0.633 6.666 3.92 6.666 7.88s-2.886 7.247-6.666 7.88v2.694c5.26-0.66 9.334-5.133 9.334-10.573s-4.073-9.914-9.334-10.573z" fill="#444444"></path>
</svg>
