<?xml version="1.0" encoding="utf-8"?>
<!-- Generated by IcoMoon.io -->
<!DOCTYPE svg PUBLIC "-//W3C//DTD SVG 1.1//EN" "http://www.w3.org/Graphics/SVG/1.1/DTD/svg11.dtd">
<svg version="1.1" xmlns="http://www.w3.org/2000/svg" xmlns:xlink="http://www.w3.org/1999/xlink" width="32" height="32" viewBox="0 0 32 32">
<path d="M28.557 21.241c-2.084-3.256-5.659-4.689-7.985-3.201-0.201 0.128-0.386 0.275-0.555 0.437l-2.483-3.883 5.733-8.999c0.469-0.867 0.642-1.899 0.415-2.937-0.218-0.992-0.766-1.826-1.503-2.413l-0.384-0.244-6.796 10.629-6.796-10.629-0.383 0.244c-0.737 0.587-1.285 1.421-1.503 2.413-0.228 1.038-0.054 2.070 0.415 2.936l5.733 8.999-2.483 3.883c-0.169-0.162-0.354-0.308-0.555-0.437-2.326-1.488-5.901-0.055-7.984 3.201s-1.887 7.102 0.438 8.591c2.326 1.488 5.901 0.055 7.984-3.201l5.134-8.059 5.134 8.059c2.084 3.256 5.659 4.689 7.985 3.201s2.522-5.335 0.439-8.591zM7.339 25.014c-0.938 1.465-2.142 2.179-2.955 2.358 0 0 0 0 0 0-0.266 0.058-0.634 0.094-0.885-0.067-0.278-0.178-0.462-0.648-0.494-1.259-0.050-0.989 0.301-2.151 0.966-3.189 0.938-1.466 2.142-2.179 2.955-2.357 0.266-0.058 0.635-0.094 0.886 0.067 0.278 0.178 0.463 0.648 0.493 1.259 0.050 0.989-0.301 2.151-0.965 3.189zM15 16c-0.553 0-1-0.447-1-1s0.447-1 1-1 1 0.447 1 1-0.447 1-1 1zM26.995 26.046c-0.031 0.611-0.215 1.081-0.494 1.259-0.251 0.16-0.62 0.125-0.885 0.067 0 0 0 0 0 0-0.814-0.178-2.017-0.892-2.956-2.358-0.664-1.038-1.015-2.2-0.965-3.189 0.031-0.61 0.215-1.081 0.494-1.259 0.251-0.16 0.62-0.125 0.886-0.067 0.814 0.178 2.017 0.892 2.955 2.357 0.664 1.038 1.015 2.2 0.965 3.189z" fill="#444444"></path>
</svg>
