<?xml version="1.0" encoding="utf-8"?>
<!-- Generated by IcoMoon.io -->
<!DOCTYPE svg PUBLIC "-//W3C//DTD SVG 1.1//EN" "http://www.w3.org/Graphics/SVG/1.1/DTD/svg11.dtd">
<svg version="1.1" xmlns="http://www.w3.org/2000/svg" xmlns:xlink="http://www.w3.org/1999/xlink" width="32" height="32" viewBox="0 0 32 32">
<path d="M20.666 18.666h-1.060l-0.366-0.366c1.306-1.514 2.093-3.48 2.093-5.633 0-4.787-3.88-8.666-8.666-8.666s-8.666 3.88-8.666 8.666 3.88 8.666 8.666 8.666c2.154 0 4.12-0.787 5.633-2.087l0.366 0.366v1.053l6.666 6.654 1.986-1.986-6.654-6.666zM12.666 18.666c-3.313 0-6-2.687-6-6s2.687-6 6-6 6 2.687 6 6-2.687 6-6 6z" fill="#444444"></path>
</svg>
