<?xml version="1.0" encoding="utf-8"?>
<!-- Generated by IcoMoon.io -->
<!DOCTYPE svg PUBLIC "-//W3C//DTD SVG 1.1//EN" "http://www.w3.org/Graphics/SVG/1.1/DTD/svg11.dtd">
<svg version="1.1" xmlns="http://www.w3.org/2000/svg" xmlns:xlink="http://www.w3.org/1999/xlink" width="32" height="32" viewBox="0 0 32 32">
<path d="M11.367 22.564l1.29-1.807-1.414-1.414-1.807 1.291c-0.335-0.188-0.694-0.337-1.071-0.444l-0.365-2.19h-2l-0.365 2.19c-0.377 0.107-0.736 0.256-1.071 0.444l-1.807-1.291-1.415 1.414 1.29 1.807c-0.188 0.335-0.337 0.694-0.444 1.071l-2.19 0.365v2l2.19 0.365c0.107 0.377 0.256 0.735 0.444 1.071l-1.29 1.807 1.414 1.414 1.807-1.291c0.335 0.188 0.694 0.337 1.071 0.444l0.365 2.19h2l0.365-2.19c0.377-0.107 0.736-0.256 1.071-0.444l1.807 1.291 1.414-1.414-1.29-1.807c0.188-0.335 0.337-0.694 0.444-1.071l2.191-0.365v-2l-2.19-0.365c-0.107-0.377-0.256-0.735-0.444-1.071zM7 27c-1.104 0-2-0.895-2-2s0.896-2 2-2 2 0.895 2 2-0.896 2-2 2zM32 12v-2l-2.105-0.383c-0.039-0.252-0.088-0.499-0.148-0.744l1.799-1.159-0.765-1.848-2.092 0.452c-0.131-0.216-0.273-0.426-0.422-0.629l1.219-1.76-1.414-1.414-1.761 1.219c-0.203-0.149-0.413-0.29-0.629-0.421l0.452-2.092-1.848-0.765-1.16 1.798c-0.244-0.059-0.492-0.109-0.744-0.147l-0.383-2.106h-2l-0.383 2.106c-0.252 0.039-0.499 0.088-0.744 0.147l-1.16-1.798-1.848 0.766 0.452 2.092c-0.216 0.131-0.425 0.272-0.629 0.421l-1.761-1.219-1.414 1.414 1.219 1.761c-0.149 0.204-0.29 0.413-0.421 0.629l-2.092-0.452-0.765 1.848 1.799 1.16c-0.059 0.244-0.109 0.492-0.148 0.744l-2.106 0.383v2l2.105 0.383c0.039 0.252 0.088 0.499 0.148 0.744l-1.799 1.159 0.765 1.848 2.092-0.452c0.132 0.216 0.273 0.426 0.421 0.629l-1.219 1.761 1.414 1.414 1.761-1.219c0.204 0.149 0.413 0.29 0.629 0.422l-0.452 2.092 1.847 0.765 1.16-1.799c0.244 0.059 0.492 0.109 0.744 0.148l0.383 2.106h2l0.383-2.105c0.252-0.039 0.499-0.088 0.744-0.148l1.16 1.799 1.848-0.765-0.452-2.092c0.216-0.132 0.425-0.273 0.629-0.422l1.761 1.219 1.414-1.414-1.219-1.761c0.149-0.203 0.29-0.413 0.421-0.629l2.092 0.452 0.765-1.848-1.799-1.159c0.059-0.244 0.109-0.492 0.148-0.744l2.105-0.383zM21 15.35c-2.402 0-4.35-1.947-4.35-4.35s1.948-4.35 4.35-4.35 4.35 1.947 4.35 4.35c0 2.402-1.948 4.35-4.35 4.35z" fill="#444444"></path>
</svg>
