<?xml version="1.0" encoding="utf-8"?>
<!-- Generated by IcoMoon.io -->
<!DOCTYPE svg PUBLIC "-//W3C//DTD SVG 1.1//EN" "http://www.w3.org/Graphics/SVG/1.1/DTD/svg11.dtd">
<svg version="1.1" xmlns="http://www.w3.org/2000/svg" xmlns:xlink="http://www.w3.org/1999/xlink" width="32" height="32" viewBox="0 0 32 32">
<path d="M12 21.334h8.666c1.84 0 3.334-1.494 3.334-3.334s-1.494-3.334-3.334-3.334h-0.067c-0.326-2.26-2.253-4-4.6-4-1.867 0-3.466 1.107-4.213 2.694h-0.22c-2.006 0.213-3.566 1.913-3.566 3.974 0 2.206 1.793 4 4 4zM28 4h-24c-1.474 0-2.667 1.194-2.667 2.667v18.666c0 1.474 1.194 2.666 2.667 2.666h24c1.474 0 2.666-1.194 2.666-2.666v-18.666c0-1.473-1.194-2.667-2.666-2.667zM28 25.354h-24v-18.706h24v18.706z" fill="#444444"></path>
</svg>
