<?xml version="1.0" encoding="utf-8"?>
<!-- Generated by IcoMoon.io -->
<!DOCTYPE svg PUBLIC "-//W3C//DTD SVG 1.1//EN" "http://www.w3.org/Graphics/SVG/1.1/DTD/svg11.dtd">
<svg version="1.1" xmlns="http://www.w3.org/2000/svg" xmlns:xlink="http://www.w3.org/1999/xlink" width="32" height="32" viewBox="0 0 32 32">
<path d="M16.006 7.333l-2.674 3.333h5.334l-2.66-3.333zM24 13.334v5.334l3.334-2.66-3.334-2.674zM8 13.334l-3.333 2.674 3.333 2.66v-5.334zM18.666 21.334h-5.334l2.674 3.334 2.66-3.334zM28 4h-24c-1.474 0-2.667 1.194-2.667 2.667v18.666c0 1.474 1.194 2.666 2.667 2.666h24c1.474 0 2.666-1.194 2.666-2.666v-18.666c0-1.473-1.194-2.667-2.666-2.667zM28 25.354h-24v-18.706h24v18.706z" fill="#444444"></path>
</svg>
