<?xml version="1.0" encoding="utf-8"?>
<!-- Generated by IcoMoon.io -->
<!DOCTYPE svg PUBLIC "-//W3C//DTD SVG 1.1//EN" "http://www.w3.org/Graphics/SVG/1.1/DTD/svg11.dtd">
<svg version="1.1" xmlns="http://www.w3.org/2000/svg" xmlns:xlink="http://www.w3.org/1999/xlink" width="32" height="32" viewBox="0 0 32 32">
<path d="M25.907 17.3c0.053-0.427 0.093-0.86 0.093-1.3s-0.040-0.873-0.093-1.3l2.82-2.207c0.253-0.2 0.326-0.56 0.16-0.854l-2.666-4.62c-0.166-0.287-0.514-0.407-0.814-0.287l-3.32 1.34c-0.686-0.527-1.44-0.973-2.253-1.313l-0.5-3.534c-0.060-0.313-0.334-0.56-0.666-0.56h-5.334c-0.334 0-0.607 0.247-0.66 0.56l-0.5 3.534c-0.813 0.34-1.566 0.78-2.253 1.313l-3.32-1.34c-0.3-0.114-0.646 0-0.814 0.287l-2.667 4.62c-0.167 0.287-0.094 0.646 0.16 0.854l2.813 2.207c-0.053 0.427-0.093 0.86-0.093 1.3s0.040 0.873 0.093 1.3l-2.813 2.207c-0.253 0.2-0.326 0.56-0.16 0.854l2.666 4.62c0.167 0.287 0.513 0.407 0.814 0.287l3.32-1.34c0.687 0.526 1.44 0.974 2.254 1.314l0.5 3.534c0.053 0.314 0.326 0.56 0.66 0.56h5.334c0.334 0 0.607-0.247 0.66-0.56l0.5-3.534c0.814-0.34 1.567-0.78 2.253-1.314l3.32 1.34c0.3 0.113 0.646 0 0.814-0.287l2.666-4.62c0.166-0.287 0.093-0.646-0.16-0.854l-2.814-2.206zM16 20.666c-2.58 0-4.666-2.087-4.666-4.666s2.087-4.666 4.666-4.666 4.666 2.087 4.666 4.666-2.087 4.666-4.666 4.666z" fill="#444444"></path>
</svg>
