<?xml version="1.0" encoding="utf-8"?>
<!-- Generated by IcoMoon.io -->
<!DOCTYPE svg PUBLIC "-//W3C//DTD SVG 1.1//EN" "http://www.w3.org/Graphics/SVG/1.1/DTD/svg11.dtd">
<svg version="1.1" xmlns="http://www.w3.org/2000/svg" xmlns:xlink="http://www.w3.org/1999/xlink" width="32" height="32" viewBox="0 0 32 32">
<path d="M9.334 24c-1.473 0-2.654 1.194-2.654 2.666s1.18 2.666 2.654 2.666 2.666-1.194 2.666-2.666-1.194-2.666-2.666-2.666zM1.333 2.667v2.667h2.667l4.793 10.114-1.8 3.267c-0.207 0.387-0.327 0.82-0.327 1.287 0 1.474 1.194 2.666 2.667 2.666h16v-2.666h-15.434c-0.187 0-0.334-0.146-0.334-0.334 0-0.060 0.014-0.113 0.040-0.16l1.194-2.174h9.934c1 0 1.873-0.553 2.334-1.373l4.767-8.653c0.107-0.186 0.166-0.407 0.166-0.64 0-0.74-0.6-1.333-1.334-1.333h-19.713l-1.266-2.667h-4.354zM22.666 24c-1.474 0-2.654 1.194-2.654 2.666s1.18 2.666 2.654 2.666 2.666-1.194 2.666-2.666-1.194-2.666-2.666-2.666z" fill="#444444"></path>
</svg>
