<?xml version="1.0" encoding="utf-8"?>
<!-- Generated by IcoMoon.io -->
<!DOCTYPE svg PUBLIC "-//W3C//DTD SVG 1.1//EN" "http://www.w3.org/Graphics/SVG/1.1/DTD/svg11.dtd">
<svg version="1.1" xmlns="http://www.w3.org/2000/svg" xmlns:xlink="http://www.w3.org/1999/xlink" width="32" height="32" viewBox="0 0 32 32">
<path d="M30.479 18.061c0.088-0.65 0.139-1.311 0.139-1.983 0-8.072-6.579-14.617-14.694-14.617-0.806 0-1.597 0.066-2.367 0.192-1.38-0.899-3.021-1.423-4.788-1.423-4.845 0-8.768 3.926-8.768 8.769 0 1.762 0.518 3.399 1.412 4.774-0.121 0.751-0.182 1.52-0.182 2.303 0 8.073 6.576 14.617 14.693 14.617 0.916 0 1.808-0.089 2.675-0.246 1.347 0.835 2.933 1.322 4.634 1.322 4.844 0 8.768-3.927 8.768-8.77 0-1.831-0.56-3.533-1.521-4.94zM17.297 26.85c-4.669 0.243-6.854-0.79-8.855-2.668-2.236-2.098-1.338-4.491 0.484-4.613 1.82-0.122 2.913 2.064 3.885 2.671 0.97 0.605 4.662 1.985 6.612-0.244 2.123-2.427-1.412-3.683-4.003-4.063-3.7-0.548-8.372-2.55-8.008-6.494 0.364-3.942 3.349-5.963 6.49-6.248 4.005-0.364 6.612 0.607 8.674 2.366 2.384 2.033 1.094 4.306-0.425 4.489-1.513 0.182-3.212-3.344-6.55-3.397-3.439-0.054-5.763 3.579-1.518 4.612 4.248 1.031 8.797 1.456 10.435 5.338 1.639 3.884-2.547 8.008-7.22 8.251z" fill="#444444"></path>
</svg>
