<?xml version="1.0" encoding="utf-8"?>
<!-- Generated by IcoMoon.io -->
<!DOCTYPE svg PUBLIC "-//W3C//DTD SVG 1.1//EN" "http://www.w3.org/Graphics/SVG/1.1/DTD/svg11.dtd">
<svg version="1.1" xmlns="http://www.w3.org/2000/svg" xmlns:xlink="http://www.w3.org/1999/xlink" width="32" height="32" viewBox="0 0 32 32">
<path d="M22.666 2.667h-13.334c-1.473 0-2.667 1.194-2.667 2.667v21.334c0 1.474 1.194 2.654 2.667 2.654l13.334 0.014c1.474 0 2.666-1.194 2.666-2.666v-21.334c0-1.474-1.194-2.667-2.666-2.667zM16 5.333c1.474 0 2.666 1.194 2.666 2.667s-1.194 2.666-2.666 2.666-2.666-1.194-2.666-2.667 1.194-2.667 2.666-2.667zM16 26.666c-3.68 0-6.666-2.986-6.666-6.666s2.986-6.666 6.666-6.666 6.666 2.986 6.666 6.666-2.986 6.666-6.666 6.666zM16 16c-2.207 0-4 1.794-4 4s1.793 4 4 4 4-1.794 4-4-1.794-4-4-4z" fill="#444444"></path>
</svg>
