<?xml version="1.0" encoding="utf-8"?>
<!-- Generated by IcoMoon.io -->
<!DOCTYPE svg PUBLIC "-//W3C//DTD SVG 1.1//EN" "http://www.w3.org/Graphics/SVG/1.1/DTD/svg11.dtd">
<svg version="1.1" xmlns="http://www.w3.org/2000/svg" xmlns:xlink="http://www.w3.org/1999/xlink" width="32" height="32" viewBox="0 0 32 32">
<path d="M15 2c-8.284 0-15 6.715-15 15s6.715 15 15 15c8.285 0 15-6.715 15-15s-6.715-15-15-15zM23.487 22c0.268-1.264 0.438-2.606 0.492-4h3.982c-0.105 1.381-0.426 2.723-0.959 4h-3.517zM6.513 12c-0.268 1.264-0.438 2.606-0.492 4h-3.982c0.104-1.381 0.425-2.723 0.958-4h3.516zM21.439 12c0.3 1.28 0.481 2.62 0.54 4h-5.979v-4h5.439zM16 10v-5.854c0.456 0.133 0.907 0.356 1.351 0.668 0.831 0.585 1.625 1.488 2.298 2.609 0.465 0.775 0.867 1.638 1.203 2.577h-4.852zM10.351 7.423c0.673-1.121 1.467-2.023 2.298-2.609 0.443-0.313 0.895-0.535 1.351-0.668v5.854h-4.852c0.336-0.94 0.738-1.803 1.203-2.578zM14 12v4h-5.979c0.059-1.38 0.239-2.72 0.54-4h5.439zM2.997 22c-0.533-1.277-0.854-2.619-0.958-4h3.982c0.055 1.394 0.224 2.736 0.492 4h-3.517zM8.021 18h5.979v4h-5.439c-0.3-1.28-0.481-2.62-0.54-4zM14 24v5.855c-0.456-0.133-0.908-0.355-1.351-0.668-0.831-0.585-1.626-1.488-2.298-2.609-0.465-0.775-0.867-1.638-1.203-2.578h4.852zM19.649 26.578c-0.673 1.121-1.468 2.023-2.298 2.609-0.443 0.313-0.895 0.535-1.351 0.668v-5.855h4.852c-0.336 0.939-0.738 1.802-1.203 2.578zM16 22v-4h5.979c-0.058 1.38-0.239 2.72-0.54 4h-5.439zM23.98 16c-0.055-1.394-0.224-2.736-0.492-4h3.517c0.533 1.277 0.855 2.619 0.959 4h-3.983zM25.958 10h-2.997c-0.582-1.837-1.387-3.447-2.354-4.732 1.329 0.635 2.533 1.488 3.585 2.539 0.671 0.671 1.262 1.405 1.765 2.193zM5.808 7.808c1.052-1.052 2.256-1.904 3.585-2.539-0.967 1.285-1.771 2.896-2.354 4.732h-2.997c0.505-0.788 1.095-1.521 1.766-2.192zM4.042 24h2.997c0.582 1.837 1.387 3.447 2.354 4.732-1.329-0.636-2.533-1.488-3.585-2.54-0.671-0.671-1.261-1.404-1.766-2.192zM24.192 26.192c-1.052 1.052-2.256 1.904-3.585 2.54 0.967-1.285 1.771-2.896 2.354-4.732h2.997c-0.505 0.788-1.095 1.521-1.765 2.192z" fill="#444444"></path>
</svg>
