<?xml version="1.0" encoding="utf-8"?>
<!-- Generated by IcoMoon.io -->
<!DOCTYPE svg PUBLIC "-//W3C//DTD SVG 1.1//EN" "http://www.w3.org/Graphics/SVG/1.1/DTD/svg11.dtd">
<svg version="1.1" xmlns="http://www.w3.org/2000/svg" xmlns:xlink="http://www.w3.org/1999/xlink" width="32" height="32" viewBox="0 0 32 32">
<path d="M16 32c-4.274 0-8.291-1.665-11.314-4.686s-4.686-7.040-4.686-11.314c0-3.026 0.85-5.973 2.457-8.521 1.563-2.478 3.771-4.481 6.386-5.79l1.344 2.682c-2.126 1.065-3.921 2.694-5.192 4.709-1.304 2.069-1.994 4.463-1.994 6.921 0 7.168 5.832 13 13 13s13-5.832 13-13c0-2.459-0.689-4.852-1.994-6.921-1.27-2.015-3.066-3.643-5.192-4.708l1.344-2.682c2.616 1.31 4.823 3.313 6.386 5.79 1.607 2.549 2.457 5.495 2.457 8.521 0 4.273-1.665 8.291-4.686 11.314s-7.040 4.687-11.314 4.687z" fill="#444444"></path>
</svg>
