<?xml version="1.0" encoding="utf-8"?>
<!-- Generated by IcoMoon.io -->
<!DOCTYPE svg PUBLIC "-//W3C//DTD SVG 1.1//EN" "http://www.w3.org/Graphics/SVG/1.1/DTD/svg11.dtd">
<svg version="1.1" xmlns="http://www.w3.org/2000/svg" xmlns:xlink="http://www.w3.org/1999/xlink" width="32" height="32" viewBox="0 0 32 32">
<path d="M16 9.472c-1.030 0-1.865-0.835-1.865-1.865v-5.596c0-1.030 0.835-1.865 1.865-1.865s1.865 0.835 1.865 1.865v5.596c0 1.030-0.835 1.865-1.865 1.865z" fill="#444444"></path>
<path d="M16 31.155c-0.644 0-1.165-0.522-1.165-1.166v-5.596c0-0.644 0.522-1.166 1.165-1.166s1.166 0.522 1.166 1.166v5.596c0 0.644-0.522 1.166-1.166 1.166z" fill="#444444"></path>
<path d="M11.805 10.48c-0.604 0-1.192-0.313-1.516-0.874l-2.798-4.846c-0.483-0.837-0.197-1.906 0.64-2.389s1.906-0.196 2.389 0.64l2.798 4.846c0.483 0.836 0.197 1.906-0.64 2.389-0.275 0.159-0.576 0.235-0.873 0.235z" fill="#444444"></path>
<path d="M22.995 29.164c-0.363 0-0.715-0.188-0.91-0.525l-2.798-4.846c-0.29-0.502-0.118-1.143 0.384-1.433s1.143-0.118 1.433 0.384l2.798 4.846c0.29 0.502 0.118 1.143-0.384 1.433-0.165 0.096-0.346 0.14-0.523 0.14z" fill="#444444"></path>
<path d="M8.729 13.435c-0.277 0-0.557-0.070-0.814-0.219l-4.846-2.798c-0.78-0.45-1.048-1.449-0.598-2.229s1.449-1.048 2.229-0.598l4.846 2.798c0.78 0.45 1.048 1.449 0.598 2.229-0.302 0.524-0.851 0.816-1.415 0.816z" fill="#444444"></path>
<path d="M28.114 23.927c-0.158 0-0.319-0.041-0.465-0.125l-4.846-2.798c-0.446-0.258-0.599-0.828-0.341-1.274s0.828-0.599 1.274-0.341l4.846 2.798c0.446 0.258 0.599 0.828 0.341 1.274-0.173 0.299-0.486 0.466-0.808 0.466z" fill="#444444"></path>
<path d="M7.606 17.515h-5.596c-0.837 0-1.516-0.678-1.516-1.515s0.678-1.515 1.516-1.515h5.596c0.837 0 1.516 0.678 1.516 1.515s-0.678 1.515-1.516 1.515z" fill="#444444"></path>
<path d="M29.989 16.933c0 0 0 0 0 0h-5.596c-0.515 0-0.933-0.418-0.933-0.933s0.418-0.932 0.933-0.932c0 0 0 0 0 0h5.596c0.515 0 0.933 0.418 0.933 0.932s-0.418 0.933-0.933 0.933z" fill="#444444"></path>
<path d="M3.886 24.393c-0.483 0-0.954-0.251-1.213-0.7-0.386-0.669-0.157-1.524 0.512-1.911l4.846-2.798c0.669-0.387 1.524-0.157 1.911 0.512s0.157 1.524-0.512 1.911l-4.846 2.798c-0.221 0.127-0.461 0.188-0.698 0.188z" fill="#444444"></path>
<path d="M23.27 12.736c-0.323 0-0.636-0.167-0.808-0.466-0.258-0.446-0.105-1.017 0.341-1.274l4.846-2.798c0.446-0.258 1.017-0.104 1.274 0.341s0.105 1.017-0.341 1.274l-4.846 2.798c-0.147 0.085-0.307 0.125-0.465 0.125z" fill="#444444"></path>
<path d="M9.005 29.398c-0.217 0-0.438-0.055-0.64-0.172-0.614-0.354-0.824-1.139-0.47-1.752l2.798-4.846c0.354-0.613 1.139-0.823 1.752-0.47s0.823 1.139 0.47 1.752l-2.798 4.846c-0.238 0.412-0.668 0.642-1.111 0.642z" fill="#444444"></path>
<path d="M20.196 9.664c-0.158 0-0.319-0.040-0.465-0.125-0.446-0.258-0.599-0.828-0.341-1.274l2.798-4.846c0.258-0.446 0.828-0.599 1.274-0.341s0.599 0.828 0.341 1.274l-2.798 4.846c-0.173 0.299-0.486 0.466-0.808 0.466z" fill="#444444"></path>
</svg>
