<?xml version="1.0" encoding="utf-8"?>
<!-- Generated by IcoMoon.io -->
<!DOCTYPE svg PUBLIC "-//W3C//DTD SVG 1.1//EN" "http://www.w3.org/Graphics/SVG/1.1/DTD/svg11.dtd">
<svg version="1.1" xmlns="http://www.w3.org/2000/svg" xmlns:xlink="http://www.w3.org/1999/xlink" width="32" height="32" viewBox="0 0 32 32">
<path d="M32 16c-0.040-2.090-0.493-4.172-1.331-6.077-0.834-1.906-2.046-3.633-3.532-5.060-1.486-1.428-3.248-2.557-5.156-3.301-1.907-0.748-3.956-1.105-5.981-1.062-2.026 0.040-4.041 0.48-5.886 1.292-1.845 0.809-3.517 1.984-4.898 3.424s-2.474 3.147-3.193 4.994c-0.723 1.845-1.067 3.829-1.024 5.79 0.040 1.961 0.468 3.911 1.254 5.694 0.784 1.785 1.921 3.401 3.316 4.736s3.046 2.391 4.832 3.085c1.785 0.697 3.701 1.028 5.598 0.985 1.897-0.041 3.78-0.455 5.503-1.216 1.724-0.759 3.285-1.859 4.574-3.207 1.29-1.348 2.308-2.945 2.977-4.669 0.407-1.046 0.683-2.137 0.829-3.244 0.039 0.003 0.078 0.004 0.117 0.004 1.105 0 2-0.895 2-2 0-0.056-0.003-0.111-0.008-0.166h0.008zM28.822 21.311c-0.733 1.663-1.796 3.169-3.099 4.412-1.302 1.244-2.844 2.224-4.508 2.869-1.663 0.646-3.447 0.951-5.215 0.909-1.769-0.041-3.518-0.429-5.12-1.14-1.601-0.709-3.053-1.734-4.25-2.991-1.198-1.256-2.142-2.742-2.76-4.346-0.621-1.602-0.913-3.319-0.871-5.024 0.041-1.705 0.417-3.388 1.102-4.928 0.683-1.54 1.672-2.937 2.882-4.088s2.642-2.058 4.184-2.651c1.542-0.595 3.191-0.875 4.832-0.833 1.64 0.041 3.257 0.404 4.736 1.063 1.48 0.658 2.82 1.609 3.926 2.774s1.976 2.54 2.544 4.021c0.57 1.481 0.837 3.065 0.794 4.641h0.008c-0.005 0.055-0.008 0.11-0.008 0.166 0 1.032 0.781 1.881 1.784 1.988-0.195 1.088-0.517 2.151-0.962 3.156z" fill="#444444"></path>
</svg>
