<?xml version="1.0" encoding="utf-8"?>
<!-- Generated by IcoMoon.io -->
<!DOCTYPE svg PUBLIC "-//W3C//DTD SVG 1.1//EN" "http://www.w3.org/Graphics/SVG/1.1/DTD/svg11.dtd">
<svg version="1.1" xmlns="http://www.w3.org/2000/svg" xmlns:xlink="http://www.w3.org/1999/xlink" width="32" height="32" viewBox="0 0 32 32">
<path d="M32 12h-12l4.486-4.486c-2.267-2.267-5.28-3.514-8.486-3.514s-6.219 1.248-8.486 3.514c-2.267 2.267-3.514 5.28-3.514 8.486s1.248 6.219 3.514 8.486c2.267 2.267 5.28 3.514 8.486 3.514s6.219-1.248 8.486-3.514c0.189-0.189 0.37-0.384 0.546-0.584l3.010 2.634c-2.933 3.349-7.239 5.465-12.041 5.465-8.836 0-16-7.163-16-16s7.163-16 16-16c4.419 0 8.418 1.792 11.313 4.687l4.687-4.687v12z" fill="#444444"></path>
</svg>
