<?xml version="1.0" encoding="utf-8"?>
<!-- Generated by IcoMoon.io -->
<!DOCTYPE svg PUBLIC "-//W3C//DTD SVG 1.1//EN" "http://www.w3.org/Graphics/SVG/1.1/DTD/svg11.dtd">
<svg version="1.1" xmlns="http://www.w3.org/2000/svg" xmlns:xlink="http://www.w3.org/1999/xlink" width="32" height="32" viewBox="0 0 32 32">
<path d="M4 28h28v4h-32v-32h4zM9 26c-1.657 0-3-1.343-3-3s1.343-3 3-3c0.088 0 0.175 0.005 0.262 0.012l3.225-5.375c-0.307-0.471-0.487-1.033-0.487-1.637 0-1.657 1.343-3 3-3s3 1.343 3 3c0 0.604-0.18 1.166-0.487 1.637l3.225 5.375c0.087-0.008 0.174-0.012 0.262-0.012 0.067 0 0.133 0.003 0.198 0.007l5.323-9.316c-0.329-0.482-0.522-1.063-0.522-1.691 0-1.657 1.343-3 3-3s3 1.343 3 3c0 1.657-1.343 3-3 3-0.067 0-0.133-0.003-0.198-0.008l-5.323 9.317c0.329 0.482 0.522 1.064 0.522 1.691 0 1.657-1.343 3-3 3s-3-1.343-3-3c0-0.605 0.18-1.166 0.487-1.637l-3.224-5.375c-0.086 0.008-0.174 0.012-0.262 0.012s-0.175-0.005-0.262-0.012l-3.225 5.375c0.307 0.471 0.487 1.033 0.487 1.637 0 1.657-1.343 3-3 3z" fill="#444444"></path>
</svg>
