<?xml version="1.0" encoding="utf-8"?>
<!-- Generated by IcoMoon.io -->
<!DOCTYPE svg PUBLIC "-//W3C//DTD SVG 1.1//EN" "http://www.w3.org/Graphics/SVG/1.1/DTD/svg11.dtd">
<svg version="1.1" xmlns="http://www.w3.org/2000/svg" xmlns:xlink="http://www.w3.org/1999/xlink" width="32" height="32" viewBox="0 0 32 32">
<path d="M9.498 26.125c0.848 0 1.681-0.41 2.187-1.169 0.804-1.206 0.478-2.836-0.728-3.64l-2.065-1.377c0.354-0.096 0.725-0.148 1.108-0.148 2.325 0 4.21 1.884 4.21 4.21s-1.885 4.209-4.21 4.209c-2.263 0-4.107-1.785-4.205-4.024l2.249 1.499c0.447 0.299 0.954 0.441 1.454 0.441zM26.667 0c2.933 0 5.333 2.401 5.333 5.334v21.332c0 2.936-2.399 5.334-5.333 5.334h-21.333c-2.933 0-5.334-2.398-5.334-5.334v-6.345l3.792 2.528c-0.364 1.974 0.217 4.088 1.744 5.616 2.466 2.465 6.463 2.465 8.929 0 1.514-1.515 2.098-3.607 1.752-5.567l7.783-6.968c1.445-0.207 2.838-0.867 3.95-1.979 2.733-2.733 2.733-7.166 0-9.899s-7.166-2.733-9.899 0c-1.112 1.112-1.771 2.505-1.979 3.95v0l-6.396 9.695c-0.995 0.051-1.981 0.337-2.867 0.856l-6.809-4.539v-8.678c0-2.933 2.401-5.334 5.334-5.334h21.333zM28 9c0-2.761-2.239-5-5-5s-5 2.239-5 5 2.239 5 5 5 5-2.239 5-5zM20 9c0-1.657 1.343-3 3-3s3 1.343 3 3-1.343 3-3 3-3-1.343-3-3z" fill="#444444"></path>
</svg>
