<?xml version="1.0" encoding="utf-8"?>
<!-- Generated by IcoMoon.io -->
<!DOCTYPE svg PUBLIC "-//W3C//DTD SVG 1.1//EN" "http://www.w3.org/Graphics/SVG/1.1/DTD/svg11.dtd">
<svg version="1.1" xmlns="http://www.w3.org/2000/svg" xmlns:xlink="http://www.w3.org/1999/xlink" width="32" height="32" viewBox="0 0 32 32">
<path d="M3.373 26.206l1.793 0.74v-12.034l-3.233 7.806c-0.56 1.354 0.087 2.92 1.44 3.486zM29.373 21.26l-6.614-15.954c-0.413-1-1.387-1.62-2.407-1.64-0.354-0.006-0.713 0.060-1.067 0.2l-9.82 4.066c-1 0.414-1.614 1.38-1.64 2.4-0.006 0.36 0.053 0.72 0.2 1.073l6.606 15.953c0.42 1.014 1.4 1.627 2.44 1.64 0.346 0 0.694-0.060 1.034-0.2l9.82-4.067c1.354-0.56 2.006-2.12 1.447-3.474zM10.5 11.666c-0.733 0-1.334-0.6-1.334-1.334s0.6-1.334 1.334-1.334 1.334 0.6 1.334 1.334-0.6 1.334-1.334 1.334zM7.833 26.334c0 1.466 1.2 2.666 2.667 2.666h1.94l-4.606-11.12v8.453z" fill="#444444"></path>
</svg>
