<?xml version="1.0" encoding="utf-8"?>
<!-- Generated by IcoMoon.io -->
<!DOCTYPE svg PUBLIC "-//W3C//DTD SVG 1.1//EN" "http://www.w3.org/Graphics/SVG/1.1/DTD/svg11.dtd">
<svg version="1.1" xmlns="http://www.w3.org/2000/svg" xmlns:xlink="http://www.w3.org/1999/xlink" width="32" height="32" viewBox="0 0 32 32">
<path d="M29 13c-0.889 0-1.686 0.386-2.236 1h-5.936l4.197-4.197c0.823 0.046 1.66-0.245 2.288-0.873 1.171-1.171 1.171-3.071 0-4.242s-3.071-1.171-4.242 0c-0.628 0.628-0.919 1.466-0.873 2.288l-4.198 4.197v-5.936c0.613-0.55 1-1.347 1-2.236 0-1.657-1.343-3-3-3s-3 1.343-3 3c0 0.889 0.386 1.686 1 2.236v5.936l-4.197-4.197c0.046-0.822-0.245-1.659-0.873-2.288-1.171-1.171-3.071-1.171-4.242 0s-1.171 3.071 0 4.242c0.628 0.628 1.466 0.919 2.288 0.873l4.197 4.197h-5.936c-0.55-0.614-1.347-1-2.236-1-1.657 0-3 1.343-3 3s1.343 3 3 3c0.889 0 1.686-0.387 2.236-1h5.936l-4.197 4.197c-0.822-0.046-1.659 0.245-2.288 0.873-1.171 1.172-1.171 3.071 0 4.242s3.071 1.172 4.242 0c0.628-0.628 0.919-1.465 0.873-2.288l4.197-4.198v5.936c-0.614 0.549-1 1.347-1 2.236 0 1.657 1.343 3 3 3s3-1.343 3-3c0-0.889-0.387-1.686-1-2.236v-5.936l4.197 4.197c-0.046 0.823 0.245 1.66 0.873 2.288 1.172 1.171 3.071 1.171 4.242 0s1.172-3.071 0-4.242c-0.628-0.628-1.465-0.919-2.288-0.873l-4.198-4.198h5.936c0.549 0.613 1.347 1 2.236 1 1.657 0 3-1.343 3-3s-1.343-3-3-3z" fill="#444444"></path>
</svg>
