<?xml version="1.0" encoding="utf-8"?>
<!-- Generated by IcoMoon.io -->
<!DOCTYPE svg PUBLIC "-//W3C//DTD SVG 1.1//EN" "http://www.w3.org/Graphics/SVG/1.1/DTD/svg11.dtd">
<svg version="1.1" xmlns="http://www.w3.org/2000/svg" xmlns:xlink="http://www.w3.org/1999/xlink" width="32" height="32" viewBox="0 0 32 32">
<path d="M4 16c0 2.947 1.213 5.6 3.14 7.526l-3.14 3.14h8v-8l-2.98 2.98c-1.454-1.447-2.354-3.44-2.354-5.646 0-3.48 2.226-6.434 5.334-7.534v-2.787c-4.6 1.187-8 5.354-8 10.32zM14.666 22.666h2.666v-2.666h-2.666v2.666zM28 5.333h-8v8l2.98-2.98c1.454 1.447 2.354 3.44 2.354 5.646 0 3.48-2.227 6.434-5.334 7.534v2.78c4.6-1.18 8-5.346 8-10.314 0-2.947-1.213-5.6-3.14-7.527l3.14-3.14zM14.666 17.334h2.666v-8h-2.666v8z" fill="#444444"></path>
</svg>
