<?xml version="1.0" encoding="utf-8"?>
<!-- Generated by IcoMoon.io -->
<!DOCTYPE svg PUBLIC "-//W3C//DTD SVG 1.1//EN" "http://www.w3.org/Graphics/SVG/1.1/DTD/svg11.dtd">
<svg version="1.1" xmlns="http://www.w3.org/2000/svg" xmlns:xlink="http://www.w3.org/1999/xlink" width="32" height="32" viewBox="0 0 32 32">
<path d="M16 5.333v-4l-5.334 5.333 5.334 5.333v-4c4.42 0 8 3.58 8 8 0 1.354-0.34 2.62-0.927 3.74l1.947 1.947c1.034-1.654 1.646-3.593 1.646-5.686 0-5.893-4.773-10.666-10.666-10.666zM16 24c-4.42 0-8-3.58-8-8 0-1.354 0.34-2.62 0.927-3.74l-1.947-1.947c-1.034 1.653-1.646 3.594-1.646 5.687 0 5.893 4.774 10.666 10.666 10.666v4l5.334-5.334-5.334-5.334v4z" fill="#444444"></path>
</svg>
