<?xml version="1.0" encoding="utf-8"?>
<!-- Generated by IcoMoon.io -->
<!DOCTYPE svg PUBLIC "-//W3C//DTD SVG 1.1//EN" "http://www.w3.org/Graphics/SVG/1.1/DTD/svg11.dtd">
<svg version="1.1" xmlns="http://www.w3.org/2000/svg" xmlns:xlink="http://www.w3.org/1999/xlink" width="32" height="32" viewBox="0 0 32 32">
<path d="M13.334 8.466v-2.787c-1.066 0.274-2.060 0.713-2.973 1.28l1.954 1.953c0.326-0.166 0.666-0.326 1.020-0.447zM3.82 7.213l3.14 3.14c-1.026 1.64-1.627 3.566-1.627 5.646 0 2.947 1.207 5.6 3.14 7.526l-3.14 3.14h8v-8l-2.98 2.98c-1.454-1.447-2.354-3.44-2.354-5.646 0-1.334 0.334-2.587 0.914-3.694l10.78 10.78c-0.326 0.174-0.666 0.326-1.020 0.453v2.78c1.067-0.273 2.060-0.713 2.974-1.28l3.146 3.146 1.7-1.7-20.98-20.974-1.694 1.7zM26.666 5.333h-8v8l2.98-2.98c1.454 1.447 2.354 3.44 2.354 5.646 0 1.334-0.334 2.587-0.913 3.694l1.953 1.953c1.026-1.64 1.627-3.567 1.627-5.646 0-2.947-1.206-5.6-3.14-7.527l3.14-3.14z" fill="#444444"></path>
</svg>
