<?xml version="1.0" encoding="utf-8"?>
<!-- Generated by IcoMoon.io -->
<!DOCTYPE svg PUBLIC "-//W3C//DTD SVG 1.1//EN" "http://www.w3.org/Graphics/SVG/1.1/DTD/svg11.dtd">
<svg version="1.1" xmlns="http://www.w3.org/2000/svg" xmlns:xlink="http://www.w3.org/1999/xlink" width="32" height="32" viewBox="0 0 32 32">
<path d="M15.993 2.667c-7.367 0-13.326 5.966-13.326 13.334s5.96 13.334 13.326 13.334c7.367 0 13.34-5.966 13.34-13.334s-5.974-13.334-13.34-13.334zM16 26.666c-5.893 0-10.666-4.773-10.666-10.666s4.774-10.666 10.666-10.666 10.666 4.774 10.666 10.666-4.773 10.666-10.666 10.666zM20.666 14.666c1.107 0 2-0.893 2-2s-0.893-2-2-2-2 0.893-2 2 0.893 2 2 2zM11.334 14.666c1.107 0 2-0.893 2-2s-0.893-2-2-2-2 0.893-2 2 0.893 2 2 2zM16 23.334c3.107 0 5.74-1.94 6.806-4.666h-13.614c1.066 2.727 3.7 4.666 6.806 4.666z" fill="#444444"></path>
</svg>
