<?xml version="1.0" encoding="utf-8"?>
<!-- Generated by IcoMoon.io -->
<!DOCTYPE svg PUBLIC "-//W3C//DTD SVG 1.1//EN" "http://www.w3.org/Graphics/SVG/1.1/DTD/svg11.dtd">
<svg version="1.1" xmlns="http://www.w3.org/2000/svg" xmlns:xlink="http://www.w3.org/1999/xlink" width="32" height="32" viewBox="0 0 32 32">
<path d="M26.014 4.1l-21.913 21.913c0.12 0.46 0.354 0.873 0.68 1.2l0.006 0.006c0.327 0.326 0.74 0.56 1.2 0.68l21.913-21.913c-0.247-0.92-0.966-1.64-1.887-1.886zM15.84 4l-11.84 11.84v3.773l15.614-15.614h-3.774zM6.667 4c-1.466 0-2.667 1.2-2.667 2.667v2.673l5.34-5.34h-2.674zM25.334 28c0.733 0 1.4-0.3 1.88-0.78 0.486-0.486 0.787-1.154 0.787-1.887v-2.674l-5.34 5.34h2.674zM12.386 28h3.774l11.84-11.84v-3.774l-15.614 15.614z" fill="#444444"></path>
</svg>
