<?xml version="1.0" encoding="utf-8"?>
<!-- Generated by IcoMoon.io -->
<!DOCTYPE svg PUBLIC "-//W3C//DTD SVG 1.1//EN" "http://www.w3.org/Graphics/SVG/1.1/DTD/svg11.dtd">
<svg version="1.1" xmlns="http://www.w3.org/2000/svg" xmlns:xlink="http://www.w3.org/1999/xlink" width="32" height="32" viewBox="0 0 32 32">
<path d="M16 8c0-0.734-0.6-1.333-1.334-1.333h-6.913l0.887-4.234c0.020-0.1 0.034-0.207 0.034-0.313 0-0.413-0.166-0.786-0.44-1.060l-1.060-1.060-6.587 6.587c-0.36 0.36-0.587 0.86-0.587 1.413v8.666c0 1.107 0.893 2 2 2h9c0.826 0 1.54-0.5 1.84-1.22l3.020-7.053c0.086-0.226 0.14-0.466 0.14-0.726v-1.667zM30 13.334h-9c-0.826 0-1.54 0.5-1.84 1.22l-3.020 7.053c-0.087 0.227-0.14 0.466-0.14 0.727v1.666c0 0.733 0.6 1.334 1.334 1.334h6.913l-0.887 4.233c-0.020 0.1-0.034 0.206-0.034 0.314 0 0.413 0.166 0.787 0.44 1.060l1.060 1.060 6.587-6.587c0.36-0.36 0.587-0.86 0.587-1.413v-8.666c0-1.107-0.893-2-2-2z" fill="#444444"></path>
</svg>
