<?xml version="1.0" encoding="utf-8"?>
<!-- Generated by IcoMoon.io -->
<!DOCTYPE svg PUBLIC "-//W3C//DTD SVG 1.1//EN" "http://www.w3.org/Graphics/SVG/1.1/DTD/svg11.dtd">
<svg version="1.1" xmlns="http://www.w3.org/2000/svg" xmlns:xlink="http://www.w3.org/1999/xlink" width="32" height="32" viewBox="0 0 32 32">
<path d="M1.333 28h5.333v-16h-5.333v16zM30.666 13.334c0-1.473-1.194-2.666-2.666-2.666h-8.42l1.273-6.093c0.026-0.133 0.047-0.274 0.047-0.42 0-0.554-0.227-1.054-0.587-1.413l-1.42-1.407-8.78 8.78c-0.48 0.486-0.78 1.153-0.78 1.886v13.333c0 1.474 1.194 2.666 2.666 2.666h12c1.107 0 2.053-0.674 2.454-1.627l4.020-9.4c0.12-0.306 0.194-0.634 0.194-0.974v-2.553l-0.014-0.014 0.014-0.1z" fill="#444444"></path>
</svg>
