<?xml version="1.0" encoding="utf-8"?>
<!-- Generated by IcoMoon.io -->
<!DOCTYPE svg PUBLIC "-//W3C//DTD SVG 1.1//EN" "http://www.w3.org/Graphics/SVG/1.1/DTD/svg11.dtd">
<svg version="1.1" xmlns="http://www.w3.org/2000/svg" xmlns:xlink="http://www.w3.org/1999/xlink" width="32" height="32" viewBox="0 0 32 32">
<path d="M20 4h-12c-1.107 0-2.053 0.673-2.454 1.627l-4.020 9.4c-0.12 0.306-0.194 0.633-0.194 0.973v2.553l0.014 0.014-0.014 0.1c0 1.474 1.194 2.666 2.667 2.666h8.42l-1.274 6.093c-0.027 0.134-0.046 0.273-0.046 0.42 0 0.553 0.226 1.053 0.587 1.413l1.42 1.407 8.78-8.78c0.48-0.486 0.78-1.154 0.78-1.887v-13.334c0-1.473-1.194-2.667-2.666-2.667zM25.334 4v16h5.334v-16h-5.334z" fill="#444444"></path>
</svg>
