<?xml version="1.0" encoding="utf-8"?>
<!-- Generated by IcoMoon.io -->
<!DOCTYPE svg PUBLIC "-//W3C//DTD SVG 1.1//EN" "http://www.w3.org/Graphics/SVG/1.1/DTD/svg11.dtd">
<svg version="1.1" xmlns="http://www.w3.org/2000/svg" xmlns:xlink="http://www.w3.org/1999/xlink" width="32" height="32" viewBox="0 0 32 32">
<path d="M21.66 10.34c-1.567-1.56-3.613-2.34-5.66-2.34v8l-5.66 5.66c3.127 3.127 8.186 3.127 11.314 0s3.127-8.194 0.006-11.32zM16 2.667c-7.367 0-13.334 5.966-13.334 13.334s5.966 13.334 13.334 13.334 13.334-5.974 13.334-13.334c0-7.367-5.966-13.334-13.334-13.334zM16 26.666c-5.893 0-10.666-4.773-10.666-10.666s4.774-10.666 10.666-10.666 10.666 4.774 10.666 10.666-4.773 10.666-10.666 10.666z" fill="#444444"></path>
</svg>
