<?xml version="1.0" encoding="utf-8"?>
<!-- Generated by IcoMoon.io -->
<!DOCTYPE svg PUBLIC "-//W3C//DTD SVG 1.1//EN" "http://www.w3.org/Graphics/SVG/1.1/DTD/svg11.dtd">
<svg version="1.1" xmlns="http://www.w3.org/2000/svg" xmlns:xlink="http://www.w3.org/1999/xlink" width="32" height="32" viewBox="0 0 32 32">
<path d="M26.666 13.334h-4v-1.52c2.3-0.594 4-2.66 4-5.146h-4v-1.333c0-0.734-0.593-1.333-1.334-1.333h-10.666c-0.733 0-1.334 0.6-1.334 1.333v1.333h-4c0 2.48 1.707 4.553 4 5.146v1.52h-4c0 2.48 1.707 4.553 4 5.146v1.52h-4c0 2.48 1.707 4.553 4 5.146v1.52c0 0.733 0.6 1.334 1.334 1.334h10.666c0.74 0 1.334-0.6 1.334-1.334v-1.52c2.3-0.593 4-2.66 4-5.146h-4v-1.52c2.3-0.593 4-2.666 4-5.146zM16 25.334c-1.473 0-2.666-1.194-2.666-2.666s1.194-2.666 2.666-2.666 2.666 1.194 2.666 2.666-1.194 2.666-2.666 2.666zM16 18.666c-1.473 0-2.666-1.194-2.666-2.666s1.194-2.666 2.666-2.666 2.666 1.194 2.666 2.666-1.194 2.666-2.666 2.666zM16 12c-1.473 0-2.666-1.194-2.666-2.666s1.194-2.667 2.666-2.667 2.666 1.194 2.666 2.667-1.194 2.666-2.666 2.666z" fill="#444444"></path>
</svg>
