<?xml version="1.0" encoding="utf-8"?>
<!-- Generated by IcoMoon.io -->
<!DOCTYPE svg PUBLIC "-//W3C//DTD SVG 1.1//EN" "http://www.w3.org/Graphics/SVG/1.1/DTD/svg11.dtd">
<svg version="1.1" xmlns="http://www.w3.org/2000/svg" xmlns:xlink="http://www.w3.org/1999/xlink" width="32" height="32" viewBox="0 0 32 32">
<path d="M17.16 20.1l-3.386-3.346 0.040-0.040c2.32-2.587 3.973-5.56 4.946-8.707h3.907v-2.674h-9.334v-2.667h-2.666v2.667h-9.334v2.654h14.893c-0.9 2.574-2.306 5.013-4.226 7.146-1.24-1.38-2.267-2.88-3.080-4.466h-2.667c0.974 2.174 2.307 4.226 3.974 6.080l-6.78 6.7 1.886 1.887 6.667-6.666 4.146 4.146 1.014-2.713zM24.666 13.334h-2.666l-6 16h2.666l1.5-4h6.334l1.5 4h2.666l-6-16zM21.166 22.666l2.166-5.78 2.166 5.78h-4.334z" fill="#444444"></path>
</svg>
