<?xml version="1.0" encoding="utf-8"?>
<!-- Generated by IcoMoon.io -->
<!DOCTYPE svg PUBLIC "-//W3C//DTD SVG 1.1//EN" "http://www.w3.org/Graphics/SVG/1.1/DTD/svg11.dtd">
<svg version="1.1" xmlns="http://www.w3.org/2000/svg" xmlns:xlink="http://www.w3.org/1999/xlink" width="32" height="32" viewBox="0 0 32 32">
<path d="M18.001 14v7.318c0 1.857-0.024 2.927 0.173 3.453 0.195 0.523 0.685 1.067 1.218 1.381 0.709 0.424 1.517 0.637 2.428 0.637 1.62 0 2.578-0.214 4.18-1.267v4.811c-1.366 0.642-2.558 1.018-3.666 1.279-1.11 0.258-2.308 0.387-3.596 0.387-1.463 0-2.327-0.184-3.45-0.552-1.123-0.371-2.083-0.9-2.876-1.579-0.796-0.685-1.345-1.413-1.652-2.182s-0.46-1.888-0.46-3.352v-11.222h-4.295v-4.531c1.256-0.408 2.661-0.994 3.555-1.755 0.899-0.764 1.617-1.678 2.159-2.748 0.543-1.067 0.917-2.429 1.121-4.079h5.159v8h7.999v6h-7.999z" fill="#444444"></path>
</svg>
