<?xml version="1.0" encoding="utf-8"?>
<!-- Generated by IcoMoon.io -->
<!DOCTYPE svg PUBLIC "-//W3C//DTD SVG 1.1//EN" "http://www.w3.org/Graphics/SVG/1.1/DTD/svg11.dtd">
<svg version="1.1" xmlns="http://www.w3.org/2000/svg" xmlns:xlink="http://www.w3.org/1999/xlink" width="32" height="32" viewBox="0 0 32 32">
<path d="M32 6.075c-1.177 0.522-2.442 0.875-3.77 1.034 1.355-0.813 2.396-2.099 2.886-3.632-1.268 0.752-2.674 1.299-4.169 1.593-1.198-1.276-2.904-2.073-4.792-2.073-3.625 0-6.565 2.94-6.565 6.565 0 0.514 0.058 1.015 0.17 1.496-5.456-0.274-10.294-2.888-13.532-6.859-0.565 0.97-0.889 2.098-0.889 3.301 0 2.278 1.159 4.287 2.921 5.465-1.076-0.034-2.088-0.329-2.974-0.821-0 0.027-0 0.055-0 0.082 0 3.181 2.263 5.834 5.266 6.437-0.551 0.15-1.131 0.23-1.729 0.23-0.423 0-0.835-0.041-1.235-0.118 0.835 2.608 3.26 4.506 6.133 4.559-2.247 1.761-5.077 2.811-8.153 2.811-0.53 0-1.052-0.031-1.566-0.092 2.905 1.863 6.356 2.95 10.064 2.95 12.075 0 18.679-10.004 18.679-18.68 0-0.284-0.006-0.568-0.019-0.85 1.283-0.925 2.396-2.082 3.276-3.399z" fill="#444444"></path>
</svg>
