<?xml version="1.0" encoding="utf-8"?>
<!-- Generated by IcoMoon.io -->
<!DOCTYPE svg PUBLIC "-//W3C//DTD SVG 1.1//EN" "http://www.w3.org/Graphics/SVG/1.1/DTD/svg11.dtd">
<svg version="1.1" xmlns="http://www.w3.org/2000/svg" xmlns:xlink="http://www.w3.org/1999/xlink" width="32" height="32" viewBox="0 0 32 32">
<path d="M20 9.334v5.334h1.334v2.666h-4v-10.666h2.666l-4-5.333-4 5.333h2.666v10.666h-4v-2.76c0.94-0.486 1.6-1.44 1.6-2.574 0-1.62-1.313-2.934-2.934-2.934s-2.934 1.313-2.934 2.934c0 1.133 0.66 2.087 1.6 2.573v2.76c0 1.474 1.194 2.666 2.666 2.666h4v4.066c-0.947 0.486-1.6 1.46-1.6 2.6 0 1.62 1.313 2.933 2.934 2.933s2.933-1.314 2.933-2.933c0-1.14-0.654-2.114-1.6-2.6v-4.066h4c1.474 0 2.666-1.194 2.666-2.666v-2.666h1.334v-5.334h-5.334z" fill="#444444"></path>
</svg>
