<?xml version="1.0" encoding="utf-8"?>
<!-- Generated by IcoMoon.io -->
<!DOCTYPE svg PUBLIC "-//W3C//DTD SVG 1.1//EN" "http://www.w3.org/Graphics/SVG/1.1/DTD/svg11.dtd">
<svg version="1.1" xmlns="http://www.w3.org/2000/svg" xmlns:xlink="http://www.w3.org/1999/xlink" width="32" height="32" viewBox="0 0 32 32">
<path d="M26.666 0h-21.332c-2.933 0-5.334 2.401-5.334 5.334v21.332c0 2.936 2.401 5.334 5.334 5.334h21.332c2.933 0 5.334-2.398 5.334-5.334v-21.332c0-2.933-2.401-5.334-5.334-5.334zM25.402 13.691c-1.061 5.978-6.991 11.040-8.774 12.197s-3.411-0.463-4.001-1.688c-0.675-1.397-2.7-8.967-3.23-9.595-0.53-0.626-2.121 0.627-2.121 0.627l-0.771-1.011c0 0 3.231-3.857 5.688-4.34 2.607-0.511 2.602 4.002 3.229 6.508 0.606 2.424 1.013 3.811 1.543 3.811s1.543-1.352 2.651-3.424c1.11-2.074-0.048-3.906-2.218-2.603 0.869-5.208 9.065-6.46 8.004-0.483z" fill="#444444"></path>
</svg>
