<?xml version="1.0" encoding="utf-8"?>
<!-- Generated by IcoMoon.io -->
<!DOCTYPE svg PUBLIC "-//W3C//DTD SVG 1.1//EN" "http://www.w3.org/Graphics/SVG/1.1/DTD/svg11.dtd">
<svg version="1.1" xmlns="http://www.w3.org/2000/svg" xmlns:xlink="http://www.w3.org/1999/xlink" width="32" height="32" viewBox="0 0 32 32">
<path d="M16 9.334c3.68 0 6.666 2.986 6.666 6.666 0 0.86-0.174 1.68-0.474 2.433l3.9 3.9c2.014-1.68 3.6-3.854 4.58-6.334-2.314-5.854-8-10-14.674-10-1.867 0-3.654 0.333-5.314 0.934l2.88 2.873c0.754-0.293 1.573-0.473 2.434-0.473zM2.667 5.7l3.647 3.647c-2.2 1.72-3.94 4.007-4.98 6.653 2.307 5.854 8 10 14.666 10 2.066 0 4.040-0.4 5.847-1.127l0.567 0.567 3.886 3.893 1.7-1.694-23.634-23.64-1.7 1.7zM10.040 13.066l2.060 2.060c-0.060 0.287-0.1 0.573-0.1 0.873 0 2.206 1.793 4 4 4 0.3 0 0.587-0.040 0.866-0.1l2.060 2.060c-0.887 0.44-1.873 0.706-2.927 0.706-3.68 0-6.666-2.986-6.666-6.666 0-1.053 0.267-2.040 0.707-2.934zM15.78 12.020l4.2 4.2 0.020-0.22c0-2.207-1.794-4-4-4l-0.22 0.020z" fill="#444444"></path>
</svg>
