<?xml version="1.0" encoding="utf-8"?>
<!-- Generated by IcoMoon.io -->
<!DOCTYPE svg PUBLIC "-//W3C//DTD SVG 1.1//EN" "http://www.w3.org/Graphics/SVG/1.1/DTD/svg11.dtd">
<svg version="1.1" xmlns="http://www.w3.org/2000/svg" xmlns:xlink="http://www.w3.org/1999/xlink" width="32" height="32" viewBox="0 0 32 32">
<path d="M29.334 5.333v-0.667c0-1.84-1.494-3.333-3.334-3.333s-3.334 1.494-3.334 3.333v0.667c-0.74 0-1.334 0.6-1.334 1.333v5.333c0 0.733 0.593 1.334 1.334 1.334h6.666c0.74 0 1.334-0.6 1.334-1.334v-5.333c0-0.734-0.593-1.333-1.334-1.333zM28.267 5.333h-4.534v-0.667c0-1.253 1.014-2.267 2.267-2.267s2.267 1.014 2.267 2.267v0.667zM25.233 16c0.053 0.44 0.1 0.88 0.1 1.334 0 2.773-1.067 5.294-2.806 7.194-0.34-1.080-1.34-1.86-2.526-1.86h-1.334v-4c0-0.733-0.6-1.334-1.334-1.334h-8v-2.666h2.666c0.733 0 1.334-0.6 1.334-1.334v-2.666h2.666c1.474 0 2.666-1.194 2.666-2.666v-3.386c-1.26-0.4-2.607-0.614-4-0.614-7.367 0-13.334 5.966-13.334 13.334s5.966 13.334 13.334 13.334 13.334-5.966 13.334-13.334c0-0.453-0.026-0.893-0.067-1.334h-2.7zM13.334 27.907c-5.26-0.654-9.334-5.133-9.334-10.573 0-0.82 0.1-1.62 0.28-2.386l6.386 6.386v1.334c0 1.474 1.194 2.666 2.666 2.666v2.573z" fill="#444444"></path>
</svg>
