<?xml version="1.0" encoding="utf-8"?>
<!-- Generated by IcoMoon.io -->
<!DOCTYPE svg PUBLIC "-//W3C//DTD SVG 1.1//EN" "http://www.w3.org/Graphics/SVG/1.1/DTD/svg11.dtd">
<svg version="1.1" xmlns="http://www.w3.org/2000/svg" xmlns:xlink="http://www.w3.org/1999/xlink" width="32" height="32" viewBox="0 0 32 32">
<path d="M12.882 15.998c-1.491-0.766-2.94-1.155-4.309-1.155-0.186 0-0.373 0.005-0.561 0.022-1.746 0.145-3.341 0.605-4.367 0.963-0.272 0.1-0.551 0.205-0.838 0.322l-2.807 9.731c1.928-0.713 3.634-1.061 5.196-1.061 2.527 0 4.36 0.944 5.875 1.916 0.717-2.435 2.439-8.316 2.953-10.073-0.373-0.227-0.752-0.456-1.141-0.666zM16.511 18.471l-2.826 9.817c0.838 0.48 3.66 2.002 5.819 2.002 1.744 0 3.695-0.447 5.963-1.369l2.698-9.437c-1.832 0.591-3.59 0.891-5.233 0.891-2.998 0-5.098-0.972-6.422-1.904zM9.15 11.524c2.41 0.025 4.192 0.944 5.669 1.89l2.898-9.917c-0.611-0.35-2.213-1.221-3.37-1.519-0.762-0.177-1.563-0.269-2.412-0.269-1.618 0.030-3.387 0.436-5.403 1.244l-2.764 9.706c2.025-0.764 3.77-1.136 5.377-1.136 0.002 0 0.005 0 0.005 0zM32 6.191c-1.838 0.713-3.631 1.077-5.345 1.077-2.865 0-4.978-0.994-6.346-1.949l-2.873 9.945c1.93 1.241 4.009 1.871 6.192 1.871 1.779 0 3.623-0.427 5.483-1.271l-0.006-0.069 0.116-0.027 2.78-9.575z" fill="#444444"></path>
</svg>
