<?xml version="1.0" encoding="utf-8"?>
<!-- Generated by IcoMoon.io -->
<!DOCTYPE svg PUBLIC "-//W3C//DTD SVG 1.1//EN" "http://www.w3.org/Graphics/SVG/1.1/DTD/svg11.dtd">
<svg version="1.1" xmlns="http://www.w3.org/2000/svg" xmlns:xlink="http://www.w3.org/1999/xlink" width="32" height="32" viewBox="0 0 32 32">
<path d="M18 3c0 1.657-1.343 3-3 3s-3-1.343-3-3c0-1.657 1.343-3 3-3s3 1.343 3 3z" fill="#444444"></path>
<path d="M22.469 16l1.532-1.11-4.165-6.441c-0.185-0.28-0.498-0.45-0.835-0.45h-8c-0.336 0-0.65 0.169-0.835 0.45l-4.165 6.441 1.532 1.11 3.457-4.488 1.202 2.805-4.191 7.683h3.834l0.666 10h2v-10h1v10h2l0.666-10h3.834l-4.191-7.683 1.202-2.805 3.457 4.488z" fill="#444444"></path>
</svg>
