<?xml version="1.0" encoding="utf-8"?>
<!-- Generated by IcoMoon.io -->
<!DOCTYPE svg PUBLIC "-//W3C//DTD SVG 1.1//EN" "http://www.w3.org/Graphics/SVG/1.1/DTD/svg11.dtd">
<svg version="1.1" xmlns="http://www.w3.org/2000/svg" xmlns:xlink="http://www.w3.org/1999/xlink" width="32" height="32" viewBox="0 0 32 32">
<path d="M31.341 25.558l-14.393-12.336c0.67-1.26 1.050-2.697 1.050-4.223 0-4.971-4.029-9-9-9-0.909 0-1.787 0.136-2.614 0.386l5.199 5.199c0.778 0.778 0.778 2.050 0 2.829l-3.171 3.171c-0.778 0.778-2.050 0.778-2.829 0l-5.199-5.199c-0.251 0.827-0.386 1.705-0.386 2.614 0 4.97 4.029 9 9 9 1.526 0 2.963-0.381 4.223-1.050l12.336 14.392c0.716 0.835 1.938 0.882 2.715 0.105l3.172-3.172c0.778-0.778 0.731-2-0.105-2.715z" fill="#444444"></path>
</svg>
