<?xml version="1.0" encoding="utf-8"?>
<!-- Generated by IcoMoon.io -->
<!DOCTYPE svg PUBLIC "-//W3C//DTD SVG 1.1//EN" "http://www.w3.org/Graphics/SVG/1.1/DTD/svg11.dtd">
<svg version="1.1" xmlns="http://www.w3.org/2000/svg" xmlns:xlink="http://www.w3.org/1999/xlink" width="32" height="32" viewBox="0 0 32 32">
<path d="M19.027 20.421c-0.54 0.544-0.084 1.535-0.084 1.535l4.066 6.788c0 0 0.668 0.895 1.246 0.895 0.581 0 1.155-0.477 1.155-0.477l3.214-4.594c0 0 0.324-0.579 0.331-1.087 0.012-0.722-1.076-0.92-1.076-0.92l-7.609-2.444c0 0-0.745-0.198-1.242 0.303zM18.642 17c0.39 0.66 1.463 0.468 1.463 0.468l7.592-2.219c0 0 1.035-0.421 1.182-0.982 0.145-0.561-0.171-1.238-0.171-1.238l-3.628-4.274c0 0-0.314-0.54-0.967-0.595-0.719-0.061-1.162 0.809-1.162 0.809l-4.29 6.75c0 0-0.379 0.672-0.020 1.279zM15.055 14.367c0.894-0.22 1.036-1.519 1.036-1.519l-0.061-10.809c0 0-0.135-1.333-0.734-1.694-0.94-0.57-1.218-0.273-1.488-0.233l-6.303 2.342c0 0-0.617 0.204-0.939 0.72-0.459 0.73 0.466 1.798 0.466 1.798l6.551 8.93c0 0 0.646 0.668 1.47 0.465zM13.498 18.742c0.023-0.834-1.001-1.334-1.001-1.334l-6.775-3.422c0 0-1.004-0.414-1.492-0.126-0.373 0.22-0.704 0.62-0.736 0.973l-0.442 5.431c0 0-0.066 0.941 0.178 1.369 0.345 0.608 1.482 0.184 1.482 0.184l7.91-1.748c0.307-0.206 0.846-0.225 0.876-1.328zM15.465 21.673c-0.679-0.349-1.492 0.373-1.492 0.373l-5.296 5.83c0 0-0.661 0.892-0.493 1.439 0.159 0.513 0.421 0.768 0.791 0.948l5.319 1.679c0 0 0.645 0.134 1.133-0.008 0.693-0.201 0.566-1.286 0.566-1.286l0.12-7.894c0 0-0.027-0.761-0.649-1.082z" fill="#444444"></path>
</svg>
