<?xml version="1.0" encoding="utf-8"?>
<!-- Generated by IcoMoon.io -->
<!DOCTYPE svg PUBLIC "-//W3C//DTD SVG 1.1//EN" "http://www.w3.org/Graphics/SVG/1.1/DTD/svg11.dtd">
<svg version="1.1" xmlns="http://www.w3.org/2000/svg" xmlns:xlink="http://www.w3.org/1999/xlink" width="16" height="16" viewBox="0 0 16 16">
<path d="M11 8c0.92 0 1.66-0.747 1.66-1.667s-0.74-1.667-1.66-1.667c-0.92 0-1.667 0.747-1.667 1.667s0.747 1.667 1.667 1.667zM6 7.333c1.103 0 1.993-0.897 1.993-2s-0.89-2-1.993-2c-1.103 0-2 0.897-2 2s0.897 2 2 2zM11 9.333c-1.223 0-3.667 0.613-3.667 1.833v1.5h7.333v-1.5c0-1.22-2.443-1.833-3.667-1.833zM6 8.667c-1.557 0-4.667 0.78-4.667 2.333v1.667h4.667v-1.5c0-0.567 0.223-1.557 1.58-2.313-0.58-0.123-1.143-0.187-1.58-0.187z" fill="#444444"></path>
</svg>
