<?xml version="1.0" encoding="utf-8"?>
<!-- Generated by IcoMoon.io -->
<!DOCTYPE svg PUBLIC "-//W3C//DTD SVG 1.1//EN" "http://www.w3.org/Graphics/SVG/1.1/DTD/svg11.dtd">
<svg version="1.1" xmlns="http://www.w3.org/2000/svg" xmlns:xlink="http://www.w3.org/1999/xlink" width="16" height="16" viewBox="0 0 16 16">
<path d="M3.333 10.667c0 2.577 2.090 4.667 4.667 4.667s4.667-2.090 4.667-4.667v-2.667h-9.333v2.667zM10.75 2.913l1.4-1.4-0.55-0.55-1.537 1.537c-0.627-0.31-1.32-0.5-2.063-0.5s-1.437 0.19-2.063 0.5l-1.537-1.537-0.55 0.55 1.4 1.4c-1.157 0.847-1.917 2.207-1.917 3.753v0.667h9.333v-0.667c0-1.547-0.76-2.907-1.917-3.753zM6 6c-0.37 0-0.667-0.3-0.667-0.667s0.297-0.667 0.667-0.667c0.37 0 0.667 0.3 0.667 0.667s-0.297 0.667-0.667 0.667zM10 6c-0.37 0-0.667-0.3-0.667-0.667s0.297-0.667 0.667-0.667c0.37 0 0.667 0.3 0.667 0.667s-0.297 0.667-0.667 0.667z" fill="#444444"></path>
</svg>
