<?xml version="1.0" encoding="utf-8"?>
<!-- Generated by IcoMoon.io -->
<!DOCTYPE svg PUBLIC "-//W3C//DTD SVG 1.1//EN" "http://www.w3.org/Graphics/SVG/1.1/DTD/svg11.dtd">
<svg version="1.1" xmlns="http://www.w3.org/2000/svg" xmlns:xlink="http://www.w3.org/1999/xlink" width="16" height="16" viewBox="0 0 16 16">
<path d="M8 2c-3.866 0-7 3.134-7 7s3.134 7 7 7 7-3.134 7-7-3.134-7-7-7zM8 14.625c-3.107 0-5.625-2.518-5.625-5.625s2.518-5.625 5.625-5.625c3.107 0 5.625 2.518 5.625 5.625s-2.518 5.625-5.625 5.625zM14.606 4.487c0.251-0.438 0.394-0.946 0.394-1.487 0-1.657-1.343-3-3-3-0.966 0-1.825 0.457-2.374 1.165 2.061 0.425 3.831 1.644 4.98 3.322v0zM6.374 1.165c-0.549-0.709-1.408-1.165-2.374-1.165-1.657 0-3 1.343-3 3 0 0.541 0.143 1.049 0.394 1.487 1.149-1.678 2.919-2.896 4.98-3.321z" fill="#444444"></path>
<path d="M8 9v-4h-1v5h4v-1z" fill="#444444"></path>
</svg>
