<?xml version="1.0" encoding="utf-8"?>
<!-- Generated by IcoMoon.io -->
<!DOCTYPE svg PUBLIC "-//W3C//DTD SVG 1.1//EN" "http://www.w3.org/Graphics/SVG/1.1/DTD/svg11.dtd">
<svg version="1.1" xmlns="http://www.w3.org/2000/svg" xmlns:xlink="http://www.w3.org/1999/xlink" width="16" height="16" viewBox="0 0 16 16">
<path d="M12.367 8.502c-0.020-2.026 1.652-2.998 1.727-3.046-0.94-1.375-2.404-1.564-2.926-1.585-1.246-0.126-2.431 0.734-3.063 0.734-0.631 0-1.607-0.715-2.64-0.696-1.358 0.020-2.61 0.79-3.309 2.006-1.411 2.449-0.361 6.076 1.014 8.061 0.672 0.972 1.473 2.064 2.526 2.025 1.013-0.040 1.396-0.655 2.621-0.655s1.569 0.655 2.642 0.636c1.090-0.020 1.781-0.991 2.448-1.966 0.772-1.128 1.089-2.219 1.108-2.275-0.024-0.011-2.126-0.816-2.147-3.236zM10.352 2.555c0.559-0.677 0.935-1.617 0.832-2.555-0.804 0.033-1.779 0.536-2.357 1.212-0.518 0.6-0.971 1.557-0.849 2.475 0.898 0.070 1.814-0.456 2.374-1.132z" fill="#444444"></path>
</svg>
