<?xml version="1.0" encoding="utf-8"?>
<!-- Generated by IcoMoon.io -->
<!DOCTYPE svg PUBLIC "-//W3C//DTD SVG 1.1//EN" "http://www.w3.org/Graphics/SVG/1.1/DTD/svg11.dtd">
<svg version="1.1" xmlns="http://www.w3.org/2000/svg" xmlns:xlink="http://www.w3.org/1999/xlink" width="16" height="16" viewBox="0 0 16 16">
<path d="M5 12c-2.027 0-3.667-1.643-3.667-3.667s1.64-3.667 3.667-3.667h7c1.473 0 2.667 1.193 2.667 2.667s-1.193 2.667-2.667 2.667h-5.667c-0.92 0-1.667-0.747-1.667-1.667s0.747-1.667 1.667-1.667h5v1h-5c-0.367 0-0.667 0.297-0.667 0.667s0.3 0.667 0.667 0.667h5.667c0.92 0 1.667-0.747 1.667-1.667s-0.747-1.667-1.667-1.667h-7c-1.473 0-2.667 1.193-2.667 2.667s1.193 2.667 2.667 2.667h6.333v1h-6.333z" fill="#444444"></path>
</svg>
