<?xml version="1.0" encoding="utf-8"?>
<!-- Generated by IcoMoon.io -->
<!DOCTYPE svg PUBLIC "-//W3C//DTD SVG 1.1//EN" "http://www.w3.org/Graphics/SVG/1.1/DTD/svg11.dtd">
<svg version="1.1" xmlns="http://www.w3.org/2000/svg" xmlns:xlink="http://www.w3.org/1999/xlink" width="16" height="16" viewBox="0 0 16 16">
<path d="M8 4v2l2.667-2.667-2.667-2.667v2c-2.947 0-5.333 2.387-5.333 5.333 0 1.047 0.307 2.017 0.827 2.84l0.973-0.973c-0.297-0.557-0.467-1.19-0.467-1.867 0-2.21 1.79-4 4-4zM12.507 5.16l-0.973 0.973c0.297 0.557 0.467 1.19 0.467 1.867 0 2.21-1.79 4-4 4v-2l-2.667 2.667 2.667 2.667v-2c2.947 0 5.333-2.387 5.333-5.333 0-1.047-0.307-2.017-0.827-2.84z" fill="#444444"></path>
</svg>
