<?xml version="1.0" encoding="utf-8"?>
<!-- Generated by IcoMoon.io -->
<!DOCTYPE svg PUBLIC "-//W3C//DTD SVG 1.1//EN" "http://www.w3.org/Graphics/SVG/1.1/DTD/svg11.dtd">
<svg version="1.1" xmlns="http://www.w3.org/2000/svg" xmlns:xlink="http://www.w3.org/1999/xlink" width="16" height="16" viewBox="0 0 16 16">
<path d="M7.333 11.333c0 0.367 0.3 0.667 0.667 0.667s0.667-0.3 0.667-0.667-0.3-0.667-0.667-0.667-0.667 0.3-0.667 0.667zM7.333 2v2.667h1.333v-1.28c2.26 0.323 4 2.263 4 4.613 0 2.577-2.090 4.667-4.667 4.667s-4.667-2.090-4.667-4.667c0-1.12 0.393-2.143 1.050-2.95l3.617 3.617 0.943-0.943-4.533-4.533-0.007 0.013c-1.457 1.093-2.403 2.833-2.403 4.797 0 3.313 2.68 6 5.997 6s6.003-2.687 6.003-6-2.687-6-6.003-6h-0.663zM12 8c0-0.367-0.3-0.667-0.667-0.667s-0.667 0.3-0.667 0.667 0.3 0.667 0.667 0.667 0.667-0.3 0.667-0.667zM4 8c0 0.367 0.3 0.667 0.667 0.667s0.667-0.3 0.667-0.667-0.3-0.667-0.667-0.667-0.667 0.3-0.667 0.667z" fill="#444444"></path>
</svg>
