<?xml version="1.0" encoding="utf-8"?>
<!-- Generated by IcoMoon.io -->
<!DOCTYPE svg PUBLIC "-//W3C//DTD SVG 1.1//EN" "http://www.w3.org/Graphics/SVG/1.1/DTD/svg11.dtd">
<svg version="1.1" xmlns="http://www.w3.org/2000/svg" xmlns:xlink="http://www.w3.org/1999/xlink" width="16" height="16" viewBox="0 0 16 16">
<path d="M14.667 2h-10c-0.46 0-0.823 0.233-1.063 0.587l-3.603 5.41 3.603 5.41c0.24 0.353 0.603 0.593 1.063 0.593h10c0.737 0 1.333-0.597 1.333-1.333v-9.333c0-0.737-0.597-1.333-1.333-1.333zM12.667 10.39l-0.943 0.943-2.39-2.39-2.39 2.39-0.943-0.943 2.39-2.39-2.39-2.39 0.943-0.943 2.39 2.39 2.39-2.39 0.943 0.943-2.39 2.39 2.39 2.39z" fill="#444444"></path>
</svg>
