<?xml version="1.0" encoding="utf-8"?>
<!-- Generated by IcoMoon.io -->
<!DOCTYPE svg PUBLIC "-//W3C//DTD SVG 1.1//EN" "http://www.w3.org/Graphics/SVG/1.1/DTD/svg11.dtd">
<svg version="1.1" xmlns="http://www.w3.org/2000/svg" xmlns:xlink="http://www.w3.org/1999/xlink" width="16" height="16" viewBox="0 0 16 16">
<path d="M8 1.333c-3.683 0-6.667 2.983-6.667 6.667s2.983 6.667 6.667 6.667 6.667-2.983 6.667-6.667-2.983-6.667-6.667-6.667zM2.667 8c0-2.947 2.387-5.333 5.333-5.333 1.233 0 2.363 0.423 3.267 1.123l-7.477 7.477c-0.7-0.903-1.123-2.033-1.123-3.267zM8 13.333c-1.233 0-2.363-0.423-3.267-1.123l7.477-7.477c0.7 0.903 1.123 2.033 1.123 3.267 0 2.947-2.387 5.333-5.333 5.333z" fill="#444444"></path>
</svg>
