<?xml version="1.0" encoding="utf-8"?>
<!-- Generated by IcoMoon.io -->
<!DOCTYPE svg PUBLIC "-//W3C//DTD SVG 1.1//EN" "http://www.w3.org/Graphics/SVG/1.1/DTD/svg11.dtd">
<svg version="1.1" xmlns="http://www.w3.org/2000/svg" xmlns:xlink="http://www.w3.org/1999/xlink" width="16" height="16" viewBox="0 0 16 16">
<path d="M3.333 11.667c0.553 0 1-0.447 1-1s-0.447-1-1-1-1 0.447-1 1 0.447 1 1 1zM6 8.667c0.367 0 0.667-0.3 0.667-0.667s-0.3-0.667-0.667-0.667-0.667 0.3-0.667 0.667 0.3 0.667 0.667 0.667zM6 6c0.367 0 0.667-0.3 0.667-0.667s-0.3-0.667-0.667-0.667-0.667 0.3-0.667 0.667 0.3 0.667 0.667 0.667zM2 14h12v-1.333h-12v1.333zM3.333 6.333c0.553 0 1-0.447 1-1s-0.447-1-1-1-1 0.447-1 1 0.447 1 1 1zM3.333 9c0.553 0 1-0.447 1-1s-0.447-1-1-1-1 0.447-1 1 0.447 1 1 1zM6 11.333c0.367 0 0.667-0.3 0.667-0.667s-0.3-0.667-0.667-0.667-0.667 0.3-0.667 0.667 0.3 0.667 0.667 0.667zM11.333 11c0.183 0 0.333-0.15 0.333-0.333s-0.15-0.333-0.333-0.333-0.333 0.15-0.333 0.333 0.15 0.333 0.333 0.333zM2 2v1.333h12v-1.333h-12zM11.333 5.667c0.183 0 0.333-0.15 0.333-0.333s-0.15-0.333-0.333-0.333-0.333 0.15-0.333 0.333 0.15 0.333 0.333 0.333zM11.333 8.333c0.183 0 0.333-0.15 0.333-0.333s-0.15-0.333-0.333-0.333-0.333 0.15-0.333 0.333 0.15 0.333 0.333 0.333zM8.667 6c0.367 0 0.667-0.3 0.667-0.667s-0.3-0.667-0.667-0.667-0.667 0.3-0.667 0.667 0.3 0.667 0.667 0.667zM8.667 8.667c0.367 0 0.667-0.3 0.667-0.667s-0.3-0.667-0.667-0.667-0.667 0.3-0.667 0.667 0.3 0.667 0.667 0.667zM8.667 11.333c0.367 0 0.667-0.3 0.667-0.667s-0.3-0.667-0.667-0.667-0.667 0.3-0.667 0.667 0.3 0.667 0.667 0.667z" fill="#444444"></path>
</svg>
