<?xml version="1.0" encoding="utf-8"?>
<!-- Generated by IcoMoon.io -->
<!DOCTYPE svg PUBLIC "-//W3C//DTD SVG 1.1//EN" "http://www.w3.org/Graphics/SVG/1.1/DTD/svg11.dtd">
<svg version="1.1" xmlns="http://www.w3.org/2000/svg" xmlns:xlink="http://www.w3.org/1999/xlink" width="16" height="16" viewBox="0 0 16 16">
<path d="M6.667 6c-0.367 0-0.667 0.3-0.667 0.667s0.3 0.667 0.667 0.667 0.667-0.3 0.667-0.667-0.3-0.667-0.667-0.667zM6.667 8.667c-0.367 0-0.667 0.3-0.667 0.667s0.3 0.667 0.667 0.667 0.667-0.3 0.667-0.667-0.3-0.667-0.667-0.667zM4.667 6.333c-0.183 0-0.333 0.15-0.333 0.333s0.15 0.333 0.333 0.333 0.333-0.15 0.333-0.333-0.15-0.333-0.333-0.333zM6.667 11c-0.183 0-0.333 0.15-0.333 0.333s0.15 0.333 0.333 0.333 0.333-0.15 0.333-0.333-0.15-0.333-0.333-0.333zM4.667 9c-0.183 0-0.333 0.15-0.333 0.333s0.15 0.333 0.333 0.333 0.333-0.15 0.333-0.333-0.15-0.333-0.333-0.333zM6.667 5c0.183 0 0.333-0.15 0.333-0.333s-0.15-0.333-0.333-0.333-0.333 0.15-0.333 0.333 0.15 0.333 0.333 0.333zM9.333 6c-0.367 0-0.667 0.3-0.667 0.667s0.3 0.667 0.667 0.667 0.667-0.3 0.667-0.667-0.3-0.667-0.667-0.667zM9.333 5c0.183 0 0.333-0.15 0.333-0.333s-0.15-0.333-0.333-0.333-0.333 0.15-0.333 0.333 0.15 0.333 0.333 0.333zM11.333 9c-0.183 0-0.333 0.15-0.333 0.333s0.15 0.333 0.333 0.333 0.333-0.15 0.333-0.333-0.15-0.333-0.333-0.333zM11.333 6.333c-0.183 0-0.333 0.15-0.333 0.333s0.15 0.333 0.333 0.333 0.333-0.15 0.333-0.333-0.15-0.333-0.333-0.333zM8 1.333c-3.683 0-6.667 2.983-6.667 6.667s2.983 6.667 6.667 6.667 6.667-2.983 6.667-6.667-2.983-6.667-6.667-6.667zM8 13.333c-2.947 0-5.333-2.387-5.333-5.333s2.387-5.333 5.333-5.333 5.333 2.387 5.333 5.333-2.387 5.333-5.333 5.333zM9.333 11c-0.183 0-0.333 0.15-0.333 0.333s0.15 0.333 0.333 0.333 0.333-0.15 0.333-0.333-0.15-0.333-0.333-0.333zM9.333 8.667c-0.367 0-0.667 0.3-0.667 0.667s0.3 0.667 0.667 0.667 0.667-0.3 0.667-0.667-0.3-0.667-0.667-0.667z" fill="#444444"></path>
</svg>
