<?xml version="1.0" encoding="utf-8"?>
<!-- Generated by IcoMoon.io -->
<!DOCTYPE svg PUBLIC "-//W3C//DTD SVG 1.1//EN" "http://www.w3.org/Graphics/SVG/1.1/DTD/svg11.dtd">
<svg version="1.1" xmlns="http://www.w3.org/2000/svg" xmlns:xlink="http://www.w3.org/1999/xlink" width="16" height="16" viewBox="0 0 16 16">
<path d="M4 8.667c-0.367 0-0.667 0.3-0.667 0.667s0.3 0.667 0.667 0.667 0.667-0.3 0.667-0.667-0.3-0.667-0.667-0.667zM4 11.333c-0.367 0-0.667 0.3-0.667 0.667s0.3 0.667 0.667 0.667 0.667-0.3 0.667-0.667-0.3-0.667-0.667-0.667zM4 6c-0.367 0-0.667 0.3-0.667 0.667s0.3 0.667 0.667 0.667 0.667-0.3 0.667-0.667-0.3-0.667-0.667-0.667zM2 6.333c-0.183 0-0.333 0.15-0.333 0.333s0.15 0.333 0.333 0.333 0.333-0.15 0.333-0.333-0.15-0.333-0.333-0.333zM4 3.333c-0.367 0-0.667 0.3-0.667 0.667s0.3 0.667 0.667 0.667 0.667-0.3 0.667-0.667-0.3-0.667-0.667-0.667zM14 7c0.183 0 0.333-0.15 0.333-0.333s-0.15-0.333-0.333-0.333-0.333 0.15-0.333 0.333 0.15 0.333 0.333 0.333zM9.333 4.667c0.367 0 0.667-0.3 0.667-0.667s-0.3-0.667-0.667-0.667-0.667 0.3-0.667 0.667 0.3 0.667 0.667 0.667zM9.333 2.333c0.183 0 0.333-0.15 0.333-0.333s-0.15-0.333-0.333-0.333-0.333 0.15-0.333 0.333 0.15 0.333 0.333 0.333zM2 9c-0.183 0-0.333 0.15-0.333 0.333s0.15 0.333 0.333 0.333 0.333-0.15 0.333-0.333-0.15-0.333-0.333-0.333zM6.667 13.667c-0.183 0-0.333 0.15-0.333 0.333s0.15 0.333 0.333 0.333 0.333-0.15 0.333-0.333-0.15-0.333-0.333-0.333zM6.667 2.333c0.183 0 0.333-0.15 0.333-0.333s-0.15-0.333-0.333-0.333-0.333 0.15-0.333 0.333 0.15 0.333 0.333 0.333zM6.667 4.667c0.367 0 0.667-0.3 0.667-0.667s-0.3-0.667-0.667-0.667-0.667 0.3-0.667 0.667 0.3 0.667 0.667 0.667zM6.667 8.333c-0.553 0-1 0.447-1 1s0.447 1 1 1 1-0.447 1-1-0.447-1-1-1zM12 8.667c-0.367 0-0.667 0.3-0.667 0.667s0.3 0.667 0.667 0.667 0.667-0.3 0.667-0.667-0.3-0.667-0.667-0.667zM12 11.333c-0.367 0-0.667 0.3-0.667 0.667s0.3 0.667 0.667 0.667 0.667-0.3 0.667-0.667-0.3-0.667-0.667-0.667zM12 6c-0.367 0-0.667 0.3-0.667 0.667s0.3 0.667 0.667 0.667 0.667-0.3 0.667-0.667-0.3-0.667-0.667-0.667zM12 3.333c-0.367 0-0.667 0.3-0.667 0.667s0.3 0.667 0.667 0.667 0.667-0.3 0.667-0.667-0.3-0.667-0.667-0.667zM14 9c-0.183 0-0.333 0.15-0.333 0.333s0.15 0.333 0.333 0.333 0.333-0.15 0.333-0.333-0.15-0.333-0.333-0.333zM9.333 11.333c-0.367 0-0.667 0.3-0.667 0.667s0.3 0.667 0.667 0.667 0.667-0.3 0.667-0.667-0.3-0.667-0.667-0.667zM9.333 13.667c-0.183 0-0.333 0.15-0.333 0.333s0.15 0.333 0.333 0.333 0.333-0.15 0.333-0.333-0.15-0.333-0.333-0.333zM6.667 5.667c-0.553 0-1 0.447-1 1s0.447 1 1 1 1-0.447 1-1-0.447-1-1-1zM6.667 11.333c-0.367 0-0.667 0.3-0.667 0.667s0.3 0.667 0.667 0.667 0.667-0.3 0.667-0.667-0.3-0.667-0.667-0.667zM9.333 8.333c-0.553 0-1 0.447-1 1s0.447 1 1 1 1-0.447 1-1-0.447-1-1-1zM9.333 5.667c-0.553 0-1 0.447-1 1s0.447 1 1 1 1-0.447 1-1-0.447-1-1-1z" fill="#444444"></path>
</svg>
