<?xml version="1.0" encoding="utf-8"?>
<!-- Generated by IcoMoon.io -->
<!DOCTYPE svg PUBLIC "-//W3C//DTD SVG 1.1//EN" "http://www.w3.org/Graphics/SVG/1.1/DTD/svg11.dtd">
<svg version="1.1" xmlns="http://www.w3.org/2000/svg" xmlns:xlink="http://www.w3.org/1999/xlink" width="16" height="16" viewBox="0 0 16 16">
<path d="M9.333 4.667c0.367 0 0.667-0.3 0.667-0.667s-0.3-0.667-0.667-0.667-0.667 0.3-0.667 0.667 0.3 0.667 0.667 0.667zM9.2 7.653c0.043 0.007 0.087 0.013 0.133 0.013 0.553 0 1-0.447 1-1s-0.447-1-1-1-1 0.447-1 1c0 0.047 0.007 0.090 0.013 0.137 0.060 0.44 0.41 0.79 0.853 0.85zM9.333 2.333c0.183 0 0.333-0.15 0.333-0.333s-0.15-0.333-0.333-0.333-0.333 0.15-0.333 0.333 0.15 0.333 0.333 0.333zM6.667 2.333c0.183 0 0.333-0.15 0.333-0.333s-0.15-0.333-0.333-0.333-0.333 0.15-0.333 0.333 0.15 0.333 0.333 0.333zM14 7c0.183 0 0.333-0.15 0.333-0.333s-0.15-0.333-0.333-0.333-0.333 0.15-0.333 0.333 0.15 0.333 0.333 0.333zM6.667 4.667c0.367 0 0.667-0.3 0.667-0.667s-0.3-0.667-0.667-0.667-0.667 0.3-0.667 0.667 0.3 0.667 0.667 0.667zM12 10c0.367 0 0.667-0.3 0.667-0.667s-0.3-0.667-0.667-0.667-0.667 0.3-0.667 0.667 0.3 0.667 0.667 0.667zM12 7.333c0.367 0 0.667-0.3 0.667-0.667s-0.3-0.667-0.667-0.667-0.667 0.3-0.667 0.667 0.3 0.667 0.667 0.667zM12 4.667c0.367 0 0.667-0.3 0.667-0.667s-0.3-0.667-0.667-0.667-0.667 0.3-0.667 0.667 0.3 0.667 0.667 0.667zM9.333 13.667c-0.183 0-0.333 0.15-0.333 0.333s0.15 0.333 0.333 0.333 0.333-0.15 0.333-0.333-0.15-0.333-0.333-0.333zM1.667 3.517l2.523 2.523c-0.063-0.020-0.123-0.040-0.19-0.040-0.367 0-0.667 0.3-0.667 0.667s0.3 0.667 0.667 0.667 0.667-0.3 0.667-0.667c0-0.067-0.020-0.127-0.037-0.19l1.873 1.873c-0.477 0.080-0.837 0.487-0.837 0.983 0 0.553 0.447 1 1 1 0.497 0 0.903-0.36 0.983-0.833l1.873 1.873c-0.060-0.020-0.123-0.040-0.19-0.040-0.367 0-0.667 0.3-0.667 0.667s0.3 0.667 0.667 0.667 0.667-0.3 0.667-0.667c0-0.067-0.020-0.127-0.037-0.19l2.52 2.523 0.85-0.85-10.817-10.817-0.85 0.85zM6.667 11.333c-0.367 0-0.667 0.3-0.667 0.667s0.3 0.667 0.667 0.667 0.667-0.3 0.667-0.667-0.3-0.667-0.667-0.667zM14 9c-0.183 0-0.333 0.15-0.333 0.333s0.15 0.333 0.333 0.333 0.333-0.15 0.333-0.333-0.15-0.333-0.333-0.333zM4 8.667c-0.367 0-0.667 0.3-0.667 0.667s0.3 0.667 0.667 0.667 0.667-0.3 0.667-0.667-0.3-0.667-0.667-0.667zM2 6.333c-0.183 0-0.333 0.15-0.333 0.333s0.15 0.333 0.333 0.333 0.333-0.15 0.333-0.333-0.15-0.333-0.333-0.333zM6.667 13.667c-0.183 0-0.333 0.15-0.333 0.333s0.15 0.333 0.333 0.333 0.333-0.15 0.333-0.333-0.15-0.333-0.333-0.333zM4 11.333c-0.367 0-0.667 0.3-0.667 0.667s0.3 0.667 0.667 0.667 0.667-0.3 0.667-0.667-0.3-0.667-0.667-0.667zM2 9c-0.183 0-0.333 0.15-0.333 0.333s0.15 0.333 0.333 0.333 0.333-0.15 0.333-0.333-0.15-0.333-0.333-0.333z" fill="#444444"></path>
</svg>
