<?xml version="1.0" encoding="utf-8"?>
<!-- Generated by IcoMoon.io -->
<!DOCTYPE svg PUBLIC "-//W3C//DTD SVG 1.1//EN" "http://www.w3.org/Graphics/SVG/1.1/DTD/svg11.dtd">
<svg version="1.1" xmlns="http://www.w3.org/2000/svg" xmlns:xlink="http://www.w3.org/1999/xlink" width="16" height="16" viewBox="0 0 16 16">
<path d="M12.667 5.333l-2.667 2.667h2c0 2.21-1.79 4-4 4-0.677 0-1.31-0.17-1.87-0.463l-0.973 0.973c0.827 0.517 1.797 0.823 2.843 0.823 2.947 0 5.333-2.387 5.333-5.333h2l-2.667-2.667zM4 8c0-2.21 1.79-4 4-4 0.677 0 1.31 0.17 1.87 0.463l0.973-0.973c-0.827-0.517-1.797-0.823-2.843-0.823-2.947 0-5.333 2.387-5.333 5.333h-2l2.667 2.667 2.667-2.667h-2z" fill="#444444"></path>
</svg>
