<?xml version="1.0" encoding="utf-8"?>
<!-- Generated by IcoMoon.io -->
<!DOCTYPE svg PUBLIC "-//W3C//DTD SVG 1.1//EN" "http://www.w3.org/Graphics/SVG/1.1/DTD/svg11.dtd">
<svg version="1.1" xmlns="http://www.w3.org/2000/svg" xmlns:xlink="http://www.w3.org/1999/xlink" width="16" height="16" viewBox="0 0 16 16">
<path d="M4.417 7.197c0.96 1.887 2.503 3.43 4.393 4.39l1.467-1.47c0.183-0.183 0.447-0.237 0.677-0.163 0.747 0.247 1.55 0.38 2.38 0.38 0.37 0 0.667 0.297 0.667 0.667v2.333c0 0.37-0.297 0.667-0.667 0.667-6.26 0-11.333-5.073-11.333-11.333 0-0.37 0.3-0.667 0.667-0.667h2.333c0.37 0 0.667 0.297 0.667 0.667 0 0.83 0.133 1.633 0.38 2.38 0.073 0.23 0.020 0.493-0.163 0.677l-1.467 1.473z" fill="#444444"></path>
</svg>
