<?xml version="1.0" encoding="utf-8"?>
<!-- Generated by IcoMoon.io -->
<!DOCTYPE svg PUBLIC "-//W3C//DTD SVG 1.1//EN" "http://www.w3.org/Graphics/SVG/1.1/DTD/svg11.dtd">
<svg version="1.1" xmlns="http://www.w3.org/2000/svg" xmlns:xlink="http://www.w3.org/1999/xlink" width="16" height="16" viewBox="0 0 16 16">
<path d="M6.667 13.333h-3.333v1.333h3.333v1.333l2-2-2-2v1.333zM9.333 13.333v1.333h3.333v-1.333h-3.333zM8 5.333c0.737 0 1.333-0.597 1.333-1.333s-0.597-1.333-1.333-1.333-1.33 0.597-1.33 1.333c0.003 0.737 0.593 1.333 1.33 1.333zM11.333 0h-6.667c-0.737 0-1.333 0.597-1.333 1.333v9.333c0 0.737 0.597 1.333 1.333 1.333h6.667c0.737 0 1.333-0.597 1.333-1.333v-9.333c0-0.737-0.597-1.333-1.333-1.333zM4.667 1.333h6.667v7c0-1.11-2.223-1.667-3.333-1.667s-3.333 0.557-3.333 1.667v-7z" fill="#444444"></path>
</svg>
