<?xml version="1.0" encoding="utf-8"?>
<!-- Generated by IcoMoon.io -->
<!DOCTYPE svg PUBLIC "-//W3C//DTD SVG 1.1//EN" "http://www.w3.org/Graphics/SVG/1.1/DTD/svg11.dtd">
<svg version="1.1" xmlns="http://www.w3.org/2000/svg" xmlns:xlink="http://www.w3.org/1999/xlink" width="16" height="16" viewBox="0 0 16 16">
<path d="M10.667 5.333h-1.333v2h-2v1.333h2v2h1.333v-2h2v-1.333h-2zM1.333 8c0-1.86 1.097-3.463 2.673-4.213v-1.437c-2.33 0.82-4.007 3.040-4.007 5.65s1.677 4.83 4.007 5.65v-1.437c-1.577-0.75-2.673-2.353-2.673-4.213zM10 2c-3.31 0-6 2.69-6 6s2.69 6 6 6 6-2.69 6-6-2.69-6-6-6zM10 12.667c-2.573 0-4.667-2.093-4.667-4.667s2.093-4.667 4.667-4.667 4.667 2.093 4.667 4.667-2.093 4.667-4.667 4.667z" fill="#444444"></path>
</svg>
