<?xml version="1.0" encoding="utf-8"?>
<!-- Generated by IcoMoon.io -->
<!DOCTYPE svg PUBLIC "-//W3C//DTD SVG 1.1//EN" "http://www.w3.org/Graphics/SVG/1.1/DTD/svg11.dtd">
<svg version="1.1" xmlns="http://www.w3.org/2000/svg" xmlns:xlink="http://www.w3.org/1999/xlink" width="16" height="16" viewBox="0 0 16 16">
<path d="M13.333 0h-10.667v1.333h10.667v-1.333zM2.667 16h10.667v-1.333h-10.667v1.333zM13.333 2.667h-10.667c-0.737 0-1.333 0.597-1.333 1.333v8c0 0.737 0.597 1.333 1.333 1.333h10.667c0.737 0 1.333-0.597 1.333-1.333v-8c0-0.737-0.597-1.333-1.333-1.333zM8 4.5c0.827 0 1.5 0.673 1.5 1.5 0 0.83-0.673 1.5-1.5 1.5s-1.5-0.67-1.5-1.5c0-0.827 0.673-1.5 1.5-1.5zM11.333 11.333h-6.667v-1c0-1.11 2.223-1.667 3.333-1.667s3.333 0.557 3.333 1.667v1z" fill="#444444"></path>
</svg>
