<?xml version="1.0" encoding="utf-8"?>
<!-- Generated by IcoMoon.io -->
<!DOCTYPE svg PUBLIC "-//W3C//DTD SVG 1.1//EN" "http://www.w3.org/Graphics/SVG/1.1/DTD/svg11.dtd">
<svg version="1.1" xmlns="http://www.w3.org/2000/svg" xmlns:xlink="http://www.w3.org/1999/xlink" width="16" height="16" viewBox="0 0 16 16">
<path d="M7.333 4c0.92 0 1.753 0.373 2.357 0.977l-1.69 1.69h4v-4l-1.367 1.367c-0.843-0.843-2.010-1.367-3.3-1.367-2.35 0-4.29 1.74-4.613 4h1.347c0.31-1.52 1.653-2.667 3.267-2.667zM11.093 10.090c0.443-0.603 0.743-1.317 0.853-2.090h-1.347c-0.31 1.52-1.653 2.667-3.267 2.667-0.92 0-1.753-0.373-2.357-0.977l1.69-1.69h-4v4l1.367-1.367c0.843 0.843 2.010 1.367 3.3 1.367 1.033 0 1.987-0.34 2.76-0.91l3.24 3.237 0.993-0.993-3.233-3.243z" fill="#444444"></path>
</svg>
