<?xml version="1.0" encoding="utf-8"?>
<!-- Generated by IcoMoon.io -->
<!DOCTYPE svg PUBLIC "-//W3C//DTD SVG 1.1//EN" "http://www.w3.org/Graphics/SVG/1.1/DTD/svg11.dtd">
<svg version="1.1" xmlns="http://www.w3.org/2000/svg" xmlns:xlink="http://www.w3.org/1999/xlink" width="16" height="16" viewBox="0 0 16 16">
<path d="M4.667 7.333h-4v1.333h4v-1.333zM6.113 5.17l-1.413-1.413-0.943 0.943 1.413 1.413 0.943-0.943zM8.667 0.667h-1.333v4h1.333v-4zM12.243 4.7l-0.943-0.943-1.413 1.413 0.943 0.943 1.413-1.413zM11.333 7.333v1.333h4v-1.333h-4zM8 6c-1.103 0-2 0.897-2 2s0.897 2 2 2 2-0.897 2-2-0.897-2-2-2zM9.887 10.83l1.413 1.413 0.943-0.943-1.413-1.413-0.943 0.943zM3.757 11.3l0.943 0.943 1.413-1.413-0.943-0.943-1.413 1.413zM7.333 15.333h1.333v-4h-1.333v4z" fill="#444444"></path>
</svg>
