<?xml version="1.0" encoding="utf-8"?>
<!-- Generated by IcoMoon.io -->
<!DOCTYPE svg PUBLIC "-//W3C//DTD SVG 1.1//EN" "http://www.w3.org/Graphics/SVG/1.1/DTD/svg11.dtd">
<svg version="1.1" xmlns="http://www.w3.org/2000/svg" xmlns:xlink="http://www.w3.org/1999/xlink" width="16" height="16" viewBox="0 0 16 16">
<path d="M13.333 4h-5.333l-1.333-1.333h-4c-0.737 0-1.327 0.597-1.327 1.333l-0.007 8c0 0.737 0.597 1.333 1.333 1.333h10.667c0.737 0 1.333-0.597 1.333-1.333v-6.667c0-0.737-0.597-1.333-1.333-1.333zM10 6c0.737 0 1.333 0.597 1.333 1.333s-0.597 1.333-1.333 1.333-1.333-0.597-1.333-1.333 0.597-1.333 1.333-1.333zM12.667 11.333h-5.333v-0.667c0-0.89 1.777-1.333 2.667-1.333s2.667 0.443 2.667 1.333v0.667z" fill="#444444"></path>
</svg>
