<?xml version="1.0" encoding="utf-8"?>
<!-- Generated by IcoMoon.io -->
<!DOCTYPE svg PUBLIC "-//W3C//DTD SVG 1.1//EN" "http://www.w3.org/Graphics/SVG/1.1/DTD/svg11.dtd">
<svg version="1.1" xmlns="http://www.w3.org/2000/svg" xmlns:xlink="http://www.w3.org/1999/xlink" width="16" height="16" viewBox="0 0 16 16">
<path d="M10.4 7.193c0.643-0.45 1.1-1.177 1.1-1.86 0-1.503-1.163-2.667-2.667-2.667h-4.167v9.333h4.693c1.397 0 2.473-1.133 2.473-2.527 0-1.013-0.577-1.877-1.433-2.28zM6.667 4.333h2c0.553 0 1 0.447 1 1s-0.447 1-1 1h-2v-2zM9 10.333h-2.333v-2h2.333c0.553 0 1 0.447 1 1s-0.447 1-1 1z" fill="#444444"></path>
</svg>
