<?xml version="1.0" encoding="utf-8"?>
<!-- Generated by IcoMoon.io -->
<!DOCTYPE svg PUBLIC "-//W3C//DTD SVG 1.1//EN" "http://www.w3.org/Graphics/SVG/1.1/DTD/svg11.dtd">
<svg version="1.1" xmlns="http://www.w3.org/2000/svg" xmlns:xlink="http://www.w3.org/1999/xlink" width="16" height="16" viewBox="0 0 16 16">
<path d="M2.667 7c-0.553 0-1 0.447-1 1s0.447 1 1 1 1-0.447 1-1-0.447-1-1-1zM2.667 3c-0.553 0-1 0.447-1 1s0.447 1 1 1 1-0.447 1-1-0.447-1-1-1zM2.667 11.11c-0.49 0-0.89 0.397-0.89 0.89s0.4 0.89 0.89 0.89 0.89-0.397 0.89-0.89-0.4-0.89-0.89-0.89zM4.667 12.667h9.333v-1.333h-9.333v1.333zM4.667 8.667h9.333v-1.333h-9.333v1.333zM4.667 3.333v1.333h9.333v-1.333h-9.333z" fill="#444444"></path>
</svg>
