<?xml version="1.0" encoding="utf-8"?>
<!-- Generated by IcoMoon.io -->
<!DOCTYPE svg PUBLIC "-//W3C//DTD SVG 1.1//EN" "http://www.w3.org/Graphics/SVG/1.1/DTD/svg11.dtd">
<svg version="1.1" xmlns="http://www.w3.org/2000/svg" xmlns:xlink="http://www.w3.org/1999/xlink" width="16" height="16" viewBox="0 0 16 16">
<path d="M3.063 4.59c0.467-0.477 0.933-0.903 1.143-0.817 0.33 0.137-0.007 0.693-0.2 1.017-0.167 0.28-1.907 2.59-1.907 4.207 0 0.853 0.317 1.56 0.897 1.987 0.5 0.37 1.157 0.483 1.76 0.307 0.713-0.21 1.3-0.93 2.040-1.843 0.807-0.993 1.887-2.293 2.72-2.293 1.087 0 1.1 0.673 1.173 1.197-2.527 0.433-3.59 2.45-3.59 3.587s0.96 2.063 2.137 2.063c1.083 0 2.863-0.887 3.127-4.067h1.637v-1.667h-1.647c-0.1-1.1-0.727-2.797-2.687-2.797-1.5 0-2.79 1.273-3.29 1.897-0.387 0.483-1.37 1.65-1.523 1.817-0.17 0.197-0.45 0.56-0.743 0.56-0.297 0-0.477-0.557-0.243-1.283 0.233-0.73 0.933-1.907 1.233-2.343 0.523-0.76 0.863-1.283 0.863-2.187 0-1.467-1.093-1.927-1.673-1.927-0.88 0-1.647 0.667-1.817 0.837-0.237 0.24-0.437 0.437-0.583 0.617l1.173 1.133zM9.257 12.37c-0.207 0-0.49-0.173-0.49-0.483 0-0.4 0.483-1.467 1.917-1.843-0.207 1.797-0.96 2.327-1.427 2.327z" fill="#444444"></path>
</svg>
