<?xml version="1.0" encoding="utf-8"?>
<!-- Generated by IcoMoon.io -->
<!DOCTYPE svg PUBLIC "-//W3C//DTD SVG 1.1//EN" "http://www.w3.org/Graphics/SVG/1.1/DTD/svg11.dtd">
<svg version="1.1" xmlns="http://www.w3.org/2000/svg" xmlns:xlink="http://www.w3.org/1999/xlink" width="16" height="16" viewBox="0 0 16 16">
<path d="M8 12.998c-0.299 0-0.598-0.155-0.909-0.465-0.122-0.122-0.122-0.32 0-0.442s0.32-0.122 0.442 0c0.191 0.191 0.343 0.284 0.466 0.284s0.276-0.093 0.466-0.284c0.122-0.122 0.32-0.122 0.442 0s0.122 0.32 0 0.442c-0.31 0.31-0.609 0.465-0.909 0.465zM0 8.211c0 0.78 0.067 1.486 0.2 2.12s0.321 1.184 0.563 1.649c0.242 0.466 0.547 0.873 0.917 1.224s0.771 0.639 1.204 0.867c0.433 0.227 0.929 0.411 1.487 0.551s1.126 0.238 1.704 0.294 1.214 0.084 1.908 0.084c0.694 0 1.332-0.028 1.912-0.084s1.15-0.154 1.708-0.294c0.558-0.14 1.056-0.324 1.492-0.551s0.84-0.516 1.213-0.867c0.372-0.351 0.679-0.758 0.921-1.224s0.431-1.015 0.567-1.649c0.136-0.634 0.204-1.341 0.204-2.12 0-1.396-0.433-2.599-1.3-3.609 0.050-0.135 0.093-0.289 0.129-0.463s0.071-0.419 0.104-0.736c0.034-0.317 0.021-0.683-0.037-1.098s-0.168-0.839-0.329-1.27l-0.125-0.025c-0.083-0.017-0.22-0.011-0.408 0.017s-0.41 0.079-0.662 0.151c-0.253 0.073-0.579 0.217-0.979 0.433s-0.822 0.489-1.267 0.82c-0.755-0.23-1.797-0.47-3.125-0.47s-2.372 0.24-3.133 0.47c-0.444-0.331-0.868-0.603-1.271-0.816s-0.725-0.359-0.967-0.438c-0.242-0.079-0.465-0.129-0.671-0.151s-0.337-0.029-0.396-0.021c-0.058 0.008-0.101 0.018-0.129 0.030-0.161 0.432-0.272 0.855-0.333 1.271s-0.075 0.78-0.042 1.094c0.033 0.314 0.069 0.561 0.108 0.74s0.083 0.334 0.133 0.463c-0.867 1.004-1.3 2.207-1.3 3.609zM2.134 9.991c0-0.906 0.333-1.729 1-2.466 0.2-0.225 0.432-0.396 0.696-0.511s0.564-0.181 0.9-0.197 0.657-0.013 0.963 0.010c0.306 0.022 0.683 0.051 1.133 0.089s0.839 0.056 1.167 0.056c0.328 0 0.717-0.019 1.167-0.056s0.828-0.067 1.133-0.089c0.306-0.022 0.627-0.025 0.963-0.010s0.637 0.081 0.904 0.197c0.267 0.115 0.5 0.286 0.7 0.511 0.666 0.738 1 1.56 1 2.466 0 0.531-0.056 1.005-0.167 1.421s-0.252 0.764-0.421 1.046c-0.169 0.281-0.407 0.519-0.713 0.713s-0.601 0.344-0.887 0.45c-0.286 0.106-0.655 0.189-1.108 0.248s-0.858 0.095-1.217 0.108c-0.358 0.012-0.81 0.019-1.354 0.019s-0.995-0.006-1.35-0.019c-0.356-0.012-0.76-0.049-1.213-0.108s-0.822-0.142-1.108-0.248c-0.286-0.106-0.582-0.256-0.888-0.45s-0.543-0.431-0.712-0.713c-0.17-0.281-0.31-0.63-0.421-1.046s-0.167-0.889-0.167-1.421zM4 9.5c0-0.829 0.448-1.5 1-1.5s1 0.671 1 1.5c0 0.829-0.448 1.5-1 1.5s-1-0.671-1-1.5zM10 9.5c0-0.829 0.448-1.5 1-1.5s1 0.671 1 1.5c0 0.829-0.448 1.5-1 1.5s-1-0.671-1-1.5z" fill="#444444"></path>
</svg>
