<?xml version="1.0" encoding="utf-8"?>
<!-- Generated by IcoMoon.io -->
<!DOCTYPE svg PUBLIC "-//W3C//DTD SVG 1.1//EN" "http://www.w3.org/Graphics/SVG/1.1/DTD/svg11.dtd">
<svg version="1.1" xmlns="http://www.w3.org/2000/svg" xmlns:xlink="http://www.w3.org/1999/xlink" width="16" height="16" viewBox="0 0 16 16">
<path d="M8 5.333c-1.473 0-2.667 1.193-2.667 2.667s1.193 2.667 2.667 2.667 2.667-1.193 2.667-2.667-1.193-2.667-2.667-2.667zM13.96 7.333c-0.307-2.78-2.513-4.987-5.293-5.293v-1.373h-1.333v1.373c-2.78 0.307-4.987 2.513-5.293 5.293h-1.373v1.333h1.373c0.307 2.78 2.513 4.987 5.293 5.293v1.373h1.333v-1.373c2.78-0.307 4.987-2.513 5.293-5.293h1.373v-1.333h-1.373zM8 12.667c-2.577 0-4.667-2.090-4.667-4.667s2.090-4.667 4.667-4.667 4.667 2.090 4.667 4.667-2.090 4.667-4.667 4.667z" fill="#444444"></path>
</svg>
