<?xml version="1.0" encoding="utf-8"?>
<!-- Generated by IcoMoon.io -->
<!DOCTYPE svg PUBLIC "-//W3C//DTD SVG 1.1//EN" "http://www.w3.org/Graphics/SVG/1.1/DTD/svg11.dtd">
<svg version="1.1" xmlns="http://www.w3.org/2000/svg" xmlns:xlink="http://www.w3.org/1999/xlink" width="16" height="16" viewBox="0 0 16 16">
<path d="M5.333 6.667h-2v-2h-1.333v2h-2v1.333h2v2h1.333v-2h2v-1.333zM12 7.333c1.103 0 1.993-0.897 1.993-2s-0.89-2-1.993-2c-0.213 0-0.417 0.033-0.61 0.097 0.377 0.54 0.603 1.197 0.603 1.903s-0.227 1.363-0.603 1.903c0.193 0.063 0.397 0.097 0.61 0.097zM8.667 7.333c1.103 0 1.993-0.897 1.993-2s-0.89-2-1.993-2c-1.103 0-2 0.897-2 2s0.897 2 2 2zM13.080 8.773c0.553 0.483 0.92 1.107 0.92 1.893v1.333h2v-1.333c0-1.027-1.583-1.657-2.92-1.893zM8.667 8.667c-1.333 0-4 0.667-4 2v1.333h8v-1.333c0-1.333-2.667-2-4-2z" fill="#444444"></path>
</svg>
