<?xml version="1.0" encoding="utf-8"?>
<!-- Generated by IcoMoon.io -->
<!DOCTYPE svg PUBLIC "-//W3C//DTD SVG 1.1//EN" "http://www.w3.org/Graphics/SVG/1.1/DTD/svg11.dtd">
<svg version="1.1" xmlns="http://www.w3.org/2000/svg" xmlns:xlink="http://www.w3.org/1999/xlink" width="16" height="16" viewBox="0 0 16 16">
<path d="M11.333 13.333c-0.19 0-0.377-0.040-0.51-0.1-0.47-0.25-0.81-0.59-1.14-1.59-0.343-1.037-0.98-1.527-1.597-2.003-0.527-0.407-1.073-0.827-1.543-1.683-0.35-0.64-0.543-1.337-0.543-1.957 0-1.87 1.463-3.333 3.333-3.333s3.333 1.463 3.333 3.333h1.333c0-2.617-2.050-4.667-4.667-4.667s-4.667 2.050-4.667 4.667c0 0.843 0.253 1.767 0.71 2.6 0.607 1.103 1.323 1.653 1.9 2.1 0.54 0.417 0.93 0.717 1.143 1.363 0.4 1.21 0.917 1.893 1.817 2.367 0.347 0.157 0.713 0.237 1.097 0.237 1.47 0 2.667-1.197 2.667-2.667h-1.333c0 0.737-0.597 1.333-1.333 1.333zM5.090 1.757l-0.943-0.943c-1.327 1.327-2.147 3.16-2.147 5.187s0.82 3.86 2.147 5.187l0.943-0.943c-1.087-1.087-1.757-2.587-1.757-4.243s0.67-3.157 1.757-4.243zM7.667 6c0 0.92 0.747 1.667 1.667 1.667s1.667-0.747 1.667-1.667-0.747-1.667-1.667-1.667-1.667 0.747-1.667 1.667z" fill="#444444"></path>
</svg>
