<?xml version="1.0" encoding="utf-8"?>
<!-- Generated by IcoMoon.io -->
<!DOCTYPE svg PUBLIC "-//W3C//DTD SVG 1.1//EN" "http://www.w3.org/Graphics/SVG/1.1/DTD/svg11.dtd">
<svg version="1.1" xmlns="http://www.w3.org/2000/svg" xmlns:xlink="http://www.w3.org/1999/xlink" width="16" height="16" viewBox="0 0 16 16">
<path d="M8.663 2c-3.317 0-5.997 2.687-5.997 6h-2l2.597 2.597 0.047 0.097 2.69-2.693h-2c0-2.577 2.090-4.667 4.667-4.667s4.667 2.090 4.667 4.667-2.090 4.667-4.667 4.667c-1.29 0-2.453-0.527-3.297-1.37l-0.943 0.943c1.083 1.087 2.58 1.76 4.237 1.76 3.317 0 6.003-2.687 6.003-6s-2.687-6-6.003-6zM8 5.333v3.333l2.853 1.693 0.48-0.81-2.333-1.383v-2.833h-1z" fill="#444444"></path>
</svg>
