<?xml version="1.0" encoding="utf-8"?>
<!-- Generated by IcoMoon.io -->
<!DOCTYPE svg PUBLIC "-//W3C//DTD SVG 1.1//EN" "http://www.w3.org/Graphics/SVG/1.1/DTD/svg11.dtd">
<svg version="1.1" xmlns="http://www.w3.org/2000/svg" xmlns:xlink="http://www.w3.org/1999/xlink" width="16" height="16" viewBox="0 0 16 16">
<path d="M11.39 8c2.152-1.364 3.61-3.987 3.61-7 0-0.339-0.019-0.672-0.054-1h-13.891c-0.036 0.328-0.054 0.661-0.054 1 0 3.013 1.457 5.636 3.609 7-2.152 1.364-3.61 3.988-3.61 7 0 0.339 0.018 0.672 0.054 1h13.891c0.036-0.328 0.054-0.661 0.054-1 0-3.012-1.457-5.636-3.61-7zM2.5 15c0-2.921 1.252-5.397 3.5-6.214v-1.572c-2.248-0.817-3.5-3.294-3.5-6.214v0h11c0 2.921-1.252 5.397-3.5 6.214v1.572c2.248 0.817 3.5 3.294 3.5 6.214h-11zM9.682 10.463c-1.12-0.635-1.181-1.459-1.182-1.959v-1.003c0-0.5 0.059-1.327 1.184-1.963 0.602-0.349 1.122-0.88 1.517-1.537h-6.4c0.395 0.657 0.916 1.188 1.518 1.538 1.119 0.635 1.181 1.459 1.182 1.959v1.004c0 0.5-0.059 1.327-1.184 1.963-1.135 0.659-1.98 1.964-2.236 3.537h7.838c-0.256-1.573-1.102-2.879-2.238-3.537z" fill="#444444"></path>
</svg>
