<?xml version="1.0" encoding="utf-8"?>
<!-- Generated by IcoMoon.io -->
<!DOCTYPE svg PUBLIC "-//W3C//DTD SVG 1.1//EN" "http://www.w3.org/Graphics/SVG/1.1/DTD/svg11.dtd">
<svg version="1.1" xmlns="http://www.w3.org/2000/svg" xmlns:xlink="http://www.w3.org/1999/xlink" width="16" height="16" viewBox="0 0 16 16">
<path d="M10 7.333v-4l-2-2-2 2v1.333h-4v9.333h12v-6.667h-4zM4.667 12.667h-1.333v-1.333h1.333v1.333zM4.667 10h-1.333v-1.333h1.333v1.333zM4.667 7.333h-1.333v-1.333h1.333v1.333zM8.667 12.667h-1.333v-1.333h1.333v1.333zM8.667 10h-1.333v-1.333h1.333v1.333zM8.667 7.333h-1.333v-1.333h1.333v1.333zM8.667 4.667h-1.333v-1.333h1.333v1.333zM12.667 12.667h-1.333v-1.333h1.333v1.333zM12.667 10h-1.333v-1.333h1.333v1.333z" fill="#444444"></path>
</svg>
