<?xml version="1.0" encoding="utf-8"?>
<!-- Generated by IcoMoon.io -->
<!DOCTYPE svg PUBLIC "-//W3C//DTD SVG 1.1//EN" "http://www.w3.org/Graphics/SVG/1.1/DTD/svg11.dtd">
<svg version="1.1" xmlns="http://www.w3.org/2000/svg" xmlns:xlink="http://www.w3.org/1999/xlink" width="16" height="16" viewBox="0 0 16 16">
<path d="M8 4.333c0.92 0 1.667 0.747 1.667 1.667 0 0.49-0.217 0.927-0.553 1.233l2.42 2.42c0.65-1.24 1.133-2.53 1.133-3.653 0-2.577-2.090-4.667-4.667-4.667-1.32 0-2.51 0.55-3.357 1.43l2.123 2.123c0.303-0.337 0.743-0.553 1.233-0.553zM10.917 10.733l-8.737-8.733-0.847 0.85 2.12 2.12c-0.077 0.33-0.12 0.673-0.12 1.030 0 3.5 4.667 8.667 4.667 8.667s1.113-1.233 2.25-2.9l2.233 2.233 0.85-0.85-2.417-2.417z" fill="#444444"></path>
</svg>
