<?xml version="1.0" encoding="utf-8"?>
<!-- Generated by IcoMoon.io -->
<!DOCTYPE svg PUBLIC "-//W3C//DTD SVG 1.1//EN" "http://www.w3.org/Graphics/SVG/1.1/DTD/svg11.dtd">
<svg version="1.1" xmlns="http://www.w3.org/2000/svg" xmlns:xlink="http://www.w3.org/1999/xlink" width="16" height="16" viewBox="0 0 16 16">
<path d="M4.387 2.387l-0.953-0.953c-1.597 1.217-2.65 3.097-2.75 5.233h1.333c0.103-1.767 1.013-3.313 2.37-4.28zM13.317 6.667h1.333c-0.1-2.137-1.153-4.017-2.75-5.233l-0.95 0.95c1.353 0.97 2.263 2.517 2.367 4.283zM12 7c0-2.050-1.423-3.76-3.333-4.213v-0.453c0-0.553-0.447-1-1-1s-1 0.447-1 1v0.453c-1.91 0.453-3.333 2.163-3.333 4.213v3.667l-1.333 1.333v0.667h11.333v-0.667l-1.333-1.333v-3.667zM7.667 14.667c0.093 0 0.183-0.010 0.27-0.027 0.433-0.090 0.79-0.39 0.96-0.787 0.067-0.16 0.103-0.333 0.103-0.52h-2.667c0 0.737 0.597 1.333 1.333 1.333z" fill="#444444"></path>
</svg>
