<?xml version="1.0" encoding="utf-8"?>
<!-- Generated by IcoMoon.io -->
<!DOCTYPE svg PUBLIC "-//W3C//DTD SVG 1.1//EN" "http://www.w3.org/Graphics/SVG/1.1/DTD/svg11.dtd">
<svg version="1.1" xmlns="http://www.w3.org/2000/svg" xmlns:xlink="http://www.w3.org/1999/xlink" width="16" height="16" viewBox="0 0 16 16">
<path d="M2.667 2.667h4.667v-1.333h-4.667c-0.737 0-1.333 0.597-1.333 1.333v4.667h1.333v-4.667zM6.667 8.667l-2.667 3.333h8l-2-2.667-1.353 1.807-1.98-2.473zM11.333 5.667c0-0.553-0.447-1-1-1s-1 0.447-1 1 0.447 1 1 1 1-0.447 1-1zM13.333 1.333h-4.667v1.333h4.667v4.667h1.333v-4.667c0-0.737-0.597-1.333-1.333-1.333zM13.333 13.333h-4.667v1.333h4.667c0.737 0 1.333-0.597 1.333-1.333v-4.667h-1.333v4.667zM2.667 8.667h-1.333v4.667c0 0.737 0.597 1.333 1.333 1.333h4.667v-1.333h-4.667v-4.667z" fill="#444444"></path>
</svg>
