<?xml version="1.0" encoding="utf-8"?>
<!-- Generated by IcoMoon.io -->
<!DOCTYPE svg PUBLIC "-//W3C//DTD SVG 1.1//EN" "http://www.w3.org/Graphics/SVG/1.1/DTD/svg11.dtd">
<svg version="1.1" xmlns="http://www.w3.org/2000/svg" xmlns:xlink="http://www.w3.org/1999/xlink" width="16" height="16" viewBox="0 0 16 16">
<path d="M11 8.667c-0.803 0-2.050 0.223-3 0.67-0.95-0.447-2.197-0.67-3-0.67-1.443 0-4.333 0.723-4.333 2.167v1.833h14.667v-1.833c0-1.443-2.89-2.167-4.333-2.167zM8.333 11.667h-6.667v-0.833c0-0.357 1.707-1.167 3.333-1.167s3.333 0.81 3.333 1.167v0.833zM14.333 11.667h-5v-0.833c0-0.303-0.133-0.573-0.347-0.813 0.59-0.2 1.31-0.353 2.013-0.353 1.627 0 3.333 0.81 3.333 1.167v0.833zM5 8c1.29 0 2.333-1.047 2.333-2.333s-1.043-2.333-2.333-2.333c-1.287 0-2.333 1.047-2.333 2.333s1.047 2.333 2.333 2.333zM5 4.333c0.737 0 1.333 0.597 1.333 1.333s-0.597 1.333-1.333 1.333-1.333-0.597-1.333-1.333 0.597-1.333 1.333-1.333zM11 8c1.29 0 2.333-1.047 2.333-2.333s-1.043-2.333-2.333-2.333c-1.287 0-2.333 1.047-2.333 2.333s1.047 2.333 2.333 2.333zM11 4.333c0.737 0 1.333 0.597 1.333 1.333s-0.597 1.333-1.333 1.333-1.333-0.597-1.333-1.333 0.597-1.333 1.333-1.333z" fill="#444444"></path>
</svg>
