<?xml version="1.0" encoding="utf-8"?>
<!-- Generated by IcoMoon.io -->
<!DOCTYPE svg PUBLIC "-//W3C//DTD SVG 1.1//EN" "http://www.w3.org/Graphics/SVG/1.1/DTD/svg11.dtd">
<svg version="1.1" xmlns="http://www.w3.org/2000/svg" xmlns:xlink="http://www.w3.org/1999/xlink" width="16" height="16" viewBox="0 0 16 16">
<path d="M8 3.933c0.773 0 1.4 0.627 1.4 1.4s-0.627 1.4-1.4 1.4-1.4-0.627-1.4-1.4 0.627-1.4 1.4-1.4zM8 9.933c1.983 0 4.067 0.97 4.067 1.4v0.733h-8.133v-0.733c0-0.43 2.083-1.4 4.067-1.4zM8 2.667c-1.473 0-2.667 1.193-2.667 2.667 0 1.47 1.193 2.667 2.667 2.667s2.667-1.197 2.667-2.667c0-1.473-1.193-2.667-2.667-2.667zM8 8.667c-1.777 0-5.333 0.89-5.333 2.667v2h10.667v-2c0-1.777-3.557-2.667-5.333-2.667z" fill="#444444"></path>
</svg>
