<?xml version="1.0" encoding="utf-8"?>
<!-- Generated by IcoMoon.io -->
<!DOCTYPE svg PUBLIC "-//W3C//DTD SVG 1.1//EN" "http://www.w3.org/Graphics/SVG/1.1/DTD/svg11.dtd">
<svg version="1.1" xmlns="http://www.w3.org/2000/svg" xmlns:xlink="http://www.w3.org/1999/xlink" width="75" height="16" viewBox="0 0 75 16">
<path d="M7.5 8.65c0 1.325-0.325 2.35-0.95 3.050s-1.6 1.075-2.9 1.075c-0.275 0-0.6-0.025-0.975-0.050s-0.75-0.075-1.1-0.125v3.050c0 0.1-0.025 0.175-0.1 0.225s-0.15 0.1-0.25 0.1h-0.9c-0.1 0-0.175-0.025-0.225-0.1-0.075-0.075-0.1-0.15-0.1-0.225v-11.6c0-0.1 0.025-0.2 0.050-0.25 0.050-0.050 0.15-0.1 0.3-0.125 0.475-0.1 1-0.2 1.575-0.275s1.15-0.1 1.675-0.1c0.65 0 1.225 0.1 1.725 0.3s0.875 0.475 1.2 0.85c0.325 0.375 0.55 0.8 0.7 1.325 0.15 0.5 0.225 1.075 0.225 1.7v1.175zM5.95 7.45c0-0.45-0.050-0.825-0.125-1.2-0.075-0.35-0.2-0.675-0.375-0.925s-0.425-0.45-0.7-0.6c-0.3-0.15-0.675-0.2-1.1-0.2-0.375 0-0.75 0.025-1.125 0.050s-0.7 0.075-0.95 0.125v6.675c0.3 0.050 0.65 0.1 1.050 0.125s0.75 0.050 1.025 0.050c0.425 0 0.8-0.075 1.1-0.2s0.525-0.325 0.7-0.575c0.175-0.25 0.3-0.55 0.375-0.9s0.125-0.775 0.125-1.225v-1.2z" fill="#444444"></path>
<path d="M16.175 12.325c0 0.1-0.025 0.175-0.1 0.225-0.075 0.075-0.15 0.1-0.25 0.1h-0.85c-0.1 0-0.175-0.025-0.25-0.1s-0.1-0.15-0.1-0.225v-5.55c0-0.85-0.175-1.425-0.525-1.725-0.35-0.325-0.8-0.475-1.375-0.475-0.15 0-0.3 0-0.5 0.025s-0.4 0.050-0.625 0.075-0.45 0.1-0.675 0.15c-0.225 0.050-0.45 0.125-0.625 0.2v7.275c0 0.1-0.025 0.175-0.1 0.225-0.075 0.075-0.15 0.1-0.25 0.1h-0.875c-0.1 0-0.175-0.025-0.25-0.1s-0.1-0.15-0.1-0.225v-12c0-0.1 0.025-0.175 0.1-0.225 0.075-0.075 0.15-0.1 0.25-0.1h0.875c0.1 0 0.175 0.025 0.25 0.1 0.050 0.1 0.075 0.175 0.075 0.25v3.475c0.425-0.175 0.9-0.3 1.4-0.4 0.5-0.075 0.95-0.125 1.325-0.125 0.475 0 0.9 0.075 1.3 0.2s0.725 0.35 1 0.625c0.275 0.275 0.5 0.65 0.65 1.075 0.15 0.45 0.225 0.975 0.225 1.6v5.55z" fill="#444444"></path>
<path d="M25.2 8.65c0 1.325-0.325 2.35-0.95 3.050-0.65 0.725-1.6 1.075-2.9 1.075-0.275 0-0.6-0.025-0.975-0.050s-0.75-0.075-1.1-0.125v3.050c0 0.1-0.025 0.175-0.1 0.225s-0.15 0.1-0.25 0.1h-0.9c-0.1 0-0.175-0.025-0.225-0.1-0.050-0.050-0.1-0.125-0.1-0.225v-11.6c0-0.1 0.025-0.2 0.050-0.25 0.050-0.050 0.15-0.1 0.3-0.125 0.475-0.1 1-0.2 1.575-0.275s1.15-0.1 1.675-0.1c0.65 0 1.225 0.1 1.725 0.3 0.475 0.2 0.875 0.475 1.2 0.85s0.55 0.8 0.7 1.325c0.15 0.5 0.225 1.075 0.225 1.7v1.175zM23.65 7.45c0-0.45-0.050-0.825-0.125-1.2-0.075-0.35-0.2-0.675-0.375-0.925s-0.425-0.45-0.7-0.6c-0.3-0.15-0.675-0.2-1.1-0.2-0.375 0-0.75 0.025-1.125 0.050s-0.7 0.075-0.95 0.125v6.675c0.3 0.050 0.65 0.1 1.050 0.125s0.75 0.050 1.025 0.050c0.45 0 0.8-0.075 1.1-0.2s0.525-0.325 0.7-0.575c0.175-0.25 0.3-0.55 0.375-0.9s0.125-0.775 0.125-1.225v-1.2z" fill="#444444"></path>
<path d="M34.075 9.425c0 0.4-0.075 0.8-0.2 1.225s-0.35 0.775-0.675 1.075c-0.325 0.325-0.775 0.575-1.35 0.775s-1.3 0.3-2.175 0.3c-0.625 0-1.175-0.025-1.65-0.075s-0.9-0.1-1.3-0.15c-0.15-0.025-0.25-0.050-0.275-0.1s-0.050-0.1-0.050-0.2v-0.675c0-0.1 0.025-0.15 0.1-0.2 0.050-0.050 0.125-0.075 0.225-0.075h0.050c0.2 0.025 0.425 0.050 0.675 0.050s0.525 0.025 0.775 0.025c0.275 0 0.525 0 0.775 0.025 0.25 0 0.475 0 0.675 0 0.525 0 0.975-0.050 1.325-0.15s0.625-0.225 0.825-0.4c0.2-0.175 0.35-0.375 0.425-0.625s0.125-0.525 0.125-0.8c0-0.225-0.025-0.4-0.1-0.575s-0.2-0.35-0.35-0.525c-0.175-0.175-0.375-0.35-0.65-0.525s-0.6-0.4-1-0.625l-1.725-1c-0.825-0.475-1.425-0.95-1.825-1.425s-0.6-1.050-0.6-1.725c0-1.025 0.375-1.775 1.1-2.25s1.775-0.725 3.15-0.725c0.25 0 0.525 0 0.825 0.025 0.3 0 0.575 0.025 0.85 0.050s0.55 0.050 0.8 0.075c0.25 0.025 0.45 0.050 0.625 0.075 0.2 0.025 0.3 0.125 0.3 0.275v0.675c0 0.175-0.1 0.275-0.3 0.275h-0.025c-0.4-0.025-0.875-0.050-1.425-0.075s-1.1-0.025-1.625-0.025c-0.925 0-1.6 0.1-2 0.325s-0.6 0.65-0.6 1.275c0 0.4 0.15 0.725 0.45 1.025s0.8 0.625 1.475 1l1.625 0.925c0.5 0.3 0.95 0.575 1.3 0.85s0.65 0.55 0.875 0.8c0.225 0.275 0.375 0.55 0.475 0.85 0.025 0.3 0.075 0.6 0.075 0.95z" fill="#444444"></path>
<path d="M42.475 12.675c0 0.65-0.075 1.2-0.225 1.625s-0.375 0.775-0.675 1.025c-0.3 0.25-0.675 0.425-1.125 0.525s-0.975 0.15-1.575 0.15c-0.325 0-0.65 0-0.95-0.025s-0.6-0.050-0.85-0.075c-0.25-0.025-0.475-0.050-0.675-0.1-0.2-0.025-0.35-0.050-0.45-0.075-0.225-0.050-0.325-0.175-0.325-0.35v-0.475c0-0.1 0.025-0.15 0.1-0.2 0.050-0.050 0.125-0.075 0.225-0.075h0.050c0.125 0.025 0.3 0.050 0.525 0.075s0.475 0.050 0.725 0.050c0.25 0.025 0.525 0.025 0.825 0.050 0.275 0.025 0.55 0.025 0.825 0.025 0.4 0 0.725-0.025 1-0.075s0.475-0.175 0.65-0.325c0.15-0.15 0.275-0.375 0.35-0.65s0.1-0.65 0.1-1.075v-0.075c-0.1 0.025-0.25 0.050-0.4 0.075-0.175 0.025-0.35 0.050-0.525 0.050-0.175 0.025-0.375 0.025-0.55 0.050-0.175 0-0.35 0.025-0.5 0.025-0.5 0-1-0.050-1.475-0.15s-0.9-0.275-1.275-0.55c-0.375-0.25-0.675-0.6-0.875-1.050-0.225-0.45-0.325-1.025-0.325-1.725v-5.6c0-0.1 0.025-0.175 0.1-0.225s0.15-0.1 0.25-0.1h0.85c0.1 0 0.175 0.025 0.25 0.1s0.1 0.15 0.1 0.225v5.55c0 0.45 0.050 0.825 0.175 1.1 0.1 0.275 0.275 0.525 0.475 0.675 0.2 0.175 0.45 0.275 0.75 0.35 0.3 0.050 0.625 0.1 1 0.1 0.25 0 0.575-0.025 0.975-0.075 0.375-0.050 0.7-0.1 0.975-0.15v-7.55c0-0.1 0.025-0.175 0.1-0.225 0.075-0.075 0.15-0.1 0.25-0.1h0.85c0.1 0 0.175 0.025 0.25 0.1s0.1 0.15 0.1 0.225v8.925z" fill="#444444"></path>
<path d="M51.45 12.325c0 0.1-0.025 0.175-0.1 0.225-0.050 0.075-0.125 0.1-0.225 0.1h-0.925c-0.1 0-0.175-0.025-0.225-0.1s-0.1-0.15-0.1-0.225v-6c0-0.625-0.1-1.075-0.325-1.35s-0.625-0.4-1.225-0.4h-1.25c-0.6 0-1 0.125-1.225 0.4s-0.325 0.725-0.325 1.35v6.025c0 0.1-0.025 0.175-0.1 0.225s-0.125 0.1-0.225 0.1h-0.925c-0.1 0-0.175-0.025-0.225-0.1s-0.1-0.15-0.1-0.225v-6.025c0-0.65 0.1-1.175 0.325-1.575s0.475-0.7 0.775-0.925c0.3-0.225 0.65-0.375 1-0.45s0.7-0.1 1-0.1h1.25c0.3 0 0.625 0.025 1 0.1s0.7 0.225 1 0.45c0.3 0.225 0.575 0.525 0.775 0.925s0.325 0.925 0.325 1.575v6z" fill="#444444"></path>
<path d="M57.675 12.4c0 0.15-0.125 0.25-0.35 0.275-0.175 0.025-0.4 0.050-0.725 0.075s-0.65 0.025-0.975 0.025c-0.425 0-0.775-0.025-1.1-0.1s-0.6-0.2-0.825-0.375c-0.225-0.175-0.4-0.425-0.525-0.725s-0.175-0.675-0.175-1.125v-8.7c0-0.1 0.025-0.15 0.1-0.2s0.15-0.075 0.25-0.1l0.875-0.125h0.025c0.1 0 0.175 0.025 0.225 0.1 0.050 0.050 0.075 0.15 0.075 0.225v1.775h2.775c0.225 0 0.325 0.1 0.325 0.3v0.575c0 0.1-0.025 0.175-0.1 0.225s-0.15 0.075-0.25 0.075h-2.775v5.85c0 0.25 0.025 0.45 0.075 0.6s0.125 0.25 0.225 0.35c0.1 0.075 0.225 0.15 0.4 0.175s0.375 0.050 0.625 0.050h1.425c0.25 0 0.375 0.075 0.375 0.225v0.55z" fill="#444444"></path>
<path d="M65.625 12c0 0.125-0.025 0.2-0.050 0.25-0.050 0.050-0.15 0.1-0.3 0.125-0.475 0.1-1 0.2-1.575 0.275s-1.15 0.1-1.675 0.1c-0.675 0-1.225-0.1-1.725-0.3-0.475-0.2-0.875-0.475-1.2-0.825s-0.55-0.8-0.7-1.325c-0.15-0.525-0.225-1.1-0.225-1.725v-1.175c0-0.625 0.075-1.2 0.225-1.7s0.4-0.95 0.7-1.325c0.325-0.375 0.725-0.65 1.2-0.85s1.050-0.3 1.725-0.3c0.525 0 1.1 0.025 1.675 0.1s1.125 0.175 1.575 0.275c0.175 0.025 0.275 0.075 0.3 0.125 0.050 0.050 0.050 0.15 0.050 0.25v8.025zM64.050 4.7c-0.225-0.050-0.55-0.075-0.925-0.125-0.375-0.025-0.775-0.050-1.15-0.050-0.45 0-0.8 0.075-1.1 0.2s-0.525 0.325-0.7 0.575c-0.175 0.25-0.3 0.55-0.375 0.925s-0.125 0.775-0.125 1.225v1.175c0 0.45 0.050 0.825 0.125 1.2s0.2 0.675 0.375 0.925c0.175 0.25 0.425 0.45 0.7 0.6s0.65 0.2 1.1 0.2c0.375 0 0.75-0.025 1.125-0.050s0.7-0.075 0.95-0.125v-6.675z" fill="#444444"></path>
<path d="M75 12.475c0 0.125-0.075 0.175-0.225 0.175h-1.225c-0.1 0-0.2-0.050-0.25-0.125l-2.55-3.525-2.525 3.5c-0.050 0.075-0.1 0.125-0.125 0.15s-0.075 0.025-0.175 0.025h-1.075c-0.15 0-0.225-0.050-0.225-0.175 0-0.075 0.025-0.15 0.1-0.225l3.2-4.325-3.025-4.125c-0.050-0.1-0.1-0.175-0.1-0.225 0-0.125 0.1-0.2 0.275-0.2h1.15c0.075 0 0.125 0.025 0.175 0.050s0.1 0.1 0.175 0.175l2.25 3.175 2.275-3.175c0.075-0.1 0.15-0.175 0.175-0.2 0.050-0.025 0.1-0.025 0.175-0.025h1.025c0.15 0 0.225 0.075 0.225 0.2 0 0.050-0.025 0.125-0.1 0.225l-2.975 4.025 3.25 4.425c0.1 0.050 0.125 0.125 0.125 0.2z" fill="#444444"></path>
</svg>
