<?xml version="1.0" encoding="utf-8"?>
<!-- Generated by IcoMoon.io -->
<!DOCTYPE svg PUBLIC "-//W3C//DTD SVG 1.1//EN" "http://www.w3.org/Graphics/SVG/1.1/DTD/svg11.dtd">
<svg version="1.1" xmlns="http://www.w3.org/2000/svg" xmlns:xlink="http://www.w3.org/1999/xlink" width="22" height="16" viewBox="0 0 22 16">
<path d="M14.225 8.975c-0.35-0.4-0.975-0.8-1.875-1.225l-2.175-1c-0.025-0.025-0.075-0.025-0.1-0.050-0.45-0.2-0.8-0.4-1.025-0.575-0.25-0.2-0.375-0.425-0.375-0.675 0-0.425 0.175-0.7 0.55-0.825 0.225-0.075 0.525-0.125 0.85-0.15 0.2-0.025 0.325-0.025 0.55-0.025 0.25 0 0.375 0 0.625 0v-2.45h-1.25v1.2c-0.25 0.025-0.6 0.050-0.9 0.1-0.475 0.075-0.875 0.2-1.225 0.375s-0.625 0.4-0.825 0.7c-0.2 0.3-0.3 0.65-0.3 1.1 0 0.55 0.2 1 0.625 1.4 0.4 0.375 0.95 0.725 1.625 1.050l1.1 0.5 1.125 0.525c0.075 0.050 0.15 0.075 0.25 0.125 0.5 0.25 0.85 0.45 1.050 0.625 0.225 0.2 0.35 0.425 0.35 0.675 0 0.475-0.175 0.775-0.55 0.95-0.225 0.1-0.5 0.175-0.85 0.225-0.225 0.025-0.525 0.050-0.8 0.050-0.175 0-0.375 0-0.625 0v2.4h1.25v-1.225c0.5-0.025 0.725-0.075 1-0.125 0.5-0.1 0.975-0.25 1.35-0.45 0.35-0.2 0.65-0.45 0.85-0.775s0.3-0.675 0.3-1.125c-0.050-0.475-0.225-0.925-0.575-1.325z" fill="#444444"></path>
<path d="M11.425 15.325c0 0.373-0.302 0.675-0.675 0.675s-0.675-0.302-0.675-0.675c0-0.373 0.302-0.675 0.675-0.675s0.675 0.302 0.675 0.675z" fill="#444444"></path>
<path d="M11.425 0.675c0 0.373-0.302 0.675-0.675 0.675s-0.675-0.302-0.675-0.675c0-0.373 0.302-0.675 0.675-0.675s0.675 0.302 0.675 0.675z" fill="#444444"></path>
<path d="M0 8l7.325 7.425 0.95-0.95-6.375-6.475 6.375-6.475-0.95-0.95z" fill="#444444"></path>
<path d="M21.5 8l-7.325 7.425-0.95-0.95 6.375-6.475-6.375-6.475 0.95-0.95z" fill="#444444"></path>
</svg>
