<?xml version="1.0" encoding="utf-8"?>
<!-- Generated by IcoMoon.io -->
<!DOCTYPE svg PUBLIC "-//W3C//DTD SVG 1.1//EN" "http://www.w3.org/Graphics/SVG/1.1/DTD/svg11.dtd">
<svg version="1.1" xmlns="http://www.w3.org/2000/svg" xmlns:xlink="http://www.w3.org/1999/xlink" width="16" height="16" viewBox="0 0 16 16">
<path d="M11 6.16l-5.695-5.695c0.842-0.301 1.749-0.466 2.695-0.466 1.061 0 2.073 0.207 3 0.582v5.578zM12 11v-9.93c2.391 1.383 4 3.969 4 6.929 0 1.061-0.207 2.074-0.582 3h-3.418zM5 12h9.93c-1.383 2.391-3.969 4-6.93 4-1.061 0-2.074-0.207-3-0.582v-3.418zM6.66 3.5l-6.426 6.426c-0.152-0.617-0.234-1.262-0.234-1.926 0-3.021 1.675-5.652 4.148-7.013l2.513 2.513zM4 7.84v7.090c-1.478-0.855-2.657-2.169-3.342-3.748l3.342-3.342z" fill="#444444"></path>
</svg>
