<?xml version="1.0" encoding="utf-8"?>
<!-- Generated by IcoMoon.io -->
<!DOCTYPE svg PUBLIC "-//W3C//DTD SVG 1.1//EN" "http://www.w3.org/Graphics/SVG/1.1/DTD/svg11.dtd">
<svg version="1.1" xmlns="http://www.w3.org/2000/svg" xmlns:xlink="http://www.w3.org/1999/xlink" width="16" height="16" viewBox="0 0 16 16">
<path d="M11.707 9.493c0.187-0.46 0.293-0.963 0.293-1.493 0-2.21-1.79-4-4-4-0.53 0-1.033 0.107-1.497 0.293l1.083 1.083c0.137-0.023 0.273-0.043 0.413-0.043 1.473 0 2.667 1.193 2.667 2.667 0 0.143-0.013 0.283-0.037 0.417l1.077 1.077zM8 2.667c2.947 0 5.333 2.387 5.333 5.333 0 0.903-0.233 1.747-0.63 2.49l0.98 0.98c0.62-1.010 0.983-2.197 0.983-3.47 0-3.683-2.987-6.667-6.667-6.667-1.273 0-2.46 0.363-3.47 0.983l0.973 0.973c0.743-0.397 1.593-0.623 2.497-0.623zM2.18 1.667l-0.847 0.85 1.403 1.403c-0.877 1.127-1.403 2.54-1.403 4.080 0 2.463 1.34 4.61 3.33 5.763l0.667-1.153c-1.59-0.92-2.663-2.64-2.663-4.61 0-1.17 0.38-2.25 1.020-3.13l0.957 0.957c-0.407 0.627-0.643 1.37-0.643 2.173 0 1.48 0.803 2.767 1.997 3.46l0.673-1.16c-0.797-0.463-1.337-1.313-1.337-2.3 0-0.43 0.113-0.83 0.293-1.19l1.053 1.053-0.013 0.137c0 0.737 0.597 1.333 1.333 1.333l0.137-0.013 5.013 5.013 0.85-0.85-11.82-11.817z" fill="#444444"></path>
</svg>
