<?xml version="1.0" encoding="utf-8"?>
<!-- Generated by IcoMoon.io -->
<!DOCTYPE svg PUBLIC "-//W3C//DTD SVG 1.1//EN" "http://www.w3.org/Graphics/SVG/1.1/DTD/svg11.dtd">
<svg version="1.1" xmlns="http://www.w3.org/2000/svg" xmlns:xlink="http://www.w3.org/1999/xlink" width="16" height="16" viewBox="0 0 16 16">
<path d="M14 5.333v-0.667l-2 1.333-2-1.333v0.667l2 1.333 2-1.333zM14.667 2h-13.333c-0.737 0-1.333 0.597-1.333 1.333v9.333c0 0.737 0.597 1.333 1.333 1.333h13.333c0.737 0 1.327-0.597 1.327-1.333l0.007-9.333c0-0.737-0.597-1.333-1.333-1.333zM5.333 4c1.103 0 2 0.897 2 2 0 1.107-0.897 2-2 2s-2-0.893-2-2c0-1.103 0.897-2 2-2zM9.333 12h-8v-0.667c0-1.333 2.667-2.067 4-2.067s4 0.733 4 2.067v0.667zM14.667 8h-5.333v-4h5.333v4z" fill="#444444"></path>
</svg>
