<?xml version="1.0" encoding="utf-8"?>
<!-- Generated by IcoMoon.io -->
<!DOCTYPE svg PUBLIC "-//W3C//DTD SVG 1.1//EN" "http://www.w3.org/Graphics/SVG/1.1/DTD/svg11.dtd">
<svg version="1.1" xmlns="http://www.w3.org/2000/svg" xmlns:xlink="http://www.w3.org/1999/xlink" width="16" height="16" viewBox="0 0 16 16">
<path d="M14.667 2h-13.333c-0.737 0-1.333 0.597-1.333 1.333v9.333c0 0.737 0.597 1.333 1.333 1.333h13.333c0.737 0 1.327-0.597 1.327-1.333l0.007-9.333c0-0.737-0.597-1.333-1.333-1.333zM5.333 4c1.103 0 2 0.897 2 2 0 1.107-0.897 2-2 2s-2-0.893-2-2c0-1.103 0.897-2 2-2zM9.333 12h-8v-0.667c0-1.333 2.667-2.067 4-2.067s4 0.733 4 2.067v0.667zM11.9 9.333h1.093l1.007 1.333-1.33 1.33c-0.87-0.653-1.52-1.583-1.82-2.663-0.117-0.427-0.183-0.87-0.183-1.333s0.067-0.907 0.187-1.333c0.297-1.080 0.947-2.010 1.82-2.663l1.327 1.33-1.007 1.333h-1.093c-0.147 0.417-0.233 0.867-0.233 1.333s0.083 0.917 0.233 1.333z" fill="#444444"></path>
</svg>
