<?xml version="1.0" encoding="utf-8"?>
<!-- Generated by IcoMoon.io -->
<!DOCTYPE svg PUBLIC "-//W3C//DTD SVG 1.1//EN" "http://www.w3.org/Graphics/SVG/1.1/DTD/svg11.dtd">
<svg version="1.1" xmlns="http://www.w3.org/2000/svg" xmlns:xlink="http://www.w3.org/1999/xlink" width="16" height="16" viewBox="0 0 16 16">
<path d="M4.74 5.683l-0.943-0.943c-0.6 0.773-0.97 1.667-1.083 2.593h1.347c0.097-0.583 0.323-1.147 0.68-1.65zM4.060 8.667h-1.347c0.113 0.927 0.483 1.82 1.083 2.593l0.943-0.943c-0.357-0.503-0.583-1.067-0.68-1.65zM4.733 12.21c0.773 0.603 1.673 0.96 2.6 1.073v-1.347c-0.583-0.097-1.143-0.327-1.643-0.683l-0.957 0.957zM8.667 2.713v-2.047l-3.033 3.033 3.033 2.967v-2.607c1.89 0.317 3.333 1.96 3.333 3.94s-1.443 3.623-3.333 3.94v1.347c2.63-0.33 4.667-2.567 4.667-5.287s-2.037-4.957-4.667-5.287z" fill="#444444"></path>
</svg>
