<?xml version="1.0" encoding="utf-8"?>
<!-- Generated by IcoMoon.io -->
<!DOCTYPE svg PUBLIC "-//W3C//DTD SVG 1.1//EN" "http://www.w3.org/Graphics/SVG/1.1/DTD/svg11.dtd">
<svg version="1.1" xmlns="http://www.w3.org/2000/svg" xmlns:xlink="http://www.w3.org/1999/xlink" width="16" height="16" viewBox="0 0 16 16">
<path d="M10.367 3.7l-3.033-3.033v2.047c-2.63 0.327-4.667 2.567-4.667 5.287s2.037 4.96 4.667 5.287v-1.347c-1.89-0.317-3.333-1.96-3.333-3.94s1.443-3.623 3.333-3.94v2.607l3.033-2.967zM13.287 7.333c-0.113-0.927-0.483-1.82-1.083-2.593l-0.943 0.943c0.357 0.503 0.583 1.067 0.68 1.65h1.347zM8.667 11.937v1.35c0.927-0.113 1.827-0.473 2.6-1.073l-0.957-0.957c-0.5 0.353-1.060 0.58-1.643 0.68zM11.26 10.317l0.943 0.943c0.6-0.773 0.97-1.667 1.083-2.593h-1.347c-0.097 0.583-0.323 1.147-0.68 1.65z" fill="#444444"></path>
</svg>
