<?xml version="1.0" encoding="utf-8"?>
<!-- Generated by IcoMoon.io -->
<!DOCTYPE svg PUBLIC "-//W3C//DTD SVG 1.1//EN" "http://www.w3.org/Graphics/SVG/1.1/DTD/svg11.dtd">
<svg version="1.1" xmlns="http://www.w3.org/2000/svg" xmlns:xlink="http://www.w3.org/1999/xlink" width="16" height="16" viewBox="0 0 16 16">
<path d="M6 10.667h4.333c0.92 0 1.667-0.747 1.667-1.667s-0.747-1.667-1.667-1.667h-0.033c-0.163-1.13-1.127-2-2.3-2-0.933 0-1.733 0.553-2.107 1.347h-0.11c-1.003 0.107-1.783 0.957-1.783 1.987 0 1.103 0.897 2 2 2zM14 2h-12c-0.737 0-1.333 0.597-1.333 1.333v9.333c0 0.737 0.597 1.333 1.333 1.333h12c0.737 0 1.333-0.597 1.333-1.333v-9.333c0-0.737-0.597-1.333-1.333-1.333zM14 12.677h-12v-9.353h12v9.353z" fill="#444444"></path>
</svg>
