<?xml version="1.0" encoding="utf-8"?>
<!-- Generated by IcoMoon.io -->
<!DOCTYPE svg PUBLIC "-//W3C//DTD SVG 1.1//EN" "http://www.w3.org/Graphics/SVG/1.1/DTD/svg11.dtd">
<svg version="1.1" xmlns="http://www.w3.org/2000/svg" xmlns:xlink="http://www.w3.org/1999/xlink" width="16" height="16" viewBox="0 0 16 16">
<path d="M13.334 0h-10.667c-1.467 0-2.667 1.2-2.667 2.667v7.333l0.25-1h0.5l0.25 1-0.25 1h-0.5l-0.25-1v3.333c0 1.468 1.2 2.667 2.667 2.667h10.667c1.467 0 2.666-1.199 2.666-2.667v-3.316c0 1.095-0.923 1.983-2.062 1.983-0.037 0-5.712-0.003-5.717-0.003-0.123-0.012-0.221-0.113-0.221-0.234v-6.293c0-0.115 0.041-0.175 0.196-0.233 0.4-0.149 0.852-0.237 1.318-0.237 1.902 0 3.461 1.401 3.625 3.189 0.245-0.099 0.515-0.154 0.798-0.154 1.139 0 2.063 0.888 2.063 1.983v-7.35c0-1.467-1.199-2.667-2.666-2.667zM2.75 12h-0.5l-0.25-2 0.25-2h0.5l0.25 2-0.25 2zM4.75 12h-0.5l-0.25-2.543 0.25-2.457h0.5l0.25 2.5-0.25 2.5zM6.75 12h-0.5l-0.25-3.503 0.25-3.497h0.5l0.25 3.497-0.25 3.503z" fill="#444444"></path>
</svg>
