<?xml version="1.0" encoding="utf-8"?>
<!-- Generated by IcoMoon.io -->
<!DOCTYPE svg PUBLIC "-//W3C//DTD SVG 1.1//EN" "http://www.w3.org/Graphics/SVG/1.1/DTD/svg11.dtd">
<svg version="1.1" xmlns="http://www.w3.org/2000/svg" xmlns:xlink="http://www.w3.org/1999/xlink" width="16" height="16" viewBox="0 0 16 16">
<path d="M13.333 1.333h-10.667c-0.737 0-1.327 0.597-1.327 1.333l-0.007 12 2.667-2.667h9.333c0.737 0 1.333-0.597 1.333-1.333v-8c0-0.737-0.597-1.333-1.333-1.333zM5.333 9.333h-1.333v-1.333h1.333v1.333zM5.333 7.333h-1.333v-1.333h1.333v1.333zM5.333 5.333h-1.333v-1.333h1.333v1.333zM10 9.333h-3.333v-1.333h3.333v1.333zM12 7.333h-5.333v-1.333h5.333v1.333zM12 5.333h-5.333v-1.333h5.333v1.333z" fill="#444444"></path>
</svg>
