<?xml version="1.0" encoding="utf-8"?>
<!-- Generated by IcoMoon.io -->
<!DOCTYPE svg PUBLIC "-//W3C//DTD SVG 1.1//EN" "http://www.w3.org/Graphics/SVG/1.1/DTD/svg11.dtd">
<svg version="1.1" xmlns="http://www.w3.org/2000/svg" xmlns:xlink="http://www.w3.org/1999/xlink" width="16" height="16" viewBox="0 0 16 16">
<path d="M11 4.5c0-0.829 0.671-1.5 1.5-1.5s1.5 0.671 1.5 1.5c0 0.829-0.671 1.5-1.5 1.5s-1.5-0.671-1.5-1.5zM14.975 2.025c-1.367-1.367-3.583-1.367-4.95 0-0.556 0.556-0.886 1.252-0.989 1.975v0l-3.198 4.847c-0.43 0.022-0.856 0.132-1.25 0.328l-2.467-1.928c-0.571-0.447-1.396-0.345-1.843 0.226s-0.345 1.396 0.226 1.842l2.437 1.905c-0.265 1.043 0.010 2.196 0.827 3.013 1.233 1.233 3.232 1.233 4.465 0 0.757-0.757 1.049-1.803 0.876-2.784l3.892-3.484c0.723-0.104 1.419-0.434 1.975-0.989 1.367-1.367 1.367-3.583 0-4.95zM6 14.105c-1.162 0-2.105-0.942-2.105-2.105 0-0.011 0.001-0.022 0.001-0.033l1.045 0.817c0.24 0.188 0.525 0.278 0.808 0.278 0.39 0 0.776-0.173 1.035-0.504 0.447-0.571 0.345-1.396-0.226-1.842l-0.992-0.775c0.14-0.029 0.285-0.045 0.434-0.045 1.162 0 2.105 0.942 2.105 2.105s-0.942 2.105-2.105 2.105zM12.5 7c-1.381 0-2.5-1.119-2.5-2.5s1.119-2.5 2.5-2.5 2.5 1.119 2.5 2.5-1.119 2.5-2.5 2.5z" fill="#444444"></path>
</svg>
