<?xml version="1.0" encoding="utf-8"?>
<!-- Generated by IcoMoon.io -->
<!DOCTYPE svg PUBLIC "-//W3C//DTD SVG 1.1//EN" "http://www.w3.org/Graphics/SVG/1.1/DTD/svg11.dtd">
<svg version="1.1" xmlns="http://www.w3.org/2000/svg" xmlns:xlink="http://www.w3.org/1999/xlink" width="16" height="16" viewBox="0 0 16 16">
<path d="M6.667 4.233v-1.393c-0.533 0.137-1.030 0.357-1.487 0.64l0.977 0.977c0.163-0.083 0.333-0.163 0.51-0.223zM1.91 3.607l1.57 1.57c-0.513 0.82-0.813 1.783-0.813 2.823 0 1.473 0.603 2.8 1.57 3.763l-1.57 1.57h4v-4l-1.49 1.49c-0.727-0.723-1.177-1.72-1.177-2.823 0-0.667 0.167-1.293 0.457-1.847l5.39 5.39c-0.163 0.087-0.333 0.163-0.51 0.227v1.39c0.533-0.137 1.030-0.357 1.487-0.64l1.573 1.573 0.85-0.85-10.49-10.487-0.847 0.85zM13.333 2.667h-4v4l1.49-1.49c0.727 0.723 1.177 1.72 1.177 2.823 0 0.667-0.167 1.293-0.457 1.847l0.977 0.977c0.513-0.82 0.813-1.783 0.813-2.823 0-1.473-0.603-2.8-1.57-3.763l1.57-1.57z" fill="#444444"></path>
</svg>
