<?xml version="1.0" encoding="utf-8"?>
<!-- Generated by IcoMoon.io -->
<!DOCTYPE svg PUBLIC "-//W3C//DTD SVG 1.1//EN" "http://www.w3.org/Graphics/SVG/1.1/DTD/svg11.dtd">
<svg version="1.1" xmlns="http://www.w3.org/2000/svg" xmlns:xlink="http://www.w3.org/1999/xlink" width="16" height="16" viewBox="0 0 16 16">
<path d="M2 8c0 1.473 0.607 2.8 1.57 3.763l-1.57 1.57h4v-4l-1.49 1.49c-0.727-0.723-1.177-1.72-1.177-2.823 0-1.74 1.113-3.217 2.667-3.767v-1.393c-2.3 0.593-4 2.677-4 5.16zM7.333 11.333h1.333v-1.333h-1.333v1.333zM14 2.667h-4v4l1.49-1.49c0.727 0.723 1.177 1.72 1.177 2.823 0 1.74-1.113 3.217-2.667 3.767v1.39c2.3-0.59 4-2.673 4-5.157 0-1.473-0.607-2.8-1.57-3.763l1.57-1.57zM7.333 8.667h1.333v-4h-1.333v4z" fill="#444444"></path>
</svg>
