<?xml version="1.0" encoding="utf-8"?>
<!-- Generated by IcoMoon.io -->
<!DOCTYPE svg PUBLIC "-//W3C//DTD SVG 1.1//EN" "http://www.w3.org/Graphics/SVG/1.1/DTD/svg11.dtd">
<svg version="1.1" xmlns="http://www.w3.org/2000/svg" xmlns:xlink="http://www.w3.org/1999/xlink" width="16" height="16" viewBox="0 0 16 16">
<path d="M7.997 1.333c-3.683 0-6.663 2.983-6.663 6.667s2.98 6.667 6.663 6.667c3.683 0 6.67-2.983 6.67-6.667s-2.987-6.667-6.67-6.667zM8 13.333c-2.947 0-5.333-2.387-5.333-5.333s2.387-5.333 5.333-5.333 5.333 2.387 5.333 5.333-2.387 5.333-5.333 5.333zM10.333 7.333c0.553 0 1-0.447 1-1s-0.447-1-1-1-1 0.447-1 1 0.447 1 1 1zM5.667 7.333c0.553 0 1-0.447 1-1s-0.447-1-1-1-1 0.447-1 1 0.447 1 1 1zM8 11.667c1.553 0 2.87-0.97 3.403-2.333h-6.807c0.533 1.363 1.85 2.333 3.403 2.333z" fill="#444444"></path>
</svg>
