<?xml version="1.0" encoding="utf-8"?>
<!-- Generated by IcoMoon.io -->
<!DOCTYPE svg PUBLIC "-//W3C//DTD SVG 1.1//EN" "http://www.w3.org/Graphics/SVG/1.1/DTD/svg11.dtd">
<svg version="1.1" xmlns="http://www.w3.org/2000/svg" xmlns:xlink="http://www.w3.org/1999/xlink" width="16" height="16" viewBox="0 0 16 16">
<path d="M13.007 2.050l-10.957 10.957c0.060 0.23 0.177 0.437 0.34 0.6l0.003 0.003c0.163 0.163 0.37 0.28 0.6 0.34l10.957-10.957c-0.123-0.46-0.483-0.82-0.943-0.943zM7.92 2l-5.92 5.92v1.887l7.807-7.807h-1.887zM3.333 2c-0.733 0-1.333 0.6-1.333 1.333v1.337l2.67-2.67h-1.337zM12.667 14c0.367 0 0.7-0.15 0.94-0.39 0.243-0.243 0.393-0.577 0.393-0.943v-1.337l-2.67 2.67h1.337zM6.193 14h1.887l5.92-5.92v-1.887l-7.807 7.807z" fill="#444444"></path>
</svg>
