<?xml version="1.0" encoding="utf-8"?>
<!-- Generated by IcoMoon.io -->
<!DOCTYPE svg PUBLIC "-//W3C//DTD SVG 1.1//EN" "http://www.w3.org/Graphics/SVG/1.1/DTD/svg11.dtd">
<svg version="1.1" xmlns="http://www.w3.org/2000/svg" xmlns:xlink="http://www.w3.org/1999/xlink" width="16" height="16" viewBox="0 0 16 16">
<path d="M8 4c0-0.367-0.3-0.667-0.667-0.667h-3.457l0.443-2.117c0.010-0.050 0.017-0.103 0.017-0.157 0-0.207-0.083-0.393-0.22-0.53l-0.53-0.53-3.293 3.293c-0.18 0.18-0.293 0.43-0.293 0.707v4.333c0 0.553 0.447 1 1 1h4.5c0.413 0 0.77-0.25 0.92-0.61l1.51-3.527c0.043-0.113 0.070-0.233 0.070-0.363v-0.833zM15 6.667h-4.5c-0.413 0-0.77 0.25-0.92 0.61l-1.51 3.527c-0.043 0.113-0.070 0.233-0.070 0.363v0.833c0 0.367 0.3 0.667 0.667 0.667h3.457l-0.443 2.117c-0.010 0.050-0.017 0.103-0.017 0.157 0 0.207 0.083 0.393 0.22 0.53l0.53 0.53 3.293-3.293c0.18-0.18 0.293-0.43 0.293-0.707v-4.333c0-0.553-0.447-1-1-1z" fill="#444444"></path>
</svg>
