<?xml version="1.0" encoding="utf-8"?>
<!-- Generated by IcoMoon.io -->
<!DOCTYPE svg PUBLIC "-//W3C//DTD SVG 1.1//EN" "http://www.w3.org/Graphics/SVG/1.1/DTD/svg11.dtd">
<svg version="1.1" xmlns="http://www.w3.org/2000/svg" xmlns:xlink="http://www.w3.org/1999/xlink" width="16" height="16" viewBox="0 0 16 16">
<path d="M10.83 5.17c-0.783-0.78-1.807-1.17-2.83-1.17v4l-2.83 2.83c1.563 1.563 4.093 1.563 5.657 0s1.563-4.097 0.003-5.66zM8 1.333c-3.683 0-6.667 2.983-6.667 6.667s2.983 6.667 6.667 6.667 6.667-2.987 6.667-6.667c0-3.683-2.983-6.667-6.667-6.667zM8 13.333c-2.947 0-5.333-2.387-5.333-5.333s2.387-5.333 5.333-5.333 5.333 2.387 5.333 5.333-2.387 5.333-5.333 5.333z" fill="#444444"></path>
</svg>
