<?xml version="1.0" encoding="utf-8"?>
<!-- Generated by IcoMoon.io -->
<!DOCTYPE svg PUBLIC "-//W3C//DTD SVG 1.1//EN" "http://www.w3.org/Graphics/SVG/1.1/DTD/svg11.dtd">
<svg version="1.1" xmlns="http://www.w3.org/2000/svg" xmlns:xlink="http://www.w3.org/1999/xlink" width="16" height="16" viewBox="0 0 16 16">
<path d="M8.58 10.050l-1.693-1.673 0.020-0.020c1.16-1.293 1.987-2.78 2.473-4.353h1.953v-1.337h-4.667v-1.333h-1.333v1.333h-4.667v1.327h7.447c-0.45 1.287-1.153 2.507-2.113 3.573-0.62-0.69-1.133-1.44-1.54-2.233h-1.333c0.487 1.087 1.153 2.113 1.987 3.040l-3.39 3.35 0.943 0.943 3.333-3.333 2.073 2.073 0.507-1.357zM12.333 6.667h-1.333l-3 8h1.333l0.75-2h3.167l0.75 2h1.333l-3-8zM10.583 11.333l1.083-2.89 1.083 2.89h-2.167z" fill="#444444"></path>
</svg>
