<?xml version="1.0" encoding="utf-8"?>
<!-- Generated by IcoMoon.io -->
<!DOCTYPE svg PUBLIC "-//W3C//DTD SVG 1.1//EN" "http://www.w3.org/Graphics/SVG/1.1/DTD/svg11.dtd">
<svg version="1.1" xmlns="http://www.w3.org/2000/svg" xmlns:xlink="http://www.w3.org/1999/xlink" width="16" height="16" viewBox="0 0 16 16">
<path d="M8 0c-4.418 0-8 3.582-8 8s3.582 8 8 8 8-3.582 8-8-3.582-8-8-8zM11.976 5.961c0.004 0.088 0.006 0.176 0.006 0.266 0 2.711-2.063 5.837-5.837 5.837-1.159 0-2.237-0.34-3.145-0.922 0.16 0.019 0.324 0.029 0.49 0.029 0.961 0 1.846-0.328 2.548-0.878-0.898-0.017-1.655-0.61-1.917-1.425 0.125 0.024 0.254 0.037 0.386 0.037 0.187 0 0.369-0.025 0.54-0.072-0.939-0.188-1.646-1.018-1.646-2.012 0-0.009 0-0.017 0-0.026 0.276 0.154 0.593 0.246 0.929 0.256-0.55-0.368-0.913-0.996-0.913-1.708 0-0.376 0.101-0.729 0.278-1.032 1.012 1.241 2.523 2.058 4.229 2.143-0.035-0.15-0.053-0.307-0.053-0.468 0-1.133 0.919-2.051 2.052-2.051 0.59 0 1.123 0.249 1.498 0.648 0.467-0.092 0.906-0.263 1.303-0.498-0.153 0.479-0.479 0.881-0.902 1.135 0.415-0.050 0.81-0.16 1.178-0.323-0.275 0.411-0.623 0.773-1.024 1.062z" fill="#444444"></path>
</svg>
