<?xml version="1.0" encoding="utf-8"?>
<!-- Generated by IcoMoon.io -->
<!DOCTYPE svg PUBLIC "-//W3C//DTD SVG 1.1//EN" "http://www.w3.org/Graphics/SVG/1.1/DTD/svg11.dtd">
<svg version="1.1" xmlns="http://www.w3.org/2000/svg" xmlns:xlink="http://www.w3.org/1999/xlink" width="16" height="16" viewBox="0 0 16 16">
<path d="M14.667 2.667v-0.333c0-0.92-0.747-1.667-1.667-1.667s-1.667 0.747-1.667 1.667v0.333c-0.37 0-0.667 0.3-0.667 0.667v2.667c0 0.367 0.297 0.667 0.667 0.667h3.333c0.37 0 0.667-0.3 0.667-0.667v-2.667c0-0.367-0.297-0.667-0.667-0.667zM14.133 2.667h-2.267v-0.333c0-0.627 0.507-1.133 1.133-1.133s1.133 0.507 1.133 1.133v0.333zM12.617 8c0.027 0.22 0.050 0.44 0.050 0.667 0 1.387-0.533 2.647-1.403 3.597-0.17-0.54-0.67-0.93-1.263-0.93h-0.667v-2c0-0.367-0.3-0.667-0.667-0.667h-4v-1.333h1.333c0.367 0 0.667-0.3 0.667-0.667v-1.333h1.333c0.737 0 1.333-0.597 1.333-1.333v-1.693c-0.63-0.2-1.303-0.307-2-0.307-3.683 0-6.667 2.983-6.667 6.667s2.983 6.667 6.667 6.667 6.667-2.983 6.667-6.667c0-0.227-0.013-0.447-0.033-0.667h-1.35zM6.667 13.953c-2.63-0.327-4.667-2.567-4.667-5.287 0-0.41 0.050-0.81 0.14-1.193l3.193 3.193v0.667c0 0.737 0.597 1.333 1.333 1.333v1.287z" fill="#444444"></path>
</svg>
