<?xml version="1.0" encoding="utf-8"?>
<!-- Generated by IcoMoon.io -->
<!DOCTYPE svg PUBLIC "-//W3C//DTD SVG 1.1//EN" "http://www.w3.org/Graphics/SVG/1.1/DTD/svg11.dtd">
<svg version="1.1" xmlns="http://www.w3.org/2000/svg" xmlns:xlink="http://www.w3.org/1999/xlink" width="16" height="16" viewBox="0 0 16 16">
<path d="M9 1.5c0 0.829-0.671 1.5-1.5 1.5s-1.5-0.671-1.5-1.5c0-0.829 0.671-1.5 1.5-1.5s1.5 0.671 1.5 1.5z" fill="#444444"></path>
<path d="M11.235 8l0.766-0.555-2.082-3.22c-0.092-0.14-0.249-0.225-0.418-0.225h-4c-0.168 0-0.325 0.085-0.418 0.225l-2.083 3.22 0.766 0.555 1.729-2.244 0.601 1.402-2.095 3.841h1.917l0.333 5h1v-5h0.5v5h1l0.333-5h1.917l-2.095-3.841 0.601-1.402 1.729 2.244z" fill="#444444"></path>
</svg>
