<?xml version="1.0" encoding="utf-8"?>
<!-- Generated by IcoMoon.io -->
<!DOCTYPE svg PUBLIC "-//W3C//DTD SVG 1.1//EN" "http://www.w3.org/Graphics/SVG/1.1/DTD/svg11.dtd">
<svg version="1.1" xmlns="http://www.w3.org/2000/svg" xmlns:xlink="http://www.w3.org/1999/xlink" width="16" height="16" viewBox="0 0 16 16">
<path d="M2 8c0 2.313 1.38 4.312 3.382 5.259l-2.862-7.637c-0.333 0.727-0.519 1.531-0.519 2.378zM12.050 7.705c0-0.723-0.267-1.223-0.495-1.611-0.304-0.481-0.589-0.889-0.589-1.37 0-0.537 0.418-1.037 1.008-1.037 0.027 0 0.052 0.003 0.078 0.005-1.068-0.953-2.49-1.534-4.052-1.534-2.096 0-3.941 1.048-5.013 2.634 0.141 0.005 0.273 0.007 0.386 0.007 0.627 0 1.599-0.074 1.599-0.074 0.323-0.019 0.362 0.444 0.038 0.481 0 0-0.325 0.037-0.687 0.056l2.185 6.33 1.313-3.835-0.935-2.495c-0.323-0.019-0.629-0.056-0.629-0.056-0.324-0.019-0.285-0.5 0.038-0.481 0 0 0.99 0.074 1.58 0.074 0.627 0 1.599-0.074 1.599-0.074 0.323-0.019 0.361 0.444 0.038 0.481 0 0-0.325 0.037-0.687 0.056l2.168 6.282 0.599-1.947c0.259-0.809 0.457-1.389 0.457-1.889zM8.105 8.511l-1.8 5.095c0.538 0.154 1.106 0.238 1.695 0.238 0.699 0 1.369-0.117 1.992-0.331-0.016-0.025-0.031-0.052-0.043-0.081l-1.844-4.921zM13.265 5.197c0.026 0.186 0.040 0.386 0.040 0.601 0 0.593-0.114 1.259-0.456 2.093l-1.832 5.16c1.784-1.013 2.983-2.895 2.983-5.051 0-1.016-0.267-1.971-0.735-2.803zM8 0c-4.418 0-8 3.582-8 8s3.582 8 8 8 8-3.582 8-8-3.582-8-8-8zM8 15c-3.866 0-7-3.134-7-7s3.134-7 7-7 7 3.134 7 7-3.134 7-7 7z" fill="#444444"></path>
</svg>
