<?xml version="1.0" standalone="no"?>
<!DOCTYPE svg PUBLIC "-//W3C//DTD SVG 1.1//EN" "http://www.w3.org/Graphics/SVG/1.1/DTD/svg11.dtd" >
<svg xmlns="http://www.w3.org/2000/svg">
<metadata>Generated by IcoMoon</metadata>
<defs>
<font id="PHP-Syntax" horiz-adv-x="1024">
<font-face units-per-em="1024" ascent="960" descent="-64" />
<missing-glyph horiz-adv-x="1024" />
<glyph unicode="&#x20;" d="" horiz-adv-x="512" />
<glyph unicode="&#xe600;" d="M938.672 715.952l-196.048 164.48-54.832-65.28 196.048-164.48 54.832 65.28zM336.208 815.36l-54.832 65.28-196.048-164.48 54.832-65.28 196.048 164.48zM533.328 618.672h-64v-256l202.448-121.808 32.208 52.688-170.672 101.12v224zM511.792 789.328c-212.272 0-383.792-171.952-383.792-384s171.52-384 383.792-384 384.208 171.952 384.208 384-171.952 384-384.208 384zM512 106.672c-164.912 0-298.672 133.76-298.672 298.672s133.76 298.672 298.672 298.672 298.672-133.76 298.672-298.672-133.552-298.672-298.672-298.672z" />
<glyph unicode="&#xe602;" d="M416 864c0 53.024 42.976 96 96 96s96-42.976 96-96c0-53.024-42.976-96-96-96s-96 42.976-96 96zM640 640l329.6 142.176-23.776 59.424-401.824-137.6h-64l-401.824 137.6-23.776-59.424 329.6-142.176v-256l-131.264-424.576 59.84-22.704 185.712 415.264h27.424l185.712-415.264 59.84 22.704-131.264 424.576z" />
<glyph unicode="&#xe603;" d="M511.792 874.672c-235.728 0-426.448-190.928-426.448-426.672s190.72-426.672 426.448-426.672c235.728 0 426.88 190.928 426.88 426.672s-191.152 426.672-426.88 426.672zM512 106.672c-188.592 0-341.328 152.752-341.328 341.328s152.752 341.328 341.328 341.328 341.328-152.752 341.328-341.328-152.752-341.328-341.328-341.328zM533.328 661.328h-64v-256l223.792-134.4 32.208 52.48-192 113.92z" />
<glyph unicode="&#xe604;" d="M128 746.672v-597.328c0-47.152 38.192-85.328 85.328-85.328h597.328c47.152 0 85.328 38.192 85.328 85.328v597.328c0 47.152-38.192 85.328-85.328 85.328h-597.328c-47.152 0-85.328-38.192-85.328-85.328zM640 576c0-70.832-57.392-128-128-128s-128 57.168-128 128c0 70.608 57.392 128 128 128s128-57.392 128-128zM256 234.672c0 85.328 170.672 132.272 256 132.272s256-46.928 256-132.272v-42.672h-512v42.672z" />
<glyph unicode="&#xe605;" d="M704 448c58.88 0 106.24 47.792 106.24 106.672s-47.36 106.672-106.24 106.672c-58.88 0-106.672-47.792-106.672-106.672s47.792-106.672 106.672-106.672zM384 490.672c70.608 0 127.568 57.392 127.568 128s-56.96 128-127.568 128c-70.608 0-128-57.392-128-128s57.392-128 128-128zM704 362.672c-78.288 0-234.672-39.248-234.672-117.328v-96h469.328v96c0 78.080-156.368 117.328-234.672 117.328zM384 405.328c-99.632 0-298.672-49.92-298.672-149.328v-106.672h298.672v96c0 36.272 14.288 99.632 101.12 148.048-37.12 7.888-73.168 11.952-101.12 11.952z" />
<glyph unicode="&#xe606;" d="M512 874.672c-235.728 0-426.672-190.928-426.672-426.672s190.928-426.672 426.672-426.672 426.672 190.928 426.672 426.672-190.928 426.672-426.672 426.672zM512 746.672c70.608 0 128-57.392 128-128 0-70.832-57.392-128-128-128s-128 57.168-128 128c0 70.608 57.392 128 128 128zM512 140.8c-106.88 0-200.752 54.608-256 137.392 1.072 84.688 170.88 131.408 256 131.408s254.72-46.72 256-131.408c-55.248-82.768-149.12-137.392-256-137.392z" />
<glyph unicode="&#xe607;" d="M213.328 277.328c0-164.912 133.76-298.672 298.672-298.672s298.672 133.76 298.672 298.672v170.672h-597.328v-170.672zM688 773.552l89.6 89.6-35.2 35.2-98.352-98.352c-40.112 19.84-84.48 32-132.048 32s-91.952-12.16-132.048-32l-98.352 98.352-35.2-35.2 89.6-89.6c-74.032-54.192-122.672-141.232-122.672-240.208v-42.672h597.328v42.672c0 98.992-48.64 186.032-122.672 240.208zM384 576c-23.68 0-42.672 19.2-42.672 42.672s18.992 42.672 42.672 42.672c23.68 0 42.672-19.2 42.672-42.672s-18.992-42.672-42.672-42.672zM640 576c-23.68 0-42.672 19.2-42.672 42.672s18.992 42.672 42.672 42.672c23.68 0 42.672-19.2 42.672-42.672s-18.992-42.672-42.672-42.672z" />
<glyph unicode="&#xe608;" d="M810.672 405.328h-256v-256h-85.328v256h-256v85.328h256v256h85.328v-256h256v-85.328z" />
<glyph unicode="&#xe609;" d="M810.672 832h-597.328c-47.152 0-85.328-38.192-85.328-85.328v-597.328c0-47.152 38.192-85.328 85.328-85.328h597.328c47.152 0 85.328 38.192 85.328 85.328v597.328c0 47.152-38.192 85.328-85.328 85.328zM725.328 405.328h-170.672v-170.672h-85.328v170.672h-170.672v85.328h170.672v170.672h85.328v-170.672h170.672v-85.328z" />
<glyph unicode="&#xe60a;" d="M512 874.672c-235.728 0-426.672-190.928-426.672-426.672s190.928-426.672 426.672-426.672 426.672 190.928 426.672 426.672-190.928 426.672-426.672 426.672zM725.328 405.328h-170.672v-170.672h-85.328v170.672h-170.672v85.328h170.672v170.672h85.328v-170.672h170.672v-85.328z" />
<glyph unicode="&#xe60b;" d="M554.672 661.328h-85.328v-170.672h-170.672v-85.328h170.672v-170.672h85.328v170.672h170.672v85.328h-170.672v170.672zM512 874.672c-235.728 0-426.672-190.928-426.672-426.672s190.928-426.672 426.672-426.672 426.672 190.928 426.672 426.672-190.928 426.672-426.672 426.672zM512 106.672c-188.16 0-341.328 153.168-341.328 341.328s153.168 341.328 341.328 341.328 341.328-153.168 341.328-341.328-153.168-341.328-341.328-341.328z" />
<glyph unicode="&#xe60c;" d="M192 960v-1024h768v1024h-768zM576 703.664c70.512 0 127.664-57.168 127.664-127.664s-57.152-127.664-127.664-127.664-127.664 57.168-127.664 127.664 57.168 127.664 127.664 127.664v0zM768 192h-384v64c0 70.704 57.312 128 128 128v0h128c70.704 0 128-57.296 128-128v-64zM64 896h96v-192h-96v192zM64 640h96v-192h-96v192zM64 384h96v-192h-96v192zM64 128h96v-192h-96v192z" />
<glyph unicode="&#xe60d;" d="M469.328 576h85.328v128h128v85.328h-128v128h-85.328v-128h-128v-85.328h128v-128zM298.672 192c-47.152 0-84.912-38.192-84.912-85.328s37.76-85.328 84.912-85.328 85.328 38.192 85.328 85.328-38.192 85.328-85.328 85.328zM725.328 192c-47.152 0-84.912-38.192-84.912-85.328s37.76-85.328 84.912-85.328 85.328 38.192 85.328 85.328-38.192 85.328-85.328 85.328zM306.128 330.672c0 1.92 0.432 3.632 1.28 5.12l38.4 69.552h317.872c32 0 59.952 17.712 74.672 43.952l164.688 299.088-74.672 40.96h-0.208l-47.152-85.328-117.552-213.328h-299.312l-5.552 11.52-136.32 287.152-40.32 85.328h-139.312v-85.328h85.328l153.6-323.632-57.808-104.528c-6.608-12.368-10.448-26.24-10.448-41.168 0-47.152 38.192-85.328 85.328-85.328h512v85.328h-493.872c-5.968 0-10.672 4.688-10.672 10.672z" />
<glyph unicode="&#xe60e;" d="M170.672 704h-85.328v-597.328c0-47.152 38.192-85.328 85.328-85.328h597.328v85.328h-597.328v597.328zM853.328 874.672h-512c-47.152 0-85.328-38.192-85.328-85.328v-512c0-47.152 38.192-85.328 85.328-85.328h512c47.152 0 85.328 38.192 85.328 85.328v512c0 47.152-38.192 85.328-85.328 85.328zM810.672 490.672h-170.672v-170.672h-85.328v170.672h-170.672v85.328h170.672v170.672h85.328v-170.672h170.672v-85.328z" />
<glyph unicode="&#xe60f;" d="M512 832c-247.424 0-448-200.576-448-448s200.576-448 448-448 448 200.576 448 448-200.576 448-448 448zM512 24c-198.832 0-360 161.184-360 360s161.168 360 360 360c198.816 0 360-161.168 360-360s-161.184-360-360-360zM934.784 672.832c16.048 28.048 25.216 60.544 25.216 95.168 0 106.048-85.968 192-192 192-61.824 0-116.8-29.216-151.92-74.592 131.888-27.232 245.2-105.2 318.704-212.576v0zM407.92 885.408c-35.12 45.376-90.096 74.592-151.92 74.592-106.048 0-192-85.952-192-192 0-34.64 9.168-67.12 25.216-95.168 73.504 107.376 186.816 185.344 318.704 212.576zM512 384v256h-64v-320h256v64z" />
<glyph unicode="&#xe610;" d="M512 874.672c-235.728 0-426.672-190.928-426.672-426.672s190.928-426.672 426.672-426.672 426.672 190.928 426.672 426.672-190.928 426.672-426.672 426.672zM512 256c-106.032 0-192 85.968-192 192s85.968 192 192 192 192-85.968 192-192-85.968-192-192-192zM512 490.672c-23.472 0-42.672-19.2-42.672-42.672s19.2-42.672 42.672-42.672 42.672 19.2 42.672 42.672-19.2 42.672-42.672 42.672z" />
<glyph unicode="&#xe611;" d="M896 576c-35.2 0-64-28.8-64-64v-256c0-35.2 28.8-64 64-64s64 28.8 64 64v256c0 35.2-28.8 64-64 64zM128 576c-35.2 0-64-28.8-64-64v-256c0-35.2 28.8-64 64-64s64 28.8 64 64v256c0 35.2-28.8 64-64 64zM224 224c0-53.024 42.976-96 96-96v0-128c0-35.2 28.8-64 64-64s64 28.8 64 64v128h128v-128c0-35.2 28.8-64 64-64s64 28.8 64 64v128c53.024 0 96 42.976 96 96v352h-576v-352zM798.224 640c-9.712 87.888-59.008 163.792-129.616 209.648l32.032 64.048c7.904 15.808 1.488 35.024-14.304 42.928s-35.024 1.488-42.928-14.304l-32.144-64.288-8.352 3.312c-28.56 9.504-59.12 14.656-90.88 14.656s-62.32-5.152-90.896-14.656l-8.352-3.312-32.144 64.288c-7.904 15.808-27.12 22.208-42.928 14.304s-22.208-27.12-14.32-42.928l32.016-64.048c-70.608-45.856-119.904-121.76-129.616-209.648v-32h574.224v32h-1.776zM416 704c-17.68 0-32 14.336-32 32 0 17.648 14.288 31.952 31.936 32 0.032 0 0.064 0 0.096 0s0.032 0 0.048 0c17.632-0.048 31.92-14.352 31.92-32 0-17.664-14.32-32-32-32zM608 704c-17.68 0-32 14.336-32 32 0 17.648 14.288 31.952 31.92 32 0.016 0 0.032 0 0.048 0 0.032 0 0.064 0 0.096 0 17.632-0.032 31.936-14.352 31.936-32 0-17.664-14.32-32-32-32z" />
<glyph unicode="&#xe612;" d="M853.328 874.672h-682.672c-47.152 0-84.912-38.192-84.912-85.328l-0.432-768 170.672 170.672h597.328c47.152 0 85.328 38.192 85.328 85.328v512c0 47.152-38.192 85.328-85.328 85.328zM554.672 490.672h-85.328v256h85.328v-256zM554.672 320h-85.328v85.328h85.328v-85.328z" />
<glyph unicode="&#xe613;" d="M791.504 415.904c-1.296 129.68 105.76 191.872 110.544 194.96-60.16 88.016-153.856 100.080-187.248 101.472-79.744 8.080-155.6-46.944-196.064-46.944-40.368 0-102.816 45.76-168.944 44.544-86.912-1.296-167.056-50.544-211.808-128.384-90.304-156.704-23.12-388.848 64.896-515.92 43.008-62.208 94.288-132.080 161.632-129.584 64.848 2.592 89.36 41.952 167.76 41.952s100.432-41.952 169.056-40.672c69.776 1.296 113.984 63.392 156.688 125.792 49.392 72.176 69.728 142.032 70.928 145.632-1.552 0.704-136.064 52.24-137.408 207.136zM662.56 796.48c35.744 43.36 59.856 103.52 53.28 163.52-51.472-2.096-113.872-34.288-150.816-77.552-33.136-38.368-62.144-99.632-54.368-158.432 57.472-4.48 116.128 29.2 151.904 72.464z" />
<glyph unicode="&#xe614;" d="M170.672 618.672h170.672v170.672h-170.672v-170.672zM426.672 106.672h170.672v170.672h-170.672v-170.672zM170.672 106.672h170.672v170.672h-170.672v-170.672zM170.672 362.672h170.672v170.672h-170.672v-170.672zM426.672 362.672h170.672v170.672h-170.672v-170.672zM682.672 789.328v-170.672h170.672v170.672h-170.672zM426.672 618.672h170.672v170.672h-170.672v-170.672zM682.672 362.672h170.672v170.672h-170.672v-170.672zM682.672 106.672h170.672v170.672h-170.672v-170.672z" />
<glyph unicode="&#xe615;" d="M876.592 737.072l-59.088 71.68c-11.952 14.080-29.648 23.248-49.488 23.248h-512c-19.84 0-37.552-9.168-49.28-23.248l-59.088-71.68c-12.368-14.928-19.632-33.712-19.632-54.4v-533.328c0-47.152 38.192-85.328 85.328-85.328h597.328c47.152 0 85.328 38.192 85.328 85.328v533.328c0 20.688-7.248 39.472-19.408 54.4zM512 213.328l-234.672 234.672h149.328v85.328h170.672v-85.328h149.328l-234.672-234.672zM218.672 746.672l34.768 42.672h512l39.888-42.672h-586.672z" />
<glyph unicode="&#xe616;" d="M853.328 490.672h-519.248l238.288 238.288-60.368 60.368-341.328-341.328 341.328-341.328 60.368 60.368-238.288 238.288h519.248v85.328z" />
<glyph unicode="&#xe617;" d="M877.248 338.752l-320-320c-24.992-24.992-65.52-24.992-90.512 0l-320 320c-24.992 24.992-24.992 65.52 0 90.512s65.52 24.992 90.512 0l210.736-210.752v613.488c0 35.344 28.656 64 64 64s64-28.656 64-64v-613.488l210.752 210.752c12.496 12.496 28.88 18.752 45.248 18.752s32.752-6.256 45.248-18.752c24.992-24.992 24.992-65.52 0-90.512z" />
<glyph unicode="&#xe618;" d="M786.752 813.264l-530.752-530.752v229.488c0 35.344-28.656 64-64 64s-64-28.656-64-64v-384c0-25.888 15.6-49.216 39.504-59.136 7.92-3.28 16.24-4.848 24.496-4.832v-0.032h384c35.344 0 64 28.656 64 64s-28.656 64-64 64h-229.488l530.752 530.752c12.496 12.496 18.752 28.88 18.752 45.264s-6.256 32.752-18.752 45.248c-24.992 24.992-65.52 24.992-90.512 0v0z" />
<glyph unicode="&#xe619;" d="M146.752 722.752l530.736-530.752h-229.488c-35.344 0-64-28.656-64-64s28.656-64 64-64h384c25.888 0 49.216 15.6 59.12 39.504 3.28 7.92 4.848 16.24 4.832 24.496h0.032v384c0 35.344-28.656 64-64 64s-64-28.656-64-64v-229.488l-530.752 530.752c-12.496 12.496-28.88 18.752-45.248 18.752s-32.752-6.256-45.248-18.752c-24.992-24.992-24.992-65.52 0-90.512z" />
<glyph unicode="&#xe61a;" d="M298.672 533.328l213.328-213.328 213.328 213.328z" />
<glyph unicode="&#xe61b;" d="M512 874.672c-235.728 0-426.672-190.928-426.672-426.672s190.928-426.672 426.672-426.672 426.672 190.928 426.672 426.672-190.928 426.672-426.672 426.672zM512 362.672l-170.672 170.672h341.328l-170.672-170.672z" />
<glyph unicode="&#xe61c;" d="M298.672 362.672l213.328 213.328 213.328-213.328z" />
<glyph unicode="&#xe61d;" d="M512 789.328l-60.368-60.368 238.288-238.288h-519.248v-85.328h519.248l-238.288-238.288 60.368-60.368 341.328 341.328z" />
<glyph unicode="&#xe61e;" d="M402.752 82.752l-320 320c-24.992 24.992-24.992 65.52 0 90.512l320 320c24.992 24.992 65.52 24.992 90.512 0s24.992-65.52 0-90.512l-210.752-210.752h613.488c35.344 0 64-28.656 64-64s-28.656-64-64-64h-613.488l210.752-210.752c12.496-12.496 18.752-28.88 18.752-45.248s-6.24-32.752-18.752-45.248c-24.992-24.992-65.52-24.992-90.512 0z" />
<glyph unicode="&#xe61f;" d="M621.248 82.752l320 320c24.992 24.992 24.992 65.52 0 90.512l-320 320c-24.992 24.992-65.52 24.992-90.512 0s-24.992-65.52 0-90.512l210.752-210.752h-613.488c-35.344 0-64-28.656-64-64s28.656-64 64-64h613.488l-210.752-210.752c-12.496-12.496-18.752-28.88-18.752-45.248s6.256-32.752 18.752-45.248c24.992-24.992 65.52-24.992 90.512 0z" />
<glyph unicode="&#xe620;" d="M877.248 557.248l-320 320c-24.992 24.992-65.52 24.992-90.512 0l-320-320c-24.992-24.992-24.992-65.52 0-90.512s65.52-24.992 90.512 0l210.736 210.752v-613.488c0-35.344 28.656-64 64-64s64 28.656 64 64v613.488l210.752-210.752c12.496-12.496 28.88-18.752 45.248-18.752s32.752 6.24 45.248 18.752c24.992 24.992 24.992 65.52 0 90.512z" />
<glyph unicode="&#xe621;" d="M877.248 173.248l-530.752 530.752h229.488c35.344 0 64 28.656 64 64s-28.656 64-64 64h-384c-25.888 0-49.216-15.6-59.12-39.504-3.28-7.92-4.848-16.24-4.832-24.496h-0.032v-384c0-35.344 28.656-64 64-64s64 28.656 64 64v229.488l530.752-530.752c12.496-12.496 28.88-18.752 45.248-18.752s32.752 6.256 45.248 18.752c24.992 24.992 24.992 65.52 0 90.512z" />
<glyph unicode="&#xe622;" d="M237.248 82.752l530.752 530.752v-229.488c0-35.344 28.656-64 64-64s64 28.656 64 64v384c0 25.888-15.6 49.216-39.504 59.12-7.92 3.28-16.24 4.848-24.496 4.832v0.032h-384c-35.344 0-64-28.656-64-64s28.656-64 64-64h229.488l-530.752-530.752c-12.496-12.496-18.752-28.88-18.752-45.248s6.256-32.752 18.752-45.248c24.992-24.992 65.52-24.992 90.512 0z" />
<glyph unicode="&#xe623;" d="M810.672 448h-85.328v-128h-128v-85.328h213.328v213.328zM298.672 576h128v85.328h-213.328v-213.328h85.328v128zM896 832h-768c-47.152 0-85.328-38.192-85.328-85.328v-597.328c0-47.152 38.192-85.328 85.328-85.328h768c47.152 0 85.328 38.192 85.328 85.328v597.328c0 47.152-38.192 85.328-85.328 85.328zM896 148.688h-768v598.608h768v-598.608z" />
<glyph unicode="&#xe624;" d="M614.4 704l-17.072 85.328h-384v-725.328h85.328v298.672h238.928l17.072-85.328h298.672v426.672z" />
<glyph unicode="&#xe625;" d="M320 192c-129.712 0-234.672 105.168-234.672 234.672s104.96 234.672 234.672 234.672h448c94.288 0 170.672-76.368 170.672-170.672s-76.368-170.672-170.672-170.672h-362.672c-58.88 0-106.672 47.792-106.672 106.672s47.792 106.672 106.672 106.672h320v-64h-320c-23.472 0-42.672-18.992-42.672-42.672s19.2-42.672 42.672-42.672h362.672c58.88 0 106.672 47.792 106.672 106.672s-47.792 106.672-106.672 106.672h-448c-94.288 0-170.672-76.368-170.672-170.672s76.368-170.672 170.672-170.672h405.328v-64h-405.328z" />
<glyph unicode="&#xe626;" d="M503.472 494.928c-96.848 25.168-128 50.992-128 91.52 0 46.512 42.88 79.152 115.2 79.152 75.952 0 104.112-36.272 106.672-89.6h94.288c-2.768 73.6-47.792 140.592-136.96 162.56v93.44h-128v-92.16c-82.768-18.128-149.328-71.472-149.328-154.032 0-98.56 81.712-147.632 200.528-176.208 106.88-25.6 128-62.928 128-103.040 0-29.232-20.688-76.16-115.2-76.16-87.888 0-122.672 39.472-127.152 89.6h-94.080c5.328-93.44 75.088-145.712 157.232-163.408v-92.592h128v91.728c82.992 16 149.328 64 149.328 151.68 0 120.752-103.68 162.128-200.528 187.52z" />
<glyph unicode="&#xe627;" d="M512 832v-395.728c-20.048 7.040-41.392 11.728-64 11.728-106.032 0-192-85.968-192-192s85.968-192 192-192c98.768 0 179.2 74.88 189.872 170.672h2.128v469.328h170.672v128h-298.672z" />
<glyph unicode="&#xe628;" d="M512 704v-128l170.672 170.672-170.672 170.672v-128c-188.592 0-341.328-152.752-341.328-341.328 0-66.992 19.632-129.072 52.912-181.76l62.288 62.288c-18.992 35.632-29.872 76.16-29.872 119.472 0 141.44 114.56 256 256 256zM800.432 629.76l-62.288-62.288c18.992-35.632 29.872-76.16 29.872-119.472 0-141.44-114.56-256-256-256v128l-170.672-170.672 170.672-170.672v128c188.592 0 341.328 152.752 341.328 341.328 0 66.992-19.632 129.072-52.912 181.76z" />
<glyph unicode="&#xe629;" d="M469.328 234.672c0-23.472 19.2-42.672 42.672-42.672s42.672 19.2 42.672 42.672-19.2 42.672-42.672 42.672-42.672-19.2-42.672-42.672zM469.328 832v-170.672h85.328v81.92c144.64-20.688 256-144.848 256-295.248 0-164.912-133.76-298.672-298.672-298.672s-298.672 133.76-298.672 298.672c0 71.68 25.168 137.168 67.2 188.8l231.472-231.472 60.368 60.368-290.128 290.128-0.432-0.848c-93.232-69.968-153.808-181.328-153.808-306.992 0-212.048 171.52-384 383.792-384s384.208 171.952 384.208 384-171.952 384-384.208 384h-42.448zM768 448c0 23.472-19.2 42.672-42.672 42.672s-42.672-19.2-42.672-42.672 19.2-42.672 42.672-42.672 42.672 19.2 42.672 42.672zM256 448c0-23.472 19.2-42.672 42.672-42.672s42.672 19.2 42.672 42.672-19.2 42.672-42.672 42.672-42.672-19.2-42.672-42.672z" />
<glyph unicode="&#xe62a;" d="M938.672 832h-640c-29.44 0-52.688-14.928-68.048-37.552l-230.608-346.24 230.608-346.24c15.36-22.608 38.608-37.968 68.048-37.968h640c47.152 0 85.328 38.192 85.328 85.328v597.328c0 47.152-38.192 85.328-85.328 85.328zM810.672 295.040l-60.368-60.368-152.96 152.96-152.96-152.96-60.368 60.368 152.96 152.96-152.96 152.96 60.368 60.368 152.96-152.96 152.96 152.96 60.368-60.368-152.96-152.96 152.96-152.96z" />
<glyph unicode="&#xe62b;" d="M825.808 531.84c-29.008 146.768-158.512 257.488-313.808 257.488-123.312 0-230.192-69.968-283.728-172.16-128.208-13.872-228.272-122.448-228.272-254.512 0-141.44 114.56-256 256-256h554.672c117.76 0 213.328 95.568 213.328 213.328 0 112.64-87.68 203.952-198.192 211.84zM597.328 405.328v-170.672h-170.672v170.672h-128l213.328 213.328 213.328-213.328h-128z" />
<glyph unicode="&#xe62c;" d="M0 832h128v-640h-128zM192 832h64v-640h-64zM320 832h64v-640h-64zM512 832h64v-640h-64zM768 832h64v-640h-64zM960 832h64v-640h-64zM640 832h32v-640h-32zM448 832h32v-640h-32zM864 832h32v-640h-32zM0 128h64v-64h-64zM192 128h64v-64h-64zM320 128h64v-64h-64zM640 128h64v-64h-64zM960 128h64v-64h-64zM768 128h128v-64h-128zM448 128h128v-64h-128z" />
<glyph unicode="&#xe62d;" d="M128 640v-640c0-35.2 28.8-64 64-64h576c35.2 0 64 28.8 64 64v640h-704zM320 64h-64v448h64v-448zM448 64h-64v448h64v-448zM576 64h-64v448h64v-448zM704 64h-64v448h64v-448zM848 832h-208v80c0 26.4-21.6 48-48 48h-224c-26.4 0-48-21.6-48-48v-80h-208c-26.4 0-48-21.6-48-48v-80h832v80c0 26.4-21.6 48-48 48zM576 832h-192v63.2h192v-63.2z" />
<glyph unicode="&#xe62e;" d="M192-64h640l64 704h-768zM640 832v128h-256v-128h-320v-192l64 64h768l64-64v192h-320zM576 832h-128v64h128v-64z" />
<glyph unicode="&#xe62f;" d="M512 874.672c-235.728 0-426.672-190.928-426.672-426.672s190.928-426.672 426.672-426.672 426.672 190.928 426.672 426.672-190.928 426.672-426.672 426.672zM170.672 448c0 188.592 152.752 341.328 341.328 341.328 78.928 0 151.248-27.088 209.072-71.888l-478.512-478.512c-44.8 57.808-71.888 130.128-71.888 209.072zM512 106.672c-78.928 0-151.248 27.088-209.072 71.888l478.512 478.512c44.8-57.808 71.888-130.128 71.888-209.072 0-188.592-152.752-341.328-341.328-341.328z" />
<glyph unicode="&#xe630;" d="M874.032 810.032c-96.704 96.704-225.28 149.968-362.048 149.968s-265.328-53.264-362.048-149.968c-96.704-96.704-149.968-225.28-149.968-362.032s53.264-265.328 149.968-362.032c96.704-96.704 225.28-149.968 362.048-149.968s265.328 53.264 362.048 149.968c96.704 96.704 149.968 225.28 149.968 362.048s-53.264 265.328-149.968 362.048zM896 448c0-82.816-26.352-159.584-71.104-222.384l-535.264 535.264c62.8 44.752 139.568 71.104 222.384 71.104 211.744 0 384-172.256 384-384zM128 448c0 82.816 26.352 159.584 71.104 222.384l535.264-535.264c-62.8-44.752-139.568-71.104-222.384-71.104-211.744 0-384 172.256-384 384z" />
<glyph unicode="&#xe631;" d="M384 960v-96c73.488 0 144.704-14.368 211.712-42.704 64.768-27.392 122.96-66.64 172.944-116.624s89.232-108.176 116.624-172.944c28.336-67.008 42.704-138.24 42.704-211.712h96c0 353.456-286.544 640-640 640zM384 768v-96c94.016 0 182.416-36.608 248.896-103.104s103.104-154.88 103.104-248.896h96c0 247.424-200.576 448-448 448zM480 576l-64-64-224-64-192-416 25.376-25.376 232.8 232.8c-1.408 5.28-2.176 10.848-2.176 16.576 0 35.344 28.656 64 64 64s64-28.656 64-64-28.656-64-64-64c-5.728 0-11.28 0.768-16.56 2.176l-232.8-232.8 25.376-25.376 416 192 64 224 64 64-160 160z" />
<glyph unicode="&#xe632;" d="M957.792 576h-57.408c-35.168 0-65.984 29.744-68.384 64v0c0 182.672-147.264 320-331.184 320h-167.824c-183.808 0-332.848-148-332.992-330.672v-362.8c0-182.656 149.168-330.544 332.976-330.544h358.416c183.952 0 332.592 147.888 332.592 330.544v234.384c0 36.496-29.44 75.088-66.208 75.088zM320 704h192c35.2 0 64-28.8 64-64s-28.8-64-64-64h-192c-35.2 0-64 28.8-64 64s28.8 64 64 64zM704 192h-384c-35.2 0-64 28.8-64 64s28.8 64 64 64h384c35.2 0 64-28.8 64-64s-28.8-64-64-64z" />
<glyph unicode="&#xe633;" d="M853.344 960h-682.704c-94.24 0-170.656-76.416-170.656-170.688v-682.64c0-94.272 76.4-170.688 170.656-170.688h682.704c94.256 0 170.656 76.416 170.656 170.688v682.64c0 94.256-76.4 170.688-170.656 170.688zM896 311.904c0-136.992-111.488-247.904-249.44-247.904h-268.816c-137.856 0-249.744 110.912-249.744 247.904v272.096c0.096 137.008 111.872 248 249.744 248h125.872c137.952 0 248.4-103.008 248.4-240 1.808-25.696 24.928-48 51.296-48h43.056c27.568 0 49.648-28.928 49.648-56.32v-175.792zM704 320c0-35.2-28.8-64-64-64h-256c-35.2 0-64 28.8-64 64v0c0 35.2 28.8 64 64 64h256c35.2 0 64-28.8 64-64v0zM576 576c0-35.2-28.8-64-64-64h-128c-35.2 0-64 28.8-64 64v0c0 35.2 28.8 64 64 64h128c35.2 0 64-28.8 64-64v0z" />
<glyph unicode="&#xe634;" d="M426.672 576c-23.472 0-42.672-19.2-42.672-42.672s19.2-42.672 42.672-42.672 42.672 19.2 42.672 42.672-19.2 42.672-42.672 42.672zM426.672 405.328c-23.472 0-42.672-19.2-42.672-42.672s19.2-42.672 42.672-42.672 42.672 19.2 42.672 42.672-19.2 42.672-42.672 42.672zM298.672 554.672c-11.728 0-21.328-9.6-21.328-21.328s9.6-21.328 21.328-21.328 21.328 9.6 21.328 21.328-9.6 21.328-21.328 21.328zM426.672 256c-11.728 0-21.328-9.6-21.328-21.328s9.6-21.328 21.328-21.328 21.328 9.6 21.328 21.328-9.6 21.328-21.328 21.328zM298.672 384c-11.728 0-21.328-9.6-21.328-21.328s9.6-21.328 21.328-21.328 21.328 9.6 21.328 21.328-9.6 21.328-21.328 21.328zM426.672 640c11.728 0 21.328 9.6 21.328 21.328s-9.6 21.328-21.328 21.328-21.328-9.6-21.328-21.328 9.6-21.328 21.328-21.328zM597.328 576c-23.472 0-42.672-19.2-42.672-42.672s19.2-42.672 42.672-42.672 42.672 19.2 42.672 42.672-19.2 42.672-42.672 42.672zM597.328 640c11.728 0 21.328 9.6 21.328 21.328s-9.6 21.328-21.328 21.328-21.328-9.6-21.328-21.328 9.6-21.328 21.328-21.328zM725.328 384c-11.728 0-21.328-9.6-21.328-21.328s9.6-21.328 21.328-21.328 21.328 9.6 21.328 21.328-9.6 21.328-21.328 21.328zM725.328 554.672c-11.728 0-21.328-9.6-21.328-21.328s9.6-21.328 21.328-21.328 21.328 9.6 21.328 21.328-9.6 21.328-21.328 21.328zM512 874.672c-235.728 0-426.672-190.928-426.672-426.672s190.928-426.672 426.672-426.672 426.672 190.928 426.672 426.672-190.928 426.672-426.672 426.672zM512 106.672c-188.592 0-341.328 152.752-341.328 341.328s152.752 341.328 341.328 341.328 341.328-152.752 341.328-341.328-152.752-341.328-341.328-341.328zM597.328 256c-11.728 0-21.328-9.6-21.328-21.328s9.6-21.328 21.328-21.328 21.328 9.6 21.328 21.328-9.6 21.328-21.328 21.328zM597.328 405.328c-23.472 0-42.672-19.2-42.672-42.672s19.2-42.672 42.672-42.672 42.672 19.2 42.672 42.672-19.2 42.672-42.672 42.672z" />
<glyph unicode="&#xe635;" d="M213.328 213.328c35.408 0 64 28.592 64 64s-28.592 64-64 64-64-28.592-64-64 28.592-64 64-64zM384 405.328c23.472 0 42.672 19.2 42.672 42.672s-19.2 42.672-42.672 42.672-42.672-19.2-42.672-42.672 19.2-42.672 42.672-42.672zM384 576c23.472 0 42.672 19.2 42.672 42.672s-19.2 42.672-42.672 42.672-42.672-19.2-42.672-42.672 19.2-42.672 42.672-42.672zM128 64h768v85.328h-768v-85.328zM213.328 554.672c35.408 0 64 28.592 64 64s-28.592 64-64 64-64-28.592-64-64 28.592-64 64-64zM213.328 384c35.408 0 64 28.592 64 64s-28.592 64-64 64-64-28.592-64-64 28.592-64 64-64zM384 234.672c23.472 0 42.672 19.2 42.672 42.672s-19.2 42.672-42.672 42.672-42.672-19.2-42.672-42.672 19.2-42.672 42.672-42.672zM725.328 256c11.728 0 21.328 9.6 21.328 21.328s-9.6 21.328-21.328 21.328-21.328-9.6-21.328-21.328 9.6-21.328 21.328-21.328zM128 832v-85.328h768v85.328h-768zM725.328 597.328c11.728 0 21.328 9.6 21.328 21.328s-9.6 21.328-21.328 21.328-21.328-9.6-21.328-21.328 9.6-21.328 21.328-21.328zM725.328 426.672c11.728 0 21.328 9.6 21.328 21.328s-9.6 21.328-21.328 21.328-21.328-9.6-21.328-21.328 9.6-21.328 21.328-21.328zM554.672 576c23.472 0 42.672 19.2 42.672 42.672s-19.2 42.672-42.672 42.672-42.672-19.2-42.672-42.672 19.2-42.672 42.672-42.672zM554.672 405.328c23.472 0 42.672 19.2 42.672 42.672s-19.2 42.672-42.672 42.672-42.672-19.2-42.672-42.672 19.2-42.672 42.672-42.672zM554.672 234.672c23.472 0 42.672 19.2 42.672 42.672s-19.2 42.672-42.672 42.672-42.672-19.2-42.672-42.672 19.2-42.672 42.672-42.672z" />
<glyph unicode="&#xe636;" d="M597.328 661.328c23.472 0 42.672 19.2 42.672 42.672s-19.2 42.672-42.672 42.672-42.672-19.2-42.672-42.672 19.2-42.672 42.672-42.672zM588.8 470.192c2.768-0.432 5.552-0.848 8.528-0.848 35.408 0 64 28.592 64 64s-28.592 64-64 64-64-28.592-64-64c0-2.992 0.432-5.76 0.848-8.752 3.84-28.16 26.24-50.56 54.608-54.4zM597.328 810.672c11.728 0 21.328 9.6 21.328 21.328s-9.6 21.328-21.328 21.328-21.328-9.6-21.328-21.328 9.6-21.328 21.328-21.328zM426.672 810.672c11.728 0 21.328 9.6 21.328 21.328s-9.6 21.328-21.328 21.328-21.328-9.6-21.328-21.328 9.6-21.328 21.328-21.328zM896 512c11.728 0 21.328 9.6 21.328 21.328s-9.6 21.328-21.328 21.328-21.328-9.6-21.328-21.328 9.6-21.328 21.328-21.328zM426.672 661.328c23.472 0 42.672 19.2 42.672 42.672s-19.2 42.672-42.672 42.672-42.672-19.2-42.672-42.672 19.2-42.672 42.672-42.672zM768 320c23.472 0 42.672 19.2 42.672 42.672s-19.2 42.672-42.672 42.672-42.672-19.2-42.672-42.672 19.2-42.672 42.672-42.672zM768 490.672c23.472 0 42.672 19.2 42.672 42.672s-19.2 42.672-42.672 42.672-42.672-19.2-42.672-42.672 19.2-42.672 42.672-42.672zM768 661.328c23.472 0 42.672 19.2 42.672 42.672s-19.2 42.672-42.672 42.672-42.672-19.2-42.672-42.672 19.2-42.672 42.672-42.672zM597.328 85.328c-11.728 0-21.328-9.6-21.328-21.328s9.6-21.328 21.328-21.328 21.328 9.6 21.328 21.328-9.6 21.328-21.328 21.328zM106.672 734.928l161.488-161.488c-4.048 1.28-7.888 2.56-12.16 2.56-23.472 0-42.672-19.2-42.672-42.672s19.2-42.672 42.672-42.672 42.672 19.2 42.672 42.672c0 4.272-1.28 8.112-2.352 12.16l119.888-119.888c-30.512-5.12-53.552-31.152-53.552-62.928 0-35.408 28.592-64 64-64 31.792 0 57.808 23.040 62.928 53.328l119.888-119.888c-3.84 1.28-7.888 2.56-12.16 2.56-23.472 0-42.672-19.2-42.672-42.672s19.2-42.672 42.672-42.672 42.672 19.2 42.672 42.672c0 4.272-1.28 8.112-2.352 12.16l161.28-161.488 54.4 54.4-692.272 692.272-54.4-54.4zM426.672 234.672c-23.472 0-42.672-19.2-42.672-42.672s19.2-42.672 42.672-42.672 42.672 19.2 42.672 42.672-19.2 42.672-42.672 42.672zM896 384c-11.728 0-21.328-9.6-21.328-21.328s9.6-21.328 21.328-21.328 21.328 9.6 21.328 21.328-9.6 21.328-21.328 21.328zM256 405.328c-23.472 0-42.672-19.2-42.672-42.672s19.2-42.672 42.672-42.672 42.672 19.2 42.672 42.672-19.2 42.672-42.672 42.672zM128 554.672c-11.728 0-21.328-9.6-21.328-21.328s9.6-21.328 21.328-21.328 21.328 9.6 21.328 21.328-9.6 21.328-21.328 21.328zM426.672 85.328c-11.728 0-21.328-9.6-21.328-21.328s9.6-21.328 21.328-21.328 21.328 9.6 21.328 21.328-9.6 21.328-21.328 21.328zM256 234.672c-23.472 0-42.672-19.2-42.672-42.672s19.2-42.672 42.672-42.672 42.672 19.2 42.672 42.672-19.2 42.672-42.672 42.672zM128 384c-11.728 0-21.328-9.6-21.328-21.328s9.6-21.328 21.328-21.328 21.328 9.6 21.328 21.328-9.6 21.328-21.328 21.328z" />
<glyph unicode="&#xe637;" d="M256 405.328c-23.472 0-42.672-19.2-42.672-42.672s19.2-42.672 42.672-42.672 42.672 19.2 42.672 42.672-19.2 42.672-42.672 42.672zM256 234.672c-23.472 0-42.672-19.2-42.672-42.672s19.2-42.672 42.672-42.672 42.672 19.2 42.672 42.672-19.2 42.672-42.672 42.672zM256 576c-23.472 0-42.672-19.2-42.672-42.672s19.2-42.672 42.672-42.672 42.672 19.2 42.672 42.672-19.2 42.672-42.672 42.672zM128 554.672c-11.728 0-21.328-9.6-21.328-21.328s9.6-21.328 21.328-21.328 21.328 9.6 21.328 21.328-9.6 21.328-21.328 21.328zM256 746.672c-23.472 0-42.672-19.2-42.672-42.672s19.2-42.672 42.672-42.672 42.672 19.2 42.672 42.672-19.2 42.672-42.672 42.672zM896 512c11.728 0 21.328 9.6 21.328 21.328s-9.6 21.328-21.328 21.328-21.328-9.6-21.328-21.328 9.6-21.328 21.328-21.328zM597.328 661.328c23.472 0 42.672 19.2 42.672 42.672s-19.2 42.672-42.672 42.672-42.672-19.2-42.672-42.672 19.2-42.672 42.672-42.672zM597.328 810.672c11.728 0 21.328 9.6 21.328 21.328s-9.6 21.328-21.328 21.328-21.328-9.6-21.328-21.328 9.6-21.328 21.328-21.328zM128 384c-11.728 0-21.328-9.6-21.328-21.328s9.6-21.328 21.328-21.328 21.328 9.6 21.328 21.328-9.6 21.328-21.328 21.328zM426.672 85.328c-11.728 0-21.328-9.6-21.328-21.328s9.6-21.328 21.328-21.328 21.328 9.6 21.328 21.328-9.6 21.328-21.328 21.328zM426.672 810.672c11.728 0 21.328 9.6 21.328 21.328s-9.6 21.328-21.328 21.328-21.328-9.6-21.328-21.328 9.6-21.328 21.328-21.328zM426.672 661.328c23.472 0 42.672 19.2 42.672 42.672s-19.2 42.672-42.672 42.672-42.672-19.2-42.672-42.672 19.2-42.672 42.672-42.672zM426.672 426.672c-35.408 0-64-28.592-64-64s28.592-64 64-64 64 28.592 64 64-28.592 64-64 64zM768 405.328c-23.472 0-42.672-19.2-42.672-42.672s19.2-42.672 42.672-42.672 42.672 19.2 42.672 42.672-19.2 42.672-42.672 42.672zM768 234.672c-23.472 0-42.672-19.2-42.672-42.672s19.2-42.672 42.672-42.672 42.672 19.2 42.672 42.672-19.2 42.672-42.672 42.672zM768 576c-23.472 0-42.672-19.2-42.672-42.672s19.2-42.672 42.672-42.672 42.672 19.2 42.672 42.672-19.2 42.672-42.672 42.672zM768 746.672c-23.472 0-42.672-19.2-42.672-42.672s19.2-42.672 42.672-42.672 42.672 19.2 42.672 42.672-19.2 42.672-42.672 42.672zM896 384c-11.728 0-21.328-9.6-21.328-21.328s9.6-21.328 21.328-21.328 21.328 9.6 21.328 21.328-9.6 21.328-21.328 21.328zM597.328 234.672c-23.472 0-42.672-19.2-42.672-42.672s19.2-42.672 42.672-42.672 42.672 19.2 42.672 42.672-19.2 42.672-42.672 42.672zM597.328 85.328c-11.728 0-21.328-9.6-21.328-21.328s9.6-21.328 21.328-21.328 21.328 9.6 21.328 21.328-9.6 21.328-21.328 21.328zM426.672 597.328c-35.408 0-64-28.592-64-64s28.592-64 64-64 64 28.592 64 64-28.592 64-64 64zM426.672 234.672c-23.472 0-42.672-19.2-42.672-42.672s19.2-42.672 42.672-42.672 42.672 19.2 42.672 42.672-19.2 42.672-42.672 42.672zM597.328 426.672c-35.408 0-64-28.592-64-64s28.592-64 64-64 64 28.592 64 64-28.592 64-64 64zM597.328 597.328c-35.408 0-64-28.592-64-64s28.592-64 64-64 64 28.592 64 64-28.592 64-64 64z" />
<glyph unicode="&#xe638;" d="M896 832v-832h-672c-53.024 0-96 42.976-96 96s42.976 96 96 96h608v768h-640c-70.4 0-128-57.6-128-128v-768c0-70.4 57.6-128 128-128h768v896h-64zM224.064 128v0c-0.016 0-0.032 0-0.064 0-17.664 0-32-14.32-32-32s14.336-32 32-32c0.016 0 0.032 0 0.064 0v0h607.888v64h-607.888z" />
<glyph unicode="&#xe639;" d="M224 832h-192c-17.6 0-32-14.4-32-32v-704c0-17.6 14.4-32 32-32h192c17.6 0 32 14.4 32 32v704c0 17.6-14.4 32-32 32zM192 640h-128v64h128v-64zM544 832h-192c-17.6 0-32-14.4-32-32v-704c0-17.6 14.4-32 32-32h192c17.6 0 32 14.4 32 32v704c0 17.6-14.4 32-32 32zM512 640h-128v64h128v-64zM765.088 782.528l-171.456-86.4c-15.712-7.92-22.096-27.264-14.176-42.976l287.984-571.552c7.92-15.712 27.264-22.096 42.976-14.176l171.472 86.4c15.712 7.92 22.096 27.264 14.176 42.976l-287.984 571.552c-7.92 15.712-27.264 22.096-42.976 14.176zM928 96c0-17.68-14.32-32-32-32s-32 14.32-32 32c0 17.68 14.32 32 32 32s32-14.32 32-32z" horiz-adv-x="1152" />
<glyph unicode="&#xe63a;" d="M128 832v-768h768v768h-768zM469.328 149.328h-256v256h256v-256zM469.328 490.672h-256v256h256v-256zM810.672 149.328h-256v256h256v-256zM810.672 490.672h-256v256h256v-256z" />
<glyph unicode="&#xe63b;" d="M298.672 362.672c-70.608 0-128-57.392-128-128 0-55.888-49.28-85.328-85.328-85.328 39.248-52.048 106.448-85.328 170.672-85.328 94.288 0 170.672 76.368 170.672 170.672 0 70.608-57.392 128-128 128zM883.408 762.448l-56.96 56.96c-16.64 16.64-43.728 16.64-60.368 0l-382.080-382.080 117.328-117.328 382.080 382.080c16.848 16.848 16.848 43.728 0 60.368z" />
<glyph unicode="&#xe63c;" d="M512 896c282.768 0 512-186.256 512-416s-229.232-416-512-416c-27.152 0-53.808 1.728-79.824 5.040-109.984-109.984-241.248-129.696-368.176-132.592v26.912c68.544 33.584 128 94.736 128 164.64 0 9.76-0.752 19.328-2.16 28.704-115.792 76.272-189.84 192.752-189.84 323.296 0 229.744 229.232 416 512 416z" />
<glyph unicode="&#xe63d;" d="M512 768c-54.928 0-107.984-8.656-157.696-25.744-46.704-16.048-88.304-38.736-123.632-67.44-66.208-53.792-102.672-122.976-102.672-194.816 0-40.304 11.184-79.376 33.248-116.16 22.752-37.92 56.976-72.592 98.992-100.256 30.352-19.984 50.784-51.952 56.176-87.888 1.808-11.984 2.928-24.080 3.376-36.128 7.472 6.192 14.752 12.848 21.872 19.968 24.16 24.16 56.784 37.488 90.496 37.488 5.36 0 10.768-0.336 16.16-1.024 20.976-2.672 42.4-4.016 63.68-4.016 54.928 0 107.984 8.656 157.696 25.744 46.704 16.048 88.304 38.752 123.632 67.44 66.208 53.792 102.672 122.992 102.672 194.816s-36.464 141.008-102.672 194.816c-35.328 28.704-76.912 51.392-123.632 67.44-49.712 17.072-102.752 25.744-157.696 25.744zM512 896v0c282.768 0 512-186.256 512-416s-229.232-416-512-416c-27.152 0-53.808 1.728-79.824 5.040-109.984-109.984-241.248-129.696-368.176-132.592v26.912c68.544 33.584 128 94.736 128 164.64 0 9.76-0.752 19.328-2.16 28.704-115.792 76.272-189.84 192.752-189.84 323.296 0 229.744 229.232 416 512 416z" />
<glyph unicode="&#xe63f;" d="M480 960v0c265.104 0 480-173.92 480-388.448s-214.896-388.448-480-388.448c-25.456 0-50.448 1.616-74.832 4.704-103.104-102.688-222.176-121.104-341.168-123.808v25.136c64.256 31.36 116 88.464 116 153.728 0 9.104-0.704 18.048-2.032 26.8-108.56 71.216-177.968 179.984-177.968 301.888 0 214.528 214.896 388.448 480 388.448zM996 89.312c0-55.936 36.32-104.896 92-131.776v-21.536c-103.12 2.32-197.792 18.096-287.136 106.128-21.136-2.656-42.8-4.032-64.864-4.032-95.472 0-183.408 25.76-253.616 69.040 144.672 0.512 281.264 46.848 384.832 130.672 52.208 42.256 93.392 91.824 122.416 147.344 30.768 58.864 46.368 121.584 46.368 186.4 0 10.448-0.448 20.832-1.264 31.168 72.576-59.936 117.264-141.616 117.264-231.68 0-104.48-60.16-197.728-154.24-258.768-1.136-7.488-1.76-15.152-1.76-22.96z" horiz-adv-x="1152" />
<glyph unicode="&#xe641;" d="M480 832c-50.672 0-99.584-7.952-145.392-23.632-42.928-14.688-81.12-35.44-113.504-61.648-60.048-48.592-93.104-110.8-93.104-175.168 0-35.984 10.064-70.944 29.92-103.904 20.688-34.336 51.904-65.792 90.256-90.96 30.432-19.968 50.928-51.952 56.368-87.952 0.896-5.984 1.632-12 2.176-18.032 2.72 2.512 5.424 5.12 8.112 7.792 24.144 24.032 56.688 37.312 90.32 37.312 5.344 0 10.72-0.336 16.096-1.024 19.36-2.448 39.12-3.696 58.752-3.696 50.672 0 99.584 7.952 145.392 23.632 42.928 14.688 81.12 35.44 113.504 61.648 60.048 48.592 93.104 110.8 93.104 175.168s-33.072 126.576-93.104 175.168c-32.384 26.208-70.576 46.944-113.504 61.648-45.808 15.68-94.72 23.632-145.392 23.632zM480 960v0c265.104 0 480-173.92 480-388.448s-214.896-388.448-480-388.448c-25.456 0-50.448 1.616-74.832 4.704-103.104-102.688-222.176-121.104-341.168-123.808v25.136c64.256 31.36 116 88.464 116 153.728 0 9.104-0.704 18.048-2.032 26.8-108.56 71.216-177.968 179.984-177.968 301.888 0 214.528 214.896 388.448 480 388.448zM996 89.312c0-55.936 36.32-104.896 92-131.776v-21.536c-103.12 2.32-197.792 18.096-287.136 106.128-21.136-2.656-42.8-4.032-64.864-4.032-95.472 0-183.408 25.76-253.616 69.040 144.672 0.512 281.264 46.848 384.832 130.672 52.208 42.256 93.392 91.824 122.416 147.344 30.768 58.864 46.368 121.584 46.368 186.4 0 10.448-0.448 20.832-1.264 31.168 72.576-59.936 117.264-141.616 117.264-231.68 0-104.48-60.16-197.728-154.24-258.768-1.136-7.488-1.76-15.152-1.76-22.96z" horiz-adv-x="1152" />
<glyph unicode="&#xe642;" d="M512 661.328v170.672h-426.672v-768h853.328v597.328h-426.672zM256 149.328h-85.328v85.328h85.328v-85.328zM256 320h-85.328v85.328h85.328v-85.328zM256 490.672h-85.328v85.328h85.328v-85.328zM256 661.328h-85.328v85.328h85.328v-85.328zM426.672 149.328h-85.328v85.328h85.328v-85.328zM426.672 320h-85.328v85.328h85.328v-85.328zM426.672 490.672h-85.328v85.328h85.328v-85.328zM426.672 661.328h-85.328v85.328h85.328v-85.328zM853.328 149.328h-341.328v85.328h85.328v85.328h-85.328v85.328h85.328v85.328h-85.328v85.328h341.328v-426.672zM768 490.672h-85.328v-85.328h85.328v85.328zM768 320h-85.328v-85.328h85.328v85.328z" />
<glyph unicode="&#xe643;" d="M810.672 618.672l-170.672-170.672h128c0-141.44-114.56-256-256-256-43.312 0-83.84 10.88-119.68 29.648l-62.288-62.288c52.912-33.072 114.992-52.688 181.968-52.688 188.592 0 341.328 152.752 341.328 341.328h128l-170.672 170.672zM256 448c0 141.44 114.56 256 256 256 43.312 0 83.84-10.88 119.68-29.648l62.288 62.288c-52.912 33.072-114.992 52.688-181.968 52.688-188.592 0-341.328-152.752-341.328-341.328h-128l170.672-170.672 170.672 170.672h-128z" />
<glyph unicode="&#xe644;" d="M512 661.328c47.152 0 85.328 38.192 85.328 85.328 0 16-4.48 31.152-12.16 43.952l-73.168 126.72-73.168-126.72c-7.68-12.8-12.16-27.952-12.16-43.952 0-47.152 38.192-85.328 85.328-85.328zM896 64v170.672c0 47.152-38.192 85.328-85.328 85.328h-42.672v128c0 47.152-38.192 85.328-85.328 85.328h-128v85.328h-85.328v-85.328h-128c-47.152 0-85.328-38.192-85.328-85.328v-128h-42.672c-47.152 0-85.328-38.192-85.328-85.328v-170.672h-85.328v-85.328h938.672v85.328h-85.328z" />
<glyph unicode="&#xe645;" d="M384 896h-320c-35.2 0-64-28.8-64-64v-320c0-35.2 28.8-64 64-64h320c35.2 0 64 28.8 64 64v320c0 35.2-28.8 64-64 64zM384 640h-320v64h320v-64zM896 896h-320c-35.2 0-64-28.8-64-64v-832c0-35.2 28.8-64 64-64h320c35.2 0 64 28.8 64 64v832c0 35.2-28.8 64-64 64zM896 320h-320v64h320v-64zM896 512h-320v64h320v-64zM384 384h-320c-35.2 0-64-28.8-64-64v-320c0-35.2 28.8-64 64-64h320c35.2 0 64 28.8 64 64v320c0 35.2-28.8 64-64 64zM384 128h-128v-128h-64v128h-128v64h128v128h64v-128h128v-64z" />
<glyph unicode="&#xe646;" d="M320 576h128v-128h-128zM512 576h128v-128h-128zM704 576h128v-128h-128zM128 192h128v-128h-128zM320 192h128v-128h-128zM512 192h128v-128h-128zM320 384h128v-128h-128zM512 384h128v-128h-128zM704 384h128v-128h-128zM128 384h128v-128h-128zM832 960v-64h-128v64h-448v-64h-128v64h-128v-1024h960v1024h-128zM896 0h-832v704h832v-704z" />
<glyph unicode="&#xe647;" d="M282.672 499.408c61.44-120.752 160.208-219.52 281.168-280.96l93.872 94.080c11.728 11.728 28.592 15.152 43.312 10.448 47.792-15.792 99.2-24.32 152.32-24.32 23.68 0 42.672-18.992 42.672-42.672v-149.328c0-23.68-18.992-42.672-42.672-42.672-400.64 0-725.328 324.688-725.328 725.328 0 23.68 19.2 42.672 42.672 42.672h149.328c23.68 0 42.672-18.992 42.672-42.672 0-53.12 8.528-104.528 24.32-152.32 4.688-14.72 1.28-31.568-10.448-43.312l-93.872-94.288z" />
<glyph unicode="&#xe648;" d="M304 352c0-114.88 93.12-208 208-208s208 93.12 208 208-93.12 208-208 208-208-93.12-208-208zM960 704h-224c-16 64-32 128-96 128h-256c-64 0-80-64-96-128h-224c-35.2 0-64-28.8-64-64v-576c0-35.2 28.8-64 64-64h896c35.2 0 64 28.8 64 64v576c0 35.2-28.8 64-64 64zM512 68c-156.848 0-284 127.152-284 284s127.152 284 284 284c156.848 0 284-127.152 284-284s-127.152-284-284-284zM960 512h-128v64h128v-64z" />
<glyph unicode="&#xe649;" d="M401.072 512l203.312 352.208c-29.648 6.608-60.592 10.448-92.368 10.448-102.4 0-196.048-36.048-269.648-96.208l156.368-270.72 2.352 4.272zM919.040 576c-39.248 124.8-134.4 224.432-255.792 270.512l-156.16-270.512h411.952zM930.128 533.328h-319.568l12.368-21.328 203.312-352c69.552 75.952 112.432 176.848 112.432 288 0 29.232-2.992 57.808-8.528 85.328zM364.16 448l-166.4 288c-69.552-75.952-112.432-176.848-112.432-288 0-29.232 2.992-57.808 8.528-85.328h319.568l-49.28 85.328zM104.96 320c39.248-124.8 134.4-224.432 255.792-270.512l156.16 270.512h-411.952zM585.808 320l-166.4-288.208c29.872-6.608 60.8-10.448 92.592-10.448 102.4 0 196.048 36.048 269.648 96.208l-156.368 270.72-39.472-68.272z" />
<glyph unicode="&#xe64a;" d="M648.528 448c0-75.408-61.136-136.528-136.528-136.528s-136.528 61.136-136.528 136.528c0 75.408 61.12 136.528 136.528 136.528s136.528-61.12 136.528-136.528zM384 874.672l-78.080-85.328h-135.248c-47.152 0-85.328-38.192-85.328-85.328v-512c0-47.152 38.192-85.328 85.328-85.328h682.672c47.152 0 85.328 38.192 85.328 85.328v512c0 47.152-38.192 85.328-85.328 85.328h-135.248l-78.080 85.328h-256zM512 234.672c-117.76 0-213.328 95.568-213.328 213.328s95.568 213.328 213.328 213.328 213.328-95.568 213.328-213.328-95.568-213.328-213.328-213.328z" />
<glyph unicode="&#xe64b;" d="M426.672 106.672h-213.328v-85.328h213.328v-85.328l128 128-128 128v-85.328zM597.328 106.672v-85.328h213.328v85.328h-213.328zM512 618.672c47.152 0 85.328 38.192 85.328 85.328s-38.192 85.328-85.328 85.328-85.12-38.192-85.12-85.328c0.208-47.152 37.968-85.328 85.12-85.328zM725.328 960h-426.672c-47.152 0-85.328-38.192-85.328-85.328v-597.328c0-47.152 38.192-85.328 85.328-85.328h426.672c47.152 0 85.328 38.192 85.328 85.328v597.328c0 47.152-38.192 85.328-85.328 85.328zM298.672 874.672h426.672v-448c0 71.040-142.288 106.672-213.328 106.672s-213.328-35.632-213.328-106.672v448z" />
<glyph unicode="&#xe64c;" d="M597.328 746.672c0 47.152-38.192 85.328-85.328 85.328h-42.672v42.672c0 23.472-19.2 42.672-42.672 42.672h-170.672c-23.472 0-42.672-19.2-42.672-42.672v-42.672h-42.672c-47.152 0-85.328-38.192-85.328-85.328v-640c0-47.152 38.192-85.328 85.328-85.328h341.328c47.152 0 85.328 38.192 85.328 85.328h341.328v640h-341.328zM512 192h-85.328v85.328h85.328v-85.328zM512 576h-85.328v85.328h85.328v-85.328zM682.672 192h-85.328v85.328h85.328v-85.328zM682.672 576h-85.328v85.328h85.328v-85.328zM853.328 192h-85.328v85.328h85.328v-85.328zM853.328 576h-85.328v85.328h85.328v-85.328z" />
<glyph unicode="&#xe64d;" d="M512 874.672c-235.728 0-426.672-190.928-426.672-426.672s190.928-426.672 426.672-426.672 426.672 190.928 426.672 426.672-190.928 426.672-426.672 426.672zM725.328 295.040l-60.368-60.368-152.96 152.96-152.96-152.96-60.368 60.368 152.96 152.96-152.96 152.96 60.368 60.368 152.96-152.96 152.96 152.96 60.368-60.368-152.96-152.96 152.96-152.96z" />
<glyph unicode="&#xe64e;" d="M512 960c-282.768 0-512-229.232-512-512s229.232-512 512-512 512 229.232 512 512-229.232 512-512 512zM512 32c-229.744 0-416 186.256-416 416s186.256 416 416 416 416-186.256 416-416-186.256-416-416-416zM672 704l-160-160-160 160-96-96 160-160-160-160 96-96 160 160 160-160 96 96-160 160 160 160z" />
<glyph unicode="&#xe64f;" d="M384 32c0-53.024-42.976-96-96-96s-96 42.976-96 96c0 53.024 42.976 96 96 96s96-42.976 96-96zM1024 32c0-53.024-42.976-96-96-96s-96 42.976-96 96c0 53.024 42.976 96 96 96s96-42.976 96-96zM1024 448v384h-768c0 35.344-28.656 64-64 64h-192v-64h128l48.080-412.048c-29.296-23.456-48.080-59.504-48.080-99.952 0-70.704 57.312-128 128-128h768v64h-768c-35.344 0-64 28.656-64 64 0 0.224 0.016 0.432 0.016 0.656l831.984 127.344z" />
<glyph unicode="&#xe650;" d="M512 618.672c-94.288 0-170.672-76.368-170.672-170.672s76.368-170.672 170.672-170.672 170.672 76.368 170.672 170.672-76.368 170.672-170.672 170.672zM213.328 320h-85.328v-170.672c0-47.152 38.192-85.328 85.328-85.328h170.672v85.328h-170.672v170.672zM213.328 746.672h170.672v85.328h-170.672c-47.152 0-85.328-38.192-85.328-85.328v-170.672h85.328v170.672zM810.672 832h-170.672v-85.328h170.672v-170.672h85.328v170.672c0 47.152-38.192 85.328-85.328 85.328zM810.672 149.328h-170.672v-85.328h170.672c47.152 0 85.328 38.192 85.328 85.328v170.672h-85.328v-170.672z" />
<glyph unicode="&#xe651;" d="M213.328 320h-85.328v-170.672c0-47.152 38.192-85.328 85.328-85.328h170.672v85.328h-170.672v170.672zM213.328 746.672h170.672v85.328h-170.672c-47.152 0-85.328-38.192-85.328-85.328v-170.672h85.328v170.672zM810.672 832h-170.672v-85.328h170.672v-170.672h85.328v170.672c0 47.152-38.192 85.328-85.328 85.328zM810.672 149.328h-170.672v-85.328h170.672c47.152 0 85.328 38.192 85.328 85.328v170.672h-85.328v-170.672zM512 618.672c-94.288 0-170.672-76.368-170.672-170.672s76.368-170.672 170.672-170.672 170.672 76.368 170.672 170.672-76.368 170.672-170.672 170.672zM512 362.672c-47.152 0-85.328 38.192-85.328 85.328s38.192 85.328 85.328 85.328 85.328-38.192 85.328-85.328-38.192-85.328-85.328-85.328z" />
<glyph unicode="&#xe652;" d="M384 270.080l-177.92 177.92-60.368-60.368 238.288-238.288 512 512-60.368 60.368z" />
<glyph unicode="&#xe653;" d="M896 960h-768c-70.4 0-128-57.6-128-128v-768c0-70.4 57.6-128 128-128h768c70.4 0 128 57.6 128 128v768c0 70.4-57.6 128-128 128zM448 165.488l-237.248 237.248 90.512 90.512 146.736-146.736 306.752 306.752 90.512-90.512-397.248-397.248z" />
<glyph unicode="&#xe654;" d="M896 960h-768c-70.4 0-128-57.6-128-128v-768c0-70.4 57.6-128 128-128h768c70.4 0 128 57.6 128 128v768c0 70.4-57.6 128-128 128zM896 64h-768v768h768v-768z" />
<glyph unicode="&#xe655;" d="M657.712 643.632l-60.368 60.368-256-256 256-256 60.368 60.368-195.632 195.632z" />
<glyph unicode="&#xe656;" d="M426.672 704l-60.368-60.368 195.632-195.632-195.632-195.632 60.368-60.368 256 256z" />
<glyph unicode="&#xe657;" d="M258.272 513.456l-146.528 253.808c93.824 117.456 238.24 192.736 400.256 192.736 187.44 0 351.312-100.736 440.528-251.008h-417.776c-7.504 0.656-15.088 1.008-22.768 1.008-121.872 0-224.576-83.648-253.728-196.544zM695.312 634.992h293.456c22.736-57.936 35.232-121.008 35.232-187.008 0-280.832-226.096-508.8-506.192-511.92l209.392 362.672c29.488 42.384 46.8 93.824 46.8 149.248 0 73.168-30.16 139.424-78.688 187.008zM326 448c0 102.56 83.44 186 186 186s186-83.44 186-186c0-102.56-83.44-186-186-186s-186 83.44-186 186zM582.176 195.552l-146.576-253.872c-246.528 36.88-435.6 249.52-435.6 506.32 0 91.216 23.888 176.848 65.696 251.024l209.024-362.048c41.872-89.104 132.48-150.976 237.28-150.976 24.304 0 47.84 3.344 70.176 9.552z" />
<glyph unicode="&#xe658;" d="M1024 448c0 282.768-229.232 512-512 512s-512-229.232-512-512 229.232-512 512-512 512 229.232 512 512zM96 448c0 229.744 186.256 416 416 416s416-186.256 416-416-186.256-416-416-416-416 186.256-416 416zM317.248 605.248l-90.512-90.512 285.248-285.248 285.248 285.248-90.512 90.512-194.752-194.736z" />
<glyph unicode="&#xe659;" d="M512-64c282.768 0 512 229.232 512 512s-229.232 512-512 512-512-229.232-512-512 229.232-512 512-512zM512 864c229.744 0 416-186.256 416-416s-186.256-416-416-416-416 186.256-416 416 186.256 416 416 416zM669.248 642.752l-90.512 90.512-285.248-285.248 285.248-285.248 90.512 90.512-194.752 194.752z" />
<glyph unicode="&#xe65a;" d="M512 960c-282.768 0-512-229.232-512-512s229.232-512 512-512 512 229.232 512 512-229.232 512-512 512zM512 32c-229.744 0-416 186.256-416 416s186.256 416 416 416 416-186.256 416-416-186.256-416-416-416zM354.752 253.248l90.512-90.512 285.248 285.248-285.248 285.248-90.512-90.512 194.736-194.752z" />
<glyph unicode="&#xe65b;" d="M0 448c0-282.768 229.232-512 512-512s512 229.232 512 512-229.232 512-512 512-512-229.232-512-512zM928 448c0-229.744-186.256-416-416-416s-416 186.256-416 416 186.256 416 416 416 416-186.256 416-416zM706.752 290.752l90.512 90.512-285.248 285.248-285.248-285.248 90.512-90.512 194.752 194.752z" />
<glyph unicode="&#xe65c;" d="M810.672 686.288l-60.368 60.368-238.288-238.288-238.288 238.288-60.368-60.368 238.288-238.288-238.288-238.288 60.368-60.368 238.288 238.288 238.288-238.288 60.368 60.368-238.288 238.288z" />
<glyph unicode="&#xe65d;" d="M213.328 405.328h597.328v85.328h-597.328v-85.328zM128 234.672h597.328v85.328h-597.328v-85.328zM298.672 661.328v-85.328h597.328v85.328h-597.328z" />
<glyph unicode="&#xe65e;" d="M928 832h-288c0 70.688-57.312 128-128 128s-128-57.312-128-128h-288c-17.664 0-32-14.336-32-32v-832c0-17.68 14.336-32 32-32h832c17.68 0 32 14.32 32 32v832c0 17.664-14.32 32-32 32zM512 896c35.344 0 64-28.656 64-64s-28.656-64-64-64c-35.344 0-64 28.656-64 64s28.656 64 64 64zM896 0h-768v768h128v-96c0-17.68 14.32-32 32-32h448c17.68 0 32 14.32 32 32v96h128v-768zM448 101.488l-205.248 237.248 58.512 58.512 146.752-114.752 274.736 242.752 58.512-58.512z" />
<glyph unicode="&#xe65f;" d="M658.752 210.752l-210.752 210.752v282.512h128v-229.488l173.248-173.248zM512 960c-282.768 0-512-229.232-512-512s229.232-512 512-512 512 229.232 512 512-229.232 512-512 512zM512 64c-212.080 0-384 171.92-384 384s171.92 384 384 384c212.080 0 384-171.92 384-384s-171.92-384-384-384z" />
<glyph unicode="&#xe660;" d="M810.672 686.288l-60.368 60.368-238.288-238.288-238.288 238.288-60.368-60.368 238.288-238.288-238.288-238.288 60.368-60.368 238.288 238.288 238.288-238.288 60.368 60.368-238.288 238.288z" />
<glyph unicode="&#xe661;" d="M810.672 789.328h-597.328c-47.152 0-85.328-38.192-85.328-85.328v-512c0-47.152 38.192-85.328 85.328-85.328h597.328c47.152 0 85.328 38.192 85.328 85.328v512c0 47.152-38.192 85.328-85.328 85.328zM469.328 490.672h-64v21.328h-85.328v-128h85.328v21.328h64v-42.672c0-23.472-18.992-42.672-42.672-42.672h-128c-23.68 0-42.672 19.2-42.672 42.672v170.672c0 23.472 18.992 42.672 42.672 42.672h128c23.68 0 42.672-19.2 42.672-42.672v-42.672zM768 490.672h-64v21.328h-85.328v-128h85.328v21.328h64v-42.672c0-23.472-18.992-42.672-42.672-42.672h-128c-23.68 0-42.672 19.2-42.672 42.672v170.672c0 23.472 18.992 42.672 42.672 42.672h128c23.68 0 42.672-19.2 42.672-42.672v-42.672z" />
<glyph unicode="&#xe662;" d="M825.808 531.84c-29.008 146.768-158.512 257.488-313.808 257.488-123.312 0-230.192-69.968-283.728-172.16-128.208-13.872-228.272-122.448-228.272-254.512 0-141.44 114.56-256 256-256h554.672c117.76 0 213.328 95.568 213.328 213.328 0 112.64-87.68 203.952-198.192 211.84z" />
<glyph unicode="&#xe663;" d="M512 874.672c-235.728 0-426.672-190.928-426.672-426.672s190.928-426.672 426.672-426.672 426.672 190.928 426.672 426.672-190.928 426.672-426.672 426.672zM704 277.328h-362.672c-70.608 0-128 57.392-128 128s57.392 128 128 128l5.76-0.64c18.992 73.808 85.328 128.64 164.912 128.64 94.288 0 170.672-76.368 170.672-170.672h21.328c58.88 0 106.672-47.792 106.672-106.672s-47.792-106.672-106.672-106.672z" />
<glyph unicode="&#xe664;" d="M825.808 531.84c-29.008 146.768-158.512 257.488-313.808 257.488-123.312 0-230.192-69.968-283.728-172.16-128.208-13.872-228.272-122.448-228.272-254.512 0-141.44 114.56-256 256-256h554.672c117.76 0 213.328 95.568 213.328 213.328 0 112.64-87.68 203.952-198.192 211.84zM426.672 234.672l-149.328 149.328 60.368 60.368 88.96-88.96 220.8 220.8 60.368-60.368-281.168-281.168z" />
<glyph unicode="&#xe665;" d="M825.808 531.84c-29.008 146.768-158.512 257.488-313.808 257.488-123.312 0-230.192-69.968-283.728-172.16-128.208-13.872-228.272-122.448-228.272-254.512 0-141.44 114.56-256 256-256h554.672c117.76 0 213.328 95.568 213.328 213.328 0 112.64-87.68 203.952-198.192 211.84zM725.328 405.328l-213.328-213.328-213.328 213.328h128v170.672h170.672v-170.672h128z" />
<glyph unicode="&#xe666;" d="M825.808 531.84c-29.008 146.768-158.512 257.488-313.808 257.488-62.928 0-121.6-18.56-171.088-49.92l62.288-62.288c32.64 16.848 69.552 26.88 108.8 26.88 129.712 0 234.672-104.96 234.672-234.672v-21.328h64c70.608 0 128-57.392 128-128 0-48.432-27.088-90.032-66.768-111.792l61.872-61.872c54.4 38.608 90.24 101.76 90.24 173.648 0 112.64-87.68 203.952-198.192 211.84zM128 734.928l117.328-116.912c-136.112-5.76-245.328-117.76-245.328-255.36 0-141.44 114.56-256 256-256h500.272l85.328-85.328 54.4 54.192-713.6 713.808-54.4-54.4zM329.6 533.328l341.328-341.328h-414.928c-94.288 0-170.672 76.368-170.672 170.672s76.368 170.672 170.672 170.672h73.6z" />
<glyph unicode="&#xe667;" d="M825.808 531.84c-29.008 146.768-158.512 257.488-313.808 257.488-123.312 0-230.192-69.968-283.728-172.16-128.208-13.872-228.272-122.448-228.272-254.512 0-141.44 114.56-256 256-256h554.672c117.76 0 213.328 95.568 213.328 213.328 0 112.64-87.68 203.952-198.192 211.84zM810.672 192h-554.672c-94.288 0-170.672 76.368-170.672 170.672s76.368 170.672 170.672 170.672h30.288c27.952 98.352 118.192 170.672 225.712 170.672 129.712 0 234.672-104.96 234.672-234.672v-21.328h64c70.608 0 128-57.392 128-128s-57.392-128-128-128z" />
<glyph unicode="&#xe668;" d="M825.808 531.84c-29.008 146.768-158.512 257.488-313.808 257.488-123.312 0-230.192-69.968-283.728-172.16-128.208-13.872-228.272-122.448-228.272-254.512 0-141.44 114.56-256 256-256h554.672c117.76 0 213.328 95.568 213.328 213.328 0 112.64-87.68 203.952-198.192 211.84zM597.328 405.328v-170.672h-170.672v170.672h-128l213.328 213.328 213.328-213.328h-128z" />
<glyph unicode="&#xe669;" d="M945.744 591.952l-448 298.672c-10.752 7.168-24.752 7.168-35.504 0l-448-298.672c-8.896-5.936-14.256-15.92-14.256-26.624v-298.672c0-10.704 5.344-20.688 14.256-26.624l448-298.672c5.376-3.584 11.568-5.376 17.744-5.376s12.368 1.792 17.744 5.376l448 298.672c8.896 5.936 14.256 15.92 14.256 26.624v298.672c0 10.704-5.344 20.688-14.256 26.624zM480 305.12l-166.32 110.88 166.32 110.88 166.32-110.88-166.32-110.88zM512 582.464v221.744l358.304-238.88-166.304-110.88-192 128zM448 582.464l-192-128-166.32 110.88 358.32 238.88v-221.744zM198.32 416l-134.32-89.536v179.088l134.32-89.536zM256 377.536l192-128v-221.744l-358.32 238.88 166.32 110.88zM512 249.536l192 128 166.32-110.88-358.32-238.88v221.744zM761.68 416l134.32 89.536v-179.088l-134.32 89.536z" />
<glyph unicode="&#xe66a;" d="M480 896c-265.104 0-480-214.896-480-480s214.896-480 480-480c265.104 0 480 214.896 480 480s-214.896 480-480 480zM480 32c-212.080 0-384 171.92-384 384s171.92 384 384 384c212.080 0 384-171.92 384-384s-171.92-384-384-384zM512 448v128h128v64h-128v64h-64v-64h-128v-256h128v-128h-128v-64h128v-64h64v64h128v256h-128zM448 448h-64v128h64v-128zM576 256h-64v128h64v-128z" />
<glyph unicode="&#xe66b;" d="M480 896c-265.104 0-480-214.896-480-480s214.896-480 480-480c265.104 0 480 214.896 480 480s-214.896 480-480 480zM480 32c-212.080 0-384 171.92-384 384s171.92 384 384 384c212.080 0 384-171.92 384-384s-171.92-384-384-384zM670.816 315.664c-15.264 8.88-34.864 3.712-43.744-11.568-17.248-29.664-49.088-48.096-83.072-48.096h-128c-41.712 0-77.28 26.752-90.496 64h154.496c17.68 0 32 14.32 32 32s-14.32 32-32 32h-160v64h160c17.68 0 32 14.32 32 32s-14.32 32-32 32h-154.496c13.216 37.248 48.784 64 90.496 64h128c33.984 0 65.824-18.432 83.072-48.096 8.896-15.28 28.48-20.464 43.744-11.568s20.464 28.48 11.568 43.76c-28.672 49.296-81.696 79.904-138.4 79.904h-128c-77.264 0-141.92-55.056-156.784-128h-35.216c-17.664 0-32-14.32-32-32s14.336-32 32-32h32v-64h-32c-17.664 0-32-14.32-32-32s14.336-32 32-32h35.216c14.864-72.944 79.52-128 156.784-128h128c56.688 0 109.728 30.624 138.4 79.904 8.896 15.28 3.712 34.864-11.568 43.744z" />
<glyph unicode="&#xe66c;" d="M480 896c-265.104 0-480-214.896-480-480s214.896-480 480-480c265.104 0 480 214.896 480 480s-214.896 480-480 480zM480 32c-212.080 0-384 171.92-384 384s171.92 384 384 384c212.080 0 384-171.92 384-384s-171.92-384-384-384zM608 256h-224v128h96c17.68 0 32 14.32 32 32s-14.32 32-32 32h-96v32c0 52.928 43.072 96 96 96 34.176 0 66.048-18.4 83.184-48.032 8.848-15.296 28.432-20.528 43.728-11.68s20.528 28.416 11.68 43.728c-28.544 49.344-81.632 79.984-138.576 79.984-88.224 0-160-71.776-160-160v-32h-32c-17.68 0-32-14.32-32-32s14.32-32 32-32h32v-192h288c17.68 0 32 14.32 32 32s-14.32 32-32 32z" />
<glyph unicode="&#xe66d;" d="M480 896c-265.104 0-480-214.896-480-480s214.896-480 480-480c265.104 0 480 214.896 480 480s-214.896 480-480 480zM480 32c-212.080 0-384 171.92-384 384s171.92 384 384 384c212.080 0 384-171.92 384-384s-171.92-384-384-384zM608 384c17.68 0 32 14.32 32 32s-14.32 32-32 32h-68.208l94.832 142.256c9.808 14.704 5.824 34.576-8.88 44.368s-34.576 5.824-44.368-8.88l-101.376-152.064-101.376 152.064c-9.808 14.704-29.68 18.688-44.368 8.88s-18.672-29.68-8.88-44.368l94.832-142.256h-68.208c-17.68 0-32-14.32-32-32s14.32-32 32-32h96v-64h-96c-17.68 0-32-14.32-32-32s14.32-32 32-32h96v-96c0-17.68 14.32-32 32-32s32 14.32 32 32v96h96c17.68 0 32 14.32 32 32s-14.32 32-32 32h-96v64h96z" />
<glyph unicode="&#xe66e;" d="M938.672 277.328v512c0 47.152-38.192 85.328-85.328 85.328h-512c-47.152 0-85.328-38.192-85.328-85.328v-512c0-47.152 38.192-85.328 85.328-85.328h512c47.152 0 85.328 38.192 85.328 85.328zM469.328 448l86.608-115.632 126.72 158.288 170.672-213.328h-512l128 170.672zM85.328 704v-597.328c0-47.152 38.192-85.328 85.328-85.328h597.328v85.328h-597.328v597.328h-85.328z" />
<glyph unicode="&#xe66f;" d="M883.408 719.792l-99.632 99.632c-16.64 16.64-43.728 16.64-60.368 0l-133.328-133.328-81.712 81.92-60.368-60.368 60.592-60.592-380.592-380.368v-202.672h202.672l380.592 380.592 60.368-60.592 60.368 60.368-81.92 81.92 133.328 133.328c16.848 16.64 16.848 43.52 0 60.16zM295.248 149.328l-81.92 81.92 344.112 344.112 81.92-81.92-344.112-344.112z" />
<glyph unicode="&#xe670;" d="M512 832c-212.048 0-384-171.952-384-384s171.952-384 384-384c35.408 0 64 28.592 64 64 0 16.64-6.192 31.568-16.64 42.88-10.032 11.312-16 26.032-16 42.448 0 35.408 28.592 64 64 64h75.312c117.76 0 213.328 95.568 213.328 213.328 0 188.592-171.952 341.328-384 341.328zM277.328 448c-35.408 0-64 28.592-64 64s28.592 64 64 64 64-28.592 64-64-28.592-64-64-64zM405.328 618.672c-35.408 0-64 28.592-64 64s28.592 64 64 64 64-28.592 64-64-28.592-64-64-64zM618.672 618.672c-35.408 0-64 28.592-64 64s28.592 64 64 64 64-28.592 64-64-28.592-64-64-64zM746.672 448c-35.408 0-64 28.592-64 64s28.592 64 64 64 64-28.592 64-64-28.592-64-64-64z" />
<glyph unicode="&#xe671;" d="M938.24 789.328c0 47.152-37.76 85.328-84.912 85.328h-682.672c-47.152 0-85.328-38.192-85.328-85.328v-512c0-47.152 38.192-85.328 85.328-85.328h597.328l170.672-170.672-0.432 768zM768 362.672h-512v85.328h512v-85.328zM768 490.672h-512v85.328h512v-85.328zM768 618.672h-512v85.328h512v-85.328z" />
<glyph unicode="&#xe672;" d="M544.016-64c-2.304 0-4.624 0.256-6.944 0.768-14.656 3.248-25.072 16.24-25.072 31.248v480h-480c-15.008 0-28 10.416-31.232 25.072s4.112 29.584 17.712 35.92l960 448c12.192 5.68 26.64 3.152 36.16-6.368s12.064-23.968 6.368-36.16l-448-960c-5.344-11.44-16.768-18.464-28.992-18.464zM176.24 512h367.76c17.68 0 32-14.32 32-32v-367.76l349.792 749.552-749.552-349.792z" />
<glyph unicode="&#xe673;" d="M853.328 192c47.152 0 84.912 38.192 84.912 85.328l0.432 426.672c0 47.152-38.192 85.328-85.328 85.328h-682.672c-47.152 0-85.328-38.192-85.328-85.328v-426.672c0-47.152 38.192-85.328 85.328-85.328h-170.672v-85.328h1024v85.328h-170.672zM170.672 704h682.672v-426.672h-682.672v426.672z" />
<glyph unicode="&#xe674;" d="M853.328 960h-682.672v-85.328h682.672v85.328zM170.672-64h682.672v85.328h-682.672v-85.328zM853.328 789.328h-682.672c-47.152 0-85.328-38.192-85.328-85.328v-512c0-47.152 38.192-85.328 85.328-85.328h682.672c47.152 0 85.328 38.192 85.328 85.328v512c0 47.152-38.192 85.328-85.328 85.328zM512 672c52.912 0 96-43.088 96-96 0-53.12-43.088-96-96-96s-96 42.88-96 96c0 52.912 43.088 96 96 96zM725.328 234.672h-426.672v64c0 71.040 142.288 106.672 213.328 106.672s213.328-35.632 213.328-106.672v-64z" />
<glyph unicode="&#xe675;" d="M682.672 917.328h-512c-47.152 0-85.328-38.192-85.328-85.328v-597.328h85.328v597.328h512v85.328zM810.672 746.672h-469.328c-47.152 0-85.328-38.192-85.328-85.328v-597.328c0-47.152 38.192-85.328 85.328-85.328h469.328c47.152 0 85.328 38.192 85.328 85.328v597.328c0 47.152-38.192 85.328-85.328 85.328zM810.672 64h-469.328v597.328h469.328v-597.328z" />
<glyph unicode="&#xe676;" d="M411.312 634.032c9.6 21.328 15.36 45.008 15.36 69.968 0 94.288-76.368 170.672-170.672 170.672s-170.672-76.368-170.672-170.672 76.368-170.672 170.672-170.672c24.96 0 48.64 5.76 69.968 15.36l100.688-100.688-100.688-100.688c-21.328 9.6-45.008 15.36-69.968 15.36-94.288 0-170.672-76.368-170.672-170.672s76.368-170.672 170.672-170.672 170.672 76.368 170.672 170.672c0 24.96-5.76 48.64-15.36 69.968l100.688 100.688 298.672-298.672h128v42.672l-527.36 527.36zM256 618.672c-47.152 0-85.328 38.192-85.328 85.328s38.192 85.328 85.328 85.328 85.328-38.192 85.328-85.328-38.192-85.328-85.328-85.328zM256 106.672c-47.152 0-85.328 38.192-85.328 85.328s38.192 85.328 85.328 85.328 85.328-38.192 85.328-85.328-38.192-85.328-85.328-85.328zM512 426.672c-11.728 0-21.328 9.6-21.328 21.328s9.6 21.328 21.328 21.328 21.328-9.6 21.328-21.328-9.6-21.328-21.328-21.328zM810.672 832l-256-256 85.328-85.328 298.672 298.672v42.672z" />
<glyph unicode="&#xe677;" d="M810.672 874.672h-178.56c-17.488 49.488-64.432 85.328-120.112 85.328s-102.608-35.84-120.112-85.328h-178.56c-47.152 0-85.328-38.192-85.328-85.328v-682.672c0-47.152 38.192-85.328 85.328-85.328h597.328c47.152 0 85.328 38.192 85.328 85.328v682.672c0 47.152-38.192 85.328-85.328 85.328zM512 874.672c23.472 0 42.672-18.992 42.672-42.672s-19.2-42.672-42.672-42.672-42.672 18.992-42.672 42.672 19.2 42.672 42.672 42.672zM810.672 106.672h-597.328v682.672h85.328v-128h426.672v128h85.328v-682.672z" />
<glyph unicode="&#xe678;" d="M554.672 661.328h-85.328v-170.672h-170.672v-85.328h170.672v-170.672h85.328v170.672h170.672v85.328h-170.672v170.672zM512 874.672c-235.312 0-426.672-191.36-426.672-426.672s191.36-426.672 426.672-426.672 426.672 191.36 426.672 426.672-191.36 426.672-426.672 426.672zM512 106.672c-188.16 0-341.328 153.168-341.328 341.328s153.168 341.328 341.328 341.328 341.328-153.168 341.328-341.328-153.168-341.328-341.328-341.328z" />
<glyph unicode="&#xe679;" d="M682.672 618.672h-85.328v-128h-128v-85.328h128v-128h85.328v128h128v85.328h-128zM85.328 448c0 119.040 70.192 221.648 171.088 269.648v91.952c-149.12-52.48-256.432-194.56-256.432-361.6s107.312-309.12 256.432-361.6v91.952c-100.912 48-171.088 150.608-171.088 269.648zM640 832c-211.84 0-384-172.16-384-384s172.16-384 384-384 384 172.16 384 384-172.16 384-384 384zM640 149.328c-164.688 0-298.672 133.968-298.672 298.672s133.968 298.672 298.672 298.672 298.672-133.968 298.672-298.672-133.968-298.672-298.672-298.672z" />
<glyph unicode="&#xe67a;" d="M640 704v256h-448l-192-192v-576h384v-256h640v768h-384zM192 869.488v-101.488h-101.488l101.488 101.488zM64 256v448h192v192h320v-192l-192-192v-256h-320zM576 613.488v-101.488h-101.488l101.488 101.488zM960 0h-512v448h192v192h320v-640z" />
<glyph unicode="&#xe67b;" d="M128 224v-160h160l472.112 472.112-160 160-472.112-472.112zM883.408 659.408c16.64 16.64 16.64 43.728 0 60.368l-99.632 99.632c-16.64 16.64-43.728 16.64-60.368 0l-78.080-78.080 160-160 78.080 78.080z" />
<glyph unicode="&#xe67c;" d="M928 832h-832c-52.8 0-96-43.2-96-96v-576c0-52.8 43.2-96 96-96h832c52.8 0 96 43.2 96 96v576c0 52.8-43.2 96-96 96zM96 768h832c17.344 0 32-14.656 32-32v-96h-896v96c0 17.344 14.656 32 32 32zM928 128h-832c-17.344 0-32 14.656-32 32v288h896v-288c0-17.344-14.656-32-32-32zM128 320h64v-128h-64zM256 320h64v-128h-64zM384 320h64v-128h-64z" />
<glyph unicode="&#xe67d;" d="M832 704l192 192-64 64-192-192h-448v192h-128v-192h-192v-128h192v-512h512v-192h128v192h192v128h-192v448zM320 640h320l-320-320v320zM384 256l320 320v-320h-320z" />
<glyph unicode="&#xe67f;" d="M152.384 911.472l-34.352-171.92h699.744l-21.888-111.056h-700.192l-33.888-171.904h699.68l-39.024-196.064-282.016-93.424-244.4 93.424 16.736 85.040h-171.904l-40.896-206.352 404.224-154.704 466 154.704 153.776 772.256z" />
<glyph unicode="&#xe680;" d="M736.016 512c-8.912 0-17.776 3.696-24.096 10.928l-199.92 228.48-199.92-228.48c-11.632-13.296-31.856-14.656-45.152-3.008s-14.64 31.856-3.008 45.152l224 256c6.080 6.944 14.848 10.928 24.080 10.928s18-3.984 24.080-10.928l224-256c11.632-13.296 10.288-33.52-3.008-45.152-6.064-5.312-13.584-7.92-21.056-7.92z" />
<glyph unicode="&#xe681;" d="M85.328 298.672v-85.328h853.328v85.328h-853.328zM85.328 512v-85.328h853.328v85.328h-853.328zM85.328 725.328v-85.328h853.328v85.328h-853.328z" />
<glyph unicode="&#xe682;" d="M256 149.328c0-47.152 38.192-85.328 85.328-85.328h341.328c47.152 0 85.328 38.192 85.328 85.328v512h-512v-512zM810.672 789.328h-149.328l-42.672 42.672h-213.328l-42.672-42.672h-149.328v-85.328h597.328v85.328z" />
<glyph unicode="&#xe683;" d="M853.376 960h-682.688c-93.872 0-170.688-76.816-170.688-170.688v-682.624c0-93.936 76.816-170.688 170.688-170.688h682.688c93.872 0 170.624 76.752 170.624 170.688v682.624c0 93.872-76.752 170.688-170.624 170.688zM960 106.688c0-28.336-11.136-55.088-31.376-75.312s-46.944-31.376-75.248-31.376h-341.376v448h-448v341.312c0 28.304 11.152 55.056 31.392 75.296s46.976 31.392 75.296 31.392h341.312v-448h448v-341.312z" />
<glyph unicode="&#xe684;" d="M597.328 874.672h-341.328c-47.152 0-84.912-38.192-84.912-85.328l-0.432-682.672c0-47.152 37.76-85.328 84.912-85.328h512.432c47.152 0 85.328 38.192 85.328 85.328v512l-256 256zM682.672 192h-341.328v85.328h341.328v-85.328zM682.672 362.672h-341.328v85.328h341.328v-85.328zM554.672 576v234.672l234.672-234.672h-234.672z" />
<glyph unicode="&#xe685;" d="M896 874.672h-768c-47.152 0-85.328-38.192-85.328-85.328v-512c0-47.152 38.192-85.328 85.328-85.328h298.672l-85.328-128v-42.672h341.328v42.672l-85.328 128h298.672c47.152 0 85.328 38.192 85.328 85.328v512c0 47.152-38.192 85.328-85.328 85.328zM896 362.672h-768v426.672h768v-426.672z" />
<glyph unicode="&#xe686;" d="M896 874.672h-768c-47.152 0-85.328-38.192-85.328-85.328v-512c0-47.152 38.192-85.328 85.328-85.328h298.672v-85.328h-85.328v-85.328h341.328v85.328h-85.328v85.328h298.672c47.152 0 85.328 38.192 85.328 85.328v512c0 47.152-38.192 85.328-85.328 85.328zM896 277.328h-768v512h768v-512z" />
<glyph unicode="&#xe687;" d="M128 789.328l384-682.672 384 682.672h-768zM272 704h480l-240-426.672-240 426.672z" />
<glyph unicode="&#xe688;" d="M561.856 552.992c-39.040 2.288-84.080-0.048-136.256-8.944l120.336-216.88 478.064 131.264c-5.152 12.256-12.688 24.224-22.656 35.792-49.472 57.28-156.736 108.368-273.6 131.424v0.032c-114.64 26.88-238.8 25.744-365.952 6.544-4.592-0.688-9.152-1.424-13.68-2.192l-42.272 78.288c-41.136-5.488-79.808-14.048-115.6-25.472l40.256-84.192c-65.76-25.472-119.728-61.76-158.656-105.44-64.208-73.056-89.584-164.912-58.752-254.352 6.208-18.048 14.592-35.152 24.928-51.2l478.064 131.296-132.752 245.856c4.56 0.88 9.2 1.76 13.92 2.624 214.688 38.304 332.096-20.864 396.416-83.824l-163.552-39.648-68.256 109.040zM174.72 333.616c-14.752 67.344-3.008 142.528 90.4 192.592l73.136-152.944-163.536-39.648z" />
<glyph unicode="&#xe689;" d="M852 960h-680c-94.592 0-172-77.408-172-172v-680c0-94.608 77.408-172 172-172h680c94.608 0 172 77.392 172 172v680c0 94.592-77.392 172-172 172zM960 192h-384v236c0 0 70.336-1.008 108-40v-68h154.416c-11.824 37.888-37.072 75.104-73.136 106.656-61.984 54.224-163.2 81.344-253.28 81.344v-316h-448v96c0 43.392 14.656 86.544 42.368 124.752 24.592 33.92 58.864 63.824 101.856 88.912 50.432 29.424 110.56 50.704 175.776 62.784v139.552h128v-128c147.008 0 221.616-26.4 303.776-74.32 42.992-25.088 77.264-54.992 101.856-88.912 27.712-38.224 42.368-81.36 42.368-124.752v-96zM199.584 320c11.824 37.888 37.072 75.104 73.136 106.656 31.536 27.6 69.616 49.184 111.28 63.76v-170.416h-184.416z" />
<glyph unicode="&#xe68a;" d="M926.080 478.080l-384 384c-16.64 16.64-43.728 16.64-60.16 0l-384-384c-16.64-16.64-16.64-43.728 0-60.368l384-384c16.64-16.64 43.728-16.64 60.368 0l384 384c16.64 16.848 16.64 43.728-0.208 60.368zM597.328 341.328v106.672h-170.672v-128h-85.328v170.672c0 23.68 18.992 42.672 42.672 42.672h213.328v106.672l149.328-149.328-149.328-149.328z" />
<glyph unicode="&#xe68b;" d="M512 874.672c-234.672 0-426.672-192-426.672-426.672s192-426.672 426.672-426.672 426.672 192 426.672 426.672-192 426.672-426.672 426.672zM170.672 448c0 187.728 153.6 341.328 341.328 341.328 78.928 0 151.472-27.728 209.072-72.528l-477.872-477.872c-44.8 57.6-72.528 130.128-72.528 209.072zM512 106.672c-78.928 0-151.472 27.728-209.072 72.528l477.872 477.872c44.8-57.6 72.528-130.128 72.528-209.072 0-187.728-153.6-341.328-341.328-341.328z" />
<glyph unicode="&#xe68c;" d="M853.328 405.328h-682.672c-23.472 0-42.672-19.2-42.672-42.672v-256c0-23.472 19.2-42.672 42.672-42.672h682.672c23.472 0 42.672 19.2 42.672 42.672v256c0 23.472-19.2 42.672-42.672 42.672zM298.672 149.328c-47.152 0-85.328 38.192-85.328 85.328s38.192 85.328 85.328 85.328 85.328-38.192 85.328-85.328-38.192-85.328-85.328-85.328zM853.328 832h-682.672c-23.472 0-42.672-19.2-42.672-42.672v-256c0-23.472 19.2-42.672 42.672-42.672h682.672c23.472 0 42.672 19.2 42.672 42.672v256c0 23.472-19.2 42.672-42.672 42.672zM298.672 576c-47.152 0-85.328 38.192-85.328 85.328s38.192 85.328 85.328 85.328 85.328-38.192 85.328-85.328-38.192-85.328-85.328-85.328z" />
<glyph unicode="&#xe68d;" d="M512 661.328v170.672h-426.672v-768h853.328v597.328h-426.672zM256 149.328h-85.328v85.328h85.328v-85.328zM256 320h-85.328v85.328h85.328v-85.328zM256 490.672h-85.328v85.328h85.328v-85.328zM256 661.328h-85.328v85.328h85.328v-85.328zM426.672 149.328h-85.328v85.328h85.328v-85.328zM426.672 320h-85.328v85.328h85.328v-85.328zM426.672 490.672h-85.328v85.328h85.328v-85.328zM426.672 661.328h-85.328v85.328h85.328v-85.328zM853.328 149.328h-341.328v85.328h85.328v85.328h-85.328v85.328h85.328v85.328h-85.328v85.328h341.328v-426.672zM768 490.672h-85.328v-85.328h85.328v85.328zM768 320h-85.328v-85.328h85.328v85.328z" />
<glyph unicode="&#xe68e;" d="M384 270.080l-177.92 177.92-60.368-60.368 238.288-238.288 512 512-60.368 60.368z" />
<glyph unicode="&#xe68f;" d="M768 661.328l-60.368 60.368-270.512-270.72 60.368-60.368 270.512 270.72zM949.12 721.712l-451.84-451.632-177.92 177.92-60.368-60.368 238.288-238.288 512 512-60.16 60.368zM17.712 387.632l238.288-238.288 60.368 60.368-238.288 238.288-60.368-60.368z" />
<glyph unicode="&#xe690;" d="M512 874.672c-235.728 0-426.672-190.928-426.672-426.672s190.928-426.672 426.672-426.672 426.672 190.928 426.672 426.672-190.928 426.672-426.672 426.672zM512 106.672c-188.592 0-341.328 152.752-341.328 341.328 0 78.928 27.088 151.248 71.888 209.072l478.512-478.512c-57.808-44.8-130.128-71.888-209.072-71.888zM781.44 238.928l-478.512 478.512c57.808 44.8 130.128 71.888 209.072 71.888 188.592 0 341.328-152.752 341.328-341.328 0-78.928-27.088-151.248-71.888-209.072z" />
<glyph unicode="&#xe691;" d="M938.24 618.672c0 30.72-16 57.392-40.112 72.528l-386.128 226.128-386.128-226.128c-24.112-15.152-40.528-41.808-40.528-72.528v-426.672c0-47.152 38.192-85.328 85.328-85.328h682.672c47.152 0 85.328 38.192 85.328 85.328l-0.432 426.672zM512 405.328l-352.432 220.368 352.432 206.288 352.432-206.288-352.432-220.368z" />
<glyph unicode="&#xe692;" d="M512-64c-282.32 0-512 229.68-512 512s229.68 512 512 512c282.32 0 512-229.68 512-512s-229.68-512-512-512zM943.792 377.92c-14.96 4.72-135.36 40.624-272.416 18.704 57.2-157.184 80.48-285.2 84.96-311.808 98.112 66.336 167.952 171.424 187.456 293.104zM682.832 44.768c-6.512 38.368-31.904 172.096-93.296 331.632-0.96-0.32-1.92-0.64-2.88-0.976-246.672-85.952-335.216-257.008-343.088-273.104 74.144-57.824 167.344-92.32 268.432-92.32 60.576 0 118.32 12.384 170.832 34.752zM187.104 154.928c9.904 16.96 129.936 215.68 355.472 288.592 5.696 1.84 11.44 3.568 17.232 5.2-10.976 24.848-22.944 49.712-35.456 74.224-218.4-65.36-430.32-62.624-449.456-62.24-0.128-4.448-0.224-8.896-0.224-13.36 0-112.32 42.576-214.88 112.432-292.416zM83.92 536.896c19.552-0.256 199.744-1.040 404.304 53.28-72.464 128.816-150.608 237.104-162.144 252.912-122.352-57.712-213.808-170.496-242.16-306.208zM409.52 872.496c12.096-16.176 91.52-124.352 163.184-256.016 155.504 58.288 221.344 146.768 229.2 157.968-77.232 68.512-178.784 110.208-289.904 110.208-35.296 0-69.6-4.224-102.48-12.16zM850.528 723.888c-9.216-12.48-82.512-106.416-244.208-172.432 10.176-20.832 19.936-42.016 29.008-63.344 3.216-7.568 6.352-15.088 9.424-22.576 145.52 18.304 290.096-11.024 304.528-14.080-0.96 103.216-37.856 198.016-98.752 272.432z" />
<glyph unicode="&#xe693;" d="M765.664 733.648c-6.88-9.808-64.48-87.232-200.56-138.224-62.704 115.2-132.208 209.856-142.784 224.016 28.784 6.944 58.8 10.64 89.68 10.64 97.232 0 186.080-36.464 253.664-96.432zM538.752 444.080c-197.344-63.792-302.368-237.68-311.040-252.528-61.12 67.84-98.368 157.584-98.368 255.856 0 3.92 0.080 7.808 0.192 11.696 16.736-0.336 202.176-2.736 393.28 54.464 10.944-21.44 21.424-43.2 31.024-64.944-5.056-1.424-10.096-2.944-15.088-4.544zM512 960c-282.768 0-512-229.232-512-512s229.232-512 512-512 512 229.232 512 512-229.232 512-512 512zM512 0c-247.024 0-448 200.976-448 448s200.976 448 448 448c247.040 0 448-200.976 448-448s-200.96-448-448-448zM619.92 483.104c-7.952 18.656-16.48 37.2-25.392 55.424 141.488 57.76 205.616 139.968 213.68 150.88 53.296-65.12 85.568-148.048 86.416-238.368-12.624 2.672-139.136 28.32-266.464 12.32-2.688 6.56-5.424 13.136-8.24 19.744zM491.184 572.416c-178.992-47.536-336.656-46.848-353.76-46.624 24.816 118.736 104.832 217.424 211.888 267.92 10.096-13.84 78.464-108.592 141.872-221.312zM577.328 384.496c0.848 0.288 1.68 0.56 2.528 0.848 53.728-139.6 75.936-256.608 81.632-290.192-45.952-19.568-96.464-30.416-149.472-30.416-88.464 0-170 30.176-234.88 80.784 6.88 14.080 84.368 163.76 300.192 238.96zM651.472 403.040c119.92 19.2 225.264-12.224 238.368-16.368-17.056-106.48-78.176-198.432-164.016-256.464-3.92 23.28-24.288 135.296-74.336 272.832z" />
<glyph unicode="&#xe694;" d="M538.752 444.080c-197.344-63.792-302.368-237.68-311.040-252.528-61.12 67.84-98.368 157.584-98.368 255.856 0 3.92 0.080 7.808 0.192 11.696 16.736-0.336 202.176-2.736 393.28 54.464 10.944-21.44 21.424-43.2 31.024-64.944-5.056-1.424-10.096-2.944-15.088-4.544zM765.664 733.648c-6.88-9.808-64.48-87.232-200.56-138.224-62.704 115.2-132.208 209.856-142.784 224.016 28.784 6.944 58.8 10.64 89.68 10.64 97.232 0 186.080-36.464 253.664-96.432zM491.184 572.416c-178.992-47.536-336.656-46.848-353.76-46.624 24.816 118.736 104.832 217.424 211.888 267.92 10.096-13.84 78.464-108.592 141.872-221.312zM577.328 384.496c0.848 0.288 1.68 0.56 2.528 0.848 53.728-139.6 75.936-256.608 81.632-290.192-45.952-19.568-96.464-30.416-149.472-30.416-88.464 0-170 30.176-234.88 80.784 6.88 14.080 84.368 163.76 300.192 238.96zM852 960h-680c-94.592 0-172-77.408-172-172v-680c0-94.608 77.408-172 172-172h680c94.608 0 172 77.392 172 172v680c0 94.592-77.392 172-172 172zM512 0c-247.024 0-448 200.976-448 448s200.976 448 448 448c247.040 0 448-200.976 448-448s-200.96-448-448-448zM651.472 403.040c119.92 19.2 225.264-12.224 238.368-16.368-17.056-106.48-78.176-198.432-164.016-256.464-3.92 23.28-24.288 135.296-74.336 272.832zM594.528 538.528c141.488 57.76 205.616 139.968 213.68 150.88 53.296-65.12 85.568-148.048 86.416-238.368-12.624 2.672-139.136 28.32-266.464 12.32-2.688 6.56-5.424 13.136-8.24 19.744-7.936 18.656-16.48 37.2-25.392 55.424z" />
<glyph unicode="&#xe695;" d="M736 928l-224-192 288-192 224 192zM512 736l-224 192-288-192 224-192zM800 544l224-192-288-160-224 192zM512 384l-288 160-224-192 288-160zM728.16 114.432l-216.16 185.28-216.16-185.28-135.84 75.472v-93.904l352-160 352 160v93.904z" />
<glyph unicode="&#xe696;" d="M864.624 486.832c-65.76 183.44-205.104 348.144-352.624 473.168-147.52-125.008-286.864-289.728-352.624-473.168-40.672-113.44-44.688-236.56 12.592-345.392 65.84-125.136 198.64-205.44 340.048-205.44s274.192 80.304 340.032 205.44c57.264 108.832 53.248 231.968 12.592 345.392zM738.768 201.040c-43.808-83.248-132.816-137.040-226.768-137.040-55.12 0-108.528 18.544-152.112 50.656 13.248-1.728 26.64-2.656 40.112-2.656 117.424 0 228.672 67.216 283.408 171.248 44.88 85.296 40.976 173.856 23.888 244.336 14.56-28.144 26.912-56.192 36.848-83.936 22.608-63.056 40.032-156.336-5.376-242.608z" />
<glyph unicode="&#xe697;" d="M896 832h-768c-47.152 0-85.328-38.192-85.328-85.328v-512c0-47.152 38.192-85.328 85.328-85.328h213.328v-85.328h341.328v85.328h213.328c47.152 0 84.912 38.192 84.912 85.328l0.432 512c0 47.152-38.192 85.328-85.328 85.328zM896 234.672h-768v512h768v-512zM810.672 618.672h-469.328v-85.328h469.328v85.328zM810.672 448h-469.328v-85.328h469.328v85.328zM298.672 618.672h-85.328v-85.328h85.328v85.328zM298.672 448h-85.328v-85.328h85.328v85.328z" />
<glyph unicode="&#xe698;" d="M128 224v-160h160l472.112 472.112-160 160-472.112-472.112zM883.408 659.408c16.64 16.64 16.64 43.728 0 60.368l-99.632 99.632c-16.64 16.64-43.728 16.64-60.368 0l-78.080-78.080 160-160 78.080 78.080z" />
<glyph unicode="&#xe699;" d="M512 960c-282.768 0-512-229.232-512-512s229.232-512 512-512 512 229.232 512 512-229.232 512-512 512zM824.64 370.4c-36.8-142.72-165.36-242.4-312.624-242.4s-275.856 99.68-312.656 242.416c-6.224 24.16 8.352 48.88 32.512 55.12 3.712 0.96 7.52 1.44 11.344 1.44 20.624 0 38.624-13.968 43.792-33.968 26.512-102.752 119.040-174.512 225.008-174.512s198.496 71.76 225.008 174.512c5.152 20 23.152 33.984 43.76 33.984 3.824 0 7.648-0.496 11.376-1.456 11.696-3.008 21.52-10.416 27.664-20.848s7.856-22.592 4.816-34.304z" />
<glyph unicode="&#xe69a;" d="M853.328 789.328h-682.672c-47.152 0-84.912-38.192-84.912-85.328l-0.432-512c0-47.152 38.192-85.328 85.328-85.328h682.672c47.152 0 85.328 38.192 85.328 85.328v512c0 47.152-38.192 85.328-85.328 85.328zM853.328 618.672l-341.328-213.328-341.328 213.328v85.328l341.328-213.328 341.328 213.328v-85.328z" />
<glyph unicode="&#xe69b;" d="M576 224l96-96 320 320-320 320-96-96 224-224zM448 672l-96 96-320-320 320-320 96 96-224 224z" />
<glyph unicode="&#xe69c;" d="M832 224l96-96 320 320-320 320-96-96 224-224zM448 672l-96 96-320-320 320-320 96 96-224 224zM701.296 809.488l69.472-18.944-191.984-704.032-69.472 18.944 191.984 704.032z" horiz-adv-x="1280" />
<glyph unicode="&#xe69d;" d="M1024 960h-416l160-160-192-192 96-96 192 192 160-160zM1024-64v416l-160-160-192 192-96-96 192-192-160-160zM0-64h416l-160 160 192 192-96 96-192-192-160 160zM0 960v-416l160 160 192-192 96 96-192 192 160 160z" />
<glyph unicode="&#xe69e;" d="M1024 960v-416l-160 160-192-192-96 96 192 192-160 160zM448 288l-192-192 160-160h-416v416l160-160 192 192z" />
<glyph unicode="&#xe69f;" d="M384 448h-320v128h320v128l192-192-192-192zM1024 960v-832l-384-192v192h-384v256h64v-192h320v576l256 128h-576v-256h-64v320z" />
<glyph unicode="&#xe6a0;" d="M426.672 106.672h170.672v682.672h-170.672v-682.672zM170.672 106.672h170.672v341.328h-170.672v-341.328zM682.672 576v-469.328h170.672v469.328h-170.672z" />
<glyph unicode="&#xe6a1;" d="M896 512h16c26.4 0 48 21.6 48 48v160c0 26.4-21.6 48-48 48h-16v192h-128v-192h-16c-26.4 0-48-21.6-48-48v-160c0-26.4 21.6-48 48-48h16v-576h128v576zM768 704h128v-128h-128v128zM592 128c26.4 0 48 21.6 48 48v160c0 26.4-21.6 48-48 48h-16v576h-128v-576h-16c-26.4 0-48-21.6-48-48v-160c0-26.4 21.6-48 48-48h16v-192h128v192h16zM448 320h128v-128h-128v128zM272 512c26.4 0 48 21.6 48 48v160c0 26.4-21.6 48-48 48h-16v192h-128v-192h-16c-26.4 0-48-21.6-48-48v-160c0-26.4 21.6-48 48-48h16v-576h128v576h16zM128 704h128v-128h-128v128z" />
<glyph unicode="&#xe6a2;" d="M448 832v16c0 26.4-21.6 48-48 48h-160c-26.4 0-48-21.6-48-48v-16h-192v-128h192v-16c0-26.4 21.6-48 48-48h160c26.4 0 48 21.6 48 48v16h576v128h-576zM256 704v128h128v-128h-128zM832 528c0 26.4-21.6 48-48 48h-160c-26.4 0-48-21.6-48-48v-16h-576v-128h576v-16c0-26.4 21.6-48 48-48h160c26.4 0 48 21.6 48 48v16h192v128h-192v16zM640 384v128h128v-128h-128zM448 208c0 26.4-21.6 48-48 48h-160c-26.4 0-48-21.6-48-48v-16h-192v-128h192v-16c0-26.4 21.6-48 48-48h160c26.4 0 48 21.6 48 48v16h576v128h-576v16zM256 64v128h128v-128h-128z" />
<glyph unicode="&#xe6a3;" d="M512 874.672c-235.52 0-426.672-190.928-426.672-426.672s191.152-426.672 426.672-426.672 426.672 190.928 426.672 426.672-191.152 426.672-426.672 426.672zM554.672 234.672h-85.328v85.328h85.328v-85.328zM554.672 405.328h-85.328v256h85.328v-256z" />
<glyph unicode="&#xe6a4;" d="M768 320v128h-320v128h320v128l192-192zM704 384v-256h-320v-192l-384 192v832h704v-320h-64v256h-512l256-128v-576h256v192z" />
<glyph unicode="&#xe6a5;" d="M512 618.672l-256-256 60.368-60.368 195.632 195.632 195.632-195.632 60.368 60.368z" />
<glyph unicode="&#xe6a6;" d="M707.632 593.712l-195.632-195.632-195.632 195.632-60.368-60.368 256-256 256 256z" />
<glyph unicode="&#xe6a7;" d="M810.672 832h-597.328c-47.152 0-85.328-38.192-85.328-85.328v-597.328c0-47.152 38.192-85.328 85.328-85.328h597.328c47.152 0 85.328 38.192 85.328 85.328v597.328c0 47.152-38.192 85.328-85.328 85.328zM640 576h-170.672v-85.328h170.672v-85.328h-170.672v-85.328h170.672v-85.328h-256v426.672h256v-85.328z" />
<glyph unicode="&#xe6a8;" d="M640 234.672v-85.328h85.328v85.328h85.328v85.328h-85.328v85.328h-85.328v-85.328h-85.328v-85.328h85.328zM853.328 874.672h-682.672c-47.152 0-85.328-38.192-85.328-85.328v-682.672c0-47.152 38.192-85.328 85.328-85.328h682.672c47.152 0 85.328 38.192 85.328 85.328v682.672c0 47.152-38.192 85.328-85.328 85.328zM213.328 746.672h256v-85.328h-256v85.328zM853.328 106.672h-682.672l682.672 682.672v-682.672z" />
<glyph unicode="&#xe6a9;" d="M512 768c-223.312 0-416.88-130.048-512-320 95.12-189.952 288.688-320 512-320s416.88 130.048 512 320c-95.12 189.952-288.688 320-512 320zM764.448 598.288c60.16-38.368 111.136-89.776 149.44-150.288-38.288-60.528-89.28-111.92-149.44-150.304-75.6-48.224-162.896-73.696-252.448-73.696s-176.864 25.488-252.448 73.696c-60.16 38.368-111.136 89.776-149.424 150.304 38.288 60.528 89.28 111.92 149.44 150.288 3.92 2.496 7.872 4.928 11.856 7.296-9.952-27.328-15.408-56.816-15.408-87.6 0-141.376 114.608-256 256-256s256 114.624 256 256c0 30.768-5.456 60.272-15.408 87.6 3.984-2.384 7.936-4.8 11.856-7.296v0zM512 544c0-53.024-42.976-96-96-96s-96 42.976-96 96 42.976 96 96 96 96-42.976 96-96z" />
<glyph unicode="&#xe6aa;" d="M945.936 945.936c-18.752 18.736-49.136 18.736-67.888 0l-202.16-202.16c-51.936 15.76-106.944 24.224-163.888 24.224-223.312 0-416.88-130.048-512-320 41.12-82.128 100.64-153.040 173.024-207.104l-158.96-158.96c-18.752-18.752-18.752-49.136 0-67.888 9.376-9.376 21.648-14.064 33.936-14.064s24.56 4.688 33.936 14.064l864 864c18.752 18.752 18.752 49.136 0 67.888zM416 640c42.24 0 78.080-27.296 90.928-65.2l-121.728-121.728c-37.904 12.832-65.2 48.688-65.2 90.928 0 53.024 42.976 96 96 96zM110.112 448c38.288 60.528 89.28 111.92 149.44 150.288 3.92 2.496 7.872 4.928 11.856 7.296-9.968-27.328-15.408-56.816-15.408-87.6 0-54.896 17.28-105.744 46.704-147.424l-60.928-60.928c-52.448 36.848-97.2 83.888-131.664 138.336zM768 518c0 27.168-4.256 53.328-12.096 77.904l-321.808-321.808c24.56-7.84 50.736-12.096 77.904-12.096 141.376 0 256 114.624 256 256zM830.032 670.032l-69.36-69.36c1.264-0.784 2.528-1.568 3.792-2.368 60.16-38.368 111.136-89.776 149.44-150.288-38.288-60.528-89.28-111.92-149.44-150.304-75.6-48.224-162.896-73.696-252.448-73.696-38.656 0-76.896 4.752-113.968 14.032l-76.896-76.896c59.712-21.456 123.952-33.152 190.848-33.152 223.312 0 416.88 130.048 512 320-45.024 89.92-112.112 166.4-193.968 222.032z" />
<glyph unicode="&#xe6ab;" d="M986.512 922.512c-49.984 49.984-131.040 49.984-181.024 0l-172.112-172.112-121.376 121.376-135.76-135.76 106.432-106.432-472.112-472.112c-8.048-8.048-11.472-18.96-10.304-29.456h-0.24v-160c0-17.68 14.32-32 32-32h160c0 0 2.656 0 4 0 9.216 0 18.432 3.52 25.456 10.544l472.112 472.112 106.432-106.432 135.76 135.76-121.376 121.376 172.112 172.112c49.984 49.984 49.984 131.040 0 181.024zM173.088 0h-109.088v109.088l469.568 469.568 109.088-109.088-469.568-469.568z" />
<glyph unicode="&#xe6ac;" d="M640 832h384v-128h-384v128zM870.32 640h-294.32v124.384c-21.008 2.384-42.368 3.616-64 3.616-223.312 0-416.88-130.048-512-320 95.12-189.952 288.688-320 512-320s416.88 130.048 512 320c-37.392 74.688-90.016 140.096-153.68 192zM416 640c53.024 0 96-42.976 96-96s-42.976-96-96-96-96 42.976-96 96 42.976 96 96 96zM764.448 297.696c-75.6-48.224-162.896-73.696-252.448-73.696s-176.864 25.488-252.448 73.696c-60.16 38.368-111.136 89.776-149.424 150.304 38.288 60.528 89.28 111.92 149.44 150.288 3.92 2.496 7.872 4.928 11.856 7.296-9.968-27.328-15.408-56.816-15.408-87.6 0-141.376 114.624-256 256-256s256 114.624 256 256c0 30.768-5.456 60.272-15.408 87.6 3.968-2.384 7.936-4.8 11.856-7.296 60.16-38.368 111.136-89.776 149.44-150.288-38.288-60.528-89.28-111.92-149.44-150.304z" />
<glyph unicode="&#xe6ad;" d="M1024 832h-128v128h-128v-128h-128v-128h128v-128h128v128h128zM863.856 513.968c18.432-20.48 35.2-42.528 50.016-65.968-38.288-60.528-89.28-111.92-149.44-150.304-75.6-48.224-162.896-73.696-252.448-73.696s-176.864 25.488-252.448 73.696c-60.16 38.368-111.136 89.776-149.424 150.304 38.288 60.528 89.28 111.92 149.44 150.288 3.92 2.496 7.872 4.928 11.856 7.296-9.968-27.328-15.408-56.816-15.408-87.6 0-141.376 114.624-256 256-256s256 114.624 256 256c0 0.688-0.016 1.376-0.032 2.080-109.28 28.144-190.304 126.624-191.936 244.304-21.024 2.384-42.4 3.616-64.048 3.616-223.312 0-416.88-130.048-512-320 95.12-189.952 288.688-320 512-320s416.88 130.048 512 320c-17.632 35.232-38.672 68.4-62.656 99.056-29.28-17.184-62.272-28.704-97.488-33.088zM416 640c53.024 0 96-42.976 96-96s-42.976-96-96-96-96 42.976-96 96 42.976 96 96 96z" />
<glyph unicode="&#xe6ae;" d="M672 768c-88.368 0-160-71.632-160-160v-96h-128v-128h128v-448h128v448h144l32 128h-176v96c0 17.68 14.32 32 32 32h160v128h-160z" />
<glyph unicode="&#xe6af;" d="M512 960c-282.768 0-512-229.232-512-512s229.232-512 512-512v384h-128v128h128v96c0 88.368 71.632 160 160 160h160v-128h-160c-17.68 0-32-14.32-32-32v-96h176l-32-128h-144v-367.872c220.832 56.832 384 257.296 384 495.872 0 282.768-229.232 512-512 512z" />
<glyph unicode="&#xe6b0;" d="M853.344 960h-682.704c-94.256 0-170.64-76.416-170.64-170.688v-682.624c0-94.272 76.4-170.688 170.64-170.688h341.344v448h-128v128h128v96c0 88.368 71.632 160 160 160h160v-128h-160c-17.68 0-32-14.32-32-32v-96h176l-32-128h-144v-448h213.344c94.256 0 170.656 76.416 170.656 170.688v682.624c0 94.272-76.4 170.688-170.656 170.688z" />
<glyph unicode="&#xe6b1;" d="M170.672 192l362.672 256-362.672 256v-512zM554.672 704v-512l362.672 256-362.672 256z" />
<glyph unicode="&#xe6b2;" d="M469.328 192v512l-362.672-256 362.672-256zM490.672 448l362.672-256v512l-362.672-256z" />
<glyph unicode="&#xe6b3;" d="M512 49.072l-61.872 56.112c-219.728 199.472-364.8 331.088-364.8 492.16 0 131.632 103.040 234.672 234.672 234.672 74.24 0 145.488-34.56 192-88.96 46.512 54.4 117.76 88.96 192 88.96 131.632 0 234.672-103.040 234.672-234.672 0-161.072-145.072-292.688-364.8-492.16l-61.872-56.112z" />
<glyph unicode="&#xe6b4;" d="M704 832c-74.24 0-145.488-34.56-192-88.96-46.512 54.4-117.76 88.96-192 88.96-131.632 0-234.672-103.040-234.672-234.672 0-161.072 145.072-292.688 364.8-492.16l61.872-56.112 61.872 56.112c219.728 199.472 364.8 331.088 364.8 492.16 0 131.632-103.040 234.672-234.672 234.672zM516.48 168.32l-4.48-4.048-4.48 4.048c-202.88 184.112-336.848 305.712-336.848 429.008 0 85.12 64.208 149.328 149.328 149.328 65.712 0 129.712-42.448 152.112-100.688h79.568c22.608 58.24 86.608 100.688 152.32 100.688 85.12 0 149.328-64.208 149.328-149.328 0-123.312-133.968-244.912-336.848-429.008z" />
<glyph unicode="&#xe6b5;" d="M136.288 209.072c-75.2 0-136.288-61.328-136.288-136.080 0-75.152 61.104-135.808 136.288-135.808 75.472 0 136.496 60.656 136.496 135.808 0 74.736-61.024 136.080-136.496 136.080zM0.16 612.064v-196.256c127.792 0 247.952-49.968 338.464-140.512 90.384-90.32 140.288-211.040 140.288-339.296h197.12c0 372.816-303.28 676.064-675.856 676.064zM0.384 960v-196.352c455.776 0 826.752-371.328 826.752-827.648h196.848c0 564.464-459.248 1024-1023.616 1024z" />
<glyph unicode="&#xe6b6;" d="M512 960c-282.768 0-512-229.232-512-512s229.232-512 512-512 512 229.232 512 512-229.232 512-512 512zM320 192c-35.344 0-64 28.656-64 64s28.656 64 64 64 64-28.656 64-64-28.656-64-64-64zM496 192c0 132.336-107.664 240-240 240v96c185.264 0 336-150.736 336-336h-96zM688 192c0 115.392-44.944 223.872-126.528 305.472s-190.080 126.528-305.472 126.528v96c141.040 0 273.632-54.928 373.36-154.656s154.64-232.32 154.64-373.344h-96z" />
<glyph unicode="&#xe6b7;" d="M853.344 960h-682.656c-93.872 0-170.688-76.816-170.688-170.688v-682.624c0-93.936 76.816-170.688 170.688-170.688h682.656c93.872 0 170.656 76.752 170.656 170.688v682.624c0 93.872-76.784 170.688-170.656 170.688zM278.944 128.752c-47.968 0-86.944 38.688-86.944 86.624 0 47.68 38.976 86.816 86.944 86.816 48.16 0 87.056-39.136 87.056-86.816 0-47.936-38.896-86.624-87.056-86.624zM497.472 128c0 81.808-31.808 158.816-89.456 216.448-57.712 57.744-134.368 89.632-215.904 89.632v125.184c237.648 0 431.12-193.44 431.12-431.248h-125.76zM719.632 128c0 291.056-236.656 527.936-527.376 527.936v125.248c360 0 652.944-293.12 652.944-653.2h-125.568z" />
<glyph unicode="&#xe6b8;" d="M810.672 576h-170.672v256h-256v-256h-170.672l298.672-298.672 298.672 298.672zM213.328 192v-85.328h597.328v85.328h-597.328z" />
<glyph unicode="&#xe6b9;" d="M917.808 730.928c-22.208 30.288-53.168 65.696-87.184 99.696s-69.408 64.96-99.696 87.184c-51.568 37.824-76.592 42.192-90.928 42.192h-496c-44.112 0-80-35.888-80-80v-864c0-44.112 35.888-80 80-80h736c44.112 0 80 35.888 80 80v624c0 14.336-4.368 39.344-42.192 90.928zM785.376 785.376c30.704-30.704 54.8-58.4 72.576-81.376h-153.952v153.952c22.992-17.776 50.672-41.872 81.376-72.576zM896 16c0-8.672-7.328-16-16-16h-736c-8.672 0-16 7.328-16 16v864c0 8.672 7.328 16 16 16 0 0 495.952 0 496 0v-224c0-17.68 14.32-32 32-32h224v-624z" />
<glyph unicode="&#xe6ba;" d="M743.024 576h-135.296l-95.728-141.040-95.744 141.040h-135.296l162.16-242.464-182.976-269.536h251.84v91.584h-50.16l50.16 74.992 111.392-166.576h140.448l-182.976 269.536 162.16 242.464zM917.808 730.928c-22.208 30.288-53.168 65.696-87.184 99.696s-69.408 64.96-99.696 87.184c-51.568 37.824-76.592 42.192-90.928 42.192h-496c-44.112 0-80-35.888-80-80v-864c0-44.112 35.888-80 80-80h736c44.112 0 80 35.888 80 80v624c0 14.336-4.368 39.344-42.192 90.928v0zM785.376 785.376c30.704-30.704 54.8-58.4 72.576-81.376h-153.952v153.952c22.976-17.776 50.672-41.872 81.376-72.576v0zM896 16c0-8.672-7.328-16-16-16h-736c-8.672 0-16 7.328-16 16v864c0 8.672 7.328 16 16 16 0 0 495.952 0 496 0v-224c0-17.68 14.32-32 32-32h224v-624z" />
<glyph unicode="&#xe6bb;" d="M917.808 730.928c-22.208 30.288-53.168 65.696-87.184 99.696s-69.408 64.96-99.696 87.184c-51.568 37.824-76.592 42.192-90.928 42.192h-496c-44.112 0-80-35.888-80-80v-864c0-44.112 35.888-80 80-80h736c44.112 0 80 35.888 80 80v624c0 14.336-4.368 39.344-42.192 90.928v0zM785.376 785.376c30.704-30.704 54.8-58.4 72.576-81.376h-153.952v153.952c22.976-17.776 50.672-41.872 81.376-72.576v0zM896 16c0-8.672-7.328-16-16-16h-736c-8.672 0-16 7.328-16 16v864c0 8.672 7.328 16 16 16 0 0 495.952 0 496 0v-224c0-17.68 14.32-32 32-32h224v-624zM756.288 568.752c-7.408 6.080-17.168 8.512-26.56 6.64l-320-64c-14.96-2.992-25.728-16.128-25.728-31.376v-236.88c-18.832 8.176-40.672 12.88-64 12.88-70.688 0-128-42.976-128-96s57.312-96 128-96 128 42.976 128 96v229.76l256 51.2v-133.84c-18.832 8.176-40.672 12.88-64 12.88-70.688 0-128-42.976-128-96s57.312-96 128-96 128 42.976 128 96v320c0 9.584-4.304 18.672-11.712 24.752z" />
<glyph unicode="&#xe6bc;" d="M690.224 488.32c-60.672 28.656-137.968 34.416-194.832-6.048 69.136 6.608 144.96-4.832 195.104-57.12 48 55.072 124.112 65.408 192.96 59.728-57.488 38.144-133.216 33.024-193.232 3.44v0zM665.648 354.256c-68.368 1.584-134.432-23.168-191.104-60.112-107.168 45.584-242.736 37.12-334-38.976 26.336 0.928 52 7.44 78.048 10.8 95.184 9.488 196.592-14.144 268.512-79.824 29.776 43.536 71.648 78.24 119.648 99.92 63.072 30.512 134.16 33.68 202.816 34.512-41.68 28.656-94.608 33.952-143.936 33.68zM917.808 730.928c-22.208 30.288-53.168 65.696-87.184 99.696s-69.408 64.96-99.696 87.184c-51.568 37.824-76.592 42.192-90.928 42.192h-496c-44.112 0-80-35.888-80-80v-864c0-44.112 35.888-80 80-80h736c44.112 0 80 35.888 80 80v624c0 14.336-4.368 39.344-42.192 90.928v0zM785.376 785.376c30.704-30.704 54.8-58.4 72.576-81.376h-153.952v153.952c22.976-17.776 50.672-41.872 81.376-72.576v0zM896 16c0-8.672-7.328-16-16-16h-736c-8.672 0-16 7.328-16 16v864c0 8.672 7.328 16 16 16 0 0 495.952 0 496 0v-224c0-17.68 14.32-32 32-32h224v-624z" />
<glyph unicode="&#xe6bd;" d="M842.016 370.512c-13.648 13.44-43.92 20.56-89.968 21.168-31.184 0.352-68.704-2.4-108.176-7.92-17.68 10.192-35.888 21.296-50.192 34.656-38.464 35.92-70.56 85.776-90.576 140.592 1.296 5.12 2.416 9.616 3.44 14.208 0 0 21.664 123.056 15.936 164.672-0.8 5.712-1.28 7.36-2.8 11.792l-1.888 4.832c-5.888 13.6-17.44 28-35.568 27.2l-10.912 0.336c-20.208 0-36.656-10.336-40.992-25.776-13.136-48.432 0.416-120.896 24.976-214.736l-6.288-15.28c-17.584-42.88-39.632-86.064-59.072-124.16l-2.528-4.96c-20.464-40.032-39.024-74.032-55.856-102.816l-17.376-9.184c-1.264-0.672-31.040-16.416-38.032-20.64-59.264-35.376-98.528-75.536-105.040-107.424-2.080-10.176-0.528-23.184 10.016-29.216l16.8-8.464c7.296-3.648 14.976-5.504 22.848-5.504 42.208 0 91.2 52.576 158.704 170.368 77.936 25.376 166.656 46.464 244.416 58.096 59.264-33.376 132.144-56.544 178.144-56.544 8.176 0 15.216 0.784 20.928 2.288 8.816 2.336 16.256 7.376 20.8 14.192 8.928 13.44 10.736 31.936 8.32 50.88-0.72 5.616-5.216 12.576-10.064 17.328zM211.648 145.952c7.696 21.040 38.16 62.64 83.2 99.552 2.832 2.304 9.808 8.832 16.192 14.896-47.104-75.12-78.64-105.072-99.408-114.464zM478.432 760.32c13.568 0 21.28-34.192 21.92-66.256s-6.864-54.56-16.16-71.216c-7.696 24.656-11.424 63.504-11.424 88.896 0 0-0.56 48.56 5.664 48.56v0zM398.848 322.512c9.456 16.912 19.28 34.752 29.328 53.68 24.496 46.32 39.952 82.56 51.472 112.352 22.912-41.68 51.44-77.12 84.992-105.504 4.192-3.536 8.624-7.104 13.28-10.656-68.208-13.488-127.168-29.904-179.072-49.856v0zM828.896 326.352c-4.16-2.592-16.048-4.096-23.712-4.096-24.704 0-55.28 11.296-98.128 29.664 16.464 1.216 31.568 1.84 45.104 1.84 24.784 0 32.128 0.112 56.352-6.080s24.544-18.736 20.384-21.328v0zM917.808 730.928c-22.208 30.288-53.168 65.696-87.184 99.696s-69.408 64.96-99.696 87.184c-51.568 37.824-76.592 42.192-90.928 42.192h-496c-44.112 0-80-35.888-80-80v-864c0-44.112 35.888-80 80-80h736c44.112 0 80 35.888 80 80v624c0 14.336-4.368 39.344-42.192 90.928v0zM785.376 785.376c30.704-30.704 54.8-58.4 72.576-81.376h-153.952v153.952c22.976-17.776 50.672-41.872 81.376-72.576v0zM896 16c0-8.672-7.328-16-16-16h-736c-8.672 0-16 7.328-16 16v864c0 8.672 7.328 16 16 16 0 0 495.952 0 496 0v-224c0-17.68 14.32-32 32-32h224v-624z" />
<glyph unicode="&#xe6be;" d="M832 64h-640v128l192 320 263.008-320 185.008 128v-256zM832 480c0-53.024-42.976-96-96-96s-96 42.976-96 96 42.976 96 96 96c53.024 0 96-42.976 96-96zM917.808 730.928c-22.208 30.288-53.168 65.696-87.184 99.696s-69.408 64.96-99.696 87.184c-51.568 37.824-76.592 42.192-90.928 42.192h-496c-44.112 0-80-35.888-80-80v-864c0-44.112 35.888-80 80-80h736c44.112 0 80 35.888 80 80v624c0 14.336-4.368 39.344-42.192 90.928zM785.376 785.376c30.704-30.704 54.8-58.4 72.576-81.376h-153.952v153.952c22.992-17.776 50.672-41.872 81.376-72.576zM896 16c0-8.672-7.328-16-16-16h-736c-8.672 0-16 7.328-16 16v864c0 8.672 7.328 16 16 16 0 0 495.952 0 496 0v-224c0-17.68 14.32-32 32-32h224v-624z" />
<glyph unicode="&#xe6bf;" d="M384 576l320-224-320-224v448zM917.808 730.928c-22.208 30.288-53.168 65.696-87.184 99.696s-69.408 64.96-99.696 87.184c-51.568 37.824-76.592 42.192-90.928 42.192h-496c-44.112 0-80-35.888-80-80v-864c0-44.112 35.888-80 80-80h736c44.112 0 80 35.888 80 80v624c0 14.336-4.368 39.344-42.192 90.928zM785.376 785.376c30.704-30.704 54.8-58.4 72.576-81.376h-153.952v153.952c22.992-17.776 50.672-41.872 81.376-72.576zM896 16c0-8.672-7.328-16-16-16h-736c-8.672 0-16 7.328-16 16v864c0 8.672 7.328 16 16 16 0 0 495.952 0 496 0v-224c0-17.68 14.32-32 32-32h224v-624z" />
<glyph unicode="&#xe6c0;" d="M917.808 602.928c-22.208 30.288-53.168 65.696-87.184 99.712s-69.408 64.96-99.696 87.184c-51.568 37.824-76.592 42.192-90.928 42.192h-368c-44.112 0-80-35.888-80-80v-736c0-44.112 35.888-80 80-80h608c44.112 0 80 35.888 80 80v496c0 14.336-4.368 39.344-42.192 90.928zM785.376 657.376c30.704-30.704 54.8-58.4 72.576-81.376h-153.952v153.952c22.976-17.776 50.672-41.872 81.376-72.576v0zM896 16c0-8.672-7.328-16-16-16h-608c-8.672 0-16 7.328-16 16v736c0 8.672 7.328 16 16 16 0 0 367.952 0 368 0v-224c0-17.68 14.32-32 32-32h224v-496zM602.928 917.808c-51.568 37.824-76.592 42.192-90.928 42.192h-368c-44.112 0-80-35.888-80-80v-736c0-38.624 27.52-70.96 64-78.384v814.384c0 8.672 7.328 16 16 16h486.88c-9.648 7.92-19.024 15.264-27.952 21.808z" />
<glyph unicode="&#xe6c2;" d="M917.808 730.928c-22.208 30.288-53.168 65.696-87.184 99.696s-69.408 64.96-99.696 87.184c-51.568 37.824-76.592 42.192-90.928 42.192h-496c-44.112 0-80-35.888-80-80v-864c0-44.112 35.888-80 80-80h736c44.112 0 80 35.888 80 80v624c0 14.336-4.368 39.344-42.192 90.928zM785.376 785.376c30.704-30.704 54.8-58.4 72.576-81.376h-153.952v153.952c22.992-17.776 50.672-41.872 81.376-72.576zM896 16c0-8.672-7.328-16-16-16h-736c-8.672 0-16 7.328-16 16v864c0 8.672 7.328 16 16 16 0 0 495.952 0 496 0v-224c0-17.68 14.32-32 32-32h224v-624zM736 128h-448c-17.68 0-32 14.32-32 32s14.32 32 32 32h448c17.68 0 32-14.32 32-32s-14.32-32-32-32zM736 256h-448c-17.68 0-32 14.32-32 32s14.32 32 32 32h448c17.68 0 32-14.32 32-32s-14.32-32-32-32zM736 384h-448c-17.68 0-32 14.32-32 32s14.32 32 32 32h448c17.68 0 32-14.32 32-32s-14.32-32-32-32z" />
<glyph unicode="&#xe6c3;" d="M384 277.328h256v256h170.672l-298.672 298.672-298.672-298.672h170.672zM213.328 192h597.328v-85.328h-597.328z" />
<glyph unicode="&#xe6c4;" d="M917.808 730.928c-22.208 30.288-53.168 65.696-87.184 99.696s-69.408 64.96-99.696 87.184c-51.568 37.824-76.592 42.192-90.928 42.192h-496c-44.112 0-80-35.888-80-80v-864c0-44.112 35.888-80 80-80h736c44.112 0 80 35.888 80 80v624c0 14.336-4.368 39.344-42.192 90.928v0 0zM785.376 785.376c30.704-30.704 54.8-58.4 72.576-81.376h-153.952v153.952c22.976-17.776 50.672-41.872 81.376-72.576v0 0zM896 16c0-8.672-7.328-16-16-16h-736c-8.672 0-16 7.328-16 16v864c0 8.672 7.328 16 16 16 0 0 495.952 0 496 0v-224c0-17.68 14.32-32 32-32h224v-624zM256 448h320v-320h-320v320zM576 320l192 128v-320l-192 128z" />
<glyph unicode="&#xe6c5;" d="M639.776 484.112h44.208l-51.008-226.176-66.32 318.016h-106.544l-77.12-318.016-57.824 318.016h-111.392l113.088-511.872h108.832l76.288 302.704 68.256-302.704h100.336l129.632 511.872h-170.448v-91.824zM917.808 730.928c-22.208 30.288-53.168 65.696-87.184 99.696s-69.408 64.96-99.696 87.184c-51.568 37.824-76.592 42.192-90.928 42.192h-496c-44.112 0-80-35.888-80-80v-864c0-44.112 35.888-80 80-80h736c44.112 0 80 35.888 80 80v624c0 14.336-4.368 39.344-42.192 90.928v0zM785.376 785.376c30.704-30.704 54.8-58.4 72.576-81.376h-153.952v153.952c22.976-17.776 50.672-41.872 81.376-72.576v0zM896 16c0-8.672-7.328-16-16-16h-736c-8.672 0-16 7.328-16 16v864c0 8.672 7.328 16 16 16 0 0 495.952 0 496 0v-224c0-17.68 14.32-32 32-32h224v-624z" />
<glyph unicode="&#xe6c6;" d="M917.808 730.928c-22.208 30.288-53.168 65.696-87.184 99.696s-69.408 64.96-99.696 87.184c-51.568 37.824-76.592 42.192-90.928 42.192h-496c-44.112 0-80-35.888-80-80v-864c0-44.112 35.888-80 80-80h736c44.112 0 80 35.888 80 80v624c0 14.336-4.368 39.344-42.192 90.928v0 0zM785.376 785.376c30.704-30.704 54.8-58.4 72.576-81.376h-153.952v153.952c22.976-17.776 50.672-41.872 81.376-72.576v0 0zM896 16c0-8.672-7.328-16-16-16h-736c-8.672 0-16 7.328-16 16v864c0 8.672 7.328 16 16 16 0 0 495.952 0 496 0v-224c0-17.68 14.32-32 32-32h224v-624zM256 896h128v-64h-128v64zM384 832h128v-64h-128v64zM256 768h128v-64h-128v64zM384 704h128v-64h-128v64zM256 640h128v-64h-128v64zM384 576h128v-64h-128v64zM256 512h128v-64h-128v64zM384 448h128v-64h-128v64zM256 112c0-26.4 21.6-48 48-48h160c26.4 0 48 21.6 48 48v160c0 26.4-21.6 48-48 48h-80v64h-128v-272zM448 192v-64h-128v64h128z" />
<glyph unicode="&#xe6c7;" d="M426.672 192h170.672v85.328h-170.672v-85.328zM128 704v-85.328h768v85.328h-768zM256 405.328h512v85.328h-512v-85.328z" />
</font>
</defs>
</svg>
