<?xml version="1.0" encoding="utf-8"?>
<!-- Generated by IcoMoon.io -->
<!DOCTYPE svg PUBLIC "-//W3C//DTD SVG 1.1//EN" "http://www.w3.org/Graphics/SVG/1.1/DTD/svg11.dtd">
<svg version="1.1" xmlns="http://www.w3.org/2000/svg" xmlns:xlink="http://www.w3.org/1999/xlink" width="64" height="64" viewBox="0 0 64 64">
<path d="M58.667 15.253l-12.253-10.28-3.427 4.080 12.253 10.28 3.427-4.080zM21.013 9.040l-3.427-4.080-12.253 10.28 3.427 4.080 12.253-10.28zM33.333 21.333h-4v16l12.653 7.613 2.013-3.293-10.667-6.32v-14zM31.987 10.667c-13.267 0-23.987 10.747-23.987 24s10.72 24 23.987 24 24.013-10.747 24.013-24-10.747-24-24.013-24zM32 53.333c-10.307 0-18.667-8.36-18.667-18.667s8.36-18.667 18.667-18.667 18.667 8.36 18.667 18.667-8.347 18.667-18.667 18.667z" fill="#444444"></path>
</svg>
