<?xml version="1.0" encoding="utf-8"?>
<!-- Generated by IcoMoon.io -->
<!DOCTYPE svg PUBLIC "-//W3C//DTD SVG 1.1//EN" "http://www.w3.org/Graphics/SVG/1.1/DTD/svg11.dtd">
<svg version="1.1" xmlns="http://www.w3.org/2000/svg" xmlns:xlink="http://www.w3.org/1999/xlink" width="64" height="64" viewBox="0 0 64 64">
<path d="M32 5.333c-14.733 0-26.667 11.933-26.667 26.667s11.933 26.667 26.667 26.667 26.667-11.933 26.667-26.667-11.933-26.667-26.667-26.667zM32 13.333c4.413 0 8 3.587 8 8 0 4.427-3.587 8-8 8s-8-3.573-8-8c0-4.413 3.587-8 8-8zM32 51.2c-6.68 0-12.547-3.413-16-8.587 0.067-5.293 10.68-8.213 16-8.213s15.92 2.92 16 8.213c-3.453 5.173-9.32 8.587-16 8.587z" fill="#444444"></path>
</svg>
