<?xml version="1.0" encoding="utf-8"?>
<!-- Generated by IcoMoon.io -->
<!DOCTYPE svg PUBLIC "-//W3C//DTD SVG 1.1//EN" "http://www.w3.org/Graphics/SVG/1.1/DTD/svg11.dtd">
<svg version="1.1" xmlns="http://www.w3.org/2000/svg" xmlns:xlink="http://www.w3.org/1999/xlink" width="64" height="64" viewBox="0 0 64 64">
<path d="M44 32c3.68 0 6.64-2.987 6.64-6.667s-2.96-6.667-6.64-6.667c-3.68 0-6.667 2.987-6.667 6.667s2.987 6.667 6.667 6.667zM24 29.333c4.413 0 7.973-3.587 7.973-8s-3.56-8-7.973-8c-4.413 0-8 3.587-8 8s3.587 8 8 8zM44 37.333c-4.893 0-14.667 2.453-14.667 7.333v6h29.333v-6c0-4.88-9.773-7.333-14.667-7.333zM24 34.667c-6.227 0-18.667 3.12-18.667 9.333v6.667h18.667v-6c0-2.267 0.893-6.227 6.32-9.253-2.32-0.493-4.573-0.747-6.32-0.747z" fill="#444444"></path>
</svg>
