<?xml version="1.0" encoding="utf-8"?>
<!-- Generated by IcoMoon.io -->
<!DOCTYPE svg PUBLIC "-//W3C//DTD SVG 1.1//EN" "http://www.w3.org/Graphics/SVG/1.1/DTD/svg11.dtd">
<svg version="1.1" xmlns="http://www.w3.org/2000/svg" xmlns:xlink="http://www.w3.org/1999/xlink" width="64" height="64" viewBox="0 0 64 64">
<path d="M13.333 42.667c0 10.307 8.36 18.667 18.667 18.667s18.667-8.36 18.667-18.667v-10.667h-37.333v10.667zM43 11.653l5.6-5.6-2.2-2.2-6.147 6.147c-2.507-1.24-5.28-2-8.253-2s-5.747 0.76-8.253 2l-6.147-6.147-2.2 2.2 5.6 5.6c-4.627 3.387-7.667 8.827-7.667 15.013v2.667h37.333v-2.667c0-6.187-3.040-11.627-7.667-15.013zM24 24c-1.48 0-2.667-1.2-2.667-2.667s1.187-2.667 2.667-2.667c1.48 0 2.667 1.2 2.667 2.667s-1.187 2.667-2.667 2.667zM40 24c-1.48 0-2.667-1.2-2.667-2.667s1.187-2.667 2.667-2.667c1.48 0 2.667 1.2 2.667 2.667s-1.187 2.667-2.667 2.667z" fill="#444444"></path>
</svg>
