<?xml version="1.0" encoding="utf-8"?>
<!-- Generated by IcoMoon.io -->
<!DOCTYPE svg PUBLIC "-//W3C//DTD SVG 1.1//EN" "http://www.w3.org/Graphics/SVG/1.1/DTD/svg11.dtd">
<svg version="1.1" xmlns="http://www.w3.org/2000/svg" xmlns:xlink="http://www.w3.org/1999/xlink" width="64" height="64" viewBox="0 0 64 64">
<path d="M54.787 13.933l-3.693-4.48c-0.747-0.88-1.853-1.453-3.093-1.453h-32c-1.24 0-2.347 0.573-3.080 1.453l-3.693 4.48c-0.773 0.933-1.227 2.107-1.227 3.4v33.333c0 2.947 2.387 5.333 5.333 5.333h37.333c2.947 0 5.333-2.387 5.333-5.333v-33.333c0-1.293-0.453-2.467-1.213-3.4zM32 46.667l-14.667-14.667h9.333v-5.333h10.667v5.333h9.333l-14.667 14.667zM13.667 13.333l2.173-2.667h32l2.493 2.667h-36.667z" fill="#444444"></path>
</svg>
