<?xml version="1.0" encoding="utf-8"?>
<!-- Generated by IcoMoon.io -->
<!DOCTYPE svg PUBLIC "-//W3C//DTD SVG 1.1//EN" "http://www.w3.org/Graphics/SVG/1.1/DTD/svg11.dtd">
<svg version="1.1" xmlns="http://www.w3.org/2000/svg" xmlns:xlink="http://www.w3.org/1999/xlink" width="64" height="64" viewBox="0 0 64 64">
<path d="M20 48c-8.107 0-14.667-6.573-14.667-14.667s6.56-14.667 14.667-14.667h28c5.893 0 10.667 4.773 10.667 10.667s-4.773 10.667-10.667 10.667h-22.667c-3.68 0-6.667-2.987-6.667-6.667s2.987-6.667 6.667-6.667h20v4h-20c-1.467 0-2.667 1.187-2.667 2.667s1.2 2.667 2.667 2.667h22.667c3.68 0 6.667-2.987 6.667-6.667s-2.987-6.667-6.667-6.667h-28c-5.893 0-10.667 4.773-10.667 10.667s4.773 10.667 10.667 10.667h25.333v4h-25.333z" fill="#444444"></path>
</svg>
