<?xml version="1.0" encoding="utf-8"?>
<!-- Generated by IcoMoon.io -->
<!DOCTYPE svg PUBLIC "-//W3C//DTD SVG 1.1//EN" "http://www.w3.org/Graphics/SVG/1.1/DTD/svg11.dtd">
<svg version="1.1" xmlns="http://www.w3.org/2000/svg" xmlns:xlink="http://www.w3.org/1999/xlink" width="64" height="64" viewBox="0 0 64 64">
<path d="M31.467 29.067c-6.053-1.573-8-3.187-8-5.72 0-2.907 2.68-4.947 7.2-4.947 4.747 0 6.507 2.267 6.667 5.6h5.893c-0.173-4.6-2.987-8.787-8.56-10.16v-5.84h-8v5.76c-5.173 1.133-9.333 4.467-9.333 9.627 0 6.16 5.107 9.227 12.533 11.013 6.68 1.6 8 3.933 8 6.44 0 1.827-1.293 4.76-7.2 4.76-5.493 0-7.667-2.467-7.947-5.6h-5.88c0.333 5.84 4.693 9.107 9.827 10.213v5.787h8v-5.733c5.187-1 9.333-4 9.333-9.48 0-7.547-6.48-10.133-12.533-11.72z" fill="#444444"></path>
</svg>
