<?xml version="1.0" encoding="utf-8"?>
<!-- Generated by IcoMoon.io -->
<!DOCTYPE svg PUBLIC "-//W3C//DTD SVG 1.1//EN" "http://www.w3.org/Graphics/SVG/1.1/DTD/svg11.dtd">
<svg version="1.1" xmlns="http://www.w3.org/2000/svg" xmlns:xlink="http://www.w3.org/1999/xlink" width="64" height="64" viewBox="0 0 64 64">
<path d="M32 16v8l10.667-10.667-10.667-10.667v8c-11.787 0-21.333 9.547-21.333 21.333 0 4.187 1.227 8.067 3.307 11.36l3.893-3.893c-1.187-2.227-1.867-4.76-1.867-7.467 0-8.84 7.16-16 16-16zM50.027 20.64l-3.893 3.893c1.187 2.227 1.867 4.76 1.867 7.467 0 8.84-7.16 16-16 16v-8l-10.667 10.667 10.667 10.667v-8c11.787 0 21.333-9.547 21.333-21.333 0-4.187-1.227-8.067-3.307-11.36z" fill="#444444"></path>
</svg>
