<?xml version="1.0" encoding="utf-8"?>
<!-- Generated by IcoMoon.io -->
<!DOCTYPE svg PUBLIC "-//W3C//DTD SVG 1.1//EN" "http://www.w3.org/Graphics/SVG/1.1/DTD/svg11.dtd">
<svg version="1.1" xmlns="http://www.w3.org/2000/svg" xmlns:xlink="http://www.w3.org/1999/xlink" width="64" height="64" viewBox="0 0 64 64">
<path d="M29.333 45.333c0 1.467 1.2 2.667 2.667 2.667s2.667-1.2 2.667-2.667-1.2-2.667-2.667-2.667-2.667 1.2-2.667 2.667zM29.333 8v10.667h5.333v-5.12c9.040 1.293 16 9.053 16 18.453 0 10.307-8.36 18.667-18.667 18.667s-18.667-8.36-18.667-18.667c0-4.48 1.573-8.573 4.2-11.8l14.467 14.467 3.773-3.773-18.133-18.133-0.027 0.053c-5.827 4.373-9.613 11.333-9.613 19.187 0 13.253 10.72 24 23.987 24s24.013-10.747 24.013-24-10.747-24-24.013-24h-2.653zM48 32c0-1.467-1.2-2.667-2.667-2.667s-2.667 1.2-2.667 2.667 1.2 2.667 2.667 2.667 2.667-1.2 2.667-2.667zM16 32c0 1.467 1.2 2.667 2.667 2.667s2.667-1.2 2.667-2.667-1.2-2.667-2.667-2.667-2.667 1.2-2.667 2.667z" fill="#444444"></path>
</svg>
