<?xml version="1.0" encoding="utf-8"?>
<!-- Generated by IcoMoon.io -->
<!DOCTYPE svg PUBLIC "-//W3C//DTD SVG 1.1//EN" "http://www.w3.org/Graphics/SVG/1.1/DTD/svg11.dtd">
<svg version="1.1" xmlns="http://www.w3.org/2000/svg" xmlns:xlink="http://www.w3.org/1999/xlink" width="64" height="64" viewBox="0 0 64 64">
<path d="M58.667 8h-40c-1.84 0-3.293 0.933-4.253 2.347l-14.413 21.64 14.413 21.64c0.96 1.413 2.413 2.373 4.253 2.373h40c2.947 0 5.333-2.387 5.333-5.333v-37.333c0-2.947-2.387-5.333-5.333-5.333zM50.667 41.56l-3.773 3.773-9.56-9.56-9.56 9.56-3.773-3.773 9.56-9.56-9.56-9.56 3.773-3.773 9.56 9.56 9.56-9.56 3.773 3.773-9.56 9.56 9.56 9.56z" fill="#444444"></path>
</svg>
