<?xml version="1.0" encoding="utf-8"?>
<!-- Generated by IcoMoon.io -->
<!DOCTYPE svg PUBLIC "-//W3C//DTD SVG 1.1//EN" "http://www.w3.org/Graphics/SVG/1.1/DTD/svg11.dtd">
<svg version="1.1" xmlns="http://www.w3.org/2000/svg" xmlns:xlink="http://www.w3.org/1999/xlink" width="64" height="64" viewBox="0 0 64 64">
<path d="M13.333 46.667c2.213 0 4-1.787 4-4s-1.787-4-4-4-4 1.787-4 4 1.787 4 4 4zM24 34.667c1.467 0 2.667-1.2 2.667-2.667s-1.2-2.667-2.667-2.667-2.667 1.2-2.667 2.667 1.2 2.667 2.667 2.667zM24 24c1.467 0 2.667-1.2 2.667-2.667s-1.2-2.667-2.667-2.667-2.667 1.2-2.667 2.667 1.2 2.667 2.667 2.667zM8 56h48v-5.333h-48v5.333zM13.333 25.333c2.213 0 4-1.787 4-4s-1.787-4-4-4-4 1.787-4 4 1.787 4 4 4zM13.333 36c2.213 0 4-1.787 4-4s-1.787-4-4-4-4 1.787-4 4 1.787 4 4 4zM24 45.333c1.467 0 2.667-1.2 2.667-2.667s-1.2-2.667-2.667-2.667-2.667 1.2-2.667 2.667 1.2 2.667 2.667 2.667zM45.333 44c0.733 0 1.333-0.6 1.333-1.333s-0.6-1.333-1.333-1.333-1.333 0.6-1.333 1.333 0.6 1.333 1.333 1.333zM8 8v5.333h48v-5.333h-48zM45.333 22.667c0.733 0 1.333-0.6 1.333-1.333s-0.6-1.333-1.333-1.333-1.333 0.6-1.333 1.333 0.6 1.333 1.333 1.333zM45.333 33.333c0.733 0 1.333-0.6 1.333-1.333s-0.6-1.333-1.333-1.333-1.333 0.6-1.333 1.333 0.6 1.333 1.333 1.333zM34.667 24c1.467 0 2.667-1.2 2.667-2.667s-1.2-2.667-2.667-2.667-2.667 1.2-2.667 2.667 1.2 2.667 2.667 2.667zM34.667 34.667c1.467 0 2.667-1.2 2.667-2.667s-1.2-2.667-2.667-2.667-2.667 1.2-2.667 2.667 1.2 2.667 2.667 2.667zM34.667 45.333c1.467 0 2.667-1.2 2.667-2.667s-1.2-2.667-2.667-2.667-2.667 1.2-2.667 2.667 1.2 2.667 2.667 2.667z" fill="#444444"></path>
</svg>
