<?xml version="1.0" encoding="utf-8"?>
<!-- Generated by IcoMoon.io -->
<!DOCTYPE svg PUBLIC "-//W3C//DTD SVG 1.1//EN" "http://www.w3.org/Graphics/SVG/1.1/DTD/svg11.dtd">
<svg version="1.1" xmlns="http://www.w3.org/2000/svg" xmlns:xlink="http://www.w3.org/1999/xlink" width="64" height="64" viewBox="0 0 64 64">
<path d="M26.667 24c-1.467 0-2.667 1.2-2.667 2.667s1.2 2.667 2.667 2.667 2.667-1.2 2.667-2.667-1.2-2.667-2.667-2.667zM26.667 34.667c-1.467 0-2.667 1.2-2.667 2.667s1.2 2.667 2.667 2.667 2.667-1.2 2.667-2.667-1.2-2.667-2.667-2.667zM18.667 25.333c-0.733 0-1.333 0.6-1.333 1.333s0.6 1.333 1.333 1.333 1.333-0.6 1.333-1.333-0.6-1.333-1.333-1.333zM26.667 44c-0.733 0-1.333 0.6-1.333 1.333s0.6 1.333 1.333 1.333 1.333-0.6 1.333-1.333-0.6-1.333-1.333-1.333zM18.667 36c-0.733 0-1.333 0.6-1.333 1.333s0.6 1.333 1.333 1.333 1.333-0.6 1.333-1.333-0.6-1.333-1.333-1.333zM26.667 20c0.733 0 1.333-0.6 1.333-1.333s-0.6-1.333-1.333-1.333-1.333 0.6-1.333 1.333 0.6 1.333 1.333 1.333zM37.333 24c-1.467 0-2.667 1.2-2.667 2.667s1.2 2.667 2.667 2.667 2.667-1.2 2.667-2.667-1.2-2.667-2.667-2.667zM37.333 20c0.733 0 1.333-0.6 1.333-1.333s-0.6-1.333-1.333-1.333-1.333 0.6-1.333 1.333 0.6 1.333 1.333 1.333zM45.333 36c-0.733 0-1.333 0.6-1.333 1.333s0.6 1.333 1.333 1.333 1.333-0.6 1.333-1.333-0.6-1.333-1.333-1.333zM45.333 25.333c-0.733 0-1.333 0.6-1.333 1.333s0.6 1.333 1.333 1.333 1.333-0.6 1.333-1.333-0.6-1.333-1.333-1.333zM32 5.333c-14.733 0-26.667 11.933-26.667 26.667s11.933 26.667 26.667 26.667 26.667-11.933 26.667-26.667-11.933-26.667-26.667-26.667zM32 53.333c-11.787 0-21.333-9.547-21.333-21.333s9.547-21.333 21.333-21.333 21.333 9.547 21.333 21.333-9.547 21.333-21.333 21.333zM37.333 44c-0.733 0-1.333 0.6-1.333 1.333s0.6 1.333 1.333 1.333 1.333-0.6 1.333-1.333-0.6-1.333-1.333-1.333zM37.333 34.667c-1.467 0-2.667 1.2-2.667 2.667s1.2 2.667 2.667 2.667 2.667-1.2 2.667-2.667-1.2-2.667-2.667-2.667z" fill="#444444"></path>
</svg>
