<?xml version="1.0" encoding="utf-8"?>
<!-- Generated by IcoMoon.io -->
<!DOCTYPE svg PUBLIC "-//W3C//DTD SVG 1.1//EN" "http://www.w3.org/Graphics/SVG/1.1/DTD/svg11.dtd">
<svg version="1.1" xmlns="http://www.w3.org/2000/svg" xmlns:xlink="http://www.w3.org/1999/xlink" width="64" height="64" viewBox="0 0 64 64">
<path d="M37.333 18.667c1.467 0 2.667-1.2 2.667-2.667s-1.2-2.667-2.667-2.667-2.667 1.2-2.667 2.667 1.2 2.667 2.667 2.667zM36.8 30.613c0.173 0.027 0.347 0.053 0.533 0.053 2.213 0 4-1.787 4-4s-1.787-4-4-4-4 1.787-4 4c0 0.187 0.027 0.36 0.053 0.547 0.24 1.76 1.64 3.16 3.413 3.4zM37.333 9.333c0.733 0 1.333-0.6 1.333-1.333s-0.6-1.333-1.333-1.333-1.333 0.6-1.333 1.333 0.6 1.333 1.333 1.333zM26.667 9.333c0.733 0 1.333-0.6 1.333-1.333s-0.6-1.333-1.333-1.333-1.333 0.6-1.333 1.333 0.6 1.333 1.333 1.333zM56 28c0.733 0 1.333-0.6 1.333-1.333s-0.6-1.333-1.333-1.333-1.333 0.6-1.333 1.333 0.6 1.333 1.333 1.333zM26.667 18.667c1.467 0 2.667-1.2 2.667-2.667s-1.2-2.667-2.667-2.667-2.667 1.2-2.667 2.667 1.2 2.667 2.667 2.667zM48 40c1.467 0 2.667-1.2 2.667-2.667s-1.2-2.667-2.667-2.667-2.667 1.2-2.667 2.667 1.2 2.667 2.667 2.667zM48 29.333c1.467 0 2.667-1.2 2.667-2.667s-1.2-2.667-2.667-2.667-2.667 1.2-2.667 2.667 1.2 2.667 2.667 2.667zM48 18.667c1.467 0 2.667-1.2 2.667-2.667s-1.2-2.667-2.667-2.667-2.667 1.2-2.667 2.667 1.2 2.667 2.667 2.667zM37.333 54.667c-0.733 0-1.333 0.6-1.333 1.333s0.6 1.333 1.333 1.333 1.333-0.6 1.333-1.333-0.6-1.333-1.333-1.333zM6.667 14.067l10.093 10.093c-0.253-0.080-0.493-0.16-0.76-0.16-1.467 0-2.667 1.2-2.667 2.667s1.2 2.667 2.667 2.667 2.667-1.2 2.667-2.667c0-0.267-0.080-0.507-0.147-0.76l7.493 7.493c-1.907 0.32-3.347 1.947-3.347 3.933 0 2.213 1.787 4 4 4 1.987 0 3.613-1.44 3.933-3.333l7.493 7.493c-0.24-0.080-0.493-0.16-0.76-0.16-1.467 0-2.667 1.2-2.667 2.667s1.2 2.667 2.667 2.667 2.667-1.2 2.667-2.667c0-0.267-0.080-0.507-0.147-0.76l10.080 10.093 3.4-3.4-43.267-43.267-3.4 3.4zM26.667 45.333c-1.467 0-2.667 1.2-2.667 2.667s1.2 2.667 2.667 2.667 2.667-1.2 2.667-2.667-1.2-2.667-2.667-2.667zM56 36c-0.733 0-1.333 0.6-1.333 1.333s0.6 1.333 1.333 1.333 1.333-0.6 1.333-1.333-0.6-1.333-1.333-1.333zM16 34.667c-1.467 0-2.667 1.2-2.667 2.667s1.2 2.667 2.667 2.667 2.667-1.2 2.667-2.667-1.2-2.667-2.667-2.667zM8 25.333c-0.733 0-1.333 0.6-1.333 1.333s0.6 1.333 1.333 1.333 1.333-0.6 1.333-1.333-0.6-1.333-1.333-1.333zM26.667 54.667c-0.733 0-1.333 0.6-1.333 1.333s0.6 1.333 1.333 1.333 1.333-0.6 1.333-1.333-0.6-1.333-1.333-1.333zM16 45.333c-1.467 0-2.667 1.2-2.667 2.667s1.2 2.667 2.667 2.667 2.667-1.2 2.667-2.667-1.2-2.667-2.667-2.667zM8 36c-0.733 0-1.333 0.6-1.333 1.333s0.6 1.333 1.333 1.333 1.333-0.6 1.333-1.333-0.6-1.333-1.333-1.333z" fill="#444444"></path>
</svg>
