<?xml version="1.0" encoding="utf-8"?>
<!-- Generated by IcoMoon.io -->
<!DOCTYPE svg PUBLIC "-//W3C//DTD SVG 1.1//EN" "http://www.w3.org/Graphics/SVG/1.1/DTD/svg11.dtd">
<svg version="1.1" xmlns="http://www.w3.org/2000/svg" xmlns:xlink="http://www.w3.org/1999/xlink" width="64" height="64" viewBox="0 0 64 64">
<path d="M50.667 21.333l-10.667 10.667h8c0 8.84-7.16 16-16 16-2.707 0-5.24-0.68-7.48-1.853l-3.893 3.893c3.307 2.067 7.187 3.293 11.373 3.293 11.787 0 21.333-9.547 21.333-21.333h8l-10.667-10.667zM16 32c0-8.84 7.16-16 16-16 2.707 0 5.24 0.68 7.48 1.853l3.893-3.893c-3.307-2.067-7.187-3.293-11.373-3.293-11.787 0-21.333 9.547-21.333 21.333h-8l10.667 10.667 10.667-10.667h-8z" fill="#444444"></path>
</svg>
