<?xml version="1.0" encoding="utf-8"?>
<!-- Generated by IcoMoon.io -->
<!DOCTYPE svg PUBLIC "-//W3C//DTD SVG 1.1//EN" "http://www.w3.org/Graphics/SVG/1.1/DTD/svg11.dtd">
<svg version="1.1" xmlns="http://www.w3.org/2000/svg" xmlns:xlink="http://www.w3.org/1999/xlink" width="64" height="64" viewBox="0 0 64 64">
<path d="M32 18.667c2.947 0 5.333-2.387 5.333-5.333 0-1-0.28-1.947-0.76-2.747l-4.573-7.92-4.573 7.92c-0.48 0.8-0.76 1.747-0.76 2.747 0 2.947 2.387 5.333 5.333 5.333zM56 56v-10.667c0-2.947-2.387-5.333-5.333-5.333h-2.667v-8c0-2.947-2.387-5.333-5.333-5.333h-8v-5.333h-5.333v5.333h-8c-2.947 0-5.333 2.387-5.333 5.333v8h-2.667c-2.947 0-5.333 2.387-5.333 5.333v10.667h-5.333v5.333h58.667v-5.333h-5.333z" fill="#444444"></path>
</svg>
