<?xml version="1.0" encoding="utf-8"?>
<!-- Generated by IcoMoon.io -->
<!DOCTYPE svg PUBLIC "-//W3C//DTD SVG 1.1//EN" "http://www.w3.org/Graphics/SVG/1.1/DTD/svg11.dtd">
<svg version="1.1" xmlns="http://www.w3.org/2000/svg" xmlns:xlink="http://www.w3.org/1999/xlink" width="64" height="64" viewBox="0 0 64 64">
<path d="M25.067 28l12.707-22.013c-1.853-0.413-3.787-0.653-5.773-0.653-6.4 0-12.253 2.253-16.853 6.013l9.773 16.92 0.147-0.267zM57.44 24c-2.453-7.8-8.4-14.027-15.987-16.907l-9.76 16.907h25.747zM58.133 26.667h-19.973l0.773 1.333 12.707 22c4.347-4.747 7.027-11.053 7.027-18 0-1.827-0.187-3.613-0.533-5.333zM22.76 32l-10.4-18c-4.347 4.747-7.027 11.053-7.027 18 0 1.827 0.187 3.613 0.533 5.333h19.973l-3.080-5.333zM6.56 40c2.453 7.8 8.4 14.027 15.987 16.907l9.76-16.907h-25.747zM36.613 40l-10.4 18.013c1.867 0.413 3.8 0.653 5.787 0.653 6.4 0 12.253-2.253 16.853-6.013l-9.773-16.92-2.467 4.267z" fill="#444444"></path>
</svg>
