<?xml version="1.0" encoding="utf-8"?>
<!-- Generated by IcoMoon.io -->
<!DOCTYPE svg PUBLIC "-//W3C//DTD SVG 1.1//EN" "http://www.w3.org/Graphics/SVG/1.1/DTD/svg11.dtd">
<svg version="1.1" xmlns="http://www.w3.org/2000/svg" xmlns:xlink="http://www.w3.org/1999/xlink" width="64" height="64" viewBox="0 0 64 64">
<path d="M37.333 13.333c0-2.947-2.387-5.333-5.333-5.333h-2.667v-2.667c0-1.467-1.2-2.667-2.667-2.667h-10.667c-1.467 0-2.667 1.2-2.667 2.667v2.667h-2.667c-2.947 0-5.333 2.387-5.333 5.333v40c0 2.947 2.387 5.333 5.333 5.333h21.333c2.947 0 5.333-2.387 5.333-5.333h21.333v-40h-21.333zM32 48h-5.333v-5.333h5.333v5.333zM32 24h-5.333v-5.333h5.333v5.333zM42.667 48h-5.333v-5.333h5.333v5.333zM42.667 24h-5.333v-5.333h5.333v5.333zM53.333 48h-5.333v-5.333h5.333v5.333zM53.333 24h-5.333v-5.333h5.333v5.333z" fill="#444444"></path>
</svg>
