<?xml version="1.0" encoding="utf-8"?>
<!-- Generated by IcoMoon.io -->
<!DOCTYPE svg PUBLIC "-//W3C//DTD SVG 1.1//EN" "http://www.w3.org/Graphics/SVG/1.1/DTD/svg11.dtd">
<svg version="1.1" xmlns="http://www.w3.org/2000/svg" xmlns:xlink="http://www.w3.org/1999/xlink" width="64" height="64" viewBox="0 0 64 64">
<path d="M32 21.333c-5.893 0-10.667 4.773-10.667 10.667s4.773 10.667 10.667 10.667 10.667-4.773 10.667-10.667-4.773-10.667-10.667-10.667zM13.333 40h-5.333v10.667c0 2.947 2.387 5.333 5.333 5.333h10.667v-5.333h-10.667v-10.667zM13.333 13.333h10.667v-5.333h-10.667c-2.947 0-5.333 2.387-5.333 5.333v10.667h5.333v-10.667zM50.667 8h-10.667v5.333h10.667v10.667h5.333v-10.667c0-2.947-2.387-5.333-5.333-5.333zM50.667 50.667h-10.667v5.333h10.667c2.947 0 5.333-2.387 5.333-5.333v-10.667h-5.333v10.667z" fill="#444444"></path>
</svg>
