<?xml version="1.0" encoding="utf-8"?>
<!-- Generated by IcoMoon.io -->
<!DOCTYPE svg PUBLIC "-//W3C//DTD SVG 1.1//EN" "http://www.w3.org/Graphics/SVG/1.1/DTD/svg11.dtd">
<svg version="1.1" xmlns="http://www.w3.org/2000/svg" xmlns:xlink="http://www.w3.org/1999/xlink" width="64" height="64" viewBox="0 0 64 64">
<path d="M50.667 10.667h-37.333c-2.947 0-5.333 2.387-5.333 5.333v32c0 2.947 2.387 5.333 5.333 5.333h37.333c2.947 0 5.333-2.387 5.333-5.333v-32c0-2.947-2.387-5.333-5.333-5.333zM29.333 29.333h-4v-1.333h-5.333v8h5.333v-1.333h4v2.667c0 1.467-1.187 2.667-2.667 2.667h-8c-1.48 0-2.667-1.2-2.667-2.667v-10.667c0-1.467 1.187-2.667 2.667-2.667h8c1.48 0 2.667 1.2 2.667 2.667v2.667zM48 29.333h-4v-1.333h-5.333v8h5.333v-1.333h4v2.667c0 1.467-1.187 2.667-2.667 2.667h-8c-1.48 0-2.667-1.2-2.667-2.667v-10.667c0-1.467 1.187-2.667 2.667-2.667h8c1.48 0 2.667 1.2 2.667 2.667v2.667z" fill="#444444"></path>
</svg>
