<?xml version="1.0" encoding="utf-8"?>
<!-- Generated by IcoMoon.io -->
<!DOCTYPE svg PUBLIC "-//W3C//DTD SVG 1.1//EN" "http://www.w3.org/Graphics/SVG/1.1/DTD/svg11.dtd">
<svg version="1.1" xmlns="http://www.w3.org/2000/svg" xmlns:xlink="http://www.w3.org/1999/xlink" width="64" height="64" viewBox="0 0 64 64">
<path d="M51.613 26.76c-1.813-9.173-9.907-16.093-19.613-16.093-3.933 0-7.6 1.16-10.693 3.12l3.893 3.893c2.040-1.053 4.347-1.68 6.8-1.68 8.107 0 14.667 6.56 14.667 14.667v1.333h4c4.413 0 8 3.587 8 8 0 3.027-1.693 5.627-4.173 6.987l3.867 3.867c3.4-2.413 5.64-6.36 5.64-10.853 0-7.040-5.48-12.747-12.387-13.24zM8 14.067l7.333 7.307c-8.507 0.36-15.333 7.36-15.333 15.96 0 8.84 7.16 16 16 16h31.267l5.333 5.333 3.4-3.387-44.6-44.613-3.4 3.4zM20.6 26.667l21.333 21.333h-25.933c-5.893 0-10.667-4.773-10.667-10.667s4.773-10.667 10.667-10.667h4.6z" fill="#444444"></path>
</svg>
