<?xml version="1.0" encoding="utf-8"?>
<!-- Generated by IcoMoon.io -->
<!DOCTYPE svg PUBLIC "-//W3C//DTD SVG 1.1//EN" "http://www.w3.org/Graphics/SVG/1.1/DTD/svg11.dtd">
<svg version="1.1" xmlns="http://www.w3.org/2000/svg" xmlns:xlink="http://www.w3.org/1999/xlink" width="64" height="64" viewBox="0 0 64 64">
<path d="M51.613 26.76c-1.813-9.173-9.907-16.093-19.613-16.093-7.707 0-14.387 4.373-17.733 10.76-8.013 0.867-14.267 7.653-14.267 15.907 0 8.84 7.16 16 16 16h34.667c7.36 0 13.333-5.973 13.333-13.333 0-7.040-5.48-12.747-12.387-13.24zM50.667 48h-34.667c-5.893 0-10.667-4.773-10.667-10.667s4.773-10.667 10.667-10.667h1.893c1.747-6.147 7.387-10.667 14.107-10.667 8.107 0 14.667 6.56 14.667 14.667v1.333h4c4.413 0 8 3.587 8 8s-3.587 8-8 8z" fill="#444444"></path>
</svg>
