<?xml version="1.0" encoding="utf-8"?>
<!-- Generated by IcoMoon.io -->
<!DOCTYPE svg PUBLIC "-//W3C//DTD SVG 1.1//EN" "http://www.w3.org/Graphics/SVG/1.1/DTD/svg11.dtd">
<svg version="1.1" xmlns="http://www.w3.org/2000/svg" xmlns:xlink="http://www.w3.org/1999/xlink" width="64" height="64" viewBox="0 0 64 64">
<path d="M32 5.333c-14.733 0-26.667 11.933-26.667 26.667s11.933 26.667 26.667 26.667 26.667-11.933 26.667-26.667-11.933-26.667-26.667-26.667zM44 42.667h-22.667c-4.413 0-8-3.587-8-8s3.587-8 8-8l0.36 0.040c1.187-4.613 5.333-8.040 10.307-8.040 5.893 0 10.667 4.773 10.667 10.667h1.333c3.68 0 6.667 2.987 6.667 6.667s-2.987 6.667-6.667 6.667z" fill="#444444"></path>
</svg>
