<?xml version="1.0" encoding="utf-8"?>
<!-- Generated by IcoMoon.io -->
<!DOCTYPE svg PUBLIC "-//W3C//DTD SVG 1.1//EN" "http://www.w3.org/Graphics/SVG/1.1/DTD/svg11.dtd">
<svg version="1.1" xmlns="http://www.w3.org/2000/svg" xmlns:xlink="http://www.w3.org/1999/xlink" width="64" height="64" viewBox="0 0 64 64">
<path d="M32 8c-13.253 0-24 10.747-24 24s10.747 24 24 24c2.213 0 4-1.787 4-4 0-1.040-0.387-1.973-1.040-2.68-0.627-0.707-1-1.627-1-2.653 0-2.213 1.787-4 4-4h4.707c7.36 0 13.333-5.973 13.333-13.333 0-11.787-10.747-21.333-24-21.333zM17.333 32c-2.213 0-4-1.787-4-4s1.787-4 4-4 4 1.787 4 4-1.787 4-4 4zM25.333 21.333c-2.213 0-4-1.787-4-4s1.787-4 4-4 4 1.787 4 4-1.787 4-4 4zM38.667 21.333c-2.213 0-4-1.787-4-4s1.787-4 4-4 4 1.787 4 4-1.787 4-4 4zM46.667 32c-2.213 0-4-1.787-4-4s1.787-4 4-4 4 1.787 4 4-1.787 4-4 4z" fill="#444444"></path>
</svg>
