<?xml version="1.0" encoding="utf-8"?>
<!-- Generated by IcoMoon.io -->
<!DOCTYPE svg PUBLIC "-//W3C//DTD SVG 1.1//EN" "http://www.w3.org/Graphics/SVG/1.1/DTD/svg11.dtd">
<svg version="1.1" xmlns="http://www.w3.org/2000/svg" xmlns:xlink="http://www.w3.org/1999/xlink" width="64" height="64" viewBox="0 0 64 64">
<path d="M53.333 0h-42.667v5.333h42.667v-5.333zM10.667 64h42.667v-5.333h-42.667v5.333zM53.333 10.667h-42.667c-2.947 0-5.333 2.387-5.333 5.333v32c0 2.947 2.387 5.333 5.333 5.333h42.667c2.947 0 5.333-2.387 5.333-5.333v-32c0-2.947-2.387-5.333-5.333-5.333zM32 18c3.307 0 6 2.693 6 6 0 3.32-2.693 6-6 6s-6-2.68-6-6c0-3.307 2.693-6 6-6zM45.333 45.333h-26.667v-4c0-4.44 8.893-6.667 13.333-6.667s13.333 2.227 13.333 6.667v4z" fill="#444444"></path>
</svg>
