<?xml version="1.0" encoding="utf-8"?>
<!-- Generated by IcoMoon.io -->
<!DOCTYPE svg PUBLIC "-//W3C//DTD SVG 1.1//EN" "http://www.w3.org/Graphics/SVG/1.1/DTD/svg11.dtd">
<svg version="1.1" xmlns="http://www.w3.org/2000/svg" xmlns:xlink="http://www.w3.org/1999/xlink" width="64" height="64" viewBox="0 0 64 64">
<path d="M42.667 21.333h-5.333v8h-8v5.333h8v8h5.333v-8h8v-5.333h-8zM5.333 32c0-7.44 4.387-13.853 10.693-16.853v-5.747c-9.32 3.28-16.027 12.16-16.027 22.6s6.707 19.32 16.027 22.6v-5.747c-6.307-3-10.693-9.413-10.693-16.853zM40 8c-13.24 0-24 10.76-24 24s10.76 24 24 24 24-10.76 24-24-10.76-24-24-24zM40 50.667c-10.293 0-18.667-8.373-18.667-18.667s8.373-18.667 18.667-18.667 18.667 8.373 18.667 18.667-8.373 18.667-18.667 18.667z" fill="#444444"></path>
</svg>
