<?xml version="1.0" encoding="utf-8"?>
<!-- Generated by IcoMoon.io -->
<!DOCTYPE svg PUBLIC "-//W3C//DTD SVG 1.1//EN" "http://www.w3.org/Graphics/SVG/1.1/DTD/svg11.dtd">
<svg version="1.1" xmlns="http://www.w3.org/2000/svg" xmlns:xlink="http://www.w3.org/1999/xlink" width="64" height="64" viewBox="0 0 64 64">
<path d="M50.667 5.333h-11.16c-1.093-3.093-4.027-5.333-7.507-5.333s-6.413 2.24-7.507 5.333h-11.16c-2.947 0-5.333 2.387-5.333 5.333v42.667c0 2.947 2.387 5.333 5.333 5.333h37.333c2.947 0 5.333-2.387 5.333-5.333v-42.667c0-2.947-2.387-5.333-5.333-5.333zM32 5.333c1.467 0 2.667 1.187 2.667 2.667s-1.2 2.667-2.667 2.667-2.667-1.187-2.667-2.667 1.2-2.667 2.667-2.667zM50.667 53.333h-37.333v-42.667h5.333v8h26.667v-8h5.333v42.667z" fill="#444444"></path>
</svg>
