<?xml version="1.0" encoding="utf-8"?>
<!-- Generated by IcoMoon.io -->
<!DOCTYPE svg PUBLIC "-//W3C//DTD SVG 1.1//EN" "http://www.w3.org/Graphics/SVG/1.1/DTD/svg11.dtd">
<svg version="1.1" xmlns="http://www.w3.org/2000/svg" xmlns:xlink="http://www.w3.org/1999/xlink" width="64" height="64" viewBox="0 0 64 64">
<path d="M25.707 20.373c0.6-1.333 0.96-2.813 0.96-4.373 0-5.893-4.773-10.667-10.667-10.667s-10.667 4.773-10.667 10.667 4.773 10.667 10.667 10.667c1.56 0 3.040-0.36 4.373-0.96l6.293 6.293-6.293 6.293c-1.333-0.6-2.813-0.96-4.373-0.96-5.893 0-10.667 4.773-10.667 10.667s4.773 10.667 10.667 10.667 10.667-4.773 10.667-10.667c0-1.56-0.36-3.040-0.96-4.373l6.293-6.293 18.667 18.667h8v-2.667l-32.96-32.96zM16 21.333c-2.947 0-5.333-2.387-5.333-5.333s2.387-5.333 5.333-5.333 5.333 2.387 5.333 5.333-2.387 5.333-5.333 5.333zM16 53.333c-2.947 0-5.333-2.387-5.333-5.333s2.387-5.333 5.333-5.333 5.333 2.387 5.333 5.333-2.387 5.333-5.333 5.333zM32 33.333c-0.733 0-1.333-0.6-1.333-1.333s0.6-1.333 1.333-1.333 1.333 0.6 1.333 1.333-0.6 1.333-1.333 1.333zM50.667 8l-16 16 5.333 5.333 18.667-18.667v-2.667z" fill="#444444"></path>
</svg>
