<?xml version="1.0" encoding="utf-8"?>
<!-- Generated by IcoMoon.io -->
<!DOCTYPE svg PUBLIC "-//W3C//DTD SVG 1.1//EN" "http://www.w3.org/Graphics/SVG/1.1/DTD/svg11.dtd">
<svg version="1.1" xmlns="http://www.w3.org/2000/svg" xmlns:xlink="http://www.w3.org/1999/xlink" width="64" height="64" viewBox="0 0 64 64">
<path d="M32 5.333c-14.667 0-26.667 12-26.667 26.667s12 26.667 26.667 26.667 26.667-12 26.667-26.667-12-26.667-26.667-26.667zM10.667 32c0-11.733 9.6-21.333 21.333-21.333 4.933 0 9.467 1.733 13.067 4.533l-29.867 29.867c-2.8-3.6-4.533-8.133-4.533-13.067zM32 53.333c-4.933 0-9.467-1.733-13.067-4.533l29.867-29.867c2.8 3.6 4.533 8.133 4.533 13.067 0 11.733-9.6 21.333-21.333 21.333z" fill="#444444"></path>
</svg>
