<?xml version="1.0" encoding="utf-8"?>
<!-- Generated by IcoMoon.io -->
<!DOCTYPE svg PUBLIC "-//W3C//DTD SVG 1.1//EN" "http://www.w3.org/Graphics/SVG/1.1/DTD/svg11.dtd">
<svg version="1.1" xmlns="http://www.w3.org/2000/svg" xmlns:xlink="http://www.w3.org/1999/xlink" width="64" height="64" viewBox="0 0 64 64">
<path d="M32 5.333c-14.733 0-26.667 11.933-26.667 26.667s11.933 26.667 26.667 26.667 26.667-11.933 26.667-26.667-11.933-26.667-26.667-26.667zM32 53.333c-11.787 0-21.333-9.547-21.333-21.333 0-4.933 1.693-9.453 4.493-13.067l29.907 29.907c-3.613 2.8-8.133 4.493-13.067 4.493zM48.84 45.067l-29.907-29.907c3.613-2.8 8.133-4.493 13.067-4.493 11.787 0 21.333 9.547 21.333 21.333 0 4.933-1.693 9.453-4.493 13.067z" fill="#444444"></path>
</svg>
