<?xml version="1.0" encoding="utf-8"?>
<!-- Generated by IcoMoon.io -->
<!DOCTYPE svg PUBLIC "-//W3C//DTD SVG 1.1//EN" "http://www.w3.org/Graphics/SVG/1.1/DTD/svg11.dtd">
<svg version="1.1" xmlns="http://www.w3.org/2000/svg" xmlns:xlink="http://www.w3.org/1999/xlink" width="64" height="64" viewBox="0 0 64 64">
<path d="M32 18.667v-10.667h-26.667v48h53.333v-37.333h-26.667zM16 50.667h-5.333v-5.333h5.333v5.333zM16 40h-5.333v-5.333h5.333v5.333zM16 29.333h-5.333v-5.333h5.333v5.333zM16 18.667h-5.333v-5.333h5.333v5.333zM26.667 50.667h-5.333v-5.333h5.333v5.333zM26.667 40h-5.333v-5.333h5.333v5.333zM26.667 29.333h-5.333v-5.333h5.333v5.333zM26.667 18.667h-5.333v-5.333h5.333v5.333zM53.333 50.667h-21.333v-5.333h5.333v-5.333h-5.333v-5.333h5.333v-5.333h-5.333v-5.333h21.333v26.667zM48 29.333h-5.333v5.333h5.333v-5.333zM48 40h-5.333v5.333h5.333v-5.333z" fill="#444444"></path>
</svg>
