<?xml version="1.0" encoding="utf-8"?>
<!-- Generated by IcoMoon.io -->
<!DOCTYPE svg PUBLIC "-//W3C//DTD SVG 1.1//EN" "http://www.w3.org/Graphics/SVG/1.1/DTD/svg11.dtd">
<svg version="1.1" xmlns="http://www.w3.org/2000/svg" xmlns:xlink="http://www.w3.org/1999/xlink" width="64" height="64" viewBox="0 0 64 64">
<path d="M56 8h-48c-2.947 0-5.333 2.387-5.333 5.333v32c0 2.947 2.387 5.333 5.333 5.333h13.333v5.333h21.333v-5.333h13.333c2.947 0 5.307-2.387 5.307-5.333l0.027-32c0-2.947-2.387-5.333-5.333-5.333zM56 45.333h-48v-32h48v32zM50.667 21.333h-29.333v5.333h29.333v-5.333zM50.667 32h-29.333v5.333h29.333v-5.333zM18.667 21.333h-5.333v5.333h5.333v-5.333zM18.667 32h-5.333v5.333h5.333v-5.333z" fill="#444444"></path>
</svg>
