<?xml version="1.0" encoding="utf-8"?>
<!-- Generated by IcoMoon.io -->
<!DOCTYPE svg PUBLIC "-//W3C//DTD SVG 1.1//EN" "http://www.w3.org/Graphics/SVG/1.1/DTD/svg11.dtd">
<svg version="1.1" xmlns="http://www.w3.org/2000/svg" xmlns:xlink="http://www.w3.org/1999/xlink" width="64" height="64" viewBox="0 0 64 64">
<path d="M44 8c-4.64 0-9.093 2.16-12 5.56-2.907-3.4-7.36-5.56-12-5.56-8.227 0-14.667 6.44-14.667 14.667 0 10.067 9.067 18.293 22.8 30.76l3.867 3.507 3.867-3.507c13.733-12.467 22.8-20.693 22.8-30.76 0-8.227-6.44-14.667-14.667-14.667zM32.28 49.48l-0.28 0.253-0.28-0.253c-12.68-11.507-21.053-19.107-21.053-26.813 0-5.32 4.013-9.333 9.333-9.333 4.107 0 8.107 2.653 9.507 6.293h4.973c1.413-3.64 5.413-6.293 9.52-6.293 5.32 0 9.333 4.013 9.333 9.333 0 7.707-8.373 15.307-21.053 26.813z" fill="#444444"></path>
</svg>
