<?xml version="1.0" encoding="utf-8"?>
<!-- Generated by IcoMoon.io -->
<!DOCTYPE svg PUBLIC "-//W3C//DTD SVG 1.1//EN" "http://www.w3.org/Graphics/SVG/1.1/DTD/svg11.dtd">
<svg version="1.1" xmlns="http://www.w3.org/2000/svg" xmlns:xlink="http://www.w3.org/1999/xlink" width="64" height="64" viewBox="0 0 64 64">
<path d="M49.853 33.067c-0.747-0.427-1.52-0.773-2.293-1.067 0.773-0.293 1.547-0.64 2.293-1.067 5.12-2.96 7.973-8.333 7.987-13.853-4.787-2.747-10.867-2.96-15.987 0-0.747 0.427-1.427 0.92-2.080 1.453 0.133-0.84 0.227-1.667 0.227-2.533 0-5.92-3.227-11.080-8-13.84-4.773 2.76-8 7.92-8 13.84 0 0.867 0.080 1.693 0.213 2.52-0.653-0.52-1.333-1.013-2.080-1.453-5.12-2.96-11.2-2.747-15.987 0 0.013 5.52 2.867 10.893 7.987 13.853 0.747 0.427 1.52 0.773 2.293 1.067-0.773 0.293-1.547 0.64-2.293 1.067-5.12 2.96-7.973 8.333-7.987 13.853 4.787 2.747 10.867 2.96 15.987 0 0.747-0.427 1.427-0.92 2.080-1.453-0.12 0.853-0.213 1.68-0.213 2.547 0 5.92 3.227 11.080 8 13.84 4.773-2.773 8-7.92 8-13.84 0-0.867-0.093-1.693-0.213-2.52 0.653 0.52 1.333 1.013 2.080 1.453 5.12 2.96 11.2 2.747 15.987 0-0.013-5.533-2.867-10.907-8-13.867zM32 42.667c-5.893 0-10.667-4.773-10.667-10.667s4.773-10.667 10.667-10.667 10.667 4.773 10.667 10.667-4.773 10.667-10.667 10.667z" fill="#444444"></path>
</svg>
