<?xml version="1.0" encoding="utf-8"?>
<!-- Generated by IcoMoon.io -->
<!DOCTYPE svg PUBLIC "-//W3C//DTD SVG 1.1//EN" "http://www.w3.org/Graphics/SVG/1.1/DTD/svg11.dtd">
<svg version="1.1" xmlns="http://www.w3.org/2000/svg" xmlns:xlink="http://www.w3.org/1999/xlink" width="64" height="64" viewBox="0 0 64 64">
<path d="M29.333 16c3.68 0 7.013 1.493 9.427 3.907l-6.76 6.76h16v-16l-5.467 5.467c-3.373-3.373-8.040-5.467-13.2-5.467-9.4 0-17.16 6.96-18.453 16h5.387c1.24-6.080 6.613-10.667 13.067-10.667zM44.373 40.36c1.773-2.413 2.973-5.267 3.413-8.36h-5.387c-1.24 6.080-6.613 10.667-13.067 10.667-3.68 0-7.013-1.493-9.427-3.907l6.76-6.76h-16v16l5.467-5.467c3.373 3.373 8.040 5.467 13.2 5.467 4.133 0 7.947-1.36 11.040-3.64l12.96 12.947 3.973-3.973-12.933-12.973z" fill="#444444"></path>
</svg>
