<?xml version="1.0" encoding="utf-8"?>
<!-- Generated by IcoMoon.io -->
<!DOCTYPE svg PUBLIC "-//W3C//DTD SVG 1.1//EN" "http://www.w3.org/Graphics/SVG/1.1/DTD/svg11.dtd">
<svg version="1.1" xmlns="http://www.w3.org/2000/svg" xmlns:xlink="http://www.w3.org/1999/xlink" width="64" height="64" viewBox="0 0 64 64">
<path d="M53.333 52.227v-30.893l-16-16h-21.333c-2.947 0-5.307 2.387-5.307 5.333l-0.027 42.667c0 2.947 2.36 5.333 5.307 5.333h32.027c1.187 0 2.28-0.4 3.16-1.067l-11.827-11.827c-2.093 1.4-4.613 2.227-7.333 2.227-7.36 0-13.333-5.973-13.333-13.333s5.973-13.333 13.333-13.333 13.333 5.973 13.333 13.333c0 2.72-0.827 5.24-2.213 7.347l10.213 10.213zM24 34.667c0 4.413 3.587 8 8 8s8-3.587 8-8-3.587-8-8-8-8 3.587-8 8z" fill="#444444"></path>
</svg>
