<?xml version="1.0" encoding="utf-8"?>
<!-- Generated by IcoMoon.io -->
<!DOCTYPE svg PUBLIC "-//W3C//DTD SVG 1.1//EN" "http://www.w3.org/Graphics/SVG/1.1/DTD/svg11.dtd">
<svg version="1.1" xmlns="http://www.w3.org/2000/svg" xmlns:xlink="http://www.w3.org/1999/xlink" width="64" height="64" viewBox="0 0 64 64">
<path d="M18.667 29.333h-16v5.333h16v-5.333zM24.453 20.68l-5.653-5.653-3.773 3.773 5.653 5.653 3.773-3.773zM34.667 2.667h-5.333v16h5.333v-16zM48.973 18.8l-3.773-3.773-5.653 5.653 3.773 3.773 5.653-5.653zM45.333 29.333v5.333h16v-5.333h-16zM32 24c-4.413 0-8 3.587-8 8s3.587 8 8 8 8-3.587 8-8-3.587-8-8-8zM39.547 43.32l5.653 5.653 3.773-3.773-5.653-5.653-3.773 3.773zM15.027 45.2l3.773 3.773 5.653-5.653-3.773-3.773-5.653 5.653zM29.333 61.333h5.333v-16h-5.333v16z" fill="#444444"></path>
</svg>
