<?xml version="1.0" encoding="utf-8"?>
<!-- Generated by IcoMoon.io -->
<!DOCTYPE svg PUBLIC "-//W3C//DTD SVG 1.1//EN" "http://www.w3.org/Graphics/SVG/1.1/DTD/svg11.dtd">
<svg version="1.1" xmlns="http://www.w3.org/2000/svg" xmlns:xlink="http://www.w3.org/1999/xlink" width="64" height="64" viewBox="0 0 64 64">
<path d="M41.6 28.773c2.573-1.8 4.4-4.707 4.4-7.44 0-6.013-4.653-10.667-10.667-10.667h-16.667v37.333h18.773c5.587 0 9.893-4.533 9.893-10.107 0-4.053-2.307-7.507-5.733-9.12zM26.667 17.333h8c2.213 0 4 1.787 4 4s-1.787 4-4 4h-8v-8zM36 41.333h-9.333v-8h9.333c2.213 0 4 1.787 4 4s-1.787 4-4 4z" fill="#444444"></path>
</svg>
