<?xml version="1.0" encoding="utf-8"?>
<!-- Generated by IcoMoon.io -->
<!DOCTYPE svg PUBLIC "-//W3C//DTD SVG 1.1//EN" "http://www.w3.org/Graphics/SVG/1.1/DTD/svg11.dtd">
<svg version="1.1" xmlns="http://www.w3.org/2000/svg" xmlns:xlink="http://www.w3.org/1999/xlink" width="64" height="64" viewBox="0 0 64 64">
<path d="M10.667 28c-2.213 0-4 1.787-4 4s1.787 4 4 4 4-1.787 4-4-1.787-4-4-4zM10.667 12c-2.213 0-4 1.787-4 4s1.787 4 4 4 4-1.787 4-4-1.787-4-4-4zM10.667 44.44c-1.96 0-3.56 1.587-3.56 3.56s1.6 3.56 3.56 3.56 3.56-1.587 3.56-3.56-1.6-3.56-3.56-3.56zM18.667 50.667h37.333v-5.333h-37.333v5.333zM18.667 34.667h37.333v-5.333h-37.333v5.333zM18.667 13.333v5.333h37.333v-5.333h-37.333z" fill="#444444"></path>
</svg>
