<?xml version="1.0" encoding="utf-8"?>
<!-- Generated by IcoMoon.io -->
<!DOCTYPE svg PUBLIC "-//W3C//DTD SVG 1.1//EN" "http://www.w3.org/Graphics/SVG/1.1/DTD/svg11.dtd">
<svg version="1.1" xmlns="http://www.w3.org/2000/svg" xmlns:xlink="http://www.w3.org/1999/xlink" width="64" height="64" viewBox="0 0 64 64">
<path d="M12.253 18.36c1.867-1.907 3.733-3.613 4.573-3.267 1.32 0.547-0.027 2.773-0.8 4.067-0.667 1.12-7.627 10.36-7.627 16.827 0 3.413 1.267 6.24 3.587 7.947 2 1.48 4.627 1.933 7.040 1.227 2.853-0.84 5.2-3.72 8.16-7.373 3.227-3.973 7.547-9.173 10.88-9.173 4.347 0 4.4 2.693 4.693 4.787-10.107 1.733-14.36 9.8-14.36 14.347s3.84 8.253 8.547 8.253c4.333 0 11.453-3.547 12.507-16.267h6.547v-6.667h-6.587c-0.4-4.4-2.907-11.187-10.747-11.187-6 0-11.16 5.093-13.16 7.587-1.547 1.933-5.48 6.6-6.093 7.267-0.68 0.787-1.8 2.24-2.973 2.24-1.187 0-1.907-2.227-0.973-5.133 0.933-2.92 3.733-7.627 4.933-9.373 2.093-3.040 3.453-5.133 3.453-8.747 0-5.867-4.373-7.707-6.693-7.707-3.52 0-6.587 2.667-7.267 3.347-0.947 0.96-1.747 1.747-2.333 2.467l4.693 4.533zM37.027 49.48c-0.827 0-1.96-0.693-1.96-1.933 0-1.6 1.933-5.867 7.667-7.373-0.827 7.187-3.84 9.307-5.707 9.307z" fill="#444444"></path>
</svg>
