<?xml version="1.0" encoding="utf-8"?>
<!-- Generated by IcoMoon.io -->
<!DOCTYPE svg PUBLIC "-//W3C//DTD SVG 1.1//EN" "http://www.w3.org/Graphics/SVG/1.1/DTD/svg11.dtd">
<svg version="1.1" xmlns="http://www.w3.org/2000/svg" xmlns:xlink="http://www.w3.org/1999/xlink" width="64" height="64" viewBox="0 0 64 64">
<path d="M32 21.333c-5.893 0-10.667 4.773-10.667 10.667s4.773 10.667 10.667 10.667 10.667-4.773 10.667-10.667-4.773-10.667-10.667-10.667zM55.84 29.333c-1.227-11.12-10.053-19.947-21.173-21.173v-5.493h-5.333v5.493c-11.12 1.227-19.947 10.053-21.173 21.173h-5.493v5.333h5.493c1.227 11.12 10.053 19.947 21.173 21.173v5.493h5.333v-5.493c11.12-1.227 19.947-10.053 21.173-21.173h5.493v-5.333h-5.493zM32 50.667c-10.307 0-18.667-8.36-18.667-18.667s8.36-18.667 18.667-18.667 18.667 8.36 18.667 18.667-8.36 18.667-18.667 18.667z" fill="#444444"></path>
</svg>
