<?xml version="1.0" encoding="utf-8"?>
<!-- Generated by IcoMoon.io -->
<!DOCTYPE svg PUBLIC "-//W3C//DTD SVG 1.1//EN" "http://www.w3.org/Graphics/SVG/1.1/DTD/svg11.dtd">
<svg version="1.1" xmlns="http://www.w3.org/2000/svg" xmlns:xlink="http://www.w3.org/1999/xlink" width="64" height="64" viewBox="0 0 64 64">
<path d="M21.333 26.667h-8v-8h-5.333v8h-8v5.333h8v8h5.333v-8h8v-5.333zM48 29.333c4.413 0 7.973-3.587 7.973-8s-3.56-8-7.973-8c-0.853 0-1.667 0.133-2.44 0.387 1.507 2.16 2.413 4.787 2.413 7.613s-0.907 5.453-2.413 7.613c0.773 0.253 1.587 0.387 2.44 0.387zM34.667 29.333c4.413 0 7.973-3.587 7.973-8s-3.56-8-7.973-8c-4.413 0-8 3.587-8 8s3.587 8 8 8zM52.32 35.093c2.213 1.933 3.68 4.427 3.68 7.573v5.333h8v-5.333c0-4.107-6.333-6.627-11.68-7.573zM34.667 34.667c-5.333 0-16 2.667-16 8v5.333h32v-5.333c0-5.333-10.667-8-16-8z" fill="#444444"></path>
</svg>
