<?xml version="1.0" encoding="utf-8"?>
<!-- Generated by IcoMoon.io -->
<!DOCTYPE svg PUBLIC "-//W3C//DTD SVG 1.1//EN" "http://www.w3.org/Graphics/SVG/1.1/DTD/svg11.dtd">
<svg version="1.1" xmlns="http://www.w3.org/2000/svg" xmlns:xlink="http://www.w3.org/1999/xlink" width="64" height="64" viewBox="0 0 64 64">
<path d="M42.667 29.333c4.413 0 7.973-3.587 7.973-8s-3.56-8-7.973-8c-4.413 0-8 3.587-8 8s3.587 8 8 8zM21.333 29.333c4.413 0 7.973-3.587 7.973-8s-3.56-8-7.973-8c-4.413 0-8 3.587-8 8s3.587 8 8 8zM21.333 34.667c-6.227 0-18.667 3.12-18.667 9.333v6.667h37.333v-6.667c0-6.213-12.44-9.333-18.667-9.333zM42.667 34.667c-0.773 0-1.64 0.053-2.573 0.147 3.093 2.227 5.24 5.227 5.24 9.187v6.667h16v-6.667c0-6.213-12.44-9.333-18.667-9.333z" fill="#444444"></path>
</svg>
