<?xml version="1.0" encoding="utf-8"?>
<!-- Generated by IcoMoon.io -->
<!DOCTYPE svg PUBLIC "-//W3C//DTD SVG 1.1//EN" "http://www.w3.org/Graphics/SVG/1.1/DTD/svg11.dtd">
<svg version="1.1" xmlns="http://www.w3.org/2000/svg" xmlns:xlink="http://www.w3.org/1999/xlink" width="64" height="64" viewBox="0 0 64 64">
<path d="M47.28 32.053l10.613-10.613c1.040-1.040 1.040-2.733 0-3.773l-11.56-11.56c-1.040-1.040-2.733-1.040-3.773 0l-10.613 10.613-10.613-10.6c-0.52-0.52-1.2-0.787-1.88-0.787s-1.36 0.267-1.88 0.787l-11.573 11.56c-1.040 1.040-1.040 2.733 0 3.773l10.613 10.613-10.613 10.6c-1.040 1.040-1.040 2.733 0 3.773l11.56 11.56c1.040 1.040 2.733 1.040 3.773 0l10.613-10.613 10.613 10.613c0.52 0.52 1.2 0.787 1.88 0.787s1.36-0.267 1.88-0.787l11.56-11.56c1.040-1.040 1.040-2.733 0-3.773l-10.6-10.613zM32 24c1.467 0 2.667 1.2 2.667 2.667s-1.2 2.667-2.667 2.667-2.667-1.2-2.667-2.667 1.2-2.667 2.667-2.667zM19.44 29.227l-9.667-9.667 9.68-9.68 9.667 9.667-9.68 9.68zM26.667 34.667c-1.467 0-2.667-1.2-2.667-2.667s1.2-2.667 2.667-2.667 2.667 1.2 2.667 2.667-1.2 2.667-2.667 2.667zM32 40c-1.467 0-2.667-1.2-2.667-2.667s1.2-2.667 2.667-2.667 2.667 1.2 2.667 2.667-1.2 2.667-2.667 2.667zM37.333 29.333c1.467 0 2.667 1.2 2.667 2.667s-1.2 2.667-2.667 2.667-2.667-1.2-2.667-2.667 1.2-2.667 2.667-2.667zM44.44 54.227l-9.667-9.667 9.68-9.68 9.667 9.667-9.68 9.68z" fill="#444444"></path>
</svg>
