<?xml version="1.0" encoding="utf-8"?>
<!-- Generated by IcoMoon.io -->
<!DOCTYPE svg PUBLIC "-//W3C//DTD SVG 1.1//EN" "http://www.w3.org/Graphics/SVG/1.1/DTD/svg11.dtd">
<svg version="1.1" xmlns="http://www.w3.org/2000/svg" xmlns:xlink="http://www.w3.org/1999/xlink" width="64" height="64" viewBox="0 0 64 64">
<path d="M45.333 53.333c-0.76 0-1.507-0.16-2.040-0.4-1.88-1-3.24-2.36-4.56-6.36-1.373-4.147-3.92-6.107-6.387-8.013-2.107-1.627-4.293-3.307-6.173-6.733-1.4-2.56-2.173-5.347-2.173-7.827 0-7.48 5.853-13.333 13.333-13.333s13.333 5.853 13.333 13.333h5.333c0-10.467-8.2-18.667-18.667-18.667s-18.667 8.2-18.667 18.667c0 3.373 1.013 7.067 2.84 10.4 2.427 4.413 5.293 6.613 7.6 8.4 2.16 1.667 3.72 2.867 4.573 5.453 1.6 4.84 3.667 7.573 7.267 9.467 1.387 0.627 2.853 0.947 4.387 0.947 5.88 0 10.667-4.787 10.667-10.667h-5.333c0 2.947-2.387 5.333-5.333 5.333zM20.36 7.027l-3.773-3.773c-5.307 5.307-8.587 12.64-8.587 20.747s3.28 15.44 8.587 20.747l3.773-3.773c-4.347-4.347-7.027-10.347-7.027-16.973s2.68-12.627 7.027-16.973zM30.667 24c0 3.68 2.987 6.667 6.667 6.667s6.667-2.987 6.667-6.667-2.987-6.667-6.667-6.667-6.667 2.987-6.667 6.667z" fill="#444444"></path>
</svg>
