<?xml version="1.0" encoding="utf-8"?>
<!-- Generated by IcoMoon.io -->
<!DOCTYPE svg PUBLIC "-//W3C//DTD SVG 1.1//EN" "http://www.w3.org/Graphics/SVG/1.1/DTD/svg11.dtd">
<svg version="1.1" xmlns="http://www.w3.org/2000/svg" xmlns:xlink="http://www.w3.org/1999/xlink" width="64" height="64" viewBox="0 0 64 64">
<path d="M32 5.333c-14.733 0-26.667 11.933-26.667 26.667s11.933 26.667 26.667 26.667 26.667-11.933 26.667-26.667-11.933-26.667-26.667-26.667zM34.667 50.667h-5.333v-5.333h5.333v5.333zM40.173 30.013l-2.387 2.453c-1.92 1.92-3.12 3.533-3.12 7.533h-5.333v-1.333c0-2.947 1.2-5.613 3.12-7.547l3.32-3.36c0.96-0.96 1.56-2.293 1.56-3.76 0-2.947-2.387-5.333-5.333-5.333s-5.333 2.387-5.333 5.333h-5.333c0-5.893 4.773-10.667 10.667-10.667s10.667 4.773 10.667 10.667c0 2.347-0.947 4.467-2.493 6.013z" fill="#444444"></path>
</svg>
