<?xml version="1.0" encoding="utf-8"?>
<!-- Generated by IcoMoon.io -->
<!DOCTYPE svg PUBLIC "-//W3C//DTD SVG 1.1//EN" "http://www.w3.org/Graphics/SVG/1.1/DTD/svg11.dtd">
<svg version="1.1" xmlns="http://www.w3.org/2000/svg" xmlns:xlink="http://www.w3.org/1999/xlink" width="64" height="64" viewBox="0 0 64 64">
<path d="M34.653 8c-13.267 0-23.987 10.747-23.987 24h-8l10.387 10.387 0.187 0.387 10.76-10.773h-8c0-10.307 8.36-18.667 18.667-18.667s18.667 8.36 18.667 18.667-8.36 18.667-18.667 18.667c-5.16 0-9.813-2.107-13.187-5.48l-3.773 3.773c4.333 4.347 10.32 7.040 16.947 7.040 13.267 0 24.013-10.747 24.013-24s-10.747-24-24.013-24zM32 21.333v13.333l11.413 6.773 1.92-3.24-9.333-5.533v-11.333h-4z" fill="#444444"></path>
</svg>
