<?xml version="1.0" encoding="utf-8"?>
<!-- Generated by IcoMoon.io -->
<!DOCTYPE svg PUBLIC "-//W3C//DTD SVG 1.1//EN" "http://www.w3.org/Graphics/SVG/1.1/DTD/svg11.dtd">
<svg version="1.1" xmlns="http://www.w3.org/2000/svg" xmlns:xlink="http://www.w3.org/1999/xlink" width="64" height="64" viewBox="0 0 64 64">
<path d="M42.667 26.667h-5.333v5.333h5.333v-5.333zM42.667 37.333h-5.333v5.333h5.333v-5.333zM21.333 26.667h-5.333v5.333h5.333v-5.333zM32 26.667h-5.333v5.333h5.333v-5.333zM53.333 10.667h-42.667c-2.947 0-5.333 2.387-5.333 5.333v32c0 2.947 2.387 5.333 5.333 5.333h42.667c2.947 0 5.333-2.387 5.333-5.333v-32c0-2.947-2.387-5.333-5.333-5.333zM53.333 48h-42.667v-32h42.667v32z" fill="#444444"></path>
</svg>
