<?xml version="1.0" encoding="utf-8"?>
<!-- Generated by IcoMoon.io -->
<!DOCTYPE svg PUBLIC "-//W3C//DTD SVG 1.1//EN" "http://www.w3.org/Graphics/SVG/1.1/DTD/svg11.dtd">
<svg version="1.1" xmlns="http://www.w3.org/2000/svg" xmlns:xlink="http://www.w3.org/1999/xlink" width="64" height="64" viewBox="0 0 64 64">
<path d="M50.667 8h-37.36c-2.947 0-5.28 2.387-5.28 5.333l-0.027 37.333c0 2.947 2.36 5.333 5.307 5.333h37.36c2.947 0 5.333-2.387 5.333-5.333v-37.333c0-2.947-2.387-5.333-5.333-5.333zM50.667 40h-10.667c0 4.413-3.587 8-8 8s-8-3.587-8-8h-10.693v-26.667h37.36v26.667zM42.667 26.667h-5.333v-8h-10.667v8h-5.333l10.667 10.667 10.667-10.667z" fill="#444444"></path>
</svg>
