<?xml version="1.0" encoding="utf-8"?>
<!-- Generated by IcoMoon.io -->
<!DOCTYPE svg PUBLIC "-//W3C//DTD SVG 1.1//EN" "http://www.w3.org/Graphics/SVG/1.1/DTD/svg11.dtd">
<svg version="1.1" xmlns="http://www.w3.org/2000/svg" xmlns:xlink="http://www.w3.org/1999/xlink" width="64" height="64" viewBox="0 0 64 64">
<path d="M10.4 32c0-4.56 3.707-8.267 8.267-8.267h10.667v-5.067h-10.667c-7.36 0-13.333 5.973-13.333 13.333s5.973 13.333 13.333 13.333h10.667v-5.067h-10.667c-4.56 0-8.267-3.707-8.267-8.267zM21.333 34.667h21.333v-5.333h-21.333v5.333zM45.333 18.667h-10.667v5.067h10.667c4.56 0 8.267 3.707 8.267 8.267s-3.707 8.267-8.267 8.267h-10.667v5.067h10.667c7.36 0 13.333-5.973 13.333-13.333s-5.973-13.333-13.333-13.333z" fill="#444444"></path>
</svg>
