<?xml version="1.0" encoding="utf-8"?>
<!-- Generated by IcoMoon.io -->
<!DOCTYPE svg PUBLIC "-//W3C//DTD SVG 1.1//EN" "http://www.w3.org/Graphics/SVG/1.1/DTD/svg11.dtd">
<svg version="1.1" xmlns="http://www.w3.org/2000/svg" xmlns:xlink="http://www.w3.org/1999/xlink" width="64" height="64" viewBox="0 0 64 64">
<path d="M53.333 8h-42.667c-2.947 0-5.307 2.387-5.307 5.333l-0.027 26.667c0 2.947 2.387 5.333 5.333 5.333h42.667c2.947 0 5.333-2.387 5.333-5.333v-26.667c0-2.947-2.387-5.333-5.333-5.333zM29.333 16h5.333v5.333h-5.333v-5.333zM29.333 24h5.333v5.333h-5.333v-5.333zM21.333 16h5.333v5.333h-5.333v-5.333zM21.333 24h5.333v5.333h-5.333v-5.333zM18.667 29.333h-5.333v-5.333h5.333v5.333zM18.667 21.333h-5.333v-5.333h5.333v5.333zM42.667 40h-21.333v-5.333h21.333v5.333zM42.667 29.333h-5.333v-5.333h5.333v5.333zM42.667 21.333h-5.333v-5.333h5.333v5.333zM50.667 29.333h-5.333v-5.333h5.333v5.333zM50.667 21.333h-5.333v-5.333h5.333v5.333zM32 61.333l10.667-10.667h-21.333l10.667 10.667z" fill="#444444"></path>
</svg>
