<?xml version="1.0" encoding="utf-8"?>
<!-- Generated by IcoMoon.io -->
<!DOCTYPE svg PUBLIC "-//W3C//DTD SVG 1.1//EN" "http://www.w3.org/Graphics/SVG/1.1/DTD/svg11.dtd">
<svg version="1.1" xmlns="http://www.w3.org/2000/svg" xmlns:xlink="http://www.w3.org/1999/xlink" width="64" height="64" viewBox="0 0 64 64">
<path d="M41.333 28c2.213 0 4-1.787 4-4s-1.787-4-4-4-4 1.787-4 4 1.787 4 4 4zM22.667 28c2.213 0 4-1.787 4-4s-1.787-4-4-4-4 1.787-4 4 1.787 4 4 4zM32 46.667c6.96 0 12.867-4.453 15.067-10.667h-30.133c2.2 6.213 8.107 10.667 15.067 10.667zM31.987 4c-14.733 0-26.653 11.933-26.653 26.667s11.92 26.667 26.653 26.667c14.733 0 26.68-11.933 26.68-26.667s-11.947-26.667-26.68-26.667zM32 52c-11.787 0-21.333-9.547-21.333-21.333s9.547-21.333 21.333-21.333 21.333 9.547 21.333 21.333-9.547 21.333-21.333 21.333z" fill="#444444"></path>
</svg>
