<?xml version="1.0" encoding="utf-8"?>
<!-- Generated by IcoMoon.io -->
<!DOCTYPE svg PUBLIC "-//W3C//DTD SVG 1.1//EN" "http://www.w3.org/Graphics/SVG/1.1/DTD/svg11.dtd">
<svg version="1.1" xmlns="http://www.w3.org/2000/svg" xmlns:xlink="http://www.w3.org/1999/xlink" width="64" height="64" viewBox="0 0 64 64">
<path d="M40 29.333v-16l-8-8-8 8v5.333h-16v37.333h48v-26.667h-16zM18.667 50.667h-5.333v-5.333h5.333v5.333zM18.667 40h-5.333v-5.333h5.333v5.333zM18.667 29.333h-5.333v-5.333h5.333v5.333zM34.667 50.667h-5.333v-5.333h5.333v5.333zM34.667 40h-5.333v-5.333h5.333v5.333zM34.667 29.333h-5.333v-5.333h5.333v5.333zM34.667 18.667h-5.333v-5.333h5.333v5.333zM50.667 50.667h-5.333v-5.333h5.333v5.333zM50.667 40h-5.333v-5.333h5.333v5.333z" fill="#444444"></path>
</svg>
