<?xml version="1.0" encoding="utf-8"?>
<!-- Generated by IcoMoon.io -->
<!DOCTYPE svg PUBLIC "-//W3C//DTD SVG 1.1//EN" "http://www.w3.org/Graphics/SVG/1.1/DTD/svg11.dtd">
<svg version="1.1" xmlns="http://www.w3.org/2000/svg" xmlns:xlink="http://www.w3.org/1999/xlink" width="64" height="64" viewBox="0 0 64 64">
<path d="M17.667 28.787c3.84 7.547 10.013 13.72 17.573 17.56l5.867-5.88c0.733-0.733 1.787-0.947 2.707-0.653 2.987 0.987 6.2 1.52 9.52 1.52 1.48 0 2.667 1.187 2.667 2.667v9.333c0 1.48-1.187 2.667-2.667 2.667-25.040 0-45.333-20.293-45.333-45.333 0-1.48 1.2-2.667 2.667-2.667h9.333c1.48 0 2.667 1.187 2.667 2.667 0 3.32 0.533 6.533 1.52 9.52 0.293 0.92 0.080 1.973-0.653 2.707l-5.867 5.893z" fill="#444444"></path>
</svg>
