<?xml version="1.0" encoding="utf-8"?>
<!-- Generated by IcoMoon.io -->
<!DOCTYPE svg PUBLIC "-//W3C//DTD SVG 1.1//EN" "http://www.w3.org/Graphics/SVG/1.1/DTD/svg11.dtd">
<svg version="1.1" xmlns="http://www.w3.org/2000/svg" xmlns:xlink="http://www.w3.org/1999/xlink" width="64" height="64" viewBox="0 0 64 64">
<path d="M57.093 30.88l-23.987-23.987c-0.973-0.96-2.307-1.56-3.773-1.56h-18.667c-2.947 0-5.333 2.387-5.333 5.333v18.667c0 1.48 0.6 2.813 1.573 3.773l24 24c0.96 0.96 2.293 1.56 3.76 1.56s2.813-0.6 3.773-1.56l18.667-18.667c0.96-0.973 1.56-2.307 1.56-3.773 0-1.48-0.6-2.813-1.573-3.787zM14.667 18.667c-2.213 0-4-1.787-4-4s1.787-4 4-4 4 1.787 4 4-1.787 4-4 4z" fill="#444444"></path>
</svg>
