<?xml version="1.0" encoding="utf-8"?>
<!-- Generated by IcoMoon.io -->
<!DOCTYPE svg PUBLIC "-//W3C//DTD SVG 1.1//EN" "http://www.w3.org/Graphics/SVG/1.1/DTD/svg11.dtd">
<svg version="1.1" xmlns="http://www.w3.org/2000/svg" xmlns:xlink="http://www.w3.org/1999/xlink" width="64" height="64" viewBox="0 0 64 64">
<path d="M32 17.333c3.68 0 6.667 2.987 6.667 6.667 0 1.96-0.867 3.707-2.213 4.933l9.68 9.68c2.6-4.96 4.533-10.12 4.533-14.613 0-10.307-8.36-18.667-18.667-18.667-5.28 0-10.040 2.2-13.427 5.72l8.493 8.493c1.213-1.347 2.973-2.213 4.933-2.213zM43.667 42.933l-34.947-34.933-3.387 3.4 8.48 8.48c-0.307 1.32-0.48 2.693-0.48 4.12 0 14 18.667 34.667 18.667 34.667s4.453-4.933 9-11.6l8.933 8.933 3.4-3.4-9.667-9.667z" fill="#444444"></path>
</svg>
