<?xml version="1.0" encoding="utf-8"?>
<!-- Generated by IcoMoon.io -->
<!DOCTYPE svg PUBLIC "-//W3C//DTD SVG 1.1//EN" "http://www.w3.org/Graphics/SVG/1.1/DTD/svg11.dtd">
<svg version="1.1" xmlns="http://www.w3.org/2000/svg" xmlns:xlink="http://www.w3.org/1999/xlink" width="64" height="64" viewBox="0 0 64 64">
<path d="M21.6 35.587l7.547-7.547-18.707-18.707c-4.16 4.16-4.16 10.92 0 15.080l11.16 11.173zM39.693 30.747c4.067 1.907 9.813 0.56 14.053-3.68 5.107-5.107 6.080-12.4 2.173-16.307-3.92-3.907-11.227-2.933-16.32 2.173-4.24 4.24-5.573 9.987-3.68 14.053-5.933 5.92-26.040 26.027-26.040 26.027l3.773 3.773 18.347-18.347 18.347 18.347 3.773-3.773-18.347-18.347 3.92-3.92z" fill="#444444"></path>
</svg>
