<?xml version="1.0" encoding="utf-8"?>
<!-- Generated by IcoMoon.io -->
<!DOCTYPE svg PUBLIC "-//W3C//DTD SVG 1.1//EN" "http://www.w3.org/Graphics/SVG/1.1/DTD/svg11.dtd">
<svg version="1.1" xmlns="http://www.w3.org/2000/svg" xmlns:xlink="http://www.w3.org/1999/xlink" width="64" height="64" viewBox="0 0 64 64">
<path d="M48 21.333h-2.667v-5.333c0-7.36-5.973-13.333-13.333-13.333s-13.333 5.973-13.333 13.333v5.333h-2.667c-2.947 0-5.333 2.387-5.333 5.333v26.667c0 2.947 2.387 5.333 5.333 5.333h32c2.947 0 5.333-2.387 5.333-5.333v-26.667c0-2.947-2.387-5.333-5.333-5.333zM32 45.333c-2.947 0-5.333-2.387-5.333-5.333s2.387-5.333 5.333-5.333 5.333 2.387 5.333 5.333-2.387 5.333-5.333 5.333zM40.267 21.333h-16.533v-5.333c0-4.56 3.707-8.267 8.267-8.267s8.267 3.707 8.267 8.267v5.333z" fill="#444444"></path>
</svg>
