<?xml version="1.0" encoding="utf-8"?>
<!-- Generated by IcoMoon.io -->
<!DOCTYPE svg PUBLIC "-//W3C//DTD SVG 1.1//EN" "http://www.w3.org/Graphics/SVG/1.1/DTD/svg11.dtd">
<svg version="1.1" xmlns="http://www.w3.org/2000/svg" xmlns:xlink="http://www.w3.org/1999/xlink" width="64" height="64" viewBox="0 0 64 64">
<path d="M32 10.667v-8l-10.667 10.667 10.667 10.667v-8c8.84 0 16 7.16 16 16 0 2.707-0.68 5.24-1.853 7.48l3.893 3.893c2.067-3.307 3.293-7.187 3.293-11.373 0-11.787-9.547-21.333-21.333-21.333zM32 48c-8.84 0-16-7.16-16-16 0-2.707 0.68-5.24 1.853-7.48l-3.893-3.893c-2.067 3.307-3.293 7.187-3.293 11.373 0 11.787 9.547 21.333 21.333 21.333v8l10.667-10.667-10.667-10.667v8z" fill="#444444"></path>
</svg>
