<?xml version="1.0" encoding="utf-8"?>
<!-- Generated by IcoMoon.io -->
<!DOCTYPE svg PUBLIC "-//W3C//DTD SVG 1.1//EN" "http://www.w3.org/Graphics/SVG/1.1/DTD/svg11.dtd">
<svg version="1.1" xmlns="http://www.w3.org/2000/svg" xmlns:xlink="http://www.w3.org/1999/xlink" width="64" height="64" viewBox="0 0 64 64">
<path d="M32 37.333c4.413 0 7.973-3.587 7.973-8l0.027-16c0-4.427-3.573-8-8-8-4.413 0-8 3.573-8 8v16c0 4.413 3.587 8 8 8zM46.133 29.333c0 8-6.76 13.6-14.133 13.6-7.36 0-14.133-5.6-14.133-13.6h-4.533c0 9.107 7.253 16.627 16 17.92v8.747h5.333v-8.747c8.747-1.293 16-8.813 16-17.92h-4.533z" fill="#444444"></path>
</svg>
