<?xml version="1.0" encoding="utf-8"?>
<!-- Generated by IcoMoon.io -->
<!DOCTYPE svg PUBLIC "-//W3C//DTD SVG 1.1//EN" "http://www.w3.org/Graphics/SVG/1.1/DTD/svg11.dtd">
<svg version="1.1" xmlns="http://www.w3.org/2000/svg" xmlns:xlink="http://www.w3.org/1999/xlink" width="64" height="64" viewBox="0 0 64 64">
<path d="M10.667 16h-5.333v37.333c0 2.947 2.387 5.333 5.333 5.333h37.333v-5.333h-37.333v-37.333zM53.333 5.333h-32c-2.947 0-5.333 2.387-5.333 5.333v32c0 2.947 2.387 5.333 5.333 5.333h32c2.947 0 5.333-2.387 5.333-5.333v-32c0-2.947-2.387-5.333-5.333-5.333zM50.667 29.333h-26.667v-5.333h26.667v5.333zM40 40h-16v-5.333h16v5.333zM50.667 18.667h-26.667v-5.333h26.667v5.333z" fill="#444444"></path>
</svg>
