<?xml version="1.0" encoding="utf-8"?>
<!-- Generated by IcoMoon.io -->
<!DOCTYPE svg PUBLIC "-//W3C//DTD SVG 1.1//EN" "http://www.w3.org/Graphics/SVG/1.1/DTD/svg11.dtd">
<svg version="1.1" xmlns="http://www.w3.org/2000/svg" xmlns:xlink="http://www.w3.org/1999/xlink" width="64" height="64" viewBox="0 0 64 64">
<path d="M17.547 9.547l-3.813-3.813c-6.387 4.867-10.6 12.387-11 20.933h5.333c0.413-7.067 4.053-13.253 9.48-17.12zM53.267 26.667h5.333c-0.4-8.547-4.613-16.067-11-20.933l-3.8 3.8c5.413 3.88 9.053 10.067 9.467 17.133zM48 28c0-8.2-5.693-15.040-13.333-16.853v-1.813c0-2.213-1.787-4-4-4s-4 1.787-4 4v1.813c-7.64 1.813-13.333 8.653-13.333 16.853v14.667l-5.333 5.333v2.667h45.333v-2.667l-5.333-5.333v-14.667zM30.667 58.667c0.373 0 0.733-0.040 1.080-0.107 1.733-0.36 3.16-1.56 3.84-3.147 0.267-0.64 0.413-1.333 0.413-2.080h-10.667c0 2.947 2.387 5.333 5.333 5.333z" fill="#444444"></path>
</svg>
