<?xml version="1.0" encoding="utf-8"?>
<!-- Generated by IcoMoon.io -->
<!DOCTYPE svg PUBLIC "-//W3C//DTD SVG 1.1//EN" "http://www.w3.org/Graphics/SVG/1.1/DTD/svg11.dtd">
<svg version="1.1" xmlns="http://www.w3.org/2000/svg" xmlns:xlink="http://www.w3.org/1999/xlink" width="64" height="64" viewBox="0 0 64 64">
<path d="M30.667 58.667c2.947 0 5.333-2.387 5.333-5.333h-10.667c0 2.947 2.387 5.333 5.333 5.333zM48 28c0-8.2-5.693-15.040-13.333-16.853v-1.813c0-2.213-1.787-4-4-4s-4 1.787-4 4v1.813c-1.36 0.32-2.64 0.853-3.853 1.48l25.187 25.187v-9.813zM47.28 50.667l5.333 5.333 3.387-3.4-44.6-44.6-3.4 3.4 7.787 7.787c-1.547 2.573-2.453 5.587-2.453 8.813v14.667l-5.333 5.333v2.667h39.28z" fill="#444444"></path>
</svg>
