<?xml version="1.0" encoding="utf-8"?>
<!-- Generated by IcoMoon.io -->
<!DOCTYPE svg PUBLIC "-//W3C//DTD SVG 1.1//EN" "http://www.w3.org/Graphics/SVG/1.1/DTD/svg11.dtd">
<svg version="1.1" xmlns="http://www.w3.org/2000/svg" xmlns:xlink="http://www.w3.org/1999/xlink" width="64" height="64" viewBox="0 0 64 64">
<path d="M10.667 10.667h18.667v-5.333h-18.667c-2.947 0-5.333 2.387-5.333 5.333v18.667h5.333v-18.667zM26.667 34.667l-10.667 13.333h32l-8-10.667-5.413 7.227-7.92-9.893zM45.333 22.667c0-2.213-1.787-4-4-4s-4 1.787-4 4 1.787 4 4 4 4-1.787 4-4zM53.333 5.333h-18.667v5.333h18.667v18.667h5.333v-18.667c0-2.947-2.387-5.333-5.333-5.333zM53.333 53.333h-18.667v5.333h18.667c2.947 0 5.333-2.387 5.333-5.333v-18.667h-5.333v18.667zM10.667 34.667h-5.333v18.667c0 2.947 2.387 5.333 5.333 5.333h18.667v-5.333h-18.667v-18.667z" fill="#444444"></path>
</svg>
