<?xml version="1.0" encoding="utf-8"?>
<!-- Generated by IcoMoon.io -->
<!DOCTYPE svg PUBLIC "-//W3C//DTD SVG 1.1//EN" "http://www.w3.org/Graphics/SVG/1.1/DTD/svg11.dtd">
<svg version="1.1" xmlns="http://www.w3.org/2000/svg" xmlns:xlink="http://www.w3.org/1999/xlink" width="64" height="64" viewBox="0 0 64 64">
<path d="M29.333 21.333c-4.413 0-8 3.587-8 8s3.587 8 8 8 8-3.587 8-8-3.587-8-8-8zM50.667 8h-37.333c-2.947 0-5.333 2.387-5.333 5.333v37.333c0 2.947 2.387 5.333 5.333 5.333h37.333c2.947 0 5.333-2.387 5.333-5.333v-37.333c0-2.947-2.387-5.333-5.333-5.333zM46.893 50.667l-10.213-10.213c-2.107 1.387-4.627 2.213-7.347 2.213-7.36 0-13.333-5.973-13.333-13.333s5.973-13.333 13.333-13.333 13.333 5.973 13.333 13.333c0 2.72-0.827 5.24-2.213 7.347l10.213 10.213-3.773 3.773z" fill="#444444"></path>
</svg>
