<?xml version="1.0" encoding="utf-8"?>
<!-- Generated by IcoMoon.io -->
<!DOCTYPE svg PUBLIC "-//W3C//DTD SVG 1.1//EN" "http://www.w3.org/Graphics/SVG/1.1/DTD/svg11.dtd">
<svg version="1.1" xmlns="http://www.w3.org/2000/svg" xmlns:xlink="http://www.w3.org/1999/xlink" width="64" height="64" viewBox="0 0 64 64">
<path d="M53.333 10.667h-8.453l-4.88-5.333h-16l-4.88 5.333h-8.453c-2.947 0-5.333 2.387-5.333 5.333v32c0 2.947 2.387 5.333 5.333 5.333h42.667c2.947 0 5.333-2.387 5.333-5.333v-32c0-2.947-2.387-5.333-5.333-5.333zM32 18.667c4.347 0 8.173 2.12 10.613 5.333h-10.613c-4.413 0-8 3.587-8 8 0 0.947 0.187 1.827 0.493 2.667h-5.56c-0.173-0.867-0.267-1.747-0.267-2.667 0-7.36 5.973-13.333 13.333-13.333zM32 45.333c-4.347 0-8.173-2.107-10.6-5.333h10.6c4.413 0 8-3.587 8-8 0-0.933-0.187-1.827-0.493-2.667h5.56c0.173 0.867 0.267 1.747 0.267 2.667 0 7.36-5.973 13.333-13.333 13.333z" fill="#444444"></path>
</svg>
