<?xml version="1.0" encoding="utf-8"?>
<!-- Generated by IcoMoon.io -->
<!DOCTYPE svg PUBLIC "-//W3C//DTD SVG 1.1//EN" "http://www.w3.org/Graphics/SVG/1.1/DTD/svg11.dtd">
<svg version="1.1" xmlns="http://www.w3.org/2000/svg" xmlns:xlink="http://www.w3.org/1999/xlink" width="64" height="64" viewBox="0 0 64 64">
<path d="M44 34.667c-3.213 0-8.2 0.893-12 2.68-3.8-1.787-8.787-2.68-12-2.68-5.773 0-17.333 2.893-17.333 8.667v7.333h58.667v-7.333c0-5.773-11.56-8.667-17.333-8.667zM33.333 46.667h-26.667v-3.333c0-1.427 6.827-4.667 13.333-4.667s13.333 3.24 13.333 4.667v3.333zM57.333 46.667h-20v-3.333c0-1.213-0.533-2.293-1.387-3.253 2.36-0.8 5.24-1.413 8.053-1.413 6.507 0 13.333 3.24 13.333 4.667v3.333zM20 32c5.16 0 9.333-4.187 9.333-9.333s-4.173-9.333-9.333-9.333c-5.147 0-9.333 4.187-9.333 9.333s4.187 9.333 9.333 9.333zM20 17.333c2.947 0 5.333 2.387 5.333 5.333s-2.387 5.333-5.333 5.333-5.333-2.387-5.333-5.333 2.387-5.333 5.333-5.333zM44 32c5.16 0 9.333-4.187 9.333-9.333s-4.173-9.333-9.333-9.333c-5.147 0-9.333 4.187-9.333 9.333s4.187 9.333 9.333 9.333zM44 17.333c2.947 0 5.333 2.387 5.333 5.333s-2.387 5.333-5.333 5.333-5.333-2.387-5.333-5.333 2.387-5.333 5.333-5.333z" fill="#444444"></path>
</svg>
