<?xml version="1.0" encoding="utf-8"?>
<!-- Generated by IcoMoon.io -->
<!DOCTYPE svg PUBLIC "-//W3C//DTD SVG 1.1//EN" "http://www.w3.org/Graphics/SVG/1.1/DTD/svg11.dtd">
<svg version="1.1" xmlns="http://www.w3.org/2000/svg" xmlns:xlink="http://www.w3.org/1999/xlink" width="300" height="64" viewBox="0 0 300 64">
<path d="M30 34.6c0 5.3-1.3 9.4-3.8 12.2s-6.4 4.3-11.6 4.3c-1.1 0-2.4-0.1-3.9-0.2s-3-0.3-4.4-0.5v12.2c0 0.4-0.1 0.7-0.4 0.9s-0.6 0.4-1 0.4h-3.6c-0.4 0-0.7-0.1-0.9-0.4-0.3-0.3-0.4-0.6-0.4-0.9v-46.4c0-0.4 0.1-0.8 0.2-1 0.2-0.2 0.6-0.4 1.2-0.5 1.9-0.4 4-0.8 6.3-1.1s4.6-0.4 6.7-0.4c2.6 0 4.9 0.4 6.9 1.2s3.5 1.9 4.8 3.4c1.3 1.5 2.2 3.2 2.8 5.3 0.6 2 0.9 4.3 0.9 6.8v4.7zM23.8 29.8c0-1.8-0.2-3.3-0.5-4.8-0.3-1.4-0.8-2.7-1.5-3.7s-1.7-1.8-2.8-2.4c-1.2-0.6-2.7-0.8-4.4-0.8-1.5 0-3 0.1-4.5 0.2s-2.8 0.3-3.8 0.5v26.7c1.2 0.2 2.6 0.4 4.2 0.5s3 0.2 4.1 0.2c1.7 0 3.2-0.3 4.4-0.8s2.1-1.3 2.8-2.3c0.7-1 1.2-2.2 1.5-3.6s0.5-3.1 0.5-4.9v-4.8z" fill="#444444"></path>
<path d="M64.7 49.3c0 0.4-0.1 0.7-0.4 0.9-0.3 0.3-0.6 0.4-1 0.4h-3.4c-0.4 0-0.7-0.1-1-0.4s-0.4-0.6-0.4-0.9v-22.2c0-3.4-0.7-5.7-2.1-6.9-1.4-1.3-3.2-1.9-5.5-1.9-0.6 0-1.2 0-2 0.1s-1.6 0.2-2.5 0.3-1.8 0.4-2.7 0.6c-0.9 0.2-1.8 0.5-2.5 0.8v29.1c0 0.4-0.1 0.7-0.4 0.9-0.3 0.3-0.6 0.4-1 0.4h-3.5c-0.4 0-0.7-0.1-1-0.4s-0.4-0.6-0.4-0.9v-48c0-0.4 0.1-0.7 0.4-0.9 0.3-0.3 0.6-0.4 1-0.4h3.5c0.4 0 0.7 0.1 1 0.4 0.2 0.4 0.3 0.7 0.3 1v13.9c1.7-0.7 3.6-1.2 5.6-1.6 2-0.3 3.8-0.5 5.3-0.5 1.9 0 3.6 0.3 5.2 0.8s2.9 1.4 4 2.5c1.1 1.1 2 2.6 2.6 4.3 0.6 1.8 0.9 3.9 0.9 6.4v22.2z" fill="#444444"></path>
<path d="M100.8 34.6c0 5.3-1.3 9.4-3.8 12.2-2.6 2.9-6.4 4.3-11.6 4.3-1.1 0-2.4-0.1-3.9-0.2s-3-0.3-4.4-0.5v12.2c0 0.4-0.1 0.7-0.4 0.9s-0.6 0.4-1 0.4h-3.6c-0.4 0-0.7-0.1-0.9-0.4-0.2-0.2-0.4-0.5-0.4-0.9v-46.4c0-0.4 0.1-0.8 0.2-1 0.2-0.2 0.6-0.4 1.2-0.5 1.9-0.4 4-0.8 6.3-1.1s4.6-0.4 6.7-0.4c2.6 0 4.9 0.4 6.9 1.2 1.9 0.8 3.5 1.9 4.8 3.4s2.2 3.2 2.8 5.3c0.6 2 0.9 4.3 0.9 6.8v4.7zM94.6 29.8c0-1.8-0.2-3.3-0.5-4.8-0.3-1.4-0.8-2.7-1.5-3.7s-1.7-1.8-2.8-2.4c-1.2-0.6-2.7-0.8-4.4-0.8-1.5 0-3 0.1-4.5 0.2s-2.8 0.3-3.8 0.5v26.7c1.2 0.2 2.6 0.4 4.2 0.5s3 0.2 4.1 0.2c1.8 0 3.2-0.3 4.4-0.8s2.1-1.3 2.8-2.3c0.7-1 1.2-2.2 1.5-3.6s0.5-3.1 0.5-4.9v-4.8z" fill="#444444"></path>
<path d="M136.3 37.7c0 1.6-0.3 3.2-0.8 4.9s-1.4 3.1-2.7 4.3c-1.3 1.3-3.1 2.3-5.4 3.1s-5.2 1.2-8.7 1.2c-2.5 0-4.7-0.1-6.6-0.3s-3.6-0.4-5.2-0.6c-0.6-0.1-1-0.2-1.1-0.4s-0.2-0.4-0.2-0.8v-2.7c0-0.4 0.1-0.6 0.4-0.8 0.2-0.2 0.5-0.3 0.9-0.3h0.2c0.8 0.1 1.7 0.2 2.7 0.2s2.1 0.1 3.1 0.1c1.1 0 2.1 0 3.1 0.1 1 0 1.9 0 2.7 0 2.1 0 3.9-0.2 5.3-0.6s2.5-0.9 3.3-1.6c0.8-0.7 1.4-1.5 1.7-2.5s0.5-2.1 0.5-3.2c0-0.9-0.1-1.6-0.4-2.3s-0.8-1.4-1.4-2.1c-0.7-0.7-1.5-1.4-2.6-2.1s-2.4-1.6-4-2.5l-6.9-4c-3.3-1.9-5.7-3.8-7.3-5.7s-2.4-4.2-2.4-6.9c0-4.1 1.5-7.1 4.4-9s7.1-2.9 12.6-2.9c1 0 2.1 0 3.3 0.1 1.2 0 2.3 0.1 3.4 0.2s2.2 0.2 3.2 0.3c1 0.1 1.8 0.2 2.5 0.3 0.8 0.1 1.2 0.5 1.2 1.1v2.7c0 0.7-0.4 1.1-1.2 1.1h-0.1c-1.6-0.1-3.5-0.2-5.7-0.3s-4.4-0.1-6.5-0.1c-3.7 0-6.4 0.4-8 1.3s-2.4 2.6-2.4 5.1c0 1.6 0.6 2.9 1.8 4.1s3.2 2.5 5.9 4l6.5 3.7c2 1.2 3.8 2.3 5.2 3.4s2.6 2.2 3.5 3.2c0.9 1.1 1.5 2.2 1.9 3.4 0.1 1.2 0.3 2.4 0.3 3.8z" fill="#444444"></path>
<path d="M169.9 50.7c0 2.6-0.3 4.8-0.9 6.5s-1.5 3.1-2.7 4.1c-1.2 1-2.7 1.7-4.5 2.1s-3.9 0.6-6.3 0.6c-1.3 0-2.6 0-3.8-0.1s-2.4-0.2-3.4-0.3c-1-0.1-1.9-0.2-2.7-0.4-0.8-0.1-1.4-0.2-1.8-0.3-0.9-0.2-1.3-0.7-1.3-1.4v-1.9c0-0.4 0.1-0.6 0.4-0.8 0.2-0.2 0.5-0.3 0.9-0.3h0.2c0.5 0.1 1.2 0.2 2.1 0.3s1.9 0.2 2.9 0.2c1 0.1 2.1 0.1 3.3 0.2 1.1 0.1 2.2 0.1 3.3 0.1 1.6 0 2.9-0.1 4-0.3s1.9-0.7 2.6-1.3c0.6-0.6 1.1-1.5 1.4-2.6s0.4-2.6 0.4-4.3v-0.3c-0.4 0.1-1 0.2-1.6 0.3-0.7 0.1-1.4 0.2-2.1 0.2-0.7 0.1-1.5 0.1-2.2 0.2-0.7 0-1.4 0.1-2 0.1-2 0-4-0.2-5.9-0.6s-3.6-1.1-5.1-2.2c-1.5-1-2.7-2.4-3.5-4.2-0.9-1.8-1.3-4.1-1.3-6.9v-22.4c0-0.4 0.1-0.7 0.4-0.9s0.6-0.4 1-0.4h3.4c0.4 0 0.7 0.1 1 0.4s0.4 0.6 0.4 0.9v22.2c0 1.8 0.2 3.3 0.7 4.4 0.4 1.1 1.1 2.1 1.9 2.7 0.8 0.7 1.8 1.1 3 1.4 1.2 0.2 2.5 0.4 4 0.4 1 0 2.3-0.1 3.9-0.3 1.5-0.2 2.8-0.4 3.9-0.6v-30.2c0-0.4 0.1-0.7 0.4-0.9 0.3-0.3 0.6-0.4 1-0.4h3.4c0.4 0 0.7 0.1 1 0.4s0.4 0.6 0.4 0.9v35.7z" fill="#444444"></path>
<path d="M205.8 49.3c0 0.4-0.1 0.7-0.4 0.9-0.2 0.3-0.5 0.4-0.9 0.4h-3.7c-0.4 0-0.7-0.1-0.9-0.4s-0.4-0.6-0.4-0.9v-24c0-2.5-0.4-4.3-1.3-5.4s-2.5-1.6-4.9-1.6h-5c-2.4 0-4 0.5-4.9 1.6s-1.3 2.9-1.3 5.4v24.1c0 0.4-0.1 0.7-0.4 0.9s-0.5 0.4-0.9 0.4h-3.7c-0.4 0-0.7-0.1-0.9-0.4s-0.4-0.6-0.4-0.9v-24.1c0-2.6 0.4-4.7 1.3-6.3s1.9-2.8 3.1-3.7c1.2-0.9 2.6-1.5 4-1.8s2.8-0.4 4-0.4h5c1.2 0 2.5 0.1 4 0.4s2.8 0.9 4 1.8c1.2 0.9 2.3 2.1 3.1 3.7s1.3 3.7 1.3 6.3v24z" fill="#444444"></path>
<path d="M230.7 49.6c0 0.6-0.5 1-1.4 1.1-0.7 0.1-1.6 0.2-2.9 0.3s-2.6 0.1-3.9 0.1c-1.7 0-3.1-0.1-4.4-0.4s-2.4-0.8-3.3-1.5c-0.9-0.7-1.6-1.7-2.1-2.9s-0.7-2.7-0.7-4.5v-34.8c0-0.4 0.1-0.6 0.4-0.8s0.6-0.3 1-0.4l3.5-0.5h0.1c0.4 0 0.7 0.1 0.9 0.4 0.2 0.2 0.3 0.6 0.3 0.9v7.1h11.1c0.9 0 1.3 0.4 1.3 1.2v2.3c0 0.4-0.1 0.7-0.4 0.9s-0.6 0.3-1 0.3h-11.1v23.4c0 1 0.1 1.8 0.3 2.4s0.5 1 0.9 1.4c0.4 0.3 0.9 0.6 1.6 0.7s1.5 0.2 2.5 0.2h5.7c1 0 1.5 0.3 1.5 0.9v2.2z" fill="#444444"></path>
<path d="M262.5 48c0 0.5-0.1 0.8-0.2 1-0.2 0.2-0.6 0.4-1.2 0.5-1.9 0.4-4 0.8-6.3 1.1s-4.6 0.4-6.7 0.4c-2.7 0-4.9-0.4-6.9-1.2-1.9-0.8-3.5-1.9-4.8-3.3s-2.2-3.2-2.8-5.3c-0.6-2.1-0.9-4.4-0.9-6.9v-4.7c0-2.5 0.3-4.8 0.9-6.8s1.6-3.8 2.8-5.3c1.3-1.5 2.9-2.6 4.8-3.4s4.2-1.2 6.9-1.2c2.1 0 4.4 0.1 6.7 0.4s4.5 0.7 6.3 1.1c0.7 0.1 1.1 0.3 1.2 0.5 0.2 0.2 0.2 0.6 0.2 1v32.1zM256.2 18.8c-0.9-0.2-2.2-0.3-3.7-0.5-1.5-0.1-3.1-0.2-4.6-0.2-1.8 0-3.2 0.3-4.4 0.8s-2.1 1.3-2.8 2.3c-0.7 1-1.2 2.2-1.5 3.7s-0.5 3.1-0.5 4.9v4.7c0 1.8 0.2 3.3 0.5 4.8s0.8 2.7 1.5 3.7c0.7 1 1.7 1.8 2.8 2.4s2.6 0.8 4.4 0.8c1.5 0 3-0.1 4.5-0.2s2.8-0.3 3.8-0.5v-26.7z" fill="#444444"></path>
<path d="M300 49.9c0 0.5-0.3 0.7-0.9 0.7h-4.9c-0.4 0-0.8-0.2-1-0.5l-10.2-14.1-10.1 14c-0.2 0.3-0.4 0.5-0.5 0.6s-0.3 0.1-0.7 0.1h-4.3c-0.6 0-0.9-0.2-0.9-0.7 0-0.3 0.1-0.6 0.4-0.9l12.8-17.3-12.1-16.5c-0.2-0.4-0.4-0.7-0.4-0.9 0-0.5 0.4-0.8 1.1-0.8h4.6c0.3 0 0.5 0.1 0.7 0.2s0.4 0.4 0.7 0.7l9 12.7 9.1-12.7c0.3-0.4 0.6-0.7 0.7-0.8 0.2-0.1 0.4-0.1 0.7-0.1h4.1c0.6 0 0.9 0.3 0.9 0.8 0 0.2-0.1 0.5-0.4 0.9l-11.9 16.1 13 17.7c0.4 0.2 0.5 0.5 0.5 0.8z" fill="#444444"></path>
</svg>
