<?xml version="1.0" encoding="utf-8"?>
<!-- Generated by IcoMoon.io -->
<!DOCTYPE svg PUBLIC "-//W3C//DTD SVG 1.1//EN" "http://www.w3.org/Graphics/SVG/1.1/DTD/svg11.dtd">
<svg version="1.1" xmlns="http://www.w3.org/2000/svg" xmlns:xlink="http://www.w3.org/1999/xlink" width="86" height="64" viewBox="0 0 86 64">
<path d="M56.9 35.9c-1.4-1.6-3.9-3.2-7.5-4.9l-8.7-4c-0.1-0.1-0.3-0.1-0.4-0.2-1.8-0.8-3.2-1.6-4.1-2.3-1-0.8-1.5-1.7-1.5-2.7 0-1.7 0.7-2.8 2.2-3.3 0.9-0.3 2.1-0.5 3.4-0.6 0.8-0.1 1.3-0.1 2.2-0.1 1 0 1.5 0 2.5 0v-9.8h-5v4.8c-1 0.1-2.4 0.2-3.6 0.4-1.9 0.3-3.5 0.8-4.9 1.5s-2.5 1.6-3.3 2.8c-0.8 1.2-1.2 2.6-1.2 4.4 0 2.2 0.8 4 2.5 5.6 1.6 1.5 3.8 2.9 6.5 4.2l4.4 2 4.5 2.1c0.3 0.2 0.6 0.3 1 0.5 2 1 3.4 1.8 4.2 2.5 0.9 0.8 1.4 1.7 1.4 2.7 0 1.9-0.7 3.1-2.2 3.8-0.9 0.4-2 0.7-3.4 0.9-0.9 0.1-2.1 0.2-3.2 0.2-0.7 0-1.5 0-2.5 0v9.6h5v-4.9c2-0.1 2.9-0.3 4-0.5 2-0.4 3.9-1 5.4-1.8 1.4-0.8 2.6-1.8 3.4-3.1s1.2-2.7 1.2-4.5c-0.2-1.9-0.9-3.7-2.3-5.3z" fill="#444444"></path>
<path d="M45.7 61.3c0 1.491-1.209 2.7-2.7 2.7s-2.7-1.209-2.7-2.7c0-1.491 1.209-2.7 2.7-2.7s2.7 1.209 2.7 2.7z" fill="#444444"></path>
<path d="M45.7 2.7c0 1.491-1.209 2.7-2.7 2.7s-2.7-1.209-2.7-2.7c0-1.491 1.209-2.7 2.7-2.7s2.7 1.209 2.7 2.7z" fill="#444444"></path>
<path d="M0 32l29.3 29.7 3.8-3.8-25.5-25.9 25.5-25.9-3.8-3.8z" fill="#444444"></path>
<path d="M86 32l-29.3 29.7-3.8-3.8 25.5-25.9-25.5-25.9 3.8-3.8z" fill="#444444"></path>
</svg>
