<?xml version="1.0" encoding="utf-8"?>
<!-- Generated by IcoMoon.io -->
<!DOCTYPE svg PUBLIC "-//W3C//DTD SVG 1.1//EN" "http://www.w3.org/Graphics/SVG/1.1/DTD/svg11.dtd">
<svg version="1.1" xmlns="http://www.w3.org/2000/svg" xmlns:xlink="http://www.w3.org/1999/xlink" width="64" height="64" viewBox="0 0 64 64">
<path d="M46.827 37.973c0.747-1.84 1.173-3.853 1.173-5.973 0-8.84-7.16-16-16-16-2.12 0-4.133 0.427-5.987 1.173l4.333 4.333c0.547-0.093 1.093-0.173 1.653-0.173 5.893 0 10.667 4.773 10.667 10.667 0 0.573-0.053 1.133-0.147 1.667l4.307 4.307zM32 10.667c11.787 0 21.333 9.547 21.333 21.333 0 3.613-0.933 6.987-2.52 9.96l3.92 3.92c2.48-4.040 3.933-8.787 3.933-13.88 0-14.733-11.947-26.667-26.667-26.667-5.093 0-9.84 1.453-13.88 3.933l3.893 3.893c2.973-1.587 6.373-2.493 9.987-2.493zM8.72 6.667l-3.387 3.4 5.613 5.613c-3.507 4.507-5.613 10.16-5.613 16.32 0 9.853 5.36 18.44 13.32 23.053l2.667-4.613c-6.36-3.68-10.653-10.56-10.653-18.44 0-4.68 1.52-9 4.080-12.52l3.827 3.827c-1.627 2.507-2.573 5.48-2.573 8.693 0 5.92 3.213 11.067 7.987 13.84l2.693-4.64c-3.187-1.853-5.347-5.253-5.347-9.2 0-1.72 0.453-3.32 1.173-4.76l4.213 4.213-0.053 0.547c0 2.947 2.387 5.333 5.333 5.333l0.547-0.053 20.053 20.053 3.4-3.4-47.28-47.267z" fill="#444444"></path>
</svg>
