<?xml version="1.0" encoding="utf-8"?>
<!-- Generated by IcoMoon.io -->
<!DOCTYPE svg PUBLIC "-//W3C//DTD SVG 1.1//EN" "http://www.w3.org/Graphics/SVG/1.1/DTD/svg11.dtd">
<svg version="1.1" xmlns="http://www.w3.org/2000/svg" xmlns:xlink="http://www.w3.org/1999/xlink" width="64" height="64" viewBox="0 0 64 64">
<path d="M32 32.667c3.307 0 6-2.68 6-6 0-3.307-2.693-6-6-6s-6 2.693-6 6c0 3.32 2.693 6 6 6zM44 43.333c0-4-8-6-12-6s-12 2-12 6v2h24v-2zM50.667 8h-37.333c-2.947 0-5.333 2.387-5.333 5.333v37.333c0 2.947 2.387 5.333 5.333 5.333h37.333c2.947 0 5.333-2.387 5.333-5.333v-37.333c0-2.947-2.387-5.333-5.333-5.333zM50.667 50.667h-37.333v-37.333h37.333v37.333z" fill="#444444"></path>
</svg>
