<?xml version="1.0" encoding="utf-8"?>
<!-- Generated by IcoMoon.io -->
<!DOCTYPE svg PUBLIC "-//W3C//DTD SVG 1.1//EN" "http://www.w3.org/Graphics/SVG/1.1/DTD/svg11.dtd">
<svg version="1.1" xmlns="http://www.w3.org/2000/svg" xmlns:xlink="http://www.w3.org/1999/xlink" width="64" height="64" viewBox="0 0 64 64">
<path d="M32 5.333c-14.733 0-26.667 11.933-26.667 26.667s11.933 26.667 26.667 26.667 26.667-11.933 26.667-26.667-11.933-26.667-26.667-26.667zM29.333 53.147c-10.52-1.307-18.667-10.267-18.667-21.147 0-1.64 0.2-3.24 0.56-4.773l12.773 12.773v2.667c0 2.947 2.387 5.333 5.333 5.333v5.147zM47.72 46.387c-0.68-2.16-2.68-3.72-5.053-3.72h-2.667v-8c0-1.467-1.2-2.667-2.667-2.667h-16v-5.333h5.333c1.467 0 2.667-1.2 2.667-2.667v-5.333h5.333c2.947 0 5.333-2.387 5.333-5.333v-1.107c7.813 3.16 13.333 10.813 13.333 19.773 0 5.547-2.133 10.587-5.613 14.387z" fill="#444444"></path>
</svg>
