<?xml version="1.0" encoding="utf-8"?>
<!-- Generated by IcoMoon.io -->
<!DOCTYPE svg PUBLIC "-//W3C//DTD SVG 1.1//EN" "http://www.w3.org/Graphics/SVG/1.1/DTD/svg11.dtd">
<svg version="1.1" xmlns="http://www.w3.org/2000/svg" xmlns:xlink="http://www.w3.org/1999/xlink" width="64" height="64" viewBox="0 0 64 64">
<path d="M56 21.333v-2.667l-8 5.333-8-5.333v2.667l8 5.333 8-5.333zM58.667 8h-53.333c-2.947 0-5.333 2.387-5.333 5.333v37.333c0 2.947 2.387 5.333 5.333 5.333h53.333c2.947 0 5.307-2.387 5.307-5.333l0.027-37.333c0-2.947-2.387-5.333-5.333-5.333zM21.333 16c4.413 0 8 3.587 8 8 0 4.427-3.587 8-8 8s-8-3.573-8-8c0-4.413 3.587-8 8-8zM37.333 48h-32v-2.667c0-5.333 10.667-8.267 16-8.267s16 2.933 16 8.267v2.667zM58.667 32h-21.333v-16h21.333v16z" fill="#444444"></path>
</svg>
