<?xml version="1.0" encoding="utf-8"?>
<!-- Generated by IcoMoon.io -->
<!DOCTYPE svg PUBLIC "-//W3C//DTD SVG 1.1//EN" "http://www.w3.org/Graphics/SVG/1.1/DTD/svg11.dtd">
<svg version="1.1" xmlns="http://www.w3.org/2000/svg" xmlns:xlink="http://www.w3.org/1999/xlink" width="64" height="64" viewBox="0 0 64 64">
<path d="M32 12c-13.333 0-24.72 8.293-29.333 20 4.613 11.707 16 20 29.333 20s24.72-8.293 29.333-20c-4.613-11.707-15.987-20-29.333-20zM32 45.333c-7.36 0-13.333-5.973-13.333-13.333s5.973-13.333 13.333-13.333 13.333 5.973 13.333 13.333-5.973 13.333-13.333 13.333zM32 24c-4.413 0-8 3.587-8 8s3.587 8 8 8 8-3.587 8-8-3.587-8-8-8z" fill="#444444"></path>
</svg>
