<?xml version="1.0" encoding="utf-8"?>
<!-- Generated by IcoMoon.io -->
<!DOCTYPE svg PUBLIC "-//W3C//DTD SVG 1.1//EN" "http://www.w3.org/Graphics/SVG/1.1/DTD/svg11.dtd">
<svg version="1.1" xmlns="http://www.w3.org/2000/svg" xmlns:xlink="http://www.w3.org/1999/xlink" width="64" height="64" viewBox="0 0 64 64">
<path d="M41.467 14.8l-12.133-12.133v8.187c-10.52 1.307-18.667 10.267-18.667 21.147s8.147 19.84 18.667 21.147v-5.387c-7.56-1.267-13.333-7.84-13.333-15.76s5.773-14.493 13.333-15.76v10.427l12.133-11.867zM53.147 29.333c-0.453-3.707-1.933-7.28-4.333-10.373l-3.773 3.773c1.427 2.013 2.333 4.267 2.72 6.6h5.387zM34.667 47.747v5.4c3.707-0.453 7.307-1.893 10.4-4.293l-3.827-3.827c-2 1.413-4.24 2.32-6.573 2.72zM45.040 41.267l3.773 3.773c2.4-3.093 3.88-6.667 4.333-10.373h-5.387c-0.387 2.333-1.293 4.587-2.72 6.6z" fill="#444444"></path>
</svg>
