<?xml version="1.0" encoding="utf-8"?>
<!-- Generated by IcoMoon.io -->
<!DOCTYPE svg PUBLIC "-//W3C//DTD SVG 1.1//EN" "http://www.w3.org/Graphics/SVG/1.1/DTD/svg11.dtd">
<svg version="1.1" xmlns="http://www.w3.org/2000/svg" xmlns:xlink="http://www.w3.org/1999/xlink" width="64" height="64" viewBox="0 0 64 64">
<path d="M18.96 22.733l-3.773-3.773c-2.4 3.093-3.88 6.667-4.333 10.373h5.387c0.387-2.333 1.293-4.587 2.72-6.6zM16.24 34.667h-5.387c0.453 3.707 1.933 7.28 4.333 10.373l3.773-3.773c-1.427-2.013-2.333-4.267-2.72-6.6zM18.933 48.84c3.093 2.413 6.693 3.84 10.4 4.293v-5.387c-2.333-0.387-4.573-1.307-6.573-2.733l-3.827 3.827zM34.667 10.853v-8.187l-12.133 12.133 12.133 11.867v-10.427c7.56 1.267 13.333 7.84 13.333 15.76s-5.773 14.493-13.333 15.76v5.387c10.52-1.32 18.667-10.267 18.667-21.147s-8.147-19.827-18.667-21.147z" fill="#444444"></path>
</svg>
