<?xml version="1.0" encoding="utf-8"?>
<!-- Generated by IcoMoon.io -->
<!DOCTYPE svg PUBLIC "-//W3C//DTD SVG 1.1//EN" "http://www.w3.org/Graphics/SVG/1.1/DTD/svg11.dtd">
<svg version="1.1" xmlns="http://www.w3.org/2000/svg" xmlns:xlink="http://www.w3.org/1999/xlink" width="64" height="64" viewBox="0 0 64 64">
<path d="M41.333 37.333h-2.12l-0.733-0.733c2.613-3.027 4.187-6.96 4.187-11.267 0-9.573-7.76-17.333-17.333-17.333s-17.333 7.76-17.333 17.333 7.76 17.333 17.333 17.333c4.307 0 8.24-1.573 11.267-4.173l0.733 0.733v2.107l13.333 13.307 3.973-3.973-13.307-13.333zM25.333 37.333c-6.627 0-12-5.373-12-12s5.373-12 12-12 12 5.373 12 12-5.373 12-12 12z" fill="#444444"></path>
</svg>
