<?xml version="1.0" encoding="utf-8"?>
<!-- Generated by IcoMoon.io -->
<!DOCTYPE svg PUBLIC "-//W3C//DTD SVG 1.1//EN" "http://www.w3.org/Graphics/SVG/1.1/DTD/svg11.dtd">
<svg version="1.1" xmlns="http://www.w3.org/2000/svg" xmlns:xlink="http://www.w3.org/1999/xlink" width="64" height="64" viewBox="0 0 64 64">
<path d="M32 26.667c-2.947 0-5.333 2.387-5.333 5.333s2.387 5.333 5.333 5.333 5.333-2.387 5.333-5.333-2.387-5.333-5.333-5.333zM50.667 8h-37.333c-2.947 0-5.333 2.387-5.333 5.333v37.333c0 2.947 2.387 5.333 5.333 5.333h37.333c2.947 0 5.333-2.387 5.333-5.333v-37.333c0-2.947-2.387-5.333-5.333-5.333zM46 32c0 0.613-0.053 1.227-0.133 1.827l3.947 3.093c0.347 0.28 0.453 0.787 0.213 1.187l-3.733 6.467c-0.227 0.4-0.72 0.56-1.147 0.4l-4.653-1.88c-0.96 0.747-2.013 1.36-3.16 1.84l-0.693 4.947c-0.053 0.44-0.44 0.787-0.907 0.787h-7.467c-0.467 0-0.853-0.347-0.92-0.787l-0.693-4.947c-1.133-0.467-2.187-1.093-3.16-1.84l-4.64 1.867c-0.427 0.16-0.907 0-1.147-0.4l-3.733-6.467c-0.24-0.4-0.133-0.907 0.213-1.187l3.947-3.080c-0.080-0.6-0.133-1.2-0.133-1.827 0-0.613 0.053-1.227 0.133-1.827l-3.947-3.080c-0.347-0.28-0.453-0.787-0.213-1.187l3.733-6.467c0.24-0.4 0.72-0.56 1.147-0.4l4.64 1.867c0.96-0.733 2.013-1.36 3.16-1.84l0.693-4.947c0.067-0.44 0.453-0.787 0.92-0.787h7.467c0.467 0 0.853 0.347 0.92 0.787l0.693 4.947c1.133 0.467 2.187 1.093 3.16 1.84l4.64-1.867c0.427-0.16 0.907 0 1.147 0.4l3.733 6.467c0.24 0.4 0.133 0.907-0.213 1.187l-3.947 3.093c0.080 0.587 0.133 1.2 0.133 1.813z" fill="#444444"></path>
</svg>
