<?xml version="1.0" encoding="utf-8"?>
<!-- Generated by IcoMoon.io -->
<!DOCTYPE svg PUBLIC "-//W3C//DTD SVG 1.1//EN" "http://www.w3.org/Graphics/SVG/1.1/DTD/svg11.dtd">
<svg version="1.1" xmlns="http://www.w3.org/2000/svg" xmlns:xlink="http://www.w3.org/1999/xlink" width="64" height="64" viewBox="0 0 64 64">
<path d="M51.813 34.6c0.107-0.853 0.187-1.72 0.187-2.6s-0.080-1.747-0.187-2.6l5.64-4.413c0.507-0.4 0.653-1.12 0.32-1.707l-5.333-9.24c-0.333-0.573-1.027-0.813-1.627-0.573l-6.64 2.68c-1.373-1.053-2.88-1.947-4.507-2.627l-1-7.067c-0.12-0.627-0.667-1.12-1.333-1.12h-10.667c-0.667 0-1.213 0.493-1.32 1.12l-1 7.067c-1.627 0.68-3.133 1.56-4.507 2.627l-6.64-2.68c-0.6-0.227-1.293 0-1.627 0.573l-5.333 9.24c-0.333 0.573-0.187 1.293 0.32 1.707l5.627 4.413c-0.107 0.853-0.187 1.72-0.187 2.6s0.080 1.747 0.187 2.6l-5.627 4.413c-0.507 0.4-0.653 1.12-0.32 1.707l5.333 9.24c0.333 0.573 1.027 0.813 1.627 0.573l6.64-2.68c1.373 1.053 2.88 1.947 4.507 2.627l1 7.067c0.107 0.627 0.653 1.12 1.32 1.12h10.667c0.667 0 1.213-0.493 1.32-1.12l1-7.067c1.627-0.68 3.133-1.56 4.507-2.627l6.64 2.68c0.6 0.227 1.293 0 1.627-0.573l5.333-9.24c0.333-0.573 0.187-1.293-0.32-1.707l-5.627-4.413zM32 41.333c-5.16 0-9.333-4.173-9.333-9.333s4.173-9.333 9.333-9.333 9.333 4.173 9.333 9.333-4.173 9.333-9.333 9.333z" fill="#444444"></path>
</svg>
