<?xml version="1.0" encoding="utf-8"?>
<!-- Generated by IcoMoon.io -->
<!DOCTYPE svg PUBLIC "-//W3C//DTD SVG 1.1//EN" "http://www.w3.org/Graphics/SVG/1.1/DTD/svg11.dtd">
<svg version="1.1" xmlns="http://www.w3.org/2000/svg" xmlns:xlink="http://www.w3.org/1999/xlink" width="64" height="64" viewBox="0 0 64 64">
<path d="M32.013 14.667l-5.347 6.667h10.667l-5.32-6.667zM48 26.667v10.667l6.667-5.32-6.667-5.347zM16 26.667l-6.667 5.347 6.667 5.32v-10.667zM37.333 42.667h-10.667l5.347 6.667 5.32-6.667zM56 8h-48c-2.947 0-5.333 2.387-5.333 5.333v37.333c0 2.947 2.387 5.333 5.333 5.333h48c2.947 0 5.333-2.387 5.333-5.333v-37.333c0-2.947-2.387-5.333-5.333-5.333zM56 50.707h-48v-37.413h48v37.413z" fill="#444444"></path>
</svg>
