<?xml version="1.0" encoding="utf-8"?>
<!-- Generated by IcoMoon.io -->
<!DOCTYPE svg PUBLIC "-//W3C//DTD SVG 1.1//EN" "http://www.w3.org/Graphics/SVG/1.1/DTD/svg11.dtd">
<svg version="1.1" xmlns="http://www.w3.org/2000/svg" xmlns:xlink="http://www.w3.org/1999/xlink" width="64" height="64" viewBox="0 0 64 64">
<path d="M24 42.667h17.333c3.68 0 6.667-2.987 6.667-6.667s-2.987-6.667-6.667-6.667h-0.133c-0.653-4.52-4.507-8-9.2-8-3.733 0-6.933 2.213-8.427 5.387h-0.44c-4.013 0.427-7.133 3.827-7.133 7.947 0 4.413 3.587 8 8 8zM56 8h-48c-2.947 0-5.333 2.387-5.333 5.333v37.333c0 2.947 2.387 5.333 5.333 5.333h48c2.947 0 5.333-2.387 5.333-5.333v-37.333c0-2.947-2.387-5.333-5.333-5.333zM56 50.707h-48v-37.413h48v37.413z" fill="#444444"></path>
</svg>
