<?xml version="1.0" encoding="utf-8"?>
<!-- Generated by IcoMoon.io -->
<!DOCTYPE svg PUBLIC "-//W3C//DTD SVG 1.1//EN" "http://www.w3.org/Graphics/SVG/1.1/DTD/svg11.dtd">
<svg version="1.1" xmlns="http://www.w3.org/2000/svg" xmlns:xlink="http://www.w3.org/1999/xlink" width="64" height="64" viewBox="0 0 64 64">
<path d="M18.667 48c-2.947 0-5.307 2.387-5.307 5.333s2.36 5.333 5.307 5.333 5.333-2.387 5.333-5.333-2.387-5.333-5.333-5.333zM2.667 5.333v5.333h5.333l9.587 20.227-3.6 6.533c-0.413 0.773-0.653 1.64-0.653 2.573 0 2.947 2.387 5.333 5.333 5.333h32v-5.333h-30.867c-0.373 0-0.667-0.293-0.667-0.667 0-0.12 0.027-0.227 0.080-0.32l2.387-4.347h19.867c2 0 3.747-1.107 4.667-2.747l9.533-17.307c0.213-0.373 0.333-0.813 0.333-1.28 0-1.48-1.2-2.667-2.667-2.667h-39.427l-2.533-5.333h-8.707zM45.333 48c-2.947 0-5.307 2.387-5.307 5.333s2.36 5.333 5.307 5.333 5.333-2.387 5.333-5.333-2.387-5.333-5.333-5.333z" fill="#444444"></path>
</svg>
