<?xml version="1.0" encoding="utf-8"?>
<!-- Generated by IcoMoon.io -->
<!DOCTYPE svg PUBLIC "-//W3C//DTD SVG 1.1//EN" "http://www.w3.org/Graphics/SVG/1.1/DTD/svg11.dtd">
<svg version="1.1" xmlns="http://www.w3.org/2000/svg" xmlns:xlink="http://www.w3.org/1999/xlink" width="64" height="64" viewBox="0 0 64 64">
<path d="M45.333 5.333h-26.667c-2.947 0-5.333 2.387-5.333 5.333v42.667c0 2.947 2.387 5.307 5.333 5.307l26.667 0.027c2.947 0 5.333-2.387 5.333-5.333v-42.667c0-2.947-2.387-5.333-5.333-5.333zM32 10.667c2.947 0 5.333 2.387 5.333 5.333s-2.387 5.333-5.333 5.333-5.333-2.387-5.333-5.333 2.387-5.333 5.333-5.333zM32 53.333c-7.36 0-13.333-5.973-13.333-13.333s5.973-13.333 13.333-13.333 13.333 5.973 13.333 13.333-5.973 13.333-13.333 13.333zM32 32c-4.413 0-8 3.587-8 8s3.587 8 8 8 8-3.587 8-8-3.587-8-8-8z" fill="#444444"></path>
</svg>
