<?xml version="1.0" encoding="utf-8"?>
<!-- Generated by IcoMoon.io -->
<!DOCTYPE svg PUBLIC "-//W3C//DTD SVG 1.1//EN" "http://www.w3.org/Graphics/SVG/1.1/DTD/svg11.dtd">
<svg version="1.1" xmlns="http://www.w3.org/2000/svg" xmlns:xlink="http://www.w3.org/1999/xlink" width="64" height="64" viewBox="0 0 64 64">
<path d="M53.333 5.333h-42.667c-2.947 0-5.307 2.387-5.307 5.333l-0.027 48 10.667-10.667h37.333c2.947 0 5.333-2.387 5.333-5.333v-32c0-2.947-2.387-5.333-5.333-5.333zM21.333 37.333h-5.333v-5.333h5.333v5.333zM21.333 29.333h-5.333v-5.333h5.333v5.333zM21.333 21.333h-5.333v-5.333h5.333v5.333zM40 37.333h-13.333v-5.333h13.333v5.333zM48 29.333h-21.333v-5.333h21.333v5.333zM48 21.333h-21.333v-5.333h21.333v5.333z" fill="#444444"></path>
</svg>
