<?xml version="1.0" encoding="utf-8"?>
<!-- Generated by IcoMoon.io -->
<!DOCTYPE svg PUBLIC "-//W3C//DTD SVG 1.1//EN" "http://www.w3.org/Graphics/SVG/1.1/DTD/svg11.dtd">
<svg version="1.1" xmlns="http://www.w3.org/2000/svg" xmlns:xlink="http://www.w3.org/1999/xlink" width="64" height="64" viewBox="0 0 64 64">
<path d="M6.747 52.413l3.587 1.48v-24.067l-6.467 15.613c-1.12 2.707 0.173 5.84 2.88 6.973zM58.747 42.52l-13.227-31.907c-0.827-2-2.773-3.24-4.813-3.28-0.707-0.013-1.427 0.12-2.133 0.4l-19.64 8.133c-2 0.827-3.227 2.76-3.28 4.8-0.013 0.72 0.107 1.44 0.4 2.147l13.213 31.907c0.84 2.027 2.8 3.253 4.88 3.28 0.693 0 1.387-0.12 2.067-0.4l19.64-8.133c2.707-1.12 4.013-4.24 2.893-6.947zM21 23.333c-1.467 0-2.667-1.2-2.667-2.667s1.2-2.667 2.667-2.667 2.667 1.2 2.667 2.667-1.2 2.667-2.667 2.667zM15.667 52.667c0 2.933 2.4 5.333 5.333 5.333h3.88l-9.213-22.24v16.907z" fill="#444444"></path>
</svg>
