<?xml version="1.0" encoding="utf-8"?>
<!-- Generated by IcoMoon.io -->
<!DOCTYPE svg PUBLIC "-//W3C//DTD SVG 1.1//EN" "http://www.w3.org/Graphics/SVG/1.1/DTD/svg11.dtd">
<svg version="1.1" xmlns="http://www.w3.org/2000/svg" xmlns:xlink="http://www.w3.org/1999/xlink" width="64" height="64" viewBox="0 0 64 64">
<path d="M26.667 16.933v-5.573c-2.133 0.547-4.12 1.427-5.947 2.56l3.907 3.907c0.653-0.333 1.333-0.653 2.040-0.893zM7.64 14.427l6.28 6.28c-2.053 3.28-3.253 7.133-3.253 11.293 0 5.893 2.413 11.2 6.28 15.053l-6.28 6.28h16v-16l-5.96 5.96c-2.907-2.893-4.707-6.88-4.707-11.293 0-2.667 0.667-5.173 1.827-7.387l21.56 21.56c-0.653 0.347-1.333 0.653-2.040 0.907v5.56c2.133-0.547 4.12-1.427 5.947-2.56l6.293 6.293 3.4-3.4-41.96-41.947-3.387 3.4zM53.333 10.667h-16v16l5.96-5.96c2.907 2.893 4.707 6.88 4.707 11.293 0 2.667-0.667 5.173-1.827 7.387l3.907 3.907c2.053-3.28 3.253-7.133 3.253-11.293 0-5.893-2.413-11.2-6.28-15.053l6.28-6.28z" fill="#444444"></path>
</svg>
