<?xml version="1.0" encoding="utf-8"?>
<!-- Generated by IcoMoon.io -->
<!DOCTYPE svg PUBLIC "-//W3C//DTD SVG 1.1//EN" "http://www.w3.org/Graphics/SVG/1.1/DTD/svg11.dtd">
<svg version="1.1" xmlns="http://www.w3.org/2000/svg" xmlns:xlink="http://www.w3.org/1999/xlink" width="64" height="64" viewBox="0 0 64 64">
<path d="M8 32c0 5.893 2.427 11.2 6.28 15.053l-6.28 6.28h16v-16l-5.96 5.96c-2.907-2.893-4.707-6.88-4.707-11.293 0-6.96 4.453-12.867 10.667-15.067v-5.573c-9.2 2.373-16 10.707-16 20.64zM29.333 45.333h5.333v-5.333h-5.333v5.333zM56 10.667h-16v16l5.96-5.96c2.907 2.893 4.707 6.88 4.707 11.293 0 6.96-4.453 12.867-10.667 15.067v5.56c9.2-2.36 16-10.693 16-20.627 0-5.893-2.427-11.2-6.28-15.053l6.28-6.28zM29.333 34.667h5.333v-16h-5.333v16z" fill="#444444"></path>
</svg>
