<?xml version="1.0" encoding="utf-8"?>
<!-- Generated by IcoMoon.io -->
<!DOCTYPE svg PUBLIC "-//W3C//DTD SVG 1.1//EN" "http://www.w3.org/Graphics/SVG/1.1/DTD/svg11.dtd">
<svg version="1.1" xmlns="http://www.w3.org/2000/svg" xmlns:xlink="http://www.w3.org/1999/xlink" width="64" height="64" viewBox="0 0 64 64">
<path d="M52.027 8.2l-43.827 43.827c0.24 0.92 0.707 1.747 1.36 2.4l0.013 0.013c0.653 0.653 1.48 1.12 2.4 1.36l43.827-43.827c-0.493-1.84-1.933-3.28-3.773-3.773zM31.68 8l-23.68 23.68v7.547l31.227-31.227h-7.547zM13.333 8c-2.933 0-5.333 2.4-5.333 5.333v5.347l10.68-10.68h-5.347zM50.667 56c1.467 0 2.8-0.6 3.76-1.56 0.973-0.973 1.573-2.307 1.573-3.773v-5.347l-10.68 10.68h5.347zM24.773 56h7.547l23.68-23.68v-7.547l-31.227 31.227z" fill="#444444"></path>
</svg>
