<?xml version="1.0" encoding="utf-8"?>
<!-- Generated by IcoMoon.io -->
<!DOCTYPE svg PUBLIC "-//W3C//DTD SVG 1.1//EN" "http://www.w3.org/Graphics/SVG/1.1/DTD/svg11.dtd">
<svg version="1.1" xmlns="http://www.w3.org/2000/svg" xmlns:xlink="http://www.w3.org/1999/xlink" width="64" height="64" viewBox="0 0 64 64">
<path d="M2.667 56h10.667v-32h-10.667v32zM61.333 26.667c0-2.947-2.387-5.333-5.333-5.333h-16.84l2.547-12.187c0.053-0.267 0.093-0.547 0.093-0.84 0-1.107-0.453-2.107-1.173-2.827l-2.84-2.813-17.56 17.56c-0.96 0.973-1.56 2.307-1.56 3.773v26.667c0 2.947 2.387 5.333 5.333 5.333h24c2.213 0 4.107-1.347 4.907-3.253l8.040-18.8c0.24-0.613 0.387-1.267 0.387-1.947v-5.107l-0.027-0.027 0.027-0.2z" fill="#444444"></path>
</svg>
