<?xml version="1.0" encoding="utf-8"?>
<!-- Generated by IcoMoon.io -->
<!DOCTYPE svg PUBLIC "-//W3C//DTD SVG 1.1//EN" "http://www.w3.org/Graphics/SVG/1.1/DTD/svg11.dtd">
<svg version="1.1" xmlns="http://www.w3.org/2000/svg" xmlns:xlink="http://www.w3.org/1999/xlink" width="64" height="64" viewBox="0 0 64 64">
<path d="M32 16c0-1.467-1.2-2.667-2.667-2.667h-13.827l1.773-8.467c0.040-0.2 0.067-0.413 0.067-0.627 0-0.827-0.333-1.573-0.88-2.12l-2.12-2.12-13.173 13.173c-0.72 0.72-1.173 1.72-1.173 2.827v17.333c0 2.213 1.787 4 4 4h18c1.653 0 3.080-1 3.68-2.44l6.040-14.107c0.173-0.453 0.28-0.933 0.28-1.453v-3.333zM60 26.667h-18c-1.653 0-3.080 1-3.68 2.44l-6.040 14.107c-0.173 0.453-0.28 0.933-0.28 1.453v3.333c0 1.467 1.2 2.667 2.667 2.667h13.827l-1.773 8.467c-0.040 0.2-0.067 0.413-0.067 0.627 0 0.827 0.333 1.573 0.88 2.12l2.12 2.12 13.173-13.173c0.72-0.72 1.173-1.72 1.173-2.827v-17.333c0-2.213-1.787-4-4-4z" fill="#444444"></path>
</svg>
