<?xml version="1.0" encoding="utf-8"?>
<!-- Generated by IcoMoon.io -->
<!DOCTYPE svg PUBLIC "-//W3C//DTD SVG 1.1//EN" "http://www.w3.org/Graphics/SVG/1.1/DTD/svg11.dtd">
<svg version="1.1" xmlns="http://www.w3.org/2000/svg" xmlns:xlink="http://www.w3.org/1999/xlink" width="64" height="64" viewBox="0 0 64 64">
<path d="M43.32 20.68c-3.133-3.12-7.227-4.68-11.32-4.68v16l-11.32 11.32c6.253 6.253 16.373 6.253 22.627 0s6.253-16.387 0.013-22.64zM32 5.333c-14.733 0-26.667 11.933-26.667 26.667s11.933 26.667 26.667 26.667 26.667-11.947 26.667-26.667c0-14.733-11.933-26.667-26.667-26.667zM32 53.333c-11.787 0-21.333-9.547-21.333-21.333s9.547-21.333 21.333-21.333 21.333 9.547 21.333 21.333-9.547 21.333-21.333 21.333z" fill="#444444"></path>
</svg>
