<?xml version="1.0" encoding="utf-8"?>
<!-- Generated by IcoMoon.io -->
<!DOCTYPE svg PUBLIC "-//W3C//DTD SVG 1.1//EN" "http://www.w3.org/Graphics/SVG/1.1/DTD/svg11.dtd">
<svg version="1.1" xmlns="http://www.w3.org/2000/svg" xmlns:xlink="http://www.w3.org/1999/xlink" width="64" height="64" viewBox="0 0 64 64">
<path d="M53.333 26.667h-8v-3.040c4.6-1.187 8-5.32 8-10.293h-8v-2.667c0-1.467-1.187-2.667-2.667-2.667h-21.333c-1.467 0-2.667 1.2-2.667 2.667v2.667h-8c0 4.96 3.413 9.107 8 10.293v3.040h-8c0 4.96 3.413 9.107 8 10.293v3.040h-8c0 4.96 3.413 9.107 8 10.293v3.040c0 1.467 1.2 2.667 2.667 2.667h21.333c1.48 0 2.667-1.2 2.667-2.667v-3.040c4.6-1.187 8-5.32 8-10.293h-8v-3.040c4.6-1.187 8-5.333 8-10.293zM32 50.667c-2.947 0-5.333-2.387-5.333-5.333s2.387-5.333 5.333-5.333 5.333 2.387 5.333 5.333-2.387 5.333-5.333 5.333zM32 37.333c-2.947 0-5.333-2.387-5.333-5.333s2.387-5.333 5.333-5.333 5.333 2.387 5.333 5.333-2.387 5.333-5.333 5.333zM32 24c-2.947 0-5.333-2.387-5.333-5.333s2.387-5.333 5.333-5.333 5.333 2.387 5.333 5.333-2.387 5.333-5.333 5.333z" fill="#444444"></path>
</svg>
