<?xml version="1.0" encoding="utf-8"?>
<!-- Generated by IcoMoon.io -->
<!DOCTYPE svg PUBLIC "-//W3C//DTD SVG 1.1//EN" "http://www.w3.org/Graphics/SVG/1.1/DTD/svg11.dtd">
<svg version="1.1" xmlns="http://www.w3.org/2000/svg" xmlns:xlink="http://www.w3.org/1999/xlink" width="64" height="64" viewBox="0 0 64 64">
<path d="M34.32 40.2l-6.773-6.693 0.080-0.080c4.64-5.173 7.947-11.12 9.893-17.413h7.813v-5.347h-18.667v-5.333h-5.333v5.333h-18.667v5.307h29.787c-1.8 5.147-4.613 10.027-8.453 14.293-2.48-2.76-4.533-5.76-6.16-8.933h-5.333c1.947 4.347 4.613 8.453 7.947 12.16l-13.56 13.4 3.773 3.773 13.333-13.333 8.293 8.293 2.027-5.427zM49.333 26.667h-5.333l-12 32h5.333l3-8h12.667l3 8h5.333l-12-32zM42.333 45.333l4.333-11.56 4.333 11.56h-8.667z" fill="#444444"></path>
</svg>
