<?xml version="1.0" encoding="utf-8"?>
<!-- Generated by IcoMoon.io -->
<!DOCTYPE svg PUBLIC "-//W3C//DTD SVG 1.1//EN" "http://www.w3.org/Graphics/SVG/1.1/DTD/svg11.dtd">
<svg version="1.1" xmlns="http://www.w3.org/2000/svg" xmlns:xlink="http://www.w3.org/1999/xlink" width="64" height="64" viewBox="0 0 64 64">
<path d="M40 18.667v10.667h2.667v5.333h-8v-21.333h5.333l-8-10.667-8 10.667h5.333v21.333h-8v-5.52c1.88-0.973 3.2-2.88 3.2-5.147 0-3.24-2.627-5.867-5.867-5.867s-5.867 2.627-5.867 5.867c0 2.267 1.32 4.173 3.2 5.147v5.52c0 2.947 2.387 5.333 5.333 5.333h8v8.133c-1.893 0.973-3.2 2.92-3.2 5.2 0 3.24 2.627 5.867 5.867 5.867s5.867-2.627 5.867-5.867c0-2.28-1.307-4.227-3.2-5.2v-8.133h8c2.947 0 5.333-2.387 5.333-5.333v-5.333h2.667v-10.667h-10.667z" fill="#444444"></path>
</svg>
