<?xml version="1.0" encoding="utf-8"?>
<!-- Generated by IcoMoon.io -->
<!DOCTYPE svg PUBLIC "-//W3C//DTD SVG 1.1//EN" "http://www.w3.org/Graphics/SVG/1.1/DTD/svg11.dtd">
<svg version="1.1" xmlns="http://www.w3.org/2000/svg" xmlns:xlink="http://www.w3.org/1999/xlink" width="64" height="64" viewBox="0 0 64 64">
<path d="M53.333 34.667h-45.333c-1.467 0-2.667 1.2-2.667 2.667v16c0 1.467 1.2 2.667 2.667 2.667h45.333c1.467 0 2.667-1.2 2.667-2.667v-16c0-1.467-1.2-2.667-2.667-2.667zM53.333 8h-45.333c-1.467 0-2.667 1.2-2.667 2.667v16c0 1.467 1.2 2.667 2.667 2.667h45.333c1.467 0 2.667-1.2 2.667-2.667v-16c0-1.467-1.2-2.667-2.667-2.667z" fill="#444444"></path>
</svg>
