<?xml version="1.0" encoding="utf-8"?>
<!-- Generated by IcoMoon.io -->
<!DOCTYPE svg PUBLIC "-//W3C//DTD SVG 1.1//EN" "http://www.w3.org/Graphics/SVG/1.1/DTD/svg11.dtd">
<svg version="1.1" xmlns="http://www.w3.org/2000/svg" xmlns:xlink="http://www.w3.org/1999/xlink" width="64" height="64" viewBox="0 0 64 64">
<path d="M32 18.667c7.36 0 13.333 5.973 13.333 13.333 0 1.72-0.347 3.36-0.947 4.867l7.8 7.8c4.027-3.36 7.2-7.707 9.16-12.667-4.627-11.707-16-20-29.347-20-3.733 0-7.307 0.667-10.627 1.867l5.76 5.747c1.507-0.587 3.147-0.947 4.867-0.947zM5.333 11.4l7.293 7.293c-4.4 3.44-7.88 8.013-9.96 13.307 4.613 11.707 16 20 29.333 20 4.133 0 8.080-0.8 11.693-2.253l1.133 1.133 7.773 7.787 3.4-3.387-47.267-47.28-3.4 3.4zM20.080 26.133l4.12 4.12c-0.12 0.573-0.2 1.147-0.2 1.747 0 4.413 3.587 8 8 8 0.6 0 1.173-0.080 1.733-0.2l4.12 4.12c-1.773 0.88-3.747 1.413-5.853 1.413-7.36 0-13.333-5.973-13.333-13.333 0-2.107 0.533-4.080 1.413-5.867zM31.56 24.040l8.4 8.4 0.040-0.44c0-4.413-3.587-8-8-8l-0.44 0.040z" fill="#444444"></path>
</svg>
