<?xml version="1.0" encoding="utf-8"?>
<!-- Generated by IcoMoon.io -->
<!DOCTYPE svg PUBLIC "-//W3C//DTD SVG 1.1//EN" "http://www.w3.org/Graphics/SVG/1.1/DTD/svg11.dtd">
<svg version="1.1" xmlns="http://www.w3.org/2000/svg" xmlns:xlink="http://www.w3.org/1999/xlink" width="64" height="64" viewBox="0 0 64 64">
<path d="M58.667 10.667v-1.333c0-3.68-2.987-6.667-6.667-6.667s-6.667 2.987-6.667 6.667v1.333c-1.48 0-2.667 1.2-2.667 2.667v10.667c0 1.467 1.187 2.667 2.667 2.667h13.333c1.48 0 2.667-1.2 2.667-2.667v-10.667c0-1.467-1.187-2.667-2.667-2.667zM56.533 10.667h-9.067v-1.333c0-2.507 2.027-4.533 4.533-4.533s4.533 2.027 4.533 4.533v1.333zM50.467 32c0.107 0.88 0.2 1.76 0.2 2.667 0 5.547-2.133 10.587-5.613 14.387-0.68-2.16-2.68-3.72-5.053-3.72h-2.667v-8c0-1.467-1.2-2.667-2.667-2.667h-16v-5.333h5.333c1.467 0 2.667-1.2 2.667-2.667v-5.333h5.333c2.947 0 5.333-2.387 5.333-5.333v-6.773c-2.52-0.8-5.213-1.227-8-1.227-14.733 0-26.667 11.933-26.667 26.667s11.933 26.667 26.667 26.667 26.667-11.933 26.667-26.667c0-0.907-0.053-1.787-0.133-2.667h-5.4zM26.667 55.813c-10.52-1.307-18.667-10.267-18.667-21.147 0-1.64 0.2-3.24 0.56-4.773l12.773 12.773v2.667c0 2.947 2.387 5.333 5.333 5.333v5.147z" fill="#444444"></path>
</svg>
