<?xml version="1.0" encoding="utf-8"?>
<!-- Generated by IcoMoon.io -->
<!DOCTYPE svg PUBLIC "-//W3C//DTD SVG 1.1//EN" "http://www.w3.org/Graphics/SVG/1.1/DTD/svg11.dtd">
<svg version="1.1" xmlns="http://www.w3.org/2000/svg" xmlns:xlink="http://www.w3.org/1999/xlink" width="48" height="48" viewBox="0 0 48 48">
<path d="M33 24c2.76 0 4.98-2.24 4.98-5s-2.22-5-4.98-5c-2.76 0-5 2.24-5 5s2.24 5 5 5zM18 22c3.31 0 5.98-2.69 5.98-6s-2.67-6-5.98-6c-3.31 0-6 2.69-6 6s2.69 6 6 6zM33 28c-3.67 0-11 1.84-11 5.5v4.5h22v-4.5c0-3.66-7.33-5.5-11-5.5zM18 26c-4.67 0-14 2.34-14 7v5h14v-4.5c0-1.7 0.67-4.67 4.74-6.94-1.74-0.37-3.43-0.56-4.74-0.56z" fill="#444444"></path>
</svg>
