<?xml version="1.0" encoding="utf-8"?>
<!-- Generated by IcoMoon.io -->
<!DOCTYPE svg PUBLIC "-//W3C//DTD SVG 1.1//EN" "http://www.w3.org/Graphics/SVG/1.1/DTD/svg11.dtd">
<svg version="1.1" xmlns="http://www.w3.org/2000/svg" xmlns:xlink="http://www.w3.org/1999/xlink" width="48" height="48" viewBox="0 0 48 48">
<path d="M6 10v28c0 2.21 1.79 4 4 4h28c2.21 0 4-1.79 4-4v-28c0-2.21-1.79-4-4-4h-28c-2.21 0-4 1.79-4 4zM30 18c0 3.32-2.69 6-6 6s-6-2.68-6-6c0-3.31 2.69-6 6-6s6 2.69 6 6zM12 34c0-4 8-6.2 12-6.2s12 2.2 12 6.2v2h-24v-2z" fill="#444444"></path>
</svg>
