<?xml version="1.0" encoding="utf-8"?>
<!-- Generated by IcoMoon.io -->
<!DOCTYPE svg PUBLIC "-//W3C//DTD SVG 1.1//EN" "http://www.w3.org/Graphics/SVG/1.1/DTD/svg11.dtd">
<svg version="1.1" xmlns="http://www.w3.org/2000/svg" xmlns:xlink="http://www.w3.org/1999/xlink" width="48" height="48" viewBox="0 0 48 48">
<path d="M10 32c0 7.73 6.27 14 14 14s14-6.27 14-14v-8h-28v8zM32.25 8.74l4.2-4.2-1.65-1.65-4.61 4.61c-1.88-0.93-3.96-1.5-6.19-1.5s-4.31 0.57-6.19 1.5l-4.61-4.61-1.65 1.65 4.2 4.2c-3.47 2.54-5.75 6.62-5.75 11.26v2h28v-2c0-4.64-2.28-8.72-5.75-11.26zM18 18c-1.11 0-2-0.9-2-2s0.89-2 2-2c1.11 0 2 0.9 2 2s-0.89 2-2 2zM30 18c-1.11 0-2-0.9-2-2s0.89-2 2-2c1.11 0 2 0.9 2 2s-0.89 2-2 2z" fill="#444444"></path>
</svg>
