<?xml version="1.0" encoding="utf-8"?>
<!-- Generated by IcoMoon.io -->
<!DOCTYPE svg PUBLIC "-//W3C//DTD SVG 1.1//EN" "http://www.w3.org/Graphics/SVG/1.1/DTD/svg11.dtd">
<svg version="1.1" xmlns="http://www.w3.org/2000/svg" xmlns:xlink="http://www.w3.org/1999/xlink" width="48" height="48" viewBox="0 0 48 48">
<path d="M22 18h4v-6h6v-4h-6v-6h-4v6h-6v4h6v6zM14 36c-2.21 0-3.98 1.79-3.98 4s1.77 4 3.98 4 4-1.79 4-4-1.79-4-4-4zM34 36c-2.21 0-3.98 1.79-3.98 4s1.77 4 3.98 4 4-1.79 4-4-1.79-4-4-4zM14.35 29.5c0-0.090 0.020-0.17 0.060-0.24l1.8-3.26h14.9c1.5 0 2.81-0.83 3.5-2.060l7.72-14.020-3.5-1.92h-0.010l-2.21 4-5.51 10h-14.030l-0.26-0.54-6.39-13.46-1.89-4h-6.53v4h4l7.2 15.17-2.71 4.9c-0.31 0.58-0.49 1.23-0.49 1.93 0 2.21 1.79 4 4 4h24v-4h-23.15c-0.28 0-0.5-0.22-0.5-0.5z" fill="#444444"></path>
</svg>
