<?xml version="1.0" encoding="utf-8"?>
<!-- Generated by IcoMoon.io -->
<!DOCTYPE svg PUBLIC "-//W3C//DTD SVG 1.1//EN" "http://www.w3.org/Graphics/SVG/1.1/DTD/svg11.dtd">
<svg version="1.1" xmlns="http://www.w3.org/2000/svg" xmlns:xlink="http://www.w3.org/1999/xlink" width="48" height="48" viewBox="0 0 48 48">
<path d="M9 0v48h36v-48h-36zM27 12.016c3.305 0 5.984 2.68 5.984 5.984s-2.679 5.984-5.984 5.984-5.984-2.68-5.984-5.984 2.68-5.984 5.984-5.984v0zM36 36h-18v-3c0-3.314 2.687-6 6-6v0h6c3.314 0 6 2.686 6 6v3z" fill="#444444"></path>
<path d="M3 3h4.5v9h-4.5v-9z" fill="#444444"></path>
<path d="M3 15h4.5v9h-4.5v-9z" fill="#444444"></path>
<path d="M3 27h4.5v9h-4.5v-9z" fill="#444444"></path>
<path d="M3 39h4.5v9h-4.5v-9z" fill="#444444"></path>
</svg>
