<?xml version="1.0" encoding="utf-8"?>
<!-- Generated by IcoMoon.io -->
<!DOCTYPE svg PUBLIC "-//W3C//DTD SVG 1.1//EN" "http://www.w3.org/Graphics/SVG/1.1/DTD/svg11.dtd">
<svg version="1.1" xmlns="http://www.w3.org/2000/svg" xmlns:xlink="http://www.w3.org/1999/xlink" width="48" height="48" viewBox="0 0 48 48">
<path d="M24 6c-11.598 0-21 9.402-21 21s9.402 21 21 21 21-9.402 21-21-9.402-21-21-21zM24 43.875c-9.32 0-16.875-7.555-16.875-16.875s7.555-16.875 16.875-16.875c9.32 0 16.875 7.555 16.875 16.875s-7.555 16.875-16.875 16.875zM43.818 13.461c0.752-1.315 1.182-2.838 1.182-4.461 0-4.971-4.030-9-9-9-2.898 0-5.475 1.369-7.121 3.497 6.182 1.276 11.494 4.931 14.939 9.965v0zM19.121 3.497c-1.646-2.127-4.223-3.497-7.121-3.497-4.971 0-9 4.029-9 9 0 1.624 0.43 3.146 1.182 4.461 3.446-5.033 8.757-8.688 14.939-9.964z" fill="#444444"></path>
<path d="M24 27v-12h-3v15h12v-3z" fill="#444444"></path>
</svg>
