<?xml version="1.0" encoding="utf-8"?>
<!-- Generated by IcoMoon.io -->
<!DOCTYPE svg PUBLIC "-//W3C//DTD SVG 1.1//EN" "http://www.w3.org/Graphics/SVG/1.1/DTD/svg11.dtd">
<svg version="1.1" xmlns="http://www.w3.org/2000/svg" xmlns:xlink="http://www.w3.org/1999/xlink" width="48" height="48" viewBox="0 0 48 48">
<path d="M42 18c-1.65 0-3 1.35-3 3v12c0 1.65 1.35 3 3 3s3-1.35 3-3v-12c0-1.65-1.35-3-3-3zM6 18c-1.65 0-3 1.35-3 3v12c0 1.65 1.35 3 3 3s3-1.35 3-3v-12c0-1.65-1.35-3-3-3zM10.5 34.5c0 2.486 2.014 4.5 4.5 4.5v0 6c0 1.65 1.35 3 3 3s3-1.35 3-3v-6h6v6c0 1.65 1.35 3 3 3s3-1.35 3-3v-6c2.486 0 4.5-2.014 4.5-4.5v-16.5h-27v16.5z" fill="#444444"></path>
<path d="M37.417 15c-0.455-4.12-2.766-7.678-6.076-9.827l1.502-3.002c0.371-0.741 0.070-1.642-0.67-2.012s-1.642-0.070-2.012 0.671l-1.507 3.013-0.392-0.155c-1.339-0.446-2.771-0.687-4.26-0.687s-2.921 0.242-4.261 0.687l-0.391 0.155-1.507-3.013c-0.37-0.741-1.271-1.041-2.012-0.67s-1.041 1.271-0.671 2.012l1.501 3.002c-3.31 2.149-5.62 5.707-6.076 9.827v1.5h26.917v-1.5h-0.083zM19.5 12c-0.829 0-1.5-0.672-1.5-1.5s0.67-1.498 1.497-1.5c0.002 0 0.003 0 0.005 0s0.002 0 0.002 0c0.826 0.002 1.496 0.673 1.496 1.5s-0.671 1.5-1.5 1.5zM28.5 12c-0.829 0-1.5-0.672-1.5-1.5s0.67-1.498 1.496-1.5c0.001 0 0.002 0 0.002 0s0.003 0 0.005 0c0.826 0.002 1.497 0.673 1.497 1.5s-0.671 1.5-1.5 1.5z" fill="#444444"></path>
</svg>
