<?xml version="1.0" encoding="utf-8"?>
<!-- Generated by IcoMoon.io -->
<!DOCTYPE svg PUBLIC "-//W3C//DTD SVG 1.1//EN" "http://www.w3.org/Graphics/SVG/1.1/DTD/svg11.dtd">
<svg version="1.1" xmlns="http://www.w3.org/2000/svg" xmlns:xlink="http://www.w3.org/1999/xlink" width="48" height="48" viewBox="0 0 48 48">
<path d="M37.102 25.505c-0.061-6.079 4.957-8.994 5.182-9.139-2.82-4.126-7.212-4.691-8.777-4.756-3.738-0.379-7.294 2.201-9.19 2.201-1.892 0-4.82-2.145-7.919-2.088-4.074 0.061-7.831 2.369-9.929 6.018-4.233 7.346-1.084 18.227 3.042 24.184 2.016 2.916 4.42 6.191 7.576 6.074 3.040-0.121 4.189-1.966 7.864-1.966s4.708 1.966 7.925 1.907c3.271-0.061 5.343-2.971 7.345-5.897 2.315-3.383 3.268-6.658 3.325-6.826-0.073-0.033-6.378-2.449-6.441-9.709zM31.057 7.665c1.675-2.033 2.806-4.853 2.497-7.665-2.413 0.098-5.338 1.607-7.069 3.635-1.553 1.799-2.913 4.67-2.549 7.426 2.694 0.21 5.444-1.369 7.121-3.397z" fill="#444444"></path>
</svg>
