<?xml version="1.0" encoding="utf-8"?>
<!-- Generated by IcoMoon.io -->
<!DOCTYPE svg PUBLIC "-//W3C//DTD SVG 1.1//EN" "http://www.w3.org/Graphics/SVG/1.1/DTD/svg11.dtd">
<svg version="1.1" xmlns="http://www.w3.org/2000/svg" xmlns:xlink="http://www.w3.org/1999/xlink" width="48" height="48" viewBox="0 0 48 48">
<path d="M41.090 10.45l-2.77-3.36c-0.56-0.66-1.39-1.090-2.32-1.090h-24c-0.93 0-1.76 0.43-2.31 1.090l-2.77 3.36c-0.58 0.7-0.92 1.58-0.92 2.55v25c0 2.21 1.79 4 4 4h28c2.21 0 4-1.79 4-4v-25c0-0.97-0.34-1.85-0.91-2.55zM24 35l-11-11h7v-4h8v4h7l-11 11zM10.25 10l1.63-2h24l1.87 2h-27.5z" fill="#444444"></path>
</svg>
