<?xml version="1.0" encoding="utf-8"?>
<!-- Generated by IcoMoon.io -->
<!DOCTYPE svg PUBLIC "-//W3C//DTD SVG 1.1//EN" "http://www.w3.org/Graphics/SVG/1.1/DTD/svg11.dtd">
<svg version="1.1" xmlns="http://www.w3.org/2000/svg" xmlns:xlink="http://www.w3.org/1999/xlink" width="48" height="48" viewBox="0 0 48 48">
<path d="M41.121 36.879l-24.879-24.879h10.757c1.657 0 3-1.343 3-3s-1.343-3-3-3h-18c-1.213 0-2.307 0.731-2.771 1.852-0.154 0.371-0.227 0.761-0.226 1.148h-0.002v18c0 1.657 1.343 3 3 3s3-1.343 3-3v-10.757l24.879 24.879c0.586 0.586 1.354 0.879 2.121 0.879s1.535-0.293 2.121-0.879c1.171-1.171 1.171-3.071 0-4.243z" fill="#444444"></path>
</svg>
