<?xml version="1.0" encoding="utf-8"?>
<!-- Generated by IcoMoon.io -->
<!DOCTYPE svg PUBLIC "-//W3C//DTD SVG 1.1//EN" "http://www.w3.org/Graphics/SVG/1.1/DTD/svg11.dtd">
<svg version="1.1" xmlns="http://www.w3.org/2000/svg" xmlns:xlink="http://www.w3.org/1999/xlink" width="48" height="48" viewBox="0 0 48 48">
<path d="M11.121 41.121l24.879-24.879v10.757c0 1.657 1.343 3 3 3s3-1.343 3-3v-18c0-1.213-0.731-2.307-1.852-2.771-0.371-0.154-0.761-0.227-1.148-0.226v-0.002h-18c-1.657 0-3 1.343-3 3s1.343 3 3 3h10.757l-24.879 24.879c-0.586 0.586-0.879 1.354-0.879 2.121s0.293 1.535 0.879 2.121c1.171 1.171 3.071 1.171 4.243 0z" fill="#444444"></path>
</svg>
