<?xml version="1.0" encoding="utf-8"?>
<!-- Generated by IcoMoon.io -->
<!DOCTYPE svg PUBLIC "-//W3C//DTD SVG 1.1//EN" "http://www.w3.org/Graphics/SVG/1.1/DTD/svg11.dtd">
<svg version="1.1" xmlns="http://www.w3.org/2000/svg" xmlns:xlink="http://www.w3.org/1999/xlink" width="48" height="48" viewBox="0 0 48 48">
<path d="M36.879 6.878l-24.879 24.879v-10.757c0-1.657-1.343-3-3-3s-3 1.343-3 3v18c0 1.214 0.731 2.307 1.852 2.772 0.371 0.154 0.761 0.227 1.148 0.227v0.002h18c1.657 0 3-1.343 3-3s-1.343-3-3-3h-10.757l24.879-24.879c0.586-0.586 0.879-1.354 0.879-2.122s-0.293-1.535-0.879-2.121c-1.171-1.171-3.071-1.171-4.243 0v0z" fill="#444444"></path>
</svg>
