<?xml version="1.0" encoding="utf-8"?>
<!-- Generated by IcoMoon.io -->
<!DOCTYPE svg PUBLIC "-//W3C//DTD SVG 1.1//EN" "http://www.w3.org/Graphics/SVG/1.1/DTD/svg11.dtd">
<svg version="1.1" xmlns="http://www.w3.org/2000/svg" xmlns:xlink="http://www.w3.org/1999/xlink" width="48" height="48" viewBox="0 0 48 48">
<path d="M15 36c-6.080 0-11-4.93-11-11s4.92-11 11-11h21c4.42 0 8 3.58 8 8s-3.58 8-8 8h-17c-2.76 0-5-2.24-5-5s2.24-5 5-5h15v3h-15c-1.1 0-2 0.89-2 2s0.9 2 2 2h17c2.76 0 5-2.24 5-5s-2.24-5-5-5h-21c-4.42 0-8 3.58-8 8s3.58 8 8 8h19v3h-19z" fill="#444444"></path>
</svg>
