<?xml version="1.0" encoding="utf-8"?>
<!-- Generated by IcoMoon.io -->
<!DOCTYPE svg PUBLIC "-//W3C//DTD SVG 1.1//EN" "http://www.w3.org/Graphics/SVG/1.1/DTD/svg11.dtd">
<svg version="1.1" xmlns="http://www.w3.org/2000/svg" xmlns:xlink="http://www.w3.org/1999/xlink" width="48" height="48" viewBox="0 0 48 48">
<path d="M23.6 21.8c-4.54-1.18-6-2.39-6-4.29 0-2.18 2.010-3.71 5.4-3.71 3.56 0 4.88 1.7 5 4.2h4.42c-0.13-3.45-2.24-6.59-6.42-7.62v-4.38h-6v4.32c-3.88 0.85-7 3.35-7 7.22 0 4.62 3.83 6.92 9.4 8.26 5.010 1.2 6 2.95 6 4.83 0 1.37-0.97 3.57-5.4 3.57-4.12 0-5.75-1.85-5.96-4.2h-4.41c0.25 4.38 3.52 6.83 7.37 7.66v4.34h6v-4.3c3.89-0.75 7-3 7-7.11 0-5.66-4.86-7.6-9.4-8.79z" fill="#444444"></path>
</svg>
