<?xml version="1.0" encoding="utf-8"?>
<!-- Generated by IcoMoon.io -->
<!DOCTYPE svg PUBLIC "-//W3C//DTD SVG 1.1//EN" "http://www.w3.org/Graphics/SVG/1.1/DTD/svg11.dtd">
<svg version="1.1" xmlns="http://www.w3.org/2000/svg" xmlns:xlink="http://www.w3.org/1999/xlink" width="48" height="48" viewBox="0 0 48 48">
<path d="M22 34c0 1.1 0.9 2 2 2s2-0.9 2-2-0.9-2-2-2-2 0.9-2 2zM22 6v8h4v-3.84c6.78 0.97 12 6.79 12 13.84 0 7.73-6.27 14-14 14s-14-6.27-14-14c0-3.36 1.18-6.43 3.15-8.85l10.85 10.85 2.83-2.83-13.6-13.6-0.020 0.040c-4.37 3.28-7.21 8.5-7.21 14.39 0 9.94 8.040 18 17.99 18s18.010-8.060 18.010-18-8.060-18-18.010-18h-1.99zM36 24c0-1.1-0.9-2-2-2s-2 0.9-2 2 0.9 2 2 2 2-0.9 2-2zM12 24c0 1.1 0.9 2 2 2s2-0.9 2-2-0.9-2-2-2-2 0.9-2 2z" fill="#444444"></path>
</svg>
