<?xml version="1.0" encoding="utf-8"?>
<!-- Generated by IcoMoon.io -->
<!DOCTYPE svg PUBLIC "-//W3C//DTD SVG 1.1//EN" "http://www.w3.org/Graphics/SVG/1.1/DTD/svg11.dtd">
<svg version="1.1" xmlns="http://www.w3.org/2000/svg" xmlns:xlink="http://www.w3.org/1999/xlink" width="48" height="48" viewBox="0 0 48 48">
<path d="M44 6h-30c-1.38 0-2.47 0.7-3.19 1.76l-10.81 16.23 10.81 16.23c0.72 1.060 1.81 1.78 3.19 1.78h30c2.21 0 4-1.79 4-4v-28c0-2.21-1.79-4-4-4zM38 31.17l-2.83 2.83-7.17-7.17-7.17 7.17-2.83-2.83 7.17-7.17-7.17-7.17 2.83-2.83 7.17 7.17 7.17-7.17 2.83 2.83-7.17 7.17 7.17 7.17z" fill="#444444"></path>
</svg>
