<?xml version="1.0" encoding="utf-8"?>
<!-- Generated by IcoMoon.io -->
<!DOCTYPE svg PUBLIC "-//W3C//DTD SVG 1.1//EN" "http://www.w3.org/Graphics/SVG/1.1/DTD/svg11.dtd">
<svg version="1.1" xmlns="http://www.w3.org/2000/svg" xmlns:xlink="http://www.w3.org/1999/xlink" width="48" height="48" viewBox="0 0 48 48">
<path d="M0 6h6v30h-6zM9 6h3v30h-3zM15 6h3v30h-3zM24 6h3v30h-3zM36 6h3v30h-3zM45 6h3v30h-3zM30 6h1.5v30h-1.5zM21 6h1.5v30h-1.5zM40.5 6h1.5v30h-1.5zM0 39h3v3h-3zM9 39h3v3h-3zM15 39h3v3h-3zM30 39h3v3h-3zM45 39h3v3h-3zM36 39h6v3h-6zM21 39h6v3h-6z" fill="#444444"></path>
</svg>
