<?xml version="1.0" encoding="utf-8"?>
<!-- Generated by IcoMoon.io -->
<!DOCTYPE svg PUBLIC "-//W3C//DTD SVG 1.1//EN" "http://www.w3.org/Graphics/SVG/1.1/DTD/svg11.dtd">
<svg version="1.1" xmlns="http://www.w3.org/2000/svg" xmlns:xlink="http://www.w3.org/1999/xlink" width="48" height="48" viewBox="0 0 48 48">
<path d="M6 15v30c0 1.65 1.35 3 3 3h27c1.65 0 3-1.35 3-3v-30h-33zM15 42h-3v-21h3v21zM21 42h-3v-21h3v21zM27 42h-3v-21h3v21zM33 42h-3v-21h3v21z" fill="#444444"></path>
<path d="M39.75 6h-9.75v-3.75c0-1.237-1.013-2.25-2.25-2.25h-10.5c-1.237 0-2.25 1.013-2.25 2.25v3.75h-9.75c-1.238 0-2.25 1.012-2.25 2.25v3.75h39v-3.75c0-1.238-1.013-2.25-2.25-2.25zM27 6h-9v-2.963h9v2.963z" fill="#444444"></path>
</svg>
