<?xml version="1.0" encoding="utf-8"?>
<!-- Generated by IcoMoon.io -->
<!DOCTYPE svg PUBLIC "-//W3C//DTD SVG 1.1//EN" "http://www.w3.org/Graphics/SVG/1.1/DTD/svg11.dtd">
<svg version="1.1" xmlns="http://www.w3.org/2000/svg" xmlns:xlink="http://www.w3.org/1999/xlink" width="48" height="48" viewBox="0 0 48 48">
<path d="M40.97 7.030c-4.533-4.533-10.56-7.030-16.971-7.030s-12.437 2.497-16.971 7.030c-4.533 4.533-7.030 10.56-7.030 16.97s2.497 12.437 7.030 16.97c4.533 4.533 10.56 7.030 16.971 7.030s12.437-2.497 16.971-7.030c4.533-4.533 7.030-10.56 7.030-16.971s-2.497-12.437-7.030-16.971zM42 24c0 3.882-1.235 7.481-3.333 10.424l-25.091-25.090c2.944-2.098 6.542-3.333 10.424-3.333 9.925 0 18 8.075 18 18zM6 24c0-3.882 1.235-7.48 3.333-10.424l25.090 25.090c-2.944 2.098-6.542 3.333-10.424 3.333-9.926 0-18-8.075-18-18z" fill="#444444"></path>
</svg>
