<?xml version="1.0" encoding="utf-8"?>
<!-- Generated by IcoMoon.io -->
<!DOCTYPE svg PUBLIC "-//W3C//DTD SVG 1.1//EN" "http://www.w3.org/Graphics/SVG/1.1/DTD/svg11.dtd">
<svg version="1.1" xmlns="http://www.w3.org/2000/svg" xmlns:xlink="http://www.w3.org/1999/xlink" width="48" height="48" viewBox="0 0 48 48">
<path d="M18 0v4.5c3.445 0 6.783 0.673 9.924 2.002 3.036 1.284 5.764 3.124 8.107 5.467s4.183 5.071 5.467 8.107c1.328 3.141 2.002 6.48 2.002 9.924h4.5c0-16.568-13.432-30-30-30z" fill="#444444"></path>
<path d="M18 9v4.5c4.407 0 8.551 1.716 11.667 4.833s4.833 7.26 4.833 11.667h4.5c0-11.598-9.402-21-21-21z" fill="#444444"></path>
<path d="M22.5 18l-3 3-10.5 3-9 19.5 1.19 1.189 10.912-10.912c-0.066-0.248-0.102-0.508-0.102-0.777 0-1.657 1.343-3 3-3s3 1.343 3 3-1.343 3-3 3c-0.268 0-0.529-0.036-0.776-0.102l-10.912 10.913 1.19 1.189 19.5-9 3-10.5 3-3-7.5-7.5z" fill="#444444"></path>
</svg>
