<?xml version="1.0" encoding="utf-8"?>
<!-- Generated by IcoMoon.io -->
<!DOCTYPE svg PUBLIC "-//W3C//DTD SVG 1.1//EN" "http://www.w3.org/Graphics/SVG/1.1/DTD/svg11.dtd">
<svg version="1.1" xmlns="http://www.w3.org/2000/svg" xmlns:xlink="http://www.w3.org/1999/xlink" width="48" height="48" viewBox="0 0 48 48">
<path d="M44.897 18h-2.691c-1.648 0-3.093-1.394-3.206-3v0c0-8.563-6.903-15-15.524-15h-7.867c-8.616 0-15.602 6.938-15.609 15.5v17.006c0 8.562 6.992 15.494 15.608 15.494h16.801c8.623 0 15.59-6.932 15.59-15.494v-10.987c0-1.711-1.38-3.52-3.103-3.52zM15 12h9c1.65 0 3 1.35 3 3s-1.35 3-3 3h-9c-1.65 0-3-1.35-3-3s1.35-3 3-3zM33 36h-18c-1.65 0-3-1.35-3-3s1.35-3 3-3h18c1.65 0 3 1.35 3 3s-1.35 3-3 3z" fill="#444444"></path>
</svg>
