<?xml version="1.0" encoding="utf-8"?>
<!-- Generated by IcoMoon.io -->
<!DOCTYPE svg PUBLIC "-//W3C//DTD SVG 1.1//EN" "http://www.w3.org/Graphics/SVG/1.1/DTD/svg11.dtd">
<svg version="1.1" xmlns="http://www.w3.org/2000/svg" xmlns:xlink="http://www.w3.org/1999/xlink" width="48" height="48" viewBox="0 0 48 48">
<path d="M40.001 0h-32.002c-4.417 0-8 3.582-8 8.001v31.999c0 4.419 3.581 8.001 8 8.001h32.002c4.418 0 7.999-3.582 7.999-8.001v-31.999c0-4.418-3.581-8.001-7.999-8.001zM42 30.38c0 6.422-5.226 11.62-11.693 11.62h-12.601c-6.462 0-11.707-5.199-11.707-11.62v-12.755c0.005-6.422 5.244-11.625 11.707-11.625h5.9c6.466 0 11.644 4.828 11.644 11.25 0.085 1.205 1.169 2.25 2.405 2.25h2.018c1.292 0 2.327 1.356 2.327 2.64v8.24zM33 30c0 1.65-1.35 3-3 3h-12c-1.65 0-3-1.35-3-3v0c0-1.65 1.35-3 3-3h12c1.65 0 3 1.35 3 3v0zM27 18c0 1.65-1.35 3-3 3h-6c-1.65 0-3-1.35-3-3v0c0-1.65 1.35-3 3-3h6c1.65 0 3 1.35 3 3v0z" fill="#444444"></path>
</svg>
