<?xml version="1.0" encoding="utf-8"?>
<!-- Generated by IcoMoon.io -->
<!DOCTYPE svg PUBLIC "-//W3C//DTD SVG 1.1//EN" "http://www.w3.org/Graphics/SVG/1.1/DTD/svg11.dtd">
<svg version="1.1" xmlns="http://www.w3.org/2000/svg" xmlns:xlink="http://www.w3.org/1999/xlink" width="48" height="48" viewBox="0 0 48 48">
<path d="M28 14c1.1 0 2-0.9 2-2s-0.9-2-2-2-2 0.9-2 2 0.9 2 2 2zM27.6 22.96c0.13 0.020 0.26 0.040 0.4 0.040 1.66 0 3-1.34 3-3s-1.34-3-3-3-3 1.34-3 3c0 0.14 0.020 0.27 0.040 0.41 0.18 1.32 1.23 2.37 2.56 2.55zM28 7c0.55 0 1-0.45 1-1s-0.45-1-1-1-1 0.45-1 1 0.45 1 1 1zM20 7c0.55 0 1-0.45 1-1s-0.45-1-1-1-1 0.45-1 1 0.45 1 1 1zM42 21c0.55 0 1-0.45 1-1s-0.45-1-1-1-1 0.45-1 1 0.45 1 1 1zM20 14c1.1 0 2-0.9 2-2s-0.9-2-2-2-2 0.9-2 2 0.9 2 2 2zM36 30c1.1 0 2-0.9 2-2s-0.9-2-2-2-2 0.9-2 2 0.9 2 2 2zM36 22c1.1 0 2-0.9 2-2s-0.9-2-2-2-2 0.9-2 2 0.9 2 2 2zM36 14c1.1 0 2-0.9 2-2s-0.9-2-2-2-2 0.9-2 2 0.9 2 2 2zM28 41c-0.55 0-1 0.45-1 1s0.45 1 1 1 1-0.45 1-1-0.45-1-1-1zM5 10.55l7.57 7.57c-0.19-0.060-0.37-0.12-0.57-0.12-1.1 0-2 0.9-2 2s0.9 2 2 2 2-0.9 2-2c0-0.2-0.060-0.38-0.11-0.57l5.62 5.62c-1.43 0.24-2.51 1.46-2.51 2.95 0 1.66 1.34 3 3 3 1.49 0 2.71-1.080 2.95-2.5l5.62 5.62c-0.18-0.060-0.37-0.12-0.57-0.12-1.1 0-2 0.9-2 2s0.9 2 2 2 2-0.9 2-2c0-0.2-0.060-0.38-0.11-0.57l7.56 7.57 2.55-2.55-32.45-32.45-2.55 2.55zM20 34c-1.1 0-2 0.9-2 2s0.9 2 2 2 2-0.9 2-2-0.9-2-2-2zM42 27c-0.55 0-1 0.45-1 1s0.45 1 1 1 1-0.45 1-1-0.45-1-1-1zM12 26c-1.1 0-2 0.9-2 2s0.9 2 2 2 2-0.9 2-2-0.9-2-2-2zM6 19c-0.55 0-1 0.45-1 1s0.45 1 1 1 1-0.45 1-1-0.45-1-1-1zM20 41c-0.55 0-1 0.45-1 1s0.45 1 1 1 1-0.45 1-1-0.45-1-1-1zM12 34c-1.1 0-2 0.9-2 2s0.9 2 2 2 2-0.9 2-2-0.9-2-2-2zM6 27c-0.55 0-1 0.45-1 1s0.45 1 1 1 1-0.45 1-1-0.45-1-1-1z" fill="#444444"></path>
</svg>
