<?xml version="1.0" encoding="utf-8"?>
<!-- Generated by IcoMoon.io -->
<!DOCTYPE svg PUBLIC "-//W3C//DTD SVG 1.1//EN" "http://www.w3.org/Graphics/SVG/1.1/DTD/svg11.dtd">
<svg version="1.1" xmlns="http://www.w3.org/2000/svg" xmlns:xlink="http://www.w3.org/1999/xlink" width="54" height="48" viewBox="0 0 54 48">
<path d="M10.5 6h-9c-0.825 0-1.5 0.675-1.5 1.5v33c0 0.825 0.675 1.5 1.5 1.5h9c0.825 0 1.5-0.675 1.5-1.5v-33c0-0.825-0.675-1.5-1.5-1.5zM9 15h-6v-3h6v3z" fill="#444444"></path>
<path d="M25.5 6h-9c-0.825 0-1.5 0.675-1.5 1.5v33c0 0.825 0.675 1.5 1.5 1.5h9c0.825 0 1.5-0.675 1.5-1.5v-33c0-0.825-0.675-1.5-1.5-1.5zM24 15h-6v-3h6v3z" fill="#444444"></path>
<path d="M35.864 8.319l-8.037 4.050c-0.736 0.371-1.036 1.278-0.665 2.015l13.499 26.792c0.371 0.736 1.278 1.036 2.014 0.665l8.038-4.050c0.736-0.371 1.036-1.278 0.664-2.014l-13.499-26.791c-0.371-0.736-1.278-1.036-2.014-0.665z" fill="#444444"></path>
<path d="M43.5 40.5c0 0.829-0.671 1.5-1.5 1.5s-1.5-0.671-1.5-1.5c0-0.829 0.671-1.5 1.5-1.5s1.5 0.671 1.5 1.5z" fill="#444444"></path>
</svg>
