<?xml version="1.0" encoding="utf-8"?>
<!-- Generated by IcoMoon.io -->
<!DOCTYPE svg PUBLIC "-//W3C//DTD SVG 1.1//EN" "http://www.w3.org/Graphics/SVG/1.1/DTD/svg11.dtd">
<svg version="1.1" xmlns="http://www.w3.org/2000/svg" xmlns:xlink="http://www.w3.org/1999/xlink" width="48" height="48" viewBox="0 0 48 48">
<path d="M42 6v39h-31.5c-2.486 0-4.5-2.014-4.5-4.5s2.014-4.5 4.5-4.5h28.5v-36h-30c-3.3 0-6 2.7-6 6v36c0 3.3 2.7 6 6 6h36v-42h-3z" fill="#444444"></path>
<path d="M10.503 39v0c-0.001 0-0.002 0-0.003 0-0.828 0-1.5 0.671-1.5 1.5s0.672 1.5 1.5 1.5c0.001 0 0.002 0 0.003 0v0h28.495v-3h-28.495z" fill="#444444"></path>
</svg>
