<?xml version="1.0" encoding="utf-8"?>
<!-- Generated by IcoMoon.io -->
<!DOCTYPE svg PUBLIC "-//W3C//DTD SVG 1.1//EN" "http://www.w3.org/Graphics/SVG/1.1/DTD/svg11.dtd">
<svg version="1.1" xmlns="http://www.w3.org/2000/svg" xmlns:xlink="http://www.w3.org/1999/xlink" width="54" height="48" viewBox="0 0 54 48">
<path d="M22.5 6c-2.375 0-4.668 0.373-6.815 1.108-2.012 0.688-3.803 1.661-5.321 2.89-2.815 2.278-4.364 5.194-4.364 8.211 0 1.687 0.472 3.325 1.403 4.87 0.97 1.609 2.433 3.084 4.231 4.264 1.427 0.936 2.387 2.435 2.642 4.123 0.042 0.281 0.077 0.563 0.102 0.845 0.128-0.118 0.254-0.24 0.38-0.365 1.132-1.127 2.657-1.749 4.234-1.749 0.25 0 0.503 0.016 0.755 0.048 0.908 0.115 1.834 0.173 2.754 0.173 2.375 0 4.668-0.373 6.815-1.108 2.012-0.688 3.802-1.661 5.32-2.89 2.815-2.278 4.364-5.194 4.364-8.211s-1.55-5.933-4.364-8.211c-1.518-1.229-3.308-2.201-5.32-2.89-2.147-0.735-4.44-1.108-6.815-1.108zM22.5 0v0c12.427 0 22.5 8.152 22.5 18.209s-10.073 18.209-22.5 18.209c-1.193 0-2.365-0.076-3.508-0.221-4.833 4.813-10.414 5.677-15.992 5.803v-1.178c3.012-1.47 5.438-4.147 5.438-7.206 0-0.427-0.033-0.846-0.095-1.256-5.089-3.338-8.342-8.437-8.342-14.151 0-10.056 10.073-18.208 22.5-18.208zM46.688 40.813c0 2.622 1.703 4.917 4.313 6.177v1.010c-4.834-0.109-9.272-0.848-13.459-4.975-0.991 0.124-2.006 0.189-3.041 0.189-4.475 0-8.597-1.208-11.888-3.236 6.782-0.024 13.184-2.196 18.039-6.125 2.447-1.981 4.378-4.304 5.738-6.907 1.442-2.759 2.173-5.699 2.173-8.737 0-0.49-0.021-0.977-0.059-1.461 3.402 2.809 5.497 6.638 5.497 10.86 0 4.898-2.82 9.269-7.23 12.13-0.053 0.351-0.082 0.71-0.082 1.076z" fill="#444444"></path>
</svg>
