<?xml version="1.0" encoding="utf-8"?>
<!-- Generated by IcoMoon.io -->
<!DOCTYPE svg PUBLIC "-//W3C//DTD SVG 1.1//EN" "http://www.w3.org/Graphics/SVG/1.1/DTD/svg11.dtd">
<svg version="1.1" xmlns="http://www.w3.org/2000/svg" xmlns:xlink="http://www.w3.org/1999/xlink" width="48" height="48" viewBox="0 0 48 48">
<path d="M24 9c-2.575 0-5.062 0.406-7.392 1.207-2.189 0.752-4.139 1.816-5.795 3.161-3.103 2.522-4.813 5.765-4.813 9.132 0 1.889 0.524 3.721 1.559 5.445 1.066 1.777 2.671 3.403 4.64 4.699 1.423 0.937 2.381 2.435 2.633 4.12 0.085 0.562 0.137 1.129 0.158 1.694 0.35-0.29 0.692-0.602 1.025-0.936 1.133-1.133 2.662-1.757 4.242-1.757 0.251 0 0.505 0.016 0.758 0.048 0.983 0.125 1.988 0.188 2.985 0.188 2.575 0 5.062-0.406 7.392-1.207 2.189-0.752 4.139-1.816 5.795-3.161 3.103-2.521 4.813-5.765 4.813-9.132s-1.709-6.61-4.813-9.132c-1.656-1.346-3.605-2.409-5.795-3.161-2.33-0.8-4.816-1.207-7.392-1.207zM24 3v0c13.255 0 24 8.731 24 19.5s-10.745 19.5-24 19.5c-1.273 0-2.522-0.081-3.742-0.236-5.155 5.156-11.309 6.080-17.258 6.215v-1.261c3.213-1.574 6-4.441 6-7.718 0-0.457-0.035-0.906-0.101-1.346-5.428-3.575-8.899-9.035-8.899-15.154 0-10.769 10.745-19.5 24-19.5z" fill="#444444"></path>
</svg>
