<?xml version="1.0" encoding="utf-8"?>
<!-- Generated by IcoMoon.io -->
<!DOCTYPE svg PUBLIC "-//W3C//DTD SVG 1.1//EN" "http://www.w3.org/Graphics/SVG/1.1/DTD/svg11.dtd">
<svg version="1.1" xmlns="http://www.w3.org/2000/svg" xmlns:xlink="http://www.w3.org/1999/xlink" width="48" height="48" viewBox="0 0 48 48">
<path d="M24 14c2.21 0 4-1.79 4-4 0-0.75-0.21-1.46-0.57-2.060l-3.43-5.94-3.43 5.94c-0.36 0.6-0.57 1.31-0.57 2.060 0 2.21 1.79 4 4 4zM42 42v-8c0-2.21-1.79-4-4-4h-2v-6c0-2.21-1.79-4-4-4h-6v-4h-4v4h-6c-2.21 0-4 1.79-4 4v6h-2c-2.21 0-4 1.79-4 4v8h-4v4h44v-4h-4z" fill="#444444"></path>
</svg>
