<?xml version="1.0" encoding="utf-8"?>
<!-- Generated by IcoMoon.io -->
<!DOCTYPE svg PUBLIC "-//W3C//DTD SVG 1.1//EN" "http://www.w3.org/Graphics/SVG/1.1/DTD/svg11.dtd">
<svg version="1.1" xmlns="http://www.w3.org/2000/svg" xmlns:xlink="http://www.w3.org/1999/xlink" width="48" height="48" viewBox="0 0 48 48">
<path d="M18 3h-15c-1.65 0-3 1.35-3 3v15c0 1.65 1.35 3 3 3h15c1.65 0 3-1.35 3-3v-15c0-1.65-1.35-3-3-3zM18 15h-15v-3h15v3zM42 3h-15c-1.65 0-3 1.35-3 3v39c0 1.65 1.35 3 3 3h15c1.65 0 3-1.35 3-3v-39c0-1.65-1.35-3-3-3zM42 30h-15v-3h15v3zM42 21h-15v-3h15v3zM18 27h-15c-1.65 0-3 1.35-3 3v15c0 1.65 1.35 3 3 3h15c1.65 0 3-1.35 3-3v-15c0-1.65-1.35-3-3-3zM18 39h-6v6h-3v-6h-6v-3h6v-6h3v6h6v3z" fill="#444444"></path>
</svg>
