<?xml version="1.0" encoding="utf-8"?>
<!-- Generated by IcoMoon.io -->
<!DOCTYPE svg PUBLIC "-//W3C//DTD SVG 1.1//EN" "http://www.w3.org/Graphics/SVG/1.1/DTD/svg11.dtd">
<svg version="1.1" xmlns="http://www.w3.org/2000/svg" xmlns:xlink="http://www.w3.org/1999/xlink" width="48" height="48" viewBox="0 0 48 48">
<path d="M15 18h6v6h-6zM24 18h6v6h-6zM33 18h6v6h-6zM6 36h6v6h-6zM15 36h6v6h-6zM24 36h6v6h-6zM15 27h6v6h-6zM24 27h6v6h-6zM33 27h6v6h-6zM6 27h6v6h-6zM39 0v3h-6v-3h-21v3h-6v-3h-6v48h45v-48h-6zM42 45h-39v-33h39v33z" fill="#444444"></path>
</svg>
