<?xml version="1.0" encoding="utf-8"?>
<!-- Generated by IcoMoon.io -->
<!DOCTYPE svg PUBLIC "-//W3C//DTD SVG 1.1//EN" "http://www.w3.org/Graphics/SVG/1.1/DTD/svg11.dtd">
<svg version="1.1" xmlns="http://www.w3.org/2000/svg" xmlns:xlink="http://www.w3.org/1999/xlink" width="48" height="48" viewBox="0 0 48 48">
<path d="M20 40h-10v4h10v4l6-6-6-6v4zM28 40v4h10v-4h-10zM24 16c2.21 0 4-1.79 4-4s-1.79-4-4-4-3.99 1.79-3.99 4c0.010 2.21 1.78 4 3.99 4zM34 0h-20c-2.21 0-4 1.79-4 4v28c0 2.21 1.79 4 4 4h20c2.21 0 4-1.79 4-4v-28c0-2.21-1.79-4-4-4zM14 4h20v21c0-3.33-6.67-5-10-5s-10 1.67-10 5v-21z" fill="#444444"></path>
</svg>
