<?xml version="1.0" encoding="utf-8"?>
<!-- Generated by IcoMoon.io -->
<!DOCTYPE svg PUBLIC "-//W3C//DTD SVG 1.1//EN" "http://www.w3.org/Graphics/SVG/1.1/DTD/svg11.dtd">
<svg version="1.1" xmlns="http://www.w3.org/2000/svg" xmlns:xlink="http://www.w3.org/1999/xlink" width="48" height="48" viewBox="0 0 48 48">
<path d="M14.25 28.5c0 5.385 4.365 9.75 9.75 9.75s9.75-4.365 9.75-9.75-4.365-9.75-9.75-9.75-9.75 4.365-9.75 9.75zM45 12h-10.5c-0.75-3-1.5-6-4.5-6h-12c-3 0-3.75 3-4.5 6h-10.5c-1.65 0-3 1.35-3 3v27c0 1.65 1.35 3 3 3h42c1.65 0 3-1.35 3-3v-27c0-1.65-1.35-3-3-3zM24 41.813c-7.352 0-13.313-5.96-13.313-13.313s5.96-13.313 13.313-13.313c7.352 0 13.313 5.96 13.313 13.313s-5.96 13.313-13.313 13.313zM45 21h-6v-3h6v3z" fill="#444444"></path>
</svg>
