<?xml version="1.0" encoding="utf-8"?>
<!-- Generated by IcoMoon.io -->
<!DOCTYPE svg PUBLIC "-//W3C//DTD SVG 1.1//EN" "http://www.w3.org/Graphics/SVG/1.1/DTD/svg11.dtd">
<svg version="1.1" xmlns="http://www.w3.org/2000/svg" xmlns:xlink="http://www.w3.org/1999/xlink" width="48" height="48" viewBox="0 0 48 48">
<path d="M18.8 21l9.53-16.51c-1.39-0.31-2.84-0.49-4.33-0.49-4.8 0-9.19 1.69-12.64 4.51l7.33 12.69 0.11-0.2zM43.080 18c-1.84-5.85-6.3-10.52-11.99-12.68l-7.32 12.68h19.31zM43.6 20h-14.98l0.58 1 9.53 16.5c3.26-3.56 5.27-8.29 5.27-13.5 0-1.37-0.14-2.71-0.4-4zM17.070 24l-7.8-13.5c-3.26 3.56-5.27 8.29-5.27 13.5 0 1.37 0.14 2.71 0.4 4h14.98l-2.31-4zM4.92 30c1.84 5.85 6.3 10.52 11.99 12.68l7.32-12.68h-19.31zM27.46 30l-7.8 13.51c1.4 0.31 2.85 0.49 4.34 0.49 4.8 0 9.19-1.69 12.64-4.51l-7.33-12.69-1.85 3.2z" fill="#444444"></path>
</svg>
