<?xml version="1.0" encoding="utf-8"?>
<!-- Generated by IcoMoon.io -->
<!DOCTYPE svg PUBLIC "-//W3C//DTD SVG 1.1//EN" "http://www.w3.org/Graphics/SVG/1.1/DTD/svg11.dtd">
<svg version="1.1" xmlns="http://www.w3.org/2000/svg" xmlns:xlink="http://www.w3.org/1999/xlink" width="48" height="48" viewBox="0 0 48 48">
<path d="M30.4 24c0 3.535-2.866 6.4-6.4 6.4s-6.4-2.866-6.4-6.4c0-3.535 2.865-6.4 6.4-6.4s6.4 2.865 6.4 6.4z" fill="#444444"></path>
<path d="M18 4l-3.66 4h-6.34c-2.21 0-4 1.79-4 4v24c0 2.21 1.79 4 4 4h32c2.21 0 4-1.79 4-4v-24c0-2.21-1.79-4-4-4h-6.34l-3.66-4h-12zM24 34c-5.52 0-10-4.48-10-10s4.48-10 10-10 10 4.48 10 10-4.48 10-10 10z" fill="#444444"></path>
</svg>
