<?xml version="1.0" encoding="utf-8"?>
<!-- Generated by IcoMoon.io -->
<!DOCTYPE svg PUBLIC "-//W3C//DTD SVG 1.1//EN" "http://www.w3.org/Graphics/SVG/1.1/DTD/svg11.dtd">
<svg version="1.1" xmlns="http://www.w3.org/2000/svg" xmlns:xlink="http://www.w3.org/1999/xlink" width="48" height="48" viewBox="0 0 48 48">
<path d="M28 10c0-2.21-1.79-4-4-4h-2v-2c0-1.1-0.9-2-2-2h-8c-1.1 0-2 0.9-2 2v2h-2c-2.21 0-4 1.79-4 4v30c0 2.21 1.79 4 4 4h16c2.21 0 4-1.79 4-4h16v-30h-16zM24 36h-4v-4h4v4zM24 18h-4v-4h4v4zM32 36h-4v-4h4v4zM32 18h-4v-4h4v4zM40 36h-4v-4h4v4zM40 18h-4v-4h4v4z" fill="#444444"></path>
</svg>
