<?xml version="1.0" encoding="utf-8"?>
<!-- Generated by IcoMoon.io -->
<!DOCTYPE svg PUBLIC "-//W3C//DTD SVG 1.1//EN" "http://www.w3.org/Graphics/SVG/1.1/DTD/svg11.dtd">
<svg version="1.1" xmlns="http://www.w3.org/2000/svg" xmlns:xlink="http://www.w3.org/1999/xlink" width="48" height="48" viewBox="0 0 48 48">
<path d="M18 43.5c0 2.486-2.014 4.5-4.5 4.5s-4.5-2.014-4.5-4.5c0-2.486 2.014-4.5 4.5-4.5s4.5 2.014 4.5 4.5z" fill="#444444"></path>
<path d="M48 43.5c0 2.486-2.014 4.5-4.5 4.5s-4.5-2.014-4.5-4.5c0-2.486 2.014-4.5 4.5-4.5s4.5 2.014 4.5 4.5z" fill="#444444"></path>
<path d="M48 24v-18h-36c0-1.657-1.343-3-3-3h-9v3h6l2.254 19.315c-1.373 1.1-2.254 2.789-2.254 4.685 0 3.314 2.686 6 6 6h36v-3h-36c-1.657 0-3-1.343-3-3 0-0.011 0.001-0.020 0.001-0.031l38.999-5.969z" fill="#444444"></path>
</svg>
