<?xml version="1.0" encoding="utf-8"?>
<!-- Generated by IcoMoon.io -->
<!DOCTYPE svg PUBLIC "-//W3C//DTD SVG 1.1//EN" "http://www.w3.org/Graphics/SVG/1.1/DTD/svg11.dtd">
<svg version="1.1" xmlns="http://www.w3.org/2000/svg" xmlns:xlink="http://www.w3.org/1999/xlink" width="48" height="48" viewBox="0 0 48 48">
<path d="M24 16c-4.42 0-8 3.58-8 8s3.58 8 8 8 8-3.58 8-8-3.58-8-8-8zM10 30h-4v8c0 2.21 1.79 4 4 4h8v-4h-8v-8zM10 10h8v-4h-8c-2.21 0-4 1.79-4 4v8h4v-8zM38 6h-8v4h8v8h4v-8c0-2.21-1.79-4-4-4zM38 38h-8v4h8c2.21 0 4-1.79 4-4v-8h-4v8z" fill="#444444"></path>
</svg>
