<?xml version="1.0" encoding="utf-8"?>
<!-- Generated by IcoMoon.io -->
<!DOCTYPE svg PUBLIC "-//W3C//DTD SVG 1.1//EN" "http://www.w3.org/Graphics/SVG/1.1/DTD/svg11.dtd">
<svg version="1.1" xmlns="http://www.w3.org/2000/svg" xmlns:xlink="http://www.w3.org/1999/xlink" width="48" height="48" viewBox="0 0 48 48">
<path d="M12.107 20.932l-6.869-11.897c4.398-5.506 11.168-9.034 18.762-9.034 8.786 0 16.468 4.722 20.65 11.766h-19.583c-0.352-0.031-0.707-0.047-1.067-0.047-5.713 0-10.527 3.921-11.893 9.213zM32.593 15.235h13.756c1.066 2.716 1.651 5.672 1.651 8.766 0 13.164-10.598 23.85-23.728 23.996l9.815-17c1.382-1.987 2.194-4.398 2.194-6.996 0-3.43-1.414-6.535-3.688-8.766zM15.281 24c0-4.808 3.911-8.719 8.719-8.719s8.719 3.911 8.719 8.719c0 4.807-3.911 8.719-8.719 8.719s-8.719-3.911-8.719-8.719zM27.29 35.834l-6.871 11.9c-11.556-1.729-20.419-11.696-20.419-23.734 0-4.276 1.12-8.29 3.079-11.767l9.798 16.971c1.963 4.177 6.21 7.077 11.122 7.077 1.139 0 2.242-0.157 3.29-0.448z" fill="#444444"></path>
</svg>
