<?xml version="1.0" encoding="utf-8"?>
<!-- Generated by IcoMoon.io -->
<!DOCTYPE svg PUBLIC "-//W3C//DTD SVG 1.1//EN" "http://www.w3.org/Graphics/SVG/1.1/DTD/svg11.dtd">
<svg version="1.1" xmlns="http://www.w3.org/2000/svg" xmlns:xlink="http://www.w3.org/1999/xlink" width="48" height="48" viewBox="0 0 48 48">
<path d="M38.71 20.070c-1.36-6.88-7.43-12.070-14.71-12.070-2.95 0-5.7 0.87-8.020 2.34l2.92 2.92c1.53-0.79 3.26-1.26 5.1-1.26 6.080 0 11 4.92 11 11v1h3c3.31 0 6 2.69 6 6 0 2.27-1.27 4.22-3.13 5.24l2.9 2.9c2.55-1.81 4.23-4.77 4.23-8.14 0-5.28-4.11-9.56-9.29-9.93zM6 10.55l5.5 5.48c-6.38 0.27-11.5 5.52-11.5 11.97 0 6.63 5.37 12 12 12h23.45l4 4 2.55-2.54-33.45-33.46-2.55 2.55zM15.45 20l16 16h-19.45c-4.42 0-8-3.58-8-8s3.58-8 8-8h3.45z" fill="#444444"></path>
</svg>
