<?xml version="1.0" encoding="utf-8"?>
<!-- Generated by IcoMoon.io -->
<!DOCTYPE svg PUBLIC "-//W3C//DTD SVG 1.1//EN" "http://www.w3.org/Graphics/SVG/1.1/DTD/svg11.dtd">
<svg version="1.1" xmlns="http://www.w3.org/2000/svg" xmlns:xlink="http://www.w3.org/1999/xlink" width="48" height="48" viewBox="0 0 48 48">
<path d="M24 4c-11.050 0-20 8.95-20 20s8.95 20 20 20 20-8.95 20-20-8.95-20-20-20zM33 32h-17c-3.31 0-6-2.69-6-6s2.69-6 6-6l0.27 0.030c0.89-3.46 4-6.030 7.73-6.030 4.42 0 8 3.58 8 8h1c2.76 0 5 2.24 5 5s-2.24 5-5 5z" fill="#444444"></path>
</svg>
