<?xml version="1.0" encoding="utf-8"?>
<!-- Generated by IcoMoon.io -->
<!DOCTYPE svg PUBLIC "-//W3C//DTD SVG 1.1//EN" "http://www.w3.org/Graphics/SVG/1.1/DTD/svg11.dtd">
<svg version="1.1" xmlns="http://www.w3.org/2000/svg" xmlns:xlink="http://www.w3.org/1999/xlink" width="48" height="48" viewBox="0 0 48 48">
<path d="M38.71 20.070c-1.36-6.88-7.43-12.070-14.71-12.070-5.78 0-10.79 3.28-13.3 8.070-6.010 0.65-10.7 5.74-10.7 11.93 0 6.63 5.37 12 12 12h26c5.52 0 10-4.48 10-10 0-5.28-4.11-9.56-9.29-9.93zM38 36h-26c-4.42 0-8-3.58-8-8s3.58-8 8-8h1.42c1.31-4.61 5.54-8 10.58-8 6.080 0 11 4.92 11 11v1h3c3.31 0 6 2.69 6 6s-2.69 6-6 6z" fill="#444444"></path>
</svg>
