<?xml version="1.0" encoding="utf-8"?>
<!-- Generated by IcoMoon.io -->
<!DOCTYPE svg PUBLIC "-//W3C//DTD SVG 1.1//EN" "http://www.w3.org/Graphics/SVG/1.1/DTD/svg11.dtd">
<svg version="1.1" xmlns="http://www.w3.org/2000/svg" xmlns:xlink="http://www.w3.org/1999/xlink" width="48" height="48" viewBox="0 0 48 48">
<path d="M44.332 17.252l-21-14c-0.504-0.336-1.16-0.336-1.664 0l-21 14c-0.417 0.278-0.668 0.746-0.668 1.248v14c0 0.502 0.251 0.97 0.668 1.248l21 14c0.252 0.168 0.542 0.252 0.832 0.252s0.58-0.084 0.832-0.252l21-14c0.417-0.278 0.668-0.746 0.668-1.248v-14c0-0.502-0.251-0.97-0.668-1.248zM22.5 30.697l-7.796-5.197 7.796-5.197 7.796 5.197-7.796 5.197zM24 17.697v-10.394l16.795 11.198-7.795 5.197-9-6zM21 17.697l-9 6-7.796-5.197 16.796-11.198v10.394zM9.296 25.5l-6.296 4.197v-8.395l6.296 4.197zM12 27.303l9 6v10.394l-16.796-11.197 7.796-5.198zM24 33.303l9-6 7.796 5.197-16.796 11.197v-10.394zM35.704 25.5l6.296-4.197v8.395l-6.296-4.197z" fill="#444444"></path>
</svg>
