<?xml version="1.0" encoding="utf-8"?>
<!-- Generated by IcoMoon.io -->
<!DOCTYPE svg PUBLIC "-//W3C//DTD SVG 1.1//EN" "http://www.w3.org/Graphics/SVG/1.1/DTD/svg11.dtd">
<svg version="1.1" xmlns="http://www.w3.org/2000/svg" xmlns:xlink="http://www.w3.org/1999/xlink" width="48" height="48" viewBox="0 0 48 48">
<path d="M22.5 3c-12.427 0-22.5 10.073-22.5 22.5s10.073 22.5 22.5 22.5c12.427 0 22.5-10.073 22.5-22.5s-10.073-22.5-22.5-22.5zM22.5 43.5c-9.941 0-18-8.059-18-18s8.059-18 18-18c9.941 0 18 8.059 18 18s-8.059 18-18 18z" fill="#444444"></path>
<path d="M28.5 27c0.829 0 1.5-0.671 1.5-1.5s-0.671-1.5-1.5-1.5h-3.197l4.445-6.668c0.46-0.689 0.273-1.621-0.416-2.080s-1.621-0.273-2.080 0.416l-4.752 7.128-4.752-7.128c-0.46-0.689-1.391-0.876-2.080-0.416s-0.875 1.391-0.416 2.080l4.445 6.668h-3.197c-0.829 0-1.5 0.671-1.5 1.5s0.671 1.5 1.5 1.5h4.5v3h-4.5c-0.829 0-1.5 0.671-1.5 1.5s0.671 1.5 1.5 1.5h4.5v4.5c0 0.829 0.671 1.5 1.5 1.5s1.5-0.671 1.5-1.5v-4.5h4.5c0.829 0 1.5-0.671 1.5-1.5s-0.671-1.5-1.5-1.5h-4.5v-3h4.5z" fill="#444444"></path>
</svg>
