<?xml version="1.0" encoding="utf-8"?>
<!-- Generated by IcoMoon.io -->
<!DOCTYPE svg PUBLIC "-//W3C//DTD SVG 1.1//EN" "http://www.w3.org/Graphics/SVG/1.1/DTD/svg11.dtd">
<svg version="1.1" xmlns="http://www.w3.org/2000/svg" xmlns:xlink="http://www.w3.org/1999/xlink" width="48" height="48" viewBox="0 0 48 48">
<path d="M22.5 3c-12.427 0-22.5 10.073-22.5 22.5s10.073 22.5 22.5 22.5c12.427 0 22.5-10.073 22.5-22.5s-10.073-22.5-22.5-22.5zM22.5 43.5c-9.941 0-18-8.059-18-18s8.059-18 18-18c9.941 0 18 8.059 18 18s-8.059 18-18 18zM24 24v-6h6v-3h-6v-3h-3v3h-6v12h6v6h-6v3h6v3h3v-3h6v-12h-6zM21 24h-3v-6h3v6zM27 33h-3v-6h3v6z" fill="#444444"></path>
</svg>
