<?xml version="1.0" encoding="utf-8"?>
<!-- Generated by IcoMoon.io -->
<!DOCTYPE svg PUBLIC "-//W3C//DTD SVG 1.1//EN" "http://www.w3.org/Graphics/SVG/1.1/DTD/svg11.dtd">
<svg version="1.1" xmlns="http://www.w3.org/2000/svg" xmlns:xlink="http://www.w3.org/1999/xlink" width="48" height="48" viewBox="0 0 48 48">
<path d="M22.5 3c-12.427 0-22.5 10.073-22.5 22.5s10.073 22.5 22.5 22.5c12.427 0 22.5-10.073 22.5-22.5s-10.073-22.5-22.5-22.5zM22.5 43.5c-9.941 0-18-8.059-18-18s8.059-18 18-18c9.941 0 18 8.059 18 18s-8.059 18-18 18z" fill="#444444"></path>
<path d="M31.445 30.203c-0.716-0.416-1.634-0.174-2.051 0.542-0.809 1.39-2.301 2.255-3.894 2.255h-6c-1.955 0-3.622-1.254-4.242-3h7.242c0.829 0 1.5-0.671 1.5-1.5s-0.671-1.5-1.5-1.5h-7.5v-3h7.5c0.829 0 1.5-0.671 1.5-1.5s-0.671-1.5-1.5-1.5h-7.242c0.62-1.746 2.287-3 4.242-3h6c1.593 0 3.085 0.864 3.894 2.255 0.417 0.716 1.335 0.959 2.051 0.542s0.959-1.335 0.542-2.051c-1.344-2.311-3.83-3.745-6.487-3.745h-6c-3.622 0-6.652 2.581-7.349 6h-1.651c-0.828 0-1.5 0.671-1.5 1.5s0.672 1.5 1.5 1.5h1.5v3h-1.5c-0.828 0-1.5 0.671-1.5 1.5s0.672 1.5 1.5 1.5h1.651c0.697 3.419 3.727 6 7.349 6h6c2.657 0 5.143-1.436 6.487-3.745 0.417-0.716 0.174-1.634-0.542-2.050z" fill="#444444"></path>
</svg>
