<?xml version="1.0" encoding="utf-8"?>
<!-- Generated by IcoMoon.io -->
<!DOCTYPE svg PUBLIC "-//W3C//DTD SVG 1.1//EN" "http://www.w3.org/Graphics/SVG/1.1/DTD/svg11.dtd">
<svg version="1.1" xmlns="http://www.w3.org/2000/svg" xmlns:xlink="http://www.w3.org/1999/xlink" width="48" height="48" viewBox="0 0 48 48">
<path d="M22.5 3c-12.427 0-22.5 10.073-22.5 22.5s10.073 22.5 22.5 22.5c12.427 0 22.5-10.073 22.5-22.5s-10.073-22.5-22.5-22.5zM22.5 43.5c-9.941 0-18-8.059-18-18s8.059-18 18-18c9.941 0 18 8.059 18 18s-8.059 18-18 18z" fill="#444444"></path>
<path d="M28.5 33h-10.5v-6h4.5c0.829 0 1.5-0.671 1.5-1.5s-0.671-1.5-1.5-1.5h-4.5v-1.5c0-2.481 2.019-4.5 4.5-4.5 1.602 0 3.096 0.862 3.899 2.252 0.415 0.717 1.333 0.962 2.050 0.547s0.962-1.332 0.547-2.050c-1.338-2.313-3.827-3.749-6.496-3.749-4.136 0-7.5 3.364-7.5 7.5v1.5h-1.5c-0.829 0-1.5 0.671-1.5 1.5s0.671 1.5 1.5 1.5h1.5v9h13.5c0.829 0 1.5-0.671 1.5-1.5s-0.671-1.5-1.5-1.5z" fill="#444444"></path>
</svg>
