<?xml version="1.0" encoding="utf-8"?>
<!-- Generated by IcoMoon.io -->
<!DOCTYPE svg PUBLIC "-//W3C//DTD SVG 1.1//EN" "http://www.w3.org/Graphics/SVG/1.1/DTD/svg11.dtd">
<svg version="1.1" xmlns="http://www.w3.org/2000/svg" xmlns:xlink="http://www.w3.org/1999/xlink" width="48" height="48" viewBox="0 0 48 48">
<path d="M25.501 48c-0.108 0-0.217-0.012-0.325-0.036-0.687-0.152-1.175-0.761-1.175-1.465v-22.5h-22.5c-0.704 0-1.313-0.488-1.464-1.175s0.193-1.387 0.83-1.684l45-21c0.572-0.266 1.249-0.148 1.695 0.298s0.566 1.123 0.299 1.695l-21 45c-0.251 0.536-0.786 0.866-1.359 0.866zM8.261 21h17.239c0.829 0 1.5 0.671 1.5 1.5v17.239l16.396-35.135-35.135 16.396z" fill="#444444"></path>
</svg>
