<?xml version="1.0" encoding="utf-8"?>
<!-- Generated by IcoMoon.io -->
<!DOCTYPE svg PUBLIC "-//W3C//DTD SVG 1.1//EN" "http://www.w3.org/Graphics/SVG/1.1/DTD/svg11.dtd">
<svg version="1.1" xmlns="http://www.w3.org/2000/svg" xmlns:xlink="http://www.w3.org/1999/xlink" width="48" height="48" viewBox="0 0 48 48">
<path d="M38 4h-8.37c-0.82-2.32-3.020-4-5.63-4s-4.81 1.68-5.63 4h-8.37c-2.21 0-4 1.79-4 4v32c0 2.21 1.79 4 4 4h28c2.21 0 4-1.79 4-4v-32c0-2.21-1.79-4-4-4zM24 4c1.1 0 2 0.89 2 2s-0.9 2-2 2-2-0.89-2-2 0.9-2 2-2zM38 40h-28v-32h4v6h20v-6h4v32z" fill="#444444"></path>
</svg>
