<?xml version="1.0" encoding="utf-8"?>
<!-- Generated by IcoMoon.io -->
<!DOCTYPE svg PUBLIC "-//W3C//DTD SVG 1.1//EN" "http://www.w3.org/Graphics/SVG/1.1/DTD/svg11.dtd">
<svg version="1.1" xmlns="http://www.w3.org/2000/svg" xmlns:xlink="http://www.w3.org/1999/xlink" width="48" height="48" viewBox="0 0 48 48">
<path d="M32 16h-4v6h-6v4h6v6h4v-6h6v-4h-6zM4 24c0-5.58 3.29-10.39 8.020-12.64v-4.31c-6.99 2.46-12.020 9.12-12.020 16.95s5.030 14.49 12.020 16.95v-4.31c-4.73-2.25-8.020-7.060-8.020-12.64zM30 6c-9.93 0-18 8.070-18 18s8.070 18 18 18 18-8.070 18-18-8.070-18-18-18zM30 38c-7.72 0-14-6.28-14-14s6.28-14 14-14 14 6.28 14 14-6.28 14-14 14z" fill="#444444"></path>
</svg>
