<?xml version="1.0" encoding="utf-8"?>
<!-- Generated by IcoMoon.io -->
<!DOCTYPE svg PUBLIC "-//W3C//DTD SVG 1.1//EN" "http://www.w3.org/Graphics/SVG/1.1/DTD/svg11.dtd">
<svg version="1.1" xmlns="http://www.w3.org/2000/svg" xmlns:xlink="http://www.w3.org/1999/xlink" width="48" height="48" viewBox="0 0 48 48">
<path d="M40 0h-32v4h32v-4zM8 48h32v-4h-32v4zM40 8h-32c-2.21 0-4 1.79-4 4v24c0 2.21 1.79 4 4 4h32c2.21 0 4-1.79 4-4v-24c0-2.21-1.79-4-4-4zM24 13.5c2.48 0 4.5 2.020 4.5 4.5 0 2.49-2.020 4.5-4.5 4.5s-4.5-2.010-4.5-4.5c0-2.48 2.020-4.5 4.5-4.5zM34 34h-20v-3c0-3.33 6.67-5 10-5s10 1.67 10 5v3z" fill="#444444"></path>
</svg>
