<?xml version="1.0" encoding="utf-8"?>
<!-- Generated by IcoMoon.io -->
<!DOCTYPE svg PUBLIC "-//W3C//DTD SVG 1.1//EN" "http://www.w3.org/Graphics/SVG/1.1/DTD/svg11.dtd">
<svg version="1.1" xmlns="http://www.w3.org/2000/svg" xmlns:xlink="http://www.w3.org/1999/xlink" width="48" height="48" viewBox="0 0 48 48">
<path d="M43.5 6h-39c-2.475 0-4.5 2.025-4.5 4.5v27c0 2.475 2.025 4.5 4.5 4.5h39c2.475 0 4.5-2.025 4.5-4.5v-27c0-2.475-2.025-4.5-4.5-4.5zM4.5 9h39c0.813 0 1.5 0.687 1.5 1.5v4.5h-42v-4.5c0-0.813 0.687-1.5 1.5-1.5zM43.5 39h-39c-0.813 0-1.5-0.687-1.5-1.5v-13.5h42v13.5c0 0.813-0.687 1.5-1.5 1.5zM6 30h3v6h-3zM12 30h3v6h-3zM18 30h3v6h-3z" fill="#444444"></path>
</svg>
