<?xml version="1.0" encoding="utf-8"?>
<!-- Generated by IcoMoon.io -->
<!DOCTYPE svg PUBLIC "-//W3C//DTD SVG 1.1//EN" "http://www.w3.org/Graphics/SVG/1.1/DTD/svg11.dtd">
<svg version="1.1" xmlns="http://www.w3.org/2000/svg" xmlns:xlink="http://www.w3.org/1999/xlink" width="48" height="48" viewBox="0 0 48 48">
<path d="M40.002 0h-32.001c-4.4 0-8.001 3.601-8.001 8.001v31.998c0 4.403 3.601 8.001 8.001 8.001h32.001c4.4 0 7.998-3.598 7.998-8.001v-31.998c0-4.4-3.598-8.001-7.998-8.001zM45 39.999c0 1.328-0.522 2.582-1.471 3.53s-2.201 1.471-3.527 1.471h-16.002v-21h-21v-15.999c0-1.327 0.523-2.581 1.471-3.53s2.202-1.471 3.529-1.471h15.999v21h21v15.999z" fill="#444444"></path>
</svg>
