<?xml version="1.0" encoding="utf-8"?>
<!-- Generated by IcoMoon.io -->
<!DOCTYPE svg PUBLIC "-//W3C//DTD SVG 1.1//EN" "http://www.w3.org/Graphics/SVG/1.1/DTD/svg11.dtd">
<svg version="1.1" xmlns="http://www.w3.org/2000/svg" xmlns:xlink="http://www.w3.org/1999/xlink" width="48" height="48" viewBox="0 0 48 48">
<path d="M26.337 19.078c-1.83-0.107-3.941 0.002-6.387 0.419l5.641 10.166 22.409-6.153c-0.242-0.574-0.595-1.136-1.062-1.678-2.319-2.685-7.347-5.080-12.825-6.161v-0.001c-5.374-1.26-11.194-1.207-17.154-0.307-0.215 0.032-0.429 0.067-0.641 0.103l-1.981-3.67c-1.928 0.257-3.741 0.659-5.419 1.194l1.887 3.947c-3.082 1.194-5.612 2.895-7.437 4.942-3.010 3.425-4.199 7.73-2.754 11.923 0.291 0.846 0.684 1.648 1.169 2.4l22.409-6.154-6.223-11.524c0.214-0.041 0.431-0.082 0.652-0.123 10.063-1.795 15.567 0.978 18.582 3.929l-7.667 1.858-3.199-5.111zM8.19 29.362c-0.691-3.157-0.141-6.681 4.238-9.028l3.428 7.169-7.666 1.858z" fill="#444444"></path>
</svg>
