<?xml version="1.0" encoding="utf-8"?>
<!-- Generated by IcoMoon.io -->
<!DOCTYPE svg PUBLIC "-//W3C//DTD SVG 1.1//EN" "http://www.w3.org/Graphics/SVG/1.1/DTD/svg11.dtd">
<svg version="1.1" xmlns="http://www.w3.org/2000/svg" xmlns:xlink="http://www.w3.org/1999/xlink" width="48" height="48" viewBox="0 0 48 48">
<path d="M39.938 0h-31.875c-4.434 0-8.063 3.628-8.063 8.063v31.875c0 4.435 3.628 8.063 8.063 8.063h31.875c4.435 0 8.063-3.628 8.063-8.063v-31.875c0-4.434-3.628-8.063-8.063-8.063zM45 36h-18v-11.063c0 0 3.297 0.047 5.063 1.875v3.188h7.238c-0.554-1.776-1.738-3.521-3.428-4.999-2.906-2.542-7.65-3.813-11.873-3.813v14.812h-21v-4.5c0-2.034 0.687-4.057 1.986-5.848 1.153-1.59 2.759-2.992 4.775-4.168 2.364-1.379 5.182-2.377 8.239-2.943v-6.541h6v6c6.891 0 10.388 1.237 14.24 3.484 2.015 1.176 3.622 2.578 4.774 4.168 1.299 1.792 1.986 3.814 1.986 5.848v4.5zM9.355 30c0.554-1.776 1.738-3.521 3.428-4.999 1.478-1.294 3.263-2.305 5.216-2.989v7.988h-8.645z" fill="#444444"></path>
</svg>
