<?xml version="1.0" encoding="utf-8"?>
<!-- Generated by IcoMoon.io -->
<!DOCTYPE svg PUBLIC "-//W3C//DTD SVG 1.1//EN" "http://www.w3.org/Graphics/SVG/1.1/DTD/svg11.dtd">
<svg version="1.1" xmlns="http://www.w3.org/2000/svg" xmlns:xlink="http://www.w3.org/1999/xlink" width="48" height="48" viewBox="0 0 48 48">
<path d="M24 4c-11 0-20 9-20 20s9 20 20 20 20-9 20-20-9-20-20-20zM8 24c0-8.8 7.2-16 16-16 3.7 0 7.1 1.3 9.8 3.4l-22.4 22.4c-2.1-2.7-3.4-6.1-3.4-9.8zM24 40c-3.7 0-7.1-1.3-9.8-3.4l22.4-22.4c2.1 2.7 3.4 6.1 3.4 9.8 0 8.8-7.2 16-16 16z" fill="#444444"></path>
</svg>
