<?xml version="1.0" encoding="utf-8"?>
<!-- Generated by IcoMoon.io -->
<!DOCTYPE svg PUBLIC "-//W3C//DTD SVG 1.1//EN" "http://www.w3.org/Graphics/SVG/1.1/DTD/svg11.dtd">
<svg version="1.1" xmlns="http://www.w3.org/2000/svg" xmlns:xlink="http://www.w3.org/1999/xlink" width="48" height="48" viewBox="0 0 48 48">
<path d="M24 4c-11.050 0-20 8.95-20 20s8.95 20 20 20 20-8.95 20-20-8.95-20-20-20zM24 40c-8.84 0-16-7.16-16-16 0-3.7 1.27-7.090 3.37-9.8l22.43 22.43c-2.71 2.1-6.1 3.37-9.8 3.37zM36.63 33.8l-22.43-22.43c2.71-2.1 6.1-3.37 9.8-3.37 8.84 0 16 7.16 16 16 0 3.7-1.27 7.090-3.37 9.8z" fill="#444444"></path>
</svg>
