<?xml version="1.0" encoding="utf-8"?>
<!-- Generated by IcoMoon.io -->
<!DOCTYPE svg PUBLIC "-//W3C//DTD SVG 1.1//EN" "http://www.w3.org/Graphics/SVG/1.1/DTD/svg11.dtd">
<svg version="1.1" xmlns="http://www.w3.org/2000/svg" xmlns:xlink="http://www.w3.org/1999/xlink" width="48" height="48" viewBox="0 0 48 48">
<path d="M24 14v-8h-20v36h40v-28h-20zM12 38h-4v-4h4v4zM12 30h-4v-4h4v4zM12 22h-4v-4h4v4zM12 14h-4v-4h4v4zM20 38h-4v-4h4v4zM20 30h-4v-4h4v4zM20 22h-4v-4h4v4zM20 14h-4v-4h4v4zM40 38h-16v-4h4v-4h-4v-4h4v-4h-4v-4h16v20zM36 22h-4v4h4v-4zM36 30h-4v4h4v-4z" fill="#444444"></path>
</svg>
