<?xml version="1.0" encoding="utf-8"?>
<!-- Generated by IcoMoon.io -->
<!DOCTYPE svg PUBLIC "-//W3C//DTD SVG 1.1//EN" "http://www.w3.org/Graphics/SVG/1.1/DTD/svg11.dtd">
<svg version="1.1" xmlns="http://www.w3.org/2000/svg" xmlns:xlink="http://www.w3.org/1999/xlink" width="48" height="48" viewBox="0 0 48 48">
<path d="M24 48c-13.234 0-24-10.766-24-24s10.766-24 24-24c13.234 0 24 10.766 24 24s-10.766 24-24 24zM44.24 27.285c-0.701-0.221-6.345-1.904-12.77-0.877 2.681 7.368 3.773 13.369 3.982 14.616 4.599-3.109 7.873-8.035 8.787-13.739zM32.008 42.901c-0.305-1.799-1.495-8.067-4.373-15.545-0.045 0.015-0.090 0.030-0.135 0.046-11.563 4.029-15.713 12.047-16.082 12.802 3.476 2.71 7.844 4.327 12.583 4.327 2.839 0 5.546-0.581 8.008-1.629zM8.771 37.738c0.464-0.795 6.091-10.11 16.663-13.528 0.267-0.086 0.536-0.167 0.808-0.244-0.514-1.165-1.075-2.33-1.662-3.479-10.238 3.064-20.171 2.936-21.068 2.918-0.006 0.208-0.011 0.417-0.011 0.626 0 5.265 1.996 10.072 5.27 13.707zM3.934 19.833c0.917 0.012 9.363 0.049 18.952-2.498-3.397-6.038-7.060-11.114-7.601-11.855-5.735 2.705-10.022 7.992-11.351 14.354zM19.196 4.102c0.567 0.758 4.29 5.829 7.649 12.001 7.289-2.732 10.376-6.88 10.744-7.405-3.62-3.212-8.38-5.166-13.589-5.166-1.654 0-3.263 0.198-4.804 0.57zM39.868 11.068c-0.432 0.585-3.868 4.988-11.447 8.083 0.477 0.976 0.935 1.97 1.36 2.969 0.151 0.355 0.298 0.707 0.442 1.058 6.821-0.858 13.598 0.517 14.275 0.66-0.045-4.838-1.774-9.282-4.629-12.77z" fill="#444444"></path>
</svg>
