<?xml version="1.0" encoding="utf-8"?>
<!-- Generated by IcoMoon.io -->
<!DOCTYPE svg PUBLIC "-//W3C//DTD SVG 1.1//EN" "http://www.w3.org/Graphics/SVG/1.1/DTD/svg11.dtd">
<svg version="1.1" xmlns="http://www.w3.org/2000/svg" xmlns:xlink="http://www.w3.org/1999/xlink" width="48" height="48" viewBox="0 0 48 48">
<path d="M35.891 10.61c-0.323 0.46-3.023 4.089-9.401 6.479-2.939-5.4-6.197-9.837-6.693-10.501 1.349-0.325 2.756-0.499 4.204-0.499 4.558 0 8.723 1.709 11.891 4.52zM25.254 24.184c-9.25 2.99-14.174 11.141-14.58 11.837-2.865-3.18-4.611-7.387-4.611-11.993 0-0.184 0.004-0.366 0.009-0.548 0.784 0.016 9.477 0.128 18.435-2.553 0.513 1.005 1.004 2.025 1.454 3.044-0.237 0.067-0.473 0.138-0.707 0.213zM24 0c-13.255 0-24 10.745-24 24s10.745 24 24 24 24-10.745 24-24-10.745-24-24-24zM24 45c-11.579 0-21-9.421-21-21s9.421-21 21-21c11.58 0 21 9.421 21 21s-9.42 21-21 21zM29.059 22.355c-0.373-0.875-0.773-1.744-1.19-2.598 6.632-2.707 9.638-6.561 10.016-7.073 2.498 3.053 4.011 6.94 4.051 11.174-0.592-0.125-6.522-1.328-12.49-0.578-0.126-0.307-0.254-0.616-0.386-0.925zM23.024 18.168c-8.39 2.228-15.781 2.196-16.582 2.186 1.163-5.566 4.914-10.192 9.932-12.559 0.473 0.649 3.678 5.090 6.65 10.374zM27.062 26.977c0.040-0.014 0.079-0.026 0.119-0.040 2.518 6.544 3.56 12.029 3.827 13.603-2.154 0.917-4.522 1.426-7.006 1.426-4.147 0-7.969-1.415-11.010-3.787 0.322-0.66 3.955-7.676 14.072-11.201zM30.538 26.108c5.621-0.9 10.559 0.573 11.173 0.767-0.799 4.991-3.664 9.301-7.688 12.022-0.184-1.091-1.139-6.342-3.484-12.789z" fill="#444444"></path>
</svg>
