<?xml version="1.0" encoding="utf-8"?>
<!-- Generated by IcoMoon.io -->
<!DOCTYPE svg PUBLIC "-//W3C//DTD SVG 1.1//EN" "http://www.w3.org/Graphics/SVG/1.1/DTD/svg11.dtd">
<svg version="1.1" xmlns="http://www.w3.org/2000/svg" xmlns:xlink="http://www.w3.org/1999/xlink" width="48" height="48" viewBox="0 0 48 48">
<path d="M40.529 22.18c-3.083-8.599-9.614-16.319-16.529-22.18-6.915 5.86-13.447 13.581-16.529 22.18-1.906 5.317-2.095 11.089 0.59 16.19 3.086 5.866 9.311 9.63 15.94 9.63s12.853-3.764 15.939-9.63c2.684-5.102 2.496-10.873 0.59-16.19zM34.63 35.576c-2.053 3.902-6.226 6.424-10.63 6.424-2.584 0-5.087-0.869-7.13-2.374 0.621 0.081 1.249 0.124 1.88 0.124 5.504 0 10.719-3.151 13.285-8.027 2.104-3.998 1.921-8.149 1.12-11.453 0.682 1.319 1.262 2.634 1.727 3.935 1.060 2.956 1.877 7.328-0.252 11.372z" fill="#444444"></path>
</svg>
