<?xml version="1.0" encoding="utf-8"?>
<!-- Generated by IcoMoon.io -->
<!DOCTYPE svg PUBLIC "-//W3C//DTD SVG 1.1//EN" "http://www.w3.org/Graphics/SVG/1.1/DTD/svg11.dtd">
<svg version="1.1" xmlns="http://www.w3.org/2000/svg" xmlns:xlink="http://www.w3.org/1999/xlink" width="48" height="48" viewBox="0 0 48 48">
<path d="M42 6h-36c-2.21 0-4 1.79-4 4v24c0 2.21 1.79 4 4 4h10v4h16v-4h10c2.21 0 3.98-1.79 3.98-4l0.020-24c0-2.21-1.79-4-4-4zM42 34h-36v-24h36v24zM38 16h-22v4h22v-4zM38 24h-22v4h22v-4zM14 16h-4v4h4v-4zM14 24h-4v4h4v-4z" fill="#444444"></path>
</svg>
