<?xml version="1.0" encoding="utf-8"?>
<!-- Generated by IcoMoon.io -->
<!DOCTYPE svg PUBLIC "-//W3C//DTD SVG 1.1//EN" "http://www.w3.org/Graphics/SVG/1.1/DTD/svg11.dtd">
<svg version="1.1" xmlns="http://www.w3.org/2000/svg" xmlns:xlink="http://www.w3.org/1999/xlink" width="48" height="48" viewBox="0 0 48 48">
<path d="M24 0c-13.255 0-24 10.745-24 24s10.745 24 24 24 24-10.745 24-24-10.745-24-24-24zM38.655 27.638c-1.725 6.69-7.751 11.362-14.654 11.362s-12.931-4.672-14.656-11.363c-0.292-1.132 0.391-2.291 1.524-2.584 0.174-0.045 0.353-0.068 0.532-0.068 0.967 0 1.811 0.655 2.053 1.592 1.243 4.816 5.58 8.18 10.547 8.18s9.305-3.364 10.547-8.18c0.242-0.938 1.085-1.593 2.051-1.593 0.179 0 0.359 0.023 0.533 0.068 0.548 0.141 1.009 0.488 1.297 0.977s0.368 1.059 0.226 1.608z" fill="#444444"></path>
</svg>
