<?xml version="1.0" encoding="utf-8"?>
<!-- Generated by IcoMoon.io -->
<!DOCTYPE svg PUBLIC "-//W3C//DTD SVG 1.1//EN" "http://www.w3.org/Graphics/SVG/1.1/DTD/svg11.dtd">
<svg version="1.1" xmlns="http://www.w3.org/2000/svg" xmlns:xlink="http://www.w3.org/1999/xlink" width="48" height="48" viewBox="0 0 48 48">
<path d="M42 21h0.75c1.237 0 2.25-1.013 2.25-2.25v-7.5c0-1.238-1.013-2.25-2.25-2.25h-0.75v-9h-6v9h-0.75c-1.237 0-2.25 1.012-2.25 2.25v7.5c0 1.237 1.013 2.25 2.25 2.25h0.75v27h6v-27zM36 12h6v6h-6v-6zM27.75 39c1.237 0 2.25-1.013 2.25-2.25v-7.5c0-1.237-1.013-2.25-2.25-2.25h-0.75v-27h-6v27h-0.75c-1.237 0-2.25 1.013-2.25 2.25v7.5c0 1.237 1.013 2.25 2.25 2.25h0.75v9h6v-9h0.75zM21 30h6v6h-6v-6zM12.75 21c1.237 0 2.25-1.013 2.25-2.25v-7.5c0-1.238-1.013-2.25-2.25-2.25h-0.75v-9h-6v9h-0.75c-1.238 0-2.25 1.012-2.25 2.25v7.5c0 1.237 1.012 2.25 2.25 2.25h0.75v27h6v-27h0.75zM6 12h6v6h-6v-6z" fill="#444444"></path>
</svg>
