<?xml version="1.0" encoding="utf-8"?>
<!-- Generated by IcoMoon.io -->
<!DOCTYPE svg PUBLIC "-//W3C//DTD SVG 1.1//EN" "http://www.w3.org/Graphics/SVG/1.1/DTD/svg11.dtd">
<svg version="1.1" xmlns="http://www.w3.org/2000/svg" xmlns:xlink="http://www.w3.org/1999/xlink" width="48" height="48" viewBox="0 0 48 48">
<path d="M44.341 0.659c-0.879-0.878-2.303-0.878-3.182 0l-9.476 9.476c-2.435-0.739-5.013-1.136-7.682-1.136-10.468 0-19.541 6.096-24 15 1.927 3.85 4.718 7.174 8.111 9.708l-7.451 7.451c-0.879 0.879-0.879 2.303 0 3.182 0.439 0.44 1.015 0.659 1.591 0.659s1.151-0.22 1.591-0.659l40.5-40.5c0.879-0.879 0.879-2.303 0-3.182zM19.5 15c1.98 0 3.66 1.279 4.262 3.056l-5.706 5.706c-1.777-0.602-3.056-2.282-3.056-4.262 0-2.486 2.014-4.5 4.5-4.5zM5.162 24c1.795-2.837 4.185-5.246 7.005-7.045 0.184-0.117 0.369-0.231 0.556-0.342-0.467 1.281-0.722 2.663-0.722 4.106 0 2.573 0.81 4.957 2.189 6.91l-2.856 2.856c-2.458-1.727-4.556-3.932-6.172-6.485z" fill="#444444"></path>
<path d="M36 20.719c0-1.273-0.2-2.5-0.567-3.652l-15.085 15.085c1.151 0.367 2.378 0.567 3.652 0.567 6.627 0 12-5.373 12-12z" fill="#444444"></path>
<path d="M38.908 13.592l-3.251 3.251c0.059 0.037 0.119 0.073 0.178 0.111 2.82 1.798 5.209 4.208 7.005 7.045-1.795 2.837-4.185 5.246-7.005 7.045-3.544 2.261-7.636 3.455-11.834 3.455-1.812 0-3.604-0.223-5.342-0.658l-3.604 3.605c2.799 1.006 5.81 1.554 8.946 1.554 10.468 0 19.541-6.096 24-15-2.111-4.215-5.255-7.8-9.092-10.408z" fill="#444444"></path>
</svg>
