<?xml version="1.0" encoding="utf-8"?>
<!-- Generated by IcoMoon.io -->
<!DOCTYPE svg PUBLIC "-//W3C//DTD SVG 1.1//EN" "http://www.w3.org/Graphics/SVG/1.1/DTD/svg11.dtd">
<svg version="1.1" xmlns="http://www.w3.org/2000/svg" xmlns:xlink="http://www.w3.org/1999/xlink" width="48" height="48" viewBox="0 0 48 48">
<path d="M48 6h-6v-6h-6v6h-6v6h6v6h6v-6h6z" fill="#444444"></path>
<path d="M40.493 20.908c0.864 0.96 1.65 1.994 2.344 3.092-1.795 2.837-4.185 5.246-7.005 7.045-3.544 2.261-7.636 3.455-11.834 3.455s-8.291-1.195-11.834-3.455c-2.82-1.799-5.21-4.208-7.004-7.045 1.795-2.837 4.185-5.246 7.005-7.045 0.184-0.117 0.369-0.231 0.556-0.342-0.467 1.281-0.722 2.663-0.722 4.106 0 6.627 5.373 12 12 12s12-5.373 12-12c0-0.032-0.001-0.064-0.002-0.097-5.123-1.319-8.921-5.935-8.997-11.452-0.985-0.112-1.988-0.17-3.002-0.17-10.468 0-19.541 6.096-24 15 4.459 8.904 13.532 15 24 15s19.541-6.096 24-15c-0.826-1.651-1.813-3.206-2.937-4.643-1.372 0.806-2.919 1.346-4.57 1.551zM19.5 15c2.486 0 4.5 2.014 4.5 4.5s-2.014 4.5-4.5 4.5-4.5-2.014-4.5-4.5 2.014-4.5 4.5-4.5z" fill="#444444"></path>
</svg>
