<?xml version="1.0" encoding="utf-8"?>
<!-- Generated by IcoMoon.io -->
<!DOCTYPE svg PUBLIC "-//W3C//DTD SVG 1.1//EN" "http://www.w3.org/Graphics/SVG/1.1/DTD/svg11.dtd">
<svg version="1.1" xmlns="http://www.w3.org/2000/svg" xmlns:xlink="http://www.w3.org/1999/xlink" width="48" height="48" viewBox="0 0 48 48">
<path d="M30 6h18v6h-18v-6z" fill="#444444"></path>
<path d="M40.796 15h-13.796v-5.831c-0.985-0.112-1.986-0.17-3-0.17-10.468 0-19.541 6.096-24 15 4.459 8.904 13.532 15 24 15s19.541-6.096 24-15c-1.753-3.501-4.219-6.567-7.204-9zM19.5 15c2.486 0 4.5 2.014 4.5 4.5s-2.014 4.5-4.5 4.5-4.5-2.014-4.5-4.5 2.014-4.5 4.5-4.5zM35.834 31.045c-3.544 2.261-7.636 3.455-11.834 3.455s-8.291-1.195-11.833-3.455c-2.82-1.799-5.21-4.208-7.004-7.045 1.795-2.837 4.185-5.246 7.005-7.045 0.184-0.117 0.369-0.231 0.556-0.342-0.467 1.281-0.722 2.663-0.722 4.106 0 6.627 5.373 12 12 12s12-5.373 12-12c0-1.442-0.256-2.825-0.722-4.106 0.186 0.112 0.372 0.225 0.556 0.342 2.82 1.799 5.209 4.208 7.005 7.045-1.795 2.837-4.185 5.246-7.005 7.046z" fill="#444444"></path>
</svg>
