<?xml version="1.0" encoding="utf-8"?>
<!-- Generated by IcoMoon.io -->
<!DOCTYPE svg PUBLIC "-//W3C//DTD SVG 1.1//EN" "http://www.w3.org/Graphics/SVG/1.1/DTD/svg11.dtd">
<svg version="1.1" xmlns="http://www.w3.org/2000/svg" xmlns:xlink="http://www.w3.org/1999/xlink" width="48" height="48" viewBox="0 0 48 48">
<path d="M46.243 1.757c-2.343-2.343-6.142-2.343-8.486 0l-8.068 8.068-5.689-5.689-6.364 6.364 4.989 4.989-22.13 22.13c-0.377 0.377-0.538 0.889-0.483 1.381h-0.011v7.5c0 0.829 0.671 1.5 1.5 1.5h7.5c0 0 0.125 0 0.188 0 0.432 0 0.864-0.165 1.193-0.494l22.13-22.13 4.989 4.989 6.364-6.364-5.69-5.689 8.068-8.068c2.343-2.343 2.343-6.142 0-8.486zM8.114 45h-5.114v-5.114l22.011-22.011 5.113 5.113-22.011 22.011z" fill="#444444"></path>
</svg>
