<?xml version="1.0" encoding="utf-8"?>
<!-- Generated by IcoMoon.io -->
<!DOCTYPE svg PUBLIC "-//W3C//DTD SVG 1.1//EN" "http://www.w3.org/Graphics/SVG/1.1/DTD/svg11.dtd">
<svg version="1.1" xmlns="http://www.w3.org/2000/svg" xmlns:xlink="http://www.w3.org/1999/xlink" width="48" height="48" viewBox="0 0 48 48">
<path d="M33 6c-3.48 0-6.82 1.62-9 4.17-2.18-2.55-5.52-4.17-9-4.17-6.17 0-11 4.83-11 11 0 7.55 6.8 13.72 17.1 23.070l2.9 2.63 2.9-2.63c10.3-9.35 17.1-15.52 17.1-23.070 0-6.17-4.83-11-11-11zM24.21 37.11l-0.21 0.19-0.21-0.19c-9.51-8.63-15.79-14.33-15.79-20.11 0-3.99 3.010-7 7-7 3.080 0 6.080 1.99 7.13 4.72h3.73c1.060-2.73 4.060-4.72 7.14-4.72 3.99 0 7 3.010 7 7 0 5.78-6.28 11.48-15.79 20.11z" fill="#444444"></path>
</svg>
