<?xml version="1.0" encoding="utf-8"?>
<!-- Generated by IcoMoon.io -->
<!DOCTYPE svg PUBLIC "-//W3C//DTD SVG 1.1//EN" "http://www.w3.org/Graphics/SVG/1.1/DTD/svg11.dtd">
<svg version="1.1" xmlns="http://www.w3.org/2000/svg" xmlns:xlink="http://www.w3.org/1999/xlink" width="48" height="48" viewBox="0 0 48 48">
<path d="M6.389 35.2c-3.525 0-6.389 2.875-6.389 6.379 0 3.523 2.864 6.366 6.389 6.366 3.538 0 6.398-2.843 6.398-6.366 0-3.503-2.861-6.379-6.398-6.379zM0.007 16.309v9.2c5.99 0 11.623 2.342 15.866 6.587 4.237 4.234 6.576 9.892 6.576 15.904h9.24c0-17.476-14.216-31.691-31.681-31.691zM0.018 0v9.204c21.364 0 38.754 17.406 38.754 38.796h9.227c0-26.459-21.527-48-47.982-48z" fill="#444444"></path>
</svg>
