<?xml version="1.0" encoding="utf-8"?>
<!-- Generated by IcoMoon.io -->
<!DOCTYPE svg PUBLIC "-//W3C//DTD SVG 1.1//EN" "http://www.w3.org/Graphics/SVG/1.1/DTD/svg11.dtd">
<svg version="1.1" xmlns="http://www.w3.org/2000/svg" xmlns:xlink="http://www.w3.org/1999/xlink" width="48" height="48" viewBox="0 0 48 48">
<path d="M40.001 0h-31.999c-4.4 0-8.001 3.601-8.001 8.001v31.998c0 4.403 3.601 8.001 8.001 8.001h31.999c4.4 0 7.999-3.598 7.999-8.001v-31.998c0-4.4-3.599-8.001-7.999-8.001zM13.076 38.965c-2.249 0-4.076-1.813-4.076-4.060 0-2.235 1.827-4.070 4.076-4.070 2.258 0 4.081 1.834 4.081 4.070 0 2.247-1.823 4.060-4.081 4.060zM23.319 39c0-3.835-1.491-7.445-4.193-10.146-2.705-2.707-6.298-4.201-10.12-4.201v-5.868c11.14 0 20.209 9.068 20.209 20.215h-5.895zM33.733 39c0-13.643-11.093-24.747-24.721-24.747v-5.871c16.875 0 30.607 13.74 30.607 30.619h-5.886z" fill="#444444"></path>
</svg>
