<?xml version="1.0" encoding="utf-8"?>
<!-- Generated by IcoMoon.io -->
<!DOCTYPE svg PUBLIC "-//W3C//DTD SVG 1.1//EN" "http://www.w3.org/Graphics/SVG/1.1/DTD/svg11.dtd">
<svg version="1.1" xmlns="http://www.w3.org/2000/svg" xmlns:xlink="http://www.w3.org/1999/xlink" width="48" height="48" viewBox="0 0 48 48">
<path d="M24 0c-13.255 0-24 10.745-24 24s10.745 24 24 24 24-10.745 24-24-10.745-24-24-24zM15 36c-1.657 0-3-1.343-3-3s1.343-3 3-3 3 1.343 3 3-1.343 3-3 3zM23.25 36c0-6.203-5.047-11.25-11.25-11.25v-4.5c8.684 0 15.75 7.066 15.75 15.75h-4.5zM32.25 36c0-5.409-2.107-10.494-5.931-14.319s-8.91-5.931-14.319-5.931v-4.5c6.611 0 12.827 2.575 17.501 7.25s7.249 10.89 7.249 17.5h-4.5z" fill="#444444"></path>
</svg>
