<?xml version="1.0" encoding="utf-8"?>
<!-- Generated by IcoMoon.io -->
<!DOCTYPE svg PUBLIC "-//W3C//DTD SVG 1.1//EN" "http://www.w3.org/Graphics/SVG/1.1/DTD/svg11.dtd">
<svg version="1.1" xmlns="http://www.w3.org/2000/svg" xmlns:xlink="http://www.w3.org/1999/xlink" width="48" height="48" viewBox="0 0 48 48">
<path d="M39.469 27.632c-0.64-0.63-2.059-0.964-4.217-0.992-1.462-0.016-3.221 0.113-5.071 0.371-0.829-0.478-1.682-0.998-2.353-1.624-1.803-1.684-3.308-4.021-4.246-6.59 0.061-0.24 0.113-0.451 0.161-0.666 0 0 1.015-5.768 0.747-7.719-0.037-0.268-0.060-0.345-0.131-0.553l-0.089-0.226c-0.276-0.637-0.817-1.313-1.667-1.275l-0.511-0.016c-0.947 0-1.718 0.485-1.922 1.208-0.616 2.27 0.020 5.667 1.171 10.066l-0.295 0.716c-0.824 2.010-1.858 4.034-2.769 5.82l-0.119 0.233c-0.959 1.877-1.829 3.47-2.618 4.82l-0.814 0.43c-0.059 0.032-1.455 0.77-1.783 0.968-2.778 1.658-4.619 3.541-4.924 5.035-0.098 0.477-0.025 1.087 0.47 1.369l0.787 0.397c0.342 0.171 0.702 0.258 1.071 0.258 1.978 0 4.275-2.465 7.439-7.986 3.653-1.189 7.812-2.178 11.457-2.723 2.778 1.564 6.194 2.651 8.35 2.651 0.383 0 0.713-0.037 0.981-0.107 0.413-0.11 0.762-0.346 0.975-0.665 0.418-0.63 0.503-1.497 0.39-2.385-0.034-0.263-0.245-0.59-0.472-0.812zM9.921 38.159c0.361-0.986 1.789-2.936 3.9-4.667 0.133-0.108 0.46-0.414 0.759-0.698-2.208 3.521-3.686 4.925-4.66 5.365zM22.427 9.36c0.636 0 0.997 1.603 1.027 3.106s-0.322 2.557-0.758 3.338c-0.361-1.156-0.535-2.977-0.535-4.167 0 0-0.026-2.276 0.265-2.276v0zM18.696 29.882c0.443-0.793 0.904-1.629 1.375-2.516 1.148-2.171 1.873-3.87 2.413-5.267 1.074 1.954 2.411 3.615 3.984 4.946 0.197 0.166 0.404 0.333 0.622 0.499-3.197 0.632-5.961 1.402-8.394 2.337v0zM38.855 29.702c-0.195 0.122-0.752 0.192-1.112 0.192-1.158 0-2.591-0.529-4.6-1.39 0.772-0.057 1.48-0.086 2.114-0.086 1.162 0 1.506-0.005 2.642 0.285s1.15 0.878 0.956 1v0z" fill="#444444"></path>
<path d="M43.022 10.738c-1.041-1.42-2.492-3.079-4.087-4.673s-3.254-3.045-4.673-4.087c-2.417-1.773-3.59-1.978-4.262-1.978h-23.25c-2.068 0-3.75 1.682-3.75 3.75v40.5c0 2.068 1.682 3.75 3.75 3.75h34.5c2.068 0 3.75-1.682 3.75-3.75v-29.25c0-0.672-0.205-1.844-1.978-4.262v0zM36.814 8.185c1.439 1.439 2.569 2.738 3.402 3.815h-7.216v-7.216c1.077 0.833 2.375 1.963 3.814 3.402v0zM42 44.25c0 0.407-0.343 0.75-0.75 0.75h-34.5c-0.406 0-0.75-0.343-0.75-0.75v-40.5c0-0.406 0.344-0.75 0.75-0.75 0 0 23.248 0 23.25 0v10.5c0 0.829 0.671 1.5 1.5 1.5h10.5v29.25z" fill="#444444"></path>
</svg>
