<?xml version="1.0" encoding="utf-8"?>
<!-- Generated by IcoMoon.io -->
<!DOCTYPE svg PUBLIC "-//W3C//DTD SVG 1.1//EN" "http://www.w3.org/Graphics/SVG/1.1/DTD/svg11.dtd">
<svg version="1.1" xmlns="http://www.w3.org/2000/svg" xmlns:xlink="http://www.w3.org/1999/xlink" width="48" height="48" viewBox="0 0 48 48">
<path d="M43.022 16.738c-1.041-1.42-2.492-3.079-4.087-4.674s-3.254-3.045-4.673-4.087c-2.417-1.773-3.59-1.978-4.262-1.978h-17.25c-2.068 0-3.75 1.682-3.75 3.75v34.5c0 2.068 1.682 3.75 3.75 3.75h28.5c2.068 0 3.75-1.682 3.75-3.75v-23.25c0-0.672-0.205-1.844-1.978-4.262zM36.814 14.186c1.439 1.439 2.569 2.738 3.402 3.814h-7.216v-7.216c1.077 0.833 2.375 1.963 3.814 3.402v0zM42 44.25c0 0.407-0.343 0.75-0.75 0.75h-28.5c-0.407 0-0.75-0.343-0.75-0.75v-34.5c0-0.406 0.343-0.75 0.75-0.75 0 0 17.248 0 17.25 0v10.5c0 0.829 0.671 1.5 1.5 1.5h10.5v23.25z" fill="#444444"></path>
<path d="M28.262 1.978c-2.417-1.773-3.59-1.978-4.262-1.978h-17.25c-2.068 0-3.75 1.682-3.75 3.75v34.5c0 1.811 1.29 3.326 3 3.674v-38.174c0-0.406 0.344-0.75 0.75-0.75h22.822c-0.452-0.371-0.892-0.715-1.31-1.022z" fill="#444444"></path>
</svg>
