<?xml version="1.0" encoding="utf-8"?>
<!-- Generated by IcoMoon.io -->
<!DOCTYPE svg PUBLIC "-//W3C//DTD SVG 1.1//EN" "http://www.w3.org/Graphics/SVG/1.1/DTD/svg11.dtd">
<svg version="1.1" xmlns="http://www.w3.org/2000/svg" xmlns:xlink="http://www.w3.org/1999/xlink" width="48" height="48" viewBox="0 0 48 48">
<path d="M43.022 10.738c-1.041-1.42-2.492-3.079-4.087-4.673s-3.254-3.045-4.673-4.087c-2.417-1.773-3.59-1.978-4.262-1.978h-23.25c-2.068 0-3.75 1.682-3.75 3.75v40.5c0 2.068 1.682 3.75 3.75 3.75h34.5c2.068 0 3.75-1.682 3.75-3.75v-29.25c0-0.672-0.205-1.844-1.978-4.262v0 0zM36.814 8.185c1.439 1.439 2.569 2.738 3.402 3.815h-7.216v-7.216c1.077 0.833 2.375 1.963 3.814 3.402v0 0zM42 44.25c0 0.407-0.343 0.75-0.75 0.75h-34.5c-0.406 0-0.75-0.343-0.75-0.75v-40.5c0-0.406 0.344-0.75 0.75-0.75 0 0 23.248 0 23.25 0v10.5c0 0.829 0.671 1.5 1.5 1.5h10.5v29.25z" fill="#444444"></path>
<path d="M12 3h6v3h-6v-3z" fill="#444444"></path>
<path d="M18 6h6v3h-6v-3z" fill="#444444"></path>
<path d="M12 9h6v3h-6v-3z" fill="#444444"></path>
<path d="M18 12h6v3h-6v-3z" fill="#444444"></path>
<path d="M12 15h6v3h-6v-3z" fill="#444444"></path>
<path d="M18 18h6v3h-6v-3z" fill="#444444"></path>
<path d="M12 21h6v3h-6v-3z" fill="#444444"></path>
<path d="M18 24h6v3h-6v-3z" fill="#444444"></path>
<path d="M12 39.75c0 1.237 1.013 2.25 2.25 2.25h7.5c1.237 0 2.25-1.013 2.25-2.25v-7.5c0-1.237-1.013-2.25-2.25-2.25h-3.75v-3h-6v12.75zM21 36v3h-6v-3h6z" fill="#444444"></path>
</svg>
