<?xml version="1.0" encoding="utf-8"?>
<!-- Generated by IcoMoon.io -->
<!DOCTYPE svg PUBLIC "-//W3C//DTD SVG 1.1//EN" "http://www.w3.org/Graphics/SVG/1.1/DTD/svg11.dtd">
<svg version="1.1" xmlns="http://www.w3.org/2000/svg" xmlns:xlink="http://www.w3.org/1999/xlink" width="48" height="48" viewBox="0 0 48 48">
<path d="M37.39 24.8c-0.56-0.32-1.14-0.58-1.72-0.8 0.58-0.22 1.16-0.48 1.72-0.8 3.84-2.22 5.98-6.25 5.99-10.39-3.59-2.060-8.15-2.22-11.99 0-0.56 0.32-1.070 0.69-1.56 1.090 0.1-0.63 0.17-1.25 0.17-1.9 0-4.44-2.42-8.31-6-10.38-3.58 2.070-6 5.94-6 10.38 0 0.65 0.060 1.27 0.16 1.89-0.49-0.39-1-0.76-1.56-1.090-3.84-2.22-8.4-2.060-11.99 0 0.010 4.14 2.15 8.17 5.99 10.39 0.56 0.32 1.14 0.58 1.72 0.8-0.58 0.22-1.16 0.48-1.72 0.8-3.84 2.22-5.98 6.25-5.99 10.39 3.59 2.060 8.15 2.22 11.99 0 0.56-0.32 1.070-0.69 1.56-1.090-0.090 0.64-0.16 1.26-0.16 1.91 0 4.44 2.42 8.31 6 10.38 3.58-2.080 6-5.94 6-10.38 0-0.65-0.070-1.27-0.16-1.89 0.49 0.39 1 0.76 1.56 1.090 3.84 2.22 8.4 2.060 11.99 0-0.010-4.15-2.15-8.18-6-10.4zM24 32c-4.42 0-8-3.58-8-8s3.58-8 8-8 8 3.58 8 8-3.58 8-8 8z" fill="#444444"></path>
</svg>
