<?xml version="1.0" encoding="utf-8"?>
<!-- Generated by IcoMoon.io -->
<!DOCTYPE svg PUBLIC "-//W3C//DTD SVG 1.1//EN" "http://www.w3.org/Graphics/SVG/1.1/DTD/svg11.dtd">
<svg version="1.1" xmlns="http://www.w3.org/2000/svg" xmlns:xlink="http://www.w3.org/1999/xlink" width="48" height="48" viewBox="0 0 48 48">
<path d="M40 39.17v-23.17l-12-12h-16c-2.21 0-3.98 1.79-3.98 4l-0.020 32c0 2.21 1.77 4 3.98 4h24.020c0.89 0 1.71-0.3 2.37-0.8l-8.87-8.87c-1.57 1.050-3.46 1.67-5.5 1.67-5.52 0-10-4.48-10-10s4.48-10 10-10 10 4.48 10 10c0 2.040-0.62 3.93-1.66 5.51l7.66 7.66zM18 26c0 3.31 2.69 6 6 6s6-2.69 6-6-2.69-6-6-6-6 2.69-6 6z" fill="#444444"></path>
</svg>
