<?xml version="1.0" encoding="utf-8"?>
<!-- Generated by IcoMoon.io -->
<!DOCTYPE svg PUBLIC "-//W3C//DTD SVG 1.1//EN" "http://www.w3.org/Graphics/SVG/1.1/DTD/svg11.dtd">
<svg version="1.1" xmlns="http://www.w3.org/2000/svg" xmlns:xlink="http://www.w3.org/1999/xlink" width="48" height="48" viewBox="0 0 48 48">
<path d="M22 12c2.76 0 5.26 1.12 7.070 2.93l-5.070 5.070h12v-12l-4.1 4.1c-2.53-2.53-6.030-4.1-9.9-4.1-7.050 0-12.87 5.22-13.84 12h4.040c0.93-4.56 4.96-8 9.8-8zM33.28 30.27c1.33-1.81 2.23-3.95 2.56-6.27h-4.040c-0.93 4.56-4.96 8-9.8 8-2.76 0-5.26-1.12-7.070-2.93l5.070-5.070h-12v12l4.1-4.1c2.53 2.53 6.030 4.1 9.9 4.1 3.1 0 5.96-1.020 8.28-2.73l9.72 9.71 2.98-2.98-9.7-9.73z" fill="#444444"></path>
</svg>
