<?xml version="1.0" encoding="utf-8"?>
<!-- Generated by IcoMoon.io -->
<!DOCTYPE svg PUBLIC "-//W3C//DTD SVG 1.1//EN" "http://www.w3.org/Graphics/SVG/1.1/DTD/svg11.dtd">
<svg version="1.1" xmlns="http://www.w3.org/2000/svg" xmlns:xlink="http://www.w3.org/1999/xlink" width="48" height="48" viewBox="0 0 48 48">
<path d="M47.931 15.663l-0.556 3.566c0 0-0.795-6.602-1.768-9.071-1.493-3.782-2.157-3.752-2.162-3.746 1 2.541 0.818 3.906 0.818 3.906s-1.772-4.828-6.455-6.365c-5.188-1.701-7.996-1.236-8.32-1.148-0.050-0.001-0.097-0.001-0.142-0.001 0.038 0.003 0.076 0.007 0.114 0.010-0.002 0.001-0.005 0.002-0.004 0.002 0.021 0.025 5.733 0.998 6.746 2.39 0 0-2.426 0-4.841 0.696-0.109 0.032 8.884 1.123 10.723 10.11 0 0-0.986-2.056-2.205-2.406 0.802 2.439 0.596 7.068-0.168 9.368-0.098 0.296-0.199-1.279-1.703-1.957 0.482 3.452-0.028 8.928-2.424 10.436-0.187 0.118 1.502-5.405 0.34-3.27-6.689 10.256-14.597 4.733-18.152 2.302 1.822 0.397 5.281-0.062 6.812-1.201 0.002-0.002 0.004-0.003 0.005-0.004 1.663-1.137 2.647-1.967 3.531-1.771s1.474-0.69 0.787-1.478c-0.688-0.789-2.359-1.874-4.619-1.282-1.594 0.417-3.569 2.181-6.584 0.395-2.314-1.371-2.532-2.51-2.552-3.298 0.057-0.28 0.129-0.541 0.215-0.779 0.266-0.744 1.074-0.968 1.523-1.145 0.762 0.13 1.418 0.368 2.108 0.722 0.009-0.229 0.012-0.534-0.001-0.879 0.066-0.131 0.025-0.527-0.081-1.012-0.061-0.483-0.16-0.983-0.317-1.438 0.001 0 0.001-0.001 0.001-0.001 0.002-0.001 0.005-0.002 0.008-0.003 0.004-0.002 0.007-0.005 0.010-0.009 0.001-0.001 0.002-0.002 0.002-0.002 0.004-0.006 0.008-0.013 0.009-0.022 0.048-0.217 0.563-0.634 1.205-1.083 0.575-0.402 1.252-0.829 1.784-1.16 0.472-0.293 0.831-0.51 0.907-0.567 0.029-0.022 0.064-0.047 0.101-0.077 0.007-0.005 0.014-0.011 0.021-0.016 0.005-0.004 0.009-0.007 0.014-0.011 0.254-0.202 0.632-0.583 0.712-1.387 0-0.002 0.001-0.004 0.001-0.006 0.002-0.024 0.005-0.047 0.006-0.072 0.002-0.017 0.002-0.034 0.004-0.052 0.001-0.014 0.002-0.026 0.002-0.040 0.001-0.032 0.002-0.064 0.003-0.097 0-0.002 0-0.004 0-0.005 0.001-0.078 0-0.159-0.005-0.244-0.002-0.047-0.006-0.091-0.014-0.13 0-0.002-0.001-0.005-0.001-0.007-0.001-0.004-0.002-0.008-0.003-0.011-0.001-0.007-0.004-0.014-0.006-0.020 0-0.001-0.001-0.002-0.001-0.002-0.002-0.008-0.005-0.015-0.008-0.022 0 0 0-0.001 0-0.001-0.082-0.193-0.39-0.265-1.661-0.287-0.002 0-0.002 0-0.004 0v0c-0.519-0.009-1.197-0.009-2.086-0.005-1.558 0.006-2.42-1.523-2.695-2.116 0.377-2.084 1.466-3.569 3.256-4.576 0.034-0.019 0.027-0.035-0.013-0.046 0.349-0.212-4.23-0.006-6.337 2.674-1.87-0.465-3.5-0.433-4.904-0.103-0.27-0.008-0.606-0.041-1.005-0.125-0.934-0.847-2.271-2.41-2.342-4.275 0 0-0.005 0.004-0.012 0.010-0.001-0.018-0.002-0.036-0.004-0.053 0 0-2.846 2.188-2.42 8.151-0.001 0.095-0.003 0.187-0.006 0.275-0.77 1.045-1.153 1.923-1.181 2.117-0.683 1.39-1.375 3.481-1.939 6.656 0 0 0.394-1.25 1.185-2.665-0.582 1.782-1.039 4.554-0.77 8.712 0 0 0.071-0.922 0.322-2.25 0.197 2.579 1.055 5.762 3.228 9.505 4.169 7.187 10.578 10.816 17.662 11.372 1.258 0.103 2.534 0.106 3.817 0.009 0.118-0.008 0.236-0.017 0.354-0.027 1.451-0.102 2.912-0.321 4.37-0.674 19.93-4.819 17.763-28.884 17.763-28.884z" fill="#444444"></path>
</svg>
