<?xml version="1.0" encoding="utf-8"?>
<!-- Generated by IcoMoon.io -->
<!DOCTYPE svg PUBLIC "-//W3C//DTD SVG 1.1//EN" "http://www.w3.org/Graphics/SVG/1.1/DTD/svg11.dtd">
<svg version="1.1" xmlns="http://www.w3.org/2000/svg" xmlns:xlink="http://www.w3.org/1999/xlink" width="48" height="48" viewBox="0 0 48 48">
<path d="M0 0h6v48h-6v-48z" fill="#444444"></path>
<path d="M39 30.141c3.873 0 7.246-0.937 9-2.32v-24c-1.754 1.384-5.127 2.32-9 2.32s-7.246-0.937-9-2.32v24c1.754 1.384 5.127 2.32 9 2.32z" fill="#444444"></path>
<path d="M28.5 1.525c-2.199-0.935-5.415-1.525-9-1.525-4.519 0-8.453 0.937-10.5 2.321v24c2.047-1.384 5.981-2.321 10.5-2.321 3.585 0 6.801 0.59 9 1.525v-24z" fill="#444444"></path>
</svg>
