<?xml version="1.0" encoding="utf-8"?>
<!-- Generated by IcoMoon.io -->
<!DOCTYPE svg PUBLIC "-//W3C//DTD SVG 1.1//EN" "http://www.w3.org/Graphics/SVG/1.1/DTD/svg11.dtd">
<svg version="1.1" xmlns="http://www.w3.org/2000/svg" xmlns:xlink="http://www.w3.org/1999/xlink" width="48" height="48" viewBox="0 0 48 48">
<path d="M14 22h-12v4h12v-4zM18.34 15.51l-4.24-4.24-2.83 2.83 4.24 4.24 2.83-2.83zM26 2h-4v12h4v-12zM36.73 14.1l-2.83-2.83-4.24 4.24 2.83 2.83 4.24-4.24zM34 22v4h12v-4h-12zM24 18c-3.31 0-6 2.69-6 6s2.69 6 6 6 6-2.69 6-6-2.69-6-6-6zM29.66 32.49l4.24 4.24 2.83-2.83-4.24-4.24-2.83 2.83zM11.27 33.9l2.83 2.83 4.24-4.24-2.83-2.83-4.24 4.24zM22 46h4v-12h-4v12z" fill="#444444"></path>
</svg>
