<?xml version="1.0" encoding="utf-8"?>
<!-- Generated by IcoMoon.io -->
<!DOCTYPE svg PUBLIC "-//W3C//DTD SVG 1.1//EN" "http://www.w3.org/Graphics/SVG/1.1/DTD/svg11.dtd">
<svg version="1.1" xmlns="http://www.w3.org/2000/svg" xmlns:xlink="http://www.w3.org/1999/xlink" width="48" height="48" viewBox="0 0 48 48">
<path d="M17.23 0c-11.408 0-17.23 6.57-17.23 18.837v0 25.736l11.174-11.186v-13.073c0-5.082 1.347-8.316 5.865-9.042v0c1.578-0.309 4.863-0.2 6.952-0.2v0 7.762c0 0.071 0.010 0.197 0.028 0.262v0c0.088 0.314 0.372 0.544 0.709 0.545v0c0.191 0 0.369-0.098 0.553-0.28v0l19.365-19.358-27.416-0.003zM36.826 14.613v13.073c0 5.082-1.347 8.316-5.865 9.042v0c-1.579 0.308-4.864 0.2-6.953 0.2v0-7.763c0-0.071-0.010-0.197-0.028-0.262v0c-0.087-0.314-0.371-0.544-0.709-0.545v0c-0.191-0.001-0.369 0.099-0.553 0.28v0l-19.365 19.357 27.416 0.003c11.408 0 17.23-6.571 17.23-18.837v0-25.735l-11.174 11.186z" fill="#444444"></path>
</svg>
