<?xml version="1.0" encoding="utf-8"?>
<!-- Generated by IcoMoon.io -->
<!DOCTYPE svg PUBLIC "-//W3C//DTD SVG 1.1//EN" "http://www.w3.org/Graphics/SVG/1.1/DTD/svg11.dtd">
<svg version="1.1" xmlns="http://www.w3.org/2000/svg" xmlns:xlink="http://www.w3.org/1999/xlink" width="48" height="48" viewBox="0 0 48 48">
<path d="M37.5 19.5c-3.308 0-6 2.692-6 6s2.692 6 6 6c3.308 0 6-2.692 6-6s-2.692-6-6-6zM37.5 15v0c5.799 0 10.5 4.701 10.5 10.5s-4.701 10.5-10.5 10.5-10.5-4.701-10.5-10.5c0-5.799 4.701-10.5 10.5-10.5zM0 25.5c0-5.799 4.701-10.5 10.5-10.5s10.5 4.701 10.5 10.5c0 5.799-4.701 10.5-10.5 10.5s-10.5-4.701-10.5-10.5z" fill="#444444"></path>
</svg>
