<?xml version="1.0" encoding="utf-8"?>
<!-- Generated by IcoMoon.io -->
<!DOCTYPE svg PUBLIC "-//W3C//DTD SVG 1.1//EN" "http://www.w3.org/Graphics/SVG/1.1/DTD/svg11.dtd">
<svg version="1.1" xmlns="http://www.w3.org/2000/svg" xmlns:xlink="http://www.w3.org/1999/xlink" width="48" height="48" viewBox="0 0 48 48">
<path d="M31.2 21.58c1.93-1.35 3.3-3.53 3.3-5.58 0-4.51-3.49-8-8-8h-12.5v28h14.080c4.19 0 7.42-3.4 7.42-7.58 0-3.040-1.73-5.63-4.3-6.84zM20 13h6c1.66 0 3 1.34 3 3s-1.34 3-3 3h-6v-6zM27 31h-7v-6h7c1.66 0 3 1.34 3 3s-1.34 3-3 3z" fill="#444444"></path>
</svg>
