<?xml version="1.0" encoding="utf-8"?>
<!-- Generated by IcoMoon.io -->
<!DOCTYPE svg PUBLIC "-//W3C//DTD SVG 1.1//EN" "http://www.w3.org/Graphics/SVG/1.1/DTD/svg11.dtd">
<svg version="1.1" xmlns="http://www.w3.org/2000/svg" xmlns:xlink="http://www.w3.org/1999/xlink" width="48" height="48" viewBox="0 0 48 48">
<path d="M8 21c-1.66 0-3 1.34-3 3s1.34 3 3 3 3-1.34 3-3-1.34-3-3-3zM8 9c-1.66 0-3 1.34-3 3s1.34 3 3 3 3-1.34 3-3-1.34-3-3-3zM8 33.33c-1.47 0-2.67 1.19-2.67 2.67s1.2 2.67 2.67 2.67 2.67-1.19 2.67-2.67-1.2-2.67-2.67-2.67zM14 38h28v-4h-28v4zM14 26h28v-4h-28v4zM14 10v4h28v-4h-28z" fill="#444444"></path>
</svg>
