<?xml version="1.0" encoding="utf-8"?>
<!-- Generated by IcoMoon.io -->
<!DOCTYPE svg PUBLIC "-//W3C//DTD SVG 1.1//EN" "http://www.w3.org/Graphics/SVG/1.1/DTD/svg11.dtd">
<svg version="1.1" xmlns="http://www.w3.org/2000/svg" xmlns:xlink="http://www.w3.org/1999/xlink" width="48" height="48" viewBox="0 0 48 48">
<path d="M39.917 4.223c-0.565-0.769-1.462-1.223-2.417-1.223h-28.5c-1.657 0-3 1.343-3 3v36c0 1.214 0.731 2.307 1.852 2.772 0.371 0.154 0.761 0.229 1.148 0.229 0.781 0 1.548-0.305 2.122-0.879l11.121-11.121h7.757c1.312 0 2.472-0.853 2.863-2.105l7.5-24c0.285-0.911 0.119-1.903-0.446-2.672zM31.544 15h-10.544c-1.657 0-3 1.343-3 3s1.343 3 3 3h8.669l-1.875 6h-6.794c-0.796 0-1.558 0.316-2.121 0.879l-6.879 6.879v-25.757h21.419l-1.875 6z" fill="#444444"></path>
</svg>
