<?xml version="1.0" encoding="utf-8"?>
<!-- Generated by IcoMoon.io -->
<!DOCTYPE svg PUBLIC "-//W3C//DTD SVG 1.1//EN" "http://www.w3.org/Graphics/SVG/1.1/DTD/svg11.dtd">
<svg version="1.1" xmlns="http://www.w3.org/2000/svg" xmlns:xlink="http://www.w3.org/1999/xlink" width="48" height="48" viewBox="0 0 48 48">
<path d="M9.19 13.77c1.4-1.43 2.8-2.71 3.43-2.45 0.99 0.41-0.020 2.080-0.6 3.050-0.5 0.84-5.72 7.77-5.72 12.62 0 2.56 0.95 4.68 2.69 5.96 1.5 1.11 3.47 1.45 5.28 0.92 2.14-0.63 3.9-2.79 6.12-5.53 2.42-2.98 5.66-6.88 8.16-6.88 3.26 0 3.3 2.020 3.52 3.59-7.58 1.3-10.77 7.35-10.77 10.76s2.88 6.19 6.41 6.19c3.25 0 8.59-2.66 9.38-12.2h4.91v-5h-4.94c-0.3-3.3-2.18-8.39-8.060-8.39-4.5 0-8.37 3.82-9.87 5.69-1.16 1.45-4.11 4.95-4.57 5.45-0.51 0.59-1.35 1.68-2.23 1.68-0.89 0-1.43-1.67-0.73-3.85 0.7-2.19 2.8-5.72 3.7-7.030 1.57-2.28 2.59-3.85 2.59-6.56 0-4.4-3.28-5.78-5.020-5.78-2.64 0-4.94 2-5.45 2.51-0.71 0.72-1.31 1.31-1.75 1.85l3.52 3.4zM27.77 37.11c-0.62 0-1.47-0.52-1.47-1.45 0-1.2 1.45-4.4 5.75-5.53-0.62 5.39-2.88 6.98-4.28 6.98z" fill="#444444"></path>
</svg>
