<?xml version="1.0" encoding="utf-8"?>
<!-- Generated by IcoMoon.io -->
<!DOCTYPE svg PUBLIC "-//W3C//DTD SVG 1.1//EN" "http://www.w3.org/Graphics/SVG/1.1/DTD/svg11.dtd">
<svg version="1.1" xmlns="http://www.w3.org/2000/svg" xmlns:xlink="http://www.w3.org/1999/xlink" width="48" height="48" viewBox="0 0 48 48">
<path d="M36.165 15c0.85-0.604 1.665-1.276 2.411-2.023 1.566-1.566 2.613-3.492 2.949-5.425 0.368-2.118-0.172-4.085-1.483-5.396-1.045-1.045-2.462-1.597-4.095-1.597-2.326 0-4.777 1.117-6.724 3.064-3.116 3.116-4.933 7.417-5.91 10.487-0.724-3.085-2.166-7.249-4.97-10.053-1.505-1.504-3.428-2.277-5.243-2.277-1.483 0-2.896 0.516-3.95 1.57-2.343 2.343-2.026 6.459 0.707 9.193 0.975 0.975 2.114 1.784 3.315 2.457h-10.173v12h3v21h36v-21h3v-12h-8.835zM31.609 6.010c1.3-1.3 2.921-2.075 4.338-2.075 0.502 0 1.205 0.106 1.709 0.609 1.22 1.22 0.535 4.045-1.466 6.046-2.060 2.060-4.831 3.477-7.239 4.409h-2.375c0.87-2.698 2.44-6.396 5.034-8.989zM10.966 7.542c-0.033-0.428-0.002-1.23 0.572-1.805 0.48-0.48 1.115-0.581 1.563-0.581v0c0.997 0 2.038 0.47 2.856 1.289 1.588 1.588 2.895 4.114 3.781 7.307 0.024 0.086 0.047 0.172 0.070 0.257-0.085-0.023-0.171-0.046-0.257-0.070-3.192-0.886-5.719-2.194-7.306-3.781-0.742-0.742-1.208-1.695-1.279-2.615zM21 45h-12v-19.5h12v19.5zM21 24h-15v-6h15v6zM39 45h-12v-19.5h12v19.5zM42 24h-15v-6h15v6z" fill="#444444"></path>
</svg>
