<?xml version="1.0" encoding="utf-8"?>
<!-- Generated by IcoMoon.io -->
<!DOCTYPE svg PUBLIC "-//W3C//DTD SVG 1.1//EN" "http://www.w3.org/Graphics/SVG/1.1/DTD/svg11.dtd">
<svg version="1.1" xmlns="http://www.w3.org/2000/svg" xmlns:xlink="http://www.w3.org/1999/xlink" width="48" height="48" viewBox="0 0 48 48">
<path d="M47.095 21.862l-20.958-20.956c-1.207-1.208-3.163-1.208-4.372 0l-4.87 4.869 3.665 3.665c0.587-0.281 1.245-0.439 1.94-0.439 2.486 0 4.5 2.014 4.5 4.5 0 0.694-0.157 1.352-0.439 1.94l5.998 5.998c0.587-0.281 1.245-0.439 1.94-0.439 2.486 0 4.5 2.015 4.5 4.5s-2.014 4.5-4.5 4.5-4.5-2.014-4.5-4.5c0-0.694 0.157-1.352 0.439-1.94l-5.998-5.998c-0.142 0.068-0.29 0.128-0.44 0.181v12.514c1.747 0.618 3 2.284 3 4.243 0 2.486-2.014 4.5-4.5 4.5s-4.5-2.014-4.5-4.5c0-1.959 1.253-3.625 3-4.243v-12.515c-1.747-0.618-3-2.284-3-4.243 0-0.694 0.157-1.352 0.439-1.94l-3.664-3.664-13.87 13.869c-1.207 1.208-1.207 3.166 0 4.372l20.959 20.957c1.207 1.207 3.163 1.207 4.372 0l20.86-20.86c1.207-1.207 1.207-3.166 0-4.373z" fill="#444444"></path>
</svg>
