<?xml version="1.0" encoding="utf-8"?>
<!-- Generated by IcoMoon.io -->
<!DOCTYPE svg PUBLIC "-//W3C//DTD SVG 1.1//EN" "http://www.w3.org/Graphics/SVG/1.1/DTD/svg11.dtd">
<svg version="1.1" xmlns="http://www.w3.org/2000/svg" xmlns:xlink="http://www.w3.org/1999/xlink" width="48" height="48" viewBox="0 0 48 48">
<path d="M11.029 11.659c-2.381 0-4.429 0.787-6.145 2.363-1.785 1.681-2.678 3.781-2.678 6.302 0 1.681 0.486 3.256 1.467 4.726 0.875 1.365 1.789 2.241 2.99 2.627v0.105c-1.2 0.49-1.732 1.715-1.732 3.676 0 1.506 0.533 2.626 1.732 3.361v0.105c-3.312 1.085-4.828 3.098-4.828 6.039 0 2.556 1.113 4.429 3.284 5.619 1.715 0.946 3.918 1.418 6.579 1.418 6.477 0 9.722-2.714 9.722-8.14 0-3.396-2.5-5.479-7.506-6.249-1.155-0.175-2.029-0.595-2.624-1.261-0.455-0.455-0.682-0.911-0.682-1.365 0-1.295 0.701-2.048 2.101-2.258 2.135-0.315 3.878-1.304 5.226-2.967s2.022-3.615 2.022-5.855c0-0.701-0.211-1.453-0.491-2.258 0.91-0.21 1.55-0.403 2.030-0.578v-5.409c-2.112 0.84-4.078 1.26-5.759 1.26-1.471-0.84-2.992-1.26-4.707-1.26zM11.606 37.864c2.941 0 4.412 0.892 4.412 2.678 0 1.891-1.348 2.836-4.044 2.836-3.081 0-4.621-0.91-4.621-2.731 0-1.855 1.418-2.783 4.254-2.783zM11.239 24c-2.206 0-3.309-1.207-3.309-3.624 0-2.59 1.103-3.886 3.309-3.886 1.050 0 1.873 0.403 2.468 1.207 0.49 0.736 0.736 1.611 0.736 2.626 0 2.45-1.068 3.677-3.203 3.677zM27.206 0c-1.015 0-1.882 0.385-2.599 1.155s-1.077 1.698-1.077 2.783c0 1.051 0.359 1.961 1.077 2.731s1.584 1.155 2.599 1.155c0.98 0 1.829-0.385 2.547-1.155s1.076-1.68 1.076-2.731c0-1.085-0.359-2.013-1.076-2.783s-1.567-1.155-2.547-1.155zM30.147 12h-5.935c0.070 0.672-0.030 1.69-0.030 3.334v16.333c0 1.681 0.1 3.036 0.030 3.564h5.935c-0.071-0.767-0.253-2.094-0.253-3.879v-16.123c0-1.54 0.182-2.557 0.253-3.229zM43.234 30.197c-1.54 0-2.301-1.173-2.301-3.519v-9.686h2.338c0.42 0 0.799-0.023 1.271 0.011s0.664 0.012 0.904 0.012v-5.015h-4.512v-2.232c0-0.84 0.132-1.608 0.237-2.088h-6.091c0.105 0.48 0.095 1.213 0.095 2.193v2.126h-2.64v5.015c0.72-0.105 1.363-0.157 1.819-0.157l0.821 0.053v9.505c0 2.941 0.373 5.094 1.108 6.459 0.981 1.821 2.701 2.731 5.256 2.731 1.821 0 3.428-0.35 4.627-1.051v-5.252c-0.96 0.595-1.846 0.893-2.931 0.893z" fill="#444444"></path>
</svg>
