<?xml version="1.0" encoding="utf-8"?>
<!-- Generated by IcoMoon.io -->
<!DOCTYPE svg PUBLIC "-//W3C//DTD SVG 1.1//EN" "http://www.w3.org/Graphics/SVG/1.1/DTD/svg11.dtd">
<svg version="1.1" xmlns="http://www.w3.org/2000/svg" xmlns:xlink="http://www.w3.org/1999/xlink" width="48" height="48" viewBox="0 0 48 48">
<path d="M24 0c-13.255 0-24 10.745-24 24s10.745 24 24 24 24-10.745 24-24-10.745-24-24-24zM38.253 38.253c-1.852 1.852-4.008 3.306-6.408 4.322-0.61 0.258-1.229 0.484-1.856 0.679v-3.597c0-1.891-0.649-3.281-1.946-4.172 0.812-0.078 1.559-0.188 2.238-0.329s1.399-0.343 2.156-0.61 1.438-0.582 2.039-0.95 1.18-0.844 1.735-1.429 1.019-1.25 1.394-1.992 0.672-1.633 0.891-2.672 0.329-2.184 0.329-3.434c0-2.422-0.789-4.484-2.367-6.188 0.718-1.875 0.64-3.914-0.235-6.117l-0.586-0.070c-0.407-0.047-1.137 0.125-2.191 0.516s-2.238 1.031-3.551 1.922c-1.859-0.516-3.789-0.773-5.789-0.773-2.016 0-3.938 0.258-5.766 0.773-0.828-0.563-1.613-1.028-2.356-1.394s-1.336-0.617-1.781-0.75-0.86-0.215-1.242-0.246-0.629-0.039-0.738-0.023-0.188 0.031-0.235 0.047c-0.875 2.218-0.953 4.258-0.235 6.117-1.578 1.703-2.367 3.766-2.367 6.188 0 1.25 0.11 2.395 0.329 3.434s0.516 1.93 0.891 2.672 0.84 1.406 1.394 1.992 1.133 1.063 1.735 1.429 1.281 0.683 2.039 0.95 1.477 0.469 2.156 0.61 1.426 0.25 2.238 0.328c-1.281 0.875-1.922 2.266-1.922 4.172v3.667c-0.708-0.211-1.405-0.46-2.091-0.749-2.4-1.015-4.556-2.469-6.408-4.322s-3.306-4.009-4.322-6.408c-1.050-2.483-1.583-5.122-1.583-7.844s0.532-5.362 1.582-7.844c1.015-2.4 2.469-4.556 4.322-6.408s4.008-3.306 6.408-4.321c2.482-1.050 5.122-1.583 7.844-1.583s5.362 0.532 7.844 1.582c2.4 1.015 4.555 2.469 6.408 4.322s3.306 4.009 4.322 6.408c1.050 2.482 1.582 5.122 1.582 7.844s-0.532 5.362-1.582 7.844c-1.015 2.4-2.469 4.555-4.322 6.408z" fill="#444444"></path>
</svg>
