<?xml version="1.0" encoding="utf-8"?>
<!-- Generated by IcoMoon.io -->
<!DOCTYPE svg PUBLIC "-//W3C//DTD SVG 1.1//EN" "http://www.w3.org/Graphics/SVG/1.1/DTD/svg11.dtd">
<svg version="1.1" xmlns="http://www.w3.org/2000/svg" xmlns:xlink="http://www.w3.org/1999/xlink" width="48" height="48" viewBox="0 0 48 48">
<path d="M24.001 0.593c-13.253 0-24.001 10.745-24.001 24 0 10.603 6.877 19.6 16.413 22.774 1.199 0.222 1.64-0.521 1.64-1.154 0-0.572-0.023-2.463-0.033-4.469-6.677 1.452-8.086-2.832-8.086-2.832-1.091-2.774-2.665-3.511-2.665-3.511-2.177-1.489 0.164-1.459 0.164-1.459 2.41 0.169 3.679 2.474 3.679 2.474 2.141 3.669 5.615 2.608 6.985 1.995 0.215-1.551 0.837-2.61 1.524-3.209-5.331-0.607-10.935-2.665-10.935-11.861 0-2.62 0.938-4.761 2.473-6.442-0.249-0.605-1.071-3.046 0.232-6.352 0 0 2.016-0.645 6.601 2.461 1.914-0.532 3.968-0.799 6.008-0.808 2.039 0.009 4.094 0.276 6.012 0.808 4.581-3.105 6.593-2.461 6.593-2.461 1.306 3.306 0.485 5.747 0.236 6.352 1.538 1.681 2.47 3.822 2.47 6.442 0 9.218-5.614 11.248-10.959 11.842 0.861 0.745 1.628 2.205 1.628 4.445 0 3.211-0.028 5.796-0.028 6.586 0 0.639 0.432 1.388 1.649 1.151 9.531-3.177 16.399-12.17 16.399-22.771 0-13.255-10.745-24-24-24z" fill="#444444"></path>
</svg>
