<?xml version="1.0" encoding="utf-8"?>
<!-- Generated by IcoMoon.io -->
<!DOCTYPE svg PUBLIC "-//W3C//DTD SVG 1.1//EN" "http://www.w3.org/Graphics/SVG/1.1/DTD/svg11.dtd">
<svg version="1.1" xmlns="http://www.w3.org/2000/svg" xmlns:xlink="http://www.w3.org/1999/xlink" width="48" height="48" viewBox="0 0 48 48">
<path d="M24 38.995c-0.898 0-1.795-0.465-2.726-1.394-0.366-0.366-0.366-0.96 0-1.326s0.96-0.366 1.326 0c0.572 0.572 1.030 0.85 1.399 0.85s0.827-0.278 1.399-0.85c0.366-0.366 0.959-0.366 1.326 0s0.366 0.96 0 1.326c-0.93 0.929-1.828 1.394-2.726 1.394zM0 24.632c0 2.338 0.2 4.459 0.6 6.36s0.962 3.55 1.687 4.947c0.725 1.397 1.642 2.62 2.75 3.672s2.312 1.918 3.613 2.599c1.3 0.681 2.788 1.233 4.463 1.653s3.379 0.715 5.113 0.883 3.642 0.253 5.725 0.253c2.084 0 3.996-0.084 5.737-0.252s3.45-0.463 5.125-0.883c1.675-0.421 3.166-0.972 4.475-1.653s2.521-1.548 3.638-2.6c1.117-1.051 2.038-2.275 2.762-3.672s1.291-3.046 1.7-4.947c0.408-1.901 0.613-4.022 0.613-6.36 0-4.189-1.3-7.799-3.9-10.827 0.15-0.403 0.279-0.866 0.388-1.388s0.212-1.258 0.312-2.208c0.1-0.951 0.063-2.049-0.113-3.293s-0.504-2.516-0.988-3.811l-0.375-0.076c-0.25-0.050-0.658-0.034-1.225 0.050s-1.229 0.236-1.987 0.454c-0.758 0.219-1.738 0.652-2.938 1.3s-2.467 1.468-3.8 2.461c-2.266-0.69-5.392-1.412-9.375-1.412s-7.117 0.722-9.4 1.412c-1.333-0.993-2.604-1.809-3.812-2.448s-2.175-1.077-2.9-1.313c-0.725-0.236-1.396-0.387-2.012-0.454s-1.013-0.088-1.187-0.063c-0.175 0.025-0.304 0.055-0.388 0.089-0.484 1.296-0.817 2.566-1 3.812s-0.225 2.338-0.125 3.281c0.1 0.942 0.208 1.683 0.325 2.221s0.25 1.001 0.4 1.388c-2.6 3.012-3.9 6.621-3.9 10.827zM6.401 29.972c0-2.72 1-5.186 3-7.4 0.6-0.675 1.296-1.186 2.087-1.533s1.692-0.544 2.7-0.591 1.971-0.038 2.888 0.029c0.916 0.066 2.050 0.154 3.4 0.267s2.516 0.169 3.5 0.169c0.983 0 2.15-0.056 3.5-0.169s2.483-0.202 3.401-0.267c0.916-0.065 1.88-0.075 2.888-0.029s1.912 0.244 2.713 0.591c0.8 0.346 1.5 0.858 2.1 1.533 1.999 2.213 3 4.68 3 7.4 0 1.594-0.166 3.015-0.5 4.262s-0.755 2.293-1.262 3.137c-0.508 0.845-1.221 1.557-2.138 2.138s-1.804 1.032-2.662 1.351c-0.859 0.319-1.967 0.568-3.325 0.745s-2.575 0.286-3.65 0.323c-1.075 0.038-2.429 0.056-4.062 0.056s-2.984-0.019-4.050-0.056c-1.066-0.037-2.279-0.145-3.637-0.323s-2.467-0.427-3.325-0.745c-0.858-0.319-1.746-0.769-2.662-1.351s-1.629-1.294-2.138-2.138c-0.508-0.844-0.929-1.889-1.262-3.137s-0.5-2.668-0.5-4.262zM12 28.5c0-2.486 1.343-4.5 3-4.5s3 2.014 3 4.5c0 2.486-1.343 4.5-3 4.5s-3-2.014-3-4.5zM30 28.5c0-2.486 1.343-4.5 3-4.5s3 2.014 3 4.5c0 2.486-1.343 4.5-3 4.5s-3-2.014-3-4.5z" fill="#444444"></path>
</svg>
