<?xml version="1.0" encoding="utf-8"?>
<!-- Generated by IcoMoon.io -->
<!DOCTYPE svg PUBLIC "-//W3C//DTD SVG 1.1//EN" "http://www.w3.org/Graphics/SVG/1.1/DTD/svg11.dtd">
<svg version="1.1" xmlns="http://www.w3.org/2000/svg" xmlns:xlink="http://www.w3.org/1999/xlink" width="48" height="48" viewBox="0 0 48 48">
<path d="M0 26.082c0 2.175 0.203 4.143 0.61 5.903s0.971 3.29 1.69 4.588 1.635 2.441 2.747 3.427c1.111 0.986 2.316 1.792 3.614 2.418s2.782 1.134 4.448 1.525c1.667 0.392 3.368 0.665 5.105 0.822s3.646 0.235 5.727 0.235c2.097 0 4.014-0.078 5.75-0.235s3.442-0.431 5.117-0.822 3.165-0.9 4.471-1.526c1.306-0.626 2.519-1.432 3.638-2.418s2.042-2.129 2.77-3.427 1.294-2.828 1.702-4.589c0.407-1.76 0.611-3.728 0.611-5.903 0-3.881-1.299-7.238-3.896-10.070 0.141-0.376 0.27-0.802 0.387-1.279s0.227-1.158 0.329-2.042c0.102-0.884 0.063-1.905-0.118-3.063s-0.512-2.339-0.998-3.544l-0.352-0.070c-0.251-0.047-0.662-0.035-1.232 0.035s-1.236 0.212-1.995 0.422c-0.759 0.212-1.737 0.618-2.934 1.22s-2.461 1.357-3.791 2.265c-2.285-0.626-5.422-0.939-9.413-0.939-3.975 0-7.104 0.313-9.389 0.939-1.33-0.907-2.602-1.663-3.815-2.265s-2.179-1.010-2.899-1.22c-0.72-0.212-1.393-0.348-2.018-0.411s-1.021-0.082-1.185-0.058-0.293 0.051-0.387 0.082c-0.485 1.205-0.817 2.386-0.997 3.544s-0.219 2.179-0.118 3.063 0.212 1.564 0.328 2.042c0.118 0.477 0.247 0.904 0.387 1.28-2.597 2.832-3.896 6.189-3.896 10.069zM5.891 31.973c0-2.253 1.025-4.319 3.075-6.197 0.611-0.563 1.322-0.99 2.136-1.28s1.733-0.454 2.758-0.493c1.025-0.039 2.007-0.032 2.946 0.023s2.097 0.129 3.474 0.223c1.377 0.094 2.566 0.141 3.568 0.141s2.191-0.047 3.568-0.141c1.377-0.094 2.535-0.168 3.474-0.223s1.921-0.063 2.946-0.023c1.025 0.039 1.944 0.203 2.758 0.493s1.526 0.716 2.136 1.28c2.050 1.847 3.075 3.912 3.075 6.197 0 1.345-0.168 2.539-0.505 3.58s-0.767 1.913-1.291 2.617-1.252 1.303-2.183 1.796c-0.931 0.493-1.838 0.872-2.722 1.138s-2.019 0.473-3.404 0.622c-1.385 0.148-2.621 0.238-3.709 0.27s-2.468 0.047-4.143 0.047-3.056-0.016-4.143-0.047c-1.088-0.032-2.324-0.121-3.709-0.27s-2.519-0.356-3.404-0.622c-0.884-0.266-1.792-0.646-2.722-1.138s-1.659-1.091-2.183-1.796c-0.524-0.704-0.955-1.576-1.291-2.617s-0.505-2.233-0.505-3.58zM30 31.5c0-2.486 1.343-4.5 3-4.5s3 2.014 3 4.5c0 2.486-1.343 4.5-3 4.5s-3-2.014-3-4.5zM12 31.5c0-2.486 1.343-4.5 3-4.5s3 2.014 3 4.5c0 2.486-1.343 4.5-3 4.5s-3-2.014-3-4.5z" fill="#444444"></path>
</svg>
