<?xml version="1.0" encoding="utf-8"?>
<!-- Generated by IcoMoon.io -->
<!DOCTYPE svg PUBLIC "-//W3C//DTD SVG 1.1//EN" "http://www.w3.org/Graphics/SVG/1.1/DTD/svg11.dtd">
<svg version="1.1" xmlns="http://www.w3.org/2000/svg" xmlns:xlink="http://www.w3.org/1999/xlink" width="48" height="48" viewBox="0 0 48 48">
<path d="M0.038 40.766c-0.011-0.119-0.021-0.238-0.027-0.358 0.006 0.12 0.016 0.239 0.027 0.358zM11.058 26.492c4.313 0.128 7.206-4.346 6.462-9.994s-4.846-10.18-9.16-10.309c-4.314-0.128-7.207 4.195-6.462 9.844 0.745 5.647 4.845 10.33 9.159 10.459zM48 12v-3.999c0-4.4-3.599-8.001-7.999-8.001h-31.999c-4.325 0-7.876 3.479-7.995 7.777 2.736-2.409 6.531-4.421 10.448-4.421 4.186 0 16.746 0 16.746 0l-3.748 3.17h-5.309c3.522 1.35 5.398 5.443 5.398 9.644 0 3.527-1.96 6.56-4.729 8.717-2.702 2.104-3.214 2.986-3.214 4.775 0 1.527 2.894 4.125 4.408 5.193 4.424 3.119 5.855 6.015 5.855 10.85 0 0.77-0.096 1.539-0.284 2.295h14.425c4.4 0 7.999-3.598 7.999-8.001v-24.999h-9v9h-3v-9h-9v-3h9v-9h3v9h9zM8.713 35.903c1.013 0 1.942-0.028 2.903-0.028-1.273-1.234-2.279-2.747-2.279-4.612 0-1.106 0.355-2.172 0.85-3.118-0.506 0.036-1.022 0.046-1.553 0.046-3.485 0-6.445-1.129-8.635-2.993v12.608c2.505-1.19 5.479-1.904 8.713-1.904zM0.161 41.59c-0.053-0.256-0.092-0.516-0.119-0.78 0.027 0.264 0.067 0.524 0.119 0.78zM21.349 44.665c-0.706-2.756-3.208-4.123-6.697-6.542-1.269-0.41-2.667-0.65-4.167-0.666-4.201-0.045-8.114 1.638-10.323 4.142 0.746 3.643 3.986 6.401 7.839 6.401h13.427c0.085-0.522 0.127-1.061 0.127-1.614 0-0.587-0.072-1.162-0.205-1.721z" fill="#444444"></path>
</svg>
