<?xml version="1.0" encoding="utf-8"?>
<!-- Generated by IcoMoon.io -->
<!DOCTYPE svg PUBLIC "-//W3C//DTD SVG 1.1//EN" "http://www.w3.org/Graphics/SVG/1.1/DTD/svg11.dtd">
<svg version="1.1" xmlns="http://www.w3.org/2000/svg" xmlns:xlink="http://www.w3.org/1999/xlink" width="48" height="48" viewBox="0 0 48 48">
<path d="M20.485 38.351c0 3.519-2.174 6.3-8.332 6.523-3.608-2.053-6.632-5.013-8.761-8.572 1.111-2.742 4.579-4.83 8.546-4.786 1.126 0.012 2.176 0.193 3.129 0.502 2.62 1.822 4.735 2.96 5.265 5.036 0.099 0.42 0.154 0.854 0.154 1.296zM24 0c-6.934 0-13.181 2.942-17.563 7.646 1.731-0.958 3.775-1.53 5.948-1.53 3.144 0 12.020 0 12.020 0l-2.686 2.819h-3.155c2.226 1.276 3.41 3.902 3.41 6.797 0 2.657-1.472 4.799-3.552 6.425-2.029 1.585-2.414 2.248-2.414 3.597 0 1.15 2.425 2.864 3.539 3.7 3.882 2.911 4.668 4.743 4.668 8.384 0 3.69-3.232 7.364-8.713 8.613 2.641 1.001 5.504 1.55 8.496 1.55 13.255 0 24-10.745 24-24s-10.745-24-24-24zM36 18v6h-3v-6h-6v-3h6v-6h3v6h6v3h-6zM17.145 15.913c0.559 4.256-1.305 6.993-4.543 6.897-3.24-0.098-6.319-3.070-6.878-7.324-0.559-4.255 1.613-7.512 4.853-7.415 3.239 0.098 6.011 3.588 6.569 7.843zM10.354 30.097c-3.501 0-6.475 1.208-8.571 2.994-1.148-2.804-1.784-5.873-1.784-9.091 0-2.661 0.434-5.22 1.234-7.612 0.346 4.661 3.626 8.259 9.046 8.259 0.399 0 0.786-0.021 1.166-0.048-0.373 0.714-0.638 1.509-0.638 2.343 0 1.405 0.772 2.206 1.728 3.136-0.722 0-1.419 0.020-2.18 0.020z" fill="#444444"></path>
</svg>
