<?xml version="1.0" encoding="utf-8"?>
<!-- Generated by IcoMoon.io -->
<!DOCTYPE svg PUBLIC "-//W3C//DTD SVG 1.1//EN" "http://www.w3.org/Graphics/SVG/1.1/DTD/svg11.dtd">
<svg version="1.1" xmlns="http://www.w3.org/2000/svg" xmlns:xlink="http://www.w3.org/1999/xlink" width="48" height="48" viewBox="0 0 48 48">
<path d="M26.206 3c0 0-9.42 0-12.559 0-5.631 0-10.93 4.266-10.93 9.207 0 5.050 3.839 9.125 9.566 9.125 0.398 0 0.785-0.008 1.165-0.035-0.372 0.712-0.638 1.514-0.638 2.346 0 1.403 0.755 2.541 1.709 3.47-0.721 0-1.418 0.021-2.177 0.021-6.974 0-12.342 4.441-12.342 9.048 0 4.537 5.885 7.374 12.86 7.374 7.952 0 12.343-4.511 12.343-9.048 0-3.638-1.073-5.816-4.391-8.162-1.136-0.804-3.306-2.758-3.306-3.907 0-1.346 0.384-2.009 2.41-3.593 2.078-1.623 3.547-3.904 3.547-6.559 0-3.16-1.407-6.239-4.049-7.255h3.982l2.811-2.032zM21.82 33.724c0.1 0.421 0.154 0.854 0.154 1.295 0 3.666-2.362 6.53-9.139 6.53-4.821 0-8.303-3.052-8.303-6.717 0-3.592 4.318-6.583 9.139-6.531 1.125 0.012 2.173 0.193 3.125 0.501 2.617 1.82 4.494 2.849 5.024 4.922zM14.101 20.052c-3.236-0.097-6.311-3.62-6.869-7.868-0.559-4.25 1.611-7.502 4.847-7.405s6.311 3.507 6.87 7.756-1.612 7.616-4.847 7.518zM39 12v-9h-3v9h-9v3h9v9h3v-9h9v-3z" fill="#444444"></path>
</svg>
