<?xml version="1.0" encoding="utf-8"?>
<!-- Generated by IcoMoon.io -->
<!DOCTYPE svg PUBLIC "-//W3C//DTD SVG 1.1//EN" "http://www.w3.org/Graphics/SVG/1.1/DTD/svg11.dtd">
<svg version="1.1" xmlns="http://www.w3.org/2000/svg" xmlns:xlink="http://www.w3.org/1999/xlink" width="48" height="48" viewBox="0 0 48 48">
<path d="M16 20h-6v-6h-4v6h-6v4h6v6h4v-6h6v-4zM36 22c3.31 0 5.98-2.69 5.98-6s-2.67-6-5.98-6c-0.64 0-1.25 0.1-1.83 0.29 1.13 1.62 1.81 3.59 1.81 5.71s-0.68 4.090-1.81 5.71c0.58 0.19 1.19 0.29 1.83 0.29zM26 22c3.31 0 5.98-2.69 5.98-6s-2.67-6-5.98-6c-3.31 0-6 2.69-6 6s2.69 6 6 6zM39.24 26.32c1.66 1.45 2.76 3.32 2.76 5.68v4h6v-4c0-3.080-4.75-4.97-8.76-5.68zM26 26c-4 0-12 2-12 6v4h24v-4c0-4-8-6-12-6z" fill="#444444"></path>
</svg>
