<?xml version="1.0" encoding="utf-8"?>
<!-- Generated by IcoMoon.io -->
<!DOCTYPE svg PUBLIC "-//W3C//DTD SVG 1.1//EN" "http://www.w3.org/Graphics/SVG/1.1/DTD/svg11.dtd">
<svg version="1.1" xmlns="http://www.w3.org/2000/svg" xmlns:xlink="http://www.w3.org/1999/xlink" width="48" height="48" viewBox="0 0 48 48">
<path d="M32 22c3.31 0 5.98-2.69 5.98-6s-2.67-6-5.98-6c-3.31 0-6 2.69-6 6s2.69 6 6 6zM16 22c3.31 0 5.98-2.69 5.98-6s-2.67-6-5.98-6c-3.31 0-6 2.69-6 6s2.69 6 6 6zM16 26c-4.67 0-14 2.34-14 7v5h28v-5c0-4.66-9.33-7-14-7zM32 26c-0.58 0-1.23 0.040-1.93 0.11 2.32 1.67 3.93 3.92 3.93 6.89v5h12v-5c0-4.66-9.33-7-14-7z" fill="#444444"></path>
</svg>
