<?xml version="1.0" encoding="utf-8"?>
<!-- Generated by IcoMoon.io -->
<!DOCTYPE svg PUBLIC "-//W3C//DTD SVG 1.1//EN" "http://www.w3.org/Graphics/SVG/1.1/DTD/svg11.dtd">
<svg version="1.1" xmlns="http://www.w3.org/2000/svg" xmlns:xlink="http://www.w3.org/1999/xlink" width="48" height="48" viewBox="0 0 48 48">
<path d="M35.46 24.040l7.96-7.96c0.78-0.78 0.78-2.050 0-2.83l-8.67-8.67c-0.78-0.78-2.050-0.78-2.83 0l-7.96 7.96-7.96-7.95c-0.39-0.39-0.9-0.59-1.41-0.59s-1.020 0.2-1.41 0.59l-8.68 8.67c-0.78 0.78-0.78 2.050 0 2.83l7.96 7.96-7.96 7.95c-0.78 0.78-0.78 2.050 0 2.83l8.67 8.67c0.78 0.78 2.050 0.78 2.83 0l7.96-7.96 7.96 7.96c0.39 0.39 0.9 0.59 1.41 0.59s1.020-0.2 1.41-0.59l8.67-8.67c0.78-0.78 0.78-2.050 0-2.83l-7.95-7.96zM24 18c1.1 0 2 0.9 2 2s-0.9 2-2 2-2-0.9-2-2 0.9-2 2-2zM14.58 21.92l-7.25-7.25 7.26-7.26 7.25 7.25-7.26 7.26zM20 26c-1.1 0-2-0.9-2-2s0.9-2 2-2 2 0.9 2 2-0.9 2-2 2zM24 30c-1.1 0-2-0.9-2-2s0.9-2 2-2 2 0.9 2 2-0.9 2-2 2zM28 22c1.1 0 2 0.9 2 2s-0.9 2-2 2-2-0.9-2-2 0.9-2 2-2zM33.33 40.67l-7.25-7.25 7.26-7.26 7.25 7.25-7.26 7.26z" fill="#444444"></path>
</svg>
