<?xml version="1.0" encoding="utf-8"?>
<!-- Generated by IcoMoon.io -->
<!DOCTYPE svg PUBLIC "-//W3C//DTD SVG 1.1//EN" "http://www.w3.org/Graphics/SVG/1.1/DTD/svg11.dtd">
<svg version="1.1" xmlns="http://www.w3.org/2000/svg" xmlns:xlink="http://www.w3.org/1999/xlink" width="48" height="48" viewBox="0 0 48 48">
<path d="M34 40c-0.57 0-1.13-0.12-1.53-0.3-1.41-0.75-2.43-1.77-3.42-4.77-1.030-3.11-2.94-4.58-4.79-6.010-1.58-1.22-3.22-2.48-4.63-5.050-1.050-1.92-1.63-4.010-1.63-5.87 0-5.61 4.39-10 10-10s10 4.39 10 10h4c0-7.85-6.15-14-14-14s-14 6.15-14 14c0 2.53 0.76 5.3 2.13 7.8 1.82 3.31 3.97 4.96 5.7 6.3 1.62 1.25 2.79 2.15 3.43 4.090 1.2 3.63 2.75 5.68 5.45 7.1 1.040 0.47 2.14 0.71 3.29 0.71 4.41 0 8-3.59 8-8h-4c0 2.21-1.79 4-4 4zM15.27 5.27l-2.83-2.83c-3.98 3.98-6.44 9.48-6.44 15.56s2.46 11.58 6.44 15.56l2.83-2.83c-3.26-3.26-5.27-7.76-5.27-12.73s2.010-9.47 5.27-12.73zM23 18c0 2.76 2.24 5 5 5s5-2.24 5-5-2.24-5-5-5-5 2.24-5 5z" fill="#444444"></path>
</svg>
