<?xml version="1.0" encoding="utf-8"?>
<!-- Generated by IcoMoon.io -->
<!DOCTYPE svg PUBLIC "-//W3C//DTD SVG 1.1//EN" "http://www.w3.org/Graphics/SVG/1.1/DTD/svg11.dtd">
<svg version="1.1" xmlns="http://www.w3.org/2000/svg" xmlns:xlink="http://www.w3.org/1999/xlink" width="48" height="48" viewBox="0 0 48 48">
<path d="M38 8h-28c-2.21 0-4 1.79-4 4v24c0 2.21 1.79 4 4 4h28c2.21 0 4-1.79 4-4v-24c0-2.21-1.79-4-4-4zM22 30h-3v-4h-4v4h-3v-12h3v5h4v-5h3v12zM36 28c0 1.1-0.89 2-2 2h-1.5v3h-3v-3h-1.5c-1.11 0-2-0.9-2-2v-8c0-1.1 0.89-2 2-2h6c1.11 0 2 0.9 2 2v8zM29 27h4v-6h-4v6z" fill="#444444"></path>
</svg>
