<?xml version="1.0" encoding="utf-8"?>
<!-- Generated by IcoMoon.io -->
<!DOCTYPE svg PUBLIC "-//W3C//DTD SVG 1.1//EN" "http://www.w3.org/Graphics/SVG/1.1/DTD/svg11.dtd">
<svg version="1.1" xmlns="http://www.w3.org/2000/svg" xmlns:xlink="http://www.w3.org/1999/xlink" width="48" height="48" viewBox="0 0 48 48">
<path d="M34.171 24c6.458-4.093 10.829-11.962 10.829-21 0-1.016-0.056-2.018-0.163-3h-41.674c-0.107 0.983-0.163 1.984-0.163 3 0 9.038 4.371 16.907 10.828 21-6.457 4.093-10.829 11.963-10.829 21 0 1.016 0.055 2.017 0.163 3h41.674c0.107-0.983 0.163-1.984 0.163-3 0-9.037-4.371-16.907-10.828-21zM7.5 45c0-8.761 3.758-16.191 10.5-18.643v-4.715c-6.742-2.451-10.5-9.881-10.5-18.643v0h33c0 8.761-3.758 16.191-10.5 18.643v4.715c6.742 2.451 10.5 9.881 10.5 18.643h-33zM29.045 31.388c-3.358-1.905-3.544-4.376-3.545-5.876v-3.011c0-1.5 0.178-3.98 3.55-5.89 1.805-1.048 3.366-2.641 4.55-4.61h-19.199c1.184 1.97 2.747 3.565 4.555 4.613 3.358 1.905 3.544 4.376 3.545 5.876v3.011c0 1.499-0.178 3.98-3.55 5.89-3.404 1.977-5.941 5.891-6.707 10.61h23.516c-0.767-4.721-3.306-8.637-6.713-10.613z" fill="#444444"></path>
</svg>
