<?xml version="1.0" encoding="utf-8"?>
<!-- Generated by IcoMoon.io -->
<!DOCTYPE svg PUBLIC "-//W3C//DTD SVG 1.1//EN" "http://www.w3.org/Graphics/SVG/1.1/DTD/svg11.dtd">
<svg version="1.1" xmlns="http://www.w3.org/2000/svg" xmlns:xlink="http://www.w3.org/1999/xlink" width="48" height="48" viewBox="0 0 48 48">
<path d="M34.416 29.477h11.065c0.085-0.767 0.119-1.552 0.119-2.353 0-3.761-1.010-7.288-2.771-10.325 1.822-4.843 1.757-8.953-0.682-11.409-2.32-2.31-8.545-1.935-15.582 1.181-0.521-0.040-1.046-0.059-1.576-0.059-9.658 0-17.762 6.646-20.002 15.602 3.030-3.879 6.217-6.692 10.475-8.74-0.387 0.363-2.646 2.609-3.026 2.989-11.229 11.225-14.77 25.889-10.96 29.7 2.897 2.896 8.145 2.407 14.174-0.546 2.803 1.428 5.977 2.233 9.338 2.233 9.053 0 16.725-5.828 19.505-13.943h-11.15c-1.535 2.831-4.535 4.757-7.979 4.757s-6.445-1.927-7.979-4.757c-0.682-1.279-1.074-2.745-1.074-4.297v-0.034h18.106zM16.327 24.037c0.256-4.552 4.040-8.184 8.661-8.184s8.405 3.632 8.661 8.184h-17.322zM42.045 7.678c1.571 1.588 1.532 4.51 0.188 8.157-2.303-3.512-5.649-6.278-9.6-7.858 4.224-1.811 7.66-2.051 9.412-0.299zM4.382 45.34c-2.006-2.006-1.401-6.217 1.183-11.289 1.608 4.513 4.742 8.301 8.782 10.741-4.473 2.030-8.134 2.375-9.964 0.547z" fill="#444444"></path>
</svg>
