<?xml version="1.0" encoding="utf-8"?>
<!-- Generated by IcoMoon.io -->
<!DOCTYPE svg PUBLIC "-//W3C//DTD SVG 1.1//EN" "http://www.w3.org/Graphics/SVG/1.1/DTD/svg11.dtd">
<svg version="1.1" xmlns="http://www.w3.org/2000/svg" xmlns:xlink="http://www.w3.org/1999/xlink" width="48" height="48" viewBox="0 0 48 48">
<path d="M32 20h-4v4h4v-4zM32 28h-4v4h4v-4zM16 20h-4v4h4v-4zM24 20h-4v4h4v-4zM40 8h-32c-2.21 0-4 1.79-4 4v24c0 2.21 1.79 4 4 4h32c2.21 0 4-1.79 4-4v-24c0-2.21-1.79-4-4-4zM40 36h-32v-24h32v24z" fill="#444444"></path>
</svg>
