<?xml version="1.0" encoding="utf-8"?>
<!-- Generated by IcoMoon.io -->
<!DOCTYPE svg PUBLIC "-//W3C//DTD SVG 1.1//EN" "http://www.w3.org/Graphics/SVG/1.1/DTD/svg11.dtd">
<svg version="1.1" xmlns="http://www.w3.org/2000/svg" xmlns:xlink="http://www.w3.org/1999/xlink" width="48" height="48" viewBox="0 0 48 48">
<path d="M38 6h-28.020c-2.21 0-3.96 1.79-3.96 4l-0.020 28c0 2.21 1.77 4 3.98 4h28.020c2.21 0 4-1.79 4-4v-28c0-2.21-1.79-4-4-4zM38 30h-8c0 3.31-2.69 6-6 6s-6-2.69-6-6h-8.020v-20h28.020v20zM32 20h-4v-6h-8v6h-4l8 8 8-8z" fill="#444444"></path>
</svg>
