<?xml version="1.0" encoding="utf-8"?>
<!-- Generated by IcoMoon.io -->
<!DOCTYPE svg PUBLIC "-//W3C//DTD SVG 1.1//EN" "http://www.w3.org/Graphics/SVG/1.1/DTD/svg11.dtd">
<svg version="1.1" xmlns="http://www.w3.org/2000/svg" xmlns:xlink="http://www.w3.org/1999/xlink" width="48" height="48" viewBox="0 0 48 48">
<path d="M36.749 35.251c-3.005 0-5.83-1.17-7.955-3.295l-4.795-4.795-4.794 4.794c-2.125 2.126-4.95 3.295-7.955 3.295s-5.83-1.17-7.956-3.295c-2.125-2.125-3.296-4.95-3.296-7.955s1.17-5.831 3.296-7.955c2.125-2.125 4.951-3.295 7.955-3.295s5.831 1.17 7.955 3.295l4.794 4.794 4.794-4.794c2.125-2.125 4.95-3.295 7.955-3.295s5.831 1.17 7.955 3.295c2.126 2.125 3.295 4.95 3.295 7.955s-1.17 5.831-3.295 7.955c-2.125 2.126-4.95 3.295-7.955 3.295zM31.956 28.795c1.281 1.28 2.983 1.985 4.794 1.985s3.514-0.705 4.794-1.986c1.28-1.281 1.986-2.983 1.986-4.794s-0.705-3.514-1.986-4.794c-1.281-1.28-2.983-1.986-4.794-1.986s-3.514 0.705-4.794 1.986l-4.794 4.794 4.794 4.795zM11.251 17.22c-1.811 0-3.514 0.705-4.794 1.986s-1.986 2.983-1.986 4.794c0 1.811 0.705 3.514 1.986 4.794s2.984 1.986 4.794 1.986c1.811 0 3.514-0.705 4.794-1.986l4.794-4.794-4.794-4.794c-1.28-1.28-2.983-1.986-4.794-1.986v0z" fill="#444444"></path>
</svg>
