<?xml version="1.0" encoding="utf-8"?>
<!-- Generated by IcoMoon.io -->
<!DOCTYPE svg PUBLIC "-//W3C//DTD SVG 1.1//EN" "http://www.w3.org/Graphics/SVG/1.1/DTD/svg11.dtd">
<svg version="1.1" xmlns="http://www.w3.org/2000/svg" xmlns:xlink="http://www.w3.org/1999/xlink" width="48" height="48" viewBox="0 0 48 48">
<path d="M23.99 4c-11.050 0-19.99 8.95-19.99 20s8.94 20 19.99 20c11.050 0 20.010-8.95 20.010-20s-8.96-20-20.010-20zM24 40c-8.84 0-16-7.16-16-16s7.16-16 16-16 16 7.16 16 16-7.16 16-16 16zM31 22c1.66 0 3-1.34 3-3s-1.34-3-3-3-3 1.34-3 3 1.34 3 3 3zM17 22c1.66 0 3-1.34 3-3s-1.34-3-3-3-3 1.34-3 3 1.34 3 3 3zM24 35c4.66 0 8.61-2.91 10.21-7h-20.42c1.6 4.090 5.55 7 10.21 7z" fill="#444444"></path>
</svg>
