<?xml version="1.0" encoding="utf-8"?>
<!-- Generated by IcoMoon.io -->
<!DOCTYPE svg PUBLIC "-//W3C//DTD SVG 1.1//EN" "http://www.w3.org/Graphics/SVG/1.1/DTD/svg11.dtd">
<svg version="1.1" xmlns="http://www.w3.org/2000/svg" xmlns:xlink="http://www.w3.org/1999/xlink" width="48" height="48" viewBox="0 0 48 48">
<path d="M40.031 0h-32.063c-4.383 0-7.969 3.586-7.969 7.969v32.063c0 4.383 3.586 7.969 7.969 7.969h32.063c4.383 0 7.969-3.586 7.969-7.969v-32.063c0-4.383-3.586-7.969-7.969-7.969zM15.366 21h17.269c0.328 0.941 0.506 1.949 0.506 3 0 5.040-4.1 9.141-9.141 9.141s-9.141-4.1-9.141-9.141c0-1.051 0.178-2.059 0.506-3zM42 21.002v17.998c0 1.65-1.35 3-3 3h-30c-1.65 0-3-1.35-3-3v-18h4.693c-0.217 0.966-0.333 1.97-0.333 3 0 7.522 6.119 13.641 13.641 13.641s13.641-6.119 13.641-13.641c0-1.030-0.116-2.034-0.333-3l4.693 0.002zM42 10.5c0 0.825-0.675 1.5-1.5 1.5h-3c-0.825 0-1.5-0.675-1.5-1.5v-3c0-0.825 0.675-1.5 1.5-1.5h3c0.825 0 1.5 0.675 1.5 1.5v3z" fill="#444444"></path>
</svg>
