<?xml version="1.0" encoding="utf-8"?>
<!-- Generated by IcoMoon.io -->
<!DOCTYPE svg PUBLIC "-//W3C//DTD SVG 1.1//EN" "http://www.w3.org/Graphics/SVG/1.1/DTD/svg11.dtd">
<svg version="1.1" xmlns="http://www.w3.org/2000/svg" xmlns:xlink="http://www.w3.org/1999/xlink" width="48" height="48" viewBox="0 0 48 48">
<path d="M12.469 12.969c1.539-1.54 4.031-1.54 5.569-0.002l0.367 0.369 4.739-4.742-0.369-0.369c-2.701-2.704-6.493-3.65-9.957-2.837-0.496-3.056-3.145-5.387-6.336-5.389-3.546 0-6.42 2.88-6.421 6.429 0 3.063 2.137 5.625 5 6.273-1.084 3.631-0.199 7.727 2.665 10.593l10.679 10.683 4.734-4.745-10.678-10.682c-1.532-1.534-1.535-4.037 0.009-5.582zM47.939 6.429c0.001-3.551-2.874-6.429-6.422-6.429-3.245 0-5.929 2.411-6.36 5.542-3.613-1.063-7.677-0.163-10.53 2.691l-10.68 10.683 4.739 4.742 10.676-10.681c1.544-1.545 4.030-1.543 5.564-0.009 1.537 1.539 1.537 4.036-0.002 5.576l-0.365 0.367 4.735 4.746 0.368-0.371c2.834-2.839 3.735-6.879 2.701-10.483 3.148-0.414 5.575-3.111 5.575-6.375zM42.482 35.206c0.848-3.49-0.092-7.327-2.818-10.054l-10.664-10.687-4.739 4.74 10.665 10.688c1.544 1.546 1.54 4.036 0.008 5.571-1.537 1.538-4.031 1.538-5.57-0.002l-0.364-0.365-4.734 4.746 0.362 0.362c2.884 2.888 7.013 3.77 10.657 2.648 0.592 2.938 3.184 5.147 6.293 5.147 3.544 0 6.42-2.876 6.42-6.428 0-3.244-2.399-5.928-5.519-6.366zM28.704 24.782l-10.666 10.687c-1.533 1.536-4.033 1.539-5.575-0.006-1.538-1.542-1.539-4.036-0.002-5.577l0.366-0.364-4.739-4.74-0.362 0.361c-2.754 2.756-3.683 6.649-2.787 10.171-2.831 0.668-4.939 3.218-4.939 6.257-0.001 3.55 2.875 6.428 6.421 6.428 3.052-0.002 5.606-2.129 6.26-4.987 3.502 0.87 7.359-0.061 10.094-2.801l10.663-10.686-4.735-4.744z" fill="#444444"></path>
</svg>
