<?xml version="1.0" encoding="utf-8"?>
<!-- Generated by IcoMoon.io -->
<!DOCTYPE svg PUBLIC "-//W3C//DTD SVG 1.1//EN" "http://www.w3.org/Graphics/SVG/1.1/DTD/svg11.dtd">
<svg version="1.1" xmlns="http://www.w3.org/2000/svg" xmlns:xlink="http://www.w3.org/1999/xlink" width="48" height="48" viewBox="0 0 48 48">
<path d="M46.975 14.73l-4.739-4.739c-1.163-1.163-3.065-3.064-4.226-4.226l-4.739-4.739c-1.162-1.163-3.232-1.367-4.6-0.455l-12.958 8.638c-1.367 0.912-1.885 2.861-1.15 4.331l3.304 6.608c0.101 0.202 0.218 0.417 0.346 0.64l-16.712 16.712-1.5 10.5h9v-3h6v-6h6v-6h6v-3.337c0.3 0.178 0.587 0.338 0.853 0.471l6.608 3.304c1.47 0.735 3.419 0.218 4.331-1.15l8.639-12.958c0.912-1.367 0.706-3.437-0.455-4.6zM7.060 40.061l-2.121-2.121 14.605-14.605 2.121 2.121-14.605 14.605zM42.986 19.864l-2.121 2.121c-0.584 0.584-1.538 0.584-2.121 0l-12.728-12.728c-0.583-0.584-0.583-1.538 0-2.121l2.121-2.122c0.583-0.583 1.537-0.583 2.121 0l12.728 12.728c0.584 0.584 0.584 1.538 0 2.121z" fill="#444444"></path>
</svg>
