<?xml version="1.0" encoding="utf-8"?>
<!-- Generated by IcoMoon.io -->
<!DOCTYPE svg PUBLIC "-//W3C//DTD SVG 1.1//EN" "http://www.w3.org/Graphics/SVG/1.1/DTD/svg11.dtd">
<svg version="1.1" xmlns="http://www.w3.org/2000/svg" xmlns:xlink="http://www.w3.org/1999/xlink" width="54" height="48" viewBox="0 0 54 48">
<path d="M51 6h-48c-1.65 0-3 1.35-3 3v30c0 1.65 1.35 3 3 3h48c1.65 0 3-1.35 3-3v-30c0-1.65-1.35-3-3-3zM30 12h6v6h-6v-6zM39 21v6h-6v-6h6zM21 12h6v6h-6v-6zM30 21v6h-6v-6h6zM12 12h6v6h-6v-6zM21 21v6h-6v-6h6zM6 12h3v6h-3v-6zM6 21h6v6h-6v-6zM9 36h-3v-6h3v6zM36 36h-24v-6h24v6zM48 36h-9v-6h9v6zM48 27h-6v-6h6v6zM48 18h-9v-6h9v6z" fill="#444444"></path>
</svg>
