<?xml version="1.0" encoding="utf-8"?>
<!-- Generated by IcoMoon.io -->
<!DOCTYPE svg PUBLIC "-//W3C//DTD SVG 1.1//EN" "http://www.w3.org/Graphics/SVG/1.1/DTD/svg11.dtd">
<svg version="1.1" xmlns="http://www.w3.org/2000/svg" xmlns:xlink="http://www.w3.org/1999/xlink" width="48" height="48" viewBox="0 0 48 48">
<path d="M31 21c1.66 0 3-1.34 3-3s-1.34-3-3-3-3 1.34-3 3 1.34 3 3 3zM17 21c1.66 0 3-1.34 3-3s-1.34-3-3-3-3 1.34-3 3 1.34 3 3 3zM24 35c5.22 0 9.65-3.34 11.3-8h-22.6c1.65 4.66 6.080 8 11.3 8zM23.99 3c-11.050 0-19.99 8.95-19.99 20s8.94 20 19.99 20c11.050 0 20.010-8.95 20.010-20s-8.96-20-20.010-20zM24 39c-8.84 0-16-7.16-16-16s7.16-16 16-16 16 7.16 16 16-7.16 16-16 16z" fill="#444444"></path>
</svg>
