<?xml version="1.0" encoding="utf-8"?>
<!-- Generated by IcoMoon.io -->
<!DOCTYPE svg PUBLIC "-//W3C//DTD SVG 1.1//EN" "http://www.w3.org/Graphics/SVG/1.1/DTD/svg11.dtd">
<svg version="1.1" xmlns="http://www.w3.org/2000/svg" xmlns:xlink="http://www.w3.org/1999/xlink" width="48" height="48" viewBox="0 0 48 48">
<path d="M40 10h-32c-2.21 0-3.98 1.79-3.98 4l-0.020 20c0 2.21 1.79 4 4 4h32c2.21 0 4-1.79 4-4v-20c0-2.21-1.79-4-4-4zM22 16h4v4h-4v-4zM22 22h4v4h-4v-4zM16 16h4v4h-4v-4zM16 22h4v4h-4v-4zM14 26h-4v-4h4v4zM14 20h-4v-4h4v4zM32 34h-16v-4h16v4zM32 26h-4v-4h4v4zM32 20h-4v-4h4v4zM38 26h-4v-4h4v4zM38 20h-4v-4h4v4z" fill="#444444"></path>
</svg>
