<?xml version="1.0" encoding="utf-8"?>
<!-- Generated by IcoMoon.io -->
<!DOCTYPE svg PUBLIC "-//W3C//DTD SVG 1.1//EN" "http://www.w3.org/Graphics/SVG/1.1/DTD/svg11.dtd">
<svg version="1.1" xmlns="http://www.w3.org/2000/svg" xmlns:xlink="http://www.w3.org/1999/xlink" width="48" height="48" viewBox="0 0 48 48">
<path d="M40 6h-32c-2.21 0-3.98 1.79-3.98 4l-0.020 20c0 2.21 1.79 4 4 4h32c2.21 0 4-1.79 4-4v-20c0-2.21-1.79-4-4-4zM22 12h4v4h-4v-4zM22 18h4v4h-4v-4zM16 12h4v4h-4v-4zM16 18h4v4h-4v-4zM14 22h-4v-4h4v4zM14 16h-4v-4h4v4zM32 30h-16v-4h16v4zM32 22h-4v-4h4v4zM32 16h-4v-4h4v4zM38 22h-4v-4h4v4zM38 16h-4v-4h4v4zM24 46l8-8h-16l8 8z" fill="#444444"></path>
</svg>
