<?xml version="1.0" encoding="utf-8"?>
<!-- Generated by IcoMoon.io -->
<!DOCTYPE svg PUBLIC "-//W3C//DTD SVG 1.1//EN" "http://www.w3.org/Graphics/SVG/1.1/DTD/svg11.dtd">
<svg version="1.1" xmlns="http://www.w3.org/2000/svg" xmlns:xlink="http://www.w3.org/1999/xlink" width="48" height="48" viewBox="0 0 48 48">
<path d="M39.938 0h-31.875c-4.434 0-8.063 3.628-8.063 8.063v31.875c0 4.435 3.628 8.063 8.063 8.063h31.875c4.435 0 8.063-3.628 8.063-8.063v-31.875c0-4.434-3.628-8.063-8.063-8.063zM39.547 37.859c-5.312 1.75-15.688 5.156-17.625 5.641s-3.938 1.297-5.063-1.953c0 0-9.563-28.25-10.438-30.75s-1.727-4.007 0.25-4.797c4.564-1.823 9.313-4.148 10.187-1.5 0.783 2.369 9.125 28.5 9.125 28.5s9.812-3.453 12.5-4.203 3.61-1.25 4.313 2.438 2.063 4.875-3.25 6.625z" fill="#444444"></path>
</svg>
