<?xml version="1.0" encoding="utf-8"?>
<!-- Generated by IcoMoon.io -->
<!DOCTYPE svg PUBLIC "-//W3C//DTD SVG 1.1//EN" "http://www.w3.org/Graphics/SVG/1.1/DTD/svg11.dtd">
<svg version="1.1" xmlns="http://www.w3.org/2000/svg" xmlns:xlink="http://www.w3.org/1999/xlink" width="48" height="48" viewBox="0 0 48 48">
<path d="M40 36c2.21 0 3.98-1.79 3.98-4l0.020-22c0-2.21-1.79-4-4-4h-32c-2.21 0-4 1.79-4 4v22c0 2.21 1.79 4 4 4h-8c0 2.21 1.79 4 4 4h40c2.21 0 4-1.79 4-4h-8zM8 10h32v22h-32v-22zM24 38c-1.1 0-2-0.9-2-2s0.9-2 2-2 2 0.9 2 2-0.9 2-2 2z" fill="#444444"></path>
</svg>
