<?xml version="1.0" encoding="utf-8"?>
<!-- Generated by IcoMoon.io -->
<!DOCTYPE svg PUBLIC "-//W3C//DTD SVG 1.1//EN" "http://www.w3.org/Graphics/SVG/1.1/DTD/svg11.dtd">
<svg version="1.1" xmlns="http://www.w3.org/2000/svg" xmlns:xlink="http://www.w3.org/1999/xlink" width="48" height="48" viewBox="0 0 48 48">
<path d="M38.418 38.139c-5-0.020-7.664-2.465-9.515-6.773l-0.529-1.176-4.565-10.406c-1.514-3.684-5.269-6.172-9.508-6.172-5.735 0-10.387 4.652-10.387 10.391s4.652 10.39 10.387 10.39c4 0 7.478-2.262 9.215-5.579l1.846 4.258c-2.62 3.196-6.604 5.23-11.060 5.23-7.899 0-14.301-6.398-14.301-14.301 0-7.899 6.402-14.305 14.301-14.305 5.961 0 10.774 3.184 13.219 8.824 0.185 0.438 2.585 6.051 4.679 10.828 1.297 2.957 2.403 4.918 5.989 5.039 3.523 0.121 5.941-2.023 5.941-4.735 0-2.648-1.844-3.285-4.957-4.32-5.596-1.843-8.485-3.695-8.485-8.133 0-4.328 2.945-7.215 7.73-7.215 3.117 0 5.368 1.387 6.926 4.153l-3.058 1.562c-1.153-1.613-2.424-2.25-4.040-2.25-2.246 0-3.85 1.563-3.85 3.641 0 2.95 2.638 3.394 6.328 4.606 4.967 1.617 7.275 3.465 7.275 8.078 0 4.844-4.156 8.371-9.582 8.363z" fill="#444444"></path>
</svg>
