<?xml version="1.0" encoding="utf-8"?>
<!-- Generated by IcoMoon.io -->
<!DOCTYPE svg PUBLIC "-//W3C//DTD SVG 1.1//EN" "http://www.w3.org/Graphics/SVG/1.1/DTD/svg11.dtd">
<svg version="1.1" xmlns="http://www.w3.org/2000/svg" xmlns:xlink="http://www.w3.org/1999/xlink" width="48" height="48" viewBox="0 0 48 48">
<path d="M39.938 0h-31.875c-4.434 0-8.063 3.628-8.063 8.063v31.875c0 4.435 3.628 8.063 8.063 8.063h31.875c4.435 0 8.063-3.628 8.063-8.063v-31.875c0-4.434-3.628-8.063-8.063-8.063zM34.993 35.667c-8.323 0-11.21-3.753-12.749-8.419l-1.54-4.811c-1.155-3.512-2.502-6.254-6.735-6.254-2.936 0-5.918 2.116-5.918 8.034 0 4.619 2.357 7.505 5.677 7.505 3.752 0 6.254-2.791 6.254-2.791l1.54 4.186c0 0-2.599 2.55-8.034 2.55-6.736 0-10.488-3.945-10.488-11.257 0-7.601 3.753-12.076 10.825-12.076 6.399 0 9.623 2.309 11.642 8.564l1.588 4.81c1.155 3.512 3.175 6.062 8.034 6.062 3.271 0 5.003-0.721 5.003-2.502 0-1.396-0.818-2.406-3.271-2.983l-3.272-0.77c-3.992-0.962-5.58-3.031-5.58-6.302 0-5.244 4.234-6.88 8.563-6.88 4.907 0 7.89 1.78 8.275 6.11l-4.811 0.578c-0.193-2.069-1.444-2.935-3.752-2.935-2.117 0-3.416 0.962-3.416 2.598 0 1.443 0.626 2.309 2.742 2.791l3.079 0.674c4.138 0.962 6.351 2.983 6.351 6.88 0 4.811-4.042 6.639-10.007 6.639z" fill="#444444"></path>
</svg>
