<?xml version="1.0" encoding="utf-8"?>
<!-- Generated by IcoMoon.io -->
<!DOCTYPE svg PUBLIC "-//W3C//DTD SVG 1.1//EN" "http://www.w3.org/Graphics/SVG/1.1/DTD/svg11.dtd">
<svg version="1.1" xmlns="http://www.w3.org/2000/svg" xmlns:xlink="http://www.w3.org/1999/xlink" width="48" height="48" viewBox="0 0 48 48">
<path d="M25.061 1.060c-0.583-0.584-1.735-1.060-2.561-1.060h-18c-0.825 0-1.5 0.675-1.5 1.5v45c0 0.825 0.675 1.5 1.5 1.5h36c0.825 0 1.5-0.675 1.5-1.5v-27c0-0.825-0.477-1.977-1.061-2.561l-15.879-15.879zM39 45h-33v-42h16.46c0.137 0.022 0.395 0.129 0.507 0.21l15.823 15.823c0.081 0.113 0.188 0.37 0.21 0.507v25.46zM40.5 0h-9c-0.825 0-1.023 0.477-0.439 1.060l9.879 9.879c0.584 0.583 1.061 0.385 1.061-0.44v-9c0-0.825-0.675-1.5-1.5-1.5z" fill="#444444"></path>
</svg>
