<?xml version="1.0" encoding="utf-8"?>
<!-- Generated by IcoMoon.io -->
<!DOCTYPE svg PUBLIC "-//W3C//DTD SVG 1.1//EN" "http://www.w3.org/Graphics/SVG/1.1/DTD/svg11.dtd">
<svg version="1.1" xmlns="http://www.w3.org/2000/svg" xmlns:xlink="http://www.w3.org/1999/xlink" width="48" height="48" viewBox="0 0 48 48">
<path d="M18 18h8.302v4.255h0.119c1.155-2.072 3.983-4.255 8.196-4.255 8.763 0 10.384 5.455 10.384 12.55v14.45h-8.653v-12.81c0-3.055-0.062-6.985-4.502-6.985-4.507 0-5.194 3.328-5.194 6.764v13.032h-8.651v-27z" fill="#444444"></path>
<path d="M3 18h9v27h-9v-27z" fill="#444444"></path>
<path d="M12 10.5c0 2.486-2.014 4.5-4.5 4.5s-4.5-2.014-4.5-4.5c0-2.486 2.014-4.5 4.5-4.5s4.5 2.014 4.5 4.5z" fill="#444444"></path>
</svg>
