<?xml version="1.0" encoding="utf-8"?>
<!-- Generated by IcoMoon.io -->
<!DOCTYPE svg PUBLIC "-//W3C//DTD SVG 1.1//EN" "http://www.w3.org/Graphics/SVG/1.1/DTD/svg11.dtd">
<svg version="1.1" xmlns="http://www.w3.org/2000/svg" xmlns:xlink="http://www.w3.org/1999/xlink" width="48" height="48" viewBox="0 0 48 48">
<path d="M39.938 0h-31.875c-4.434 0-8.063 3.628-8.063 8.063v31.875c0 4.435 3.628 8.063 8.063 8.063h31.875c4.435 0 8.063-3.628 8.063-8.063v-31.875c0-4.434-3.628-8.063-8.063-8.063zM18 39h-6v-21h6v21zM15 15c-1.657 0-3-1.343-3-3s1.343-3 3-3 3 1.343 3 3-1.343 3-3 3zM39 39h-6v-12c0-1.657-1.343-3-3-3s-3 1.343-3 3v12h-6v-21h6v3.725c1.237-1.7 3.129-3.725 5.25-3.725 3.728 0 6.75 3.358 6.75 7.5v13.5z" fill="#444444"></path>
</svg>
