<?xml version="1.0" encoding="utf-8"?>
<!-- Generated by IcoMoon.io -->
<!DOCTYPE svg PUBLIC "-//W3C//DTD SVG 1.1//EN" "http://www.w3.org/Graphics/SVG/1.1/DTD/svg11.dtd">
<svg version="1.1" xmlns="http://www.w3.org/2000/svg" xmlns:xlink="http://www.w3.org/1999/xlink" width="48" height="48" viewBox="0 0 48 48">
<path d="M16.2 26.69l5.66-5.66-14.030-14.030c-3.12 3.12-3.12 8.19 0 11.31l8.37 8.38zM29.77 23.060c3.050 1.43 7.36 0.42 10.54-2.76 3.83-3.83 4.56-9.3 1.63-12.23-2.94-2.93-8.42-2.2-12.24 1.63-3.18 3.18-4.18 7.49-2.76 10.54-4.45 4.44-19.53 19.52-19.53 19.52l2.83 2.83 13.76-13.76 13.76 13.76 2.83-2.83-13.76-13.76 2.94-2.94z" fill="#444444"></path>
</svg>
