<?xml version="1.0" encoding="utf-8"?>
<!-- Generated by IcoMoon.io -->
<!DOCTYPE svg PUBLIC "-//W3C//DTD SVG 1.1//EN" "http://www.w3.org/Graphics/SVG/1.1/DTD/svg11.dtd">
<svg version="1.1" xmlns="http://www.w3.org/2000/svg" xmlns:xlink="http://www.w3.org/1999/xlink" width="48" height="48" viewBox="0 0 48 48">
<path d="M24 13c2.76 0 5 2.24 5 5 0 1.47-0.65 2.78-1.66 3.7l7.26 7.26c1.95-3.72 3.4-7.59 3.4-10.96 0-7.73-6.27-14-14-14-3.96 0-7.53 1.65-10.070 4.29l6.37 6.37c0.91-1.010 2.23-1.66 3.7-1.66zM32.75 32.2l-26.21-26.2-2.54 2.55 6.36 6.36c-0.23 0.99-0.36 2.020-0.36 3.090 0 10.5 14 26 14 26s3.34-3.7 6.75-8.7l6.7 6.7 2.55-2.55-7.25-7.25z" fill="#444444"></path>
</svg>
