<?xml version="1.0" encoding="utf-8"?>
<!-- Generated by IcoMoon.io -->
<!DOCTYPE svg PUBLIC "-//W3C//DTD SVG 1.1//EN" "http://www.w3.org/Graphics/SVG/1.1/DTD/svg11.dtd">
<svg version="1.1" xmlns="http://www.w3.org/2000/svg" xmlns:xlink="http://www.w3.org/1999/xlink" width="48" height="48" viewBox="0 0 48 48">
<path d="M24 0c-8.284 0-15 6.716-15 15 0 15 15 33 15 33s15-18 15-33c0-8.284-6.715-15-15-15zM24 24.188c-5.074 0-9.188-4.114-9.188-9.188s4.114-9.188 9.188-9.188 9.188 4.114 9.188 9.188-4.113 9.188-9.188 9.188zM18.188 15c0-3.21 2.602-5.813 5.813-5.813s5.813 2.603 5.813 5.813c0 3.21-2.602 5.813-5.813 5.813s-5.813-2.602-5.813-5.813z" fill="#444444"></path>
</svg>
