<?xml version="1.0" encoding="utf-8"?>
<!-- Generated by IcoMoon.io -->
<!DOCTYPE svg PUBLIC "-//W3C//DTD SVG 1.1//EN" "http://www.w3.org/Graphics/SVG/1.1/DTD/svg11.dtd">
<svg version="1.1" xmlns="http://www.w3.org/2000/svg" xmlns:xlink="http://www.w3.org/1999/xlink" width="48" height="48" viewBox="0 0 48 48">
<path d="M42.82 23.16l-17.99-17.99c-0.73-0.72-1.73-1.17-2.83-1.17h-14c-2.21 0-4 1.79-4 4v14c0 1.11 0.45 2.11 1.18 2.83l18 18c0.72 0.72 1.72 1.17 2.82 1.17s2.11-0.45 2.83-1.17l14-14c0.72-0.73 1.17-1.73 1.17-2.83 0-1.11-0.45-2.11-1.18-2.84zM11 14c-1.66 0-3-1.34-3-3s1.34-3 3-3 3 1.34 3 3-1.34 3-3 3z" fill="#444444"></path>
</svg>
