<?xml version="1.0" encoding="utf-8"?>
<!-- Generated by IcoMoon.io -->
<!DOCTYPE svg PUBLIC "-//W3C//DTD SVG 1.1//EN" "http://www.w3.org/Graphics/SVG/1.1/DTD/svg11.dtd">
<svg version="1.1" xmlns="http://www.w3.org/2000/svg" xmlns:xlink="http://www.w3.org/1999/xlink" width="48" height="48" viewBox="0 0 48 48">
<path d="M30 22v-12l-6-6-6 6v4h-12v28h36v-20h-12zM14 38h-4v-4h4v4zM14 30h-4v-4h4v4zM14 22h-4v-4h4v4zM26 38h-4v-4h4v4zM26 30h-4v-4h4v4zM26 22h-4v-4h4v4zM26 14h-4v-4h4v4zM38 38h-4v-4h4v4zM38 30h-4v-4h4v4z" fill="#444444"></path>
</svg>
