<?xml version="1.0" encoding="utf-8"?>
<!-- Generated by IcoMoon.io -->
<!DOCTYPE svg PUBLIC "-//W3C//DTD SVG 1.1//EN" "http://www.w3.org/Graphics/SVG/1.1/DTD/svg11.dtd">
<svg version="1.1" xmlns="http://www.w3.org/2000/svg" xmlns:xlink="http://www.w3.org/1999/xlink" width="48" height="48" viewBox="0 0 48 48">
<path d="M24 8v-6l-8 8 8 8v-6c6.63 0 12 5.37 12 12 0 2.030-0.51 3.93-1.39 5.61l2.92 2.92c1.55-2.48 2.47-5.39 2.47-8.53 0-8.84-7.16-16-16-16zM24 36c-6.63 0-12-5.37-12-12 0-2.030 0.51-3.93 1.39-5.61l-2.92-2.92c-1.55 2.48-2.47 5.39-2.47 8.53 0 8.84 7.16 16 16 16v6l8-8-8-8v6z" fill="#444444"></path>
</svg>
