<?xml version="1.0" encoding="utf-8"?>
<!-- Generated by IcoMoon.io -->
<!DOCTYPE svg PUBLIC "-//W3C//DTD SVG 1.1//EN" "http://www.w3.org/Graphics/SVG/1.1/DTD/svg11.dtd">
<svg version="1.1" xmlns="http://www.w3.org/2000/svg" xmlns:xlink="http://www.w3.org/1999/xlink" width="48" height="48" viewBox="0 0 48 48">
<path d="M26 14h-4v8h-8v4h8v8h4v-8h8v-4h-8v-8zM24 4c-11.030 0-20 8.97-20 20s8.97 20 20 20h16c2.21 0 4-1.79 4-4v-16c0-11.030-8.97-20-20-20zM24 40c-8.82 0-16-7.18-16-16s7.18-16 16-16 16 7.18 16 16-7.18 16-16 16z" fill="#444444"></path>
</svg>
