<?xml version="1.0" encoding="utf-8"?>
<!-- Generated by IcoMoon.io -->
<!DOCTYPE svg PUBLIC "-//W3C//DTD SVG 1.1//EN" "http://www.w3.org/Graphics/SVG/1.1/DTD/svg11.dtd">
<svg version="1.1" xmlns="http://www.w3.org/2000/svg" xmlns:xlink="http://www.w3.org/1999/xlink" width="48" height="48" viewBox="0 0 48 48">
<path d="M15 6h-6c-1.65 0-3 1.35-3 3v6c0 1.65 1.35 3 3 3h6c1.65 0 3-1.35 3-3v-6c0-1.65-1.35-3-3-3z" fill="#444444"></path>
<path d="M33 18h6c1.65 0 3-1.35 3-3v-6c0-1.65-1.35-3-3-3h-6c-1.65 0-3 1.35-3 3v6c0 1.65 1.35 3 3 3zM33 9h6v6h-6v-6z" fill="#444444"></path>
<path d="M15 30h-6c-1.65 0-3 1.35-3 3v6c0 1.65 1.35 3 3 3h6c1.65 0 3-1.35 3-3v-6c0-1.65-1.35-3-3-3zM15 39h-6v-6h6v6z" fill="#444444"></path>
<path d="M39 30h-6c-1.65 0-3 1.35-3 3v6c0 1.65 1.35 3 3 3h6c1.65 0 3-1.35 3-3v-6c0-1.65-1.35-3-3-3z" fill="#444444"></path>
<path d="M42 24h-3c-4.007 0-7.774-1.56-10.606-4.393s-4.393-6.6-4.393-10.607v-3c0-3.3-2.7-6-6-6h-12c-3.3 0-6 2.7-6 6v12c0 3.3 2.7 6 6 6h3c4.006 0 7.774 1.56 10.606 4.393s4.394 6.6 4.394 10.607v3c0 3.3 2.7 6 6 6h12c3.3 0 6-2.7 6-6v-12c0-3.3-2.7-6-6-6zM45 42c0 0.795-0.314 1.546-0.883 2.117s-1.322 0.883-2.117 0.883h-12c-0.795 0-1.546-0.314-2.117-0.883s-0.883-1.322-0.883-2.117v-3c0-9.941-8.059-18-18-18h-3c-0.795 0-1.546-0.314-2.117-0.884s-0.883-1.322-0.883-2.116v-12c0-0.795 0.314-1.546 0.883-2.117s1.322-0.883 2.117-0.883h12c0.795 0 1.547 0.314 2.116 0.883s0.884 1.322 0.884 2.117v3c0 9.941 8.059 18 18 18h3c0.795 0 1.546 0.314 2.117 0.883s0.883 1.322 0.883 2.117v12z" fill="#444444"></path>
</svg>
