<?xml version="1.0" encoding="utf-8"?>
<!-- Generated by IcoMoon.io -->
<!DOCTYPE svg PUBLIC "-//W3C//DTD SVG 1.1//EN" "http://www.w3.org/Graphics/SVG/1.1/DTD/svg11.dtd">
<svg version="1.1" xmlns="http://www.w3.org/2000/svg" xmlns:xlink="http://www.w3.org/1999/xlink" width="48" height="48" viewBox="0 0 48 48">
<path d="M33 24v18h3v-18h7.5l-9-9-9 9z" fill="#444444"></path>
<path d="M3 9h4.5v3h-4.5v-3z" fill="#444444"></path>
<path d="M9 9h4.5v3h-4.5v-3z" fill="#444444"></path>
<path d="M15 9h3v4.5h-3v-4.5z" fill="#444444"></path>
<path d="M3 19.5h3v4.5h-3v-4.5z" fill="#444444"></path>
<path d="M7.5 21h4.5v3h-4.5v-3z" fill="#444444"></path>
<path d="M13.5 21h4.5v3h-4.5v-3z" fill="#444444"></path>
<path d="M3 13.5h3v4.5h-3v-4.5z" fill="#444444"></path>
<path d="M15 15h3v4.5h-3v-4.5z" fill="#444444"></path>
<path d="M15 33v9h-9v-9h9zM18 30h-15v15h15v-15z" fill="#444444"></path>
</svg>
