<?xml version="1.0" encoding="utf-8"?>
<!-- Generated by IcoMoon.io -->
<!DOCTYPE svg PUBLIC "-//W3C//DTD SVG 1.1//EN" "http://www.w3.org/Graphics/SVG/1.1/DTD/svg11.dtd">
<svg version="1.1" xmlns="http://www.w3.org/2000/svg" xmlns:xlink="http://www.w3.org/1999/xlink" width="48" height="48" viewBox="0 0 48 48">
<path d="M36 33v-18h-3v18h-7.5l9 9 9-9z" fill="#444444"></path>
<path d="M15 12v9h-9v-9h9zM18 9h-15v15h15v-15z" fill="#444444"></path>
<path d="M3 30h4.5v3h-4.5v-3z" fill="#444444"></path>
<path d="M9 30h4.5v3h-4.5v-3z" fill="#444444"></path>
<path d="M15 30h3v4.5h-3v-4.5z" fill="#444444"></path>
<path d="M3 40.5h3v4.5h-3v-4.5z" fill="#444444"></path>
<path d="M7.5 42h4.5v3h-4.5v-3z" fill="#444444"></path>
<path d="M13.5 42h4.5v3h-4.5v-3z" fill="#444444"></path>
<path d="M3 34.5h3v4.5h-3v-4.5z" fill="#444444"></path>
<path d="M15 36h3v4.5h-3v-4.5z" fill="#444444"></path>
</svg>
