<?xml version="1.0" encoding="utf-8"?>
<!-- Generated by IcoMoon.io -->
<!DOCTYPE svg PUBLIC "-//W3C//DTD SVG 1.1//EN" "http://www.w3.org/Graphics/SVG/1.1/DTD/svg11.dtd">
<svg version="1.1" xmlns="http://www.w3.org/2000/svg" xmlns:xlink="http://www.w3.org/1999/xlink" width="48" height="48" viewBox="0 0 48 48">
<path d="M23 44c2.21 0 4-1.79 4-4h-8c0 2.21 1.79 4 4 4zM36 32v-11c0-6.15-4.27-11.28-10-12.64v-1.36c0-1.66-1.34-3-3-3s-3 1.34-3 3v1.36c-5.73 1.36-10 6.49-10 12.64v11l-4 4v2h34v-2l-4-4zM32 34h-18v-13c0-4.97 4.030-9 9-9s9 4.030 9 9v13z" fill="#444444"></path>
</svg>
