<?xml version="1.0" encoding="utf-8"?>
<!-- Generated by IcoMoon.io -->
<!DOCTYPE svg PUBLIC "-//W3C//DTD SVG 1.1//EN" "http://www.w3.org/Graphics/SVG/1.1/DTD/svg11.dtd">
<svg version="1.1" xmlns="http://www.w3.org/2000/svg" xmlns:xlink="http://www.w3.org/1999/xlink" width="48" height="48" viewBox="0 0 48 48">
<path d="M23 44c2.21 0 4-1.79 4-4h-8c0 2.21 1.79 4 4 4zM36 21c0-6.15-4.27-11.28-10-12.64v-1.36c0-1.66-1.34-3-3-3s-3 1.34-3 3v1.36c-1.020 0.24-1.98 0.64-2.89 1.11l18.89 18.89v-7.36zM35.46 38l4 4 2.54-2.55-33.45-33.45-2.55 2.55 5.84 5.84c-1.16 1.93-1.84 4.19-1.84 6.61v11l-4 4v2h29.46z" fill="#444444"></path>
</svg>
