<?xml version="1.0" encoding="utf-8"?>
<!-- Generated by IcoMoon.io -->
<!DOCTYPE svg PUBLIC "-//W3C//DTD SVG 1.1//EN" "http://www.w3.org/Graphics/SVG/1.1/DTD/svg11.dtd">
<svg version="1.1" xmlns="http://www.w3.org/2000/svg" xmlns:xlink="http://www.w3.org/1999/xlink" width="48" height="48" viewBox="0 0 48 48">
<path d="M13.16 7.16l-2.86-2.86c-4.79 3.65-7.95 9.29-8.25 15.7h4c0.31-5.3 3.040-9.94 7.11-12.84zM39.95 20h4c-0.3-6.41-3.46-12.050-8.25-15.7l-2.85 2.85c4.060 2.91 6.79 7.55 7.1 12.85zM36 21c0-6.15-4.27-11.28-10-12.64v-1.36c0-1.66-1.34-3-3-3s-3 1.34-3 3v1.36c-5.73 1.36-10 6.49-10 12.64v11l-4 4v2h34v-2l-4-4v-11zM23 44c0.28 0 0.55-0.030 0.81-0.080 1.3-0.27 2.37-1.17 2.88-2.36 0.2-0.48 0.31-1 0.31-1.56h-8c0 2.21 1.79 4 4 4z" fill="#444444"></path>
</svg>
