<?xml version="1.0" encoding="utf-8"?>
<!-- Generated by IcoMoon.io -->
<!DOCTYPE svg PUBLIC "-//W3C//DTD SVG 1.1//EN" "http://www.w3.org/Graphics/SVG/1.1/DTD/svg11.dtd">
<svg version="1.1" xmlns="http://www.w3.org/2000/svg" xmlns:xlink="http://www.w3.org/1999/xlink" width="48" height="48" viewBox="0 0 48 48">
<path d="M8 8h14v-4h-14c-2.21 0-4 1.79-4 4v14h4v-14zM20 26l-8 10h24l-6-8-4.060 5.42-5.94-7.42zM34 17c0-1.66-1.34-3-3-3s-3 1.34-3 3 1.34 3 3 3 3-1.34 3-3zM40 4h-14v4h14v14h4v-14c0-2.21-1.79-4-4-4zM40 40h-14v4h14c2.21 0 4-1.79 4-4v-14h-4v14zM8 26h-4v14c0 2.21 1.79 4 4 4h14v-4h-14v-14z" fill="#444444"></path>
</svg>
