<?xml version="1.0" encoding="utf-8"?>
<!-- Generated by IcoMoon.io -->
<!DOCTYPE svg PUBLIC "-//W3C//DTD SVG 1.1//EN" "http://www.w3.org/Graphics/SVG/1.1/DTD/svg11.dtd">
<svg version="1.1" xmlns="http://www.w3.org/2000/svg" xmlns:xlink="http://www.w3.org/1999/xlink" width="48" height="48" viewBox="0 0 48 48">
<path d="M16.447 38.831c-2.825-0.706-4.399-2.952-4.405-6.284-0.002-1.065 0.076-1.576 0.341-2.261 0.652-1.68 2.378-2.947 4.648-3.413 1.13-0.232 1.478-0.482 1.478-1.058 0-0.181 0.135-0.72 0.299-1.198 0.747-2.17 2.129-3.98 3.607-4.721 1.547-0.775 2.327-0.95 4.198-0.94 2.657 0.014 3.982 0.59 5.836 2.537l1.019 1.071 0.913-0.316c4.421-1.53 8.827 1.074 9.182 5.426l0.098 1.19 0.871 0.312c2.486 0.891 3.654 2.761 3.443 5.51-0.139 1.798-0.979 3.233-2.311 3.946l-0.626 0.335-13.913 0.027c-10.692 0.021-14.091-0.017-14.678-0.164v0zM4.838 36.842c-1.696-0.426-3.493-2.008-4.335-3.819-0.478-1.027-0.503-1.178-0.503-2.994 0-1.728 0.041-2.006 0.422-2.863 0.802-1.808 2.338-3.115 4.267-3.629 0.407-0.109 0.79-0.281 0.85-0.384s0.128-0.664 0.149-1.246c0.134-3.619 2.381-6.807 5.518-7.831 1.695-0.553 3.917-0.605 5.761 0.175 0.584 0.247 0.519 0.3 1.755-1.413 0.731-1.013 2.114-2.086 3.323-2.727 1.305-0.693 2.662-1.012 4.285-1.007 4.536 0.012 8.445 3.011 9.891 7.586 0.462 1.462 0.439 1.871-0.106 1.883-0.238 0.005-0.919 0.144-1.514 0.307l-1.081 0.298-0.987-1.043c-2.782-2.941-7.324-3.576-11.184-1.565-1.542 0.803-2.782 1.957-3.718 3.46-0.667 1.072-1.518 3.071-1.518 3.567 0 0.352-0.27 0.528-1.422 0.927-3.567 1.236-5.649 4.091-5.648 7.745 0.001 1.33 0.325 2.956 0.775 3.889 0.17 0.351 0.264 0.686 0.21 0.742-0.138 0.146-4.576 0.097-5.189-0.058v0z" fill="#444444"></path>
</svg>
