<?xml version="1.0" encoding="utf-8"?>
<!-- Generated by IcoMoon.io -->
<!DOCTYPE svg PUBLIC "-//W3C//DTD SVG 1.1//EN" "http://www.w3.org/Graphics/SVG/1.1/DTD/svg11.dtd">
<svg version="1.1" xmlns="http://www.w3.org/2000/svg" xmlns:xlink="http://www.w3.org/1999/xlink" width="48" height="48" viewBox="0 0 48 48">
<path d="M43.5 39h-12c-0.593 0-1.13-0.349-1.371-0.891l-11.604-26.109h-14.025c-0.828 0-1.5-0.672-1.5-1.5s0.672-1.5 1.5-1.5h15c0.593 0 1.13 0.349 1.371 0.891l11.604 26.109h11.025c0.829 0 1.5 0.671 1.5 1.5s-0.671 1.5-1.5 1.5z" fill="#444444"></path>
<path d="M43.5 12h-15c-0.829 0-1.5-0.672-1.5-1.5s0.671-1.5 1.5-1.5h15c0.829 0 1.5 0.672 1.5 1.5s-0.671 1.5-1.5 1.5z" fill="#444444"></path>
</svg>
