<?xml version="1.0" encoding="utf-8"?>
<!-- Generated by IcoMoon.io -->
<!DOCTYPE svg PUBLIC "-//W3C//DTD SVG 1.1//EN" "http://www.w3.org/Graphics/SVG/1.1/DTD/svg11.dtd">
<svg version="1.1" xmlns="http://www.w3.org/2000/svg" xmlns:xlink="http://www.w3.org/1999/xlink" width="48" height="48" viewBox="0 0 48 48">
<path d="M6 10v12h10l-2-8 8 2v-10h-12c-2.21 0-4 1.79-4 4zM16 26h-10v12c0 2.21 1.79 4 4 4h12v-10l-8 2 2-8zM34 34l-8-2v10h12c2.21 0 4-1.79 4-4v-12h-10l2 8zM38 6h-12v10l8-2-2 8h10v-12c0-2.21-1.79-4-4-4z" fill="#444444"></path>
</svg>
