<?xml version="1.0" encoding="utf-8"?>
<!-- Generated by IcoMoon.io -->
<!DOCTYPE svg PUBLIC "-//W3C//DTD SVG 1.1//EN" "http://www.w3.org/Graphics/SVG/1.1/DTD/svg11.dtd">
<svg version="1.1" xmlns="http://www.w3.org/2000/svg" xmlns:xlink="http://www.w3.org/1999/xlink" width="48" height="48" viewBox="0 0 48 48">
<path d="M40 8h-6.34l-3.66-4h-12l-3.66 4h-6.34c-2.21 0-4 1.79-4 4v24c0 2.21 1.79 4 4 4h32c2.21 0 4-1.79 4-4v-24c0-2.21-1.79-4-4-4zM24 14c3.26 0 6.13 1.59 7.96 4h-7.96c-3.31 0-6 2.69-6 6 0 0.71 0.14 1.37 0.37 2h-4.17c-0.13-0.65-0.2-1.31-0.2-2 0-5.52 4.48-10 10-10zM24 34c-3.26 0-6.13-1.58-7.95-4h7.95c3.31 0 6-2.69 6-6 0-0.7-0.14-1.37-0.37-2h4.17c0.13 0.65 0.2 1.31 0.2 2 0 5.52-4.48 10-10 10z" fill="#444444"></path>
</svg>
