<?xml version="1.0" encoding="utf-8"?>
<!-- Generated by IcoMoon.io -->
<!DOCTYPE svg PUBLIC "-//W3C//DTD SVG 1.1//EN" "http://www.w3.org/Graphics/SVG/1.1/DTD/svg11.dtd">
<svg version="1.1" xmlns="http://www.w3.org/2000/svg" xmlns:xlink="http://www.w3.org/1999/xlink" width="48" height="48" viewBox="0 0 48 48">
<path d="M33 6h-6v-3c0-1.65-1.35-3-3-3h-6c-1.65 0-3 1.35-3 3v3h-6v6h24v-6zM24 6h-6v-2.995c0.002-0.001 0.004-0.004 0.005-0.005h5.989c0.002 0.002 0.004 0.004 0.005 0.005v2.995zM39 15v-7.5c0-0.825-0.675-1.5-1.5-1.5h-3v3h1.5v6h-9l-9 9v12h-12v-27h1.5v-3h-3c-0.825 0-1.5 0.675-1.5 1.5v30c0 0.825 0.675 1.5 1.5 1.5h13.5v9h30v-33h-9zM27 19.243v4.757h-4.757l4.757-4.757zM45 45h-24v-18h9v-9h15v27z" fill="#444444"></path>
</svg>
