<?xml version="1.0" encoding="utf-8"?>
<!-- Generated by IcoMoon.io -->
<!DOCTYPE svg PUBLIC "-//W3C//DTD SVG 1.1//EN" "http://www.w3.org/Graphics/SVG/1.1/DTD/svg11.dtd">
<svg version="1.1" xmlns="http://www.w3.org/2000/svg" xmlns:xlink="http://www.w3.org/1999/xlink" width="48" height="48" viewBox="0 0 48 48">
<path d="M30.391 3c1.328 0 2.668 0.272 3.875 0.787 1.27 0.541 2.312 1.309 3.099 2.281 1.575 1.947 2.017 4.6 1.315 7.885-0.764 3.581-2.55 6.561-5.164 8.619-2.548 2.006-5.765 3.067-9.305 3.067h-11.253l-3.026 14.191h-6.208l8.024-36.83h18.643zM13.396 23.438h9.555c2.224 0 4.476-0.852 6.343-2.398 1.82-1.508 3.107-3.54 3.628-5.728 0.652-2.462 0.217-4.929-1.196-6.776-1.368-1.788-3.509-2.813-5.876-2.813h-8.451l-4.004 17.716zM30.391 0h-21.060l-9.331 42.83h7.127l-1.127 5.17h12.359l3.026-14.19h8.825c8.45 0 15.513-5.207 17.403-14.060 1.58-7.391-1.912-11.809-6.334-13.62 1.204 0.589 2.255 1.429 3.023 2.46 1.619 2.171 2.074 5.127 1.352 8.788-0.729 3.704-2.363 6.831-4.742 9.096-0.435 0.455-0.901 0.879-1.397 1.27-2.548 2.006-5.765 3.067-9.305 3.067h-11.253l-3.026 14.19h-6.208l0.473-2.17h2.162l3.026-14.19h8.825c8.449 0 15.513-5.207 17.403-14.059 2.143-10.024-5.044-14.58-11.222-14.58v0zM17.149 20.438l2.648-11.716h6.053c3.028 0 5.044 2.603 4.162 5.858-0.756 3.255-3.909 5.858-7.061 5.858h-5.801z" fill="#444444"></path>
</svg>
