<?xml version="1.0" encoding="utf-8"?>
<!-- Generated by IcoMoon.io -->
<!DOCTYPE svg PUBLIC "-//W3C//DTD SVG 1.1//EN" "http://www.w3.org/Graphics/SVG/1.1/DTD/svg11.dtd">
<svg version="1.1" xmlns="http://www.w3.org/2000/svg" xmlns:xlink="http://www.w3.org/1999/xlink" width="48" height="48" viewBox="0 0 48 48">
<path d="M47.727 13.682l-13.409-13.409c-0.437-0.437-1.015-0.339-1.282 0.219l-1.798 3.745 12.525 12.525 3.746-1.798c0.558-0.268 0.656-0.845 0.219-1.283z" fill="#444444"></path>
<path d="M28.847 6.346l-12.346 1.029c-0.821 0.101-1.504 0.277-1.739 1.348 0 0.002-0.001 0.002-0.001 0.003-3.348 16.082-14.761 31.774-14.761 31.774l2.689 2.689 12.749-12.749c-0.281-0.587-0.439-1.245-0.439-1.94 0-2.486 2.015-4.5 4.5-4.5s4.5 2.014 4.5 4.5-2.014 4.5-4.5 4.5c-0.694 0-1.352-0.157-1.94-0.439l-12.749 12.749 2.689 2.69c0 0 15.693-11.413 31.774-14.761 0.002 0 0.002-0.001 0.003-0.001 1.071-0.235 1.246-0.918 1.348-1.738l1.029-12.347-12.808-12.808z" fill="#444444"></path>
</svg>
