<?xml version="1.0" encoding="utf-8"?>
<!-- Generated by IcoMoon.io -->
<!DOCTYPE svg PUBLIC "-//W3C//DTD SVG 1.1//EN" "http://www.w3.org/Graphics/SVG/1.1/DTD/svg11.dtd">
<svg version="1.1" xmlns="http://www.w3.org/2000/svg" xmlns:xlink="http://www.w3.org/1999/xlink" width="48" height="48" viewBox="0 0 48 48">
<path d="M33 26c-2.41 0-6.15 0.67-9 2.010-2.85-1.34-6.59-2.010-9-2.010-4.33 0-13 2.17-13 6.5v5.5h44v-5.5c0-4.33-8.67-6.5-13-6.5zM25 35h-20v-2.5c0-1.070 5.12-3.5 10-3.5s10 2.43 10 3.5v2.5zM43 35h-15v-2.5c0-0.91-0.4-1.72-1.040-2.44 1.77-0.6 3.93-1.060 6.040-1.060 4.88 0 10 2.43 10 3.5v2.5zM15 24c3.87 0 7-3.14 7-7s-3.13-7-7-7c-3.86 0-7 3.14-7 7s3.14 7 7 7zM15 13c2.21 0 4 1.79 4 4s-1.79 4-4 4-4-1.79-4-4 1.79-4 4-4zM33 24c3.87 0 7-3.14 7-7s-3.13-7-7-7c-3.86 0-7 3.14-7 7s3.14 7 7 7zM33 13c2.21 0 4 1.79 4 4s-1.79 4-4 4-4-1.79-4-4 1.79-4 4-4z" fill="#444444"></path>
</svg>
