<?xml version="1.0" encoding="utf-8"?>
<!-- Generated by IcoMoon.io -->
<!DOCTYPE svg PUBLIC "-//W3C//DTD SVG 1.1//EN" "http://www.w3.org/Graphics/SVG/1.1/DTD/svg11.dtd">
<svg version="1.1" xmlns="http://www.w3.org/2000/svg" xmlns:xlink="http://www.w3.org/1999/xlink" width="48" height="48" viewBox="0 0 48 48">
<path d="M24 11.8c2.32 0 4.2 1.88 4.2 4.2s-1.88 4.2-4.2 4.2-4.2-1.88-4.2-4.2 1.88-4.2 4.2-4.2zM24 29.8c5.95 0 12.2 2.91 12.2 4.2v2.2h-24.4v-2.2c0-1.29 6.25-4.2 12.2-4.2zM24 8c-4.42 0-8 3.58-8 8 0 4.41 3.58 8 8 8s8-3.59 8-8c0-4.42-3.58-8-8-8zM24 26c-5.33 0-16 2.67-16 8v6h32v-6c0-5.33-10.67-8-16-8z" fill="#444444"></path>
</svg>
