<?xml version="1.0" encoding="utf-8"?>
<!-- Generated by IcoMoon.io -->
<!DOCTYPE svg PUBLIC "-//W3C//DTD SVG 1.1//EN" "http://www.w3.org/Graphics/SVG/1.1/DTD/svg11.dtd">
<svg version="1.1" xmlns="http://www.w3.org/2000/svg" xmlns:xlink="http://www.w3.org/1999/xlink" width="48" height="48" viewBox="0 0 48 48">
<path d="M13.25 21.59c2.88 5.66 7.51 10.29 13.18 13.17l4.4-4.41c0.55-0.55 1.34-0.71 2.030-0.49 2.24 0.74 4.65 1.14 7.14 1.14 1.11 0 2 0.89 2 2v7c0 1.11-0.89 2-2 2-18.78 0-34-15.22-34-34 0-1.11 0.9-2 2-2h7c1.11 0 2 0.89 2 2 0 2.49 0.4 4.9 1.14 7.14 0.22 0.69 0.060 1.48-0.49 2.030l-4.4 4.42z" fill="#444444"></path>
</svg>
