<?xml version="1.0" encoding="utf-8"?>
<!-- Generated by IcoMoon.io -->
<!DOCTYPE svg PUBLIC "-//W3C//DTD SVG 1.1//EN" "http://www.w3.org/Graphics/SVG/1.1/DTD/svg11.dtd">
<svg version="1.1" xmlns="http://www.w3.org/2000/svg" xmlns:xlink="http://www.w3.org/1999/xlink" width="65" height="48" viewBox="0 0 65 48">
<path d="M42.675 26.925c-1.050-1.2-2.925-2.4-5.625-3.675l-6.525-3c-0.075-0.075-0.225-0.075-0.3-0.15-1.35-0.6-2.4-1.2-3.075-1.725-0.75-0.6-1.125-1.275-1.125-2.025 0-1.275 0.525-2.1 1.65-2.475 0.675-0.225 1.575-0.375 2.55-0.45 0.6-0.075 0.975-0.075 1.65-0.075 0.75 0 1.125 0 1.875 0v-7.35h-3.75v3.6c-0.75 0.075-1.8 0.15-2.7 0.3-1.425 0.225-2.625 0.6-3.675 1.125s-1.875 1.2-2.475 2.1c-0.6 0.9-0.9 1.95-0.9 3.3 0 1.65 0.6 3 1.875 4.2 1.2 1.125 2.85 2.175 4.875 3.15l3.3 1.5 3.375 1.575c0.225 0.15 0.45 0.225 0.75 0.375 1.5 0.75 2.55 1.35 3.15 1.875 0.675 0.6 1.050 1.275 1.050 2.025 0 1.425-0.525 2.325-1.65 2.85-0.675 0.3-1.5 0.525-2.55 0.675-0.675 0.075-1.575 0.15-2.4 0.15-0.525 0-1.125 0-1.875 0v7.2h3.75v-3.675c1.5-0.075 2.175-0.225 3-0.375 1.5-0.3 2.925-0.75 4.050-1.35 1.050-0.6 1.95-1.35 2.55-2.325s0.9-2.025 0.9-3.375c-0.15-1.425-0.675-2.775-1.725-3.975z" fill="#444444"></path>
<path d="M34.275 45.975c0 1.118-0.907 2.025-2.025 2.025s-2.025-0.907-2.025-2.025c0-1.118 0.907-2.025 2.025-2.025s2.025 0.907 2.025 2.025z" fill="#444444"></path>
<path d="M34.275 2.025c0 1.118-0.907 2.025-2.025 2.025s-2.025-0.907-2.025-2.025c0-1.118 0.907-2.025 2.025-2.025s2.025 0.907 2.025 2.025z" fill="#444444"></path>
<path d="M0 24l21.975 22.275 2.85-2.85-19.125-19.425 19.125-19.425-2.85-2.85z" fill="#444444"></path>
<path d="M64.5 24l-21.975 22.275-2.85-2.85 19.125-19.425-19.125-19.425 2.85-2.85z" fill="#444444"></path>
</svg>
