<?xml version="1.0" encoding="utf-8"?>
<!-- Generated by IcoMoon.io -->
<!DOCTYPE svg PUBLIC "-//W3C//DTD SVG 1.1//EN" "http://www.w3.org/Graphics/SVG/1.1/DTD/svg11.dtd">
<svg version="1.1" xmlns="http://www.w3.org/2000/svg" xmlns:xlink="http://www.w3.org/1999/xlink" width="225" height="48" viewBox="0 0 225 48">
<path d="M22.5 25.95c0 3.975-0.975 7.050-2.85 9.15s-4.8 3.225-8.7 3.225c-0.825 0-1.8-0.075-2.925-0.15s-2.25-0.225-3.3-0.375v9.15c0 0.3-0.075 0.525-0.3 0.675s-0.45 0.3-0.75 0.3h-2.7c-0.3 0-0.525-0.075-0.675-0.3-0.225-0.225-0.3-0.45-0.3-0.675v-34.8c0-0.3 0.075-0.6 0.15-0.75 0.15-0.15 0.45-0.3 0.9-0.375 1.425-0.3 3-0.6 4.725-0.825s3.45-0.3 5.025-0.3c1.95 0 3.675 0.3 5.175 0.9s2.625 1.425 3.6 2.55c0.975 1.125 1.65 2.4 2.1 3.975 0.45 1.5 0.675 3.225 0.675 5.1v3.525zM17.85 22.35c0-1.35-0.15-2.475-0.375-3.6-0.225-1.050-0.6-2.025-1.125-2.775s-1.275-1.35-2.1-1.8c-0.9-0.45-2.025-0.6-3.3-0.6-1.125 0-2.25 0.075-3.375 0.15s-2.1 0.225-2.85 0.375v20.025c0.9 0.15 1.95 0.3 3.15 0.375s2.25 0.15 3.075 0.15c1.275 0 2.4-0.225 3.3-0.6s1.575-0.975 2.1-1.725c0.525-0.75 0.9-1.65 1.125-2.7s0.375-2.325 0.375-3.675v-3.6z" fill="#444444"></path>
<path d="M48.525 36.975c0 0.3-0.075 0.525-0.3 0.675-0.225 0.225-0.45 0.3-0.75 0.3h-2.55c-0.3 0-0.525-0.075-0.75-0.3s-0.3-0.45-0.3-0.675v-16.65c0-2.55-0.525-4.275-1.575-5.175-1.050-0.975-2.4-1.425-4.125-1.425-0.45 0-0.9 0-1.5 0.075s-1.2 0.15-1.875 0.225-1.35 0.3-2.025 0.45c-0.675 0.15-1.35 0.375-1.875 0.6v21.825c0 0.3-0.075 0.525-0.3 0.675-0.225 0.225-0.45 0.3-0.75 0.3h-2.625c-0.3 0-0.525-0.075-0.75-0.3s-0.3-0.45-0.3-0.675v-36c0-0.3 0.075-0.525 0.3-0.675 0.225-0.225 0.45-0.3 0.75-0.3h2.625c0.3 0 0.525 0.075 0.75 0.3 0.15 0.3 0.225 0.525 0.225 0.75v10.425c1.275-0.525 2.7-0.9 4.2-1.2 1.5-0.225 2.85-0.375 3.975-0.375 1.425 0 2.7 0.225 3.9 0.6s2.175 1.050 3 1.875c0.825 0.825 1.5 1.95 1.95 3.225 0.45 1.35 0.675 2.925 0.675 4.8v16.65z" fill="#444444"></path>
<path d="M75.6 25.95c0 3.975-0.975 7.050-2.85 9.15-1.95 2.175-4.8 3.225-8.7 3.225-0.825 0-1.8-0.075-2.925-0.15s-2.25-0.225-3.3-0.375v9.15c0 0.3-0.075 0.525-0.3 0.675s-0.45 0.3-0.75 0.3h-2.7c-0.3 0-0.525-0.075-0.675-0.3-0.15-0.15-0.3-0.375-0.3-0.675v-34.8c0-0.3 0.075-0.6 0.15-0.75 0.15-0.15 0.45-0.3 0.9-0.375 1.425-0.3 3-0.6 4.725-0.825s3.45-0.3 5.025-0.3c1.95 0 3.675 0.3 5.175 0.9 1.425 0.6 2.625 1.425 3.6 2.55s1.65 2.4 2.1 3.975c0.45 1.5 0.675 3.225 0.675 5.1v3.525zM70.95 22.35c0-1.35-0.15-2.475-0.375-3.6-0.225-1.050-0.6-2.025-1.125-2.775s-1.275-1.35-2.1-1.8c-0.9-0.45-2.025-0.6-3.3-0.6-1.125 0-2.25 0.075-3.375 0.15s-2.1 0.225-2.85 0.375v20.025c0.9 0.15 1.95 0.3 3.15 0.375s2.25 0.15 3.075 0.15c1.35 0 2.4-0.225 3.3-0.6s1.575-0.975 2.1-1.725c0.525-0.75 0.9-1.65 1.125-2.7s0.375-2.325 0.375-3.675v-3.6z" fill="#444444"></path>
<path d="M102.225 28.275c0 1.2-0.225 2.4-0.6 3.675s-1.050 2.325-2.025 3.225c-0.975 0.975-2.325 1.725-4.050 2.325s-3.9 0.9-6.525 0.9c-1.875 0-3.525-0.075-4.95-0.225s-2.7-0.3-3.9-0.45c-0.45-0.075-0.75-0.15-0.825-0.3s-0.15-0.3-0.15-0.6v-2.025c0-0.3 0.075-0.45 0.3-0.6 0.15-0.15 0.375-0.225 0.675-0.225h0.15c0.6 0.075 1.275 0.15 2.025 0.15s1.575 0.075 2.325 0.075c0.825 0 1.575 0 2.325 0.075 0.75 0 1.425 0 2.025 0 1.575 0 2.925-0.15 3.975-0.45s1.875-0.675 2.475-1.2c0.6-0.525 1.050-1.125 1.275-1.875s0.375-1.575 0.375-2.4c0-0.675-0.075-1.2-0.3-1.725s-0.6-1.050-1.050-1.575c-0.525-0.525-1.125-1.050-1.95-1.575s-1.8-1.2-3-1.875l-5.175-3c-2.475-1.425-4.275-2.85-5.475-4.275s-1.8-3.15-1.8-5.175c0-3.075 1.125-5.325 3.3-6.75s5.325-2.175 9.45-2.175c0.75 0 1.575 0 2.475 0.075 0.9 0 1.725 0.075 2.55 0.15s1.65 0.15 2.4 0.225c0.75 0.075 1.35 0.15 1.875 0.225 0.6 0.075 0.9 0.375 0.9 0.825v2.025c0 0.525-0.3 0.825-0.9 0.825h-0.075c-1.2-0.075-2.625-0.15-4.275-0.225s-3.3-0.075-4.875-0.075c-2.775 0-4.8 0.3-6 0.975s-1.8 1.95-1.8 3.825c0 1.2 0.45 2.175 1.35 3.075s2.4 1.875 4.425 3l4.875 2.775c1.5 0.9 2.85 1.725 3.9 2.55s1.95 1.65 2.625 2.4c0.675 0.825 1.125 1.65 1.425 2.55 0.075 0.9 0.225 1.8 0.225 2.85z" fill="#444444"></path>
<path d="M127.425 38.025c0 1.95-0.225 3.6-0.675 4.875s-1.125 2.325-2.025 3.075c-0.9 0.75-2.025 1.275-3.375 1.575s-2.925 0.45-4.725 0.45c-0.975 0-1.95 0-2.85-0.075s-1.8-0.15-2.55-0.225c-0.75-0.075-1.425-0.15-2.025-0.3-0.6-0.075-1.050-0.15-1.35-0.225-0.675-0.15-0.975-0.525-0.975-1.050v-1.425c0-0.3 0.075-0.45 0.3-0.6 0.15-0.15 0.375-0.225 0.675-0.225h0.15c0.375 0.075 0.9 0.15 1.575 0.225s1.425 0.15 2.175 0.15c0.75 0.075 1.575 0.075 2.475 0.15 0.825 0.075 1.65 0.075 2.475 0.075 1.2 0 2.175-0.075 3-0.225s1.425-0.525 1.95-0.975c0.45-0.45 0.825-1.125 1.050-1.95s0.3-1.95 0.3-3.225v-0.225c-0.3 0.075-0.75 0.15-1.2 0.225-0.525 0.075-1.050 0.15-1.575 0.15-0.525 0.075-1.125 0.075-1.65 0.15-0.525 0-1.050 0.075-1.5 0.075-1.5 0-3-0.15-4.425-0.45s-2.7-0.825-3.825-1.65c-1.125-0.75-2.025-1.8-2.625-3.15-0.675-1.35-0.975-3.075-0.975-5.175v-16.8c0-0.3 0.075-0.525 0.3-0.675s0.45-0.3 0.75-0.3h2.55c0.3 0 0.525 0.075 0.75 0.3s0.3 0.45 0.3 0.675v16.65c0 1.35 0.15 2.475 0.525 3.3 0.3 0.825 0.825 1.575 1.425 2.025 0.6 0.525 1.35 0.825 2.25 1.050 0.9 0.15 1.875 0.3 3 0.3 0.75 0 1.725-0.075 2.925-0.225 1.125-0.15 2.1-0.3 2.925-0.45v-22.65c0-0.3 0.075-0.525 0.3-0.675 0.225-0.225 0.45-0.3 0.75-0.3h2.55c0.3 0 0.525 0.075 0.75 0.3s0.3 0.45 0.3 0.675v26.775z" fill="#444444"></path>
<path d="M154.35 36.975c0 0.3-0.075 0.525-0.3 0.675-0.15 0.225-0.375 0.3-0.675 0.3h-2.775c-0.3 0-0.525-0.075-0.675-0.3s-0.3-0.45-0.3-0.675v-18c0-1.875-0.3-3.225-0.975-4.050s-1.875-1.2-3.675-1.2h-3.75c-1.8 0-3 0.375-3.675 1.2s-0.975 2.175-0.975 4.050v18.075c0 0.3-0.075 0.525-0.3 0.675s-0.375 0.3-0.675 0.3h-2.775c-0.3 0-0.525-0.075-0.675-0.3s-0.3-0.45-0.3-0.675v-18.075c0-1.95 0.3-3.525 0.975-4.725s1.425-2.1 2.325-2.775c0.9-0.675 1.95-1.125 3-1.35s2.1-0.3 3-0.3h3.75c0.9 0 1.875 0.075 3 0.3s2.1 0.675 3 1.35c0.9 0.675 1.725 1.575 2.325 2.775s0.975 2.775 0.975 4.725v18z" fill="#444444"></path>
<path d="M173.025 37.2c0 0.45-0.375 0.75-1.050 0.825-0.525 0.075-1.2 0.15-2.175 0.225s-1.95 0.075-2.925 0.075c-1.275 0-2.325-0.075-3.3-0.3s-1.8-0.6-2.475-1.125c-0.675-0.525-1.2-1.275-1.575-2.175s-0.525-2.025-0.525-3.375v-26.1c0-0.3 0.075-0.45 0.3-0.6s0.45-0.225 0.75-0.3l2.625-0.375h0.075c0.3 0 0.525 0.075 0.675 0.3 0.15 0.15 0.225 0.45 0.225 0.675v5.325h8.325c0.675 0 0.975 0.3 0.975 0.9v1.725c0 0.3-0.075 0.525-0.3 0.675s-0.45 0.225-0.75 0.225h-8.325v17.55c0 0.75 0.075 1.35 0.225 1.8s0.375 0.75 0.675 1.050c0.3 0.225 0.675 0.45 1.2 0.525s1.125 0.15 1.875 0.15h4.275c0.75 0 1.125 0.225 1.125 0.675v1.65z" fill="#444444"></path>
<path d="M196.875 36c0 0.375-0.075 0.6-0.15 0.75-0.15 0.15-0.45 0.3-0.9 0.375-1.425 0.3-3 0.6-4.725 0.825s-3.45 0.3-5.025 0.3c-2.025 0-3.675-0.3-5.175-0.9-1.425-0.6-2.625-1.425-3.6-2.475s-1.65-2.4-2.1-3.975c-0.45-1.575-0.675-3.3-0.675-5.175v-3.525c0-1.875 0.225-3.6 0.675-5.1s1.2-2.85 2.1-3.975c0.975-1.125 2.175-1.95 3.6-2.55s3.15-0.9 5.175-0.9c1.575 0 3.3 0.075 5.025 0.3s3.375 0.525 4.725 0.825c0.525 0.075 0.825 0.225 0.9 0.375 0.15 0.15 0.15 0.45 0.15 0.75v24.075zM192.15 14.1c-0.675-0.15-1.65-0.225-2.775-0.375-1.125-0.075-2.325-0.15-3.45-0.15-1.35 0-2.4 0.225-3.3 0.6s-1.575 0.975-2.1 1.725c-0.525 0.75-0.9 1.65-1.125 2.775s-0.375 2.325-0.375 3.675v3.525c0 1.35 0.15 2.475 0.375 3.6s0.6 2.025 1.125 2.775c0.525 0.75 1.275 1.35 2.1 1.8s1.95 0.6 3.3 0.6c1.125 0 2.25-0.075 3.375-0.15s2.1-0.225 2.85-0.375v-20.025z" fill="#444444"></path>
<path d="M225 37.425c0 0.375-0.225 0.525-0.675 0.525h-3.675c-0.3 0-0.6-0.15-0.75-0.375l-7.65-10.575-7.575 10.5c-0.15 0.225-0.3 0.375-0.375 0.45s-0.225 0.075-0.525 0.075h-3.225c-0.45 0-0.675-0.15-0.675-0.525 0-0.225 0.075-0.45 0.3-0.675l9.6-12.975-9.075-12.375c-0.15-0.3-0.3-0.525-0.3-0.675 0-0.375 0.3-0.6 0.825-0.6h3.45c0.225 0 0.375 0.075 0.525 0.15s0.3 0.3 0.525 0.525l6.75 9.525 6.825-9.525c0.225-0.3 0.45-0.525 0.525-0.6 0.15-0.075 0.3-0.075 0.525-0.075h3.075c0.45 0 0.675 0.225 0.675 0.6 0 0.15-0.075 0.375-0.3 0.675l-8.925 12.075 9.75 13.275c0.3 0.15 0.375 0.375 0.375 0.6z" fill="#444444"></path>
</svg>
