<?xml version="1.0" encoding="utf-8"?>
<!-- Generated by IcoMoon.io -->
<!DOCTYPE svg PUBLIC "-//W3C//DTD SVG 1.1//EN" "http://www.w3.org/Graphics/SVG/1.1/DTD/svg11.dtd">
<svg version="1.1" xmlns="http://www.w3.org/2000/svg" xmlns:xlink="http://www.w3.org/1999/xlink" width="48" height="48" viewBox="0 0 48 48">
<path d="M40.002 0h-32.001c-4.4 0-8.001 3.601-8.001 8.001v31.998c0 4.403 3.601 8.001 8.001 8.001h32c4.4 0 7.999-3.598 7.999-8.002v-31.998c0-4.4-3.598-8.001-7.998-8.001zM24 3c3.221 0 6.272 0.726 9 2.022v13.459l-14.698-14.698c1.812-0.51 3.723-0.783 5.698-0.783zM3 24c0-8.245 4.752-15.379 11.666-18.815l5.315 5.315-16.733 16.733c-0.163-1.054-0.248-2.134-0.248-3.233zM12 41.234c-3.501-2.442-6.223-5.923-7.719-9.996l7.719-7.719v17.715zM24 45c-3.221 0-6.272-0.726-9-2.022v-6.978h26.234c-3.795 5.44-10.098 9-17.234 9zM42.978 33h-6.978v-26.234c5.44 3.795 9 10.098 9 17.234 0 3.221-0.726 6.272-2.022 9z" fill="#444444"></path>
</svg>
