<?xml version="1.0" encoding="utf-8"?>
<!-- Generated by IcoMoon.io -->
<!DOCTYPE svg PUBLIC "-//W3C//DTD SVG 1.1//EN" "http://www.w3.org/Graphics/SVG/1.1/DTD/svg11.dtd">
<svg version="1.1" xmlns="http://www.w3.org/2000/svg" xmlns:xlink="http://www.w3.org/1999/xlink" width="48" height="48" viewBox="0 0 48 48">
<path d="M33 18.481l-17.084-17.084c2.526-0.904 5.247-1.397 8.084-1.397 3.183 0 6.22 0.621 9 1.747v16.735zM36 33v-29.789c7.174 4.15 12 11.906 12 20.788 0 3.183-0.621 6.221-1.746 9h-10.254zM15 36h29.788c-4.15 7.174-11.905 12-20.788 12-3.183 0-6.221-0.621-9-1.746v-10.254zM19.981 10.5l-19.279 19.279c-0.458-1.851-0.702-3.786-0.702-5.779 0-9.064 5.027-16.955 12.443-21.038l7.537 7.538zM12 23.519v21.269c-4.434-2.565-7.97-6.508-10.025-11.244l10.025-10.025z" fill="#444444"></path>
</svg>
