<?xml version="1.0" encoding="utf-8"?>
<!-- Generated by IcoMoon.io -->
<!DOCTYPE svg PUBLIC "-//W3C//DTD SVG 1.1//EN" "http://www.w3.org/Graphics/SVG/1.1/DTD/svg11.dtd">
<svg version="1.1" xmlns="http://www.w3.org/2000/svg" xmlns:xlink="http://www.w3.org/1999/xlink" width="48" height="48" viewBox="0 0 48 48">
<path d="M40.001 0h-32.002c-4.418 0-7.999 3.582-7.999 8.001v31.998c0 4.419 3.581 8.001 7.999 8.001h32.002c4.418 0 7.999-3.582 7.999-8.001v-31.998c0-4.419-3.581-8.001-7.999-8.001zM26.873 37.689c-2.432 0-4.718-1.264-5.5-2.756 0 0-1.204 4.582-1.495 5.705-0.542 2.084-2.005 4.698-2.983 6.292l-1.64-0.581c-0.21-1.899-0.399-4.811 0.083-6.885 0.436-1.873 2.815-11.93 2.815-11.93s-0.718-1.437-0.718-3.563c0-3.337 1.934-5.828 4.343-5.828 2.047 0 3.037 1.537 3.037 3.381 0 2.059-1.311 5.137-1.987 7.991-0.566 2.389 1.198 4.338 3.553 4.338 4.266 0 7.545-4.498 7.545-10.991 0-5.747-4.129-9.764-10.025-9.764-6.829 0-10.837 5.122-10.837 10.415 0 2.063 0.794 4.275 1.786 5.477 0.196 0.238 0.224 0.446 0.167 0.688-0.182 0.758-0.587 2.389-0.667 2.722-0.105 0.44-0.348 0.533-0.803 0.321-2.998-1.396-4.871-5.778-4.871-9.298 0-7.571 5.5-14.524 15.857-14.524 8.326 0 14.795 5.932 14.795 13.861 0 8.271-5.215 14.928-12.454 14.928z" fill="#444444"></path>
</svg>
