<?xml version="1.0" encoding="utf-8"?>
<!-- Generated by IcoMoon.io -->
<!DOCTYPE svg PUBLIC "-//W3C//DTD SVG 1.1//EN" "http://www.w3.org/Graphics/SVG/1.1/DTD/svg11.dtd">
<svg version="1.1" xmlns="http://www.w3.org/2000/svg" xmlns:xlink="http://www.w3.org/1999/xlink" width="48" height="48" viewBox="0 0 48 48">
<path d="M45 19.5v7.5c0 2.481-2.019 4.5-4.5 4.5-0.802 0-1.555-0.211-2.208-0.58-0.8 1.249-2.201 2.080-3.792 2.080-1.151 0-2.204-0.435-3-1.149-0.796 0.714-1.849 1.149-3 1.149-0.526 0-1.031-0.091-1.5-0.257v10.757c0 2.481-2.019 4.5-4.5 4.5s-4.5-2.019-4.5-4.5v-18.5l-8.251 4.399c-0.682 0.394-1.459 0.602-2.249 0.602-2.482 0-4.5-2.019-4.5-4.5 0-1.236 0.49-2.388 1.382-3.245 0.012-0.011 0.023-0.022 0.035-0.033l11.211-10.223h-2.129c-0.829 0-1.5-0.671-1.5-1.5v-9c0-0.829 0.671-1.5 1.5-1.5h30c0.829 0 1.5 0.671 1.5 1.5v9c0 0.829-0.671 1.5-1.5 1.5h-2.073l3.415 6.83c0.104 0.208 0.158 0.438 0.158 0.67zM42 7.5c0-0.829-0.671-1.5-1.5-1.5s-1.5 0.671-1.5 1.5 0.671 1.5 1.5 1.5 1.5-0.671 1.5-1.5zM42 19.854l-3.927-7.854h-17.992l-13.632 12.43c-0.289 0.284-0.449 0.664-0.449 1.070 0 0.827 0.673 1.5 1.5 1.5 0.256 0 0.497-0.062 0.718-0.182 0.025-0.015 0.050-0.029 0.076-0.043l10.5-5.597c0.465-0.248 1.026-0.234 1.477 0.037s0.728 0.759 0.728 1.286v21c0 0.827 0.673 1.5 1.5 1.5s1.5-0.673 1.5-1.5v-15c0-0.829 0.671-1.5 1.5-1.5s1.5 0.671 1.5 1.5c0 0.827 0.673 1.5 1.5 1.5s1.5-0.673 1.5-1.5c0-0.829 0.671-1.5 1.5-1.5s1.5 0.671 1.5 1.5c0 0.827 0.673 1.5 1.5 1.5s1.5-0.673 1.5-1.5v-1.5c0-0.829 0.671-1.5 1.5-1.5s1.5 0.671 1.5 1.5c0 0.827 0.673 1.5 1.5 1.5s1.5-0.673 1.5-1.5v-7.146z" fill="#444444"></path>
</svg>
