<?xml version="1.0" encoding="utf-8"?>
<!-- Generated by IcoMoon.io -->
<!DOCTYPE svg PUBLIC "-//W3C//DTD SVG 1.1//EN" "http://www.w3.org/Graphics/SVG/1.1/DTD/svg11.dtd">
<svg version="1.1" xmlns="http://www.w3.org/2000/svg" xmlns:xlink="http://www.w3.org/1999/xlink" width="48" height="48" viewBox="0 0 48 48">
<path d="M28.5 45h-7.5c-2.481 0-4.5-2.019-4.5-4.5 0-0.802 0.211-1.555 0.58-2.208-1.25-0.8-2.080-2.201-2.080-3.792 0-1.151 0.435-2.204 1.149-3-0.714-0.796-1.149-1.849-1.149-3 0-0.526 0.091-1.031 0.257-1.5h-10.757c-2.481 0-4.5-2.019-4.5-4.5s2.019-4.5 4.5-4.5h18.5l-4.399-8.251c-0.394-0.682-0.602-1.459-0.602-2.249 0-2.482 2.019-4.5 4.5-4.5 1.236 0 2.389 0.49 3.245 1.382 0.011 0.012 0.022 0.023 0.033 0.035l10.223 11.211v-2.129c0-0.829 0.671-1.5 1.5-1.5h9c0.829 0 1.5 0.671 1.5 1.5v30c0 0.829-0.671 1.5-1.5 1.5h-9c-0.829 0-1.5-0.671-1.5-1.5v-2.073l-6.83 3.415c-0.208 0.104-0.438 0.158-0.67 0.158zM40.5 42c0.829 0 1.5-0.671 1.5-1.5s-0.671-1.5-1.5-1.5-1.5 0.671-1.5 1.5 0.671 1.5 1.5 1.5zM28.146 42l7.854-3.927v-17.992l-12.43-13.632c-0.284-0.289-0.664-0.449-1.070-0.449-0.827 0-1.5 0.673-1.5 1.5 0 0.256 0.062 0.497 0.182 0.718 0.015 0.025 0.030 0.050 0.043 0.076l5.597 10.5c0.248 0.465 0.234 1.026-0.037 1.477s-0.759 0.728-1.286 0.728h-21c-0.827 0-1.5 0.673-1.5 1.5s0.673 1.5 1.5 1.5h15c0.829 0 1.5 0.671 1.5 1.5s-0.671 1.5-1.5 1.5c-0.827 0-1.5 0.673-1.5 1.5s0.673 1.5 1.5 1.5c0.829 0 1.5 0.671 1.5 1.5s-0.671 1.5-1.5 1.5c-0.827 0-1.5 0.673-1.5 1.5s0.673 1.5 1.5 1.5h1.5c0.829 0 1.5 0.671 1.5 1.5s-0.671 1.5-1.5 1.5c-0.827 0-1.5 0.673-1.5 1.5s0.673 1.5 1.5 1.5h7.146z" fill="#444444"></path>
</svg>
