<?xml version="1.0" encoding="utf-8"?>
<!-- Generated by IcoMoon.io -->
<!DOCTYPE svg PUBLIC "-//W3C//DTD SVG 1.1//EN" "http://www.w3.org/Graphics/SVG/1.1/DTD/svg11.dtd">
<svg version="1.1" xmlns="http://www.w3.org/2000/svg" xmlns:xlink="http://www.w3.org/1999/xlink" width="48" height="48" viewBox="0 0 48 48">
<path d="M35.12 28.48c0.56-1.38 0.88-2.89 0.88-4.48 0-6.63-5.37-12-12-12-1.59 0-3.1 0.32-4.49 0.88l3.25 3.25c0.41-0.070 0.82-0.13 1.24-0.13 4.42 0 8 3.58 8 8 0 0.43-0.040 0.85-0.11 1.25l3.23 3.23zM24 8c8.84 0 16 7.16 16 16 0 2.71-0.7 5.24-1.89 7.47l2.94 2.94c1.86-3.030 2.95-6.59 2.95-10.41 0-11.050-8.96-20-20-20-3.82 0-7.38 1.090-10.41 2.95l2.92 2.92c2.23-1.19 4.78-1.87 7.49-1.87zM6.54 5l-2.54 2.55 4.21 4.21c-2.63 3.38-4.21 7.62-4.21 12.24 0 7.39 4.020 13.83 9.99 17.29l2-3.46c-4.77-2.76-7.99-7.92-7.99-13.83 0-3.51 1.14-6.75 3.060-9.39l2.87 2.87c-1.22 1.88-1.93 4.11-1.93 6.52 0 4.44 2.41 8.3 5.99 10.38l2.020-3.48c-2.39-1.39-4.010-3.94-4.010-6.9 0-1.29 0.34-2.49 0.88-3.57l3.16 3.16-0.040 0.41c0 2.21 1.79 4 4 4l0.41-0.040 15.040 15.040 2.55-2.55-35.46-35.45z" fill="#444444"></path>
</svg>
