<?xml version="1.0" encoding="utf-8"?>
<!-- Generated by IcoMoon.io -->
<!DOCTYPE svg PUBLIC "-//W3C//DTD SVG 1.1//EN" "http://www.w3.org/Graphics/SVG/1.1/DTD/svg11.dtd">
<svg version="1.1" xmlns="http://www.w3.org/2000/svg" xmlns:xlink="http://www.w3.org/1999/xlink" width="48" height="48" viewBox="0 0 48 48">
<path d="M45.75 0h-18c-1.237 0-2.966 0.716-3.841 1.591l-22.318 22.318c-0.875 0.875-0.875 2.307 0 3.182l19.318 19.318c0.875 0.875 2.307 0.875 3.182 0l22.318-22.318c0.875-0.875 1.591-2.603 1.591-3.841v-18c0-1.237-1.013-2.25-2.25-2.25zM34.5 18c-2.486 0-4.5-2.014-4.5-4.5s2.014-4.5 4.5-4.5 4.5 2.014 4.5 4.5-2.014 4.5-4.5 4.5z" fill="#444444"></path>
</svg>
