<?xml version="1.0" encoding="utf-8"?>
<!-- Generated by IcoMoon.io -->
<!DOCTYPE svg PUBLIC "-//W3C//DTD SVG 1.1//EN" "http://www.w3.org/Graphics/SVG/1.1/DTD/svg11.dtd">
<svg version="1.1" xmlns="http://www.w3.org/2000/svg" xmlns:xlink="http://www.w3.org/1999/xlink" width="48" height="48" viewBox="0 0 48 48">
<path d="M12 3h24v6h-24v-6z" fill="#444444"></path>
<path d="M45 12h-42c-1.65 0-3 1.35-3 3v15c0 1.65 1.35 3 3 3h9v12h24v-12h9c1.65 0 3-1.35 3-3v-15c0-1.65-1.35-3-3-3zM6 21c-1.657 0-3-1.343-3-3s1.343-3 3-3 3 1.343 3 3-1.343 3-3 3zM33 42h-18v-15h18v15z" fill="#444444"></path>
</svg>
