<?xml version="1.0" encoding="utf-8"?>
<!-- Generated by IcoMoon.io -->
<!DOCTYPE svg PUBLIC "-//W3C//DTD SVG 1.1//EN" "http://www.w3.org/Graphics/SVG/1.1/DTD/svg11.dtd">
<svg version="1.1" xmlns="http://www.w3.org/2000/svg" xmlns:xlink="http://www.w3.org/1999/xlink" width="48" height="48" viewBox="0 0 48 48">
<path d="M40.5 0h-36c-2.475 0-4.5 2.025-4.5 4.5v39c0 2.475 2.025 4.5 4.5 4.5h36c2.475 0 4.5-2.025 4.5-4.5v-39c0-2.475-2.025-4.5-4.5-4.5zM39 42h-33v-36h33v36zM12 27h21v3h-21zM12 33h21v3h-21zM15 13.5c0-2.486 2.014-4.5 4.5-4.5s4.5 2.014 4.5 4.5c0 2.486-2.014 4.5-4.5 4.5s-4.5-2.014-4.5-4.5zM22.5 18h-6c-2.475 0-4.5 1.35-4.5 3v3h15v-3c0-1.65-2.025-3-4.5-3z" fill="#444444"></path>
</svg>
