<?xml version="1.0" encoding="utf-8"?>
<!-- Generated by IcoMoon.io -->
<!DOCTYPE svg PUBLIC "-//W3C//DTD SVG 1.1//EN" "http://www.w3.org/Graphics/SVG/1.1/DTD/svg11.dtd">
<svg version="1.1" xmlns="http://www.w3.org/2000/svg" xmlns:xlink="http://www.w3.org/1999/xlink" width="48" height="48" viewBox="0 0 48 48">
<path d="M24 4c-11.050 0-20 8.95-20 20s8.95 20 20 20 20-8.95 20-20-8.95-20-20-20zM22 39.86c-7.89-0.98-14-7.7-14-15.86 0-1.23 0.15-2.43 0.42-3.58l9.58 9.58v2c0 2.21 1.79 4 4 4v3.86zM35.79 34.79c-0.51-1.62-2.010-2.79-3.79-2.79h-2v-6c0-1.1-0.9-2-2-2h-12v-4h4c1.1 0 2-0.9 2-2v-4h4c2.21 0 4-1.79 4-4v-0.83c5.86 2.37 10 8.11 10 14.83 0 4.16-1.6 7.94-4.21 10.79z" fill="#444444"></path>
</svg>
