<?xml version="1.0" encoding="utf-8"?>
<!-- Generated by IcoMoon.io -->
<!DOCTYPE svg PUBLIC "-//W3C//DTD SVG 1.1//EN" "http://www.w3.org/Graphics/SVG/1.1/DTD/svg11.dtd">
<svg version="1.1" xmlns="http://www.w3.org/2000/svg" xmlns:xlink="http://www.w3.org/1999/xlink" width="48" height="48" viewBox="0 0 48 48">
<path d="M15 3h-12v12h12v-12zM18 0v0 18h-18v-18h18zM6 6h6v6h-6zM45 3h-12v12h12v-12zM48 0v0 18h-18v-18h18zM36 6h6v6h-6zM15 33h-12v12h12v-12zM18 30v0 18h-18v-18h18zM6 36h6v6h-6zM21 0h3v3h-3zM24 3h3v3h-3zM21 6h3v3h-3zM24 9h3v3h-3zM21 12h3v3h-3zM24 15h3v3h-3zM21 18h3v3h-3zM21 24h3v3h-3zM24 27h3v3h-3zM21 30h3v3h-3zM24 33h3v3h-3zM21 36h3v3h-3zM24 39h3v3h-3zM21 42h3v3h-3zM24 45h3v3h-3zM45 24h3v3h-3zM3 24h3v3h-3zM6 21h3v3h-3zM0 21h3v3h-3zM12 21h3v3h-3zM15 24h3v3h-3zM18 21h3v3h-3zM27 24h3v3h-3zM30 21h3v3h-3zM33 24h3v3h-3zM36 21h3v3h-3zM39 24h3v3h-3zM42 21h3v3h-3zM45 30h3v3h-3zM27 30h3v3h-3zM30 27h3v3h-3zM33 30h3v3h-3zM39 30h3v3h-3zM42 27h3v3h-3zM45 36h3v3h-3zM27 36h3v3h-3zM30 33h3v3h-3zM36 33h3v3h-3zM39 36h3v3h-3zM42 33h3v3h-3zM45 42h3v3h-3zM30 39h3v3h-3zM33 42h3v3h-3zM36 39h3v3h-3zM39 42h3v3h-3zM30 45h3v3h-3zM36 45h3v3h-3zM42 45h3v3h-3z" fill="#444444"></path>
</svg>
