<?xml version="1.0" encoding="utf-8"?>
<!-- Generated by IcoMoon.io -->
<!DOCTYPE svg PUBLIC "-//W3C//DTD SVG 1.1//EN" "http://www.w3.org/Graphics/SVG/1.1/DTD/svg11.dtd">
<svg version="1.1" xmlns="http://www.w3.org/2000/svg" xmlns:xlink="http://www.w3.org/1999/xlink" width="48" height="48" viewBox="0 0 48 48">
<path d="M21 33h6v6h-6zM33 12c1.657 0 3 1.343 3 3v9l-9 6h-6v-3l9-6v-3h-15v-6h18zM24 4.5c-5.209 0-10.105 2.028-13.789 5.711s-5.711 8.58-5.711 13.789c0 5.209 2.028 10.106 5.711 13.789s8.58 5.711 13.789 5.711c5.209 0 10.106-2.029 13.789-5.711s5.711-8.58 5.711-13.789c0-5.209-2.029-10.105-5.711-13.789s-8.58-5.711-13.789-5.711zM24 0v0c13.255 0 24 10.745 24 24s-10.745 24-24 24c-13.255 0-24-10.745-24-24s10.745-24 24-24z" fill="#444444"></path>
</svg>
