<?xml version="1.0" encoding="utf-8"?>
<!-- Generated by IcoMoon.io -->
<!DOCTYPE svg PUBLIC "-//W3C//DTD SVG 1.1//EN" "http://www.w3.org/Graphics/SVG/1.1/DTD/svg11.dtd">
<svg version="1.1" xmlns="http://www.w3.org/2000/svg" xmlns:xlink="http://www.w3.org/1999/xlink" width="48" height="48" viewBox="0 0 48 48">
<path d="M44 6h-40c-2.21 0-4 1.79-4 4v28c0 2.21 1.79 4 4 4h40c2.21 0 3.98-1.79 3.98-4l0.020-28c0-2.21-1.79-4-4-4zM16 12c3.31 0 6 2.69 6 6 0 3.32-2.69 6-6 6s-6-2.68-6-6c0-3.31 2.69-6 6-6zM28 36h-24v-2c0-4 8-6.2 12-6.2s12 2.2 12 6.2v2zM35.7 28h3.28l3.020 4-3.99 3.99c-2.61-1.96-4.56-4.75-5.46-7.99-0.35-1.28-0.55-2.61-0.55-4s0.2-2.72 0.56-4c0.89-3.24 2.84-6.030 5.46-7.99l3.98 3.99-3.020 4h-3.28c-0.44 1.25-0.7 2.6-0.7 4s0.25 2.75 0.7 4z" fill="#444444"></path>
</svg>
