<?xml version="1.0" encoding="utf-8"?>
<!-- Generated by IcoMoon.io -->
<!DOCTYPE svg PUBLIC "-//W3C//DTD SVG 1.1//EN" "http://www.w3.org/Graphics/SVG/1.1/DTD/svg11.dtd">
<svg version="1.1" xmlns="http://www.w3.org/2000/svg" xmlns:xlink="http://www.w3.org/1999/xlink" width="48" height="48" viewBox="0 0 48 48">
<path d="M10.547 21c5.799 0 10.5 4.701 10.5 10.5s-4.701 10.5-10.5 10.5-10.5-4.701-10.5-10.5l-0.047-1.5c0-11.598 9.402-21 21-21v6c-4.006 0-7.774 1.56-10.607 4.393-0.545 0.545-1.043 1.126-1.492 1.736 0.536-0.085 1.085-0.129 1.645-0.129zM37.547 21c5.799 0 10.5 4.701 10.5 10.5s-4.701 10.5-10.5 10.5-10.5-4.701-10.5-10.5l-0.047-1.5c0-11.598 9.402-21 21-21v6c-4.007 0-7.774 1.56-10.606 4.393-0.545 0.545-1.043 1.126-1.492 1.736 0.536-0.085 1.085-0.129 1.645-0.129z" fill="#444444"></path>
</svg>
