<?xml version="1.0" encoding="utf-8"?>
<!-- Generated by IcoMoon.io -->
<!DOCTYPE svg PUBLIC "-//W3C//DTD SVG 1.1//EN" "http://www.w3.org/Graphics/SVG/1.1/DTD/svg11.dtd">
<svg version="1.1" xmlns="http://www.w3.org/2000/svg" xmlns:xlink="http://www.w3.org/1999/xlink" width="48" height="48" viewBox="0 0 48 48">
<path d="M12 30c0-1.657 1.343-3 3-3s3 1.343 3 3c0 1.657-1.343 3-3 3s-3-1.343-3-3zM30 30c0-1.657 1.343-3 3-3s3 1.343 3 3c0 1.657-1.343 3-3 3s-3-1.343-3-3zM30.146 36.412c0.773-0.609 1.892-0.476 2.501 0.297s0.476 1.893-0.297 2.501c-2.151 1.695-5.429 2.79-8.35 2.79s-6.199-1.095-8.351-2.79c-0.773-0.609-0.905-1.729-0.297-2.502s1.729-0.905 2.501-0.297c1.238 0.976 3.69 2.026 6.146 2.026s4.907-1.050 6.146-2.026zM48 24c0-3.313-2.687-6-6-6-2.255 0-4.218 1.246-5.243 3.085-3.084-1.688-6.841-2.777-10.935-3.028l3.581-8.040 6.853 1.978c0.617 1.751 2.284 3.005 4.245 3.005 2.486 0 4.5-2.014 4.5-4.5s-2.014-4.5-4.5-4.5c-1.714 0-3.203 0.959-3.964 2.368l-7.637-2.204c-0.854-0.247-1.76 0.175-2.121 0.987l-4.864 10.923c-3.991 0.281-7.653 1.36-10.67 3.011-1.025-1.84-2.989-3.085-5.245-3.085-3.314 0-6 2.687-6 6 0 2.453 1.472 4.559 3.58 5.489-0.378 1.127-0.58 2.302-0.58 3.511 0 8.285 9.402 15 21 15s21-6.715 21-15c0-1.209-0.202-2.384-0.58-3.51 2.108-0.931 3.58-3.038 3.58-5.49zM40.5 8.813c0.932 0 1.688 0.755 1.688 1.688s-0.755 1.688-1.688 1.688-1.688-0.755-1.688-1.688 0.755-1.688 1.688-1.688zM3 24c0-1.654 1.346-3 3-3 1.195 0 2.23 0.703 2.711 1.718-1.568 1.189-2.867 2.56-3.828 4.066-1.103-0.444-1.883-1.524-1.883-2.784zM24 44.438c-9.631 0-17.438-5.121-17.438-11.438s7.807-11.438 17.438-11.438c9.631 0 17.438 5.121 17.438 11.438s-7.807 11.438-17.438 11.438zM43.117 26.784c-0.961-1.505-2.261-2.877-3.828-4.066 0.482-1.015 1.516-1.718 2.711-1.718 1.654 0 3 1.346 3 3 0 1.259-0.781 2.34-1.883 2.784z" fill="#444444"></path>
</svg>
