<?xml version="1.0" encoding="utf-8"?>
<!-- Generated by IcoMoon.io -->
<!DOCTYPE svg PUBLIC "-//W3C//DTD SVG 1.1//EN" "http://www.w3.org/Graphics/SVG/1.1/DTD/svg11.dtd">
<svg version="1.1" xmlns="http://www.w3.org/2000/svg" xmlns:xlink="http://www.w3.org/1999/xlink" width="48" height="48" viewBox="0 0 48 48">
<path d="M25.99 6c-9.95 0-17.99 8.060-17.99 18h-6l7.79 7.79 0.14 0.29 8.070-8.080h-6c0-7.73 6.27-14 14-14s14 6.27 14 14-6.27 14-14 14c-3.87 0-7.36-1.58-9.89-4.11l-2.83 2.83c3.25 3.26 7.74 5.28 12.71 5.28 9.95 0 18.010-8.060 18.010-18s-8.060-18-18.010-18zM24 16v10l8.56 5.080 1.44-2.43-7-4.15v-8.5h-3z" fill="#444444"></path>
</svg>
