<?xml version="1.0" encoding="utf-8"?>
<!-- Generated by IcoMoon.io -->
<!DOCTYPE svg PUBLIC "-//W3C//DTD SVG 1.1//EN" "http://www.w3.org/Graphics/SVG/1.1/DTD/svg11.dtd">
<svg version="1.1" xmlns="http://www.w3.org/2000/svg" xmlns:xlink="http://www.w3.org/1999/xlink" width="48" height="48" viewBox="0 0 48 48">
<path d="M14.22 17.050l-2.83-2.83c-1.8 2.32-2.91 5-3.25 7.78h4.040c0.29-1.75 0.97-3.44 2.040-4.95zM12.18 26h-4.040c0.34 2.78 1.45 5.46 3.25 7.78l2.83-2.83c-1.070-1.51-1.75-3.2-2.040-4.95zM14.2 36.63c2.32 1.81 5.020 2.88 7.8 3.22v-4.040c-1.75-0.29-3.43-0.98-4.93-2.050l-2.87 2.87zM26 8.14v-6.14l-9.1 9.1 9.1 8.9v-7.82c5.67 0.95 10 5.88 10 11.82s-4.33 10.87-10 11.82v4.040c7.89-0.99 14-7.7 14-15.86s-6.11-14.87-14-15.86z" fill="#444444"></path>
</svg>
