<?xml version="1.0" encoding="utf-8"?>
<!-- Generated by IcoMoon.io -->
<!DOCTYPE svg PUBLIC "-//W3C//DTD SVG 1.1//EN" "http://www.w3.org/Graphics/SVG/1.1/DTD/svg11.dtd">
<svg version="1.1" xmlns="http://www.w3.org/2000/svg" xmlns:xlink="http://www.w3.org/1999/xlink" width="48" height="48" viewBox="0 0 48 48">
<path d="M31.1 11.1l-9.1-9.1v6.14c-7.89 0.98-14 7.7-14 15.86s6.11 14.88 14 15.86v-4.040c-5.67-0.95-10-5.88-10-11.82s4.33-10.87 10-11.82v7.82l9.1-8.9zM39.86 22c-0.34-2.78-1.45-5.46-3.25-7.78l-2.83 2.83c1.070 1.51 1.75 3.2 2.040 4.95h4.040zM26 35.81v4.050c2.78-0.34 5.48-1.42 7.8-3.22l-2.87-2.87c-1.5 1.060-3.18 1.74-4.93 2.040zM33.78 30.95l2.83 2.83c1.8-2.32 2.91-5 3.25-7.78h-4.040c-0.29 1.75-0.97 3.44-2.040 4.95z" fill="#444444"></path>
</svg>
