<?xml version="1.0" encoding="utf-8"?>
<!-- Generated by IcoMoon.io -->
<!DOCTYPE svg PUBLIC "-//W3C//DTD SVG 1.1//EN" "http://www.w3.org/Graphics/SVG/1.1/DTD/svg11.dtd">
<svg version="1.1" xmlns="http://www.w3.org/2000/svg" xmlns:xlink="http://www.w3.org/1999/xlink" width="48" height="48" viewBox="0 0 48 48">
<path d="M24 3c-1.128 0-2.236 0.084-3.32 0.244-0.014-0.037-0.029-0.073-0.046-0.108 0.602-0.469 0.916-1.117 0.78-1.76-0.175-0.824-1.050-1.376-2.177-1.376-0.243 0-0.49 0.026-0.735 0.078-1.414 0.301-2.351 1.342-2.132 2.37 0.133 0.626 0.67 1.094 1.414 1.284-0.002 0.046-0.001 0.091 0.002 0.137-9.404 2.697-16.286 11.36-16.286 21.63 0 12.427 10.073 22.5 22.5 22.5s22.5-10.073 22.5-22.5c0-12.427-10.073-22.5-22.5-22.5zM17.104 2.293c-0.127-0.596 0.585-1.274 1.554-1.48 0.194-0.041 0.389-0.062 0.579-0.062 0.752 0 1.345 0.322 1.443 0.782 0.075 0.352-0.144 0.732-0.534 1.027-0.33-0.233-0.751-0.334-1.177-0.244-0.424 0.090-0.766 0.352-0.973 0.696-0.478-0.115-0.82-0.379-0.893-0.719zM36.065 37.565c-2.061 2.061-4.557 3.529-7.28 4.32l-1.988-3.224-0.504 3.748c-0.755 0.101-1.52 0.153-2.293 0.153-4.558 0-8.843-1.775-12.065-4.997-2.061-2.061-3.529-4.557-4.32-7.28l3.223-1.988-3.749-0.504c-0.101-0.755-0.153-1.52-0.153-2.293 0-4.558 1.774-8.843 4.997-12.065 2.061-2.061 4.557-3.529 7.28-4.32l1.987 3.223 0.504-3.748c0.755-0.101 1.519-0.153 2.293-0.153 4.558 0 8.843 1.774 12.065 4.997 2.061 2.061 3.529 4.557 4.32 7.28l-3.224 1.987 3.748 0.504c0.101 0.755 0.153 1.519 0.153 2.294 0 4.558-1.775 8.842-4.997 12.065zM35.667 13.833l-9.233 7.018c-0.686-0.359-1.447-0.566-2.222-0.596l-2.394-5.024-0.144 5.562c-0.622 0.307-1.177 0.734-1.635 1.263l-2.957-1.049 2.161 2.276c-0.297 0.634-0.463 1.314-0.489 2.008l-5.023 2.394 5.566 0.144c0.018 0.036 0.036 0.071 0.055 0.107l-7.018 9.233 9.233-7.018c0.686 0.358 1.447 0.565 2.222 0.596l2.395 5.024 0.144-5.562c0.622-0.307 1.177-0.734 1.635-1.263l2.957 1.049-2.161-2.276c0.297-0.634 0.463-1.314 0.489-2.007l5.023-2.394-5.566-0.144c-0.018-0.036-0.036-0.071-0.055-0.107l7.017-9.233zM24.005 20.837v0zM23.065 21.098c0.315-0.067 0.63-0.099 0.94-0.099 0.194 0 0.387 0.013 0.576 0.037l0.005 0.002-0.001-0.001c0.409 0.054 0.805 0.164 1.178 0.323l-3.354 2.549-2.549 3.354c-0.111-0.263-0.2-0.539-0.262-0.827-0.517-2.431 1.035-4.82 3.466-5.337zM26.35 29.339v0 0c-0.425 0.259-0.899 0.454-1.414 0.563-0.315 0.067-0.63 0.099-0.94 0.099-0.194 0-0.387-0.013-0.577-0.037l-0.003-0.001c-0.409-0.053-0.805-0.164-1.178-0.323l3.354-2.549 2.549-3.354c0.111 0.263 0.2 0.539 0.262 0.827 0.407 1.916-0.472 3.806-2.052 4.774z" fill="#444444"></path>
</svg>
