<?xml version="1.0" encoding="utf-8"?>
<!-- Generated by IcoMoon.io -->
<!DOCTYPE svg PUBLIC "-//W3C//DTD SVG 1.1//EN" "http://www.w3.org/Graphics/SVG/1.1/DTD/svg11.dtd">
<svg version="1.1" xmlns="http://www.w3.org/2000/svg" xmlns:xlink="http://www.w3.org/1999/xlink" width="48" height="48" viewBox="0 0 48 48">
<path d="M42.835 31.861c-3.126-4.885-8.488-7.034-11.977-4.802-0.302 0.193-0.578 0.413-0.832 0.656l-3.724-5.825 8.599-13.498c0.704-1.3 0.964-2.848 0.622-4.405-0.327-1.488-1.149-2.739-2.254-3.62l-0.575-0.366-10.194 15.943-10.194-15.943-0.575 0.366c-1.106 0.88-1.928 2.131-2.255 3.62-0.342 1.557-0.082 3.105 0.622 4.405l8.599 13.498-3.725 5.825c-0.254-0.243-0.53-0.463-0.832-0.656-3.489-2.233-8.851-0.083-11.977 4.802s-2.831 10.654 0.658 12.886c3.489 2.233 8.852 0.083 11.977-4.801l7.701-12.088 7.701 12.088c3.126 4.885 8.488 7.034 11.977 4.801s3.783-8.002 0.658-12.886zM11.009 37.52c-1.407 2.198-3.212 3.268-4.433 3.536 0 0 0 0 0 0-0.398 0.088-0.951 0.141-1.327-0.1-0.417-0.267-0.694-0.973-0.74-1.888-0.076-1.484 0.452-3.227 1.448-4.783 1.407-2.199 3.212-3.268 4.433-3.536 0.398-0.088 0.952-0.141 1.328 0.1 0.417 0.267 0.694 0.973 0.74 1.888 0.076 1.483-0.452 3.227-1.447 4.783zM22.5 24c-0.829 0-1.5-0.671-1.5-1.5s0.671-1.5 1.5-1.5 1.5 0.671 1.5 1.5-0.671 1.5-1.5 1.5zM40.493 39.069c-0.047 0.916-0.323 1.621-0.74 1.888-0.377 0.241-0.93 0.188-1.328 0.1 0 0 0 0 0 0-1.22-0.268-3.026-1.338-4.433-3.536-0.996-1.556-1.523-3.299-1.448-4.783 0.047-0.915 0.323-1.621 0.74-1.888 0.377-0.241 0.93-0.187 1.328-0.1 1.22 0.268 3.026 1.338 4.433 3.536 0.996 1.556 1.523 3.299 1.448 4.783z" fill="#444444"></path>
</svg>
