<?xml version="1.0" encoding="utf-8"?>
<!-- Generated by IcoMoon.io -->
<!DOCTYPE svg PUBLIC "-//W3C//DTD SVG 1.1//EN" "http://www.w3.org/Graphics/SVG/1.1/DTD/svg11.dtd">
<svg version="1.1" xmlns="http://www.w3.org/2000/svg" xmlns:xlink="http://www.w3.org/1999/xlink" width="48" height="48" viewBox="0 0 48 48">
<path d="M38.86 25.95c0.080-0.64 0.14-1.29 0.14-1.95s-0.060-1.31-0.14-1.95l4.23-3.31c0.38-0.3 0.49-0.84 0.24-1.28l-4-6.93c-0.25-0.43-0.77-0.61-1.22-0.43l-4.98 2.010c-1.030-0.79-2.16-1.46-3.38-1.97l-0.75-5.3c-0.090-0.47-0.5-0.84-1-0.84h-8c-0.5 0-0.91 0.37-0.99 0.84l-0.75 5.3c-1.22 0.51-2.35 1.17-3.38 1.97l-4.98-2.010c-0.45-0.17-0.97 0-1.22 0.43l-4 6.93c-0.25 0.43-0.14 0.97 0.24 1.28l4.22 3.31c-0.080 0.64-0.14 1.29-0.14 1.95s0.060 1.31 0.14 1.95l-4.22 3.31c-0.38 0.3-0.49 0.84-0.24 1.28l4 6.93c0.25 0.43 0.77 0.61 1.22 0.43l4.98-2.010c1.030 0.79 2.16 1.46 3.38 1.97l0.75 5.3c0.080 0.47 0.49 0.84 0.99 0.84h8c0.5 0 0.91-0.37 0.99-0.84l0.75-5.3c1.22-0.51 2.35-1.17 3.38-1.97l4.98 2.010c0.45 0.17 0.97 0 1.22-0.43l4-6.93c0.25-0.43 0.14-0.97-0.24-1.28l-4.22-3.31zM24 31c-3.87 0-7-3.13-7-7s3.13-7 7-7 7 3.13 7 7-3.13 7-7 7z" fill="#444444"></path>
</svg>
