<?xml version="1.0" encoding="utf-8"?>
<!-- Generated by IcoMoon.io -->
<!DOCTYPE svg PUBLIC "-//W3C//DTD SVG 1.1//EN" "http://www.w3.org/Graphics/SVG/1.1/DTD/svg11.dtd">
<svg version="1.1" xmlns="http://www.w3.org/2000/svg" xmlns:xlink="http://www.w3.org/1999/xlink" width="48" height="48" viewBox="0 0 48 48">
<path d="M24 20c-2.21 0-4 1.79-4 4s1.79 4 4 4 4-1.79 4-4-1.79-4-4-4zM38 6h-28c-2.21 0-4 1.79-4 4v28c0 2.21 1.79 4 4 4h28c2.21 0 4-1.79 4-4v-28c0-2.21-1.79-4-4-4zM34.5 24c0 0.46-0.040 0.92-0.1 1.37l2.96 2.32c0.26 0.21 0.34 0.59 0.16 0.89l-2.8 4.85c-0.17 0.3-0.54 0.42-0.86 0.3l-3.49-1.41c-0.72 0.56-1.51 1.020-2.37 1.38l-0.52 3.71c-0.040 0.33-0.33 0.59-0.68 0.59h-5.6c-0.35 0-0.64-0.26-0.69-0.59l-0.52-3.71c-0.85-0.35-1.64-0.82-2.37-1.38l-3.48 1.4c-0.32 0.12-0.68 0-0.86-0.3l-2.8-4.85c-0.18-0.3-0.1-0.68 0.16-0.89l2.96-2.31c-0.060-0.45-0.1-0.9-0.1-1.37 0-0.46 0.040-0.92 0.1-1.37l-2.96-2.31c-0.26-0.21-0.34-0.59-0.16-0.89l2.8-4.85c0.18-0.3 0.54-0.42 0.86-0.3l3.48 1.4c0.72-0.55 1.51-1.020 2.37-1.38l0.52-3.71c0.050-0.33 0.34-0.59 0.69-0.59h5.6c0.35 0 0.64 0.26 0.69 0.59l0.52 3.71c0.85 0.35 1.64 0.82 2.37 1.38l3.48-1.4c0.32-0.12 0.68 0 0.86 0.3l2.8 4.85c0.18 0.3 0.1 0.68-0.16 0.89l-2.96 2.32c0.060 0.44 0.1 0.9 0.1 1.36z" fill="#444444"></path>
</svg>
