<?xml version="1.0" encoding="utf-8"?>
<!-- Generated by IcoMoon.io -->
<!DOCTYPE svg PUBLIC "-//W3C//DTD SVG 1.1//EN" "http://www.w3.org/Graphics/SVG/1.1/DTD/svg11.dtd">
<svg version="1.1" xmlns="http://www.w3.org/2000/svg" xmlns:xlink="http://www.w3.org/1999/xlink" width="48" height="48" viewBox="0 0 48 48">
<path d="M24.010 11l-4.010 5h8l-3.99-5zM36 20v8l5-3.99-5-4.010zM12 20l-5 4.010 5 3.99v-8zM28 32h-8l4.010 5 3.99-5zM42 6h-36c-2.21 0-4 1.79-4 4v28c0 2.21 1.79 4 4 4h36c2.21 0 4-1.79 4-4v-28c0-2.21-1.79-4-4-4zM42 38.030h-36v-28.060h36v28.060z" fill="#444444"></path>
</svg>
