<?xml version="1.0" encoding="utf-8"?>
<!-- Generated by IcoMoon.io -->
<!DOCTYPE svg PUBLIC "-//W3C//DTD SVG 1.1//EN" "http://www.w3.org/Graphics/SVG/1.1/DTD/svg11.dtd">
<svg version="1.1" xmlns="http://www.w3.org/2000/svg" xmlns:xlink="http://www.w3.org/1999/xlink" width="48" height="48" viewBox="0 0 48 48">
<path d="M18 32h13c2.76 0 5-2.24 5-5s-2.24-5-5-5h-0.1c-0.49-3.39-3.38-6-6.9-6-2.8 0-5.2 1.66-6.32 4.040h-0.33c-3.010 0.32-5.35 2.87-5.35 5.96 0 3.31 2.69 6 6 6zM42 6h-36c-2.21 0-4 1.79-4 4v28c0 2.21 1.79 4 4 4h36c2.21 0 4-1.79 4-4v-28c0-2.21-1.79-4-4-4zM42 38.030h-36v-28.060h36v28.060z" fill="#444444"></path>
</svg>
