<?xml version="1.0" encoding="utf-8"?>
<!-- Generated by IcoMoon.io -->
<!DOCTYPE svg PUBLIC "-//W3C//DTD SVG 1.1//EN" "http://www.w3.org/Graphics/SVG/1.1/DTD/svg11.dtd">
<svg version="1.1" xmlns="http://www.w3.org/2000/svg" xmlns:xlink="http://www.w3.org/1999/xlink" width="48" height="48" viewBox="0 0 48 48">
<path d="M17.050 33.846l1.936-2.711-2.121-2.121-2.71 1.936c-0.503-0.281-1.041-0.505-1.607-0.665l-0.547-3.285h-3l-0.547 3.285c-0.566 0.16-1.104 0.384-1.607 0.665l-2.71-1.936-2.122 2.121 1.936 2.711c-0.281 0.502-0.505 1.041-0.665 1.606l-3.285 0.547v3l3.285 0.547c0.161 0.566 0.384 1.103 0.665 1.606l-1.936 2.711 2.121 2.121 2.71-1.936c0.503 0.281 1.041 0.505 1.606 0.665l0.548 3.285h3l0.547-3.285c0.566-0.16 1.103-0.384 1.607-0.665l2.71 1.936 2.121-2.121-1.936-2.711c0.281-0.502 0.505-1.041 0.665-1.606l3.286-0.547v-3l-3.285-0.547c-0.16-0.566-0.384-1.103-0.665-1.606zM10.5 40.5c-1.657 0-3-1.343-3-3s1.343-3 3-3 3 1.343 3 3-1.343 3-3 3zM48 18v-3l-3.158-0.574c-0.059-0.377-0.133-0.749-0.221-1.115l2.698-1.739-1.148-2.772-3.138 0.678c-0.197-0.324-0.409-0.638-0.632-0.944l1.829-2.641-2.121-2.121-2.641 1.829c-0.305-0.224-0.619-0.435-0.944-0.632l0.678-3.138-2.772-1.148-1.739 2.698c-0.366-0.089-0.738-0.163-1.115-0.221l-0.575-3.158h-3l-0.575 3.158c-0.377 0.058-0.748 0.133-1.115 0.221l-1.739-2.698-2.771 1.148 0.678 3.138c-0.324 0.197-0.638 0.409-0.944 0.632l-2.641-1.829-2.121 2.121 1.828 2.641c-0.223 0.305-0.435 0.62-0.632 0.944l-3.138-0.678-1.148 2.772 2.698 1.739c-0.088 0.366-0.163 0.738-0.221 1.115l-3.159 0.574v3l3.158 0.575c0.058 0.377 0.133 0.749 0.221 1.115l-2.698 1.739 1.148 2.772 3.138-0.678c0.198 0.324 0.409 0.638 0.632 0.944l-1.828 2.641 2.121 2.121 2.641-1.829c0.305 0.224 0.619 0.435 0.944 0.632l-0.678 3.138 2.771 1.148 1.739-2.698c0.366 0.089 0.738 0.164 1.115 0.221l0.575 3.159h3l0.575-3.158c0.377-0.059 0.748-0.133 1.115-0.221l1.739 2.698 2.772-1.148-0.678-3.138c0.324-0.198 0.638-0.409 0.944-0.632l2.641 1.829 2.121-2.121-1.829-2.641c0.224-0.305 0.435-0.619 0.632-0.944l3.138 0.678 1.148-2.772-2.698-1.739c0.089-0.366 0.163-0.738 0.221-1.115l3.158-0.575zM31.5 23.025c-3.604 0-6.525-2.921-6.525-6.525s2.921-6.525 6.525-6.525 6.525 2.921 6.525 6.525c0 3.604-2.921 6.525-6.525 6.525z" fill="#444444"></path>
</svg>
