<?xml version="1.0" encoding="utf-8"?>
<!-- Generated by IcoMoon.io -->
<!DOCTYPE svg PUBLIC "-//W3C//DTD SVG 1.1//EN" "http://www.w3.org/Graphics/SVG/1.1/DTD/svg11.dtd">
<svg version="1.1" xmlns="http://www.w3.org/2000/svg" xmlns:xlink="http://www.w3.org/1999/xlink" width="48" height="48" viewBox="0 0 48 48">
<path d="M40.5 33c-2.117 0-4.027 0.878-5.391 2.289l-20.203-10.102c0.061-0.387 0.095-0.783 0.095-1.187s-0.033-0.8-0.095-1.187l20.203-10.102c1.364 1.411 3.275 2.289 5.391 2.289 4.142 0 7.5-3.358 7.5-7.5s-3.358-7.5-7.5-7.5-7.5 3.358-7.5 7.5c0 0.404 0.033 0.8 0.094 1.187l-20.203 10.102c-1.363-1.411-3.274-2.289-5.391-2.289-4.142 0-7.5 3.358-7.5 7.5s3.358 7.5 7.5 7.5c2.116 0 4.027-0.878 5.391-2.289l20.203 10.102c-0.061 0.387-0.094 0.783-0.094 1.187 0 4.142 3.358 7.5 7.5 7.5s7.5-3.358 7.5-7.5c0-4.142-3.358-7.5-7.5-7.5z" fill="#444444"></path>
</svg>
