<?xml version="1.0" encoding="utf-8"?>
<!-- Generated by IcoMoon.io -->
<!DOCTYPE svg PUBLIC "-//W3C//DTD SVG 1.1//EN" "http://www.w3.org/Graphics/SVG/1.1/DTD/svg11.dtd">
<svg version="1.1" xmlns="http://www.w3.org/2000/svg" xmlns:xlink="http://www.w3.org/1999/xlink" width="48" height="48" viewBox="0 0 48 48">
<path d="M31.5 42h-15c-0.829 0-1.5-0.671-1.5-1.5v-16.5h-6c-0.607 0-1.154-0.365-1.386-0.926s-0.103-1.206 0.325-1.635l15-15c0.586-0.586 1.535-0.586 2.121 0l15 15c0.429 0.429 0.557 1.074 0.325 1.635s-0.779 0.926-1.386 0.926h-6v16.5c0 0.829-0.671 1.5-1.5 1.5zM18 39h12v-16.5c0-0.829 0.671-1.5 1.5-1.5h3.879l-11.379-11.379-11.379 11.379h3.879c0.829 0 1.5 0.671 1.5 1.5v16.5z" fill="#444444"></path>
</svg>
