<?xml version="1.0" encoding="utf-8"?>
<!-- Generated by IcoMoon.io -->
<!DOCTYPE svg PUBLIC "-//W3C//DTD SVG 1.1//EN" "http://www.w3.org/Graphics/SVG/1.1/DTD/svg11.dtd">
<svg version="1.1" xmlns="http://www.w3.org/2000/svg" xmlns:xlink="http://www.w3.org/1999/xlink" width="48" height="48" viewBox="0 0 48 48">
<path d="M36 33h-4.757l-7.5-7.5 7.5-7.5h4.757v7.5l10.5-10.5-10.5-10.5v7.5h-6c-0.796 0-1.559 0.317-2.121 0.879l-8.379 8.379-8.379-8.379c-0.563-0.563-1.326-0.879-2.121-0.879h-9v6h7.757l7.5 7.5-7.5 7.5h-7.757v6h9c0.796 0 1.559-0.316 2.121-0.879l8.379-8.379 8.379 8.379c0.563 0.563 1.325 0.879 2.121 0.879h6v7.5l10.5-10.5-10.5-10.5v7.5z" fill="#444444"></path>
</svg>
