<?xml version="1.0" encoding="utf-8"?>
<!-- Generated by IcoMoon.io -->
<!DOCTYPE svg PUBLIC "-//W3C//DTD SVG 1.1//EN" "http://www.w3.org/Graphics/SVG/1.1/DTD/svg11.dtd">
<svg version="1.1" xmlns="http://www.w3.org/2000/svg" xmlns:xlink="http://www.w3.org/1999/xlink" width="48" height="48" viewBox="0 0 48 48">
<path d="M45.718 27.091c0.132-0.975 0.208-1.966 0.208-2.975 0-12.108-9.869-21.926-22.041-21.926-1.21 0-2.395 0.099-3.55 0.289-2.069-1.349-4.532-2.135-7.182-2.135-7.268 0-13.152 5.888-13.152 13.153 0 2.644 0.778 5.099 2.118 7.162-0.181 1.126-0.273 2.28-0.273 3.455 0 12.11 9.864 21.926 22.040 21.926 1.374 0 2.712-0.133 4.012-0.369 2.021 1.253 4.4 1.983 6.951 1.983 7.266 0 13.152-5.89 13.152-13.154 0-2.746-0.84-5.3-2.282-7.41zM25.945 40.275c-7.003 0.364-10.281-1.185-13.283-4.002-3.353-3.147-2.006-6.736 0.726-6.919 2.73-0.182 4.37 3.095 5.827 4.007 1.456 0.908 6.993 2.977 9.918-0.367 3.185-3.64-2.118-5.524-6.005-6.094-5.55-0.822-12.558-3.824-12.013-9.741 0.545-5.913 5.023-8.945 9.736-9.373 6.008-0.545 9.918 0.91 13.011 3.549 3.577 3.049 1.641 6.459-0.638 6.733-2.269 0.273-4.819-5.016-9.824-5.095-5.159-0.081-8.645 5.369-2.277 6.917 6.372 1.547 13.196 2.183 15.652 8.008 2.459 5.825-3.82 12.012-10.83 12.377z" fill="#444444"></path>
</svg>
