<?xml version="1.0" encoding="utf-8"?>
<!-- Generated by IcoMoon.io -->
<!DOCTYPE svg PUBLIC "-//W3C//DTD SVG 1.1//EN" "http://www.w3.org/Graphics/SVG/1.1/DTD/svg11.dtd">
<svg version="1.1" xmlns="http://www.w3.org/2000/svg" xmlns:xlink="http://www.w3.org/1999/xlink" width="48" height="48" viewBox="0 0 48 48">
<path d="M15.76 6.78l-2.57-3.060-9.19 7.71 2.57 3.060 9.19-7.71zM44 11.44l-9.19-7.71-2.57 3.060 9.19 7.71 2.57-3.060zM23.99 8c-9.95 0-17.99 8.060-17.99 18s8.040 18 17.99 18 18.010-8.060 18.010-18-8.060-18-18.010-18zM24 40c-7.73 0-14-6.27-14-14s6.27-14 14-14 14 6.27 14 14-6.26 14-14 14zM18 22h7.25l-7.25 8.4v3.6h12v-4h-7.25l7.25-8.4v-3.6h-12v4z" fill="#444444"></path>
</svg>
