<?xml version="1.0" encoding="utf-8"?>
<!-- Generated by IcoMoon.io -->
<!DOCTYPE svg PUBLIC "-//W3C//DTD SVG 1.1//EN" "http://www.w3.org/Graphics/SVG/1.1/DTD/svg11.dtd">
<svg version="1.1" xmlns="http://www.w3.org/2000/svg" xmlns:xlink="http://www.w3.org/1999/xlink" width="48" height="48" viewBox="0 0 48 48">
<path d="M15 36v-36h-6v36h-7.5l10.5 10.5 10.5-10.5h-7.5z" fill="#444444"></path>
<path d="M43.5 48h-12c-0.553 0-1.061-0.304-1.322-0.792s-0.233-1.079 0.074-1.54l10.445-15.668h-9.197c-0.829 0-1.5-0.671-1.5-1.5s0.671-1.5 1.5-1.5h12c0.553 0 1.061 0.304 1.322 0.792s0.233 1.079-0.074 1.54l-10.445 15.668h9.197c0.829 0 1.5 0.671 1.5 1.5s-0.671 1.5-1.5 1.5z" fill="#444444"></path>
<path d="M47.842 18.829l-9-18c-0.254-0.509-0.773-0.83-1.342-0.83s-1.088 0.321-1.342 0.83l-9 18c-0.37 0.741-0.070 1.642 0.671 2.012 0.215 0.107 0.444 0.159 0.67 0.159 0.55 0 1.080-0.304 1.342-0.83l2.585-5.17h10.146l2.585 5.17c0.37 0.741 1.271 1.041 2.012 0.671s1.042-1.271 0.671-2.012zM33.927 12l3.573-7.146 3.573 7.146h-7.146z" fill="#444444"></path>
</svg>
