<?xml version="1.0" encoding="utf-8"?>
<!-- Generated by IcoMoon.io -->
<!DOCTYPE svg PUBLIC "-//W3C//DTD SVG 1.1//EN" "http://www.w3.org/Graphics/SVG/1.1/DTD/svg11.dtd">
<svg version="1.1" xmlns="http://www.w3.org/2000/svg" xmlns:xlink="http://www.w3.org/1999/xlink" width="48" height="48" viewBox="0 0 48 48">
<path d="M15 36v-36h-6v36h-7.5l10.5 10.5 10.5-10.5h-7.5z" fill="#444444"></path>
<path d="M40.5 21c-0.829 0-1.5-0.671-1.5-1.5v-16.5h-1.5c-0.829 0-1.5-0.672-1.5-1.5s0.671-1.5 1.5-1.5h3c0.829 0 1.5 0.671 1.5 1.5v18c0 0.829-0.671 1.5-1.5 1.5z" fill="#444444"></path>
<path d="M43.5 27h-9c-0.829 0-1.5 0.671-1.5 1.5v9c0 0.829 0.671 1.5 1.5 1.5h7.5v6h-7.5c-0.829 0-1.5 0.671-1.5 1.5s0.671 1.5 1.5 1.5h9c0.829 0 1.5-0.671 1.5-1.5v-18c0-0.829-0.671-1.5-1.5-1.5zM36 30h6v6h-6v-6z" fill="#444444"></path>
</svg>
