<?xml version="1.0" encoding="utf-8"?>
<!-- Generated by IcoMoon.io -->
<!DOCTYPE svg PUBLIC "-//W3C//DTD SVG 1.1//EN" "http://www.w3.org/Graphics/SVG/1.1/DTD/svg11.dtd">
<svg version="1.1" xmlns="http://www.w3.org/2000/svg" xmlns:xlink="http://www.w3.org/1999/xlink" width="48" height="48" viewBox="0 0 48 48">
<path d="M40.002 0h-32.001c-4.4 0-8.001 3.6-8.001 8.001v21.999l0.75-3h1.5l0.75 3-0.75 3h-1.5l-0.75-3v9.998c0 4.403 3.601 8.001 8.001 8.001h32.001c4.4 0 7.998-3.598 7.998-8.001v-9.947c0 3.285-2.77 5.948-6.187 5.948-0.11 0-17.135-0.008-17.151-0.010-0.37-0.036-0.662-0.339-0.662-0.703v-18.878c0-0.346 0.123-0.526 0.589-0.699 1.201-0.447 2.556-0.711 3.953-0.711 5.705 0 10.382 4.204 10.875 9.566 0.736-0.297 1.546-0.462 2.393-0.462 3.418 0 6.19 2.663 6.19 5.948v-22.051c0-4.4-3.598-8.001-7.998-8.001zM8.25 36h-1.5l-0.75-6 0.75-6h1.5l0.75 6-0.75 6zM14.25 36h-1.5l-0.75-7.629 0.75-7.371h1.5l0.75 7.5-0.75 7.5zM20.25 36h-1.5l-0.75-10.51 0.75-10.489h1.5l0.75 10.489-0.75 10.51z" fill="#444444"></path>
</svg>
