<?xml version="1.0" encoding="utf-8"?>
<!-- Generated by IcoMoon.io -->
<!DOCTYPE svg PUBLIC "-//W3C//DTD SVG 1.1//EN" "http://www.w3.org/Graphics/SVG/1.1/DTD/svg11.dtd">
<svg version="1.1" xmlns="http://www.w3.org/2000/svg" xmlns:xlink="http://www.w3.org/1999/xlink" width="48" height="48" viewBox="0 0 48 48">
<path d="M41.811 24.103c-0.848 0-1.657 0.165-2.393 0.462-0.493-5.36-5.17-9.566-10.875-9.566-1.397 0-2.751 0.264-3.953 0.711-0.467 0.173-0.59 0.352-0.59 0.699v18.877c0 0.364 0.293 0.668 0.662 0.703 0.016 0.002 17.041 0.010 17.151 0.010 3.417 0 6.187-2.663 6.187-5.948s-2.772-5.948-6.189-5.948zM18.75 36h1.5l0.75-10.51-0.75-10.489h-1.5l-0.75 10.489zM14.25 36h-1.5l-0.75-7.629 0.75-7.371h1.5l0.75 7.5zM6.75 36h1.5l0.75-6-0.75-6h-1.5l-0.75 6zM0.75 33h1.5l0.75-3-0.75-3h-1.5l-0.75 3z" fill="#444444"></path>
</svg>
