<?xml version="1.0" encoding="utf-8"?>
<!-- Generated by IcoMoon.io -->
<!DOCTYPE svg PUBLIC "-//W3C//DTD SVG 1.1//EN" "http://www.w3.org/Graphics/SVG/1.1/DTD/svg11.dtd">
<svg version="1.1" xmlns="http://www.w3.org/2000/svg" xmlns:xlink="http://www.w3.org/1999/xlink" width="48" height="48" viewBox="0 0 48 48">
<path d="M40 4h-32c-2.21 0-3.98 1.79-3.98 4l-0.020 36 8-8h28c2.21 0 4-1.79 4-4v-24c0-2.21-1.79-4-4-4zM16 28h-4v-4h4v4zM16 22h-4v-4h4v4zM16 16h-4v-4h4v4zM30 28h-10v-4h10v4zM36 22h-16v-4h16v4zM36 16h-16v-4h16v4z" fill="#444444"></path>
</svg>
