<?xml version="1.0" encoding="utf-8"?>
<!-- Generated by IcoMoon.io -->
<!DOCTYPE svg PUBLIC "-//W3C//DTD SVG 1.1//EN" "http://www.w3.org/Graphics/SVG/1.1/DTD/svg11.dtd">
<svg version="1.1" xmlns="http://www.w3.org/2000/svg" xmlns:xlink="http://www.w3.org/1999/xlink" width="48" height="48" viewBox="0 0 48 48">
<path d="M24 0c-13.067 0-23.693 10.442-23.993 23.436 0.277-11.337 8.898-20.436 19.493-20.436 10.769 0 19.5 9.402 19.5 21 0 2.486 2.014 4.5 4.5 4.5s4.5-2.014 4.5-4.5c0-13.255-10.745-24-24-24zM24 48c13.066 0 23.693-10.442 23.992-23.436-0.277 11.338-8.898 20.436-19.492 20.436-10.769 0-19.5-9.402-19.5-21 0-2.486-2.014-4.5-4.5-4.5s-4.5 2.014-4.5 4.5c0 13.255 10.745 24 24 24z" fill="#444444"></path>
</svg>
