<?xml version="1.0" encoding="utf-8"?>
<!-- Generated by IcoMoon.io -->
<!DOCTYPE svg PUBLIC "-//W3C//DTD SVG 1.1//EN" "http://www.w3.org/Graphics/SVG/1.1/DTD/svg11.dtd">
<svg version="1.1" xmlns="http://www.w3.org/2000/svg" xmlns:xlink="http://www.w3.org/1999/xlink" width="48" height="48" viewBox="0 0 48 48">
<path d="M18 6c0-3.314 2.687-6 6-6s6 2.686 6 6c0 3.313-2.687 6-6 6s-6-2.687-6-6zM30.728 11.272c0-3.314 2.687-6 6-6s6 2.687 6 6c0 3.313-2.687 6-6 6s-6-2.687-6-6zM39 24c0-1.657 1.343-3 3-3s3 1.343 3 3c0 1.657-1.343 3-3 3s-3-1.343-3-3zM33.728 36.728c0-1.657 1.343-3 3-3s3 1.343 3 3c0 1.657-1.343 3-3 3s-3-1.343-3-3zM21 42c0 0 0 0 0 0 0-1.657 1.343-3 3-3s3 1.343 3 3c0 0 0 0 0 0 0 1.657-1.343 3-3 3s-3-1.343-3-3zM8.272 36.728c0 0 0 0 0 0 0-1.657 1.343-3 3-3s3 1.343 3 3c0 0 0 0 0 0 0 1.657-1.343 3-3 3s-3-1.343-3-3zM6.772 11.272c0 0 0 0 0 0 0-2.486 2.014-4.5 4.5-4.5s4.5 2.014 4.5 4.5c0 0 0 0 0 0 0 2.485-2.014 4.5-4.5 4.5s-4.5-2.015-4.5-4.5zM2.625 24c0-1.864 1.511-3.375 3.375-3.375s3.375 1.511 3.375 3.375c0 1.864-1.511 3.375-3.375 3.375s-3.375-1.511-3.375-3.375z" fill="#444444"></path>
</svg>
