<?xml version="1.0" encoding="utf-8"?>
<!-- Generated by IcoMoon.io -->
<!DOCTYPE svg PUBLIC "-//W3C//DTD SVG 1.1//EN" "http://www.w3.org/Graphics/SVG/1.1/DTD/svg11.dtd">
<svg version="1.1" xmlns="http://www.w3.org/2000/svg" xmlns:xlink="http://www.w3.org/1999/xlink" width="48" height="48" viewBox="0 0 48 48">
<path d="M24 0c-13.255 0-24 10.745-24 24s10.745 24 24 24 24-10.745 24-24-10.745-24-24-24zM24 12c6.628 0 12 5.372 12 12s-5.372 12-12 12-12-5.372-12-12 5.372-12 12-12zM38.319 38.319c-3.825 3.825-8.91 5.931-14.319 5.931s-10.494-2.107-14.319-5.931-5.931-8.91-5.931-14.319c0-5.409 2.107-10.494 5.931-14.319l3.182 3.182c0 0 0 0 0 0-6.141 6.141-6.141 16.133 0 22.274 2.975 2.974 6.93 4.613 11.137 4.613s8.162-1.638 11.137-4.613c6.141-6.141 6.141-16.133 0-22.274l3.182-3.182c3.825 3.825 5.931 8.91 5.931 14.319s-2.107 10.494-5.931 14.319z" fill="#444444"></path>
</svg>
