<?xml version="1.0" encoding="utf-8"?>
<!-- Generated by IcoMoon.io -->
<!DOCTYPE svg PUBLIC "-//W3C//DTD SVG 1.1//EN" "http://www.w3.org/Graphics/SVG/1.1/DTD/svg11.dtd">
<svg version="1.1" xmlns="http://www.w3.org/2000/svg" xmlns:xlink="http://www.w3.org/1999/xlink" width="48" height="48" viewBox="0 0 48 48">
<path d="M48 18h-18l6.728-6.728c-3.4-3.4-7.92-5.272-12.728-5.272s-9.329 1.873-12.728 5.272c-3.4 3.4-5.272 7.92-5.272 12.728s1.872 9.329 5.272 12.728c3.4 3.4 7.92 5.272 12.728 5.272s9.329-1.872 12.728-5.272c0.284-0.284 0.556-0.576 0.818-0.875l4.515 3.951c-4.399 5.023-10.859 8.197-18.061 8.197-13.255 0-24-10.745-24-24s10.745-24 24-24c6.628 0 12.627 2.687 16.97 7.030l7.030-7.030v18z" fill="#444444"></path>
</svg>
