<?xml version="1.0" encoding="utf-8"?>
<!-- Generated by IcoMoon.io -->
<!DOCTYPE svg PUBLIC "-//W3C//DTD SVG 1.1//EN" "http://www.w3.org/Graphics/SVG/1.1/DTD/svg11.dtd">
<svg version="1.1" xmlns="http://www.w3.org/2000/svg" xmlns:xlink="http://www.w3.org/1999/xlink" width="48" height="48" viewBox="0 0 48 48">
<path d="M9 24c0-0.571 0.033-1.134 0.095-1.688l-8.671-2.817c-0.277 1.46-0.424 2.965-0.424 4.506 0 6.901 2.914 13.121 7.577 17.5l5.357-7.373c-2.444-2.669-3.935-6.223-3.935-10.127zM39 24c0 3.903-1.491 7.458-3.934 10.127l5.357 7.373c4.663-4.379 7.577-10.598 7.577-17.5 0-1.54-0.147-3.047-0.425-4.506l-8.671 2.817c0.062 0.554 0.095 1.117 0.095 1.688zM27 9.3c4.309 0.874 7.947 3.597 10.052 7.304l8.671-2.817c-3.431-7.286-10.418-12.566-18.723-13.601v9.114zM10.948 16.605c2.105-3.707 5.743-6.43 10.052-7.304v-9.114c-8.305 1.036-15.292 6.316-18.723 13.601l8.671 2.817zM30.214 37.656c-1.893 0.863-3.997 1.344-6.214 1.344s-4.32-0.482-6.214-1.344l-5.357 7.374c3.431 1.892 7.376 2.97 11.571 2.97s8.139-1.078 11.571-2.97l-5.357-7.374z" fill="#444444"></path>
</svg>
