<?xml version="1.0" encoding="utf-8"?>
<!-- Generated by IcoMoon.io -->
<!DOCTYPE svg PUBLIC "-//W3C//DTD SVG 1.1//EN" "http://www.w3.org/Graphics/SVG/1.1/DTD/svg11.dtd">
<svg version="1.1" xmlns="http://www.w3.org/2000/svg" xmlns:xlink="http://www.w3.org/1999/xlink" width="48" height="48" viewBox="0 0 48 48">
<path d="M0.002 24.076h-0.001c0 0 0.001 0.005 0.002 0.011 0.005 0.181 0.026 0.36 0.062 0.532 0.010 0.082 0.020 0.172 0.032 0.271 0.011 0.089 0.022 0.184 0.034 0.285 0.017 0.12 0.036 0.248 0.055 0.383 0.040 0.269 0.084 0.569 0.137 0.889 0.063 0.302 0.131 0.628 0.205 0.978 0.033 0.174 0.083 0.352 0.131 0.535s0.098 0.37 0.148 0.563c0.026 0.096 0.049 0.194 0.080 0.291s0.062 0.196 0.093 0.296c0.063 0.199 0.127 0.401 0.194 0.609 0.016 0.052 0.033 0.104 0.050 0.156 0.020 0.052 0.038 0.104 0.058 0.155 0.039 0.104 0.078 0.209 0.117 0.315 0.080 0.211 0.161 0.425 0.243 0.644 0.092 0.214 0.186 0.432 0.281 0.653 0.048 0.11 0.096 0.221 0.144 0.333s0.106 0.22 0.16 0.332c0.109 0.221 0.219 0.445 0.331 0.672 0.115 0.224 0.244 0.446 0.367 0.671 0.062 0.113 0.126 0.225 0.189 0.339s0.136 0.223 0.204 0.335c0.138 0.222 0.278 0.446 0.418 0.673 0.592 0.886 1.25 1.761 1.978 2.591 0.736 0.824 1.534 1.606 2.376 2.325 0.852 0.709 1.747 1.354 2.659 1.927 0.919 0.564 1.858 1.046 2.783 1.46 0.235 0.095 0.467 0.191 0.697 0.284 0.116 0.046 0.228 0.095 0.344 0.136s0.231 0.081 0.346 0.122c0.23 0.079 0.454 0.163 0.679 0.234 0.227 0.067 0.45 0.133 0.671 0.199 0.11 0.032 0.218 0.067 0.328 0.094s0.219 0.053 0.328 0.080c0.216 0.052 0.428 0.103 0.637 0.154 0.211 0.041 0.419 0.081 0.622 0.12 0.101 0.020 0.202 0.038 0.302 0.057 0.049 0.010 0.099 0.019 0.148 0.028 0.050 0.007 0.099 0.014 0.149 0.021 0.197 0.027 0.389 0.054 0.577 0.080 0.094 0.013 0.186 0.026 0.277 0.038s0.183 0.018 0.272 0.027c0.179 0.016 0.353 0.031 0.523 0.046s0.333 0.032 0.494 0.034c0.011 0.001 0.021 0.001 0.032 0.002 0.028 1.632 1.36 2.946 2.998 2.946 0.025 0 0.050-0.002 0.076-0.002v0.001c0 0 0.005-0.001 0.011-0.002 0.181-0.005 0.36-0.026 0.532-0.062 0.082-0.010 0.172-0.020 0.271-0.032 0.088-0.011 0.184-0.022 0.285-0.034 0.12-0.017 0.248-0.036 0.383-0.056 0.269-0.040 0.569-0.084 0.889-0.136 0.302-0.063 0.629-0.131 0.978-0.205 0.174-0.033 0.352-0.083 0.535-0.13s0.37-0.098 0.563-0.149c0.096-0.026 0.194-0.049 0.291-0.080s0.196-0.061 0.295-0.093c0.198-0.063 0.401-0.127 0.609-0.194 0.052-0.016 0.103-0.033 0.156-0.050 0.052-0.019 0.103-0.038 0.155-0.058 0.104-0.038 0.209-0.078 0.315-0.117 0.211-0.080 0.425-0.16 0.644-0.243 0.214-0.092 0.432-0.186 0.653-0.281 0.11-0.048 0.221-0.096 0.333-0.144s0.22-0.107 0.331-0.16c0.221-0.109 0.445-0.219 0.672-0.331 0.224-0.116 0.446-0.244 0.671-0.367 0.112-0.063 0.225-0.125 0.339-0.189s0.223-0.136 0.334-0.204c0.222-0.138 0.446-0.278 0.673-0.419 0.886-0.593 1.761-1.25 2.591-1.978 0.824-0.736 1.606-1.534 2.325-2.376 0.709-0.852 1.355-1.747 1.927-2.659 0.564-0.919 1.046-1.858 1.46-2.783 0.096-0.235 0.19-0.467 0.284-0.697 0.046-0.116 0.095-0.228 0.137-0.343s0.081-0.231 0.121-0.346c0.079-0.23 0.163-0.454 0.234-0.679 0.068-0.227 0.133-0.45 0.199-0.671 0.032-0.11 0.067-0.218 0.094-0.329s0.053-0.219 0.080-0.328c0.053-0.216 0.104-0.428 0.155-0.637 0.040-0.211 0.081-0.419 0.12-0.623 0.020-0.101 0.038-0.202 0.057-0.301 0.010-0.050 0.019-0.099 0.028-0.149 0.007-0.050 0.014-0.099 0.021-0.149 0.027-0.197 0.054-0.389 0.080-0.577 0.013-0.094 0.026-0.186 0.038-0.277s0.017-0.183 0.026-0.272c0.016-0.179 0.031-0.354 0.046-0.524s0.032-0.333 0.035-0.494c0.001-0.025 0.002-0.049 0.003-0.073 1.651-0.007 2.987-1.347 2.987-3 0-0.025-0.002-0.050-0.002-0.076h0.001c0 0-0.001-0.005-0.002-0.011-0.005-0.181-0.026-0.36-0.062-0.532-0.010-0.082-0.020-0.172-0.032-0.271-0.011-0.088-0.022-0.184-0.034-0.285-0.017-0.12-0.036-0.248-0.056-0.383-0.040-0.269-0.084-0.569-0.136-0.889-0.063-0.302-0.131-0.628-0.205-0.978-0.033-0.175-0.083-0.352-0.13-0.535s-0.098-0.37-0.148-0.563c-0.026-0.096-0.049-0.194-0.080-0.291s-0.062-0.196-0.093-0.296c-0.063-0.199-0.128-0.401-0.194-0.609-0.017-0.052-0.033-0.104-0.050-0.156-0.020-0.052-0.038-0.104-0.058-0.155-0.039-0.104-0.078-0.208-0.117-0.315-0.079-0.211-0.16-0.425-0.243-0.644-0.092-0.215-0.186-0.432-0.281-0.653-0.048-0.11-0.096-0.221-0.144-0.333s-0.107-0.22-0.16-0.331c-0.109-0.221-0.219-0.445-0.331-0.672-0.116-0.224-0.244-0.446-0.367-0.671-0.063-0.112-0.125-0.225-0.189-0.339s-0.136-0.223-0.204-0.335c-0.138-0.222-0.278-0.446-0.419-0.673-0.593-0.886-1.25-1.761-1.978-2.591-0.736-0.824-1.534-1.606-2.376-2.325-0.852-0.71-1.747-1.355-2.659-1.927-0.919-0.564-1.858-1.046-2.783-1.46-0.235-0.096-0.467-0.19-0.698-0.284-0.115-0.046-0.228-0.095-0.344-0.137s-0.231-0.081-0.346-0.121c-0.23-0.079-0.454-0.163-0.679-0.234-0.227-0.067-0.45-0.134-0.671-0.199-0.11-0.031-0.218-0.067-0.329-0.095s-0.219-0.053-0.328-0.079c-0.216-0.053-0.428-0.103-0.637-0.155-0.211-0.041-0.419-0.080-0.622-0.12-0.101-0.019-0.202-0.038-0.302-0.057-0.050-0.010-0.099-0.019-0.148-0.028-0.050-0.007-0.099-0.014-0.149-0.021-0.197-0.028-0.389-0.054-0.577-0.080-0.094-0.013-0.186-0.025-0.277-0.038s-0.183-0.018-0.272-0.027c-0.179-0.016-0.353-0.031-0.523-0.046s-0.333-0.032-0.494-0.034c-0.040-0.002-0.079-0.003-0.118-0.005-0.031-1.63-1.361-2.943-2.999-2.943-0.025 0-0.050 0.002-0.076 0.002v-0.001c0 0-0.005 0.001-0.010 0.002-0.182 0.005-0.36 0.026-0.532 0.062-0.082 0.010-0.172 0.020-0.271 0.032-0.088 0.011-0.183 0.022-0.285 0.034-0.12 0.017-0.248 0.036-0.383 0.055-0.269 0.040-0.568 0.084-0.889 0.137-0.302 0.063-0.628 0.131-0.978 0.205-0.174 0.033-0.352 0.083-0.535 0.13s-0.37 0.098-0.563 0.149c-0.096 0.026-0.193 0.049-0.291 0.080s-0.196 0.062-0.295 0.093c-0.199 0.063-0.401 0.127-0.609 0.194-0.052 0.016-0.104 0.033-0.156 0.050-0.052 0.019-0.104 0.038-0.155 0.058-0.104 0.039-0.209 0.078-0.315 0.117-0.211 0.080-0.425 0.161-0.644 0.243-0.214 0.092-0.432 0.186-0.653 0.281-0.11 0.048-0.221 0.096-0.333 0.144s-0.221 0.107-0.332 0.16c-0.221 0.109-0.445 0.219-0.672 0.331-0.224 0.115-0.446 0.244-0.671 0.368-0.113 0.062-0.225 0.125-0.339 0.189s-0.223 0.136-0.335 0.204c-0.222 0.138-0.446 0.278-0.673 0.419-0.886 0.593-1.761 1.25-2.591 1.979-0.824 0.736-1.605 1.534-2.325 2.376-0.709 0.852-1.354 1.747-1.927 2.659-0.564 0.919-1.046 1.859-1.46 2.783-0.096 0.235-0.19 0.467-0.284 0.697-0.046 0.115-0.095 0.228-0.137 0.343s-0.081 0.231-0.121 0.346c-0.079 0.229-0.163 0.454-0.234 0.679-0.067 0.226-0.134 0.45-0.199 0.67-0.031 0.11-0.067 0.218-0.095 0.328s-0.053 0.219-0.079 0.328c-0.053 0.216-0.103 0.428-0.155 0.638-0.041 0.211-0.080 0.418-0.12 0.622-0.019 0.101-0.038 0.202-0.057 0.302-0.010 0.049-0.019 0.099-0.028 0.149-0.007 0.049-0.014 0.099-0.021 0.148-0.027 0.197-0.054 0.389-0.080 0.577-0.013 0.094-0.025 0.186-0.038 0.278s-0.017 0.183-0.026 0.272c-0.016 0.179-0.032 0.354-0.046 0.523s-0.032 0.333-0.034 0.494c-0.001 0.026-0.002 0.050-0.003 0.076-1.611 0.053-2.902 1.373-2.902 2.998 0 0.025 0.002 0.050 0.002 0.076zM3.446 21.033c0.002-0.009 0.004-0.018 0.006-0.027 0.030-0.152 0.077-0.307 0.12-0.466s0.089-0.322 0.135-0.49c0.024-0.083 0.043-0.169 0.073-0.253 0.028-0.085 0.056-0.17 0.085-0.256 0.057-0.172 0.115-0.349 0.175-0.529 0.015-0.045 0.030-0.090 0.045-0.136 0.017-0.045 0.034-0.090 0.053-0.135 0.035-0.090 0.071-0.182 0.106-0.273 0.071-0.183 0.144-0.37 0.218-0.559 0.083-0.185 0.167-0.374 0.253-0.566 0.043-0.095 0.085-0.192 0.129-0.289s0.095-0.191 0.143-0.287c0.097-0.191 0.196-0.386 0.295-0.582 0.104-0.194 0.218-0.386 0.328-0.581 0.056-0.098 0.111-0.195 0.167-0.293s0.122-0.192 0.182-0.289c0.122-0.192 0.246-0.386 0.371-0.581 0.526-0.764 1.108-1.519 1.75-2.233 0.65-0.708 1.352-1.379 2.090-1.994 0.748-0.606 1.532-1.156 2.329-1.642 0.803-0.478 1.622-0.883 2.425-1.231 0.204-0.079 0.406-0.158 0.606-0.237 0.101-0.038 0.198-0.080 0.298-0.115s0.2-0.067 0.3-0.1 0.393-0.136 0.588-0.194c0.197-0.055 0.39-0.11 0.581-0.163 0.095-0.026 0.189-0.055 0.284-0.078s0.19-0.043 0.284-0.064c0.187-0.043 0.37-0.085 0.55-0.126 0.182-0.032 0.361-0.064 0.537-0.094 0.088-0.016 0.174-0.031 0.26-0.046 0.043-0.007 0.085-0.015 0.128-0.022 0.043-0.005 0.085-0.010 0.128-0.016 0.169-0.021 0.335-0.041 0.497-0.062 0.081-0.010 0.16-0.020 0.239-0.030s0.158-0.013 0.235-0.019c0.155-0.011 0.305-0.022 0.451-0.033s0.287-0.025 0.424-0.024c0.275-0.006 0.53-0.012 0.768-0.017 0.218 0.008 0.419 0.015 0.601 0.022 0.090 0.002 0.175 0.005 0.255 0.007 0.1 0.006 0.193 0.012 0.279 0.018 0.1 0.007 0.191 0.013 0.273 0.018 0.152 0.024 0.309 0.037 0.468 0.037 0.022 0 0.043-0.002 0.065-0.002 0.006 0 0.011 0.001 0.011 0.001v-0.001c1.459-0.037 2.66-1.114 2.885-2.52 0.025 0.006 0.050 0.011 0.076 0.017 0.152 0.030 0.307 0.077 0.466 0.12s0.322 0.089 0.49 0.135c0.083 0.024 0.169 0.043 0.253 0.073 0.085 0.028 0.17 0.056 0.257 0.085 0.172 0.057 0.349 0.115 0.529 0.175 0.045 0.015 0.090 0.030 0.136 0.045 0.045 0.017 0.090 0.034 0.135 0.052 0.090 0.035 0.181 0.071 0.273 0.106 0.183 0.071 0.37 0.144 0.56 0.218 0.186 0.083 0.374 0.167 0.566 0.253 0.095 0.043 0.191 0.085 0.289 0.129s0.191 0.095 0.287 0.143c0.191 0.097 0.386 0.196 0.582 0.295 0.194 0.104 0.386 0.218 0.581 0.328 0.097 0.056 0.195 0.111 0.293 0.167s0.192 0.122 0.289 0.182c0.192 0.123 0.386 0.247 0.581 0.371 0.764 0.526 1.519 1.108 2.233 1.75 0.708 0.65 1.378 1.352 1.994 2.090 0.606 0.748 1.156 1.532 1.642 2.329 0.478 0.803 0.883 1.622 1.231 2.425 0.080 0.204 0.158 0.406 0.237 0.606 0.038 0.101 0.080 0.198 0.115 0.299s0.067 0.2 0.1 0.3 0.136 0.393 0.194 0.588c0.055 0.197 0.11 0.39 0.163 0.581 0.026 0.095 0.055 0.189 0.078 0.284s0.043 0.19 0.064 0.284c0.043 0.187 0.085 0.37 0.126 0.55 0.032 0.182 0.064 0.361 0.095 0.537 0.016 0.088 0.031 0.174 0.046 0.26 0.008 0.043 0.015 0.085 0.023 0.128 0.005 0.043 0.011 0.085 0.016 0.128 0.021 0.169 0.041 0.335 0.062 0.497 0.011 0.081 0.020 0.16 0.030 0.239s0.013 0.158 0.020 0.235c0.011 0.154 0.022 0.304 0.033 0.451s0.025 0.287 0.024 0.424c0.006 0.274 0.012 0.53 0.017 0.768-0.008 0.218-0.015 0.419-0.022 0.601-0.002 0.090-0.005 0.175-0.008 0.255-0.006 0.1-0.012 0.193-0.018 0.279-0.007 0.1-0.013 0.191-0.018 0.273-0.023 0.152-0.036 0.309-0.036 0.468 0 0.022 0.002 0.044 0.002 0.065-0.001 0.006-0.001 0.011-0.001 0.011h0.001c0.036 1.442 1.089 2.631 2.47 2.877-0.003 0.014-0.006 0.027-0.009 0.041-0.030 0.152-0.076 0.307-0.12 0.466s-0.089 0.322-0.135 0.49c-0.024 0.083-0.044 0.169-0.073 0.253-0.028 0.085-0.056 0.17-0.085 0.256-0.057 0.172-0.116 0.349-0.175 0.53-0.015 0.045-0.030 0.090-0.045 0.136-0.017 0.045-0.035 0.090-0.053 0.135-0.035 0.090-0.071 0.181-0.106 0.273-0.071 0.183-0.144 0.37-0.218 0.56-0.083 0.186-0.167 0.374-0.253 0.566-0.043 0.095-0.085 0.192-0.129 0.289s-0.095 0.191-0.143 0.287c-0.097 0.191-0.196 0.386-0.295 0.582-0.103 0.194-0.218 0.386-0.328 0.581-0.056 0.098-0.111 0.195-0.167 0.293s-0.121 0.192-0.181 0.289c-0.122 0.192-0.246 0.386-0.371 0.581-0.526 0.764-1.108 1.519-1.75 2.233-0.65 0.708-1.352 1.379-2.090 1.994-0.748 0.606-1.532 1.156-2.329 1.642-0.803 0.478-1.622 0.883-2.425 1.231-0.204 0.080-0.406 0.158-0.606 0.237-0.1 0.038-0.198 0.080-0.299 0.115s-0.2 0.067-0.3 0.1-0.393 0.136-0.588 0.194c-0.196 0.055-0.39 0.109-0.581 0.163-0.095 0.026-0.189 0.056-0.283 0.078s-0.19 0.043-0.284 0.064c-0.187 0.043-0.37 0.085-0.55 0.126-0.182 0.032-0.361 0.064-0.537 0.095-0.088 0.016-0.174 0.031-0.26 0.046-0.043 0.008-0.085 0.015-0.128 0.023-0.043 0.005-0.085 0.011-0.128 0.016-0.169 0.021-0.335 0.041-0.497 0.062-0.081 0.011-0.16 0.020-0.239 0.030s-0.157 0.013-0.235 0.020c-0.155 0.011-0.305 0.022-0.451 0.033s-0.287 0.025-0.425 0.024c-0.274 0.006-0.531 0.012-0.768 0.017-0.218-0.008-0.419-0.015-0.601-0.022-0.090-0.002-0.175-0.005-0.255-0.007-0.1-0.006-0.193-0.012-0.279-0.018-0.1-0.007-0.191-0.013-0.273-0.018-0.152-0.024-0.309-0.037-0.468-0.037-0.022 0-0.043 0.002-0.065 0.002-0.006-0.001-0.011-0.001-0.011-0.001v0.001c-1.453 0.036-2.65 1.105-2.882 2.501-0.15-0.030-0.302-0.076-0.459-0.119-0.159-0.043-0.322-0.088-0.49-0.135-0.083-0.024-0.169-0.044-0.254-0.073s-0.17-0.056-0.256-0.085-0.349-0.116-0.529-0.176c-0.045-0.015-0.090-0.029-0.136-0.045-0.045-0.017-0.090-0.034-0.135-0.052-0.090-0.035-0.182-0.071-0.273-0.106-0.183-0.071-0.37-0.144-0.559-0.218-0.185-0.083-0.374-0.167-0.566-0.253-0.095-0.043-0.192-0.085-0.289-0.129s-0.191-0.095-0.287-0.143c-0.191-0.097-0.386-0.196-0.582-0.295-0.194-0.103-0.385-0.218-0.581-0.328-0.098-0.056-0.195-0.111-0.293-0.167s-0.192-0.121-0.289-0.181c-0.192-0.122-0.385-0.246-0.581-0.371-0.764-0.526-1.519-1.108-2.233-1.75-0.708-0.65-1.379-1.352-1.994-2.090-0.606-0.748-1.155-1.532-1.642-2.329-0.478-0.803-0.884-1.622-1.231-2.425-0.079-0.204-0.158-0.406-0.237-0.606-0.038-0.1-0.080-0.198-0.115-0.299s-0.067-0.201-0.1-0.3-0.136-0.393-0.194-0.588c-0.055-0.196-0.11-0.39-0.163-0.581-0.026-0.095-0.055-0.189-0.078-0.283s-0.043-0.19-0.064-0.284c-0.043-0.187-0.085-0.37-0.126-0.55-0.032-0.182-0.064-0.361-0.095-0.537-0.016-0.088-0.031-0.174-0.046-0.26-0.008-0.043-0.015-0.085-0.022-0.128-0.005-0.043-0.011-0.085-0.016-0.128-0.021-0.169-0.041-0.335-0.062-0.497-0.011-0.081-0.020-0.16-0.030-0.239s-0.013-0.157-0.019-0.235c-0.011-0.155-0.022-0.305-0.033-0.451s-0.025-0.287-0.024-0.425c-0.006-0.274-0.012-0.531-0.017-0.768 0.008-0.218 0.015-0.419 0.022-0.601 0.002-0.090 0.005-0.175 0.008-0.255 0.006-0.1 0.012-0.193 0.018-0.279 0.007-0.1 0.013-0.19 0.018-0.273 0.023-0.153 0.036-0.309 0.036-0.469 0-0.022-0.002-0.043-0.002-0.065 0-0.006 0.001-0.011 0.001-0.011h-0.001c-0.037-1.471-1.131-2.679-2.551-2.891z" fill="#444444"></path>
</svg>
