<?xml version="1.0" encoding="utf-8"?>
<!-- Generated by IcoMoon.io -->
<!DOCTYPE svg PUBLIC "-//W3C//DTD SVG 1.1//EN" "http://www.w3.org/Graphics/SVG/1.1/DTD/svg11.dtd">
<svg version="1.1" xmlns="http://www.w3.org/2000/svg" xmlns:xlink="http://www.w3.org/1999/xlink" width="48" height="48" viewBox="0 0 48 48">
<path d="M18 6c0-3.314 2.687-6 6-6s6 2.686 6 6c0 3.313-2.687 6-6 6s-6-2.687-6-6zM37.078 24c0 0 0 0 0 0 0-2.719 2.204-4.922 4.922-4.922s4.922 2.203 4.922 4.922c0 0 0 0 0 0 0 2.719-2.204 4.922-4.922 4.922s-4.922-2.204-4.922-4.922zM32.27 36.728c0-2.462 1.996-4.458 4.458-4.458s4.458 1.996 4.458 4.458c0 2.462-1.996 4.458-4.458 4.458s-4.458-1.996-4.458-4.458zM19.962 42c0-2.23 1.808-4.038 4.038-4.038s4.038 1.807 4.038 4.038c0 2.23-1.807 4.038-4.038 4.038s-4.038-1.807-4.038-4.038zM7.615 36.728c0-2.020 1.637-3.657 3.657-3.657s3.657 1.637 3.657 3.657c0 2.020-1.637 3.657-3.657 3.657s-3.657-1.637-3.657-3.657zM2.688 24c0-1.829 1.483-3.312 3.312-3.312s3.312 1.483 3.312 3.312c0 1.829-1.483 3.312-3.312 3.312s-3.312-1.483-3.312-3.312zM8.272 11.272c0 0 0 0 0 0 0-1.657 1.343-3 3-3s3 1.343 3 3c0 0 0 0 0 0 0 1.657-1.343 3-3 3s-3-1.343-3-3zM42.163 11.272c0 3.001-2.433 5.435-5.435 5.435s-5.434-2.433-5.434-5.435c0-3.002 2.434-5.434 5.434-5.434s5.435 2.433 5.435 5.434z" fill="#444444"></path>
</svg>
