<?xml version="1.0" encoding="utf-8"?>
<!-- Generated by IcoMoon.io -->
<!DOCTYPE svg PUBLIC "-//W3C//DTD SVG 1.1//EN" "http://www.w3.org/Graphics/SVG/1.1/DTD/svg11.dtd">
<svg version="1.1" xmlns="http://www.w3.org/2000/svg" xmlns:xlink="http://www.w3.org/1999/xlink" width="48" height="48" viewBox="0 0 48 48">
<path d="M24 48c-6.41 0-12.437-2.497-16.971-7.030s-7.030-10.56-7.030-16.971c0-4.539 1.274-8.96 3.685-12.782 2.344-3.717 5.656-6.721 9.579-8.686l2.016 4.023c-3.189 1.598-5.882 4.040-7.788 7.063-1.957 3.103-2.991 6.694-2.991 10.382 0 10.752 8.748 19.5 19.5 19.5s19.5-8.748 19.5-19.5c0-3.689-1.034-7.279-2.991-10.382-1.906-3.023-4.599-5.465-7.788-7.063l2.016-4.023c3.923 1.965 7.235 4.969 9.579 8.686 2.41 3.823 3.685 8.243 3.685 12.782 0 6.41-2.497 12.437-7.030 16.971s-10.56 7.030-16.971 7.030z" fill="#444444"></path>
</svg>
