<?xml version="1.0" encoding="utf-8"?>
<!-- Generated by IcoMoon.io -->
<!DOCTYPE svg PUBLIC "-//W3C//DTD SVG 1.1//EN" "http://www.w3.org/Graphics/SVG/1.1/DTD/svg11.dtd">
<svg version="1.1" xmlns="http://www.w3.org/2000/svg" xmlns:xlink="http://www.w3.org/1999/xlink" width="48" height="48" viewBox="0 0 48 48">
<path d="M6 42h42v6h-48v-48h6zM13.5 39c-2.486 0-4.5-2.014-4.5-4.5s2.014-4.5 4.5-4.5c0.133 0 0.263 0.007 0.393 0.018l4.837-8.062c-0.461-0.706-0.73-1.549-0.73-2.456 0-2.486 2.014-4.5 4.5-4.5s4.5 2.014 4.5 4.5c0 0.907-0.269 1.75-0.73 2.456l4.838 8.062c0.13-0.011 0.26-0.018 0.393-0.018 0.1 0 0.199 0.005 0.298 0.011l7.985-13.975c-0.493-0.722-0.783-1.595-0.783-2.537 0-2.486 2.014-4.5 4.5-4.5s4.5 2.014 4.5 4.5c0 2.486-2.014 4.5-4.5 4.5-0.1 0-0.2-0.005-0.298-0.011l-7.985 13.975c0.494 0.722 0.783 1.595 0.783 2.537 0 2.486-2.014 4.5-4.5 4.5s-4.5-2.014-4.5-4.5c0-0.907 0.269-1.75 0.73-2.456l-4.837-8.062c-0.13 0.011-0.261 0.018-0.393 0.018s-0.263-0.007-0.393-0.018l-4.837 8.062c0.461 0.706 0.73 1.549 0.73 2.456 0 2.486-2.014 4.5-4.5 4.5z" fill="#444444"></path>
</svg>
