<?xml version="1.0" encoding="utf-8"?>
<!-- Generated by IcoMoon.io -->
<!DOCTYPE svg PUBLIC "-//W3C//DTD SVG 1.1//EN" "http://www.w3.org/Graphics/SVG/1.1/DTD/svg11.dtd">
<svg version="1.1" xmlns="http://www.w3.org/2000/svg" xmlns:xlink="http://www.w3.org/1999/xlink" width="48" height="48" viewBox="0 0 48 48">
<path d="M14.246 39.188c1.273 0 2.521-0.616 3.28-1.754 1.206-1.81 0.717-4.254-1.092-5.461l-3.097-2.065c0.53-0.145 1.088-0.223 1.663-0.223 3.487 0 6.314 2.827 6.314 6.314s-2.827 6.314-6.314 6.314c-3.394 0-6.161-2.678-6.307-6.036l3.373 2.248c0.671 0.448 1.43 0.661 2.18 0.661zM40.001 0c4.4 0 7.999 3.601 7.999 8.001v31.998c0 4.403-3.599 8.001-7.999 8.001h-31.999c-4.4 0-8.001-3.598-8.001-8.001v-9.517l5.687 3.792c-0.546 2.961 0.325 6.133 2.615 8.423 3.698 3.698 9.695 3.698 13.393 0 2.272-2.272 3.148-5.41 2.629-8.351l11.674-10.453c2.168-0.311 4.257-1.3 5.925-2.968 4.1-4.1 4.1-10.749 0-14.849s-10.749-4.1-14.849 0c-1.668 1.668-2.657 3.757-2.968 5.924v0l-9.595 14.542c-1.493 0.076-2.971 0.505-4.3 1.284l-10.213-6.808v-13.017c0-4.4 3.601-8.001 8.001-8.001h31.999zM42 13.5c0-4.142-3.358-7.5-7.5-7.5s-7.5 3.358-7.5 7.5 3.358 7.5 7.5 7.5 7.5-3.358 7.5-7.5zM30 13.5c0-2.486 2.014-4.5 4.5-4.5s4.5 2.014 4.5 4.5-2.014 4.5-4.5 4.5-4.5-2.014-4.5-4.5z" fill="#444444"></path>
</svg>
