<?xml version="1.0" encoding="utf-8"?>
<!-- Generated by IcoMoon.io -->
<!DOCTYPE svg PUBLIC "-//W3C//DTD SVG 1.1//EN" "http://www.w3.org/Graphics/SVG/1.1/DTD/svg11.dtd">
<svg version="1.1" xmlns="http://www.w3.org/2000/svg" xmlns:xlink="http://www.w3.org/1999/xlink" width="48" height="48" viewBox="0 0 48 48">
<path d="M33 13.5c0-2.486 2.014-4.5 4.5-4.5s4.5 2.014 4.5 4.5c0 2.486-2.014 4.5-4.5 4.5s-4.5-2.014-4.5-4.5zM44.925 6.076c-4.1-4.1-10.749-4.1-14.849 0-1.668 1.668-2.657 3.757-2.968 5.924v0l-9.595 14.542c-1.289 0.066-2.568 0.395-3.749 0.985l-7.401-5.785c-1.713-1.34-4.188-1.036-5.527 0.677s-1.036 4.188 0.677 5.527l7.309 5.714c-0.795 3.13 0.031 6.588 2.481 9.038 3.699 3.698 9.695 3.698 13.394 0 2.272-2.272 3.148-5.41 2.629-8.351l11.675-10.453c2.168-0.311 4.257-1.301 5.925-2.968 4.1-4.1 4.1-10.749 0-14.849zM18 42.314c-3.487 0-6.314-2.827-6.314-6.314 0-0.033 0.002-0.066 0.002-0.1l3.136 2.452c0.72 0.563 1.574 0.835 2.423 0.835 1.17 0 2.329-0.52 3.105-1.513 1.34-1.713 1.036-4.188-0.677-5.527l-2.977-2.326c0.42-0.088 0.855-0.135 1.301-0.135 3.487 0 6.314 2.827 6.314 6.314s-2.827 6.314-6.314 6.314zM37.5 21c-4.142 0-7.5-3.358-7.5-7.5s3.358-7.5 7.5-7.5 7.5 3.358 7.5 7.5-3.358 7.5-7.5 7.5z" fill="#444444"></path>
</svg>
