<?xml version="1.0" encoding="utf-8"?>
<!-- Generated by IcoMoon.io -->
<!DOCTYPE svg PUBLIC "-//W3C//DTD SVG 1.1//EN" "http://www.w3.org/Graphics/SVG/1.1/DTD/svg11.dtd">
<svg version="1.1" xmlns="http://www.w3.org/2000/svg" xmlns:xlink="http://www.w3.org/1999/xlink" width="48" height="48" viewBox="0 0 48 48">
<path d="M24 9.057v-3.057h6v-3c0-1.657-1.343-3-3-3h-9c-1.657 0-3 1.343-3 3v3h6v3.057c-10.069 0.766-18 9.179-18 19.443 0 10.769 8.731 19.5 19.5 19.5s19.5-8.731 19.5-19.5c0-10.265-7.931-18.677-18-19.443zM33.107 39.107c-2.834 2.833-6.6 4.393-10.607 4.393s-7.774-1.56-10.607-4.393c-2.833-2.833-4.394-6.6-4.394-10.607s1.56-7.774 4.394-10.607c2.721-2.72 6.302-4.267 10.13-4.385l-1.016 14.72c-0.087 1.232 0.584 1.772 1.492 1.772s1.58-0.539 1.492-1.772l-1.016-14.72c3.828 0.119 7.41 1.665 10.13 4.385 2.834 2.833 4.393 6.6 4.393 10.607s-1.56 7.774-4.393 10.606z" fill="#444444"></path>
</svg>
