<?xml version="1.0" encoding="utf-8"?>
<!-- Generated by IcoMoon.io -->
<!DOCTYPE svg PUBLIC "-//W3C//DTD SVG 1.1//EN" "http://www.w3.org/Graphics/SVG/1.1/DTD/svg11.dtd">
<svg version="1.1" xmlns="http://www.w3.org/2000/svg" xmlns:xlink="http://www.w3.org/1999/xlink" width="48" height="48" viewBox="0 0 48 48">
<path d="M39.938 0h-31.875c-4.434 0-8.063 3.628-8.063 8.063v31.875c0 4.435 3.628 8.063 8.063 8.063h31.875c4.435 0 8.063-3.628 8.063-8.063v-31.875c0-4.434-3.628-8.063-8.063-8.063zM24 15c-1.654 0-3 1.346-3 3v12c0 4.963-4.037 9-9 9s-9-4.037-9-9v-6h6v6c0 1.655 1.346 3 3 3s3-1.345 3-3v-12c0-4.963 4.037-9 9-9s9 4.037 9 8.344v2.906l-3.844 1.125-2.156-1.125v-2.906c0-0.998-1.345-2.344-3-2.344zM45 30c0 4.963-4.037 9-9 9s-9-4.037-9-9.656v-5.813l2.156 1.125 3.844-1.125v5.813c0 2.311 1.346 3.656 3 3.656s3-1.345 3-3v-6h6v6z" fill="#444444"></path>
</svg>
