<?xml version="1.0" encoding="utf-8"?>
<!-- Generated by IcoMoon.io -->
<!DOCTYPE svg PUBLIC "-//W3C//DTD SVG 1.1//EN" "http://www.w3.org/Graphics/SVG/1.1/DTD/svg11.dtd">
<svg version="1.1" xmlns="http://www.w3.org/2000/svg" xmlns:xlink="http://www.w3.org/1999/xlink" width="48" height="48" viewBox="0 0 48 48">
<path d="M5.060 39.31l2.69 1.11v-18.050l-4.85 11.71c-0.84 2.030 0.13 4.38 2.16 5.23zM44.060 31.89l-9.92-23.93c-0.62-1.5-2.080-2.43-3.61-2.46-0.53-0.010-1.070 0.090-1.6 0.3l-14.73 6.1c-1.5 0.62-2.42 2.070-2.46 3.6-0.010 0.54 0.080 1.080 0.3 1.61l9.91 23.93c0.63 1.52 2.1 2.44 3.66 2.46 0.52 0 1.040-0.090 1.55-0.3l14.73-6.1c2.030-0.84 3.010-3.18 2.17-5.21zM15.75 17.5c-1.1 0-2-0.9-2-2s0.9-2 2-2 2 0.9 2 2-0.9 2-2 2zM11.75 39.5c0 2.2 1.8 4 4 4h2.91l-6.91-16.68v12.68z" fill="#444444"></path>
</svg>
