<?xml version="1.0" encoding="utf-8"?>
<!-- Generated by IcoMoon.io -->
<!DOCTYPE svg PUBLIC "-//W3C//DTD SVG 1.1//EN" "http://www.w3.org/Graphics/SVG/1.1/DTD/svg11.dtd">
<svg version="1.1" xmlns="http://www.w3.org/2000/svg" xmlns:xlink="http://www.w3.org/1999/xlink" width="48" height="48" viewBox="0 0 48 48">
<path d="M43.5 19.5c-1.333 0-2.529 0.58-3.353 1.5h-8.904l6.296-6.296c1.234 0.068 2.489-0.368 3.432-1.31 1.757-1.757 1.757-4.606 0-6.364s-4.607-1.757-6.364 0c-0.942 0.942-1.379 2.198-1.31 3.432l-6.296 6.296v-8.904c0.92-0.824 1.5-2.021 1.5-3.353 0-2.486-2.015-4.5-4.5-4.5s-4.5 2.014-4.5 4.5c0 1.333 0.58 2.529 1.5 3.353v8.904l-6.296-6.296c0.068-1.234-0.368-2.489-1.31-3.432-1.757-1.757-4.606-1.757-6.364 0s-1.757 4.606 0 6.364c0.942 0.942 2.198 1.379 3.432 1.31l6.296 6.296h-8.904c-0.824-0.92-2.021-1.5-3.353-1.5-2.486 0-4.5 2.014-4.5 4.5s2.014 4.5 4.5 4.5c1.333 0 2.529-0.58 3.353-1.5h8.904l-6.296 6.296c-1.234-0.068-2.489 0.368-3.432 1.31-1.757 1.757-1.757 4.607 0 6.364s4.606 1.757 6.364 0c0.942-0.942 1.379-2.198 1.31-3.432l6.296-6.296v8.904c-0.92 0.824-1.5 2.021-1.5 3.353 0 2.486 2.015 4.5 4.5 4.5s4.5-2.014 4.5-4.5c0-1.333-0.58-2.529-1.5-3.353v-8.904l6.296 6.296c-0.068 1.234 0.368 2.489 1.31 3.432 1.757 1.757 4.606 1.757 6.364 0s1.757-4.607 0-6.364c-0.942-0.942-2.198-1.378-3.432-1.31l-6.296-6.296h8.904c0.824 0.92 2.021 1.5 3.353 1.5 2.486 0 4.5-2.015 4.5-4.5s-2.014-4.5-4.5-4.5z" fill="#444444"></path>
</svg>
