<?xml version="1.0" encoding="utf-8"?>
<!-- Generated by IcoMoon.io -->
<!DOCTYPE svg PUBLIC "-//W3C//DTD SVG 1.1//EN" "http://www.w3.org/Graphics/SVG/1.1/DTD/svg11.dtd">
<svg version="1.1" xmlns="http://www.w3.org/2000/svg" xmlns:xlink="http://www.w3.org/1999/xlink" width="48" height="48" viewBox="0 0 48 48">
<path d="M30 6.872v6.373c1.697 0.741 3.258 1.801 4.607 3.149 2.833 2.833 4.393 6.6 4.393 10.607s-1.56 7.774-4.393 10.606c-2.833 2.833-6.6 4.393-10.607 4.393s-7.774-1.56-10.607-4.393c-2.833-2.833-4.393-6.6-4.393-10.606s1.56-7.774 4.393-10.607c1.348-1.348 2.909-2.408 4.607-3.149v-6.373c-8.675 2.582-15 10.616-15 20.129 0 11.598 9.402 21 21 21s21-9.402 21-21c0-9.513-6.325-17.547-15-20.129zM21 0h6v24h-6z" fill="#444444"></path>
</svg>
