<?xml version="1.0" encoding="utf-8"?>
<!-- Generated by IcoMoon.io -->
<!DOCTYPE svg PUBLIC "-//W3C//DTD SVG 1.1//EN" "http://www.w3.org/Graphics/SVG/1.1/DTD/svg11.dtd">
<svg version="1.1" xmlns="http://www.w3.org/2000/svg" xmlns:xlink="http://www.w3.org/1999/xlink" width="48" height="48" viewBox="0 0 48 48">
<path d="M20 12.7v-4.18c-1.6 0.41-3.090 1.070-4.46 1.92l2.93 2.93c0.49-0.25 1-0.49 1.53-0.67zM5.73 10.82l4.71 4.71c-1.54 2.46-2.44 5.35-2.44 8.47 0 4.42 1.81 8.4 4.71 11.29l-4.71 4.71h12v-12l-4.47 4.47c-2.18-2.17-3.53-5.16-3.53-8.47 0-2 0.5-3.88 1.37-5.54l16.17 16.17c-0.49 0.26-1 0.49-1.53 0.68v4.17c1.6-0.41 3.090-1.070 4.46-1.92l4.72 4.72 2.55-2.55-31.47-31.46-2.54 2.55zM40 8h-12v12l4.47-4.47c2.18 2.17 3.53 5.16 3.53 8.47 0 2-0.5 3.88-1.37 5.54l2.93 2.93c1.54-2.46 2.44-5.35 2.44-8.47 0-4.42-1.81-8.4-4.71-11.29l4.71-4.71z" fill="#444444"></path>
</svg>
