<?xml version="1.0" encoding="utf-8"?>
<!-- Generated by IcoMoon.io -->
<!DOCTYPE svg PUBLIC "-//W3C//DTD SVG 1.1//EN" "http://www.w3.org/Graphics/SVG/1.1/DTD/svg11.dtd">
<svg version="1.1" xmlns="http://www.w3.org/2000/svg" xmlns:xlink="http://www.w3.org/1999/xlink" width="48" height="48" viewBox="0 0 48 48">
<path d="M6 24c0 4.42 1.82 8.4 4.71 11.29l-4.71 4.71h12v-12l-4.47 4.47c-2.18-2.17-3.53-5.16-3.53-8.47 0-5.22 3.34-9.65 8-11.3v-4.18c-6.9 1.78-12 8.030-12 15.48zM22 34h4v-4h-4v4zM42 8h-12v12l4.47-4.47c2.18 2.17 3.53 5.16 3.53 8.47 0 5.22-3.34 9.65-8 11.3v4.17c6.9-1.77 12-8.020 12-15.47 0-4.42-1.82-8.4-4.71-11.29l4.71-4.71zM22 26h4v-12h-4v12z" fill="#444444"></path>
</svg>
