<?xml version="1.0" encoding="utf-8"?>
<!-- Generated by IcoMoon.io -->
<!DOCTYPE svg PUBLIC "-//W3C//DTD SVG 1.1//EN" "http://www.w3.org/Graphics/SVG/1.1/DTD/svg11.dtd">
<svg version="1.1" xmlns="http://www.w3.org/2000/svg" xmlns:xlink="http://www.w3.org/1999/xlink" width="48" height="48" viewBox="0 0 48 48">
<path d="M39.020 6.15l-32.87 32.87c0.18 0.69 0.53 1.31 1.020 1.8l0.010 0.010c0.49 0.49 1.11 0.84 1.8 1.020l32.87-32.87c-0.37-1.38-1.45-2.46-2.83-2.83zM23.76 6l-17.76 17.76v5.66l23.42-23.42h-5.66zM10 6c-2.2 0-4 1.8-4 4v4.010l8.010-8.010h-4.010zM38 42c1.1 0 2.1-0.45 2.82-1.17 0.73-0.73 1.18-1.73 1.18-2.83v-4.010l-8.010 8.010h4.010zM18.58 42h5.66l17.76-17.76v-5.66l-23.42 23.42z" fill="#444444"></path>
</svg>
