<?xml version="1.0" encoding="utf-8"?>
<!-- Generated by IcoMoon.io -->
<!DOCTYPE svg PUBLIC "-//W3C//DTD SVG 1.1//EN" "http://www.w3.org/Graphics/SVG/1.1/DTD/svg11.dtd">
<svg version="1.1" xmlns="http://www.w3.org/2000/svg" xmlns:xlink="http://www.w3.org/1999/xlink" width="48" height="48" viewBox="0 0 48 48">
<path d="M30 6h-18c-1.66 0-3.080 1.010-3.68 2.44l-6.030 14.1c-0.18 0.46-0.29 0.95-0.29 1.46v3.83l0.020 0.020-0.020 0.15c0 2.21 1.79 4 4 4h12.63l-1.91 9.14c-0.040 0.2-0.070 0.41-0.070 0.63 0 0.83 0.34 1.58 0.88 2.12l2.13 2.11 13.17-13.17c0.72-0.73 1.17-1.73 1.17-2.83v-20c0-2.21-1.79-4-4-4zM38 6v24h8v-24h-8z" fill="#444444"></path>
</svg>
