<?xml version="1.0" encoding="utf-8"?>
<!-- Generated by IcoMoon.io -->
<!DOCTYPE svg PUBLIC "-//W3C//DTD SVG 1.1//EN" "http://www.w3.org/Graphics/SVG/1.1/DTD/svg11.dtd">
<svg version="1.1" xmlns="http://www.w3.org/2000/svg" xmlns:xlink="http://www.w3.org/1999/xlink" width="48" height="48" viewBox="0 0 48 48">
<path d="M24 12c0-1.1-0.9-2-2-2h-10.37l1.33-6.35c0.030-0.15 0.050-0.31 0.050-0.47 0-0.62-0.25-1.18-0.66-1.59l-1.59-1.59-9.88 9.88c-0.54 0.54-0.88 1.29-0.88 2.12v13c0 1.66 1.34 3 3 3h13.5c1.24 0 2.31-0.75 2.76-1.83l4.53-10.58c0.13-0.34 0.21-0.7 0.21-1.090v-2.5zM45 20h-13.5c-1.24 0-2.31 0.75-2.76 1.83l-4.53 10.58c-0.13 0.34-0.21 0.7-0.21 1.090v2.5c0 1.1 0.9 2 2 2h10.37l-1.33 6.35c-0.030 0.15-0.050 0.31-0.050 0.47 0 0.62 0.25 1.18 0.66 1.59l1.59 1.59 9.88-9.88c0.54-0.54 0.88-1.29 0.88-2.12v-13c0-1.66-1.34-3-3-3z" fill="#444444"></path>
</svg>
