<?xml version="1.0" encoding="utf-8"?>
<!-- Generated by IcoMoon.io -->
<!DOCTYPE svg PUBLIC "-//W3C//DTD SVG 1.1//EN" "http://www.w3.org/Graphics/SVG/1.1/DTD/svg11.dtd">
<svg version="1.1" xmlns="http://www.w3.org/2000/svg" xmlns:xlink="http://www.w3.org/1999/xlink" width="48" height="48" viewBox="0 0 48 48">
<path d="M32.49 15.51c-2.35-2.34-5.42-3.51-8.49-3.51v12l-8.49 8.49c4.69 4.69 12.28 4.69 16.97 0s4.69-12.29 0.010-16.98zM24 4c-11.050 0-20 8.95-20 20s8.95 20 20 20 20-8.96 20-20c0-11.050-8.95-20-20-20zM24 40c-8.84 0-16-7.16-16-16s7.16-16 16-16 16 7.16 16 16-7.16 16-16 16z" fill="#444444"></path>
</svg>
