<?xml version="1.0" encoding="utf-8"?>
<!-- Generated by IcoMoon.io -->
<!DOCTYPE svg PUBLIC "-//W3C//DTD SVG 1.1//EN" "http://www.w3.org/Graphics/SVG/1.1/DTD/svg11.dtd">
<svg version="1.1" xmlns="http://www.w3.org/2000/svg" xmlns:xlink="http://www.w3.org/1999/xlink" width="48" height="48" viewBox="0 0 48 48">
<path d="M40 20h-6v-2.28c3.45-0.89 6-3.99 6-7.72h-6v-2c0-1.1-0.89-2-2-2h-16c-1.1 0-2 0.9-2 2v2h-6c0 3.72 2.56 6.83 6 7.72v2.28h-6c0 3.72 2.56 6.83 6 7.72v2.28h-6c0 3.72 2.56 6.83 6 7.72v2.28c0 1.1 0.9 2 2 2h16c1.11 0 2-0.9 2-2v-2.28c3.45-0.89 6-3.99 6-7.72h-6v-2.28c3.45-0.89 6-4 6-7.72zM24 38c-2.21 0-4-1.79-4-4s1.79-4 4-4 4 1.79 4 4-1.79 4-4 4zM24 28c-2.21 0-4-1.79-4-4s1.79-4 4-4 4 1.79 4 4-1.79 4-4 4zM24 18c-2.21 0-4-1.79-4-4s1.79-4 4-4 4 1.79 4 4-1.79 4-4 4z" fill="#444444"></path>
</svg>
