<?xml version="1.0" encoding="utf-8"?>
<!-- Generated by IcoMoon.io -->
<!DOCTYPE svg PUBLIC "-//W3C//DTD SVG 1.1//EN" "http://www.w3.org/Graphics/SVG/1.1/DTD/svg11.dtd">
<svg version="1.1" xmlns="http://www.w3.org/2000/svg" xmlns:xlink="http://www.w3.org/1999/xlink" width="48" height="48" viewBox="0 0 48 48">
<path d="M25.74 30.15l-5.080-5.020 0.060-0.060c3.48-3.88 5.96-8.34 7.42-13.060h5.86v-4.010h-14v-4h-4v4h-14v3.98h22.34c-1.35 3.86-3.46 7.52-6.34 10.72-1.86-2.070-3.4-4.32-4.62-6.7h-4c1.46 3.26 3.46 6.34 5.96 9.12l-10.17 10.050 2.83 2.83 10-10 6.22 6.22 1.52-4.070zM37 20h-4l-9 24h4l2.25-6h9.5l2.25 6h4l-9-24zM31.75 34l3.25-8.67 3.25 8.67h-6.5z" fill="#444444"></path>
</svg>
