<?xml version="1.0" encoding="utf-8"?>
<!-- Generated by IcoMoon.io -->
<!DOCTYPE svg PUBLIC "-//W3C//DTD SVG 1.1//EN" "http://www.w3.org/Graphics/SVG/1.1/DTD/svg11.dtd">
<svg version="1.1" xmlns="http://www.w3.org/2000/svg" xmlns:xlink="http://www.w3.org/1999/xlink" width="48" height="48" viewBox="0 0 48 48">
<path d="M27.002 21v10.977c0 2.785-0.036 4.39 0.259 5.179 0.293 0.785 1.027 1.601 1.828 2.072 1.063 0.637 2.276 0.955 3.643 0.955 2.431 0 3.866-0.321 6.269-1.9v7.216c-2.048 0.964-3.838 1.528-5.5 1.918-1.664 0.386-3.462 0.581-5.393 0.581-2.195 0-3.491-0.276-5.176-0.827-1.685-0.556-3.125-1.35-4.313-2.369-1.193-1.027-2.017-2.119-2.477-3.273s-0.69-2.832-0.69-5.027v-16.833h-6.442v-6.797c1.885-0.611 3.992-1.49 5.333-2.632 1.348-1.146 2.426-2.518 3.239-4.123 0.815-1.601 1.375-3.643 1.681-6.118h7.739v12h11.998v9h-11.998z" fill="#444444"></path>
</svg>
