<?xml version="1.0" encoding="utf-8"?>
<!-- Generated by IcoMoon.io -->
<!DOCTYPE svg PUBLIC "-//W3C//DTD SVG 1.1//EN" "http://www.w3.org/Graphics/SVG/1.1/DTD/svg11.dtd">
<svg version="1.1" xmlns="http://www.w3.org/2000/svg" xmlns:xlink="http://www.w3.org/1999/xlink" width="48" height="48" viewBox="0 0 48 48">
<path d="M40.002 0h-32.001c-4.4 0-8.001 3.601-8.001 8.001v31.998c0 4.403 3.601 8.001 8.001 8.001h32.001c4.4 0 7.998-3.598 7.998-8.001v-31.998c-0.001-4.4-3.598-8.001-7.998-8.001zM34.299 38.657c-1.414 0.665-2.697 1.134-3.844 1.403-1.148 0.267-2.389 0.401-3.722 0.401-1.515 0-2.408-0.19-3.572-0.572-1.162-0.384-2.156-0.931-2.977-1.634-0.823-0.71-1.391-1.463-1.709-2.259s-0.476-1.955-0.476-3.469v-11.616h-4.5v-4.69c1.301-0.422 2.809-1.028 3.735-1.817 0.93-0.791 1.674-1.737 2.235-2.845 0.563-1.105 0.95-2.514 1.16-4.222h4.711v7.661h7.658v5.912h-7.658v8.493c0 1.922-0.025 3.029 0.179 3.574 0.203 0.542 0.709 1.104 1.261 1.43 0.733 0.439 1.571 0.659 2.514 0.659 1.678 0 3.346-0.545 5.004-1.635v5.224z" fill="#444444"></path>
</svg>
