<?xml version="1.0" encoding="utf-8"?>
<!-- Generated by IcoMoon.io -->
<!DOCTYPE svg PUBLIC "-//W3C//DTD SVG 1.1//EN" "http://www.w3.org/Graphics/SVG/1.1/DTD/svg11.dtd">
<svg version="1.1" xmlns="http://www.w3.org/2000/svg" xmlns:xlink="http://www.w3.org/1999/xlink" width="48" height="48" viewBox="0 0 48 48">
<path d="M48 9.113c-1.766 0.783-3.664 1.313-5.656 1.55 2.033-1.219 3.595-3.148 4.33-5.448-1.903 1.129-4.010 1.948-6.254 2.39-1.796-1.914-4.356-3.109-7.188-3.109-5.438 0-9.848 4.409-9.848 9.848 0 0.772 0.087 1.523 0.255 2.244-8.184-0.411-15.441-4.331-20.298-10.289-0.848 1.454-1.333 3.146-1.333 4.951 0 3.417 1.739 6.431 4.381 8.197-1.614-0.051-3.133-0.494-4.46-1.232-0.001 0.041-0.001 0.082-0.001 0.124 0 4.771 3.394 8.751 7.9 9.656-0.826 0.225-1.697 0.346-2.594 0.346-0.635 0-1.252-0.062-1.853-0.177 1.253 3.912 4.89 6.76 9.199 6.839-3.37 2.642-7.616 4.216-12.23 4.216-0.795 0-1.579-0.046-2.349-0.138 4.358 2.794 9.535 4.425 15.096 4.425 18.113 0 28.018-15.006 28.018-28.019 0-0.427-0.010-0.852-0.028-1.274 1.924-1.388 3.594-3.123 4.914-5.098z" fill="#444444"></path>
</svg>
