<?xml version="1.0" encoding="utf-8"?>
<!-- Generated by IcoMoon.io -->
<!DOCTYPE svg PUBLIC "-//W3C//DTD SVG 1.1//EN" "http://www.w3.org/Graphics/SVG/1.1/DTD/svg11.dtd">
<svg version="1.1" xmlns="http://www.w3.org/2000/svg" xmlns:xlink="http://www.w3.org/1999/xlink" width="48" height="48" viewBox="0 0 48 48">
<path d="M40.001 0h-31.999c-4.4 0-8.001 3.601-8.001 8.001v31.998c0 4.403 3.601 8.001 8.001 8.001h31.999c4.4 0 7.999-3.598 7.999-8.001v-31.998c0-4.4-3.599-8.001-7.999-8.001zM35.929 17.882c0.012 0.264 0.018 0.529 0.018 0.797 0 8.133-6.191 17.512-17.512 17.512-3.476 0-6.711-1.019-9.435-2.765 0.481 0.057 0.971 0.086 1.469 0.086 2.884 0 5.537-0.984 7.644-2.635-2.693-0.050-4.966-1.829-5.749-4.274 0.376 0.072 0.761 0.111 1.158 0.111 0.561 0 1.106-0.076 1.622-0.216-2.816-0.566-4.937-3.053-4.937-6.035 0-0.026 0-0.052 0.001-0.077 0.83 0.461 1.779 0.738 2.788 0.77-1.651-1.104-2.738-2.987-2.738-5.123 0-1.128 0.304-2.186 0.833-3.095 3.036 3.724 7.57 6.174 12.686 6.431-0.105-0.451-0.159-0.92-0.159-1.403 0-3.399 2.756-6.154 6.155-6.154 1.77 0 3.37 0.748 4.493 1.943 1.402-0.276 2.719-0.788 3.908-1.493-0.46 1.437-1.435 2.644-2.706 3.405 1.245-0.149 2.431-0.479 3.535-0.969-0.825 1.234-1.868 2.318-3.071 3.186z" fill="#444444"></path>
</svg>
