<?xml version="1.0" encoding="utf-8"?>
<!-- Generated by IcoMoon.io -->
<!DOCTYPE svg PUBLIC "-//W3C//DTD SVG 1.1//EN" "http://www.w3.org/Graphics/SVG/1.1/DTD/svg11.dtd">
<svg version="1.1" xmlns="http://www.w3.org/2000/svg" xmlns:xlink="http://www.w3.org/1999/xlink" width="48" height="48" viewBox="0 0 48 48">
<path d="M18 21.75c0 1.237-1.013 2.25-2.25 2.25h-4.5c-1.238 0-2.25-1.013-2.25-2.25v-4.5c0-1.237 1.012-2.25 2.25-2.25h4.5c1.237 0 2.25 1.013 2.25 2.25v4.5z" fill="#444444"></path>
<path d="M33 21.75c0 1.237-1.013 2.25-2.25 2.25h-4.5c-1.237 0-2.25-1.013-2.25-2.25v-4.5c0-1.237 1.013-2.25 2.25-2.25h4.5c1.237 0 2.25 1.013 2.25 2.25v4.5z" fill="#444444"></path>
<path d="M18 36.75c0 1.237-1.013 2.25-2.25 2.25h-4.5c-1.238 0-2.25-1.013-2.25-2.25v-4.5c0-1.237 1.012-2.25 2.25-2.25h4.5c1.237 0 2.25 1.013 2.25 2.25v4.5z" fill="#444444"></path>
<path d="M33 36.75c0 1.237-1.013 2.25-2.25 2.25h-4.5c-1.237 0-2.25-1.013-2.25-2.25v-4.5c0-1.237 1.013-2.25 2.25-2.25h4.5c1.237 0 2.25 1.013 2.25 2.25v4.5z" fill="#444444"></path>
<path d="M42.754 7.5l5.246-5.246v-2.254h-2.254l-5.246 5.246-5.246-5.246h-2.254v2.254l5.246 5.246-5.246 5.246v2.254h2.254l5.246-5.246 5.246 5.246h2.254v-2.254z" fill="#444444"></path>
<path d="M0 36h3v6h-3v-6z" fill="#444444"></path>
<path d="M0 27h3v6h-3v-6z" fill="#444444"></path>
<path d="M39 21h3v6h-3v-6z" fill="#444444"></path>
<path d="M39 39h3v6h-3v-6z" fill="#444444"></path>
<path d="M39 30h3v6h-3v-6z" fill="#444444"></path>
<path d="M0 18h3v6h-3v-6z" fill="#444444"></path>
<path d="M0 9h3v6h-3v-6z" fill="#444444"></path>
<path d="M24 6h6v3h-6v-3z" fill="#444444"></path>
<path d="M15 6h6v3h-6v-3z" fill="#444444"></path>
<path d="M6 6h6v3h-6v-3z" fill="#444444"></path>
<path d="M21 45h6v3h-6v-3z" fill="#444444"></path>
<path d="M30 45h6v3h-6v-3z" fill="#444444"></path>
<path d="M12 45h6v3h-6v-3z" fill="#444444"></path>
<path d="M3 45h6v3h-6v-3z" fill="#444444"></path>
</svg>
