<?xml version="1.0" encoding="utf-8"?>
<!-- Generated by IcoMoon.io -->
<!DOCTYPE svg PUBLIC "-//W3C//DTD SVG 1.1//EN" "http://www.w3.org/Graphics/SVG/1.1/DTD/svg11.dtd">
<svg version="1.1" xmlns="http://www.w3.org/2000/svg" xmlns:xlink="http://www.w3.org/1999/xlink" width="48" height="48" viewBox="0 0 48 48">
<path d="M30 14v8h2v4h-6v-16h4l-6-8-6 8h4v16h-6v-4.14c1.41-0.73 2.4-2.16 2.4-3.86 0-2.43-1.97-4.4-4.4-4.4s-4.4 1.97-4.4 4.4c0 1.7 0.99 3.13 2.4 3.86v4.14c0 2.21 1.79 4 4 4h6v6.1c-1.42 0.73-2.4 2.19-2.4 3.9 0 2.43 1.97 4.4 4.4 4.4s4.4-1.97 4.4-4.4c0-1.71-0.98-3.17-2.4-3.9v-6.1h6c2.21 0 4-1.79 4-4v-4h2v-8h-8z" fill="#444444"></path>
</svg>
