<?xml version="1.0" encoding="utf-8"?>
<!-- Generated by IcoMoon.io -->
<!DOCTYPE svg PUBLIC "-//W3C//DTD SVG 1.1//EN" "http://www.w3.org/Graphics/SVG/1.1/DTD/svg11.dtd">
<svg version="1.1" xmlns="http://www.w3.org/2000/svg" xmlns:xlink="http://www.w3.org/1999/xlink" width="48" height="48" viewBox="0 0 48 48">
<path d="M12 10h-6c-1.1 0-2 0.9-2 2v24c0 1.1 0.9 2 2 2h6c1.1 0 2-0.9 2-2v-24c0-1.1-0.9-2-2-2zM40 10h-6c-1.1 0-2 0.9-2 2v24c0 1.1 0.9 2 2 2h6c1.1 0 2-0.9 2-2v-24c0-1.1-0.9-2-2-2zM26 10h-6c-1.1 0-2 0.9-2 2v24c0 1.1 0.9 2 2 2h6c1.1 0 2-0.9 2-2v-24c0-1.1-0.9-2-2-2z" fill="#444444"></path>
</svg>
