<?xml version="1.0" encoding="utf-8"?>
<!-- Generated by IcoMoon.io -->
<!DOCTYPE svg PUBLIC "-//W3C//DTD SVG 1.1//EN" "http://www.w3.org/Graphics/SVG/1.1/DTD/svg11.dtd">
<svg version="1.1" xmlns="http://www.w3.org/2000/svg" xmlns:xlink="http://www.w3.org/1999/xlink" width="48" height="48" viewBox="0 0 48 48">
<path d="M39.999 0h-31.998c-4.4 0-8.001 3.601-8.001 8.001v31.998c0 4.403 3.601 8.001 8.001 8.001h31.998c4.4 0 8.001-3.598 8.001-8.001v-31.998c0-4.4-3.601-8.001-8.001-8.001zM38.103 20.537c-1.592 8.967-10.486 16.561-13.162 18.296s-5.117-0.695-6.002-2.531c-1.013-2.096-4.051-13.451-4.845-14.392-0.795-0.939-3.182 0.941-3.182 0.941l-1.157-1.517c0 0 4.846-5.786 8.533-6.51 3.91-0.767 3.904 6.003 4.844 9.761 0.909 3.636 1.52 5.716 2.314 5.716 0.796 0 2.315-2.028 3.977-5.136 1.666-3.111-0.072-5.86-3.327-3.904 1.303-7.812 13.597-9.69 12.005-0.725z" fill="#444444"></path>
</svg>
