<?xml version="1.0" encoding="utf-8"?>
<!-- Generated by IcoMoon.io -->
<!DOCTYPE svg PUBLIC "-//W3C//DTD SVG 1.1//EN" "http://www.w3.org/Graphics/SVG/1.1/DTD/svg11.dtd">
<svg version="1.1" xmlns="http://www.w3.org/2000/svg" xmlns:xlink="http://www.w3.org/1999/xlink" width="48" height="48" viewBox="0 0 48 48">
<path d="M0 14.455l1.95 2.557c0 0 4.021-3.169 5.361-1.585s6.456 20.717 8.165 24.246c1.491 3.095 5.602 7.186 10.111 4.264 4.506-2.922 19.492-15.716 22.175-30.826 2.681-15.104-18.034-11.94-20.228 1.22 5.484-3.293 8.411 1.338 5.605 6.58-2.801 5.237-5.361 8.653-6.7 8.653-1.338 0-2.367-3.505-3.899-9.63-1.584-6.333-1.574-17.741-8.161-16.447-6.211 1.22-14.376 10.968-14.376 10.968z" fill="#444444"></path>
</svg>
