<?xml version="1.0" encoding="utf-8"?>
<!-- Generated by IcoMoon.io -->
<!DOCTYPE svg PUBLIC "-//W3C//DTD SVG 1.1//EN" "http://www.w3.org/Graphics/SVG/1.1/DTD/svg11.dtd">
<svg version="1.1" xmlns="http://www.w3.org/2000/svg" xmlns:xlink="http://www.w3.org/1999/xlink" width="48" height="48" viewBox="0 0 48 48">
<path d="M24 14c5.52 0 10 4.48 10 10 0 1.29-0.26 2.52-0.71 3.65l5.85 5.85c3.020-2.52 5.4-5.78 6.87-9.5-3.47-8.78-12-15-22.010-15-2.8 0-5.48 0.5-7.97 1.4l4.32 4.31c1.13-0.44 2.36-0.71 3.65-0.71zM4 8.55l5.47 5.47c-3.3 2.58-5.91 6.010-7.47 9.98 3.46 8.78 12 15 22 15 3.1 0 6.060-0.6 8.77-1.69l0.85 0.85 5.83 5.84 2.55-2.54-35.45-35.46-2.55 2.55zM15.060 19.6l3.090 3.090c-0.090 0.43-0.15 0.86-0.15 1.31 0 3.31 2.69 6 6 6 0.45 0 0.88-0.060 1.3-0.15l3.090 3.090c-1.33 0.66-2.81 1.060-4.39 1.060-5.52 0-10-4.48-10-10 0-1.58 0.4-3.060 1.060-4.4zM23.67 18.030l6.3 6.3 0.030-0.33c0-3.31-2.69-6-6-6l-0.33 0.030z" fill="#444444"></path>
</svg>
