<?xml version="1.0" encoding="utf-8"?>
<!-- Generated by IcoMoon.io -->
<!DOCTYPE svg PUBLIC "-//W3C//DTD SVG 1.1//EN" "http://www.w3.org/Graphics/SVG/1.1/DTD/svg11.dtd">
<svg version="1.1" xmlns="http://www.w3.org/2000/svg" xmlns:xlink="http://www.w3.org/1999/xlink" width="48" height="48" viewBox="0 0 48 48">
<path d="M44 8v-1c0-2.76-2.24-5-5-5s-5 2.24-5 5v1c-1.11 0-2 0.9-2 2v8c0 1.1 0.89 2 2 2h10c1.11 0 2-0.9 2-2v-8c0-1.1-0.89-2-2-2zM42.4 8h-6.8v-1c0-1.88 1.52-3.4 3.4-3.4s3.4 1.52 3.4 3.4v1zM37.85 24c0.080 0.66 0.15 1.32 0.15 2 0 4.16-1.6 7.94-4.21 10.79-0.51-1.62-2.010-2.79-3.79-2.79h-2v-6c0-1.1-0.9-2-2-2h-12v-4h4c1.1 0 2-0.9 2-2v-4h4c2.21 0 4-1.79 4-4v-5.080c-1.89-0.6-3.91-0.92-6-0.92-11.050 0-20 8.95-20 20s8.95 20 20 20 20-8.95 20-20c0-0.68-0.040-1.34-0.1-2h-4.050zM20 41.86c-7.89-0.98-14-7.7-14-15.86 0-1.23 0.15-2.43 0.42-3.58l9.58 9.58v2c0 2.21 1.79 4 4 4v3.86z" fill="#444444"></path>
</svg>
