<?xml version="1.0" encoding="utf-8"?>
<!-- Generated by IcoMoon.io -->
<!DOCTYPE svg PUBLIC "-//W3C//DTD SVG 1.1//EN" "http://www.w3.org/Graphics/SVG/1.1/DTD/svg11.dtd">
<svg version="1.1" xmlns="http://www.w3.org/2000/svg" xmlns:xlink="http://www.w3.org/1999/xlink" width="48" height="48" viewBox="0 0 48 48">
<path d="M24 4.348l20.114 40.089h-40.228l20.114-40.089zM24 0c-1.034 0-2.069 0.698-2.854 2.093l-20.488 40.833c-1.57 2.791-0.235 5.074 2.968 5.074h40.749c3.202 0 4.537-2.283 2.967-5.074v0l-20.488-40.833c-0.784-1.395-1.819-2.093-2.854-2.093v0z" fill="#444444"></path>
<path d="M27 39c0 1.657-1.343 3-3 3s-3-1.343-3-3c0-1.657 1.343-3 3-3s3 1.343 3 3z" fill="#444444"></path>
<path d="M24 33c-1.657 0-3-1.343-3-3v-9c0-1.657 1.343-3 3-3s3 1.343 3 3v9c0 1.657-1.343 3-3 3z" fill="#444444"></path>
</svg>
