<?xml version="1.0" encoding="utf-8"?>
<!-- Generated by IcoMoon.io -->
<!DOCTYPE svg PUBLIC "-//W3C//DTD SVG 1.1//EN" "http://www.w3.org/Graphics/SVG/1.1/DTD/svg11.dtd">
<svg version="1.1" xmlns="http://www.w3.org/2000/svg" xmlns:xlink="http://www.w3.org/1999/xlink" width="48" height="48" viewBox="0 0 48 48">
<path d="M19.323 23.996c-2.236-1.149-4.41-1.732-6.463-1.732-0.279 0-0.56 0.008-0.841 0.033-2.619 0.217-5.012 0.907-6.55 1.445-0.408 0.15-0.827 0.308-1.258 0.483l-4.211 14.596c2.892-1.070 5.451-1.591 7.794-1.591 3.79 0 6.54 1.416 8.813 2.873 1.076-3.652 3.659-12.473 4.429-15.109-0.56-0.341-1.129-0.683-1.712-0.999zM24.767 27.706l-4.24 14.726c1.258 0.721 5.489 3.002 8.728 3.002 2.615 0 5.543-0.67 8.945-2.053l4.048-14.155c-2.748 0.887-5.385 1.336-7.85 1.336-4.498 0-7.646-1.458-9.632-2.857zM13.726 17.287c3.615 0.038 6.288 1.416 8.503 2.836l4.348-14.875c-0.917-0.525-3.319-1.832-5.056-2.278-1.143-0.266-2.345-0.403-3.619-0.403-2.428 0.046-5.081 0.654-8.104 1.866l-4.145 14.559c3.038-1.145 5.655-1.703 8.066-1.703 0.002 0 0.007 0 0.007 0zM48 9.287c-2.757 1.070-5.447 1.615-8.017 1.615-4.297 0-7.467-1.491-9.52-2.923l-4.31 14.918c2.894 1.862 6.014 2.806 9.287 2.806 2.669 0 5.435-0.641 8.225-1.907l-0.008-0.104 0.175-0.041 4.169-14.363z" fill="#444444"></path>
</svg>
