<?xml version="1.0" encoding="utf-8"?>
<!-- Generated by IcoMoon.io -->
<!DOCTYPE svg PUBLIC "-//W3C//DTD SVG 1.1//EN" "http://www.w3.org/Graphics/SVG/1.1/DTD/svg11.dtd">
<svg version="1.1" xmlns="http://www.w3.org/2000/svg" xmlns:xlink="http://www.w3.org/1999/xlink" width="48" height="48" viewBox="0 0 48 48">
<path d="M27 4.5c0 2.486-2.014 4.5-4.5 4.5s-4.5-2.014-4.5-4.5c0-2.486 2.014-4.5 4.5-4.5s4.5 2.014 4.5 4.5z" fill="#444444"></path>
<path d="M33.704 24l2.297-1.664-6.247-9.661c-0.277-0.421-0.748-0.674-1.253-0.674h-12c-0.504 0-0.975 0.254-1.253 0.674l-6.248 9.661 2.297 1.664 5.186-6.731 1.803 4.207-6.286 11.524h5.75l1 15h3v-15h1.5v15h3l1-15h5.75l-6.286-11.524 1.803-4.207 5.186 6.731z" fill="#444444"></path>
</svg>
