<?xml version="1.0" encoding="utf-8"?>
<!-- Generated by IcoMoon.io -->
<!DOCTYPE svg PUBLIC "-//W3C//DTD SVG 1.1//EN" "http://www.w3.org/Graphics/SVG/1.1/DTD/svg11.dtd">
<svg version="1.1" xmlns="http://www.w3.org/2000/svg" xmlns:xlink="http://www.w3.org/1999/xlink" width="48" height="48" viewBox="0 0 48 48">
<path d="M6 24c0 6.939 4.14 12.936 10.145 15.777l-8.587-22.912c-0.999 2.18-1.558 4.593-1.558 7.135zM36.151 23.115c0-2.168-0.8-3.668-1.483-4.834-0.912-1.445-1.768-2.667-1.768-4.112 0-1.611 1.255-3.112 3.022-3.112 0.080 0 0.156 0.010 0.233 0.014-3.203-2.858-7.469-4.603-12.155-4.603-6.289 0-11.822 3.143-15.040 7.902 0.422 0.014 0.821 0.021 1.158 0.021 1.882 0 4.797-0.223 4.797-0.223 0.97-0.056 1.085 1.333 0.116 1.444 0 0-0.976 0.111-2.060 0.167l6.555 18.989 3.94-11.506-2.804-7.483c-0.97-0.056-1.888-0.167-1.888-0.167-0.97-0.056-0.856-1.5 0.114-1.444 0 0 2.971 0.223 4.741 0.223 1.882 0 4.798-0.223 4.798-0.223 0.97-0.056 1.084 1.333 0.115 1.444 0 0-0.976 0.111-2.060 0.167l6.505 18.845 1.796-5.843c0.777-2.425 1.37-4.167 1.37-5.667zM24.316 25.533l-5.401 15.284c1.613 0.462 3.319 0.714 5.085 0.714 2.096 0 4.106-0.352 5.977-0.994-0.048-0.075-0.092-0.154-0.129-0.242l-5.533-14.763zM39.795 15.59c0.077 0.558 0.121 1.157 0.121 1.803 0 1.778-0.342 3.778-1.369 6.279l-5.498 15.481c5.351-3.039 8.95-8.686 8.95-15.153 0-3.048-0.8-5.914-2.205-8.41zM24 0c-13.255 0-24 10.745-24 24s10.745 24 24 24 24-10.745 24-24-10.745-24-24-24zM24 45c-11.598 0-21-9.402-21-21s9.402-21 21-21 21 9.402 21 21-9.402 21-21 21z" fill="#444444"></path>
</svg>
