<?xml version="1.0" encoding="utf-8"?>
<!-- Generated by IcoMoon.io -->
<!DOCTYPE svg PUBLIC "-//W3C//DTD SVG 1.1//EN" "http://www.w3.org/Graphics/SVG/1.1/DTD/svg11.dtd">
<svg version="1.1" xmlns="http://www.w3.org/2000/svg" xmlns:xlink="http://www.w3.org/1999/xlink" width="48" height="48" viewBox="0 0 48 48">
<path d="M24.316 25.533l5.533 14.763c0.037 0.087 0.081 0.167 0.129 0.242-1.871 0.641-3.881 0.994-5.977 0.994-1.767 0-3.473-0.252-5.085-0.714l5.401-15.284zM42 24c0 6.467-3.599 12.114-8.95 15.153l5.497-15.481c1.028-2.501 1.369-4.501 1.369-6.279 0-0.646-0.044-1.244-0.121-1.803 1.406 2.497 2.205 5.362 2.205 8.41zM6 24c0-2.542 0.559-4.955 1.558-7.135l8.587 22.912c-6.005-2.841-10.145-8.839-10.145-15.777zM8.961 14.37c3.218-4.759 8.751-7.902 15.040-7.902 4.686 0 8.953 1.745 12.155 4.603-0.077-0.005-0.153-0.014-0.233-0.014-1.769 0-3.023 1.5-3.023 3.112 0 1.444 0.856 2.667 1.769 4.112 0.685 1.168 1.483 2.668 1.483 4.834 0 1.5-0.593 3.242-1.37 5.667l-1.796 5.843-6.505-18.845c1.084-0.056 2.060-0.167 2.060-0.167 0.97-0.112 0.856-1.5-0.115-1.444 0 0-2.916 0.223-4.798 0.223-1.769 0-4.741-0.223-4.741-0.223-0.971-0.056-1.085 1.389-0.114 1.444 0 0 0.918 0.111 1.888 0.167l2.804 7.483-3.94 11.506-6.555-18.989c1.085-0.056 2.060-0.167 2.060-0.167 0.969-0.112 0.855-1.5-0.116-1.444 0 0-2.915 0.223-4.797 0.223-0.337 0-0.736-0.008-1.158-0.021zM39.938 0h-31.875c-4.434 0-8.063 3.628-8.063 8.063v31.875c0 4.435 3.628 8.063 8.063 8.063h31.875c4.435 0 8.063-3.628 8.063-8.063v-31.875c0-4.434-3.628-8.063-8.063-8.063zM45 24c0 11.598-9.402 21-21 21s-21-9.402-21-21 9.402-21 21-21 21 9.402 21 21z" fill="#444444"></path>
</svg>
