<?xml version="1.0" encoding="utf-8"?>
<!-- Generated by IcoMoon.io -->
<!DOCTYPE svg PUBLIC "-//W3C//DTD SVG 1.1//EN" "http://www.w3.org/Graphics/SVG/1.1/DTD/svg11.dtd">
<svg version="1.1" xmlns="http://www.w3.org/2000/svg" xmlns:xlink="http://www.w3.org/1999/xlink" width="48" height="48" viewBox="0 0 48 48">
<path d="M47.012 38.338l-21.589-18.504c1.005-1.889 1.576-4.045 1.576-6.334 0-7.456-6.044-13.5-13.5-13.5-1.364 0-2.68 0.203-3.921 0.579l7.799 7.799c1.167 1.167 1.167 3.076 0 4.243l-4.757 4.757c-1.167 1.167-3.076 1.167-4.243 0l-7.799-7.799c-0.376 1.241-0.579 2.557-0.579 3.921 0 7.456 6.044 13.5 13.5 13.5 2.289 0 4.445-0.571 6.334-1.576l18.504 21.589c1.074 1.253 2.907 1.323 4.073 0.157l4.757-4.757c1.166-1.167 1.096-3-0.157-4.073z" fill="#444444"></path>
</svg>
