<?xml version="1.0" encoding="utf-8"?>
<!-- Generated by IcoMoon.io -->
<!DOCTYPE svg PUBLIC "-//W3C//DTD SVG 1.1//EN" "http://www.w3.org/Graphics/SVG/1.1/DTD/svg11.dtd">
<svg version="1.1" xmlns="http://www.w3.org/2000/svg" xmlns:xlink="http://www.w3.org/1999/xlink" width="48" height="48" viewBox="0 0 48 48">
<path d="M40.001 0h-31.999c-4.4 0-8.001 3.601-8.001 8.001v31.998c0 4.403 3.601 8.001 8.001 8.001h31.999c4.4 0 7.999-3.598 7.999-8.001v-31.998c0-4.4-3.599-8.001-7.999-8.001zM14.614 31.255h-5.215c-0.314 0-0.549-0.141-0.682-0.355-0.137-0.223-0.145-0.512 0-0.8l5.542-9.779c0.006-0.011 0.006-0.018 0-0.030l-3.527-6.105c-0.146-0.29-0.167-0.578-0.030-0.8 0.133-0.216 0.397-0.326 0.711-0.326h5.216c0.8 0 1.192 0.515 1.452 0.978 0 0 3.565 6.218 3.586 6.253-0.212 0.372-5.63 9.957-5.63 9.957-0.266 0.481-0.643 1.007-1.423 1.007zM39.277 7.057l-11.548 20.418c-0.007 0.011-0.007 0.024 0 0.035l7.353 13.434c0.145 0.29 0.149 0.584 0.011 0.806-0.133 0.215-0.378 0.333-0.692 0.333h-5.209c-0.799 0-1.199-0.531-1.457-0.994 0 0-7.392-13.561-7.411-13.596 0.37-0.655 11.606-20.58 11.606-20.58 0.28-0.503 0.617-0.994 1.397-0.994h5.269c0.314 0 0.561 0.119 0.694 0.333 0.137 0.223 0.133 0.517-0.011 0.805z" fill="#444444"></path>
</svg>
