<?xml version="1.0" encoding="utf-8"?>
<!-- Generated by IcoMoon.io -->
<!DOCTYPE svg PUBLIC "-//W3C//DTD SVG 1.1//EN" "http://www.w3.org/Graphics/SVG/1.1/DTD/svg11.dtd">
<svg version="1.1" xmlns="http://www.w3.org/2000/svg" xmlns:xlink="http://www.w3.org/1999/xlink" width="48" height="48" viewBox="0 0 48 48">
<path d="M24 0c-13.255 0-24 10.745-24 24s10.745 24 24 24 24-10.745 24-24-10.745-24-24-24zM16.195 30.019h-4.337c-0.261 0-0.457-0.117-0.567-0.295-0.114-0.185-0.12-0.425 0-0.664l4.609-8.113c0.005-0.009 0.005-0.015 0-0.025l-2.933-5.064c-0.121-0.241-0.139-0.479-0.025-0.664 0.11-0.179 0.33-0.271 0.592-0.271h4.337c0.665 0 0.991 0.428 1.208 0.812 0 0 2.965 5.159 2.982 5.187-0.176 0.309-4.683 8.261-4.683 8.261-0.222 0.399-0.534 0.835-1.183 0.835zM36.706 9.944l-9.604 16.938c-0.006 0.009-0.006 0.020 0 0.028l6.115 11.144c0.122 0.24 0.124 0.484 0.009 0.669-0.11 0.178-0.314 0.276-0.576 0.276h-4.333c-0.665 0-0.997-0.44-1.211-0.824 0 0-6.148-11.249-6.164-11.278 0.308-0.543 9.652-17.073 9.652-17.073 0.233-0.417 0.514-0.824 1.161-0.824h4.382c0.262 0 0.466 0.098 0.577 0.276 0.115 0.185 0.111 0.429-0.009 0.668z" fill="#444444"></path>
</svg>
