<?xml version="1.0" encoding="utf-8"?>
<!-- Generated by IcoMoon.io -->
<!DOCTYPE svg PUBLIC "-//W3C//DTD SVG 1.1//EN" "http://www.w3.org/Graphics/SVG/1.1/DTD/svg11.dtd">
<svg version="1.1" xmlns="http://www.w3.org/2000/svg" xmlns:xlink="http://www.w3.org/1999/xlink" width="48" height="48" viewBox="0 0 48 48">
<path d="M39.75 30l-0.697-19.501c-0.029-0.824 0.622-1.499 1.447-1.499h6c0.825 0 1.382 0.665 1.236 1.477l-3.486 19.523zM45 36.375c0 1.444-1.181 2.625-2.625 2.625h-0.75c-1.444 0-2.625-1.181-2.625-2.625v-0.75c0-1.444 1.181-2.625 2.625-2.625h0.75c1.444 0 2.625 1.181 2.625 2.625v0.75zM18 9c-9.941 0-18 6.716-18 15s8.059 15 18 15 18-6.715 18-15c0-8.284-8.059-15-18-15zM30 21h-3.481l-5.519 5.519v3.481h4.5v3h-12v-3h4.5v-3.481l-8.519-8.519h-1.972v-3h8.981v3h-1.972l4.981 4.981 1.5-1.5v-3.481h9v3z" fill="#444444"></path>
</svg>
