<?xml version="1.0" encoding="utf-8"?>
<!-- Generated by IcoMoon.io -->
<!DOCTYPE svg PUBLIC "-//W3C//DTD SVG 1.1//EN" "http://www.w3.org/Graphics/SVG/1.1/DTD/svg11.dtd">
<svg version="1.1" xmlns="http://www.w3.org/2000/svg" xmlns:xlink="http://www.w3.org/1999/xlink" width="48" height="48" viewBox="0 0 48 48">
<path d="M28.541 30.631c-0.81 0.817-0.125 2.303-0.125 2.303l6.098 10.182c0 0 1.001 1.343 1.869 1.343 0.871 0 1.733-0.715 1.733-0.715l4.821-6.891c0 0 0.486-0.869 0.496-1.631 0.017-1.083-1.615-1.38-1.615-1.38l-11.414-3.665c0 0-1.118-0.296-1.863 0.455zM27.962 25.499c0.584 0.991 2.195 0.702 2.195 0.702l11.388-3.328c0 0 1.552-0.631 1.773-1.473 0.217-0.841-0.256-1.857-0.256-1.857l-5.442-6.41c0 0-0.472-0.811-1.45-0.892-1.078-0.091-1.743 1.214-1.743 1.214l-6.434 10.126c0 0-0.569 1.009-0.031 1.919zM22.582 21.551c1.341-0.33 1.554-2.279 1.554-2.279l-0.091-16.213c0 0-0.202-2-1.101-2.542-1.409-0.855-1.827-0.409-2.231-0.349l-9.455 3.513c0 0-0.926 0.307-1.409 1.079-0.688 1.095 0.7 2.697 0.7 2.697l9.827 13.395c0 0 0.97 1.003 2.205 0.698zM20.248 28.113c0.034-1.25-1.502-2.002-1.502-2.002l-10.162-5.134c0 0-1.506-0.621-2.237-0.188-0.56 0.331-1.057 0.93-1.105 1.46l-0.662 8.147c0 0-0.099 1.412 0.267 2.054 0.518 0.911 2.223 0.277 2.223 0.277l11.864-2.622c0.46-0.31 1.269-0.338 1.314-1.991zM23.197 32.509c-1.018-0.523-2.237 0.56-2.237 0.56l-7.944 8.745c0 0-0.992 1.337-0.74 2.158 0.238 0.77 0.631 1.152 1.187 1.421l7.978 2.518c0 0 0.967 0.201 1.7-0.011 1.040-0.301 0.848-1.929 0.848-1.929l0.18-11.841c0 0-0.041-1.141-0.973-1.623z" fill="#444444"></path>
</svg>
