<?xml version="1.0" encoding="utf-8"?>
<!-- Generated by IcoMoon.io -->
<!DOCTYPE svg PUBLIC "-//W3C//DTD SVG 1.1//EN" "http://www.w3.org/Graphics/SVG/1.1/DTD/svg11.dtd">
<svg version="1.1" xmlns="http://www.w3.org/2000/svg" xmlns:xlink="http://www.w3.org/1999/xlink" width="48" height="48" viewBox="0 0 48 48">
<path d="M39 6h-30c-4.95 0-9 4.050-9 9v18c0 4.95 4.050 9 9 9h30c4.95 0 9-4.050 9-9v-18c0-4.95-4.050-9-9-9zM45 33c0 1.593-0.627 3.097-1.765 4.235s-2.642 1.765-4.235 1.765h-30c-1.593 0-3.097-0.627-4.234-1.765s-1.766-2.642-1.766-4.235v-18c0-1.593 0.627-3.097 1.766-4.235s2.642-1.765 4.234-1.765h30c1.593 0 3.097 0.627 4.235 1.765s1.765 2.642 1.765 4.235v18zM18 36l15-12-15-12z" fill="#444444"></path>
</svg>
