<?xml version="1.0" encoding="utf-8"?>
<!-- Generated by IcoMoon.io -->
<!DOCTYPE svg PUBLIC "-//W3C//DTD SVG 1.1//EN" "http://www.w3.org/Graphics/SVG/1.1/DTD/svg11.dtd">
<svg version="1.1" xmlns="http://www.w3.org/2000/svg" xmlns:xlink="http://www.w3.org/1999/xlink" width="48" height="48" viewBox="0 0 48 48">
<path d="M13.743 0l-3.243 6.433-3.243-6.433h-4.137l5.845 10.187 0.034-0.020v7.834h3v-7.834l0.034 0.020 5.846-10.187z" fill="#444444"></path>
<path d="M22.5 6c0.813 0 1.5 0.687 1.5 1.5v6c0 0.813-0.687 1.5-1.5 1.5s-1.5-0.687-1.5-1.5v-6c0-0.813 0.687-1.5 1.5-1.5zM22.5 3c-2.475 0-4.5 2.025-4.5 4.5v6c0 2.475 2.025 4.5 4.5 4.5s4.5-2.025 4.5-4.5v-6c0-2.475-2.025-4.5-4.5-4.5v0z" fill="#444444"></path>
<path d="M36 3v11.811c-1.309 1.092-3 1.75-3-2.139v-9.672h-3v10.281h0.005c0.046 2.48 0.569 6.946 5.995 3.314v1.405h3v-15h-3z" fill="#444444"></path>
<path d="M40.5 33c-0.827 0-1.5 0.673-1.5 1.5v1.5h3v-1.5c0-0.827-0.673-1.5-1.5-1.5z" fill="#444444"></path>
<path d="M27 34.5v7.875c1.015 1.016 3 1.125 3-0.375s0-5.531 0-7.031-1.5-1.969-3-0.469z" fill="#444444"></path>
<path d="M47.755 27.259c-0.131-1.728-0.752-3.138-1.864-4.23s-2.535-1.688-4.269-1.785c-3.271-0.163-10.756-0.245-17.33-0.245s-14.592 0.082-17.863 0.245c-1.734 0.098-3.157 0.693-4.269 1.785s-1.734 2.502-1.865 4.23c-0.197 3.521-0.295 4.798-0.295 6.558s0.098 4.401 0.295 7.922c0.13 1.728 0.752 3.138 1.865 4.23s2.535 1.687 4.269 1.785c3.271 0.163 11.288 0.245 17.863 0.245s14.059-0.082 17.33-0.245c1.734-0.098 3.157-0.693 4.269-1.785s1.734-2.502 1.864-4.23c0.163-2.934 0.245-5.575 0.245-7.922s-0.082-3.624-0.245-6.558zM9 45h-3v-15h-3v-3h9v3h-3v15zM21 45h-3v-1.405c-5.703 3.201-5.949 0.103-5.995-2.377h-0.005v-8.218h3v8.266c0 1.813 1.691 1.637 3 0.545v-8.811h3v12zM33 41.957c0 3.136-3.211 4.050-6 1.612v1.431h-3v-18h3v4.875c3-3 6-1.875 6 1.125s0 5.68 0 8.957zM45 36v1.5h-6v3c0 0.827 0.673 1.5 1.5 1.5s1.5-0.673 1.5-1.5v-1.5h3v1.5c0 2.481-2.019 4.5-4.5 4.5s-4.5-2.019-4.5-4.5v-6c0-2.481 2.019-4.5 4.5-4.5s4.5 2.019 4.5 4.5v1.5z" fill="#444444"></path>
</svg>
